<?xml version="1.0" standalone="no"?>
<!DOCTYPE svg PUBLIC "-//W3C//DTD SVG 1.1//EN" "http://www.w3.org/Graphics/SVG/1.1/DTD/svg11.dtd" >
<svg xmlns="http://www.w3.org/2000/svg" xmlns:xlink="http://www.w3.org/1999/xlink" version="1.1">
<metadata>
Created by FontForge 20170731 at Wed Nov 16 23:15:30 2022
 By Aleksey,,,
Copyright 2021 The Hanken Grotesk Project Authors (https://github.com/marcologous/hanken-grotesk)
</metadata>
<defs>
<font id="HankenGrotesk-SemiBold" horiz-adv-x="0" >
  <font-face 
    font-family="Hanken Grotesk SemiBold"
    font-weight="600"
    font-stretch="normal"
    units-per-em="1000"
    panose-1="0 0 0 0 0 0 0 0 0 0"
    ascent="800"
    descent="-200"
    x-height="493"
    cap-height="697"
    bbox="-175 -258 1306 995"
    underline-thickness="40"
    underline-position="-181"
    unicode-range="U+0020-FB02"
  />
<missing-glyph horiz-adv-x="507" 
d="M50 0v473h407v-473h-407zM89 40h329v393h-329v-393z" />
    <glyph glyph-name="fi" unicode="fi" horiz-adv-x="539" 
d="M94 0v407h-84v86h84v36q0 57 28.5 96.5t74.5 60t100 20.5q60 0 103 -12.5t81 -36.5l-52 -79q-26 19 -57.5 28.5t-69.5 9.5q-49 0 -73 -24.5t-24 -71.5v-27h204l-1 -86h-203v-407h-111zM368 0v493h111v-493h-111z" />
    <glyph glyph-name="fl" unicode="fl" horiz-adv-x="580" 
d="M479 -9q-47 0 -78.5 29.5t-31.5 94.5v486q-19 8 -35.5 11.5t-33.5 3.5q-49 0 -73 -24t-24 -65v-34h94v-86h-94v-407h-110v407h-83v86h83v36q0 57 28 96t73.5 60t99.5 21q59 0 101.5 -13t85.5 -40v-518q0 -43 37 -43q8 0 17 2t21 6v-95q-22 -8 -42.5 -11t-34.5 -3z" />
    <glyph glyph-name="f_f" unicode="ff" horiz-adv-x="621" 
d="M94 0v407h-84v86h84v37q0 56 28 95t75 60t102 21q33 0 64.5 -7t60.5 -24q21 17 49 24t60 7q27 0 48.5 -5t42.5 -16l-36 -84q-12 6 -22.5 9.5t-21.5 3.5q-31 0 -44 -17.5t-13 -47.5v-56h125v-86h-125v-407h-111v407h-171v-407h-111zM205 493h172v68q0 10 2 19.5t6 16.5
q-18 9 -37.5 14t-43.5 5q-50 0 -74.5 -24t-24.5 -65v-34z" />
    <glyph glyph-name="f_f_i" unicode="ffi" horiz-adv-x="827" 
d="M94 0v407h-84v86h84v37q0 56 28 95t75 60t102 21q35 0 73 -9.5t70 -31.5q27 21 62.5 31t73.5 10q59 0 102 -12.5t82 -36.5l-52 -79q-26 18 -57.5 28t-69.5 10q-50 0 -73.5 -24t-23.5 -65v-34h283v-493h-111v407h-172v-407h-110v407h-171v-407h-111zM205 493h171v36
q0 18 4 38.5t8 27.5q-16 10 -37 15.5t-47 5.5q-50 0 -74.5 -24t-24.5 -65v-34z" />
    <glyph glyph-name="f_f_l" unicode="ffl" horiz-adv-x="868" 
d="M768 -9q-47 0 -78.5 30t-31.5 94v486q-19 8 -36.5 11.5t-38.5 3.5q-50 0 -73.5 -24t-23.5 -65v-34h97v-86h-97v-407h-110v407h-171v-407h-111v407h-84v86h84v37q0 56 28 95t75 60t102 21q38 0 75 -9.5t67 -30.5q27 20 63 30t74 10q61 0 104.5 -13t86.5 -40v-512
q0 -26 9 -37.5t28 -11.5q16 0 38 8v-95q-18 -7 -39 -10.5t-37 -3.5zM205 493h171v36q0 19 3.5 34.5t8.5 31.5q-15 9 -36.5 15t-47.5 6q-50 0 -74.5 -25t-24.5 -71v-27z" />
    <glyph glyph-name="hyphen_greater.liga" unicode="&#x2d;&#x3e;" horiz-adv-x="1136" 
d="M570 3l-38 74l349 196l4 -16h-861v82h861l-4 -16l-349 195l38 75l529 -295z" />
    <glyph glyph-name="less_hyphen.liga" unicode="&#x3c;&#x2d;" horiz-adv-x="1136" 
d="M566 3l-529 295l529 295l37 -75l-348 -195l-4 16h861v-82h-861l4 16l348 -196z" />
    <glyph glyph-name=".notdef" horiz-adv-x="507" 
d="M50 0v473h407v-473h-407zM89 40h329v393h-329v-393z" />
    <glyph glyph-name=".null" 
 />
    <glyph glyph-name="nonmarkingreturn" horiz-adv-x="333" 
 />
    <glyph glyph-name="space" unicode=" " horiz-adv-x="260" 
 />
    <glyph glyph-name="exclam" unicode="!" horiz-adv-x="248" 
d="M82 209l-13 488h111l-13 -488h-85zM63 0v126h122v-126h-122z" />
    <glyph glyph-name="quotedbl" unicode="&#x22;" horiz-adv-x="357" 
d="M46 411v286h94v-286h-94zM216 411v286h94v-286h-94z" />
    <glyph glyph-name="numbersign" unicode="#" horiz-adv-x="696" 
d="M119 0l45 205h-117v79h133l29 139h-121v83h138l44 191h89l-44 -195h131l42 195h88l-44 -195h117v-79h-133l-31 -139h123v-79h-139l-45 -205h-87l45 205h-133l-42 -205h-88zM269 284h131l28 139h-132z" />
    <glyph glyph-name="dollar" unicode="$" horiz-adv-x="560" 
d="M243 -114v136h81v-136h-81zM243 673v135h81v-135h-81zM292 -13q-110 0 -179.5 57t-85.5 152l113 28q11 -66 52.5 -100t102.5 -34q34 0 61 12.5t42.5 35.5t15.5 52q0 31 -17 51.5t-49 37t-78 34.5q-63 24 -107 52t-67 66.5t-23 91.5q0 55 27 97.5t76 66.5t113 24
q69 0 122 -31t85 -94l-92 -56q-21 38 -51 58.5t-68 20.5q-27 0 -49 -10.5t-34.5 -29.5t-12.5 -44q0 -26 15 -45.5t46.5 -35.5t80.5 -35q63 -24 107 -52t67.5 -66.5t23.5 -93.5q0 -61 -30 -108t-83.5 -74.5t-123.5 -27.5z" />
    <glyph glyph-name="percent" unicode="%" horiz-adv-x="739" 
d="M105 0l444 697h80l-444 -697h-80zM544 -9q-43 0 -77.5 20t-55 56.5t-20.5 85.5q0 48 20 84.5t54.5 56.5t76.5 20q43 0 77.5 -21.5t55 -58t20.5 -81.5t-20 -81.5t-54 -58.5t-77 -22zM544 66q22 0 39 11.5t27 31t10 44.5q0 26 -10.5 45t-28 30t-39.5 11q-20 0 -37.5 -10.5
t-28 -29.5t-10.5 -46q0 -28 11 -47.5t29 -29.5t38 -10zM198 384q-42 0 -77 20t-55.5 56.5t-20.5 83.5q0 50 20.5 86t54.5 56t76 20q43 0 77.5 -21.5t54.5 -58t20 -82.5q0 -43 -19.5 -80t-53.5 -58.5t-77 -21.5zM198 459q21 0 38 11.5t27 30.5t10 43q0 27 -10.5 46.5t-28 30
t-38.5 10.5t-38 -10t-27.5 -29t-10.5 -48q0 -26 10.5 -45.5t28.5 -29.5t39 -10z" />
    <glyph glyph-name="ampersand" unicode="&#x26;" horiz-adv-x="696" 
d="M277 -11q-65 0 -117 20t-82 59.5t-30 96.5q0 46 19 81t49 61.5t66.5 48.5t72.5 42q40 23 72 45.5t51 48t19 57.5q0 27 -17.5 47.5t-56.5 20.5q-37 0 -61 -21t-24 -58q0 -23 10.5 -45t26 -41.5t28.5 -34.5l-88 -46q-17 20 -37 44.5t-33.5 56t-13.5 68.5q0 52 26 88.5
t69.5 56.5t95.5 20q81 0 129.5 -41.5t48.5 -113.5q0 -56 -29 -97.5t-73.5 -73.5t-91.5 -60q-38 -23 -70.5 -44.5t-53 -46t-20.5 -58.5q0 -40 31.5 -63t83.5 -23q103 0 168.5 75t94.5 210l98 -15q-20 -122 -71 -203t-125 -121.5t-165 -40.5zM575 -36l-308 355l88 54l299 -340
z" />
    <glyph glyph-name="quotesingle" unicode="'" horiz-adv-x="186" 
d="M46 411v286h94v-286h-94z" />
    <glyph glyph-name="parenleft" unicode="(" horiz-adv-x="259" 
d="M151 -204q-29 41 -52 94.5t-38 113t-22.5 121.5t-7.5 120q0 84 13.5 166.5t40.5 156t67 129.5h100q-45 -60 -74.5 -135t-44 -155.5t-14.5 -160.5q0 -58 8.5 -119.5t25.5 -121t42 -113t57 -96.5h-101z" />
    <glyph glyph-name="parenright" unicode=")" horiz-adv-x="259" 
d="M107 -204h-100q33 43 57.5 96.5t41.5 113t25.5 121t8.5 119.5q0 80 -14.5 160.5t-44 155.5t-74.5 135h100q41 -56 67.5 -129.5t40 -156t13.5 -166.5q0 -58 -7.5 -120t-23 -121.5t-38 -113t-52.5 -94.5z" />
    <glyph glyph-name="asterisk" unicode="*" horiz-adv-x="399" 
d="M132 386l-54 41l89 99l-130 28l20 66l122 -55l-14 132h68l-13 -132l122 55l20 -66l-130 -28l89 -99l-54 -41l-68 116z" />
    <glyph glyph-name="plus" unicode="+" horiz-adv-x="560" 
d="M236 5v199h-198v87h198v198h88v-198h199v-87h-199v-199h-88z" />
    <glyph glyph-name="comma" unicode="," horiz-adv-x="240" 
d="M25 -150l76 303h124l-127 -303h-73z" />
    <glyph glyph-name="hyphen" unicode="-" horiz-adv-x="327" 
d="M40 257v82h248v-82h-248z" />
    <glyph glyph-name="period" unicode="." horiz-adv-x="240" 
d="M59 0v126h122v-126h-122z" />
    <glyph glyph-name="slash" unicode="/" horiz-adv-x="420" 
d="M-53 -211l360 908h85l-361 -908h-84z" />
    <glyph glyph-name="zero" unicode="0" horiz-adv-x="560" 
d="M281 -9q-63 0 -105.5 22.5t-69 60.5t-40.5 85t-18.5 97t-4.5 96q0 44 4.5 93t18 95.5t39.5 84t69 60t105 22.5t104.5 -22t69 -59t40.5 -83t19 -96t5 -96q0 -48 -5 -98.5t-19.5 -97t-40.5 -83.5t-68 -59t-103 -22zM281 98q49 0 75.5 33.5t37 90.5t10.5 125q0 73 -10.5 130
t-37.5 90.5t-77 33.5q-38 0 -62 -20t-37 -55.5t-18.5 -81t-5.5 -96.5q0 -49 5.5 -94t18.5 -80t37.5 -55.5t63.5 -20.5z" />
    <glyph glyph-name="one" unicode="1" horiz-adv-x="560" 
d="M278 0v555l33 -56h-213v89h112q34 0 51 14t17 50v45h111v-697h-111z" />
    <glyph glyph-name="two" unicode="2" horiz-adv-x="560" 
d="M43 0v86q33 25 77 57t89.5 70t84.5 81.5t63.5 90.5t24.5 97t-27 82.5t-83 32.5q-43 0 -70 -21t-40 -55.5t-14 -74.5l-109 9q0 48 15.5 92.5t45.5 80t74 56t101 20.5q64 0 112.5 -27t76 -76t27.5 -115q0 -54 -18.5 -104t-52 -95.5t-78.5 -86t-98 -76t-112 -64.5l29 43h358
v-103h-476z" />
    <glyph glyph-name="three" unicode="3" horiz-adv-x="560" 
d="M275 -9q-77 0 -135 28.5t-90 79.5t-32 119l111 7q0 -58 41 -92.5t108 -34.5q45 0 76.5 13.5t48 39.5t16.5 61q0 31 -13 52t-36.5 33.5t-57 18t-74.5 5.5v88q29 0 55 5t45.5 16.5t30.5 30t11 46.5t-13.5 49t-37 32.5t-55.5 11.5q-54 0 -84 -29t-31 -76l-109 7q0 60 29 106
t80.5 72t117.5 26q63 0 111 -24t75.5 -66t27.5 -98q0 -26 -7 -48t-20.5 -39.5t-31.5 -30.5t-39 -22q29 -9 54 -23t43.5 -35t29 -48t10.5 -61q0 -65 -32 -114.5t-89.5 -77.5t-133.5 -28z" />
    <glyph glyph-name="four" unicode="4" horiz-adv-x="560" 
d="M327 0v165h-316v86l328 446h99v-429h111v-103h-111v-165h-111zM99 229l-4 39h232v316l14 -14z" />
    <glyph glyph-name="five" unicode="5" horiz-adv-x="560" 
d="M277 -9q-64 0 -117.5 27.5t-88 74.5t-43.5 106l109 19q4 -30 21 -58.5t47 -45.5t71 -17q46 0 76 21t45 54.5t15 69.5q0 35 -14.5 65t-43.5 48t-75 18q-42 0 -73 -19t-52 -49l-105 27l67 365h382v-103h-341l59 46l-46 -245l-34 8q39 45 80.5 59.5t78.5 14.5q69 0 122 -32
t82.5 -86t29.5 -117q0 -50 -18 -95t-52 -80.5t-80.5 -55.5t-101.5 -20z" />
    <glyph glyph-name="six" unicode="6" horiz-adv-x="560" 
d="M391 697l-174 -271l-14 18q20 10 40 15t40 5q67 0 120.5 -31t84.5 -84t31 -118q0 -70 -34.5 -124t-91 -85t-125.5 -31q-68 0 -125.5 31t-91.5 85t-34 123q0 34 10.5 67t27.5 63l209 337h127zM268 366q-37 0 -68.5 -17t-50.5 -47.5t-19 -70.5t19 -70.5t50 -47.5t69 -17
q39 0 70 17t49.5 47.5t18.5 70.5t-18.5 70.5t-49.5 47.5t-70 17z" />
    <glyph glyph-name="seven" unicode="7" horiz-adv-x="560" 
d="M92 0l328 636l31 -42h-423v103h502v-82l-314 -615h-124z" />
    <glyph glyph-name="eight" unicode="8" horiz-adv-x="560" 
d="M280 -9q-66 0 -124 24t-94 71.5t-36 118.5q0 58 27 103t80 71q-33 21 -52.5 54.5t-19.5 78.5q0 61 31.5 104.5t81.5 66.5t107 23q58 0 108 -23.5t79.5 -67.5t29.5 -105q0 -45 -18.5 -77.5t-52.5 -53.5q53 -26 80 -71t27 -103q0 -71 -36 -118.5t-93.5 -71.5t-124.5 -24z
M280 96q40 0 72 13.5t51 40t19 66.5q0 37 -18 63.5t-50 41t-74 14.5t-74 -14.5t-50.5 -41t-18.5 -63.5q0 -40 19.5 -66.5t51.5 -40t72 -13.5zM281 410q47 0 77 25.5t30 67.5q0 44 -29 71t-78 27q-31 0 -55.5 -11.5t-39 -33t-14.5 -51.5q0 -43 30.5 -69t78.5 -26z" />
    <glyph glyph-name="nine" unicode="9" horiz-adv-x="560" 
d="M156 0l174 271l14 -18q-18 -10 -39 -15t-41 -5q-67 0 -120 31t-84 84t-31 118q0 70 34 124t91 85t125 31q69 0 126 -31t91.5 -84.5t34.5 -123.5q0 -34 -10.5 -67t-28.5 -63l-208 -337h-128zM279 331q38 0 69 17t50 47.5t19 70.5q0 41 -18.5 71t-50 47t-69.5 17t-69 -17
t-50 -47.5t-19 -70.5t18.5 -70.5t50 -47.5t69.5 -17z" />
    <glyph glyph-name="colon" unicode=":" horiz-adv-x="240" 
d="M59 343v128h122v-128h-122zM59 0v126h122v-126h-122z" />
    <glyph glyph-name="semicolon" unicode=";" horiz-adv-x="240" 
d="M7 -150l77 280h124l-126 -280h-75zM74 343v128h123v-128h-123z" />
    <glyph glyph-name="less" unicode="&#x3c;" horiz-adv-x="560" 
d="M527 -8l-500 200v110l500 199v-94l-457 -177v34l457 -178v-94z" />
    <glyph glyph-name="equal" unicode="=" horiz-adv-x="560" 
d="M76 313v88h409v-88h-409zM76 93v87h409v-87h-409z" />
    <glyph glyph-name="greater" unicode="&#x3e;" horiz-adv-x="560" 
d="M33 -8v94l457 178v-34l-457 177v94l500 -199v-110z" />
    <glyph glyph-name="question" unicode="?" horiz-adv-x="515" 
d="M207 207v44q0 42 12 70.5t31 49t40.5 36.5t40.5 31.5t31 35.5t12 48q0 45 -30.5 68.5t-84.5 23.5q-61 0 -93 -31.5t-32 -89.5h-98q1 68 29.5 115.5t79 72.5t115.5 25q59 0 106.5 -19t76 -60t28.5 -107q0 -43 -12.5 -72.5t-31.5 -50t-40.5 -35.5t-41 -31t-32 -36.5
t-12.5 -51.5v-36h-94zM195 0v126h122v-126h-122z" />
    <glyph glyph-name="at" unicode="@" horiz-adv-x="874" 
d="M438 -110q-80 0 -150 28.5t-122.5 79.5t-82 120t-29.5 149q0 85 28.5 156.5t80.5 124t122.5 81.5t152.5 29q83 0 153 -28.5t121.5 -79t80 -118.5t28.5 -148q0 -64 -16.5 -110t-50.5 -71t-86 -25q-38 0 -67.5 14t-46 37t-16.5 51v28l24 -34q-19 -49 -62 -74t-94 -25
q-52 0 -93 24t-64.5 67.5t-23.5 100.5q0 58 23.5 101.5t64.5 68t93 24.5q46 0 81 -21.5t56 -64.5l-15 10l13 68h85v-226q0 -35 11.5 -50t38.5 -15q34 0 49.5 30.5t15.5 89.5q0 65 -22.5 118.5t-63 93t-95.5 61t-122 21.5q-65 0 -120.5 -22.5t-96 -63.5t-63 -97.5
t-22.5 -124.5q0 -64 23 -118t64.5 -94t96.5 -62.5t118 -22.5q87 0 165 48l38 -72q-44 -28 -96.5 -42.5t-106.5 -14.5zM428 162q29 0 50.5 13t34 36.5t12.5 55.5t-12.5 56t-34 37.5t-50.5 13.5q-28 0 -50 -13.5t-34.5 -37.5t-12.5 -56q0 -31 12.5 -55t34.5 -37t50 -13z" />
    <glyph glyph-name="A" unicode="A" horiz-adv-x="661" 
d="M11 0l276 697h88l275 -697h-126l-193 528l-193 -528h-127zM183 146l36 103h223l38 -103h-297z" />
    <glyph glyph-name="B" unicode="B" horiz-adv-x="608" 
d="M71 0v697h238q102 0 160.5 -46.5t58.5 -128.5q0 -50 -21 -87.5t-59 -59.5q58 -19 87 -63t29 -110q0 -95 -59.5 -148.5t-166.5 -53.5h-267zM187 106h142q120 0 120 101q0 48 -28.5 74.5t-79.5 26.5h-154v-202zM187 412h130q44 0 70 24.5t26 67.5q0 41 -27.5 64t-76.5 23
h-122v-179z" />
    <glyph glyph-name="C" unicode="C" horiz-adv-x="708" 
d="M372 -14q-98 0 -172 45t-115.5 127t-41.5 191t41.5 190.5t115.5 126.5t172 45q109 0 188.5 -54t114.5 -150l-108 -39q-24 63 -74 98t-121 35q-65 0 -113 -31t-74.5 -87t-26.5 -134t26.5 -134.5t74.5 -87.5t113 -31q71 0 121 35.5t74 97.5l108 -39q-35 -94 -114.5 -149
t-188.5 -55z" />
    <glyph glyph-name="D" unicode="D" horiz-adv-x="676" 
d="M71 0v697h200q172 0 267 -92.5t95 -261.5q0 -166 -93.5 -254.5t-269.5 -88.5h-199zM187 106h72q81 0 139 22.5t88 75.5t30 143t-29.5 143.5t-85 77t-132.5 23.5h-82v-485z" />
    <glyph glyph-name="E" unicode="E" horiz-adv-x="580" 
d="M71 0v697h463v-103h-347v-185h320v-104h-320v-202h347v-103h-463z" />
    <glyph glyph-name="F" unicode="F" horiz-adv-x="560" 
d="M71 0v697h463v-103h-347v-185h301v-104h-301v-305h-116z" />
    <glyph glyph-name="G" unicode="G" horiz-adv-x="734" 
d="M365 -14q-94 0 -167 45t-114 127t-41 191t41.5 190.5t115.5 126.5t172 45q109 0 188.5 -54t114.5 -150l-108 -39q-24 63 -74 98t-121 35q-65 0 -113 -31t-74.5 -87t-26.5 -134t26.5 -134.5t74.5 -87.5t113 -31q34 0 69 9.5t65 32.5t48.5 64.5t18.5 104.5v44l26 -80h-199
v103h275v-374h-102l-16 121l20 -16q-19 -40 -50.5 -66.5t-73 -39.5t-88.5 -13z" />
    <glyph glyph-name="H" unicode="H" horiz-adv-x="688" 
d="M71 0v697h116v-285h314v285h116v-697h-116v305h-314v-305h-116z" />
    <glyph glyph-name="I" unicode="I" horiz-adv-x="258" 
d="M71 0v697h116v-697h-116z" />
    <glyph glyph-name="J" unicode="J" horiz-adv-x="554" 
d="M258 -14q-101 0 -164 61t-71 168l114 13q5 -71 35.5 -103t85.5 -32q63 0 89.5 41t26.5 116v344h-266v103h382v-454q0 -79 -28 -137t-80 -89t-124 -31z" />
    <glyph glyph-name="K" unicode="K" horiz-adv-x="653" 
d="M163 214v146l320 337h155zM71 0v697h116v-697h-116zM504 0l-227 359l87 80l276 -439h-136z" />
    <glyph glyph-name="L" unicode="L" horiz-adv-x="501" 
d="M71 0v697h116v-594h301v-103h-417z" />
    <glyph glyph-name="M" unicode="M" horiz-adv-x="851" 
d="M71 0v697h170l195 -521h-21l196 521h169v-697h-116v562l10 -2l-192 -499h-113l-193 499l11 2v-562h-116z" />
    <glyph glyph-name="N" unicode="N" horiz-adv-x="685" 
d="M71 0v697h120l336 -546h-29v546h116v-697h-122l-333 547h28v-547h-116z" />
    <glyph glyph-name="O" unicode="O" horiz-adv-x="748" 
d="M372 -14q-98 0 -172 45t-115.5 127t-41.5 190q0 109 41.5 191t115.5 127t172 45q100 0 174.5 -45t116 -126.5t41.5 -191.5q0 -109 -42 -190.5t-116.5 -126.5t-173.5 -45zM372 96q67 0 115 31t74.5 87.5t26.5 133.5q0 78 -26.5 134.5t-74.5 87.5t-115 31q-65 0 -113 -30.5
t-74.5 -87t-26.5 -135.5q0 -78 26 -134.5t74.5 -87t113.5 -30.5z" />
    <glyph glyph-name="P" unicode="P" horiz-adv-x="559" 
d="M71 0v697h223q116 0 176 -50t60 -150t-60.5 -152.5t-175.5 -52.5h-108v-292h-115zM186 395h96q62 0 97 23t35 77q0 53 -33.5 76t-98.5 23h-96v-199z" />
    <glyph glyph-name="Q" unicode="Q" horiz-adv-x="782" 
d="M372 -14q-97 0 -171.5 45t-116 126.5t-41.5 190.5q0 110 41.5 191.5t115.5 126.5t172 45q100 0 174.5 -45t116 -126.5t41.5 -191.5q0 -109 -42 -190.5t-116.5 -126.5t-173.5 -45zM669 -52l-280 271l67 72l282 -276zM372 96q67 0 115 31t74.5 87.5t26.5 133.5
q0 78 -26.5 134.5t-74.5 87.5t-115 31q-65 0 -113 -30.5t-74.5 -87t-26.5 -135.5q0 -78 26 -134.5t74.5 -87t113.5 -30.5z" />
    <glyph glyph-name="R" unicode="R" horiz-adv-x="607" 
d="M71 0v697h223q83 0 135 -24.5t76.5 -69.5t24.5 -106q0 -93 -53.5 -144.5t-152.5 -59.5h-43h-41h-53v-293h-116zM453 0l-177 306l119 14l192 -320h-134zM187 395h95q38 0 67.5 9t47 31t17.5 61t-17.5 60t-47.5 29.5t-67 8.5h-95v-199z" />
    <glyph glyph-name="S" unicode="S" horiz-adv-x="572" 
d="M296 -13q-110 0 -179.5 57t-85.5 152l113 28q11 -66 52.5 -100t102.5 -34q34 0 61 12.5t42.5 35.5t15.5 52q0 31 -17 51.5t-49 37t-78 34.5q-63 24 -107 52t-67 66.5t-23 91.5q0 55 27 97.5t76 66.5t113 24q69 0 122 -31t85 -94l-92 -56q-21 38 -51 58.5t-68 20.5
q-27 0 -49 -10.5t-34.5 -29.5t-12.5 -44q0 -26 15 -45.5t46.5 -35.5t80.5 -35q63 -24 107 -52t67.5 -66.5t23.5 -93.5q0 -61 -30 -108t-83.5 -74.5t-123.5 -27.5z" />
    <glyph glyph-name="T" unicode="T" horiz-adv-x="585" 
d="M234 0v594h-222v103h560v-103h-221v-594h-117z" />
    <glyph glyph-name="U" unicode="U" horiz-adv-x="657" 
d="M328 -14q-129 0 -196.5 67t-67.5 199v445h116v-432q0 -57 13.5 -95.5t46 -58t88.5 -19.5t88.5 20t46.5 58t14 95v432h115v-440q0 -135 -67 -203t-197 -68z" />
    <glyph glyph-name="V" unicode="V" horiz-adv-x="666" 
d="M291 0l-280 697h128l213 -556h-35l210 556h128l-278 -697h-86z" />
    <glyph glyph-name="W" unicode="W" horiz-adv-x="972" 
d="M224 0l-207 697h120l151 -520l141 480h114l142 -480l149 520h121l-207 -697h-113l-158 520h19l-159 -520h-113z" />
    <glyph glyph-name="X" unicode="X" horiz-adv-x="660" 
d="M16 0l234 348l-232 349h138l175 -268l174 268h138l-233 -349l235 -348h-138l-177 265l-176 -265h-138z" />
    <glyph glyph-name="Y" unicode="Y" horiz-adv-x="617" 
d="M252 0v271l-246 426h132l169 -310l172 310h131l-242 -426v-271h-116z" />
    <glyph glyph-name="Z" unicode="Z" horiz-adv-x="598" 
d="M29 0v96l409 534l17 -36h-402v103h502v-96l-400 -520l-15 22h427v-103h-538z" />
    <glyph glyph-name="bracketleft" unicode="[" horiz-adv-x="286" 
d="M64 -248v989h209v-74h-118v-841h118v-74h-209z" />
    <glyph glyph-name="backslash" unicode="\" horiz-adv-x="460" 
d="M513 -211h-84l-360 908h84z" />
    <glyph glyph-name="bracketright" unicode="]" horiz-adv-x="286" 
d="M222 -248h-209v74h118v841h-118v74h209v-989z" />
    <glyph glyph-name="asciicircum" unicode="^" horiz-adv-x="602" 
d="M30 210l201 487h140l201 -487h-118l-170 434h33l-169 -434h-118z" />
    <glyph glyph-name="underscore" unicode="_" horiz-adv-x="463" 
d="M24 -85v85h415v-85h-415z" />
    <glyph glyph-name="grave" unicode="`" horiz-adv-x="306" 
d="M181 555l-139 142h118l104 -142h-83z" />
    <glyph glyph-name="a" unicode="a" horiz-adv-x="544" 
d="M383 0l-8 83v228q0 48 -29 72.5t-81 24.5q-40 0 -78.5 -15.5t-70.5 -47.5l-62 73q48 45 102 64.5t118 19.5q100 0 155.5 -50.5t55.5 -140.5v-311h-102zM230 -9q-55 0 -97.5 20t-66 56t-23.5 84q0 41 17.5 71t45.5 47q24 15 56 21.5t67 6.5h155v-83h-139q-18 0 -36 -3.5
t-32 -12.5q-10 -8 -16.5 -20t-6.5 -28q0 -32 24.5 -50.5t65.5 -18.5q36 0 65.5 16t47.5 44t18 63l34 -55q-12 -52 -38 -87.5t-62 -53t-79 -17.5z" />
    <glyph glyph-name="b" unicode="b" horiz-adv-x="579" 
d="M322 -9q-40 0 -75.5 16t-61.5 49.5t-39 87.5l29 -7v-137h-110v697h110v-342h-25q10 47 34.5 79.5t60 50t77.5 17.5q60 0 108.5 -30.5t77.5 -87.5t29 -137q0 -73 -26.5 -131t-74.5 -91.5t-114 -33.5zM295 93q39 0 68.5 19t45.5 54t16 81t-16 81t-45.5 54t-68.5 19
t-68.5 -19.5t-45.5 -54t-16 -80.5t16 -81t45.5 -54t68.5 -19z" />
    <glyph glyph-name="c" unicode="c" horiz-adv-x="521" 
d="M278 -9q-58 0 -102.5 20.5t-74 57t-44.5 82.5t-15 96t15 96t44.5 82t74 56.5t102.5 20.5q73 0 127.5 -35t80.5 -108l-98 -38q-12 38 -39 61.5t-71 23.5t-71.5 -23t-40.5 -59t-13 -77t13 -77.5t40.5 -59t71.5 -22.5t71 23t39 61l98 -38q-26 -72 -80.5 -107.5t-127.5 -35.5
z" />
    <glyph glyph-name="d" unicode="d" horiz-adv-x="579" 
d="M257 -9q-66 0 -114.5 33.5t-74.5 91.5t-26 131q0 80 28.5 137t77.5 87.5t109 30.5q42 0 77.5 -17t60 -49.5t34.5 -79.5l-26 -1v342h111v-697h-111v137l30 7q-13 -54 -39.5 -87.5t-61.5 -49.5t-75 -16zM284 93q39 0 68 19t45 54t16 81t-16 80.5t-45 54t-68 19.5t-68.5 -19
t-46 -54t-16.5 -81t16.5 -81t46 -54t68.5 -19z" />
    <glyph glyph-name="e" unicode="e" horiz-adv-x="541" 
d="M281 -9q-62 0 -107.5 20t-74.5 56t-43 81.5t-14 94.5t13.5 95.5t41.5 83.5t72 58.5t104 21.5q57 0 99.5 -19.5t70.5 -54t41.5 -78.5t13.5 -94q0 -7 -0.5 -20t-2.5 -26h-342q4 -59 40 -90t92 -31q41 0 75 13t62 41l61 -74q-31 -28 -62 -45t-64.5 -25t-75.5 -8zM389 266
q2 8 2.5 16t0.5 16q0 22 -7.5 42t-22.5 35.5t-37 25t-50 9.5q-39 0 -65.5 -17t-41 -43.5t-17.5 -57.5h274z" />
    <glyph glyph-name="f" unicode="f" horiz-adv-x="344" 
d="M104 0v407h-94v86h95v56q0 61 20 95.5t53.5 48t74.5 13.5q29 0 51.5 -5.5t42.5 -15.5l-36 -84q-10 6 -21.5 9.5t-24.5 3.5q-27 0 -38.5 -17.5t-11.5 -47.5v-56h108v-86h-108v-407h-111z" />
    <glyph glyph-name="g" unicode="g" horiz-adv-x="520" 
d="M270 -214q-109 0 -172 39.5t-63 107.5q0 6 0.5 14t2.5 16l134 87l30 -29l-65 -81q-1 -3 -1 -5.5v-5.5q0 -31 37.5 -47.5t96.5 -16.5q50 0 80 13.5t30 40.5q0 15 -9 24.5t-27 15.5t-44.5 10.5t-62.5 8.5q-45 7 -88.5 20t-72 39t-28.5 69q0 38 26 69.5t69 51.5l57 -44
q-28 -6 -42 -20.5t-14 -34.5q0 -17 13 -27.5t37.5 -16t58.5 -10.5q51 -6 94 -14t75 -22.5t49.5 -39.5t17.5 -65q0 -71 -57.5 -109t-161.5 -38zM259 143q-60 0 -106 23t-71.5 63.5t-25.5 91.5q0 55 27 95.5t72.5 63t99.5 22.5t99 -22.5t72.5 -64t27.5 -98.5
q0 -52 -24.5 -91.5t-68.5 -61t-102 -21.5zM257 232q43 0 65 26.5t22 63.5q0 40 -24 64.5t-63 24.5q-41 0 -65.5 -24.5t-24.5 -63.5q0 -38 23 -64.5t67 -26.5zM422 393l-81 52l111 90l57 -69z" />
    <glyph glyph-name="h" unicode="h" horiz-adv-x="559" 
d="M65 0v697h111v-313l-20 -5q13 43 38.5 70t58.5 40t70 13q83 0 129.5 -47.5t46.5 -135.5v-319h-111v278q0 66 -24 97t-74 31q-56 0 -85 -40t-29 -126v-240h-111z" />
    <glyph glyph-name="i" unicode="i" horiz-adv-x="239" 
d="M64 0v493h111v-493h-111zM59 574v123h121v-123h-121z" />
    <glyph glyph-name="j" unicode="j" horiz-adv-x="239" 
d="M60 -213q-19 0 -41.5 4t-43.5 10v96q14 -3 25.5 -5t18.5 -2q22 0 33.5 10.5t11.5 41.5v551h111v-581q0 -65 -32 -95t-83 -30zM59 574v123h121v-123h-121z" />
    <glyph glyph-name="k" unicode="k" horiz-adv-x="550" 
d="M399 0l-149 235l-84 -93v141l201 210h142l-178 -184l200 -309h-132zM65 0v697h111v-697h-111z" />
    <glyph glyph-name="l" unicode="l" horiz-adv-x="273" 
d="M174 -9q-48 0 -80 29.5t-32 94.5v582h111v-560q0 -23 10.5 -33.5t27.5 -10.5q9 0 18.5 2t19.5 5v-94q-19 -8 -39 -11.5t-36 -3.5z" />
    <glyph glyph-name="m" unicode="m" horiz-adv-x="838" 
d="M65 0v493h111v-128l-24 -14q9 43 25.5 72t38.5 46.5t47.5 25t51.5 7.5q40 0 75 -15.5t59.5 -50t33.5 -93.5l-65 -18q15 64 42 102.5t63.5 56.5t79.5 18q63 0 101.5 -27.5t56.5 -72t18 -95.5v-307h-111v280q0 41 -9.5 69t-29.5 42.5t-51 14.5q-33 0 -55 -16.5t-33.5 -50.5
t-11.5 -84v-255h-111v285q0 61 -23 91t-65 30q-33 0 -56 -17t-35 -50.5t-12 -83.5v-255h-111z" />
    <glyph glyph-name="n" unicode="n" horiz-adv-x="559" 
d="M65 0v493h111v-109l-20 -5q13 43 38 70t58.5 40t70.5 13q83 0 129.5 -47.5t46.5 -135.5v-319h-111v278q0 66 -24 97t-74 31q-37 0 -62.5 -17.5t-38.5 -54.5t-13 -94v-240h-111z" />
    <glyph glyph-name="o" unicode="o" horiz-adv-x="574" 
d="M287 -9q-70 0 -126 33t-87.5 91t-31.5 132t31.5 132t87 90.5t126.5 32.5q72 0 126.5 -32.5t86.5 -90.5t32 -132t-31.5 -132t-87 -91t-126.5 -33zM288 89q41 0 71 19t46 55t16 84q0 49 -16 84.5t-46 54.5t-71 19q-43 0 -73 -19.5t-46 -54.5t-16 -84q0 -48 16 -84t46 -55
t73 -19z" />
    <glyph glyph-name="p" unicode="p" horiz-adv-x="579" 
d="M65 -204v697h110v-137l-28 -1q13 54 38.5 86t61 46.5t75.5 14.5q66 0 114 -33.5t74.5 -91.5t26.5 -131q0 -79 -29 -136.5t-77.5 -88t-108.5 -30.5q-42 0 -77.5 16t-60 48t-34.5 78l25 5v-342h-110zM295 92q39 0 68.5 19t45.5 54t16 81t-16 81t-45.5 54t-68.5 19
t-68.5 -19t-45.5 -54t-16 -81t16 -80.5t45.5 -54t68.5 -19.5z" />
    <glyph glyph-name="q" unicode="q" horiz-adv-x="579" 
d="M403 -204v342l26 -5q-10 -46 -34.5 -78t-60 -48t-77.5 -16q-60 0 -109 30.5t-77.5 88t-28.5 136.5q0 73 26 131t74.5 91.5t114.5 33.5q40 0 75 -14.5t61 -46.5t39 -86l-29 1v137h111v-697h-111zM284 92q39 0 68 19.5t45 54t16 80.5t-16 81t-45 54t-68 19t-68.5 -19
t-46 -54t-16.5 -81t16.5 -81t46 -54t68.5 -19z" />
    <glyph glyph-name="r" unicode="r" horiz-adv-x="420" 
d="M65 0v493h112v-133l-21 -3q5 43 29 75.5t58.5 51t68.5 18.5q24 0 46 -6t46 -20l-54 -100q-11 7 -28.5 11.5t-33.5 4.5q-21 0 -41.5 -8t-36.5 -24.5t-24 -42.5q-5 -14 -7.5 -36.5t-2.5 -62.5v-218h-111z" />
    <glyph glyph-name="s" unicode="s" horiz-adv-x="471" 
d="M233 -9q-53 0 -94 15.5t-69 39.5t-46 48l76 66q19 -31 52.5 -55t81.5 -24q40 0 63.5 17t23.5 42q0 22 -15 34.5t-39 21.5t-53 16q-28 7 -57 17.5t-53.5 26.5t-39.5 41t-15 62q0 65 50 104t131 39q58 0 106 -23t75 -69l-69 -53q-20 30 -50 45t-65 15q-32 0 -53.5 -13
t-21.5 -34q0 -16 10 -26t31 -18t53 -16q30 -7 62 -17t59.5 -26.5t45 -44t17.5 -70.5q0 -48 -24.5 -84.5t-69 -56.5t-103.5 -20z" />
    <glyph glyph-name="t" unicode="t" horiz-adv-x="360" 
d="M244 -9q-37 0 -69.5 14.5t-51.5 47t-19 85.5v475l112 62v-506q0 -42 12.5 -64.5t45.5 -22.5q10 0 23.5 2.5t28.5 6.5v-86q-20 -7 -40.5 -10.5t-41.5 -3.5zM10 407v86h316v-86h-316z" />
    <glyph glyph-name="u" unicode="u" horiz-adv-x="559" 
d="M236 -9q-58 0 -97.5 23t-59.5 66t-20 104v309h111v-279q0 -39 9.5 -67.5t31 -43.5t58.5 -15q43 0 67.5 22.5t35 66t10.5 104.5v212h111v-493h-111v106l19 -7q-23 -56 -66.5 -82t-98.5 -26z" />
    <glyph glyph-name="v" unicode="v" horiz-adv-x="530" 
d="M219 0l-201 493h122l125 -349l127 349h120l-201 -493h-92z" />
    <glyph glyph-name="w" unicode="w" horiz-adv-x="752" 
d="M172 0l-150 493h118l88 -323l100 323h95l100 -321l89 321h118l-151 -493h-100l-103 336l-103 -336h-101z" />
    <glyph glyph-name="x" unicode="x" horiz-adv-x="534" 
d="M22 0l171 248l-171 245h133l112 -171l114 171h131l-172 -245l172 -248h-133l-112 174l-114 -174h-131z" />
    <glyph glyph-name="y" unicode="y" horiz-adv-x="530" 
d="M108 -203l98 236l-188 460h122l125 -349l127 349h120l-284 -696h-120z" />
    <glyph glyph-name="z" unicode="z" horiz-adv-x="471" 
d="M35 0v75l287 355l8 -28h-283v91h385v-80l-283 -357l-8 36h290v-92h-396z" />
    <glyph glyph-name="braceleft" unicode="{" horiz-adv-x="268" 
d="M183 -248q-53 0 -81.5 36t-28.5 100v239q0 29 -9.5 46.5t-24 26t-30.5 9.5v76q16 2 30.5 10t24 25.5t9.5 45.5v239q0 64 28.5 100t81.5 36h73v-71h-36q-31 0 -41.5 -20t-10.5 -47v-239q0 -49 -18.5 -74t-50.5 -40v-7q32 -14 50.5 -39.5t18.5 -74.5v-239q0 -27 10.5 -47
t41.5 -20h36v-71h-73z" />
    <glyph glyph-name="bar" unicode="|" horiz-adv-x="267" 
d="M92 -254v1000h83v-1000h-83z" />
    <glyph glyph-name="braceright" unicode="}" horiz-adv-x="268" 
d="M85 -248h-73v71h36q31 0 42 20t11 47v239q0 49 18 74.5t50 39.5v7q-32 15 -50 40t-18 74v239q0 27 -11 47t-42 20h-36v71h73q53 0 82 -36t29 -100v-239q0 -28 9 -45.5t24 -25.5t30 -10v-76q-15 -1 -30 -9.5t-24 -26t-9 -46.5v-239q0 -64 -29 -100t-82 -36z" />
    <glyph glyph-name="asciitilde" unicode="~" horiz-adv-x="560" 
d="M367 151q-35 0 -57 11t-36 28t-25 34t-24 28.5t-34 11.5t-32.5 -24t-11.5 -61h-89q0 73 36.5 118.5t96.5 45.5q37 0 60 -11.5t37.5 -28.5t25.5 -34t23 -28.5t30 -11.5q22 0 35.5 28t13.5 69h87q0 -77 -36.5 -126t-99.5 -49z" />
    <glyph glyph-name="uni00A0" unicode="&#xa0;" horiz-adv-x="260" 
 />
    <glyph glyph-name="exclamdown" unicode="&#xa1;" horiz-adv-x="248" 
d="M166 284l13 -488h-111l13 488h85zM185 493v-126h-122v126h122z" />
    <glyph glyph-name="cent" unicode="&#xa2;" horiz-adv-x="560" 
d="M251 -113v137h80v-137h-80zM251 467v134h80v-134h-80zM298 -9q-59 0 -103 20.5t-73.5 57t-44.5 82.5t-15 96t15 96t44.5 82t73.5 56.5t103 20.5q73 0 127 -35t81 -108l-98 -38q-12 38 -39 61.5t-71 23.5t-71.5 -23t-41 -59t-13.5 -77t13.5 -77.5t41 -59t71.5 -22.5t71 23
t39 61l98 -38q-27 -72 -81 -107.5t-127 -35.5z" />
    <glyph glyph-name="sterling" unicode="&#xa3;" horiz-adv-x="560" 
d="M46 0v96q33 13 61 34.5t45 48t17 54.5q0 15 -5.5 35t-10.5 36h-105v93h86q-7 23 -13.5 52.5t-6.5 58.5q0 56 24.5 102.5t70.5 74t111 27.5q78 0 132.5 -41t70.5 -111l-86 -33q-9 45 -42 68t-73 23q-34 0 -60 -14t-40.5 -39.5t-14.5 -59.5q0 -27 6.5 -57t15.5 -51h199v-93
h-183q5 -14 10.5 -33t5.5 -39q0 -35 -10 -62t-29.5 -46t-45 -30.5t-56.5 -14.5l21 15h381v-94h-476z" />
    <glyph glyph-name="currency" unicode="&#xa4;" horiz-adv-x="611" 
d="M117 61l-59 62l58 57q-20 31 -30 64.5t-10 66.5q0 36 10.5 70t29.5 62l-57 56l60 62l57 -60q60 43 133 43q34 0 67 -10t63 -31l57 58l61 -60l-58 -58q21 -29 31.5 -63.5t10.5 -68.5q0 -33 -10.5 -67t-31.5 -65l58 -56l-60 -62l-58 59q-30 -21 -63 -31t-68 -10
q-36 0 -69.5 10.5t-63.5 30.5zM307 163q42 0 75.5 20.5t53.5 55t20 73.5q0 40 -20.5 74t-54.5 54t-74 20q-41 0 -74.5 -20t-53.5 -54.5t-20 -76.5t20.5 -75t54.5 -52t73 -19z" />
    <glyph glyph-name="yen" unicode="&#xa5;" horiz-adv-x="560" 
d="M225 0v105h-163v90h163v71h-163v90h114l-174 341h125l153 -318l156 318h125l-172 -341h111v-90h-160v-71h160v-90h-160v-105h-115z" />
    <glyph glyph-name="brokenbar" unicode="&#xa6;" horiz-adv-x="267" 
d="M92 330v416h83v-416h-83zM92 -254v409h83v-409h-83z" />
    <glyph glyph-name="section" unicode="&#xa7;" horiz-adv-x="597" 
d="M292 -211q-63 0 -118.5 29t-90.5 92l96 59q19 -38 50.5 -57t66.5 -19q27 0 48.5 10t34 28.5t12.5 41.5q0 32 -21.5 52t-54 35t-66.5 28t-69 29t-64.5 39t-47.5 57t-18 83q0 43 15.5 79t42.5 63q-8 15 -13 35.5t-5 42.5q0 62 29.5 104t78.5 64t106 22q67 0 121.5 -29.5
t88.5 -90.5l-96 -59q-19 36 -49 56.5t-68 20.5q-27 0 -48.5 -10.5t-33.5 -28.5t-12 -43q0 -30 20.5 -50t52.5 -34.5t68 -28.5q33 -12 68 -28.5t64.5 -39.5t48 -57t18.5 -82q0 -43 -15.5 -79.5t-42.5 -64.5q8 -16 12.5 -36t4.5 -43q0 -60 -29.5 -102.5t-78 -65t-106.5 -22.5z
M411 134q20 24 20 57q0 34 -19 55.5t-51.5 37.5t-73.5 31q-17 8 -33.5 14t-33 13.5t-34.5 19.5q-11 -11 -15.5 -26.5t-4.5 -29.5q0 -25 11.5 -43.5t32 -33t46 -26t54.5 -22.5q19 -8 47 -18.5t54 -28.5z" />
    <glyph glyph-name="dieresis" unicode="&#xa8;" horiz-adv-x="398" 
d="M234 574v123h122v-123h-122zM42 574v123h121v-123h-121z" />
    <glyph glyph-name="copyright" unicode="&#xa9;" horiz-adv-x="812" 
d="M406 -5q-73 0 -137.5 27.5t-113 76t-76 113t-27.5 137.5t27.5 137t76 112.5t113 76t137.5 27.5t137 -27.5t112.5 -76t76 -112.5t27.5 -137t-27.5 -137.5t-76 -113t-112.5 -76t-137 -27.5zM408 134q-65 0 -108.5 30t-65.5 79t-22 104t21.5 104.5t64.5 80.5t109 31
q61 0 107.5 -30.5t69.5 -90.5l-87 -33q-10 30 -33.5 50.5t-56.5 20.5q-36 0 -59 -19.5t-34 -50t-11 -63.5t11 -62.5t34 -48t59 -18.5q34 0 57 19t32 50l83 -32q-20 -56 -65 -88.5t-106 -32.5zM406 48q63 0 117.5 23.5t95.5 64.5t64.5 96t23.5 117q0 63 -23.5 117t-64.5 95
t-95.5 64.5t-117.5 23.5q-62 0 -116.5 -23.5t-95.5 -64t-64.5 -95t-23.5 -117.5q0 -62 23.5 -117t64.5 -96t95.5 -64.5t116.5 -23.5z" />
    <glyph glyph-name="ordfeminine" unicode="&#xaa;" horiz-adv-x="482" 
d="M204 349q-53 0 -88.5 29.5t-35.5 79.5q0 54 38.5 79.5t95.5 25.5h103q0 5 -0.5 11.5t-2.5 12.5q-5 29 -24 44.5t-53 15.5q-36 0 -58.5 -15.5t-37.5 -37.5l-50 34q30 43 64 60.5t80 17.5q68 0 106 -38t38 -102v-209h-58l-1 48q-46 -56 -116 -56zM219 409q28 0 50 12t36 35
q5 12 7.5 24t4.5 24h-99q-33 0 -51 -12.5t-18 -35.5q0 -21 18 -34t52 -13z" />
    <glyph glyph-name="guillemotleft" unicode="&#xab;" horiz-adv-x="517" 
d="M494 49l-245 204l245 203v-119l-113 -84l113 -86v-118zM247 49l-245 204l245 203v-119l-114 -84l114 -86v-118z" />
    <glyph glyph-name="logicalnot" unicode="&#xac;" horiz-adv-x="560" 
d="M394 19v185h-366v87h454v-272h-88z" />
    <glyph glyph-name="uni00AD" unicode="&#xad;" horiz-adv-x="327" 
d="M40 257v82h248v-82h-248z" />
    <glyph glyph-name="registered" unicode="&#xae;" horiz-adv-x="616" 
d="M308 190q-71 0 -130 32.5t-93.5 90.5t-34.5 135t34.5 135t93.5 90.5t130 32.5t129.5 -32.5t93 -90.5t34.5 -135t-34.5 -135t-93 -90.5t-129.5 -32.5zM308 241q57 0 104 26t75 72.5t28 108.5q0 63 -28 109.5t-75 72.5t-104 26q-58 0 -105 -26t-75 -72.5t-28 -109.5
q0 -62 28 -108.5t75 -72.5t105 -26zM227 304v289h92q52 0 75 -22.5t23 -61.5q0 -31 -15.5 -50.5t-43.5 -26.5l68 -128h-53l-62 121h-35v-121h-49zM277 469h37q23 0 38.5 8.5t15.5 31.5q0 24 -16 32t-38 8h-37v-80z" />
    <glyph glyph-name="macron" unicode="&#xaf;" horiz-adv-x="357" 
d="M42 572v65h274v-65h-274z" />
    <glyph glyph-name="degree" unicode="&#xb0;" horiz-adv-x="420" 
d="M210 419q-39 0 -72 19.5t-52.5 52.5t-19.5 72t19.5 72t52.5 52t72 19q40 0 72.5 -19t52 -52t19.5 -72t-19.5 -72t-52 -52.5t-72.5 -19.5zM210 494q20 0 35.5 9.5t25 25t9.5 34.5q0 20 -9.5 35t-25 24t-35.5 9q-19 0 -34.5 -9t-25 -24.5t-9.5 -34.5t9.5 -34.5t25 -25
t34.5 -9.5z" />
    <glyph glyph-name="plusminus" unicode="&#xb1;" horiz-adv-x="560" 
d="M236 126v160h-203v88h203v158h88v-158h203v-88h-203v-160h-88zM33 -41v89h494v-89h-494z" />
    <glyph glyph-name="uni00B2" unicode="&#xb2;" horiz-adv-x="411" 
d="M51 488v49q32 20 70.5 45.5t74 57.5t58.5 67.5t23 74.5q0 31 -17 51t-52 20q-27 0 -44.5 -13.5t-26 -35.5t-9.5 -48l-59 4q0 39 16 72.5t47.5 54t75.5 20.5q56 0 93 -32.5t37 -93.5q0 -38 -18 -74t-47.5 -67t-64 -57t-67.5 -44l-16 4h234v-55h-308z" />
    <glyph glyph-name="uni00B3" unicode="&#xb3;" horiz-adv-x="404" 
d="M200 481q-41 0 -75.5 15t-55 45t-20.5 73l58 4q0 -39 27 -60.5t67 -21.5q36 0 63.5 19t27.5 57q0 32 -18 47t-43.5 20t-50.5 5v40q32 0 51.5 7t28.5 20t9 32q0 34 -20 50t-48 16q-33 0 -53.5 -17.5t-21.5 -49.5l-57 4q0 56 38.5 87.5t91.5 31.5q34 0 63.5 -13t47.5 -38
t18 -59q0 -19 -7.5 -35.5t-21 -29t-33.5 -20.5q27 -6 45.5 -21t28.5 -36t10 -46q0 -41 -21 -69t-55 -42.5t-74 -14.5z" />
    <glyph glyph-name="acute" unicode="&#xb4;" horiz-adv-x="314" 
d="M42 555l110 142h120l-149 -142h-81z" />
    <glyph glyph-name="uni00B5" unicode="&#xb5;" horiz-adv-x="559" 
d="M59 -164v657h111v-285q0 -33 8.5 -60t30 -43.5t62.5 -16.5q46 0 70 26.5t32.5 71.5t8.5 101v206h111v-493h-111v65q-24 -37 -61.5 -55.5t-83.5 -18.5q-23 0 -40 7.5t-27 23.5v-186h-111z" />
    <glyph glyph-name="paragraph" unicode="&#xb6;" horiz-adv-x="601" 
d="M268 -121v428q-57 0 -108 23t-83 67t-32 105q0 62 32 105.5t83 66.5t108 23h64v-818h-64zM441 -121v818h63v-818h-63z" />
    <glyph glyph-name="periodcentered" unicode="&#xb7;" horiz-adv-x="316" 
d="M96 286v126h116v-126h-116z" />
    <glyph glyph-name="cedilla" unicode="&#xb8;" horiz-adv-x="291" 
d="M138 -258q-30 0 -57 18t-39 46l62 26q4 -11 14.5 -18.5t22.5 -7.5q20 0 31.5 12t11.5 29q0 26 -23.5 41.5t-60.5 15.5h-15.5h-19.5l59 96h66l-39 -52q5 -1 13 -2t17 -4q34 -11 51 -34t17 -55t-14.5 -57t-39 -39.5t-57.5 -14.5z" />
    <glyph glyph-name="uni00B9" unicode="&#xb9;" horiz-adv-x="263" 
d="M132 488v331l18 -29h-118v47h62q40 0 40 36v29h57v-414h-59z" />
    <glyph glyph-name="ordmasculine" unicode="&#xba;" horiz-adv-x="506" 
d="M253 352q-52 0 -91 24t-61 64.5t-22 88.5q0 49 22 89t61.5 64t90.5 24t90 -24t61.5 -64t22.5 -89t-22.5 -89t-61.5 -64t-90 -24zM253 413q35 0 57.5 16t33.5 42.5t11 57.5q0 32 -11 58.5t-33.5 42t-57.5 15.5t-57.5 -15.5t-33.5 -42t-11 -58.5q0 -31 10.5 -57.5
t33.5 -42.5t58 -16z" />
    <glyph glyph-name="guillemotright" unicode="&#xbb;" horiz-adv-x="462" 
d="M-34 49v118l114 86l-114 84v119l246 -203zM213 49v118l115 86l-115 84v119l246 -203z" />
    <glyph glyph-name="onequarter" unicode="&#xbc;" horiz-adv-x="748" 
d="M124 279v331l22 -38h-129v60h64q21 0 32 9t11 32v24h75v-418h-75zM116 0l416 697h79l-416 -697h-79zM586 0v99h-187v60l191 259h68v-256h66v-63h-66v-99h-72zM452 143l-7 19h142v183l8 -4z" />
    <glyph glyph-name="onehalf" unicode="&#xbd;" horiz-adv-x="787" 
d="M124 279v331l22 -38h-129v60h64q21 0 32 9t11 32v24h75v-418h-75zM116 0l416 697h79l-416 -697h-79zM468 0v57q24 18 57.5 42t65.5 54.5t53.5 64t21.5 69.5q0 27 -14.5 44.5t-44.5 17.5q-24 0 -39 -12t-22 -31.5t-8 -40.5l-73 5q0 38 16.5 73t49 57t78.5 22
q57 0 94.5 -36t37.5 -97q0 -39 -16.5 -75.5t-45.5 -68.5t-68 -58.5t-83 -47.5l20 31h209v-70h-289z" />
    <glyph glyph-name="threequarters" unicode="&#xbe;" horiz-adv-x="827" 
d="M184 274q-70 0 -113 38t-43 100l75 4q0 -32 23 -51.5t60 -19.5t57.5 16.5t20.5 46.5q0 33 -26.5 46.5t-75.5 13.5v59q23 0 40.5 5t27.5 17t10 31q0 24 -15.5 37.5t-41.5 13.5q-30 0 -46 -16t-17 -41l-74 4q0 55 39.5 89.5t99.5 34.5q57 0 94 -31.5t37 -81.5
q0 -31 -15.5 -51.5t-37.5 -31.5q23 -7 40 -21t26.5 -33t9.5 -45q0 -59 -43 -96t-112 -37zM195 0l416 697h79l-416 -697h-79zM665 0v99h-187v60l191 259h68v-256h66v-63h-66v-99h-72zM531 143l-7 19h142v183l8 -4z" />
    <glyph glyph-name="questiondown" unicode="&#xbf;" horiz-adv-x="390" 
d="M285 286v-44q0 -42 -12.5 -70.5t-31 -49t-40.5 -36.5t-41 -31.5t-31 -35t-12 -48.5q0 -45 31 -68.5t85 -23.5q61 0 92.5 31.5t31.5 89.5h98q0 -68 -28.5 -115.5t-79 -72.5t-116.5 -25q-58 0 -106 19t-76.5 60t-28.5 107q0 44 12.5 73t32 49.5t41 35.5t40.5 31t31.5 36.5
t12.5 51.5v36h95zM297 493v-126h-122v126h122z" />
    <glyph glyph-name="Agrave" unicode="&#xc0;" horiz-adv-x="661" 
d="M11 0l276 697h88l275 -697h-126l-193 528l-193 -528h-127zM183 146l36 103h223l38 -103h-297zM290 759l-139 142h118l104 -142h-83z" />
    <glyph glyph-name="Aacute" unicode="&#xc1;" horiz-adv-x="661" 
d="M11 0l276 697h88l275 -697h-126l-193 528l-193 -528h-127zM183 146l36 103h223l38 -103h-297zM290 759l110 142h120l-149 -142h-81z" />
    <glyph glyph-name="Acircumflex" unicode="&#xc2;" horiz-adv-x="661" 
d="M11 0l276 697h88l275 -697h-126l-193 528l-193 -528h-127zM183 146l36 103h223l38 -103h-297zM177 747l154 170l155 -170h-90l-65 76l-64 -76h-90z" />
    <glyph glyph-name="Atilde" unicode="&#xc3;" horiz-adv-x="661" 
d="M11 0l276 697h88l275 -697h-126l-193 528l-193 -528h-127zM183 146l36 103h223l38 -103h-297zM395 742q-24 0 -40.5 7t-28 18t-21 21.5t-19 17.5t-22.5 7q-15 0 -24.5 -17t-9.5 -49h-64q0 61 28 94t76 33q20 0 35.5 -7t27.5 -18t22 -21.5t20 -18t21 -7.5q14 0 23.5 18.5
t9.5 50.5h67q0 -62 -27 -95.5t-74 -33.5z" />
    <glyph glyph-name="Adieresis" unicode="&#xc4;" horiz-adv-x="661" 
d="M11 0l276 697h88l275 -697h-126l-193 528l-193 -528h-127zM183 146l36 103h223l38 -103h-297zM367 778v123h122v-123h-122zM175 778v123h121v-123h-121z" />
    <glyph glyph-name="Aring" unicode="&#xc5;" horiz-adv-x="661" 
d="M11 0l276 697h88l275 -697h-126l-193 528l-193 -528h-127zM183 146l36 103h223l38 -103h-297zM332 640q-32 0 -57 15t-39.5 40.5t-14.5 54.5q0 31 14.5 56t40 40t56.5 15q30 0 55 -15t40 -40t15 -55q0 -31 -15 -56.5t-40 -40t-55 -14.5zM332 700q21 0 35.5 14.5
t14.5 36.5t-13.5 36t-36.5 14t-37 -14.5t-14 -35.5q0 -22 14.5 -36.5t36.5 -14.5z" />
    <glyph glyph-name="AE" unicode="&#xc6;" horiz-adv-x="917" 
d="M11 0l275 697h585v-103h-353v-193h309v-104h-309v-194h353v-103h-470v596h-45l-218 -596h-127zM172 146l36 106h221v-106h-257z" />
    <glyph glyph-name="Ccedilla" unicode="&#xc7;" horiz-adv-x="708" 
d="M372 -14q-98 0 -172 45t-115.5 127t-41.5 191t41.5 190.5t115.5 126.5t172 45q109 0 188.5 -54t114.5 -150l-108 -39q-24 63 -74 98t-121 35q-65 0 -113 -31t-74.5 -87t-26.5 -134t26.5 -134.5t74.5 -87.5t113 -31q71 0 121 35.5t74 97.5l108 -39q-35 -94 -114.5 -149
t-188.5 -55zM338 -204q-13 0 -30.5 2.5t-34 9t-28.5 16.5l30 45q14 -9 29.5 -14t30.5 -5q17 0 30.5 8t13.5 24q0 14 -10 22t-26.5 12t-35.5 6t-37 2l62 86h57l-40 -49q41 -7 68 -25.5t27 -52.5q0 -40 -30.5 -63.5t-75.5 -23.5z" />
    <glyph glyph-name="Egrave" unicode="&#xc8;" horiz-adv-x="580" 
d="M71 0v697h463v-103h-347v-185h320v-104h-320v-202h347v-103h-463zM261 759l-139 142h118l104 -142h-83z" />
    <glyph glyph-name="Eacute" unicode="&#xc9;" horiz-adv-x="580" 
d="M71 0v697h463v-103h-347v-185h320v-104h-320v-202h347v-103h-463zM262 759l110 142h120l-149 -142h-81z" />
    <glyph glyph-name="Ecircumflex" unicode="&#xca;" horiz-adv-x="580" 
d="M71 0v697h463v-103h-347v-185h320v-104h-320v-202h347v-103h-463zM148 747l154 170l155 -170h-90l-65 76l-64 -76h-90z" />
    <glyph glyph-name="Edieresis" unicode="&#xcb;" horiz-adv-x="580" 
d="M71 0v697h463v-103h-347v-185h320v-104h-320v-202h347v-103h-463zM338 778v123h122v-123h-122zM146 778v123h121v-123h-121z" />
    <glyph glyph-name="Igrave" unicode="&#xcc;" horiz-adv-x="258" 
d="M71 0v697h116v-697h-116zM88 759l-139 142h118l104 -142h-83z" />
    <glyph glyph-name="Iacute" unicode="&#xcd;" horiz-adv-x="258" 
d="M71 0v697h116v-697h-116zM89 759l110 142h120l-149 -142h-81z" />
    <glyph glyph-name="Icircumflex" unicode="&#xce;" horiz-adv-x="258" 
d="M71 0v697h116v-697h-116zM-25 747l154 170l155 -170h-89l-66 76l-65 -76h-89z" />
    <glyph glyph-name="Idieresis" unicode="&#xcf;" horiz-adv-x="258" 
d="M71 0v697h116v-697h-116zM165 778v123h122v-123h-122zM-27 778v123h121v-123h-121z" />
    <glyph glyph-name="Eth" unicode="&#xd0;" horiz-adv-x="676" 
d="M71 0v697h200q172 0 267 -92.5t95 -261.5q0 -166 -93.5 -254.5t-269.5 -88.5h-199zM187 106h72q81 0 139 22.5t88 75.5t30 143t-29.5 143.5t-85 77t-132.5 23.5h-82v-485zM4 312v74h313v-74h-313z" />
    <glyph glyph-name="Ntilde" unicode="&#xd1;" horiz-adv-x="685" 
d="M71 0v697h120l336 -546h-29v546h116v-697h-122l-333 547h28v-547h-116zM404 742q-24 0 -40.5 7t-28 18t-21 21.5t-19 17.5t-22.5 7q-15 0 -24.5 -17t-9.5 -49h-64q0 61 28 94t76 33q20 0 35.5 -7t27.5 -18t22 -21.5t20 -18t21 -7.5q14 0 23.5 18.5t9.5 50.5h67
q0 -62 -27 -95.5t-74 -33.5z" />
    <glyph glyph-name="Ograve" unicode="&#xd2;" horiz-adv-x="748" 
d="M372 -14q-98 0 -172 45t-115.5 127t-41.5 190q0 109 41.5 191t115.5 127t172 45q100 0 174.5 -45t116 -126.5t41.5 -191.5q0 -109 -42 -190.5t-116.5 -126.5t-173.5 -45zM372 96q67 0 115 31t74.5 87.5t26.5 133.5q0 78 -26.5 134.5t-74.5 87.5t-115 31q-65 0 -113 -30.5
t-74.5 -87t-26.5 -135.5q0 -78 26 -134.5t74.5 -87t113.5 -30.5zM331 759l-139 142h118l104 -142h-83z" />
    <glyph glyph-name="Oacute" unicode="&#xd3;" horiz-adv-x="748" 
d="M372 -14q-98 0 -172 45t-115.5 127t-41.5 190q0 109 41.5 191t115.5 127t172 45q100 0 174.5 -45t116 -126.5t41.5 -191.5q0 -109 -42 -190.5t-116.5 -126.5t-173.5 -45zM372 96q67 0 115 31t74.5 87.5t26.5 133.5q0 78 -26.5 134.5t-74.5 87.5t-115 31q-65 0 -113 -30.5
t-74.5 -87t-26.5 -135.5q0 -78 26 -134.5t74.5 -87t113.5 -30.5zM332 759l110 142h120l-149 -142h-81z" />
    <glyph glyph-name="Ocircumflex" unicode="&#xd4;" horiz-adv-x="748" 
d="M372 -14q-98 0 -172 45t-115.5 127t-41.5 190q0 109 41.5 191t115.5 127t172 45q100 0 174.5 -45t116 -126.5t41.5 -191.5q0 -109 -42 -190.5t-116.5 -126.5t-173.5 -45zM372 96q67 0 115 31t74.5 87.5t26.5 133.5q0 78 -26.5 134.5t-74.5 87.5t-115 31q-65 0 -113 -30.5
t-74.5 -87t-26.5 -135.5q0 -78 26 -134.5t74.5 -87t113.5 -30.5zM219 747l154 170l155 -170h-90l-65 76l-64 -76h-90z" />
    <glyph glyph-name="Otilde" unicode="&#xd5;" horiz-adv-x="748" 
d="M372 -14q-98 0 -172 45t-115.5 127t-41.5 190q0 109 41.5 191t115.5 127t172 45q100 0 174.5 -45t116 -126.5t41.5 -191.5q0 -109 -42 -190.5t-116.5 -126.5t-173.5 -45zM372 96q67 0 115 31t74.5 87.5t26.5 133.5q0 78 -26.5 134.5t-74.5 87.5t-115 31q-65 0 -113 -30.5
t-74.5 -87t-26.5 -135.5q0 -78 26 -134.5t74.5 -87t113.5 -30.5zM436 742q-24 0 -40.5 7t-28 18t-21 21.5t-19 17.5t-22.5 7q-15 0 -24.5 -17t-9.5 -49h-64q0 61 28 94t76 33q20 0 35.5 -7t27.5 -18t22 -21.5t20 -18t21 -7.5q14 0 23.5 18.5t9.5 50.5h67q0 -62 -27 -95.5
t-74 -33.5z" />
    <glyph glyph-name="Odieresis" unicode="&#xd6;" horiz-adv-x="748" 
d="M372 -14q-98 0 -172 45t-115.5 127t-41.5 190q0 109 41.5 191t115.5 127t172 45q100 0 174.5 -45t116 -126.5t41.5 -191.5q0 -109 -42 -190.5t-116.5 -126.5t-173.5 -45zM372 96q67 0 115 31t74.5 87.5t26.5 133.5q0 78 -26.5 134.5t-74.5 87.5t-115 31q-65 0 -113 -30.5
t-74.5 -87t-26.5 -135.5q0 -78 26 -134.5t74.5 -87t113.5 -30.5zM408 778v123h122v-123h-122zM216 778v123h121v-123h-121z" />
    <glyph glyph-name="multiply" unicode="&#xd7;" horiz-adv-x="560" 
d="M133 32l-68 67l146 147l-147 148l68 68l146 -147l148 147l69 -69l-147 -147l147 -147l-69 -67l-148 146z" />
    <glyph glyph-name="Oslash" unicode="&#xd8;" horiz-adv-x="748" 
d="M372 -14q-98 0 -172 45t-115.5 127t-41.5 190q0 109 41.5 191t115.5 127t172 45q100 0 174.5 -45t116 -126.5t41.5 -191.5q0 -109 -42 -190.5t-116.5 -126.5t-173.5 -45zM372 96q67 0 115 31t74.5 87.5t26.5 133.5q0 78 -26.5 134.5t-74.5 87.5t-115 31q-65 0 -113 -30.5
t-74.5 -87t-26.5 -135.5q0 -78 26 -134.5t74.5 -87t113.5 -30.5zM77 0l517 697h76l-516 -697h-77z" />
    <glyph glyph-name="Ugrave" unicode="&#xd9;" horiz-adv-x="657" 
d="M328 -14q-129 0 -196.5 67t-67.5 199v445h116v-432q0 -57 13.5 -95.5t46 -58t88.5 -19.5t88.5 20t46.5 58t14 95v432h115v-440q0 -135 -67 -203t-197 -68zM287 759l-139 142h118l104 -142h-83z" />
    <glyph glyph-name="Uacute" unicode="&#xda;" horiz-adv-x="657" 
d="M328 -14q-129 0 -196.5 67t-67.5 199v445h116v-432q0 -57 13.5 -95.5t46 -58t88.5 -19.5t88.5 20t46.5 58t14 95v432h115v-440q0 -135 -67 -203t-197 -68zM288 759l110 142h120l-149 -142h-81z" />
    <glyph glyph-name="Ucircumflex" unicode="&#xdb;" horiz-adv-x="657" 
d="M328 -14q-129 0 -196.5 67t-67.5 199v445h116v-432q0 -57 13.5 -95.5t46 -58t88.5 -19.5t88.5 20t46.5 58t14 95v432h115v-440q0 -135 -67 -203t-197 -68zM174 747l154 170l155 -170h-90l-65 76l-64 -76h-90z" />
    <glyph glyph-name="Udieresis" unicode="&#xdc;" horiz-adv-x="657" 
d="M328 -14q-129 0 -196.5 67t-67.5 199v445h116v-432q0 -57 13.5 -95.5t46 -58t88.5 -19.5t88.5 20t46.5 58t14 95v432h115v-440q0 -135 -67 -203t-197 -68zM364 778v123h122v-123h-122zM172 778v123h121v-123h-121z" />
    <glyph glyph-name="Yacute" unicode="&#xdd;" horiz-adv-x="617" 
d="M252 0v271l-246 426h132l169 -310l172 310h131l-242 -426v-271h-116zM269 759l110 142h120l-149 -142h-81z" />
    <glyph glyph-name="Thorn" unicode="&#xde;" horiz-adv-x="621" 
d="M117 0v697h105v-97h129q101 0 158 -51.5t57 -145.5q0 -96 -63.5 -150.5t-176.5 -54.5h-104v-198h-105zM222 294h104q63 0 98.5 25.5t35.5 80.5q0 57 -36 83.5t-98 26.5h-104v-216z" />
    <glyph glyph-name="germandbls" unicode="&#xdf;" horiz-adv-x="646" 
d="M423 -9q-51 0 -93.5 18.5t-71.5 49.5t-41 68l89 40q8 -20 21.5 -39.5t37 -32t57.5 -12.5q40 0 60.5 17.5t20.5 41.5q0 21 -14 33.5t-36.5 21t-49.5 15.5t-54 17t-50 25.5t-36.5 39.5t-13.5 61q0 39 14 63.5t36.5 39.5t47.5 25t47.5 18t37 18.5t14.5 28.5q0 19 -16.5 30.5
t-41 17.5t-50.5 6q-48 0 -78 -10.5t-46.5 -28t-23.5 -38.5t-8.5 -41.5t-1.5 -37.5v-446h-115v446q0 49 11 95.5t39 83.5t80.5 59t134.5 22q66 0 116.5 -17.5t79.5 -52t29 -85.5q0 -37 -14.5 -62t-37 -41t-47.5 -26.5t-47.5 -20t-36.5 -20t-14 -26.5q0 -15 13.5 -24t36.5 -15
t50 -12.5t54 -16.5t49.5 -26.5t36.5 -42.5t14 -65q0 -42 -16.5 -73t-43.5 -50.5t-60.5 -29t-68.5 -9.5z" />
    <glyph glyph-name="agrave" unicode="&#xe0;" horiz-adv-x="544" 
d="M383 0l-8 83v228q0 48 -29 72.5t-81 24.5q-40 0 -78.5 -15.5t-70.5 -47.5l-62 73q48 45 102 64.5t118 19.5q100 0 155.5 -50.5t55.5 -140.5v-311h-102zM230 -9q-55 0 -97.5 20t-66 56t-23.5 84q0 41 17.5 71t45.5 47q24 15 56 21.5t67 6.5h155v-83h-139q-18 0 -36 -3.5
t-32 -12.5q-10 -8 -16.5 -20t-6.5 -28q0 -32 24.5 -50.5t65.5 -18.5q36 0 65.5 16t47.5 44t18 63l34 -55q-12 -52 -38 -87.5t-62 -53t-79 -17.5zM233 555l-139 142h118l104 -142h-83z" />
    <glyph glyph-name="aacute" unicode="&#xe1;" horiz-adv-x="544" 
d="M383 0l-8 83v228q0 48 -29 72.5t-81 24.5q-40 0 -78.5 -15.5t-70.5 -47.5l-62 73q48 45 102 64.5t118 19.5q100 0 155.5 -50.5t55.5 -140.5v-311h-102zM230 -9q-55 0 -97.5 20t-66 56t-23.5 84q0 41 17.5 71t45.5 47q24 15 56 21.5t67 6.5h155v-83h-139q-18 0 -36 -3.5
t-32 -12.5q-10 -8 -16.5 -20t-6.5 -28q0 -32 24.5 -50.5t65.5 -18.5q36 0 65.5 16t47.5 44t18 63l34 -55q-12 -52 -38 -87.5t-62 -53t-79 -17.5zM234 555l110 142h120l-149 -142h-81z" />
    <glyph glyph-name="acircumflex" unicode="&#xe2;" horiz-adv-x="544" 
d="M383 0l-8 83v228q0 48 -29 72.5t-81 24.5q-40 0 -78.5 -15.5t-70.5 -47.5l-62 73q48 45 102 64.5t118 19.5q100 0 155.5 -50.5t55.5 -140.5v-311h-102zM230 -9q-55 0 -97.5 20t-66 56t-23.5 84q0 41 17.5 71t45.5 47q24 15 56 21.5t67 6.5h155v-83h-139q-18 0 -36 -3.5
t-32 -12.5q-10 -8 -16.5 -20t-6.5 -28q0 -32 24.5 -50.5t65.5 -18.5q36 0 65.5 16t47.5 44t18 63l34 -55q-12 -52 -38 -87.5t-62 -53t-79 -17.5zM120 543l154 170l155 -170h-89l-66 76l-65 -76h-89z" />
    <glyph glyph-name="atilde" unicode="&#xe3;" horiz-adv-x="544" 
d="M383 0l-8 83v228q0 48 -29 72.5t-81 24.5q-40 0 -78.5 -15.5t-70.5 -47.5l-62 73q48 45 102 64.5t118 19.5q100 0 155.5 -50.5t55.5 -140.5v-311h-102zM230 -9q-55 0 -97.5 20t-66 56t-23.5 84q0 41 17.5 71t45.5 47q24 15 56 21.5t67 6.5h155v-83h-139q-18 0 -36 -3.5
t-32 -12.5q-10 -8 -16.5 -20t-6.5 -28q0 -32 24.5 -50.5t65.5 -18.5q36 0 65.5 16t47.5 44t18 63l34 -55q-12 -52 -38 -87.5t-62 -53t-79 -17.5zM338 559q-29 0 -48 11t-31.5 25t-24.5 25t-27 11t-24.5 -17.5t-9.5 -50.5h-64q0 65 28 101t76 36q25 0 43 -11t31.5 -25.5
t25.5 -25.5t26 -11t23.5 18.5t9.5 51.5h67q0 -66 -27 -102t-74 -36z" />
    <glyph glyph-name="adieresis" unicode="&#xe4;" horiz-adv-x="544" 
d="M383 0l-8 83v228q0 48 -29 72.5t-81 24.5q-40 0 -78.5 -15.5t-70.5 -47.5l-62 73q48 45 102 64.5t118 19.5q100 0 155.5 -50.5t55.5 -140.5v-311h-102zM230 -9q-55 0 -97.5 20t-66 56t-23.5 84q0 41 17.5 71t45.5 47q24 15 56 21.5t67 6.5h155v-83h-139q-18 0 -36 -3.5
t-32 -12.5q-10 -8 -16.5 -20t-6.5 -28q0 -32 24.5 -50.5t65.5 -18.5q36 0 65.5 16t47.5 44t18 63l34 -55q-12 -52 -38 -87.5t-62 -53t-79 -17.5zM310 574v123h122v-123h-122zM118 574v123h121v-123h-121z" />
    <glyph glyph-name="aring" unicode="&#xe5;" horiz-adv-x="544" 
d="M383 0l-8 83v228q0 48 -29 72.5t-81 24.5q-40 0 -78.5 -15.5t-70.5 -47.5l-62 73q48 45 102 64.5t118 19.5q100 0 155.5 -50.5t55.5 -140.5v-311h-102zM230 -9q-55 0 -97.5 20t-66 56t-23.5 84q0 41 17.5 71t45.5 47q24 15 56 21.5t67 6.5h155v-83h-139q-18 0 -36 -3.5
t-32 -12.5q-10 -8 -16.5 -20t-6.5 -28q0 -32 24.5 -50.5t65.5 -18.5q36 0 65.5 16t47.5 44t18 63l34 -55q-12 -52 -38 -87.5t-62 -53t-79 -17.5zM275 530q-32 0 -57 15t-39.5 40.5t-14.5 54.5q0 31 14.5 56t40 40t56.5 15q30 0 55 -15t40 -40t15 -55q0 -31 -15 -56.5
t-40 -40t-55 -14.5zM275 590q21 0 35.5 14.5t14.5 36.5t-13.5 36t-36.5 14t-37 -14.5t-14 -35.5q0 -22 14.5 -36.5t36.5 -14.5z" />
    <glyph glyph-name="ae" unicode="&#xe6;" horiz-adv-x="861" 
d="M226 -9q-89 0 -136 44.5t-47 113.5q0 43 18.5 70.5t47.5 42.5t60.5 21t58 7.5t41.5 1.5h108v19q0 45 -28 70t-79 25q-34 0 -68.5 -14t-63.5 -50l-81 67q49 51 104 72t121 21q61 0 102.5 -19.5t59.5 -58.5q27 35 65 55.5t88 20.5q58 0 100 -18.5t68.5 -52t39.5 -77
t13 -92.5q0 -12 -0.5 -24.5t-2.5 -25.5h-337q5 -58 38 -89.5t89 -31.5q41 0 75.5 13t62.5 41l61 -74q-33 -30 -64 -47.5t-64.5 -24t-75.5 -6.5q-67 0 -112.5 28.5t-68.5 77.5h-11q-34 -56 -79 -81t-103 -25zM240 86q36 0 65 13t48 39.5t24 66.5v7h-105q-64 0 -89.5 -19
t-25.5 -47q0 -26 21.5 -43t61.5 -17zM477 292h237q0 15 -6.5 34.5t-20.5 38t-36 31t-53 12.5q-40 0 -66.5 -17t-39.5 -43.5t-15 -55.5z" />
    <glyph glyph-name="ccedilla" unicode="&#xe7;" horiz-adv-x="521" 
d="M278 -9q-58 0 -102.5 20.5t-74 57t-44.5 82.5t-15 96t15 96t44.5 82t74 56.5t102.5 20.5q73 0 127.5 -35t80.5 -108l-98 -38q-12 38 -39 61.5t-71 23.5t-71.5 -23t-40.5 -59t-13 -77t13 -77.5t40.5 -59t71.5 -22.5t71 23t39 61l98 -38q-26 -72 -80.5 -107.5t-127.5 -35.5
zM267 -204q-13 0 -30.5 2.5t-34 9t-28.5 16.5l30 45q14 -9 29.5 -14t30.5 -5q17 0 30.5 8t13.5 24q0 14 -10 22t-26.5 12t-35.5 6t-37 2l62 86h57l-40 -49q41 -7 68 -25.5t27 -52.5q0 -40 -30.5 -63.5t-75.5 -23.5z" />
    <glyph glyph-name="egrave" unicode="&#xe8;" horiz-adv-x="541" 
d="M281 -9q-62 0 -107.5 20t-74.5 56t-43 81.5t-14 94.5t13.5 95.5t41.5 83.5t72 58.5t104 21.5q57 0 99.5 -19.5t70.5 -54t41.5 -78.5t13.5 -94q0 -7 -0.5 -20t-2.5 -26h-342q4 -59 40 -90t92 -31q41 0 75 13t62 41l61 -74q-31 -28 -62 -45t-64.5 -25t-75.5 -8zM389 266
q2 8 2.5 16t0.5 16q0 22 -7.5 42t-22.5 35.5t-37 25t-50 9.5q-39 0 -65.5 -17t-41 -43.5t-17.5 -57.5h274zM232 555l-139 142h118l104 -142h-83z" />
    <glyph glyph-name="eacute" unicode="&#xe9;" horiz-adv-x="541" 
d="M281 -9q-62 0 -107.5 20t-74.5 56t-43 81.5t-14 94.5t13.5 95.5t41.5 83.5t72 58.5t104 21.5q57 0 99.5 -19.5t70.5 -54t41.5 -78.5t13.5 -94q0 -7 -0.5 -20t-2.5 -26h-342q4 -59 40 -90t92 -31q41 0 75 13t62 41l61 -74q-31 -28 -62 -45t-64.5 -25t-75.5 -8zM389 266
q2 8 2.5 16t0.5 16q0 22 -7.5 42t-22.5 35.5t-37 25t-50 9.5q-39 0 -65.5 -17t-41 -43.5t-17.5 -57.5h274zM233 555l110 142h120l-149 -142h-81z" />
    <glyph glyph-name="ecircumflex" unicode="&#xea;" horiz-adv-x="541" 
d="M281 -9q-62 0 -107.5 20t-74.5 56t-43 81.5t-14 94.5t13.5 95.5t41.5 83.5t72 58.5t104 21.5q57 0 99.5 -19.5t70.5 -54t41.5 -78.5t13.5 -94q0 -7 -0.5 -20t-2.5 -26h-342q4 -59 40 -90t92 -31q41 0 75 13t62 41l61 -74q-31 -28 -62 -45t-64.5 -25t-75.5 -8zM389 266
q2 8 2.5 16t0.5 16q0 22 -7.5 42t-22.5 35.5t-37 25t-50 9.5q-39 0 -65.5 -17t-41 -43.5t-17.5 -57.5h274zM119 543l154 170l155 -170h-89l-66 76l-65 -76h-89z" />
    <glyph glyph-name="edieresis" unicode="&#xeb;" horiz-adv-x="541" 
d="M281 -9q-62 0 -107.5 20t-74.5 56t-43 81.5t-14 94.5t13.5 95.5t41.5 83.5t72 58.5t104 21.5q57 0 99.5 -19.5t70.5 -54t41.5 -78.5t13.5 -94q0 -7 -0.5 -20t-2.5 -26h-342q4 -59 40 -90t92 -31q41 0 75 13t62 41l61 -74q-31 -28 -62 -45t-64.5 -25t-75.5 -8zM389 266
q2 8 2.5 16t0.5 16q0 22 -7.5 42t-22.5 35.5t-37 25t-50 9.5q-39 0 -65.5 -17t-41 -43.5t-17.5 -57.5h274zM309 574v123h122v-123h-122zM117 574v123h121v-123h-121z" />
    <glyph glyph-name="igrave" unicode="&#xec;" horiz-adv-x="239" 
d="M64 0v493h111v-493h-111zM78 555l-139 142h118l104 -142h-83z" />
    <glyph glyph-name="iacute" unicode="&#xed;" horiz-adv-x="239" 
d="M64 0v493h111v-493h-111zM78 555l110 142h120l-149 -142h-81z" />
    <glyph glyph-name="icircumflex" unicode="&#xee;" horiz-adv-x="239" 
d="M64 0v493h111v-493h-111zM-35 543l154 170l155 -170h-89l-66 76l-65 -76h-89z" />
    <glyph glyph-name="idieresis" unicode="&#xef;" horiz-adv-x="239" 
d="M64 0v493h111v-493h-111zM155 574v123h122v-123h-122zM-37 574v123h121v-123h-121z" />
    <glyph glyph-name="eth" unicode="&#xf0;" horiz-adv-x="608" 
d="M280 -9q-71 0 -122 29t-78.5 80t-27.5 116q0 62 21.5 113t59 88t86 57t103.5 20q27 0 51.5 -8t44.5 -22t35 -33.5t24 -42.5q4 79 -21 138t-82.5 92.5t-152.5 36.5l8 75q99 -7 165 -34t105 -73t55.5 -109t16.5 -143q0 -86 -19.5 -156t-56.5 -120t-91 -77t-124 -27zM287 86
q51 0 89.5 25.5t61 67.5t23.5 89q0 23 -7 46.5t-22 43.5t-39.5 32t-59.5 12q-60 0 -99.5 -27.5t-58 -69.5t-18.5 -87q0 -43 17.5 -72t46.5 -44.5t66 -15.5zM244 533l-12 46l346 92l11 -45z" />
    <glyph glyph-name="ntilde" unicode="&#xf1;" horiz-adv-x="559" 
d="M65 0v493h111v-109l-20 -5q13 43 38 70t58.5 40t70.5 13q83 0 129.5 -47.5t46.5 -135.5v-319h-111v278q0 66 -24 97t-74 31q-37 0 -62.5 -17.5t-38.5 -54.5t-13 -94v-240h-111zM336 559q-29 0 -48 11t-31.5 25t-24.5 25t-27 11t-24.5 -17.5t-9.5 -50.5h-64q0 65 28 101
t76 36q25 0 43 -11t31.5 -25.5t25.5 -25.5t26 -11t23.5 18.5t9.5 51.5h67q0 -66 -27 -102t-74 -36z" />
    <glyph glyph-name="ograve" unicode="&#xf2;" horiz-adv-x="574" 
d="M287 -9q-70 0 -126 33t-87.5 91t-31.5 132t31.5 132t87 90.5t126.5 32.5q72 0 126.5 -32.5t86.5 -90.5t32 -132t-31.5 -132t-87 -91t-126.5 -33zM288 89q41 0 71 19t46 55t16 84q0 49 -16 84.5t-46 54.5t-71 19q-43 0 -73 -19.5t-46 -54.5t-16 -84q0 -48 16 -84t46 -55
t73 -19zM246 555l-139 142h118l104 -142h-83z" />
    <glyph glyph-name="oacute" unicode="&#xf3;" horiz-adv-x="574" 
d="M287 -9q-70 0 -126 33t-87.5 91t-31.5 132t31.5 132t87 90.5t126.5 32.5q72 0 126.5 -32.5t86.5 -90.5t32 -132t-31.5 -132t-87 -91t-126.5 -33zM288 89q41 0 71 19t46 55t16 84q0 49 -16 84.5t-46 54.5t-71 19q-43 0 -73 -19.5t-46 -54.5t-16 -84q0 -48 16 -84t46 -55
t73 -19zM246 555l110 142h120l-149 -142h-81z" />
    <glyph glyph-name="ocircumflex" unicode="&#xf4;" horiz-adv-x="574" 
d="M287 -9q-70 0 -126 33t-87.5 91t-31.5 132t31.5 132t87 90.5t126.5 32.5q72 0 126.5 -32.5t86.5 -90.5t32 -132t-31.5 -132t-87 -91t-126.5 -33zM288 89q41 0 71 19t46 55t16 84q0 49 -16 84.5t-46 54.5t-71 19q-43 0 -73 -19.5t-46 -54.5t-16 -84q0 -48 16 -84t46 -55
t73 -19zM133 543l154 170l155 -170h-89l-66 76l-65 -76h-89z" />
    <glyph glyph-name="otilde" unicode="&#xf5;" horiz-adv-x="574" 
d="M287 -9q-70 0 -126 33t-87.5 91t-31.5 132t31.5 132t87 90.5t126.5 32.5q72 0 126.5 -32.5t86.5 -90.5t32 -132t-31.5 -132t-87 -91t-126.5 -33zM288 89q41 0 71 19t46 55t16 84q0 49 -16 84.5t-46 54.5t-71 19q-43 0 -73 -19.5t-46 -54.5t-16 -84q0 -48 16 -84t46 -55
t73 -19zM351 559q-29 0 -48 11t-31.5 25t-24.5 25t-27 11t-24.5 -17.5t-9.5 -50.5h-64q0 65 28 101t76 36q25 0 43 -11t31.5 -25.5t25.5 -25.5t26 -11t23.5 18.5t9.5 51.5h67q0 -66 -27 -102t-74 -36z" />
    <glyph glyph-name="odieresis" unicode="&#xf6;" horiz-adv-x="574" 
d="M287 -9q-70 0 -126 33t-87.5 91t-31.5 132t31.5 132t87 90.5t126.5 32.5q72 0 126.5 -32.5t86.5 -90.5t32 -132t-31.5 -132t-87 -91t-126.5 -33zM288 89q41 0 71 19t46 55t16 84q0 49 -16 84.5t-46 54.5t-71 19q-43 0 -73 -19.5t-46 -54.5t-16 -84q0 -48 16 -84t46 -55
t73 -19zM323 574v123h122v-123h-122zM131 574v123h121v-123h-121z" />
    <glyph glyph-name="divide" unicode="&#xf7;" horiz-adv-x="560" 
d="M59 204v87h442v-87h-442zM215 18v130h130v-130h-130zM215 347v128h130v-128h-130z" />
    <glyph glyph-name="oslash" unicode="&#xf8;" horiz-adv-x="574" 
d="M287 -9q-70 0 -126 33t-87.5 91t-31.5 132t31.5 132t87 90.5t126.5 32.5q72 0 126.5 -32.5t86.5 -90.5t32 -132t-31.5 -132t-87 -91t-126.5 -33zM288 89q41 0 71 19t46 55t16 84q0 49 -16 84.5t-46 54.5t-71 19q-43 0 -73 -19.5t-46 -54.5t-16 -84q0 -48 16 -84t46 -55
t73 -19zM83 -44l353 582h55l-354 -582h-54z" />
    <glyph glyph-name="ugrave" unicode="&#xf9;" horiz-adv-x="559" 
d="M236 -9q-58 0 -97.5 23t-59.5 66t-20 104v309h111v-279q0 -39 9.5 -67.5t31 -43.5t58.5 -15q43 0 67.5 22.5t35 66t10.5 104.5v212h111v-493h-111v106l19 -7q-23 -56 -66.5 -82t-98.5 -26zM233 555l-139 142h118l104 -142h-83z" />
    <glyph glyph-name="uacute" unicode="&#xfa;" horiz-adv-x="559" 
d="M236 -9q-58 0 -97.5 23t-59.5 66t-20 104v309h111v-279q0 -39 9.5 -67.5t31 -43.5t58.5 -15q43 0 67.5 22.5t35 66t10.5 104.5v212h111v-493h-111v106l19 -7q-23 -56 -66.5 -82t-98.5 -26zM234 555l110 142h120l-149 -142h-81z" />
    <glyph glyph-name="ucircumflex" unicode="&#xfb;" horiz-adv-x="559" 
d="M236 -9q-58 0 -97.5 23t-59.5 66t-20 104v309h111v-279q0 -39 9.5 -67.5t31 -43.5t58.5 -15q43 0 67.5 22.5t35 66t10.5 104.5v212h111v-493h-111v106l19 -7q-23 -56 -66.5 -82t-98.5 -26zM121 543l154 170l155 -170h-89l-66 76l-65 -76h-89z" />
    <glyph glyph-name="udieresis" unicode="&#xfc;" horiz-adv-x="559" 
d="M236 -9q-58 0 -97.5 23t-59.5 66t-20 104v309h111v-279q0 -39 9.5 -67.5t31 -43.5t58.5 -15q43 0 67.5 22.5t35 66t10.5 104.5v212h111v-493h-111v106l19 -7q-23 -56 -66.5 -82t-98.5 -26zM310 574v123h122v-123h-122zM118 574v123h121v-123h-121z" />
    <glyph glyph-name="yacute" unicode="&#xfd;" horiz-adv-x="530" 
d="M108 -203l98 236l-188 460h122l125 -349l127 349h120l-284 -696h-120zM225 555l110 142h120l-149 -142h-81z" />
    <glyph glyph-name="thorn" unicode="&#xfe;" horiz-adv-x="617" 
d="M94 -204v901h111v-340l-22 25q12 41 39.5 67.5t63.5 39.5t72 13q66 0 111 -34t68.5 -92t23.5 -131q0 -80 -27.5 -137t-73 -87t-102.5 -30q-38 0 -74 14.5t-62 41t-35 60.5l18 31v-342h-111zM328 88q41 0 68 19t40.5 54.5t13.5 84.5q0 51 -13 86t-39.5 54t-68.5 19
q-45 0 -75 -21t-44.5 -57t-14.5 -81q0 -44 15 -80t44.5 -57t73.5 -21z" />
    <glyph glyph-name="ydieresis" unicode="&#xff;" horiz-adv-x="530" 
d="M108 -203l98 236l-188 460h122l125 -349l127 349h120l-284 -696h-120zM301 574v123h122v-123h-122zM109 574v123h121v-123h-121z" />
    <glyph glyph-name="Amacron" unicode="&#x100;" horiz-adv-x="661" 
d="M11 0l276 697h88l275 -697h-126l-193 528l-193 -528h-127zM183 146l36 103h223l38 -103h-297zM194 776v65h274v-65h-274z" />
    <glyph glyph-name="amacron" unicode="&#x101;" horiz-adv-x="544" 
d="M383 0l-8 83v228q0 48 -29 72.5t-81 24.5q-40 0 -78.5 -15.5t-70.5 -47.5l-62 73q48 45 102 64.5t118 19.5q100 0 155.5 -50.5t55.5 -140.5v-311h-102zM230 -9q-55 0 -97.5 20t-66 56t-23.5 84q0 41 17.5 71t45.5 47q24 15 56 21.5t67 6.5h155v-83h-139q-18 0 -36 -3.5
t-32 -12.5q-10 -8 -16.5 -20t-6.5 -28q0 -32 24.5 -50.5t65.5 -18.5q36 0 65.5 16t47.5 44t18 63l34 -55q-12 -52 -38 -87.5t-62 -53t-79 -17.5zM138 572v65h274v-65h-274z" />
    <glyph glyph-name="Abreve" unicode="&#x102;" horiz-adv-x="661" 
d="M11 0l276 697h88l275 -697h-126l-193 528l-193 -528h-127zM183 146l36 103h223l38 -103h-297zM332 739q-80 0 -117.5 34.5t-37.5 97.5h79q0 -34 21.5 -50.5t54.5 -16.5t54.5 17t21.5 50h78q0 -67 -38.5 -99.5t-115.5 -32.5z" />
    <glyph glyph-name="abreve" unicode="&#x103;" horiz-adv-x="544" 
d="M383 0l-8 83v228q0 48 -29 72.5t-81 24.5q-40 0 -78.5 -15.5t-70.5 -47.5l-62 73q48 45 102 64.5t118 19.5q100 0 155.5 -50.5t55.5 -140.5v-311h-102zM230 -9q-55 0 -97.5 20t-66 56t-23.5 84q0 41 17.5 71t45.5 47q24 15 56 21.5t67 6.5h155v-83h-139q-18 0 -36 -3.5
t-32 -12.5q-10 -8 -16.5 -20t-6.5 -28q0 -32 24.5 -50.5t65.5 -18.5q36 0 65.5 16t47.5 44t18 63l34 -55q-12 -52 -38 -87.5t-62 -53t-79 -17.5zM275 551q-80 0 -117.5 36t-37.5 110h71q0 -45 23 -63t61 -18q39 0 61 19t22 62h71q0 -77 -38.5 -111.5t-115.5 -34.5z" />
    <glyph glyph-name="Aogonek" unicode="&#x104;" horiz-adv-x="661" 
d="M11 0l276 697h88l275 -697h-126l-193 528l-193 -528h-127zM183 146l36 103h223l38 -103h-297zM569 -204q-43 0 -73.5 24t-30.5 66q0 29 13.5 51.5t32.5 38.5t36 25l88 -1q-12 -5 -29.5 -15t-34.5 -23.5t-28.5 -30.5t-11.5 -35q0 -19 12 -29t29 -10q15 0 32 8t33 24
l38 -42q-20 -24 -46.5 -37.5t-59.5 -13.5z" />
    <glyph glyph-name="aogonek" unicode="&#x105;" horiz-adv-x="544" 
d="M383 0l-8 83v228q0 48 -29 72.5t-81 24.5q-40 0 -78.5 -15.5t-70.5 -47.5l-62 73q48 45 102 64.5t118 19.5q100 0 155.5 -50.5t55.5 -140.5v-311h-102zM230 -9q-55 0 -97.5 20t-66 56t-23.5 84q0 41 17.5 71t45.5 47q24 15 56 21.5t67 6.5h155v-83h-139q-18 0 -36 -3.5
t-32 -12.5q-10 -8 -16.5 -20t-6.5 -28q0 -32 24.5 -50.5t65.5 -18.5q36 0 65.5 16t47.5 44t18 63l34 -55q-12 -52 -38 -87.5t-62 -53t-79 -17.5zM419 -204q-43 0 -73.5 24t-30.5 66q0 29 13.5 51.5t32.5 38.5t36 25l88 -1q-12 -5 -29.5 -15t-34.5 -23.5t-28.5 -30.5
t-11.5 -35q0 -19 12 -29t29 -10q15 0 32 8t33 24l38 -42q-20 -24 -46.5 -37.5t-59.5 -13.5z" />
    <glyph glyph-name="Cacute" unicode="&#x106;" horiz-adv-x="708" 
d="M372 -14q-98 0 -172 45t-115.5 127t-41.5 191t41.5 190.5t115.5 126.5t172 45q109 0 188.5 -54t114.5 -150l-108 -39q-24 63 -74 98t-121 35q-65 0 -113 -31t-74.5 -87t-26.5 -134t26.5 -134.5t74.5 -87.5t113 -31q71 0 121 35.5t74 97.5l108 -39q-35 -94 -114.5 -149
t-188.5 -55zM318 759l110 142h120l-149 -142h-81z" />
    <glyph glyph-name="cacute" unicode="&#x107;" horiz-adv-x="521" 
d="M278 -9q-58 0 -102.5 20.5t-74 57t-44.5 82.5t-15 96t15 96t44.5 82t74 56.5t102.5 20.5q73 0 127.5 -35t80.5 -108l-98 -38q-12 38 -39 61.5t-71 23.5t-71.5 -23t-40.5 -59t-13 -77t13 -77.5t40.5 -59t71.5 -22.5t71 23t39 61l98 -38q-26 -72 -80.5 -107.5t-127.5 -35.5
zM224 555l110 142h120l-149 -142h-81z" />
    <glyph glyph-name="Ccircumflex" unicode="&#x108;" horiz-adv-x="708" 
d="M372 -14q-98 0 -172 45t-115.5 127t-41.5 191t41.5 190.5t115.5 126.5t172 45q109 0 188.5 -54t114.5 -150l-108 -39q-24 63 -74 98t-121 35q-65 0 -113 -31t-74.5 -87t-26.5 -134t26.5 -134.5t74.5 -87.5t113 -31q71 0 121 35.5t74 97.5l108 -39q-35 -94 -114.5 -149
t-188.5 -55zM205 747l154 170l155 -170h-90l-65 76l-64 -76h-90z" />
    <glyph glyph-name="ccircumflex" unicode="&#x109;" horiz-adv-x="521" 
d="M278 -9q-58 0 -102.5 20.5t-74 57t-44.5 82.5t-15 96t15 96t44.5 82t74 56.5t102.5 20.5q73 0 127.5 -35t80.5 -108l-98 -38q-12 38 -39 61.5t-71 23.5t-71.5 -23t-40.5 -59t-13 -77t13 -77.5t40.5 -59t71.5 -22.5t71 23t39 61l98 -38q-26 -72 -80.5 -107.5t-127.5 -35.5
zM111 543l154 170l155 -170h-89l-66 76l-65 -76h-89z" />
    <glyph glyph-name="Cdotaccent" unicode="&#x10a;" horiz-adv-x="708" 
d="M372 -14q-98 0 -172 45t-115.5 127t-41.5 191t41.5 190.5t115.5 126.5t172 45q109 0 188.5 -54t114.5 -150l-108 -39q-24 63 -74 98t-121 35q-65 0 -113 -31t-74.5 -87t-26.5 -134t26.5 -134.5t74.5 -87.5t113 -31q71 0 121 35.5t74 97.5l108 -39q-35 -94 -114.5 -149
t-188.5 -55zM298 778v123h121v-123h-121z" />
    <glyph glyph-name="cdotaccent" unicode="&#x10b;" horiz-adv-x="521" 
d="M278 -9q-58 0 -102.5 20.5t-74 57t-44.5 82.5t-15 96t15 96t44.5 82t74 56.5t102.5 20.5q73 0 127.5 -35t80.5 -108l-98 -38q-12 38 -39 61.5t-71 23.5t-71.5 -23t-40.5 -59t-13 -77t13 -77.5t40.5 -59t71.5 -22.5t71 23t39 61l98 -38q-26 -72 -80.5 -107.5t-127.5 -35.5
zM205 574v123h121v-123h-121z" />
    <glyph glyph-name="Ccaron" unicode="&#x10c;" horiz-adv-x="708" 
d="M372 -14q-98 0 -172 45t-115.5 127t-41.5 191t41.5 190.5t115.5 126.5t172 45q109 0 188.5 -54t114.5 -150l-108 -39q-24 63 -74 98t-121 35q-65 0 -113 -31t-74.5 -87t-26.5 -134t26.5 -134.5t74.5 -87.5t113 -31q71 0 121 35.5t74 97.5l108 -39q-35 -94 -114.5 -149
t-188.5 -55zM359 739l-154 162h86l68 -76l69 76h86z" />
    <glyph glyph-name="ccaron" unicode="&#x10d;" horiz-adv-x="521" 
d="M278 -9q-58 0 -102.5 20.5t-74 57t-44.5 82.5t-15 96t15 96t44.5 82t74 56.5t102.5 20.5q73 0 127.5 -35t80.5 -108l-98 -38q-12 38 -39 61.5t-71 23.5t-71.5 -23t-40.5 -59t-13 -77t13 -77.5t40.5 -59t71.5 -22.5t71 23t39 61l98 -38q-26 -72 -80.5 -107.5t-127.5 -35.5
zM265 535l-154 162h86l68 -76l69 76h86z" />
    <glyph glyph-name="Dcaron" unicode="&#x10e;" horiz-adv-x="676" 
d="M71 0v697h200q172 0 267 -92.5t95 -261.5q0 -166 -93.5 -254.5t-269.5 -88.5h-199zM187 106h72q81 0 139 22.5t88 75.5t30 143t-29.5 143.5t-85 77t-132.5 23.5h-82v-485zM327 739l-154 162h86l68 -76l69 76h86z" />
    <glyph glyph-name="dcaron" unicode="&#x10f;" horiz-adv-x="762" 
d="M257 -9q-66 0 -114.5 33.5t-74.5 91.5t-26 131q0 80 28.5 137t77.5 87.5t109 30.5q42 0 77.5 -17t60 -49.5t34.5 -79.5l-26 -1v342h111v-697h-111v137l30 7q-13 -54 -39.5 -87.5t-61.5 -49.5t-75 -16zM284 93q39 0 68 19t45 54t16 81t-16 80.5t-45 54t-68 19.5t-68.5 -19
t-46 -54t-16.5 -81t16.5 -81t46 -54t68.5 -19zM559 476l56 221h117l-108 -221h-65z" />
    <glyph glyph-name="Dcroat" unicode="&#x110;" horiz-adv-x="676" 
d="M71 0v697h200q172 0 267 -92.5t95 -261.5q0 -166 -93.5 -254.5t-269.5 -88.5h-199zM187 106h72q81 0 139 22.5t88 75.5t30 143t-29.5 143.5t-85 77t-132.5 23.5h-82v-485zM4 312v74h313v-74h-313z" />
    <glyph glyph-name="dcroat" unicode="&#x111;" horiz-adv-x="579" 
d="M257 -9q-66 0 -114.5 33.5t-74.5 91.5t-26 131q0 80 28.5 137t77.5 87.5t109 30.5q42 0 77.5 -17t60 -49.5t34.5 -79.5l-26 -1v342h111v-697h-111v137l30 7q-13 -54 -39.5 -87.5t-61.5 -49.5t-75 -16zM284 93q39 0 68 19t45 54t16 81t-16 80.5t-45 54t-68 19.5t-68.5 -19
t-46 -54t-16.5 -81t16.5 -81t46 -54t68.5 -19zM271 564v74h313v-74h-313z" />
    <glyph glyph-name="Emacron" unicode="&#x112;" horiz-adv-x="580" 
d="M71 0v697h463v-103h-347v-185h320v-104h-320v-202h347v-103h-463zM166 776v65h274v-65h-274z" />
    <glyph glyph-name="emacron" unicode="&#x113;" horiz-adv-x="541" 
d="M281 -9q-62 0 -107.5 20t-74.5 56t-43 81.5t-14 94.5t13.5 95.5t41.5 83.5t72 58.5t104 21.5q57 0 99.5 -19.5t70.5 -54t41.5 -78.5t13.5 -94q0 -7 -0.5 -20t-2.5 -26h-342q4 -59 40 -90t92 -31q41 0 75 13t62 41l61 -74q-31 -28 -62 -45t-64.5 -25t-75.5 -8zM389 266
q2 8 2.5 16t0.5 16q0 22 -7.5 42t-22.5 35.5t-37 25t-50 9.5q-39 0 -65.5 -17t-41 -43.5t-17.5 -57.5h274zM137 572v65h274v-65h-274z" />
    <glyph glyph-name="Ebreve" unicode="&#x114;" horiz-adv-x="580" 
d="M71 0v697h463v-103h-347v-185h320v-104h-320v-202h347v-103h-463zM303 739q-80 0 -117.5 34.5t-37.5 97.5h79q0 -34 21.5 -50.5t54.5 -16.5t54.5 17t21.5 50h78q0 -67 -38.5 -99.5t-115.5 -32.5z" />
    <glyph glyph-name="ebreve" unicode="&#x115;" horiz-adv-x="541" 
d="M281 -9q-62 0 -107.5 20t-74.5 56t-43 81.5t-14 94.5t13.5 95.5t41.5 83.5t72 58.5t104 21.5q57 0 99.5 -19.5t70.5 -54t41.5 -78.5t13.5 -94q0 -7 -0.5 -20t-2.5 -26h-342q4 -59 40 -90t92 -31q41 0 75 13t62 41l61 -74q-31 -28 -62 -45t-64.5 -25t-75.5 -8zM389 266
q2 8 2.5 16t0.5 16q0 22 -7.5 42t-22.5 35.5t-37 25t-50 9.5q-39 0 -65.5 -17t-41 -43.5t-17.5 -57.5h274zM274 551q-80 0 -117.5 36t-37.5 110h71q0 -45 23 -63t61 -18q39 0 61 19t22 62h71q0 -77 -38.5 -111.5t-115.5 -34.5z" />
    <glyph glyph-name="Edotaccent" unicode="&#x116;" horiz-adv-x="580" 
d="M71 0v697h463v-103h-347v-185h320v-104h-320v-202h347v-103h-463zM242 778v123h121v-123h-121z" />
    <glyph glyph-name="edotaccent" unicode="&#x117;" horiz-adv-x="541" 
d="M281 -9q-62 0 -107.5 20t-74.5 56t-43 81.5t-14 94.5t13.5 95.5t41.5 83.5t72 58.5t104 21.5q57 0 99.5 -19.5t70.5 -54t41.5 -78.5t13.5 -94q0 -7 -0.5 -20t-2.5 -26h-342q4 -59 40 -90t92 -31q41 0 75 13t62 41l61 -74q-31 -28 -62 -45t-64.5 -25t-75.5 -8zM389 266
q2 8 2.5 16t0.5 16q0 22 -7.5 42t-22.5 35.5t-37 25t-50 9.5q-39 0 -65.5 -17t-41 -43.5t-17.5 -57.5h274zM213 574v123h121v-123h-121z" />
    <glyph glyph-name="Eogonek" unicode="&#x118;" horiz-adv-x="580" 
d="M71 0v697h463v-103h-347v-185h320v-104h-320v-202h347v-103h-463zM468 -204q-43 0 -73.5 24t-30.5 66q0 29 13.5 51.5t32.5 38.5t36 25l88 -1q-12 -5 -29.5 -15t-34.5 -23.5t-28.5 -30.5t-11.5 -35q0 -19 12 -29t29 -10q15 0 32 8t33 24l38 -42q-20 -24 -46.5 -37.5
t-59.5 -13.5z" />
    <glyph glyph-name="eogonek" unicode="&#x119;" horiz-adv-x="541" 
d="M281 -9q-62 0 -107.5 20t-74.5 56t-43 81.5t-14 94.5t13.5 95.5t41.5 83.5t72 58.5t104 21.5q57 0 99.5 -19.5t70.5 -54t41.5 -78.5t13.5 -94q0 -7 -0.5 -20t-2.5 -26h-342q4 -59 40 -90t92 -31q41 0 75 13t62 41l61 -74q-31 -28 -62 -45t-64.5 -25t-75.5 -8zM389 266
q2 8 2.5 16t0.5 16q0 22 -7.5 42t-22.5 35.5t-37 25t-50 9.5q-39 0 -65.5 -17t-41 -43.5t-17.5 -57.5h274zM288 -204q-43 0 -73.5 24t-30.5 66q0 29 13.5 51.5t32.5 38.5t36 25l88 -1q-12 -5 -29.5 -15t-34.5 -23.5t-28.5 -30.5t-11.5 -35q0 -19 12 -29t29 -10q15 0 32 8
t33 24l38 -42q-20 -24 -46.5 -37.5t-59.5 -13.5z" />
    <glyph glyph-name="Ecaron" unicode="&#x11a;" horiz-adv-x="580" 
d="M71 0v697h463v-103h-347v-185h320v-104h-320v-202h347v-103h-463zM302 739l-154 162h86l68 -76l69 76h86z" />
    <glyph glyph-name="ecaron" unicode="&#x11b;" horiz-adv-x="541" 
d="M281 -9q-62 0 -107.5 20t-74.5 56t-43 81.5t-14 94.5t13.5 95.5t41.5 83.5t72 58.5t104 21.5q57 0 99.5 -19.5t70.5 -54t41.5 -78.5t13.5 -94q0 -7 -0.5 -20t-2.5 -26h-342q4 -59 40 -90t92 -31q41 0 75 13t62 41l61 -74q-31 -28 -62 -45t-64.5 -25t-75.5 -8zM389 266
q2 8 2.5 16t0.5 16q0 22 -7.5 42t-22.5 35.5t-37 25t-50 9.5q-39 0 -65.5 -17t-41 -43.5t-17.5 -57.5h274zM273 535l-154 162h86l68 -76l69 76h86z" />
    <glyph glyph-name="Gcircumflex" unicode="&#x11c;" horiz-adv-x="734" 
d="M365 -14q-94 0 -167 45t-114 127t-41 191t41.5 190.5t115.5 126.5t172 45q109 0 188.5 -54t114.5 -150l-108 -39q-24 63 -74 98t-121 35q-65 0 -113 -31t-74.5 -87t-26.5 -134t26.5 -134.5t74.5 -87.5t113 -31q34 0 69 9.5t65 32.5t48.5 64.5t18.5 104.5v44l26 -80h-199
v103h275v-374h-102l-16 121l20 -16q-19 -40 -50.5 -66.5t-73 -39.5t-88.5 -13zM218 747l154 170l155 -170h-89l-66 76l-65 -76h-89z" />
    <glyph glyph-name="gcircumflex" unicode="&#x11d;" horiz-adv-x="520" 
d="M270 -214q-109 0 -172 39.5t-63 107.5q0 6 0.5 14t2.5 16l134 87l30 -29l-65 -81q-1 -3 -1 -5.5v-5.5q0 -31 37.5 -47.5t96.5 -16.5q50 0 80 13.5t30 40.5q0 15 -9 24.5t-27 15.5t-44.5 10.5t-62.5 8.5q-45 7 -88.5 20t-72 39t-28.5 69q0 38 26 69.5t69 51.5l57 -44
q-28 -6 -42 -20.5t-14 -34.5q0 -17 13 -27.5t37.5 -16t58.5 -10.5q51 -6 94 -14t75 -22.5t49.5 -39.5t17.5 -65q0 -71 -57.5 -109t-161.5 -38zM259 143q-60 0 -106 23t-71.5 63.5t-25.5 91.5q0 55 27 95.5t72.5 63t99.5 22.5t99 -22.5t72.5 -64t27.5 -98.5
q0 -52 -24.5 -91.5t-68.5 -61t-102 -21.5zM257 232q43 0 65 26.5t22 63.5q0 40 -24 64.5t-63 24.5q-41 0 -65.5 -24.5t-24.5 -63.5q0 -38 23 -64.5t67 -26.5zM422 393l-81 52l111 90l57 -69zM106 543l154 170l155 -170h-89l-66 76l-65 -76h-89z" />
    <glyph glyph-name="Gbreve" unicode="&#x11e;" horiz-adv-x="734" 
d="M365 -14q-94 0 -167 45t-114 127t-41 191t41.5 190.5t115.5 126.5t172 45q109 0 188.5 -54t114.5 -150l-108 -39q-24 63 -74 98t-121 35q-65 0 -113 -31t-74.5 -87t-26.5 -134t26.5 -134.5t74.5 -87.5t113 -31q34 0 69 9.5t65 32.5t48.5 64.5t18.5 104.5v44l26 -80h-199
v103h275v-374h-102l-16 121l20 -16q-19 -40 -50.5 -66.5t-73 -39.5t-88.5 -13zM373 739q-80 0 -117.5 34.5t-37.5 97.5h79q0 -34 21.5 -50.5t54.5 -16.5t54.5 17t21.5 50h78q0 -67 -38.5 -99.5t-115.5 -32.5z" />
    <glyph glyph-name="gbreve" unicode="&#x11f;" horiz-adv-x="520" 
d="M270 -214q-109 0 -172 39.5t-63 107.5q0 6 0.5 14t2.5 16l134 87l30 -29l-65 -81q-1 -3 -1 -5.5v-5.5q0 -31 37.5 -47.5t96.5 -16.5q50 0 80 13.5t30 40.5q0 15 -9 24.5t-27 15.5t-44.5 10.5t-62.5 8.5q-45 7 -88.5 20t-72 39t-28.5 69q0 38 26 69.5t69 51.5l57 -44
q-28 -6 -42 -20.5t-14 -34.5q0 -17 13 -27.5t37.5 -16t58.5 -10.5q51 -6 94 -14t75 -22.5t49.5 -39.5t17.5 -65q0 -71 -57.5 -109t-161.5 -38zM259 143q-60 0 -106 23t-71.5 63.5t-25.5 91.5q0 55 27 95.5t72.5 63t99.5 22.5t99 -22.5t72.5 -64t27.5 -98.5
q0 -52 -24.5 -91.5t-68.5 -61t-102 -21.5zM257 232q43 0 65 26.5t22 63.5q0 40 -24 64.5t-63 24.5q-41 0 -65.5 -24.5t-24.5 -63.5q0 -38 23 -64.5t67 -26.5zM422 393l-81 52l111 90l57 -69zM260 551q-80 0 -117.5 36t-37.5 110h71q0 -45 23 -63t61 -18q39 0 61 19t22 62h71
q0 -77 -38.5 -111.5t-115.5 -34.5z" />
    <glyph glyph-name="Gdotaccent" unicode="&#x120;" horiz-adv-x="734" 
d="M365 -14q-94 0 -167 45t-114 127t-41 191t41.5 190.5t115.5 126.5t172 45q109 0 188.5 -54t114.5 -150l-108 -39q-24 63 -74 98t-121 35q-65 0 -113 -31t-74.5 -87t-26.5 -134t26.5 -134.5t74.5 -87.5t113 -31q34 0 69 9.5t65 32.5t48.5 64.5t18.5 104.5v44l26 -80h-199
v103h275v-374h-102l-16 121l20 -16q-19 -40 -50.5 -66.5t-73 -39.5t-88.5 -13zM312 778v123h121v-123h-121z" />
    <glyph glyph-name="gdotaccent" unicode="&#x121;" horiz-adv-x="520" 
d="M270 -214q-109 0 -172 39.5t-63 107.5q0 6 0.5 14t2.5 16l134 87l30 -29l-65 -81q-1 -3 -1 -5.5v-5.5q0 -31 37.5 -47.5t96.5 -16.5q50 0 80 13.5t30 40.5q0 15 -9 24.5t-27 15.5t-44.5 10.5t-62.5 8.5q-45 7 -88.5 20t-72 39t-28.5 69q0 38 26 69.5t69 51.5l57 -44
q-28 -6 -42 -20.5t-14 -34.5q0 -17 13 -27.5t37.5 -16t58.5 -10.5q51 -6 94 -14t75 -22.5t49.5 -39.5t17.5 -65q0 -71 -57.5 -109t-161.5 -38zM259 143q-60 0 -106 23t-71.5 63.5t-25.5 91.5q0 55 27 95.5t72.5 63t99.5 22.5t99 -22.5t72.5 -64t27.5 -98.5
q0 -52 -24.5 -91.5t-68.5 -61t-102 -21.5zM257 232q43 0 65 26.5t22 63.5q0 40 -24 64.5t-63 24.5q-41 0 -65.5 -24.5t-24.5 -63.5q0 -38 23 -64.5t67 -26.5zM422 393l-81 52l111 90l57 -69zM199 574v123h121v-123h-121z" />
    <glyph glyph-name="uni0122" unicode="&#x122;" horiz-adv-x="734" 
d="M365 -14q-94 0 -167 45t-114 127t-41 191t41.5 190.5t115.5 126.5t172 45q109 0 188.5 -54t114.5 -150l-108 -39q-24 63 -74 98t-121 35q-65 0 -113 -31t-74.5 -87t-26.5 -134t26.5 -134.5t74.5 -87.5t113 -31q34 0 69 9.5t65 32.5t48.5 64.5t18.5 104.5v44l26 -80h-199
v103h275v-374h-102l-16 121l20 -16q-19 -40 -50.5 -66.5t-73 -39.5t-88.5 -13zM244 -204l70 151h117l-122 -151h-65z" />
    <glyph glyph-name="uni0123" unicode="&#x123;" horiz-adv-x="520" 
d="M270 -214q-109 0 -172 39.5t-63 107.5q0 6 0.5 14t2.5 16l134 87l30 -29l-65 -81q-1 -3 -1 -5.5v-5.5q0 -31 37.5 -47.5t96.5 -16.5q50 0 80 13.5t30 40.5q0 15 -9 24.5t-27 15.5t-44.5 10.5t-62.5 8.5q-45 7 -88.5 20t-72 39t-28.5 69q0 38 26 69.5t69 51.5l57 -44
q-28 -6 -42 -20.5t-14 -34.5q0 -17 13 -27.5t37.5 -16t58.5 -10.5q51 -6 94 -14t75 -22.5t49.5 -39.5t17.5 -65q0 -71 -57.5 -109t-161.5 -38zM259 143q-60 0 -106 23t-71.5 63.5t-25.5 91.5q0 55 27 95.5t72.5 63t99.5 22.5t99 -22.5t72.5 -64t27.5 -98.5
q0 -52 -24.5 -91.5t-68.5 -61t-102 -21.5zM257 232q43 0 65 26.5t22 63.5q0 40 -24 64.5t-63 24.5q-41 0 -65.5 -24.5t-24.5 -63.5q0 -38 23 -64.5t67 -26.5zM422 393l-81 52l111 90l57 -69zM167 552l121 154h66l-71 -154h-116z" />
    <glyph glyph-name="Hcircumflex" unicode="&#x124;" horiz-adv-x="688" 
d="M71 0v697h116v-285h314v285h116v-697h-116v305h-314v-305h-116zM190 747l154 170l155 -170h-89l-66 76l-65 -76h-89z" />
    <glyph glyph-name="hcircumflex" unicode="&#x125;" horiz-adv-x="559" 
d="M65 0v697h111v-313l-20 -5q13 43 38.5 70t58.5 40t70 13q83 0 129.5 -47.5t46.5 -135.5v-319h-111v278q0 66 -24 97t-74 31q-56 0 -85 -40t-29 -126v-240h-111zM-33 747l154 170l155 -170h-90l-65 76l-64 -76h-90z" />
    <glyph glyph-name="Hbar" unicode="&#x126;" horiz-adv-x="688" 
d="M71 0v697h116v-285h314v285h116v-697h-116v305h-314v-305h-116zM19 516v66h653v-66h-653z" />
    <glyph glyph-name="hbar" unicode="&#x127;" horiz-adv-x="559" 
d="M65 0v697h111v-313l-20 -5q13 43 38.5 70t58.5 40t70 13q83 0 129.5 -47.5t46.5 -135.5v-319h-111v278q0 66 -24 97t-74 31q-56 0 -85 -40t-29 -126v-240h-111zM14 558v74h313v-74h-313z" />
    <glyph glyph-name="Itilde" unicode="&#x128;" horiz-adv-x="258" 
d="M71 0v697h116v-697h-116zM193 742q-24 0 -40.5 7t-28 18t-21 21.5t-19 17.5t-22.5 7q-15 0 -24.5 -17t-9.5 -49h-64q0 61 28 94t76 33q20 0 35.5 -7t27.5 -18t22 -21.5t20 -18t21 -7.5q14 0 23.5 18.5t9.5 50.5h67q0 -62 -27 -95.5t-74 -33.5z" />
    <glyph glyph-name="itilde" unicode="&#x129;" horiz-adv-x="239" 
d="M64 0v493h111v-493h-111zM183 559q-29 0 -48 11t-31.5 25t-24.5 25t-27 11t-24.5 -17.5t-9.5 -50.5h-64q0 65 28 101t76 36q25 0 43 -11t31.5 -25.5t25.5 -25.5t26 -11t23.5 18.5t9.5 51.5h67q0 -66 -27 -102t-74 -36z" />
    <glyph glyph-name="Imacron" unicode="&#x12a;" horiz-adv-x="258" 
d="M71 0v697h116v-697h-116zM-7 776v65h274v-65h-274z" />
    <glyph glyph-name="imacron" unicode="&#x12b;" horiz-adv-x="239" 
d="M64 0v493h111v-493h-111zM-18 572v65h274v-65h-274z" />
    <glyph glyph-name="Ibreve" unicode="&#x12c;" horiz-adv-x="258" 
d="M71 0v697h116v-697h-116zM130 739q-80 0 -117.5 34.5t-37.5 97.5h79q0 -34 21.5 -50.5t54.5 -16.5t54.5 17t21.5 50h78q0 -67 -38.5 -99.5t-115.5 -32.5z" />
    <glyph glyph-name="ibreve" unicode="&#x12d;" horiz-adv-x="239" 
d="M64 0v493h111v-493h-111zM120 551q-80 0 -117.5 36t-37.5 110h71q0 -45 23 -63t61 -18q39 0 61 19t22 62h71q0 -77 -38.5 -111.5t-115.5 -34.5z" />
    <glyph glyph-name="Iogonek" unicode="&#x12e;" horiz-adv-x="258" 
d="M71 0v697h116v-697h-116zM121 -204q-43 0 -73.5 24t-30.5 66q0 29 13.5 51.5t32.5 38.5t36 25l88 -1q-12 -5 -29.5 -15t-34.5 -23.5t-28.5 -30.5t-11.5 -35q0 -19 12 -29t29 -10q15 0 32 8t33 24l38 -42q-20 -24 -46.5 -37.5t-59.5 -13.5z" />
    <glyph glyph-name="iogonek" unicode="&#x12f;" horiz-adv-x="239" 
d="M64 0v493h111v-493h-111zM59 574v123h121v-123h-121zM109 -204q-43 0 -73.5 24t-30.5 66q0 29 13.5 51.5t32.5 38.5t36 25l88 -1q-12 -5 -29.5 -15t-34.5 -23.5t-28.5 -30.5t-11.5 -35q0 -19 12 -29t29 -10q15 0 32 8t33 24l38 -42q-20 -24 -46.5 -37.5t-59.5 -13.5z" />
    <glyph glyph-name="Idotaccent" unicode="&#x130;" horiz-adv-x="258" 
d="M71 0v697h116v-697h-116zM69 778v123h121v-123h-121z" />
    <glyph glyph-name="dotlessi" unicode="&#x131;" horiz-adv-x="239" 
d="M64 0v493h111v-493h-111z" />
    <glyph glyph-name="IJ" unicode="&#x132;" horiz-adv-x="812" 
d="M71 0v697h116v-697h-116zM516 -14q-101 0 -164 61t-71 168l114 13q5 -71 35.5 -103t85.5 -32q63 0 89.5 41t26.5 116v344h-266v103h382v-454q0 -79 -28 -137t-80 -89t-124 -31z" />
    <glyph glyph-name="ij" unicode="&#x133;" horiz-adv-x="478" 
d="M64 0v493h111v-493h-111zM59 574v123h121v-123h-121zM299 -213q-19 0 -41.5 4t-43.5 10v96q14 -3 25.5 -5t18.5 -2q22 0 33.5 10.5t11.5 41.5v551h111v-581q0 -65 -32 -95t-83 -30zM298 574v123h121v-123h-121z" />
    <glyph glyph-name="Jcircumflex" unicode="&#x134;" horiz-adv-x="554" 
d="M258 -14q-101 0 -164 61t-71 168l114 13q5 -71 35.5 -103t85.5 -32q63 0 89.5 41t26.5 116v344h-266v103h382v-454q0 -79 -28 -137t-80 -89t-124 -31zM144 747l154 170l155 -170h-89l-66 76l-65 -76h-89z" />
    <glyph glyph-name="jcircumflex" unicode="&#x135;" horiz-adv-x="239" 
d="M60 -213q-19 0 -41.5 4t-43.5 10v96q14 -3 25.5 -5t18.5 -2q22 0 33.5 10.5t11.5 41.5v551h111v-581q0 -65 -32 -95t-83 -30zM-34 543l154 170l155 -170h-89l-66 76l-65 -76h-89z" />
    <glyph glyph-name="uni0136" unicode="&#x136;" horiz-adv-x="653" 
d="M163 214v146l320 337h155zM71 0v697h116v-697h-116zM504 0l-227 359l87 80l276 -439h-136zM199 -204l70 151h117l-122 -151h-65z" />
    <glyph glyph-name="uni0137" unicode="&#x137;" horiz-adv-x="550" 
d="M399 0l-149 235l-84 -93v141l201 210h142l-178 -184l200 -309h-132zM65 0v697h111v-697h-111zM152 -204l70 151h117l-122 -151h-65z" />
    <glyph glyph-name="kgreenlandic" unicode="&#x138;" horiz-adv-x="564" 
d="M399 0l-150 235l-84 -93v141l202 210h141l-178 -184l201 -309h-132zM65 0v493h111v-493h-111z" />
    <glyph glyph-name="Lacute" unicode="&#x139;" horiz-adv-x="501" 
d="M71 0v697h116v-594h301v-103h-417zM89 759l110 142h120l-149 -142h-81z" />
    <glyph glyph-name="lacute" unicode="&#x13a;" horiz-adv-x="261" 
d="M174 -9q-48 0 -80 29.5t-32 94.5v582h111v-560q0 -23 10.5 -33.5t27.5 -10.5q9 0 18.5 2t19.5 5v-94q-19 -8 -39 -11.5t-36 -3.5zM77 759l110 142h120l-149 -142h-81z" />
    <glyph glyph-name="uni013B" unicode="&#x13b;" horiz-adv-x="501" 
d="M71 0v697h116v-594h301v-103h-417zM132 -204l70 151h117l-122 -151h-65z" />
    <glyph glyph-name="uni013C" unicode="&#x13c;" horiz-adv-x="261" 
d="M174 -9q-48 0 -80 29.5t-32 94.5v582h111v-560q0 -23 10.5 -33.5t27.5 -10.5q9 0 18.5 2t19.5 5v-94q-19 -8 -39 -11.5t-36 -3.5zM10 -204l70 151h117l-122 -151h-65z" />
    <glyph glyph-name="Lcaron" unicode="&#x13d;" horiz-adv-x="501" 
d="M71 0v697h116v-594h301v-103h-417zM333 476l56 221h117l-108 -221h-65z" />
    <glyph glyph-name="lcaron" unicode="&#x13e;" horiz-adv-x="348" 
d="M174 -9q-48 0 -80 29.5t-32 94.5v582h111v-560q0 -23 10.5 -33.5t27.5 -10.5q9 0 18.5 2t19.5 5v-94q-19 -8 -39 -11.5t-36 -3.5zM221 476l56 221h117l-108 -221h-65z" />
    <glyph glyph-name="Ldot" unicode="&#x13f;" horiz-adv-x="587" 
d="M71 0v697h116v-594h301v-103h-417zM423 286v126h116v-126h-116z" />
    <glyph glyph-name="ldot" unicode="&#x140;" horiz-adv-x="413" 
d="M174 -9q-48 0 -80 29.5t-32 94.5v582h111v-560q0 -23 10.5 -33.5t27.5 -10.5q9 0 18.5 2t19.5 5v-94q-19 -8 -39 -11.5t-36 -3.5zM263 286v126h116v-126h-116z" />
    <glyph glyph-name="Lslash" unicode="&#x141;" horiz-adv-x="501" 
d="M71 0v697h116v-594h301v-103h-417zM12 165v115l294 232v-113z" />
    <glyph glyph-name="lslash" unicode="&#x142;" horiz-adv-x="261" 
d="M174 -9q-48 0 -80 29.5t-32 94.5v582h111v-560q0 -23 10.5 -33.5t27.5 -10.5q9 0 18.5 2t19.5 5v-94q-19 -8 -39 -11.5t-36 -3.5zM10 223v106l240 182v-105z" />
    <glyph glyph-name="Nacute" unicode="&#x143;" horiz-adv-x="685" 
d="M71 0v697h120l336 -546h-29v546h116v-697h-122l-333 547h28v-547h-116zM299 759l110 142h120l-149 -142h-81z" />
    <glyph glyph-name="nacute" unicode="&#x144;" horiz-adv-x="559" 
d="M65 0v493h111v-109l-20 -5q13 43 38 70t58.5 40t70.5 13q83 0 129.5 -47.5t46.5 -135.5v-319h-111v278q0 66 -24 97t-74 31q-37 0 -62.5 -17.5t-38.5 -54.5t-13 -94v-240h-111zM232 555l110 142h120l-149 -142h-81z" />
    <glyph glyph-name="uni0145" unicode="&#x145;" horiz-adv-x="685" 
d="M71 0v697h120l336 -546h-29v546h116v-697h-122l-333 547h28v-547h-116zM212 -204l70 151h117l-122 -151h-65z" />
    <glyph glyph-name="uni0146" unicode="&#x146;" horiz-adv-x="559" 
d="M65 0v493h111v-109l-20 -5q13 43 38 70t58.5 40t70.5 13q83 0 129.5 -47.5t46.5 -135.5v-319h-111v278q0 66 -24 97t-74 31q-37 0 -62.5 -17.5t-38.5 -54.5t-13 -94v-240h-111zM146 -204l70 151h117l-122 -151h-65z" />
    <glyph glyph-name="Ncaron" unicode="&#x147;" horiz-adv-x="685" 
d="M71 0v697h120l336 -546h-29v546h116v-697h-122l-333 547h28v-547h-116zM340 739l-154 162h86l68 -76l69 76h86z" />
    <glyph glyph-name="ncaron" unicode="&#x148;" horiz-adv-x="559" 
d="M65 0v493h111v-109l-20 -5q13 43 38 70t58.5 40t70.5 13q83 0 129.5 -47.5t46.5 -135.5v-319h-111v278q0 66 -24 97t-74 31q-37 0 -62.5 -17.5t-38.5 -54.5t-13 -94v-240h-111zM272 535l-154 162h86l68 -76l69 76h86z" />
    <glyph glyph-name="napostrophe" unicode="&#x149;" horiz-adv-x="693" 
d="M0 417l72 280h129l-128 -280h-73zM189 0v493h111v-109l-20 -5q13 43 38 70t58.5 40t70.5 13q83 0 129.5 -47.5t46.5 -135.5v-319h-111v278q0 66 -24 97t-74 31q-37 0 -62.5 -17.5t-38.5 -54.5t-13 -94v-240h-111z" />
    <glyph glyph-name="Eng" unicode="&#x14a;" horiz-adv-x="685" 
d="M447 -181q-16 0 -33.5 2t-37.5 5l1 74q9 -2 20 -3t19 -1q45 0 66 20t21 46q0 11 -2 20t-9 18l-331 535h26v-535h-116v697h120l332 -533h-25v533h116v-699q0 -46 -16.5 -87t-52.5 -66.5t-98 -25.5z" />
    <glyph glyph-name="eng" unicode="&#x14b;" horiz-adv-x="611" 
d="M417 -213q-18 0 -37 3.5t-40 10.5v89q13 -4 23 -5.5t16 -1.5q18 0 27.5 9.5t9.5 34.5v370q0 13 -3 31.5t-12.5 36.5t-29.5 29.5t-55 11.5q-43 0 -66 -18.5t-32.5 -47.5t-11.5 -61.5t-2 -61.5v-217h-111v493h111v-128l-22 24q21 61 66 87t103 26q81 0 129 -45t48 -129
v-416q0 -65 -31 -95t-80 -30z" />
    <glyph glyph-name="Omacron" unicode="&#x14c;" horiz-adv-x="748" 
d="M372 -14q-98 0 -172 45t-115.5 127t-41.5 190q0 109 41.5 191t115.5 127t172 45q100 0 174.5 -45t116 -126.5t41.5 -191.5q0 -109 -42 -190.5t-116.5 -126.5t-173.5 -45zM372 96q67 0 115 31t74.5 87.5t26.5 133.5q0 78 -26.5 134.5t-74.5 87.5t-115 31q-65 0 -113 -30.5
t-74.5 -87t-26.5 -135.5q0 -78 26 -134.5t74.5 -87t113.5 -30.5zM236 776v65h274v-65h-274z" />
    <glyph glyph-name="omacron" unicode="&#x14d;" horiz-adv-x="574" 
d="M287 -9q-70 0 -126 33t-87.5 91t-31.5 132t31.5 132t87 90.5t126.5 32.5q72 0 126.5 -32.5t86.5 -90.5t32 -132t-31.5 -132t-87 -91t-126.5 -33zM288 89q41 0 71 19t46 55t16 84q0 49 -16 84.5t-46 54.5t-71 19q-43 0 -73 -19.5t-46 -54.5t-16 -84q0 -48 16 -84t46 -55
t73 -19zM150 572v65h274v-65h-274z" />
    <glyph glyph-name="Obreve" unicode="&#x14e;" horiz-adv-x="748" 
d="M372 -14q-98 0 -172 45t-115.5 127t-41.5 190q0 109 41.5 191t115.5 127t172 45q100 0 174.5 -45t116 -126.5t41.5 -191.5q0 -109 -42 -190.5t-116.5 -126.5t-173.5 -45zM372 96q67 0 115 31t74.5 87.5t26.5 133.5q0 78 -26.5 134.5t-74.5 87.5t-115 31q-65 0 -113 -30.5
t-74.5 -87t-26.5 -135.5q0 -78 26 -134.5t74.5 -87t113.5 -30.5zM373 739q-80 0 -117.5 34.5t-37.5 97.5h79q0 -34 21.5 -50.5t54.5 -16.5t54.5 17t21.5 50h78q0 -67 -38.5 -99.5t-115.5 -32.5z" />
    <glyph glyph-name="obreve" unicode="&#x14f;" horiz-adv-x="574" 
d="M287 -9q-70 0 -126 33t-87.5 91t-31.5 132t31.5 132t87 90.5t126.5 32.5q72 0 126.5 -32.5t86.5 -90.5t32 -132t-31.5 -132t-87 -91t-126.5 -33zM288 89q41 0 71 19t46 55t16 84q0 49 -16 84.5t-46 54.5t-71 19q-43 0 -73 -19.5t-46 -54.5t-16 -84q0 -48 16 -84t46 -55
t73 -19zM288 551q-80 0 -117.5 36t-37.5 110h71q0 -45 23 -63t61 -18q39 0 61 19t22 62h71q0 -77 -38.5 -111.5t-115.5 -34.5z" />
    <glyph glyph-name="Ohungarumlaut" unicode="&#x150;" horiz-adv-x="748" 
d="M372 -14q-98 0 -172 45t-115.5 127t-41.5 190q0 109 41.5 191t115.5 127t172 45q100 0 174.5 -45t116 -126.5t41.5 -191.5q0 -109 -42 -190.5t-116.5 -126.5t-173.5 -45zM372 96q67 0 115 31t74.5 87.5t26.5 133.5q0 78 -26.5 134.5t-74.5 87.5t-115 31q-65 0 -113 -30.5
t-74.5 -87t-26.5 -135.5q0 -78 26 -134.5t74.5 -87t113.5 -30.5zM425 740l112 161h118l-148 -161h-82zM238 740l110 161h101l-130 -161h-81z" />
    <glyph glyph-name="ohungarumlaut" unicode="&#x151;" horiz-adv-x="574" 
d="M287 -9q-70 0 -126 33t-87.5 91t-31.5 132t31.5 132t87 90.5t126.5 32.5q72 0 126.5 -32.5t86.5 -90.5t32 -132t-31.5 -132t-87 -91t-126.5 -33zM288 89q41 0 71 19t46 55t16 84q0 49 -16 84.5t-46 54.5t-71 19q-43 0 -73 -19.5t-46 -54.5t-16 -84q0 -48 16 -84t46 -55
t73 -19zM340 536l112 161h118l-148 -161h-82zM153 536l110 161h101l-130 -161h-81z" />
    <glyph glyph-name="OE" unicode="&#x152;" horiz-adv-x="998" 
d="M405 0q-175 0 -268.5 88.5t-93.5 254.5q0 169 94.5 261.5t266.5 92.5h547v-103h-347v-185h321v-104h-321v-202h347v-103h-546zM417 106h72v485h-82q-77 0 -133 -23.5t-85.5 -77t-29.5 -143.5t30.5 -143t88 -75.5t139.5 -22.5z" />
    <glyph glyph-name="oe" unicode="&#x153;" horiz-adv-x="919" 
d="M659 -9q-62 0 -107.5 20t-74.5 56t-43 81.5t-14 94.5t13.5 95.5t41.5 83.5t72 58.5t104 21.5q57 0 99.5 -19.5t70.5 -54t41.5 -78.5t13.5 -94q0 -7 -0.5 -20t-2.5 -26h-342q4 -59 40 -90t92 -31q41 0 75 13t62 41l61 -74q-31 -28 -62 -45t-64.5 -25t-75.5 -8zM767 266
q2 8 2.5 16t0.5 16q0 22 -7.5 42t-22.5 35.5t-37 25t-50 9.5q-39 0 -65.5 -17t-41 -43.5t-17.5 -57.5h274zM287 -9q-70 0 -126 33t-87.5 91t-31.5 132t31.5 132t87 90.5t126.5 32.5q72 0 126.5 -32.5t86.5 -90.5t32 -132t-31.5 -132t-87 -91t-126.5 -33zM288 89q41 0 71 19
t46 55t16 84q0 49 -16 84.5t-46 54.5t-71 19q-43 0 -73 -19.5t-46 -54.5t-16 -84q0 -48 16 -84t46 -55t73 -19z" />
    <glyph glyph-name="Racute" unicode="&#x154;" horiz-adv-x="607" 
d="M71 0v697h223q83 0 135 -24.5t76.5 -69.5t24.5 -106q0 -93 -53.5 -144.5t-152.5 -59.5h-43h-41h-53v-293h-116zM453 0l-177 306l119 14l192 -320h-134zM187 395h95q38 0 67.5 9t47 31t17.5 61t-17.5 60t-47.5 29.5t-67 8.5h-95v-199zM249 759l110 142h120l-149 -142h-81z
" />
    <glyph glyph-name="racute" unicode="&#x155;" horiz-adv-x="420" 
d="M65 0v493h112v-133l-21 -3q5 43 29 75.5t58.5 51t68.5 18.5q24 0 46 -6t46 -20l-54 -100q-11 7 -28.5 11.5t-33.5 4.5q-21 0 -41.5 -8t-36.5 -24.5t-24 -42.5q-5 -14 -7.5 -36.5t-2.5 -62.5v-218h-111zM153 555l110 142h120l-149 -142h-81z" />
    <glyph glyph-name="uni0156" unicode="&#x156;" horiz-adv-x="607" 
d="M71 0v697h223q83 0 135 -24.5t76.5 -69.5t24.5 -106q0 -93 -53.5 -144.5t-152.5 -59.5h-43h-41h-53v-293h-116zM453 0l-177 306l119 14l192 -320h-134zM187 395h95q38 0 67.5 9t47 31t17.5 61t-17.5 60t-47.5 29.5t-67 8.5h-95v-199zM162 -204l70 151h117l-122 -151h-65z
" />
    <glyph glyph-name="uni0157" unicode="&#x157;" horiz-adv-x="420" 
d="M65 0v493h112v-133l-21 -3q5 43 29 75.5t58.5 51t68.5 18.5q24 0 46 -6t46 -20l-54 -100q-11 7 -28.5 11.5t-33.5 4.5q-21 0 -41.5 -8t-36.5 -24.5t-24 -42.5q-5 -14 -7.5 -36.5t-2.5 -62.5v-218h-111zM65 -204l70 151h117l-122 -151h-65z" />
    <glyph glyph-name="Rcaron" unicode="&#x158;" horiz-adv-x="607" 
d="M71 0v697h223q83 0 135 -24.5t76.5 -69.5t24.5 -106q0 -93 -53.5 -144.5t-152.5 -59.5h-43h-41h-53v-293h-116zM453 0l-177 306l119 14l192 -320h-134zM187 395h95q38 0 67.5 9t47 31t17.5 61t-17.5 60t-47.5 29.5t-67 8.5h-95v-199zM290 739l-154 162h86l68 -76l69 76
h86z" />
    <glyph glyph-name="rcaron" unicode="&#x159;" horiz-adv-x="420" 
d="M65 0v493h112v-133l-21 -3q5 43 29 75.5t58.5 51t68.5 18.5q24 0 46 -6t46 -20l-54 -100q-11 7 -28.5 11.5t-33.5 4.5q-21 0 -41.5 -8t-36.5 -24.5t-24 -42.5q-5 -14 -7.5 -36.5t-2.5 -62.5v-218h-111zM194 535l-154 162h86l68 -76l69 76h86z" />
    <glyph glyph-name="Sacute" unicode="&#x15a;" horiz-adv-x="572" 
d="M296 -13q-110 0 -179.5 57t-85.5 152l113 28q11 -66 52.5 -100t102.5 -34q34 0 61 12.5t42.5 35.5t15.5 52q0 31 -17 51.5t-49 37t-78 34.5q-63 24 -107 52t-67 66.5t-23 91.5q0 55 27 97.5t76 66.5t113 24q69 0 122 -31t85 -94l-92 -56q-21 38 -51 58.5t-68 20.5
q-27 0 -49 -10.5t-34.5 -29.5t-12.5 -44q0 -26 15 -45.5t46.5 -35.5t80.5 -35q63 -24 107 -52t67.5 -66.5t23.5 -93.5q0 -61 -30 -108t-83.5 -74.5t-123.5 -27.5zM245 759l110 142h120l-149 -142h-81z" />
    <glyph glyph-name="sacute" unicode="&#x15b;" horiz-adv-x="471" 
d="M233 -9q-53 0 -94 15.5t-69 39.5t-46 48l76 66q19 -31 52.5 -55t81.5 -24q40 0 63.5 17t23.5 42q0 22 -15 34.5t-39 21.5t-53 16q-28 7 -57 17.5t-53.5 26.5t-39.5 41t-15 62q0 65 50 104t131 39q58 0 106 -23t75 -69l-69 -53q-20 30 -50 45t-65 15q-32 0 -53.5 -13
t-21.5 -34q0 -16 10 -26t31 -18t53 -16q30 -7 62 -17t59.5 -26.5t45 -44t17.5 -70.5q0 -48 -24.5 -84.5t-69 -56.5t-103.5 -20zM193 555l110 142h120l-149 -142h-81z" />
    <glyph glyph-name="Scircumflex" unicode="&#x15c;" horiz-adv-x="572" 
d="M296 -13q-110 0 -179.5 57t-85.5 152l113 28q11 -66 52.5 -100t102.5 -34q34 0 61 12.5t42.5 35.5t15.5 52q0 31 -17 51.5t-49 37t-78 34.5q-63 24 -107 52t-67 66.5t-23 91.5q0 55 27 97.5t76 66.5t113 24q69 0 122 -31t85 -94l-92 -56q-21 38 -51 58.5t-68 20.5
q-27 0 -49 -10.5t-34.5 -29.5t-12.5 -44q0 -26 15 -45.5t46.5 -35.5t80.5 -35q63 -24 107 -52t67.5 -66.5t23.5 -93.5q0 -61 -30 -108t-83.5 -74.5t-123.5 -27.5zM131 747l154 170l155 -170h-90l-65 76l-64 -76h-90z" />
    <glyph glyph-name="scircumflex" unicode="&#x15d;" horiz-adv-x="471" 
d="M233 -9q-53 0 -94 15.5t-69 39.5t-46 48l76 66q19 -31 52.5 -55t81.5 -24q40 0 63.5 17t23.5 42q0 22 -15 34.5t-39 21.5t-53 16q-28 7 -57 17.5t-53.5 26.5t-39.5 41t-15 62q0 65 50 104t131 39q58 0 106 -23t75 -69l-69 -53q-20 30 -50 45t-65 15q-32 0 -53.5 -13
t-21.5 -34q0 -16 10 -26t31 -18t53 -16q30 -7 62 -17t59.5 -26.5t45 -44t17.5 -70.5q0 -48 -24.5 -84.5t-69 -56.5t-103.5 -20zM80 543l154 170l155 -170h-89l-66 76l-65 -76h-89z" />
    <glyph glyph-name="Scedilla" unicode="&#x15e;" horiz-adv-x="572" 
d="M296 -13q-110 0 -179.5 57t-85.5 152l113 28q11 -66 52.5 -100t102.5 -34q34 0 61 12.5t42.5 35.5t15.5 52q0 31 -17 51.5t-49 37t-78 34.5q-63 24 -107 52t-67 66.5t-23 91.5q0 55 27 97.5t76 66.5t113 24q69 0 122 -31t85 -94l-92 -56q-21 38 -51 58.5t-68 20.5
q-27 0 -49 -10.5t-34.5 -29.5t-12.5 -44q0 -26 15 -45.5t46.5 -35.5t80.5 -35q63 -24 107 -52t67.5 -66.5t23.5 -93.5q0 -61 -30 -108t-83.5 -74.5t-123.5 -27.5zM265 -204q-13 0 -30.5 2.5t-34 9t-28.5 16.5l30 45q14 -9 29.5 -14t30.5 -5q17 0 30.5 8t13.5 24q0 14 -10 22
t-26.5 12t-35.5 6t-37 2l62 86h57l-40 -49q41 -7 68 -25.5t27 -52.5q0 -40 -30.5 -63.5t-75.5 -23.5z" />
    <glyph glyph-name="scedilla" unicode="&#x15f;" horiz-adv-x="471" 
d="M233 -9q-53 0 -94 15.5t-69 39.5t-46 48l76 66q19 -31 52.5 -55t81.5 -24q40 0 63.5 17t23.5 42q0 22 -15 34.5t-39 21.5t-53 16q-28 7 -57 17.5t-53.5 26.5t-39.5 41t-15 62q0 65 50 104t131 39q58 0 106 -23t75 -69l-69 -53q-20 30 -50 45t-65 15q-32 0 -53.5 -13
t-21.5 -34q0 -16 10 -26t31 -18t53 -16q30 -7 62 -17t59.5 -26.5t45 -44t17.5 -70.5q0 -48 -24.5 -84.5t-69 -56.5t-103.5 -20zM213 -204q-13 0 -30.5 2.5t-34 9t-28.5 16.5l30 45q14 -9 29.5 -14t30.5 -5q17 0 30.5 8t13.5 24q0 14 -10 22t-26.5 12t-35.5 6t-37 2l62 86h57
l-40 -49q41 -7 68 -25.5t27 -52.5q0 -40 -30.5 -63.5t-75.5 -23.5z" />
    <glyph glyph-name="Scaron" unicode="&#x160;" horiz-adv-x="572" 
d="M296 -13q-110 0 -179.5 57t-85.5 152l113 28q11 -66 52.5 -100t102.5 -34q34 0 61 12.5t42.5 35.5t15.5 52q0 31 -17 51.5t-49 37t-78 34.5q-63 24 -107 52t-67 66.5t-23 91.5q0 55 27 97.5t76 66.5t113 24q69 0 122 -31t85 -94l-92 -56q-21 38 -51 58.5t-68 20.5
q-27 0 -49 -10.5t-34.5 -29.5t-12.5 -44q0 -26 15 -45.5t46.5 -35.5t80.5 -35q63 -24 107 -52t67.5 -66.5t23.5 -93.5q0 -61 -30 -108t-83.5 -74.5t-123.5 -27.5zM285 739l-154 162h86l68 -76l69 76h86z" />
    <glyph glyph-name="scaron" unicode="&#x161;" horiz-adv-x="471" 
d="M233 -9q-53 0 -94 15.5t-69 39.5t-46 48l76 66q19 -31 52.5 -55t81.5 -24q40 0 63.5 17t23.5 42q0 22 -15 34.5t-39 21.5t-53 16q-28 7 -57 17.5t-53.5 26.5t-39.5 41t-15 62q0 65 50 104t131 39q58 0 106 -23t75 -69l-69 -53q-20 30 -50 45t-65 15q-32 0 -53.5 -13
t-21.5 -34q0 -16 10 -26t31 -18t53 -16q30 -7 62 -17t59.5 -26.5t45 -44t17.5 -70.5q0 -48 -24.5 -84.5t-69 -56.5t-103.5 -20zM234 535l-154 162h86l68 -76l69 76h86z" />
    <glyph glyph-name="uni0162" unicode="&#x162;" horiz-adv-x="585" 
d="M234 0v594h-222v103h560v-103h-221v-594h-117zM271 -204q-13 0 -30.5 2.5t-34 9t-28.5 16.5l30 45q14 -9 29.5 -14t30.5 -5q17 0 30.5 8t13.5 24q0 14 -10 22t-26.5 12t-35.5 6t-37 2l62 86h57l-40 -49q41 -7 68 -25.5t27 -52.5q0 -40 -30.5 -63.5t-75.5 -23.5z" />
    <glyph glyph-name="uni0163" unicode="&#x163;" horiz-adv-x="342" 
d="M244 -9q-37 0 -69.5 14.5t-51.5 47t-19 85.5v475l112 62v-506q0 -42 12.5 -64.5t45.5 -22.5q10 0 23.5 2.5t28.5 6.5v-86q-20 -7 -40.5 -10.5t-41.5 -3.5zM10 407v86h316v-86h-316zM191 -204q-13 0 -30.5 2.5t-34 9t-28.5 16.5l30 45q14 -9 29.5 -14t30.5 -5q17 0 30.5 8
t13.5 24q0 14 -10 22t-26.5 12t-35.5 6t-37 2l62 86h57l-40 -49q41 -7 68 -25.5t27 -52.5q0 -40 -30.5 -63.5t-75.5 -23.5z" />
    <glyph glyph-name="Tcaron" unicode="&#x164;" horiz-adv-x="585" 
d="M234 0v594h-222v103h560v-103h-221v-594h-117zM292 739l-154 162h86l68 -76l69 76h86z" />
    <glyph glyph-name="tcaron" unicode="&#x165;" horiz-adv-x="473" 
d="M244 -9q-37 0 -69.5 14.5t-51.5 47t-19 85.5v475l112 62v-506q0 -42 12.5 -64.5t45.5 -22.5q10 0 23.5 2.5t28.5 6.5v-86q-20 -7 -40.5 -10.5t-41.5 -3.5zM10 407v86h316v-86h-316zM270 540l56 221h117l-108 -221h-65z" />
    <glyph glyph-name="Tbar" unicode="&#x166;" horiz-adv-x="585" 
d="M234 0v594h-222v103h560v-103h-221v-594h-117zM135 312v74h313v-74h-313z" />
    <glyph glyph-name="tbar" unicode="&#x167;" horiz-adv-x="379" 
d="M256 -9q-38 0 -70 14.5t-51 47t-19 85.5v475l112 62v-506q0 -42 12.5 -64.5t45.5 -22.5q10 0 23.5 2.5t28.5 6.5v-86q-20 -7 -40.5 -10.5t-41.5 -3.5zM22 211v74h316v-74h-316zM22 407v86h316v-86h-316z" />
    <glyph glyph-name="Utilde" unicode="&#x168;" horiz-adv-x="657" 
d="M328 -14q-129 0 -196.5 67t-67.5 199v445h116v-432q0 -57 13.5 -95.5t46 -58t88.5 -19.5t88.5 20t46.5 58t14 95v432h115v-440q0 -135 -67 -203t-197 -68zM392 742q-24 0 -40.5 7t-28 18t-21 21.5t-19 17.5t-22.5 7q-15 0 -24.5 -17t-9.5 -49h-64q0 61 28 94t76 33
q20 0 35.5 -7t27.5 -18t22 -21.5t20 -18t21 -7.5q14 0 23.5 18.5t9.5 50.5h67q0 -62 -27 -95.5t-74 -33.5z" />
    <glyph glyph-name="utilde" unicode="&#x169;" horiz-adv-x="559" 
d="M236 -9q-58 0 -97.5 23t-59.5 66t-20 104v309h111v-279q0 -39 9.5 -67.5t31 -43.5t58.5 -15q43 0 67.5 22.5t35 66t10.5 104.5v212h111v-493h-111v106l19 -7q-23 -56 -66.5 -82t-98.5 -26zM338 559q-29 0 -48 11t-31.5 25t-24.5 25t-27 11t-24.5 -17.5t-9.5 -50.5h-64
q0 65 28 101t76 36q25 0 43 -11t31.5 -25.5t25.5 -25.5t26 -11t23.5 18.5t9.5 51.5h67q0 -66 -27 -102t-74 -36z" />
    <glyph glyph-name="Umacron" unicode="&#x16a;" horiz-adv-x="657" 
d="M328 -14q-129 0 -196.5 67t-67.5 199v445h116v-432q0 -57 13.5 -95.5t46 -58t88.5 -19.5t88.5 20t46.5 58t14 95v432h115v-440q0 -135 -67 -203t-197 -68zM192 776v65h274v-65h-274z" />
    <glyph glyph-name="umacron" unicode="&#x16b;" horiz-adv-x="559" 
d="M236 -9q-58 0 -97.5 23t-59.5 66t-20 104v309h111v-279q0 -39 9.5 -67.5t31 -43.5t58.5 -15q43 0 67.5 22.5t35 66t10.5 104.5v212h111v-493h-111v106l19 -7q-23 -56 -66.5 -82t-98.5 -26zM138 572v65h274v-65h-274z" />
    <glyph glyph-name="Ubreve" unicode="&#x16c;" horiz-adv-x="657" 
d="M328 -14q-129 0 -196.5 67t-67.5 199v445h116v-432q0 -57 13.5 -95.5t46 -58t88.5 -19.5t88.5 20t46.5 58t14 95v432h115v-440q0 -135 -67 -203t-197 -68zM329 739q-80 0 -117.5 34.5t-37.5 97.5h79q0 -34 21.5 -50.5t54.5 -16.5t54.5 17t21.5 50h78q0 -67 -38.5 -99.5
t-115.5 -32.5z" />
    <glyph glyph-name="ubreve" unicode="&#x16d;" horiz-adv-x="559" 
d="M236 -9q-58 0 -97.5 23t-59.5 66t-20 104v309h111v-279q0 -39 9.5 -67.5t31 -43.5t58.5 -15q43 0 67.5 22.5t35 66t10.5 104.5v212h111v-493h-111v106l19 -7q-23 -56 -66.5 -82t-98.5 -26zM275 551q-80 0 -117.5 36t-37.5 110h71q0 -45 23 -63t61 -18q39 0 61 19t22 62
h71q0 -77 -38.5 -111.5t-115.5 -34.5z" />
    <glyph glyph-name="Uring" unicode="&#x16e;" horiz-adv-x="657" 
d="M328 -14q-129 0 -196.5 67t-67.5 199v445h116v-432q0 -57 13.5 -95.5t46 -58t88.5 -19.5t88.5 20t46.5 58t14 95v432h115v-440q0 -135 -67 -203t-197 -68zM329 678q-32 0 -57 15t-39.5 40.5t-14.5 54.5q0 31 14.5 56t40 40t56.5 15q30 0 55 -15t40 -40t15 -55
q0 -31 -15 -56.5t-40 -40t-55 -14.5zM329 738q21 0 35.5 14.5t14.5 36.5t-13.5 36t-36.5 14t-37 -14.5t-14 -35.5q0 -22 14.5 -36.5t36.5 -14.5z" />
    <glyph glyph-name="uring" unicode="&#x16f;" horiz-adv-x="559" 
d="M236 -9q-58 0 -97.5 23t-59.5 66t-20 104v309h111v-279q0 -39 9.5 -67.5t31 -43.5t58.5 -15q43 0 67.5 22.5t35 66t10.5 104.5v212h111v-493h-111v106l19 -7q-23 -56 -66.5 -82t-98.5 -26zM275 530q-32 0 -57 15t-39.5 40.5t-14.5 54.5q0 31 14.5 56t40 40t56.5 15
q30 0 55 -15t40 -40t15 -55q0 -31 -15 -56.5t-40 -40t-55 -14.5zM275 590q21 0 35.5 14.5t14.5 36.5t-13.5 36t-36.5 14t-37 -14.5t-14 -35.5q0 -22 14.5 -36.5t36.5 -14.5z" />
    <glyph glyph-name="Uhungarumlaut" unicode="&#x170;" horiz-adv-x="657" 
d="M328 -14q-129 0 -196.5 67t-67.5 199v445h116v-432q0 -57 13.5 -95.5t46 -58t88.5 -19.5t88.5 20t46.5 58t14 95v432h115v-440q0 -135 -67 -203t-197 -68zM381 740l112 161h118l-148 -161h-82zM194 740l110 161h101l-130 -161h-81z" />
    <glyph glyph-name="uhungarumlaut" unicode="&#x171;" horiz-adv-x="559" 
d="M236 -9q-58 0 -97.5 23t-59.5 66t-20 104v309h111v-279q0 -39 9.5 -67.5t31 -43.5t58.5 -15q43 0 67.5 22.5t35 66t10.5 104.5v212h111v-493h-111v106l19 -7q-23 -56 -66.5 -82t-98.5 -26zM327 536l112 161h118l-148 -161h-82zM140 536l110 161h101l-130 -161h-81z" />
    <glyph glyph-name="Uogonek" unicode="&#x172;" horiz-adv-x="657" 
d="M328 -14q-129 0 -196.5 67t-67.5 199v445h116v-432q0 -57 13.5 -95.5t46 -58t88.5 -19.5t88.5 20t46.5 58t14 95v432h115v-440q0 -135 -67 -203t-197 -68zM346 -204q-43 0 -73.5 24t-30.5 66q0 29 13.5 51.5t32.5 38.5t36 25l88 -1q-12 -5 -29.5 -15t-34.5 -23.5
t-28.5 -30.5t-11.5 -35q0 -19 12 -29t29 -10q15 0 32 8t33 24l38 -42q-20 -24 -46.5 -37.5t-59.5 -13.5z" />
    <glyph glyph-name="uogonek" unicode="&#x173;" horiz-adv-x="559" 
d="M236 -9q-58 0 -97.5 23t-59.5 66t-20 104v309h111v-279q0 -39 9.5 -67.5t31 -43.5t58.5 -15q43 0 67.5 22.5t35 66t10.5 104.5v212h111v-493h-111v106l19 -7q-23 -56 -66.5 -82t-98.5 -26zM426 -204q-43 0 -73.5 24t-30.5 66q0 29 13.5 51.5t32.5 38.5t36 25l88 -1
q-12 -5 -29.5 -15t-34.5 -23.5t-28.5 -30.5t-11.5 -35q0 -19 12 -29t29 -10q15 0 32 8t33 24l38 -42q-20 -24 -46.5 -37.5t-59.5 -13.5z" />
    <glyph glyph-name="Wcircumflex" unicode="&#x174;" horiz-adv-x="972" 
d="M224 0l-207 697h120l151 -520l141 480h114l142 -480l149 520h121l-207 -697h-113l-158 520h19l-159 -520h-113zM332 747l154 170l155 -170h-90l-65 76l-64 -76h-90z" />
    <glyph glyph-name="wcircumflex" unicode="&#x175;" horiz-adv-x="752" 
d="M172 0l-150 493h118l88 -323l100 323h95l100 -321l89 321h118l-151 -493h-100l-103 336l-103 -336h-101zM222 543l154 170l155 -170h-89l-66 76l-65 -76h-89z" />
    <glyph glyph-name="Ycircumflex" unicode="&#x176;" horiz-adv-x="617" 
d="M252 0v271l-246 426h132l169 -310l172 310h131l-242 -426v-271h-116zM155 747l154 170l155 -170h-90l-65 76l-64 -76h-90z" />
    <glyph glyph-name="ycircumflex" unicode="&#x177;" horiz-adv-x="530" 
d="M108 -203l98 236l-188 460h122l125 -349l127 349h120l-284 -696h-120zM111 543l154 170l155 -170h-89l-66 76l-65 -76h-89z" />
    <glyph glyph-name="Ydieresis" unicode="&#x178;" horiz-adv-x="617" 
d="M252 0v271l-246 426h132l169 -310l172 310h131l-242 -426v-271h-116zM345 778v123h122v-123h-122zM153 778v123h121v-123h-121z" />
    <glyph glyph-name="Zacute" unicode="&#x179;" horiz-adv-x="598" 
d="M29 0v96l409 534l17 -36h-402v103h502v-96l-400 -520l-15 22h427v-103h-538zM260 759l110 142h120l-149 -142h-81z" />
    <glyph glyph-name="zacute" unicode="&#x17a;" horiz-adv-x="471" 
d="M35 0v75l287 355l8 -28h-283v91h385v-80l-283 -357l-8 36h290v-92h-396zM196 555l110 142h120l-149 -142h-81z" />
    <glyph glyph-name="Zdotaccent" unicode="&#x17b;" horiz-adv-x="598" 
d="M29 0v96l409 534l17 -36h-402v103h502v-96l-400 -520l-15 22h427v-103h-538zM241 778v123h121v-123h-121z" />
    <glyph glyph-name="zdotaccent" unicode="&#x17c;" horiz-adv-x="471" 
d="M35 0v75l287 355l8 -28h-283v91h385v-80l-283 -357l-8 36h290v-92h-396zM176 574v123h121v-123h-121z" />
    <glyph glyph-name="Zcaron" unicode="&#x17d;" horiz-adv-x="598" 
d="M29 0v96l409 534l17 -36h-402v103h502v-96l-400 -520l-15 22h427v-103h-538zM301 739l-154 162h86l68 -76l69 76h86z" />
    <glyph glyph-name="zcaron" unicode="&#x17e;" horiz-adv-x="471" 
d="M35 0v75l287 355l8 -28h-283v91h385v-80l-283 -357l-8 36h290v-92h-396zM236 535l-154 162h86l68 -76l69 76h86z" />
    <glyph glyph-name="uni018F" unicode="&#x18f;" horiz-adv-x="756" 
d="M378 -14q-102 0 -177.5 44.5t-116.5 126.5t-41 194h115q0 -122 58 -188.5t162 -66.5t161.5 66.5t57.5 188.5q0 121 -57.5 186t-161.5 65q-73 0 -124 -32.5t-76 -100.5l-106 42q37 97 115 149.5t191 52.5q102 0 177 -44.5t116 -126t41 -193.5q0 -111 -41 -192.5t-116 -126
t-177 -44.5zM102 262v89h581v-89h-581z" />
    <glyph glyph-name="florin" unicode="&#x192;" horiz-adv-x="560" 
d="M86 -217v85q49 0 77 12.5t40 43.5t12 84v402h-86v83h86v63q0 68 36.5 112.5t101.5 44.5q40 0 72 -13t56 -38l-60 -71q-14 15 -28.5 22t-27.5 7q-27 0 -41.5 -18.5t-14.5 -53.5v-55h117v-83h-117v-411q0 -113 -58 -164.5t-165 -51.5z" />
    <glyph glyph-name="uni019D" unicode="&#x19d;" horiz-adv-x="685" 
d="M71 0v697h120l332 -533h-25v533h116v-697h-122l-331 535h26v-535h-116zM-8 -181v77q30 0 47.5 11t24.5 27.5t7 33.5v15.5v16.5h116v-27q0 -40 -19.5 -75t-62 -57t-113.5 -22z" />
    <glyph glyph-name="Ohorn" unicode="&#x1a0;" horiz-adv-x="748" 
d="M372 -14q-98 0 -172 45t-115.5 127t-41.5 190q0 109 41.5 191t115.5 127t172 45q100 0 174.5 -45t116 -126.5t41.5 -191.5q0 -109 -42 -190.5t-116.5 -126.5t-173.5 -45zM372 96q67 0 115 31t74.5 87.5t26.5 133.5q0 78 -26.5 134.5t-74.5 87.5t-115 31q-65 0 -113 -30.5
t-74.5 -87t-26.5 -135.5q0 -78 26 -134.5t74.5 -87t113.5 -30.5zM591 494v73q42 0 58.5 25t16.5 71v34h78v-41q0 -45 -15.5 -81.5t-49 -58.5t-88.5 -22z" />
    <glyph glyph-name="ohorn" unicode="&#x1a1;" horiz-adv-x="574" 
d="M287 -9q-70 0 -126 33t-87.5 91t-31.5 132t31.5 132t87 90.5t126.5 32.5q72 0 126.5 -32.5t86.5 -90.5t32 -132t-31.5 -132t-87 -91t-126.5 -33zM288 89q41 0 71 19t46 55t16 84q0 49 -16 84.5t-46 54.5t-71 19q-43 0 -73 -19.5t-46 -54.5t-16 -84q0 -48 16 -84t46 -55
t73 -19zM435 346v73q42 0 58.5 25t16.5 71v34h78v-41q0 -45 -15.5 -81.5t-49 -58.5t-88.5 -22z" />
    <glyph glyph-name="Uhorn" unicode="&#x1af;" horiz-adv-x="761" 
d="M328 -14q-129 0 -196.5 67t-67.5 199v445h116v-432q0 -57 13.5 -95.5t46 -58t88.5 -19.5t88.5 20t46.5 58t14 95v432h115v-440q0 -135 -67 -203t-197 -68zM578 494v73q42 0 58.5 25t16.5 71v34h78v-41q0 -45 -15.5 -81.5t-49 -58.5t-88.5 -22z" />
    <glyph glyph-name="uhorn" unicode="&#x1b0;" horiz-adv-x="559" 
d="M236 -9q-58 0 -97.5 23t-59.5 66t-20 104v309h111v-279q0 -39 9.5 -67.5t31 -43.5t58.5 -15q43 0 67.5 22.5t35 66t10.5 104.5v212h111v-493h-111v106l19 -7q-23 -56 -66.5 -82t-98.5 -26zM419 420v73q42 0 58.5 25t16.5 71v34h78v-41q0 -45 -15.5 -81.5t-49 -58.5
t-88.5 -22z" />
    <glyph glyph-name="uni01CD" unicode="&#x1cd;" horiz-adv-x="661" 
d="M11 0l276 697h88l275 -697h-126l-193 528l-193 -528h-127zM183 146l36 103h223l38 -103h-297zM331 739l-154 162h86l68 -76l69 76h86z" />
    <glyph glyph-name="uni01CE" unicode="&#x1ce;" horiz-adv-x="544" 
d="M383 0l-8 83v228q0 48 -29 72.5t-81 24.5q-40 0 -78.5 -15.5t-70.5 -47.5l-62 73q48 45 102 64.5t118 19.5q100 0 155.5 -50.5t55.5 -140.5v-311h-102zM230 -9q-55 0 -97.5 20t-66 56t-23.5 84q0 41 17.5 71t45.5 47q24 15 56 21.5t67 6.5h155v-83h-139q-18 0 -36 -3.5
t-32 -12.5q-10 -8 -16.5 -20t-6.5 -28q0 -32 24.5 -50.5t65.5 -18.5q36 0 65.5 16t47.5 44t18 63l34 -55q-12 -52 -38 -87.5t-62 -53t-79 -17.5zM274 535l-154 162h86l68 -76l69 76h86z" />
    <glyph glyph-name="uni01CF" unicode="&#x1cf;" horiz-adv-x="258" 
d="M71 0v697h116v-697h-116zM129 739l-154 162h86l68 -76l69 76h86z" />
    <glyph glyph-name="uni01D0" unicode="&#x1d0;" horiz-adv-x="239" 
d="M64 0v493h111v-493h-111zM119 535l-154 162h86l68 -76l69 76h86z" />
    <glyph glyph-name="uni01D1" unicode="&#x1d1;" horiz-adv-x="748" 
d="M372 -14q-98 0 -172 45t-115.5 127t-41.5 190q0 109 41.5 191t115.5 127t172 45q100 0 174.5 -45t116 -126.5t41.5 -191.5q0 -109 -42 -190.5t-116.5 -126.5t-173.5 -45zM372 96q67 0 115 31t74.5 87.5t26.5 133.5q0 78 -26.5 134.5t-74.5 87.5t-115 31q-65 0 -113 -30.5
t-74.5 -87t-26.5 -135.5q0 -78 26 -134.5t74.5 -87t113.5 -30.5zM373 739l-154 162h86l68 -76l69 76h86z" />
    <glyph glyph-name="uni01D2" unicode="&#x1d2;" horiz-adv-x="574" 
d="M287 -9q-70 0 -126 33t-87.5 91t-31.5 132t31.5 132t87 90.5t126.5 32.5q72 0 126.5 -32.5t86.5 -90.5t32 -132t-31.5 -132t-87 -91t-126.5 -33zM288 89q41 0 71 19t46 55t16 84q0 49 -16 84.5t-46 54.5t-71 19q-43 0 -73 -19.5t-46 -54.5t-16 -84q0 -48 16 -84t46 -55
t73 -19zM287 535l-154 162h86l68 -76l69 76h86z" />
    <glyph glyph-name="uni01D3" unicode="&#x1d3;" horiz-adv-x="657" 
d="M328 -14q-129 0 -196.5 67t-67.5 199v445h116v-432q0 -57 13.5 -95.5t46 -58t88.5 -19.5t88.5 20t46.5 58t14 95v432h115v-440q0 -135 -67 -203t-197 -68zM328 739l-154 162h86l68 -76l69 76h86z" />
    <glyph glyph-name="uni01D4" unicode="&#x1d4;" horiz-adv-x="559" 
d="M236 -9q-58 0 -97.5 23t-59.5 66t-20 104v309h111v-279q0 -39 9.5 -67.5t31 -43.5t58.5 -15q43 0 67.5 22.5t35 66t10.5 104.5v212h111v-493h-111v106l19 -7q-23 -56 -66.5 -82t-98.5 -26zM275 535l-154 162h86l68 -76l69 76h86z" />
    <glyph glyph-name="Gcaron" unicode="&#x1e6;" horiz-adv-x="734" 
d="M365 -14q-94 0 -167 45t-114 127t-41 191t41.5 190.5t115.5 126.5t172 45q109 0 188.5 -54t114.5 -150l-108 -39q-24 63 -74 98t-121 35q-65 0 -113 -31t-74.5 -87t-26.5 -134t26.5 -134.5t74.5 -87.5t113 -31q34 0 69 9.5t65 32.5t48.5 64.5t18.5 104.5v44l26 -80h-199
v103h275v-374h-102l-16 121l20 -16q-19 -40 -50.5 -66.5t-73 -39.5t-88.5 -13zM372 739l-154 162h86l68 -76l69 76h86z" />
    <glyph glyph-name="gcaron" unicode="&#x1e7;" horiz-adv-x="520" 
d="M270 -214q-109 0 -172 39.5t-63 107.5q0 6 0.5 14t2.5 16l134 87l30 -29l-65 -81q-1 -3 -1 -5.5v-5.5q0 -31 37.5 -47.5t96.5 -16.5q50 0 80 13.5t30 40.5q0 15 -9 24.5t-27 15.5t-44.5 10.5t-62.5 8.5q-45 7 -88.5 20t-72 39t-28.5 69q0 38 26 69.5t69 51.5l57 -44
q-28 -6 -42 -20.5t-14 -34.5q0 -17 13 -27.5t37.5 -16t58.5 -10.5q51 -6 94 -14t75 -22.5t49.5 -39.5t17.5 -65q0 -71 -57.5 -109t-161.5 -38zM259 143q-60 0 -106 23t-71.5 63.5t-25.5 91.5q0 55 27 95.5t72.5 63t99.5 22.5t99 -22.5t72.5 -64t27.5 -98.5
q0 -52 -24.5 -91.5t-68.5 -61t-102 -21.5zM257 232q43 0 65 26.5t22 63.5q0 40 -24 64.5t-63 24.5q-41 0 -65.5 -24.5t-24.5 -63.5q0 -38 23 -64.5t67 -26.5zM422 393l-81 52l111 90l57 -69zM260 535l-154 162h86l68 -76l69 76h86z" />
    <glyph glyph-name="uni01EA" unicode="&#x1ea;" horiz-adv-x="748" 
d="M372 -14q-98 0 -172 45t-115.5 127t-41.5 190q0 109 41.5 191t115.5 127t172 45q100 0 174.5 -45t116 -126.5t41.5 -191.5q0 -109 -42 -190.5t-116.5 -126.5t-173.5 -45zM372 96q67 0 115 31t74.5 87.5t26.5 133.5q0 78 -26.5 134.5t-74.5 87.5t-115 31q-65 0 -113 -30.5
t-74.5 -87t-26.5 -135.5q0 -78 26 -134.5t74.5 -87t113.5 -30.5zM387 -204q-43 0 -73.5 24t-30.5 66q0 29 13.5 51.5t32.5 38.5t36 25l88 -1q-12 -5 -29.5 -15t-34.5 -23.5t-28.5 -30.5t-11.5 -35q0 -19 12 -29t29 -10q15 0 32 8t33 24l38 -42q-20 -24 -46.5 -37.5
t-59.5 -13.5z" />
    <glyph glyph-name="uni01EB" unicode="&#x1eb;" horiz-adv-x="574" 
d="M287 -9q-70 0 -126 33t-87.5 91t-31.5 132t31.5 132t87 90.5t126.5 32.5q72 0 126.5 -32.5t86.5 -90.5t32 -132t-31.5 -132t-87 -91t-126.5 -33zM288 89q41 0 71 19t46 55t16 84q0 49 -16 84.5t-46 54.5t-71 19q-43 0 -73 -19.5t-46 -54.5t-16 -84q0 -48 16 -84t46 -55
t73 -19zM290 -204q-43 0 -73.5 24t-30.5 66q0 29 13.5 51.5t32.5 38.5t36 25l88 -1q-12 -5 -29.5 -15t-34.5 -23.5t-28.5 -30.5t-11.5 -35q0 -19 12 -29t29 -10q15 0 32 8t33 24l38 -42q-20 -24 -46.5 -37.5t-59.5 -13.5z" />
    <glyph glyph-name="Aringacute" unicode="&#x1fa;" horiz-adv-x="661" 
d="M11 0l276 697h88l275 -697h-126l-193 528l-193 -528h-127zM183 146l36 103h223l38 -103h-297zM332 640q-32 0 -57 15t-39.5 40.5t-14.5 54.5q0 31 14.5 56t40 40t56.5 15q30 0 55 -15t40 -40t15 -55q0 -31 -15 -56.5t-40 -40t-55 -14.5zM332 700q21 0 35.5 14.5
t14.5 36.5t-13.5 36t-36.5 14t-37 -14.5t-14 -35.5q0 -22 14.5 -36.5t36.5 -14.5zM346 798l110 142h120l-149 -142h-81z" />
    <glyph glyph-name="aringacute" unicode="&#x1fb;" horiz-adv-x="544" 
d="M383 0l-8 83v228q0 48 -29 72.5t-81 24.5q-40 0 -78.5 -15.5t-70.5 -47.5l-62 73q48 45 102 64.5t118 19.5q100 0 155.5 -50.5t55.5 -140.5v-311h-102zM230 -9q-55 0 -97.5 20t-66 56t-23.5 84q0 41 17.5 71t45.5 47q24 15 56 21.5t67 6.5h155v-83h-139q-18 0 -36 -3.5
t-32 -12.5q-10 -8 -16.5 -20t-6.5 -28q0 -32 24.5 -50.5t65.5 -18.5q36 0 65.5 16t47.5 44t18 63l34 -55q-12 -52 -38 -87.5t-62 -53t-79 -17.5zM275 530q-32 0 -57 15t-39.5 40.5t-14.5 54.5q0 31 14.5 56t40 40t56.5 15q30 0 55 -15t40 -40t15 -55q0 -31 -15 -56.5
t-40 -40t-55 -14.5zM275 590q21 0 35.5 14.5t14.5 36.5t-13.5 36t-36.5 14t-37 -14.5t-14 -35.5q0 -22 14.5 -36.5t36.5 -14.5zM285 694l110 142h120l-149 -142h-81z" />
    <glyph glyph-name="AEacute" unicode="&#x1fc;" horiz-adv-x="917" 
d="M11 0l275 697h585v-103h-353v-193h309v-104h-309v-194h353v-103h-470v596h-45l-218 -596h-127zM172 146l36 106h221v-106h-257zM421 759l110 142h120l-149 -142h-81z" />
    <glyph glyph-name="aeacute" unicode="&#x1fd;" horiz-adv-x="861" 
d="M226 -9q-89 0 -136 44.5t-47 113.5q0 43 18.5 70.5t47.5 42.5t60.5 21t58 7.5t41.5 1.5h108v19q0 45 -28 70t-79 25q-34 0 -68.5 -14t-63.5 -50l-81 67q49 51 104 72t121 21q61 0 102.5 -19.5t59.5 -58.5q27 35 65 55.5t88 20.5q58 0 100 -18.5t68.5 -52t39.5 -77
t13 -92.5q0 -12 -0.5 -24.5t-2.5 -25.5h-337q5 -58 38 -89.5t89 -31.5q41 0 75.5 13t62.5 41l61 -74q-33 -30 -64 -47.5t-64.5 -24t-75.5 -6.5q-67 0 -112.5 28.5t-68.5 77.5h-11q-34 -56 -79 -81t-103 -25zM240 86q36 0 65 13t48 39.5t24 66.5v7h-105q-64 0 -89.5 -19
t-25.5 -47q0 -26 21.5 -43t61.5 -17zM477 292h237q0 15 -6.5 34.5t-20.5 38t-36 31t-53 12.5q-40 0 -66.5 -17t-39.5 -43.5t-15 -55.5zM391 555l110 142h120l-149 -142h-81z" />
    <glyph glyph-name="Oslashacute" unicode="&#x1fe;" horiz-adv-x="748" 
d="M372 -14q-98 0 -172 45t-115.5 127t-41.5 190q0 109 41.5 191t115.5 127t172 45q100 0 174.5 -45t116 -126.5t41.5 -191.5q0 -109 -42 -190.5t-116.5 -126.5t-173.5 -45zM372 96q67 0 115 31t74.5 87.5t26.5 133.5q0 78 -26.5 134.5t-74.5 87.5t-115 31q-65 0 -113 -30.5
t-74.5 -87t-26.5 -135.5q0 -78 26 -134.5t74.5 -87t113.5 -30.5zM77 0l517 697h76l-516 -697h-77zM332 759l110 142h120l-149 -142h-81z" />
    <glyph glyph-name="oslashacute" unicode="&#x1ff;" horiz-adv-x="574" 
d="M287 -9q-70 0 -126 33t-87.5 91t-31.5 132t31.5 132t87 90.5t126.5 32.5q72 0 126.5 -32.5t86.5 -90.5t32 -132t-31.5 -132t-87 -91t-126.5 -33zM288 89q41 0 71 19t46 55t16 84q0 49 -16 84.5t-46 54.5t-71 19q-43 0 -73 -19.5t-46 -54.5t-16 -84q0 -48 16 -84t46 -55
t73 -19zM83 -44l353 582h55l-354 -582h-54zM246 555l110 142h120l-149 -142h-81z" />
    <glyph glyph-name="uni0218" unicode="&#x218;" horiz-adv-x="572" 
d="M296 -13q-110 0 -179.5 57t-85.5 152l113 28q11 -66 52.5 -100t102.5 -34q34 0 61 12.5t42.5 35.5t15.5 52q0 31 -17 51.5t-49 37t-78 34.5q-63 24 -107 52t-67 66.5t-23 91.5q0 55 27 97.5t76 66.5t113 24q69 0 122 -31t85 -94l-92 -56q-21 38 -51 58.5t-68 20.5
q-27 0 -49 -10.5t-34.5 -29.5t-12.5 -44q0 -26 15 -45.5t46.5 -35.5t80.5 -35q63 -24 107 -52t67.5 -66.5t23.5 -93.5q0 -61 -30 -108t-83.5 -74.5t-123.5 -27.5zM157 -204l70 151h117l-122 -151h-65z" />
    <glyph glyph-name="uni0219" unicode="&#x219;" horiz-adv-x="471" 
d="M233 -9q-53 0 -94 15.5t-69 39.5t-46 48l76 66q19 -31 52.5 -55t81.5 -24q40 0 63.5 17t23.5 42q0 22 -15 34.5t-39 21.5t-53 16q-28 7 -57 17.5t-53.5 26.5t-39.5 41t-15 62q0 65 50 104t131 39q58 0 106 -23t75 -69l-69 -53q-20 30 -50 45t-65 15q-32 0 -53.5 -13
t-21.5 -34q0 -16 10 -26t31 -18t53 -16q30 -7 62 -17t59.5 -26.5t45 -44t17.5 -70.5q0 -48 -24.5 -84.5t-69 -56.5t-103.5 -20zM105 -204l70 151h117l-122 -151h-65z" />
    <glyph glyph-name="uni021A" unicode="&#x21a;" horiz-adv-x="585" 
d="M234 0v594h-222v103h560v-103h-221v-594h-117zM164 -204l70 151h117l-122 -151h-65z" />
    <glyph glyph-name="uni021B" unicode="&#x21b;" horiz-adv-x="342" 
d="M244 -9q-37 0 -69.5 14.5t-51.5 47t-19 85.5v475l112 62v-506q0 -42 12.5 -64.5t45.5 -22.5q10 0 23.5 2.5t28.5 6.5v-86q-20 -7 -40.5 -10.5t-41.5 -3.5zM10 407v86h316v-86h-316zM83 -204l70 151h117l-122 -151h-65z" />
    <glyph glyph-name="uni0232" unicode="&#x232;" horiz-adv-x="617" 
d="M252 0v271l-246 426h132l169 -310l172 310h131l-242 -426v-271h-116zM173 776v65h274v-65h-274z" />
    <glyph glyph-name="uni0233" unicode="&#x233;" horiz-adv-x="530" 
d="M108 -203l98 236l-188 460h122l125 -349l127 349h120l-284 -696h-120zM129 572v65h274v-65h-274z" />
    <glyph glyph-name="uni0237" unicode="&#x237;" horiz-adv-x="239" 
d="M60 -213q-19 0 -41.5 4t-43.5 10v96q14 -3 25.5 -5t18.5 -2q22 0 33.5 10.5t11.5 41.5v551h111v-581q0 -65 -32 -95t-83 -30z" />
    <glyph glyph-name="uni0259" unicode="&#x259;" horiz-adv-x="541" 
d="M260 502q62 0 107.5 -20t74.5 -56t43 -81.5t14 -94.5t-14 -95.5t-41.5 -83.5t-71.5 -58.5t-104 -21.5q-57 0 -99.5 19.5t-70.5 54t-41.5 78.5t-13.5 94q0 8 1 20.5t2 25.5h342q-4 59 -39.5 90t-93.5 31q-40 0 -74 -13t-63 -41l-61 74q33 28 63.5 45t64.5 25t75 8z
M152 227q-1 -7 -2.5 -15.5t-1.5 -16.5q0 -22 8 -42t23 -35.5t37 -25t50 -9.5q40 0 66 17t40.5 43.5t17.5 57.5h-275z" />
    <glyph glyph-name="uni0272" unicode="&#x272;" horiz-adv-x="559" 
d="M66 0v493h111v-128l-22 24q21 60 66 86.5t103 26.5q81 0 128.5 -45t47.5 -129v-328h-111v297q0 27 -9 52t-31 41t-60 16q-39 0 -61.5 -16t-33 -42t-14 -56.5t-3.5 -59.5v-232h-111zM66 -213q-36 0 -76 14v89q13 -4 22.5 -5.5t16.5 -1.5q18 0 27.5 9.5t9.5 34.5v73h111
v-88q0 -65 -30.5 -95t-80.5 -30z" />
    <glyph glyph-name="circumflex" unicode="&#x2c6;" horiz-adv-x="393" 
d="M42 543l154 170l155 -170h-86l-69 76l-68 -76h-86z" />
    <glyph glyph-name="caron" unicode="&#x2c7;" horiz-adv-x="393" 
d="M196 535l-154 162h87l67 -72l69 72h86z" />
    <glyph glyph-name="breve" unicode="&#x2d8;" horiz-adv-x="393" 
d="M197 565q-80 0 -117.5 34.5t-37.5 97.5h79q0 -34 21.5 -50.5t54.5 -16.5t54.5 17t21.5 50h78q0 -67 -38.5 -99.5t-115.5 -32.5z" />
    <glyph glyph-name="dotaccent" unicode="&#x2d9;" horiz-adv-x="205" 
d="M42 574v123h121v-123h-121z" />
    <glyph glyph-name="ring" unicode="&#x2da;" horiz-adv-x="305" 
d="M153 530q-32 0 -57 15t-39.5 40.5t-14.5 54.5q0 31 14.5 56t40 40t56.5 15q30 0 55 -15t40 -40t15 -55q0 -31 -15 -56.5t-40 -40t-55 -14.5zM153 590q21 0 35.5 14.5t14.5 36.5t-13.5 36t-36.5 14t-37 -14.5t-14 -35.5q0 -22 14.5 -36.5t36.5 -14.5z" />
    <glyph glyph-name="ogonek" unicode="&#x2db;" horiz-adv-x="294" 
d="M146 -204q-43 0 -73.5 24t-30.5 66q0 29 13.5 51.5t32.5 38.5t36 25l88 -1q-12 -5 -29.5 -15t-34.5 -23.5t-28.5 -30.5t-11.5 -35q0 -19 12 -29t29 -10q15 0 32 8t33 24l38 -42q-20 -24 -46.5 -37.5t-59.5 -13.5z" />
    <glyph glyph-name="tilde" unicode="&#x2dc;" horiz-adv-x="414" 
d="M271 559q-24 0 -40.5 7.5t-28 18t-21 21.5t-19 18t-22.5 7q-16 1 -25 -17.5t-9 -50.5h-64q0 65 28 101t76 36q25 0 43 -11t31.5 -25.5t25.5 -25.5t26 -11t23.5 18.5t9.5 51.5h67q0 -66 -27 -102t-74 -36z" />
    <glyph glyph-name="hungarumlaut" unicode="&#x2dd;" horiz-adv-x="500" 
d="M229 536l112 161h118l-148 -161h-82zM42 536l110 161h101l-130 -161h-81z" />
    <glyph glyph-name="uni02F5" unicode="&#x2f5;" horiz-adv-x="546" 
d="M202 332l-150 161h120l111 -161h-81zM413 332l-148 161h118l111 -161h-81z" />
    <glyph glyph-name="uni02F6" unicode="&#x2f6;" horiz-adv-x="546" 
d="M52 332l111 161h119l-148 -161h-82zM264 332l111 161h119l-149 -161h-81z" />
    <glyph glyph-name="gravecomb" unicode="&#x300;" 
d="M181 555l-139 142h118l104 -142h-83z" />
    <glyph glyph-name="acutecomb" unicode="&#x301;" 
d="M42 555l110 142h120l-149 -142h-81z" />
    <glyph glyph-name="uni0302" unicode="&#x302;" 
d="M42 543l154 170l155 -170h-89l-66 76l-65 -76h-89z" />
    <glyph glyph-name="tildecomb" unicode="&#x303;" 
d="M271 559q-29 0 -48 11t-31.5 25t-24.5 25t-27 11t-24.5 -17.5t-9.5 -50.5h-64q0 65 28 101t76 36q25 0 43 -11t31.5 -25.5t25.5 -25.5t26 -11t23.5 18.5t9.5 51.5h67q0 -66 -27 -102t-74 -36z" />
    <glyph glyph-name="uni0304" unicode="&#x304;" 
d="M42 572v65h274v-65h-274z" />
    <glyph glyph-name="uni0306" unicode="&#x306;" 
d="M197 551q-80 0 -117.5 36t-37.5 110h71q0 -45 23 -63t61 -18q39 0 61 19t22 62h71q0 -77 -38.5 -111.5t-115.5 -34.5z" />
    <glyph glyph-name="uni0307" unicode="&#x307;" 
d="M42 574v123h121v-123h-121z" />
    <glyph glyph-name="uni0308" unicode="&#x308;" 
d="M234 574v123h122v-123h-122zM42 574v123h121v-123h-121z" />
    <glyph glyph-name="hookabovecomb" unicode="&#x309;" 
d="M81 519l-7 40q24 4 45 10.5t21 27.5q0 23 -25.5 30.5t-57.5 7.5h-15v63h15q72 0 117 -24.5t45 -68.5q0 -33 -22 -50.5t-53.5 -24.5t-62.5 -11z" />
    <glyph glyph-name="uni030A" unicode="&#x30a;" 
d="M153 530q-32 0 -57 15t-39.5 40.5t-14.5 54.5q0 31 14.5 56t40 40t56.5 15q30 0 55 -15t40 -40t15 -55q0 -31 -15 -56.5t-40 -40t-55 -14.5zM153 590q21 0 35.5 14.5t14.5 36.5t-13.5 36t-36.5 14t-37 -14.5t-14 -35.5q0 -22 14.5 -36.5t36.5 -14.5z" />
    <glyph glyph-name="uni030B" unicode="&#x30b;" 
d="M229 536l112 161h118l-148 -161h-82zM42 536l110 161h101l-130 -161h-81z" />
    <glyph glyph-name="uni030C" unicode="&#x30c;" 
d="M196 535l-154 162h86l68 -76l69 76h86z" />
    <glyph glyph-name="uni030F" unicode="&#x30f;" 
d="M188 536l-146 161h118l110 -161h-82zM377 536l-129 161h100l111 -161h-82z" />
    <glyph glyph-name="uni0312" unicode="&#x312;" 
d="M42 552l121 154h66l-71 -154h-116z" />
    <glyph glyph-name="uni031B" unicode="&#x31b;" 
d="M42 494v73q42 0 58.5 25t16.5 71v34h78v-41q0 -45 -15.5 -81.5t-49 -58.5t-88.5 -22z" />
    <glyph glyph-name="dotbelowcomb" unicode="&#x323;" 
d="M42 -174v110h121v-110h-121z" />
    <glyph glyph-name="uni0326" unicode="&#x326;" 
d="M42 -204l70 151h117l-122 -151h-65z" />
    <glyph glyph-name="uni0327" unicode="&#x327;" 
d="M135 -204q-13 0 -30.5 2.5t-34 9t-28.5 16.5l30 45q14 -9 29.5 -14t30.5 -5q17 0 30.5 8t13.5 24q0 14 -10 22t-26.5 12t-35.5 6t-37 2l62 86h57l-40 -49q41 -7 68 -25.5t27 -52.5q0 -40 -30.5 -63.5t-75.5 -23.5z" />
    <glyph glyph-name="uni0328" unicode="&#x328;" 
d="M146 -204q-43 0 -73.5 24t-30.5 66q0 29 13.5 51.5t32.5 38.5t36 25l88 -1q-12 -5 -29.5 -15t-34.5 -23.5t-28.5 -30.5t-11.5 -35q0 -19 12 -29t29 -10q15 0 32 8t33 24l38 -42q-20 -24 -46.5 -37.5t-59.5 -13.5z" />
    <glyph glyph-name="uni0335" unicode="&#x335;" 
d="M42 254v74h313v-74h-313z" />
    <glyph glyph-name="uni0336" unicode="&#x336;" 
d="M42 248v66h653v-66h-653z" />
    <glyph glyph-name="uni0337" unicode="&#x337;" 
d="M42 215v106l240 182v-105z" />
    <glyph glyph-name="uni0338" unicode="&#x338;" 
d="M42 0l353 582h55l-354 -582h-54z" />
    <glyph glyph-name="uni0374" unicode="&#x374;" horiz-adv-x="299" 
d="M31 417l72 280h129l-128 -280h-73z" />
    <glyph glyph-name="uni0375" unicode="&#x375;" horiz-adv-x="302" 
d="M30 4l127 281h74l-72 -281h-129z" />
    <glyph glyph-name="uni037E" unicode="&#x37e;" horiz-adv-x="240" 
d="M7 -150l77 280h124l-126 -280h-75zM74 343v128h123v-128h-123z" />
    <glyph glyph-name="tonos" unicode="&#x384;" horiz-adv-x="253" 
d="M42 555l64 142h105l-88 -142h-81z" />
    <glyph glyph-name="dieresistonos" unicode="&#x385;" horiz-adv-x="467" 
d="M42 574v123h105v-123h-105zM319 574v123h106v-123h-106zM249 585l-56 13l43 213l86 -18z" />
    <glyph glyph-name="anoteleia" unicode="&#x387;" horiz-adv-x="351" 
d="M66 126v242h242v-242h-242z" />
    <glyph glyph-name="uni0394" unicode="&#x394;" horiz-adv-x="725" 
d="M43 0l275 697h89l275 -697h-639zM209 106h307l-153 422z" />
    <glyph glyph-name="uni03A9" unicode="&#x3a9;" horiz-adv-x="821" 
d="M47 0v109h152l24 -22q-60 28 -102.5 72.5t-64.5 101.5t-22 123q0 71 25 130.5t69 103.5t105.5 68.5t134.5 24.5t134.5 -24.5t106.5 -68.5t70 -103.5t25 -129.5q0 -68 -23 -125.5t-65.5 -100.5t-100.5 -72l24 22h152v-109h-274v97q82 42 123.5 111t41.5 159
q0 71 -25 123.5t-73 81.5t-115 29q-68 0 -116 -29.5t-73.5 -82.5t-25.5 -124q0 -94 44 -163t123 -105v-97h-274z" />
    <glyph glyph-name="uni03BC" unicode="&#x3bc;" horiz-adv-x="559" 
d="M59 -164v657h111v-285q0 -33 8.5 -60t30 -43.5t62.5 -16.5q46 0 70 26.5t32.5 71.5t8.5 101v206h111v-493h-111v65q-24 -37 -61.5 -55.5t-83.5 -18.5q-23 0 -40 7.5t-27 23.5v-186h-111z" />
    <glyph glyph-name="pi" unicode="&#x3c0;" horiz-adv-x="587" 
d="M492 -9q-64 0 -96.5 32.5t-32.5 97.5v279h-149v-400h-110v400h-63v93h505v-93h-73v-243q0 -35 11.5 -49.5t33.5 -14.5q9 0 18 3t16 7l18 -90q-20 -12 -38 -17t-40 -5z" />
    <glyph glyph-name="uni1E20" unicode="&#x1e20;" horiz-adv-x="734" 
d="M365 -14q-94 0 -167 45t-114 127t-41 191t41.5 190.5t115.5 126.5t172 45q109 0 188.5 -54t114.5 -150l-108 -39q-24 63 -74 98t-121 35q-65 0 -113 -31t-74.5 -87t-26.5 -134t26.5 -134.5t74.5 -87.5t113 -31q34 0 69 9.5t65 32.5t48.5 64.5t18.5 104.5v44l26 -80h-199
v103h275v-374h-102l-16 121l20 -16q-19 -40 -50.5 -66.5t-73 -39.5t-88.5 -13zM235 776v65h274v-65h-274z" />
    <glyph glyph-name="uni1E21" unicode="&#x1e21;" horiz-adv-x="520" 
d="M270 -214q-109 0 -172 39.5t-63 107.5q0 6 0.5 14t2.5 16l134 87l30 -29l-65 -81q-1 -3 -1 -5.5v-5.5q0 -31 37.5 -47.5t96.5 -16.5q50 0 80 13.5t30 40.5q0 15 -9 24.5t-27 15.5t-44.5 10.5t-62.5 8.5q-45 7 -88.5 20t-72 39t-28.5 69q0 38 26 69.5t69 51.5l57 -44
q-28 -6 -42 -20.5t-14 -34.5q0 -17 13 -27.5t37.5 -16t58.5 -10.5q51 -6 94 -14t75 -22.5t49.5 -39.5t17.5 -65q0 -71 -57.5 -109t-161.5 -38zM259 143q-60 0 -106 23t-71.5 63.5t-25.5 91.5q0 55 27 95.5t72.5 63t99.5 22.5t99 -22.5t72.5 -64t27.5 -98.5
q0 -52 -24.5 -91.5t-68.5 -61t-102 -21.5zM257 232q43 0 65 26.5t22 63.5q0 40 -24 64.5t-63 24.5q-41 0 -65.5 -24.5t-24.5 -63.5q0 -38 23 -64.5t67 -26.5zM422 393l-81 52l111 90l57 -69zM123 572v65h274v-65h-274z" />
    <glyph glyph-name="uni1E44" unicode="&#x1e44;" horiz-adv-x="685" 
d="M71 0v697h120l336 -546h-29v546h116v-697h-122l-333 547h28v-547h-116zM280 778v123h121v-123h-121z" />
    <glyph glyph-name="uni1E45" unicode="&#x1e45;" horiz-adv-x="559" 
d="M65 0v493h111v-109l-20 -5q13 43 38 70t58.5 40t70.5 13q83 0 129.5 -47.5t46.5 -135.5v-319h-111v278q0 66 -24 97t-74 31q-37 0 -62.5 -17.5t-38.5 -54.5t-13 -94v-240h-111zM212 574v123h121v-123h-121z" />
    <glyph glyph-name="Wgrave" unicode="&#x1e80;" horiz-adv-x="972" 
d="M224 0l-207 697h120l151 -520l141 480h114l142 -480l149 520h121l-207 -697h-113l-158 520h19l-159 -520h-113zM445 759l-139 142h118l104 -142h-83z" />
    <glyph glyph-name="wgrave" unicode="&#x1e81;" horiz-adv-x="752" 
d="M172 0l-150 493h118l88 -323l100 323h95l100 -321l89 321h118l-151 -493h-100l-103 336l-103 -336h-101zM335 555l-139 142h118l104 -142h-83z" />
    <glyph glyph-name="Wacute" unicode="&#x1e82;" horiz-adv-x="972" 
d="M224 0l-207 697h120l151 -520l141 480h114l142 -480l149 520h121l-207 -697h-113l-158 520h19l-159 -520h-113zM445 759l110 142h120l-149 -142h-81z" />
    <glyph glyph-name="wacute" unicode="&#x1e83;" horiz-adv-x="752" 
d="M172 0l-150 493h118l88 -323l100 323h95l100 -321l89 321h118l-151 -493h-100l-103 336l-103 -336h-101zM335 555l110 142h120l-149 -142h-81z" />
    <glyph glyph-name="Wdieresis" unicode="&#x1e84;" horiz-adv-x="972" 
d="M224 0l-207 697h120l151 -520l141 480h114l142 -480l149 520h121l-207 -697h-113l-158 520h19l-159 -520h-113zM522 778v123h122v-123h-122zM330 778v123h121v-123h-121z" />
    <glyph glyph-name="wdieresis" unicode="&#x1e85;" horiz-adv-x="752" 
d="M172 0l-150 493h118l88 -323l100 323h95l100 -321l89 321h118l-151 -493h-100l-103 336l-103 -336h-101zM412 574v123h122v-123h-122zM220 574v123h121v-123h-121z" />
    <glyph glyph-name="uni1E9E" unicode="&#x1e9e;" horiz-adv-x="787" 
d="M71 0v697h644v-103h-528v-594h-116zM508 -13q-69 0 -124.5 26.5t-91 73.5t-46.5 109l115 29q8 -67 48.5 -101t101.5 -34q35 0 62.5 12.5t43.5 35t16 51.5q0 31 -16 51.5t-48 38t-80 36.5q-64 28 -108 55.5t-66 67.5t-22 101q0 30 14 51t37 31l113 -3q-22 -10 -35.5 -30.5
t-13.5 -48.5q0 -33 15 -54t46.5 -38t80.5 -38q61 -26 105 -53t68.5 -63.5t24.5 -93.5q0 -61 -31.5 -109t-86 -75.5t-122.5 -27.5z" />
    <glyph glyph-name="uni1EA0" unicode="&#x1ea0;" horiz-adv-x="661" 
d="M11 0l276 697h88l275 -697h-126l-193 528l-193 -528h-127zM183 146l36 103h223l38 -103h-297zM271 -174v110h121v-110h-121z" />
    <glyph glyph-name="uni1EA1" unicode="&#x1ea1;" horiz-adv-x="544" 
d="M383 0l-8 83v228q0 48 -29 72.5t-81 24.5q-40 0 -78.5 -15.5t-70.5 -47.5l-62 73q48 45 102 64.5t118 19.5q100 0 155.5 -50.5t55.5 -140.5v-311h-102zM230 -9q-55 0 -97.5 20t-66 56t-23.5 84q0 41 17.5 71t45.5 47q24 15 56 21.5t67 6.5h155v-83h-139q-18 0 -36 -3.5
t-32 -12.5q-10 -8 -16.5 -20t-6.5 -28q0 -32 24.5 -50.5t65.5 -18.5q36 0 65.5 16t47.5 44t18 63l34 -55q-12 -52 -38 -87.5t-62 -53t-79 -17.5zM214 -174v110h121v-110h-121z" />
    <glyph glyph-name="uni1EA2" unicode="&#x1ea2;" horiz-adv-x="661" 
d="M11 0l276 697h88l275 -697h-126l-193 528l-193 -528h-127zM183 146l36 103h223l38 -103h-297zM305 723l-7 40q24 4 45 10.5t21 27.5q0 23 -25.5 30.5t-57.5 7.5h-15v63h15q72 0 117 -24.5t45 -68.5q0 -33 -22 -50.5t-53.5 -24.5t-62.5 -11z" />
    <glyph glyph-name="uni1EA3" unicode="&#x1ea3;" horiz-adv-x="544" 
d="M383 0l-8 83v228q0 48 -29 72.5t-81 24.5q-40 0 -78.5 -15.5t-70.5 -47.5l-62 73q48 45 102 64.5t118 19.5q100 0 155.5 -50.5t55.5 -140.5v-311h-102zM230 -9q-55 0 -97.5 20t-66 56t-23.5 84q0 41 17.5 71t45.5 47q24 15 56 21.5t67 6.5h155v-83h-139q-18 0 -36 -3.5
t-32 -12.5q-10 -8 -16.5 -20t-6.5 -28q0 -32 24.5 -50.5t65.5 -18.5q36 0 65.5 16t47.5 44t18 63l34 -55q-12 -52 -38 -87.5t-62 -53t-79 -17.5zM249 519l-7 40q24 4 45 10.5t21 27.5q0 23 -25.5 30.5t-57.5 7.5h-15v63h15q72 0 117 -24.5t45 -68.5q0 -33 -22 -50.5
t-53.5 -24.5t-62.5 -11z" />
    <glyph glyph-name="uni1EA4" unicode="&#x1ea4;" horiz-adv-x="661" 
d="M11 0l276 697h88l275 -697h-126l-193 528l-193 -528h-127zM183 146l36 103h223l38 -103h-297zM177 743l154 134l155 -134h-90l-65 62l-65 -62h-89zM403 851l67 133h91l-91 -133h-67z" />
    <glyph glyph-name="uni1EA5" unicode="&#x1ea5;" horiz-adv-x="544" 
d="M383 0l-8 83v228q0 48 -29 72.5t-81 24.5q-40 0 -78.5 -15.5t-70.5 -47.5l-62 73q48 45 102 64.5t118 19.5q100 0 155.5 -50.5t55.5 -140.5v-311h-102zM230 -9q-55 0 -97.5 20t-66 56t-23.5 84q0 41 17.5 71t45.5 47q24 15 56 21.5t67 6.5h155v-83h-139q-18 0 -36 -3.5
t-32 -12.5q-10 -8 -16.5 -20t-6.5 -28q0 -32 24.5 -50.5t65.5 -18.5q36 0 65.5 16t47.5 44t18 63l34 -55q-12 -52 -38 -87.5t-62 -53t-79 -17.5zM120 543l154 156l155 -156h-90l-65 61l-65 -61h-89zM346 651l67 133h91l-91 -133h-67z" />
    <glyph glyph-name="uni1EA6" unicode="&#x1ea6;" horiz-adv-x="661" 
d="M11 0l276 697h88l275 -697h-126l-193 528l-193 -528h-127zM183 146l36 103h223l38 -103h-297zM177 743l154 134l155 -134h-90l-65 62l-64 -62h-90zM445 851l-90 133h91l67 -133h-68z" />
    <glyph glyph-name="uni1EA7" unicode="&#x1ea7;" horiz-adv-x="544" 
d="M383 0l-8 83v228q0 48 -29 72.5t-81 24.5q-40 0 -78.5 -15.5t-70.5 -47.5l-62 73q48 45 102 64.5t118 19.5q100 0 155.5 -50.5t55.5 -140.5v-311h-102zM230 -9q-55 0 -97.5 20t-66 56t-23.5 84q0 41 17.5 71t45.5 47q24 15 56 21.5t67 6.5h155v-83h-139q-18 0 -36 -3.5
t-32 -12.5q-10 -8 -16.5 -20t-6.5 -28q0 -32 24.5 -50.5t65.5 -18.5q36 0 65.5 16t47.5 44t18 63l34 -55q-12 -52 -38 -87.5t-62 -53t-79 -17.5zM120 543l154 156l155 -156h-90l-65 61l-64 -61h-90zM388 651l-90 133h91l67 -133h-68z" />
    <glyph glyph-name="uni1EA8" unicode="&#x1ea8;" horiz-adv-x="661" 
d="M11 0l276 697h88l275 -697h-126l-193 528l-193 -528h-127zM183 146l36 103h223l38 -103h-297zM177 743l154 142l155 -142h-90l-65 66l-64 -66h-90zM436 821l-11 40q26 4 40 12t14 24t-10.5 23.5t-26.5 10.5t-34 3h-15v59h15q67 0 101 -23t34 -65q0 -32 -15 -48.5
t-39.5 -24t-52.5 -11.5z" />
    <glyph glyph-name="uni1EA9" unicode="&#x1ea9;" horiz-adv-x="544" 
d="M383 0l-8 83v228q0 48 -29 72.5t-81 24.5q-40 0 -78.5 -15.5t-70.5 -47.5l-62 73q48 45 102 64.5t118 19.5q100 0 155.5 -50.5t55.5 -140.5v-311h-102zM230 -9q-55 0 -97.5 20t-66 56t-23.5 84q0 41 17.5 71t45.5 47q24 15 56 21.5t67 6.5h155v-83h-139q-18 0 -36 -3.5
t-32 -12.5q-10 -8 -16.5 -20t-6.5 -28q0 -32 24.5 -50.5t65.5 -18.5q36 0 65.5 16t47.5 44t18 63l34 -55q-12 -52 -38 -87.5t-62 -53t-79 -17.5zM120 543l154 156l155 -156h-90l-65 61l-64 -61h-90zM369 633l-11 40q23 4 38.5 11.5t15.5 25.5q0 22 -22 29t-49 7h-15v59h15
q66 0 100.5 -23t34.5 -66q0 -30 -15 -46.5t-39.5 -24t-52.5 -12.5z" />
    <glyph glyph-name="uni1EAA" unicode="&#x1eaa;" horiz-adv-x="661" 
d="M11 0l276 697h88l275 -697h-126l-193 528l-193 -528h-127zM183 146l36 103h223l38 -103h-297zM177 743l154 134l155 -134h-89l-66 62l-65 -62h-89zM391 891q-25 0 -42.5 6.5t-30 15t-24 14.5t-24.5 6q-14 0 -21.5 -9.5t-9.5 -24.5l-62 1q3 43 28 68t65 25q25 0 42 -5.5
t30.5 -13.5t24.5 -13.5t24 -5.5t20.5 6.5t10.5 22.5l64 -1q-3 -42 -26.5 -67t-68.5 -25z" />
    <glyph glyph-name="uni1EAB" unicode="&#x1eab;" horiz-adv-x="544" 
d="M383 0l-8 83v228q0 48 -29 72.5t-81 24.5q-40 0 -78.5 -15.5t-70.5 -47.5l-62 73q48 45 102 64.5t118 19.5q100 0 155.5 -50.5t55.5 -140.5v-311h-102zM230 -9q-55 0 -97.5 20t-66 56t-23.5 84q0 41 17.5 71t45.5 47q24 15 56 21.5t67 6.5h155v-83h-139q-18 0 -36 -3.5
t-32 -12.5q-10 -8 -16.5 -20t-6.5 -28q0 -32 24.5 -50.5t65.5 -18.5q36 0 65.5 16t47.5 44t18 63l34 -55q-12 -52 -38 -87.5t-62 -53t-79 -17.5zM120 543l154 156l155 -156h-89l-66 69l-65 -69h-89zM341 700q-25 0 -40.5 6.5t-27 15t-23.5 14.5t-30 6q-19 0 -28 -10t-10 -24
l-62 1q3 42 27.5 67.5t65.5 25.5q25 0 42 -5.5t30.5 -13.5t24.5 -13.5t24 -5.5t20.5 6.5t10.5 22.5l64 -1q-3 -42 -25.5 -67t-62.5 -25z" />
    <glyph glyph-name="uni1EAC" unicode="&#x1eac;" horiz-adv-x="661" 
d="M11 0l276 697h88l275 -697h-126l-193 528l-193 -528h-127zM183 146l36 103h223l38 -103h-297zM271 -174v110h121v-110h-121zM177 747l154 170l155 -170h-89l-66 76l-65 -76h-89z" />
    <glyph glyph-name="uni1EAD" unicode="&#x1ead;" horiz-adv-x="544" 
d="M383 0l-8 83v228q0 48 -29 72.5t-81 24.5q-40 0 -78.5 -15.5t-70.5 -47.5l-62 73q48 45 102 64.5t118 19.5q100 0 155.5 -50.5t55.5 -140.5v-311h-102zM230 -9q-55 0 -97.5 20t-66 56t-23.5 84q0 41 17.5 71t45.5 47q24 15 56 21.5t67 6.5h155v-83h-139q-18 0 -36 -3.5
t-32 -12.5q-10 -8 -16.5 -20t-6.5 -28q0 -32 24.5 -50.5t65.5 -18.5q36 0 65.5 16t47.5 44t18 63l34 -55q-12 -52 -38 -87.5t-62 -53t-79 -17.5zM214 -174v110h121v-110h-121zM120 543l154 170l155 -170h-89l-66 76l-65 -76h-89z" />
    <glyph glyph-name="uni1EAE" unicode="&#x1eae;" horiz-adv-x="661" 
d="M11 0l276 697h88l275 -697h-126l-193 528l-193 -528h-127zM183 146l36 103h223l38 -103h-297zM332 739q-80 0 -117.5 34.5t-37.5 97.5h71q0 -34 23 -50.5t61 -16.5q39 0 61 17t22 50h71q0 -67 -38.5 -99.5t-115.5 -32.5zM293 876l60 119h87l-80 -119h-67z" />
    <glyph glyph-name="uni1EAF" unicode="&#x1eaf;" horiz-adv-x="544" 
d="M383 0l-8 83v228q0 48 -29 72.5t-81 24.5q-40 0 -78.5 -15.5t-70.5 -47.5l-62 73q48 45 102 64.5t118 19.5q100 0 155.5 -50.5t55.5 -140.5v-311h-102zM230 -9q-55 0 -97.5 20t-66 56t-23.5 84q0 41 17.5 71t45.5 47q24 15 56 21.5t67 6.5h155v-83h-139q-18 0 -36 -3.5
t-32 -12.5q-10 -8 -16.5 -20t-6.5 -28q0 -32 24.5 -50.5t65.5 -18.5q36 0 65.5 16t47.5 44t18 63l34 -55q-12 -52 -38 -87.5t-62 -53t-79 -17.5zM275 551q-80 0 -117.5 36t-37.5 110h71q0 -45 23 -63t61 -18q39 0 61 19t22 62h71q0 -77 -38.5 -111.5t-115.5 -34.5zM236 702
l63 127h89l-85 -127h-67z" />
    <glyph glyph-name="uni1EB0" unicode="&#x1eb0;" horiz-adv-x="661" 
d="M11 0l276 697h88l275 -697h-126l-193 528l-193 -528h-127zM183 146l36 103h223l38 -103h-297zM332 739q-80 0 -117.5 34.5t-37.5 97.5h71q0 -34 23 -50.5t61 -16.5q39 0 61 17t22 50h71q0 -67 -38.5 -99.5t-115.5 -32.5zM304 876l-79 119h86l60 -119h-67z" />
    <glyph glyph-name="uni1EB1" unicode="&#x1eb1;" horiz-adv-x="544" 
d="M383 0l-8 83v228q0 48 -29 72.5t-81 24.5q-40 0 -78.5 -15.5t-70.5 -47.5l-62 73q48 45 102 64.5t118 19.5q100 0 155.5 -50.5t55.5 -140.5v-311h-102zM230 -9q-55 0 -97.5 20t-66 56t-23.5 84q0 41 17.5 71t45.5 47q24 15 56 21.5t67 6.5h155v-83h-139q-18 0 -36 -3.5
t-32 -12.5q-10 -8 -16.5 -20t-6.5 -28q0 -32 24.5 -50.5t65.5 -18.5q36 0 65.5 16t47.5 44t18 63l34 -55q-12 -52 -38 -87.5t-62 -53t-79 -17.5zM275 551q-80 0 -117.5 36t-37.5 110h71q0 -45 23 -63t61 -18q39 0 61 19t22 62h71q0 -77 -38.5 -111.5t-115.5 -34.5zM247 702
l-86 127h90l63 -127h-67z" />
    <glyph glyph-name="uni1EB2" unicode="&#x1eb2;" horiz-adv-x="661" 
d="M11 0l276 697h88l275 -697h-126l-193 528l-193 -528h-127zM183 146l36 103h223l38 -103h-297zM332 739q-80 0 -117.5 34.5t-37.5 97.5h71q0 -34 23 -50.5t61 -16.5q39 0 61 17t22 50h71q0 -67 -38.5 -99.5t-115.5 -32.5zM306 848l-12 33q24 2 39 9t15 24q0 19 -21.5 26
t-48.5 7h-15v47h15q66 0 100.5 -19.5t34.5 -55.5q0 -23 -13.5 -37.5t-37.5 -22.5t-56 -11z" />
    <glyph glyph-name="uni1EB3" unicode="&#x1eb3;" horiz-adv-x="544" 
d="M383 0l-8 83v228q0 48 -29 72.5t-81 24.5q-40 0 -78.5 -15.5t-70.5 -47.5l-62 73q48 45 102 64.5t118 19.5q100 0 155.5 -50.5t55.5 -140.5v-311h-102zM230 -9q-55 0 -97.5 20t-66 56t-23.5 84q0 41 17.5 71t45.5 47q24 15 56 21.5t67 6.5h155v-83h-139q-18 0 -36 -3.5
t-32 -12.5q-10 -8 -16.5 -20t-6.5 -28q0 -32 24.5 -50.5t65.5 -18.5q36 0 65.5 16t47.5 44t18 63l34 -55q-12 -52 -38 -87.5t-62 -53t-79 -17.5zM275 551q-80 0 -117.5 36t-37.5 110h71q0 -45 23 -63t61 -18q39 0 61 19t22 62h71q0 -77 -38.5 -111.5t-115.5 -34.5zM249 683
l-12 40q27 3 40.5 11.5t13.5 25.5q0 15 -10 22.5t-26 10.5t-34 3h-15v59h15q66 0 100.5 -23t34.5 -65q0 -31 -15.5 -48t-40 -24.5t-51.5 -11.5z" />
    <glyph glyph-name="uni1EB4" unicode="&#x1eb4;" horiz-adv-x="661" 
d="M11 0l276 697h88l275 -697h-126l-193 528l-193 -528h-127zM183 146l36 103h223l38 -103h-297zM332 739q-80 0 -117.5 34.5t-37.5 97.5h71q0 -34 23 -50.5t61 -16.5q39 0 61 17t22 50h71q0 -67 -38.5 -99.5t-115.5 -32.5zM393 886q-25 0 -41 7t-28 16.5t-23 16.5t-25 7
q-16 0 -24.5 -11.5t-11.5 -27.5l-61 1q3 42 28 67.5t65 25.5q24 0 40.5 -6.5t28.5 -14.5t23 -14.5t25 -6.5q16 0 24.5 9t10.5 25l64 -1q-2 -43 -26.5 -68t-68.5 -25z" />
    <glyph glyph-name="uni1EB5" unicode="&#x1eb5;" horiz-adv-x="544" 
d="M383 0l-8 83v228q0 48 -29 72.5t-81 24.5q-40 0 -78.5 -15.5t-70.5 -47.5l-62 73q48 45 102 64.5t118 19.5q100 0 155.5 -50.5t55.5 -140.5v-311h-102zM230 -9q-55 0 -97.5 20t-66 56t-23.5 84q0 41 17.5 71t45.5 47q24 15 56 21.5t67 6.5h155v-83h-139q-18 0 -36 -3.5
t-32 -12.5q-10 -8 -16.5 -20t-6.5 -28q0 -32 24.5 -50.5t65.5 -18.5q36 0 65.5 16t47.5 44t18 63l34 -55q-12 -52 -38 -87.5t-62 -53t-79 -17.5zM275 551q-80 0 -117.5 36t-37.5 110h71q0 -45 23 -63t61 -18q39 0 61 19t22 62h71q0 -77 -38.5 -111.5t-115.5 -34.5zM342 729
q-25 0 -40.5 6t-27 14.5t-23 15t-30.5 6.5q-18 0 -27 -9t-12 -26l-60 2q3 43 28 68t64 25q24 0 41.5 -5.5t31 -13.5t25 -13.5t23.5 -5.5q13 0 21 6.5t11 22.5l63 -1q-2 -40 -24 -66t-64 -26z" />
    <glyph glyph-name="uni1EB6" unicode="&#x1eb6;" horiz-adv-x="661" 
d="M11 0l276 697h88l275 -697h-126l-193 528l-193 -528h-127zM183 146l36 103h223l38 -103h-297zM271 -174v110h121v-110h-121zM332 739q-80 0 -117.5 34.5t-37.5 97.5h79q0 -34 21.5 -50.5t54.5 -16.5t54.5 17t21.5 50h78q0 -67 -38.5 -99.5t-115.5 -32.5z" />
    <glyph glyph-name="uni1EB7" unicode="&#x1eb7;" horiz-adv-x="544" 
d="M383 0l-8 83v228q0 48 -29 72.5t-81 24.5q-40 0 -78.5 -15.5t-70.5 -47.5l-62 73q48 45 102 64.5t118 19.5q100 0 155.5 -50.5t55.5 -140.5v-311h-102zM230 -9q-55 0 -97.5 20t-66 56t-23.5 84q0 41 17.5 71t45.5 47q24 15 56 21.5t67 6.5h155v-83h-139q-18 0 -36 -3.5
t-32 -12.5q-10 -8 -16.5 -20t-6.5 -28q0 -32 24.5 -50.5t65.5 -18.5q36 0 65.5 16t47.5 44t18 63l34 -55q-12 -52 -38 -87.5t-62 -53t-79 -17.5zM214 -174v110h121v-110h-121zM275 551q-80 0 -117.5 36t-37.5 110h71q0 -45 23 -63t61 -18q39 0 61 19t22 62h71
q0 -77 -38.5 -111.5t-115.5 -34.5z" />
    <glyph glyph-name="uni1EB8" unicode="&#x1eb8;" horiz-adv-x="580" 
d="M71 0v697h463v-103h-347v-185h320v-104h-320v-202h347v-103h-463zM242 -174v110h121v-110h-121z" />
    <glyph glyph-name="uni1EB9" unicode="&#x1eb9;" horiz-adv-x="541" 
d="M281 -9q-62 0 -107.5 20t-74.5 56t-43 81.5t-14 94.5t13.5 95.5t41.5 83.5t72 58.5t104 21.5q57 0 99.5 -19.5t70.5 -54t41.5 -78.5t13.5 -94q0 -7 -0.5 -20t-2.5 -26h-342q4 -59 40 -90t92 -31q41 0 75 13t62 41l61 -74q-31 -28 -62 -45t-64.5 -25t-75.5 -8zM389 266
q2 8 2.5 16t0.5 16q0 22 -7.5 42t-22.5 35.5t-37 25t-50 9.5q-39 0 -65.5 -17t-41 -43.5t-17.5 -57.5h274zM220 -174v110h121v-110h-121z" />
    <glyph glyph-name="uni1EBA" unicode="&#x1eba;" horiz-adv-x="580" 
d="M71 0v697h463v-103h-347v-185h320v-104h-320v-202h347v-103h-463zM277 723l-7 40q24 4 45 10.5t21 27.5q0 23 -25.5 30.5t-57.5 7.5h-15v63h15q72 0 117 -24.5t45 -68.5q0 -33 -22 -50.5t-53.5 -24.5t-62.5 -11z" />
    <glyph glyph-name="uni1EBB" unicode="&#x1ebb;" horiz-adv-x="541" 
d="M281 -9q-62 0 -107.5 20t-74.5 56t-43 81.5t-14 94.5t13.5 95.5t41.5 83.5t72 58.5t104 21.5q57 0 99.5 -19.5t70.5 -54t41.5 -78.5t13.5 -94q0 -7 -0.5 -20t-2.5 -26h-342q4 -59 40 -90t92 -31q41 0 75 13t62 41l61 -74q-31 -28 -62 -45t-64.5 -25t-75.5 -8zM389 266
q2 8 2.5 16t0.5 16q0 22 -7.5 42t-22.5 35.5t-37 25t-50 9.5q-39 0 -65.5 -17t-41 -43.5t-17.5 -57.5h274zM248 519l-7 40q24 4 45 10.5t21 27.5q0 23 -25.5 30.5t-57.5 7.5h-15v63h15q72 0 117 -24.5t45 -68.5q0 -33 -22 -50.5t-53.5 -24.5t-62.5 -11z" />
    <glyph glyph-name="uni1EBC" unicode="&#x1ebc;" horiz-adv-x="580" 
d="M71 0v697h463v-103h-347v-185h320v-104h-320v-202h347v-103h-463zM366 742q-24 0 -40.5 7t-28 18t-21 21.5t-19 17.5t-22.5 7q-15 0 -24.5 -17t-9.5 -49h-64q0 61 28 94t76 33q20 0 35.5 -7t27.5 -18t22 -21.5t20 -18t21 -7.5q14 0 23.5 18.5t9.5 50.5h67
q0 -62 -27 -95.5t-74 -33.5z" />
    <glyph glyph-name="uni1EBD" unicode="&#x1ebd;" horiz-adv-x="541" 
d="M281 -9q-62 0 -107.5 20t-74.5 56t-43 81.5t-14 94.5t13.5 95.5t41.5 83.5t72 58.5t104 21.5q57 0 99.5 -19.5t70.5 -54t41.5 -78.5t13.5 -94q0 -7 -0.5 -20t-2.5 -26h-342q4 -59 40 -90t92 -31q41 0 75 13t62 41l61 -74q-31 -28 -62 -45t-64.5 -25t-75.5 -8zM389 266
q2 8 2.5 16t0.5 16q0 22 -7.5 42t-22.5 35.5t-37 25t-50 9.5q-39 0 -65.5 -17t-41 -43.5t-17.5 -57.5h274zM337 559q-29 0 -48 11t-31.5 25t-24.5 25t-27 11t-24.5 -17.5t-9.5 -50.5h-64q0 65 28 101t76 36q25 0 43 -11t31.5 -25.5t25.5 -25.5t26 -11t23.5 18.5t9.5 51.5h67
q0 -66 -27 -102t-74 -36z" />
    <glyph glyph-name="uni1EBE" unicode="&#x1ebe;" horiz-adv-x="580" 
d="M71 0v697h463v-103h-347v-185h320v-104h-320v-202h347v-103h-463zM148 743l154 134l155 -134h-90l-65 62l-65 -62h-89zM374 851l67 133h91l-91 -133h-67z" />
    <glyph glyph-name="uni1EBF" unicode="&#x1ebf;" horiz-adv-x="541" 
d="M281 -9q-62 0 -107.5 20t-74.5 56t-43 81.5t-14 94.5t13.5 95.5t41.5 83.5t72 58.5t104 21.5q57 0 99.5 -19.5t70.5 -54t41.5 -78.5t13.5 -94q0 -7 -0.5 -20t-2.5 -26h-342q4 -59 40 -90t92 -31q41 0 75 13t62 41l61 -74q-31 -28 -62 -45t-64.5 -25t-75.5 -8zM389 266
q2 8 2.5 16t0.5 16q0 22 -7.5 42t-22.5 35.5t-37 25t-50 9.5q-39 0 -65.5 -17t-41 -43.5t-17.5 -57.5h274zM119 543l154 156l155 -156h-90l-65 61l-65 -61h-89zM345 651l67 133h91l-91 -133h-67z" />
    <glyph glyph-name="uni1EC0" unicode="&#x1ec0;" horiz-adv-x="580" 
d="M71 0v697h463v-103h-347v-185h320v-104h-320v-202h347v-103h-463zM148 743l154 134l155 -134h-90l-65 62l-64 -62h-90zM416 851l-90 133h91l67 -133h-68z" />
    <glyph glyph-name="uni1EC1" unicode="&#x1ec1;" horiz-adv-x="541" 
d="M281 -9q-62 0 -107.5 20t-74.5 56t-43 81.5t-14 94.5t13.5 95.5t41.5 83.5t72 58.5t104 21.5q57 0 99.5 -19.5t70.5 -54t41.5 -78.5t13.5 -94q0 -7 -0.5 -20t-2.5 -26h-342q4 -59 40 -90t92 -31q41 0 75 13t62 41l61 -74q-31 -28 -62 -45t-64.5 -25t-75.5 -8zM389 266
q2 8 2.5 16t0.5 16q0 22 -7.5 42t-22.5 35.5t-37 25t-50 9.5q-39 0 -65.5 -17t-41 -43.5t-17.5 -57.5h274zM119 543l154 156l155 -156h-90l-65 61l-64 -61h-90zM387 651l-90 133h91l67 -133h-68z" />
    <glyph glyph-name="uni1EC2" unicode="&#x1ec2;" horiz-adv-x="580" 
d="M71 0v697h463v-103h-347v-185h320v-104h-320v-202h347v-103h-463zM148 743l154 142l155 -142h-90l-65 66l-64 -66h-90zM407 821l-11 40q26 4 40 12t14 24t-10.5 23.5t-26.5 10.5t-34 3h-15v59h15q67 0 101 -23t34 -65q0 -32 -15 -48.5t-39.5 -24t-52.5 -11.5z" />
    <glyph glyph-name="uni1EC3" unicode="&#x1ec3;" horiz-adv-x="541" 
d="M281 -9q-62 0 -107.5 20t-74.5 56t-43 81.5t-14 94.5t13.5 95.5t41.5 83.5t72 58.5t104 21.5q57 0 99.5 -19.5t70.5 -54t41.5 -78.5t13.5 -94q0 -7 -0.5 -20t-2.5 -26h-342q4 -59 40 -90t92 -31q41 0 75 13t62 41l61 -74q-31 -28 -62 -45t-64.5 -25t-75.5 -8zM389 266
q2 8 2.5 16t0.5 16q0 22 -7.5 42t-22.5 35.5t-37 25t-50 9.5q-39 0 -65.5 -17t-41 -43.5t-17.5 -57.5h274zM119 543l154 156l155 -156h-90l-65 61l-64 -61h-90zM368 633l-11 40q23 4 38.5 11.5t15.5 25.5q0 22 -22 29t-49 7h-15v59h15q66 0 100.5 -23t34.5 -66
q0 -30 -15 -46.5t-39.5 -24t-52.5 -12.5z" />
    <glyph glyph-name="uni1EC4" unicode="&#x1ec4;" horiz-adv-x="580" 
d="M71 0v697h463v-103h-347v-185h320v-104h-320v-202h347v-103h-463zM148 743l154 134l155 -134h-89l-66 62l-65 -62h-89zM362 891q-25 0 -42.5 6.5t-30 15t-24 14.5t-24.5 6q-14 0 -21.5 -9.5t-9.5 -24.5l-62 1q3 43 28 68t65 25q25 0 42 -5.5t30.5 -13.5t24.5 -13.5
t24 -5.5t20.5 6.5t10.5 22.5l64 -1q-3 -42 -26.5 -67t-68.5 -25z" />
    <glyph glyph-name="uni1EC5" unicode="&#x1ec5;" horiz-adv-x="541" 
d="M281 -9q-62 0 -107.5 20t-74.5 56t-43 81.5t-14 94.5t13.5 95.5t41.5 83.5t72 58.5t104 21.5q57 0 99.5 -19.5t70.5 -54t41.5 -78.5t13.5 -94q0 -7 -0.5 -20t-2.5 -26h-342q4 -59 40 -90t92 -31q41 0 75 13t62 41l61 -74q-31 -28 -62 -45t-64.5 -25t-75.5 -8zM389 266
q2 8 2.5 16t0.5 16q0 22 -7.5 42t-22.5 35.5t-37 25t-50 9.5q-39 0 -65.5 -17t-41 -43.5t-17.5 -57.5h274zM119 543l154 156l155 -156h-89l-66 69l-65 -69h-89zM340 700q-25 0 -40.5 6.5t-27 15t-23.5 14.5t-30 6q-19 0 -28 -10t-10 -24l-62 1q3 42 27.5 67.5t65.5 25.5
q25 0 42 -5.5t30.5 -13.5t24.5 -13.5t24 -5.5t20.5 6.5t10.5 22.5l64 -1q-3 -42 -25.5 -67t-62.5 -25z" />
    <glyph glyph-name="uni1EC6" unicode="&#x1ec6;" horiz-adv-x="580" 
d="M71 0v697h463v-103h-347v-185h320v-104h-320v-202h347v-103h-463zM242 -174v110h121v-110h-121zM148 747l154 170l155 -170h-89l-66 76l-65 -76h-89z" />
    <glyph glyph-name="uni1EC7" unicode="&#x1ec7;" horiz-adv-x="541" 
d="M281 -9q-62 0 -107.5 20t-74.5 56t-43 81.5t-14 94.5t13.5 95.5t41.5 83.5t72 58.5t104 21.5q57 0 99.5 -19.5t70.5 -54t41.5 -78.5t13.5 -94q0 -7 -0.5 -20t-2.5 -26h-342q4 -59 40 -90t92 -31q41 0 75 13t62 41l61 -74q-31 -28 -62 -45t-64.5 -25t-75.5 -8zM389 266
q2 8 2.5 16t0.5 16q0 22 -7.5 42t-22.5 35.5t-37 25t-50 9.5q-39 0 -65.5 -17t-41 -43.5t-17.5 -57.5h274zM220 -174v110h121v-110h-121zM119 543l154 170l155 -170h-89l-66 76l-65 -76h-89z" />
    <glyph glyph-name="uni1EC8" unicode="&#x1ec8;" horiz-adv-x="258" 
d="M71 0v697h116v-697h-116zM104 723l-7 40q24 4 45 10.5t21 27.5q0 23 -25.5 30.5t-57.5 7.5h-15v63h15q72 0 117 -24.5t45 -68.5q0 -33 -22 -50.5t-53.5 -24.5t-62.5 -11z" />
    <glyph glyph-name="uni1EC9" unicode="&#x1ec9;" horiz-adv-x="239" 
d="M64 0v493h111v-493h-111zM93 519l-7 40q24 4 45 10.5t21 27.5q0 23 -25.5 30.5t-57.5 7.5h-15v63h15q72 0 117 -24.5t45 -68.5q0 -33 -22 -50.5t-53.5 -24.5t-62.5 -11z" />
    <glyph glyph-name="uni1ECA" unicode="&#x1eca;" horiz-adv-x="258" 
d="M71 0v697h116v-697h-116zM69 -174v110h121v-110h-121z" />
    <glyph glyph-name="uni1ECB" unicode="&#x1ecb;" horiz-adv-x="239" 
d="M64 0v493h111v-493h-111zM59 574v123h121v-123h-121zM59 -174v110h121v-110h-121z" />
    <glyph glyph-name="uni1ECC" unicode="&#x1ecc;" horiz-adv-x="748" 
d="M372 -14q-98 0 -172 45t-115.5 127t-41.5 190q0 109 41.5 191t115.5 127t172 45q100 0 174.5 -45t116 -126.5t41.5 -191.5q0 -109 -42 -190.5t-116.5 -126.5t-173.5 -45zM372 96q67 0 115 31t74.5 87.5t26.5 133.5q0 78 -26.5 134.5t-74.5 87.5t-115 31q-65 0 -113 -30.5
t-74.5 -87t-26.5 -135.5q0 -78 26 -134.5t74.5 -87t113.5 -30.5zM313 -174v110h121v-110h-121z" />
    <glyph glyph-name="uni1ECD" unicode="&#x1ecd;" horiz-adv-x="574" 
d="M287 -9q-70 0 -126 33t-87.5 91t-31.5 132t31.5 132t87 90.5t126.5 32.5q72 0 126.5 -32.5t86.5 -90.5t32 -132t-31.5 -132t-87 -91t-126.5 -33zM288 89q41 0 71 19t46 55t16 84q0 49 -16 84.5t-46 54.5t-71 19q-43 0 -73 -19.5t-46 -54.5t-16 -84q0 -48 16 -84t46 -55
t73 -19zM227 -174v110h121v-110h-121z" />
    <glyph glyph-name="uni1ECE" unicode="&#x1ece;" horiz-adv-x="748" 
d="M372 -14q-98 0 -172 45t-115.5 127t-41.5 190q0 109 41.5 191t115.5 127t172 45q100 0 174.5 -45t116 -126.5t41.5 -191.5q0 -109 -42 -190.5t-116.5 -126.5t-173.5 -45zM372 96q67 0 115 31t74.5 87.5t26.5 133.5q0 78 -26.5 134.5t-74.5 87.5t-115 31q-65 0 -113 -30.5
t-74.5 -87t-26.5 -135.5q0 -78 26 -134.5t74.5 -87t113.5 -30.5zM347 723l-7 40q24 4 45 10.5t21 27.5q0 23 -25.5 30.5t-57.5 7.5h-15v63h15q72 0 117 -24.5t45 -68.5q0 -33 -22 -50.5t-53.5 -24.5t-62.5 -11z" />
    <glyph glyph-name="uni1ECF" unicode="&#x1ecf;" horiz-adv-x="574" 
d="M287 -9q-70 0 -126 33t-87.5 91t-31.5 132t31.5 132t87 90.5t126.5 32.5q72 0 126.5 -32.5t86.5 -90.5t32 -132t-31.5 -132t-87 -91t-126.5 -33zM288 89q41 0 71 19t46 55t16 84q0 49 -16 84.5t-46 54.5t-71 19q-43 0 -73 -19.5t-46 -54.5t-16 -84q0 -48 16 -84t46 -55
t73 -19zM261 519l-7 40q24 4 45 10.5t21 27.5q0 23 -25.5 30.5t-57.5 7.5h-15v63h15q72 0 117 -24.5t45 -68.5q0 -33 -22 -50.5t-53.5 -24.5t-62.5 -11z" />
    <glyph glyph-name="uni1ED0" unicode="&#x1ed0;" horiz-adv-x="748" 
d="M372 -14q-98 0 -172 45t-115.5 127t-41.5 190q0 109 41.5 191t115.5 127t172 45q100 0 174.5 -45t116 -126.5t41.5 -191.5q0 -109 -42 -190.5t-116.5 -126.5t-173.5 -45zM372 96q67 0 115 31t74.5 87.5t26.5 133.5q0 78 -26.5 134.5t-74.5 87.5t-115 31q-65 0 -113 -30.5
t-74.5 -87t-26.5 -135.5q0 -78 26 -134.5t74.5 -87t113.5 -30.5zM219 743l154 134l155 -134h-90l-65 62l-65 -62h-89zM445 851l67 133h91l-91 -133h-67z" />
    <glyph glyph-name="uni1ED1" unicode="&#x1ed1;" horiz-adv-x="574" 
d="M287 -9q-70 0 -126 33t-87.5 91t-31.5 132t31.5 132t87 90.5t126.5 32.5q72 0 126.5 -32.5t86.5 -90.5t32 -132t-31.5 -132t-87 -91t-126.5 -33zM288 89q41 0 71 19t46 55t16 84q0 49 -16 84.5t-46 54.5t-71 19q-43 0 -73 -19.5t-46 -54.5t-16 -84q0 -48 16 -84t46 -55
t73 -19zM133 543l154 156l155 -156h-90l-65 61l-65 -61h-89zM359 651l67 133h91l-91 -133h-67z" />
    <glyph glyph-name="uni1ED2" unicode="&#x1ed2;" horiz-adv-x="748" 
d="M372 -14q-98 0 -172 45t-115.5 127t-41.5 190q0 109 41.5 191t115.5 127t172 45q100 0 174.5 -45t116 -126.5t41.5 -191.5q0 -109 -42 -190.5t-116.5 -126.5t-173.5 -45zM372 96q67 0 115 31t74.5 87.5t26.5 133.5q0 78 -26.5 134.5t-74.5 87.5t-115 31q-65 0 -113 -30.5
t-74.5 -87t-26.5 -135.5q0 -78 26 -134.5t74.5 -87t113.5 -30.5zM219 743l154 134l155 -134h-90l-65 62l-64 -62h-90zM487 851l-90 133h91l67 -133h-68z" />
    <glyph glyph-name="uni1ED3" unicode="&#x1ed3;" horiz-adv-x="574" 
d="M287 -9q-70 0 -126 33t-87.5 91t-31.5 132t31.5 132t87 90.5t126.5 32.5q72 0 126.5 -32.5t86.5 -90.5t32 -132t-31.5 -132t-87 -91t-126.5 -33zM288 89q41 0 71 19t46 55t16 84q0 49 -16 84.5t-46 54.5t-71 19q-43 0 -73 -19.5t-46 -54.5t-16 -84q0 -48 16 -84t46 -55
t73 -19zM133 543l154 156l155 -156h-90l-65 61l-64 -61h-90zM401 651l-90 133h91l67 -133h-68z" />
    <glyph glyph-name="uni1ED4" unicode="&#x1ed4;" horiz-adv-x="748" 
d="M372 -14q-98 0 -172 45t-115.5 127t-41.5 190q0 109 41.5 191t115.5 127t172 45q100 0 174.5 -45t116 -126.5t41.5 -191.5q0 -109 -42 -190.5t-116.5 -126.5t-173.5 -45zM372 96q67 0 115 31t74.5 87.5t26.5 133.5q0 78 -26.5 134.5t-74.5 87.5t-115 31q-65 0 -113 -30.5
t-74.5 -87t-26.5 -135.5q0 -78 26 -134.5t74.5 -87t113.5 -30.5zM219 743l154 142l155 -142h-90l-65 66l-64 -66h-90zM478 821l-11 40q26 4 40 12t14 24t-10.5 23.5t-26.5 10.5t-34 3h-15v59h15q67 0 101 -23t34 -65q0 -32 -15 -48.5t-39.5 -24t-52.5 -11.5z" />
    <glyph glyph-name="uni1ED5" unicode="&#x1ed5;" horiz-adv-x="574" 
d="M287 -9q-70 0 -126 33t-87.5 91t-31.5 132t31.5 132t87 90.5t126.5 32.5q72 0 126.5 -32.5t86.5 -90.5t32 -132t-31.5 -132t-87 -91t-126.5 -33zM288 89q41 0 71 19t46 55t16 84q0 49 -16 84.5t-46 54.5t-71 19q-43 0 -73 -19.5t-46 -54.5t-16 -84q0 -48 16 -84t46 -55
t73 -19zM133 543l154 156l155 -156h-90l-65 61l-64 -61h-90zM382 633l-11 40q23 4 38.5 11.5t15.5 25.5q0 22 -22 29t-49 7h-15v59h15q66 0 100.5 -23t34.5 -66q0 -30 -15 -46.5t-39.5 -24t-52.5 -12.5z" />
    <glyph glyph-name="uni1ED6" unicode="&#x1ed6;" horiz-adv-x="748" 
d="M372 -14q-98 0 -172 45t-115.5 127t-41.5 190q0 109 41.5 191t115.5 127t172 45q100 0 174.5 -45t116 -126.5t41.5 -191.5q0 -109 -42 -190.5t-116.5 -126.5t-173.5 -45zM372 96q67 0 115 31t74.5 87.5t26.5 133.5q0 78 -26.5 134.5t-74.5 87.5t-115 31q-65 0 -113 -30.5
t-74.5 -87t-26.5 -135.5q0 -78 26 -134.5t74.5 -87t113.5 -30.5zM218 743l154 134l155 -134h-89l-66 62l-65 -62h-89zM432 891q-25 0 -42.5 6.5t-30 15t-24 14.5t-24.5 6q-14 0 -21.5 -9.5t-9.5 -24.5l-62 1q3 43 28 68t65 25q25 0 42 -5.5t30.5 -13.5t24.5 -13.5t24 -5.5
t20.5 6.5t10.5 22.5l64 -1q-3 -42 -26.5 -67t-68.5 -25z" />
    <glyph glyph-name="uni1ED7" unicode="&#x1ed7;" horiz-adv-x="574" 
d="M287 -9q-70 0 -126 33t-87.5 91t-31.5 132t31.5 132t87 90.5t126.5 32.5q72 0 126.5 -32.5t86.5 -90.5t32 -132t-31.5 -132t-87 -91t-126.5 -33zM288 89q41 0 71 19t46 55t16 84q0 49 -16 84.5t-46 54.5t-71 19q-43 0 -73 -19.5t-46 -54.5t-16 -84q0 -48 16 -84t46 -55
t73 -19zM133 543l154 156l155 -156h-89l-66 69l-65 -69h-89zM354 700q-25 0 -40.5 6.5t-27 15t-23.5 14.5t-30 6q-19 0 -28 -10t-10 -24l-62 1q3 42 27.5 67.5t65.5 25.5q25 0 42 -5.5t30.5 -13.5t24.5 -13.5t24 -5.5t20.5 6.5t10.5 22.5l64 -1q-3 -42 -25.5 -67t-62.5 -25z
" />
    <glyph glyph-name="uni1ED8" unicode="&#x1ed8;" horiz-adv-x="748" 
d="M372 -14q-98 0 -172 45t-115.5 127t-41.5 190q0 109 41.5 191t115.5 127t172 45q100 0 174.5 -45t116 -126.5t41.5 -191.5q0 -109 -42 -190.5t-116.5 -126.5t-173.5 -45zM372 96q67 0 115 31t74.5 87.5t26.5 133.5q0 78 -26.5 134.5t-74.5 87.5t-115 31q-65 0 -113 -30.5
t-74.5 -87t-26.5 -135.5q0 -78 26 -134.5t74.5 -87t113.5 -30.5zM313 -174v110h121v-110h-121zM219 747l154 170l155 -170h-90l-65 76l-64 -76h-90z" />
    <glyph glyph-name="uni1ED9" unicode="&#x1ed9;" horiz-adv-x="574" 
d="M287 -9q-70 0 -126 33t-87.5 91t-31.5 132t31.5 132t87 90.5t126.5 32.5q72 0 126.5 -32.5t86.5 -90.5t32 -132t-31.5 -132t-87 -91t-126.5 -33zM288 89q41 0 71 19t46 55t16 84q0 49 -16 84.5t-46 54.5t-71 19q-43 0 -73 -19.5t-46 -54.5t-16 -84q0 -48 16 -84t46 -55
t73 -19zM227 -174v110h121v-110h-121zM133 543l154 170l155 -170h-89l-66 76l-65 -76h-89z" />
    <glyph glyph-name="uni1EDA" unicode="&#x1eda;" horiz-adv-x="748" 
d="M372 -14q-98 0 -172 45t-115.5 127t-41.5 190q0 109 41.5 191t115.5 127t172 45q100 0 174.5 -45t116 -126.5t41.5 -191.5q0 -109 -42 -190.5t-116.5 -126.5t-173.5 -45zM372 96q67 0 115 31t74.5 87.5t26.5 133.5q0 78 -26.5 134.5t-74.5 87.5t-115 31q-65 0 -113 -30.5
t-74.5 -87t-26.5 -135.5q0 -78 26 -134.5t74.5 -87t113.5 -30.5zM591 494v73q42 0 58.5 25t16.5 71v34h78v-41q0 -45 -15.5 -81.5t-49 -58.5t-88.5 -22zM332 759l110 142h120l-149 -142h-81z" />
    <glyph glyph-name="uni1EDB" unicode="&#x1edb;" horiz-adv-x="574" 
d="M287 -9q-70 0 -126 33t-87.5 91t-31.5 132t31.5 132t87 90.5t126.5 32.5q72 0 126.5 -32.5t86.5 -90.5t32 -132t-31.5 -132t-87 -91t-126.5 -33zM288 89q41 0 71 19t46 55t16 84q0 49 -16 84.5t-46 54.5t-71 19q-43 0 -73 -19.5t-46 -54.5t-16 -84q0 -48 16 -84t46 -55
t73 -19zM435 346v73q42 0 58.5 25t16.5 71v34h78v-41q0 -45 -15.5 -81.5t-49 -58.5t-88.5 -22zM246 555l110 142h120l-149 -142h-81z" />
    <glyph glyph-name="uni1EDC" unicode="&#x1edc;" horiz-adv-x="748" 
d="M372 -14q-98 0 -172 45t-115.5 127t-41.5 190q0 109 41.5 191t115.5 127t172 45q100 0 174.5 -45t116 -126.5t41.5 -191.5q0 -109 -42 -190.5t-116.5 -126.5t-173.5 -45zM372 96q67 0 115 31t74.5 87.5t26.5 133.5q0 78 -26.5 134.5t-74.5 87.5t-115 31q-65 0 -113 -30.5
t-74.5 -87t-26.5 -135.5q0 -78 26 -134.5t74.5 -87t113.5 -30.5zM591 494v73q42 0 58.5 25t16.5 71v34h78v-41q0 -45 -15.5 -81.5t-49 -58.5t-88.5 -22zM331 759l-139 142h118l104 -142h-83z" />
    <glyph glyph-name="uni1EDD" unicode="&#x1edd;" horiz-adv-x="574" 
d="M287 -9q-70 0 -126 33t-87.5 91t-31.5 132t31.5 132t87 90.5t126.5 32.5q72 0 126.5 -32.5t86.5 -90.5t32 -132t-31.5 -132t-87 -91t-126.5 -33zM288 89q41 0 71 19t46 55t16 84q0 49 -16 84.5t-46 54.5t-71 19q-43 0 -73 -19.5t-46 -54.5t-16 -84q0 -48 16 -84t46 -55
t73 -19zM435 346v73q42 0 58.5 25t16.5 71v34h78v-41q0 -45 -15.5 -81.5t-49 -58.5t-88.5 -22zM246 555l-139 142h118l104 -142h-83z" />
    <glyph glyph-name="uni1EDE" unicode="&#x1ede;" horiz-adv-x="748" 
d="M372 -14q-98 0 -172 45t-115.5 127t-41.5 190q0 109 41.5 191t115.5 127t172 45q100 0 174.5 -45t116 -126.5t41.5 -191.5q0 -109 -42 -190.5t-116.5 -126.5t-173.5 -45zM372 96q67 0 115 31t74.5 87.5t26.5 133.5q0 78 -26.5 134.5t-74.5 87.5t-115 31q-65 0 -113 -30.5
t-74.5 -87t-26.5 -135.5q0 -78 26 -134.5t74.5 -87t113.5 -30.5zM591 494v73q42 0 58.5 25t16.5 71v34h78v-41q0 -45 -15.5 -81.5t-49 -58.5t-88.5 -22zM347 723l-7 40q24 4 45 10.5t21 27.5q0 23 -25.5 30.5t-57.5 7.5h-15v63h15q72 0 117 -24.5t45 -68.5q0 -33 -22 -50.5
t-53.5 -24.5t-62.5 -11z" />
    <glyph glyph-name="uni1EDF" unicode="&#x1edf;" horiz-adv-x="574" 
d="M287 -9q-70 0 -126 33t-87.5 91t-31.5 132t31.5 132t87 90.5t126.5 32.5q72 0 126.5 -32.5t86.5 -90.5t32 -132t-31.5 -132t-87 -91t-126.5 -33zM288 89q41 0 71 19t46 55t16 84q0 49 -16 84.5t-46 54.5t-71 19q-43 0 -73 -19.5t-46 -54.5t-16 -84q0 -48 16 -84t46 -55
t73 -19zM435 346v73q42 0 58.5 25t16.5 71v34h78v-41q0 -45 -15.5 -81.5t-49 -58.5t-88.5 -22zM261 519l-7 40q24 4 45 10.5t21 27.5q0 23 -25.5 30.5t-57.5 7.5h-15v63h15q72 0 117 -24.5t45 -68.5q0 -33 -22 -50.5t-53.5 -24.5t-62.5 -11z" />
    <glyph glyph-name="uni1EE0" unicode="&#x1ee0;" horiz-adv-x="748" 
d="M372 -14q-98 0 -172 45t-115.5 127t-41.5 190q0 109 41.5 191t115.5 127t172 45q100 0 174.5 -45t116 -126.5t41.5 -191.5q0 -109 -42 -190.5t-116.5 -126.5t-173.5 -45zM372 96q67 0 115 31t74.5 87.5t26.5 133.5q0 78 -26.5 134.5t-74.5 87.5t-115 31q-65 0 -113 -30.5
t-74.5 -87t-26.5 -135.5q0 -78 26 -134.5t74.5 -87t113.5 -30.5zM591 494v73q42 0 58.5 25t16.5 71v34h78v-41q0 -45 -15.5 -81.5t-49 -58.5t-88.5 -22zM436 742q-24 0 -40.5 7t-28 18t-21 21.5t-19 17.5t-22.5 7q-15 0 -24.5 -17t-9.5 -49h-64q0 61 28 94t76 33
q20 0 35.5 -7t27.5 -18t22 -21.5t20 -18t21 -7.5q14 0 23.5 18.5t9.5 50.5h67q0 -62 -27 -95.5t-74 -33.5z" />
    <glyph glyph-name="uni1EE1" unicode="&#x1ee1;" horiz-adv-x="574" 
d="M287 -9q-70 0 -126 33t-87.5 91t-31.5 132t31.5 132t87 90.5t126.5 32.5q72 0 126.5 -32.5t86.5 -90.5t32 -132t-31.5 -132t-87 -91t-126.5 -33zM288 89q41 0 71 19t46 55t16 84q0 49 -16 84.5t-46 54.5t-71 19q-43 0 -73 -19.5t-46 -54.5t-16 -84q0 -48 16 -84t46 -55
t73 -19zM435 346v73q42 0 58.5 25t16.5 71v34h78v-41q0 -45 -15.5 -81.5t-49 -58.5t-88.5 -22zM351 559q-29 0 -48 11t-31.5 25t-24.5 25t-27 11t-24.5 -17.5t-9.5 -50.5h-64q0 65 28 101t76 36q25 0 43 -11t31.5 -25.5t25.5 -25.5t26 -11t23.5 18.5t9.5 51.5h67
q0 -66 -27 -102t-74 -36z" />
    <glyph glyph-name="uni1EE2" unicode="&#x1ee2;" horiz-adv-x="748" 
d="M372 -14q-98 0 -172 45t-115.5 127t-41.5 190q0 109 41.5 191t115.5 127t172 45q100 0 174.5 -45t116 -126.5t41.5 -191.5q0 -109 -42 -190.5t-116.5 -126.5t-173.5 -45zM372 96q67 0 115 31t74.5 87.5t26.5 133.5q0 78 -26.5 134.5t-74.5 87.5t-115 31q-65 0 -113 -30.5
t-74.5 -87t-26.5 -135.5q0 -78 26 -134.5t74.5 -87t113.5 -30.5zM591 494v73q42 0 58.5 25t16.5 71v34h78v-41q0 -45 -15.5 -81.5t-49 -58.5t-88.5 -22zM313 -174v110h121v-110h-121z" />
    <glyph glyph-name="uni1EE3" unicode="&#x1ee3;" horiz-adv-x="574" 
d="M287 -9q-70 0 -126 33t-87.5 91t-31.5 132t31.5 132t87 90.5t126.5 32.5q72 0 126.5 -32.5t86.5 -90.5t32 -132t-31.5 -132t-87 -91t-126.5 -33zM288 89q41 0 71 19t46 55t16 84q0 49 -16 84.5t-46 54.5t-71 19q-43 0 -73 -19.5t-46 -54.5t-16 -84q0 -48 16 -84t46 -55
t73 -19zM435 346v73q42 0 58.5 25t16.5 71v34h78v-41q0 -45 -15.5 -81.5t-49 -58.5t-88.5 -22zM227 -174v110h121v-110h-121z" />
    <glyph glyph-name="uni1EE4" unicode="&#x1ee4;" horiz-adv-x="657" 
d="M328 -14q-129 0 -196.5 67t-67.5 199v445h116v-432q0 -57 13.5 -95.5t46 -58t88.5 -19.5t88.5 20t46.5 58t14 95v432h115v-440q0 -135 -67 -203t-197 -68zM268 -174v110h121v-110h-121z" />
    <glyph glyph-name="uni1EE5" unicode="&#x1ee5;" horiz-adv-x="559" 
d="M236 -9q-58 0 -97.5 23t-59.5 66t-20 104v309h111v-279q0 -39 9.5 -67.5t31 -43.5t58.5 -15q43 0 67.5 22.5t35 66t10.5 104.5v212h111v-493h-111v106l19 -7q-23 -56 -66.5 -82t-98.5 -26zM220 -174v110h121v-110h-121z" />
    <glyph glyph-name="uni1EE6" unicode="&#x1ee6;" horiz-adv-x="657" 
d="M328 -14q-129 0 -196.5 67t-67.5 199v445h116v-432q0 -57 13.5 -95.5t46 -58t88.5 -19.5t88.5 20t46.5 58t14 95v432h115v-440q0 -135 -67 -203t-197 -68zM303 723l-7 40q24 4 45 10.5t21 27.5q0 23 -25.5 30.5t-57.5 7.5h-15v63h15q72 0 117 -24.5t45 -68.5
q0 -33 -22 -50.5t-53.5 -24.5t-62.5 -11z" />
    <glyph glyph-name="uni1EE7" unicode="&#x1ee7;" horiz-adv-x="559" 
d="M236 -9q-58 0 -97.5 23t-59.5 66t-20 104v309h111v-279q0 -39 9.5 -67.5t31 -43.5t58.5 -15q43 0 67.5 22.5t35 66t10.5 104.5v212h111v-493h-111v106l19 -7q-23 -56 -66.5 -82t-98.5 -26zM249 519l-7 40q24 4 45 10.5t21 27.5q0 23 -25.5 30.5t-57.5 7.5h-15v63h15
q72 0 117 -24.5t45 -68.5q0 -33 -22 -50.5t-53.5 -24.5t-62.5 -11z" />
    <glyph glyph-name="uni1EE8" unicode="&#x1ee8;" horiz-adv-x="761" 
d="M328 -14q-129 0 -196.5 67t-67.5 199v445h116v-432q0 -57 13.5 -95.5t46 -58t88.5 -19.5t88.5 20t46.5 58t14 95v432h115v-440q0 -135 -67 -203t-197 -68zM578 494v73q42 0 58.5 25t16.5 71v34h78v-41q0 -45 -15.5 -81.5t-49 -58.5t-88.5 -22zM288 759l110 142h120
l-149 -142h-81z" />
    <glyph glyph-name="uni1EE9" unicode="&#x1ee9;" horiz-adv-x="559" 
d="M236 -9q-58 0 -97.5 23t-59.5 66t-20 104v309h111v-279q0 -39 9.5 -67.5t31 -43.5t58.5 -15q43 0 67.5 22.5t35 66t10.5 104.5v212h111v-493h-111v106l19 -7q-23 -56 -66.5 -82t-98.5 -26zM419 420v73q42 0 58.5 25t16.5 71v34h78v-41q0 -45 -15.5 -81.5t-49 -58.5
t-88.5 -22zM234 555l110 142h120l-149 -142h-81z" />
    <glyph glyph-name="uni1EEA" unicode="&#x1eea;" horiz-adv-x="761" 
d="M328 -14q-129 0 -196.5 67t-67.5 199v445h116v-432q0 -57 13.5 -95.5t46 -58t88.5 -19.5t88.5 20t46.5 58t14 95v432h115v-440q0 -135 -67 -203t-197 -68zM578 494v73q42 0 58.5 25t16.5 71v34h78v-41q0 -45 -15.5 -81.5t-49 -58.5t-88.5 -22zM287 759l-139 142h118
l104 -142h-83z" />
    <glyph glyph-name="uni1EEB" unicode="&#x1eeb;" horiz-adv-x="559" 
d="M236 -9q-58 0 -97.5 23t-59.5 66t-20 104v309h111v-279q0 -39 9.5 -67.5t31 -43.5t58.5 -15q43 0 67.5 22.5t35 66t10.5 104.5v212h111v-493h-111v106l19 -7q-23 -56 -66.5 -82t-98.5 -26zM419 420v73q42 0 58.5 25t16.5 71v34h78v-41q0 -45 -15.5 -81.5t-49 -58.5
t-88.5 -22zM233 555l-139 142h118l104 -142h-83z" />
    <glyph glyph-name="uni1EEC" unicode="&#x1eec;" horiz-adv-x="761" 
d="M328 -14q-129 0 -196.5 67t-67.5 199v445h116v-432q0 -57 13.5 -95.5t46 -58t88.5 -19.5t88.5 20t46.5 58t14 95v432h115v-440q0 -135 -67 -203t-197 -68zM578 494v73q42 0 58.5 25t16.5 71v34h78v-41q0 -45 -15.5 -81.5t-49 -58.5t-88.5 -22zM303 723l-7 40
q24 4 45 10.5t21 27.5q0 23 -25.5 30.5t-57.5 7.5h-15v63h15q72 0 117 -24.5t45 -68.5q0 -33 -22 -50.5t-53.5 -24.5t-62.5 -11z" />
    <glyph glyph-name="uni1EED" unicode="&#x1eed;" horiz-adv-x="559" 
d="M236 -9q-58 0 -97.5 23t-59.5 66t-20 104v309h111v-279q0 -39 9.5 -67.5t31 -43.5t58.5 -15q43 0 67.5 22.5t35 66t10.5 104.5v212h111v-493h-111v106l19 -7q-23 -56 -66.5 -82t-98.5 -26zM419 420v73q42 0 58.5 25t16.5 71v34h78v-41q0 -45 -15.5 -81.5t-49 -58.5
t-88.5 -22zM249 519l-7 40q24 4 45 10.5t21 27.5q0 23 -25.5 30.5t-57.5 7.5h-15v63h15q72 0 117 -24.5t45 -68.5q0 -33 -22 -50.5t-53.5 -24.5t-62.5 -11z" />
    <glyph glyph-name="uni1EEE" unicode="&#x1eee;" horiz-adv-x="761" 
d="M328 -14q-129 0 -196.5 67t-67.5 199v445h116v-432q0 -57 13.5 -95.5t46 -58t88.5 -19.5t88.5 20t46.5 58t14 95v432h115v-440q0 -135 -67 -203t-197 -68zM578 494v73q42 0 58.5 25t16.5 71v34h78v-41q0 -45 -15.5 -81.5t-49 -58.5t-88.5 -22zM392 742q-24 0 -40.5 7
t-28 18t-21 21.5t-19 17.5t-22.5 7q-15 0 -24.5 -17t-9.5 -49h-64q0 61 28 94t76 33q20 0 35.5 -7t27.5 -18t22 -21.5t20 -18t21 -7.5q14 0 23.5 18.5t9.5 50.5h67q0 -62 -27 -95.5t-74 -33.5z" />
    <glyph glyph-name="uni1EEF" unicode="&#x1eef;" horiz-adv-x="559" 
d="M236 -9q-58 0 -97.5 23t-59.5 66t-20 104v309h111v-279q0 -39 9.5 -67.5t31 -43.5t58.5 -15q43 0 67.5 22.5t35 66t10.5 104.5v212h111v-493h-111v106l19 -7q-23 -56 -66.5 -82t-98.5 -26zM419 420v73q42 0 58.5 25t16.5 71v34h78v-41q0 -45 -15.5 -81.5t-49 -58.5
t-88.5 -22zM338 559q-29 0 -48 11t-31.5 25t-24.5 25t-27 11t-24.5 -17.5t-9.5 -50.5h-64q0 65 28 101t76 36q25 0 43 -11t31.5 -25.5t25.5 -25.5t26 -11t23.5 18.5t9.5 51.5h67q0 -66 -27 -102t-74 -36z" />
    <glyph glyph-name="uni1EF0" unicode="&#x1ef0;" horiz-adv-x="761" 
d="M328 -14q-129 0 -196.5 67t-67.5 199v445h116v-432q0 -57 13.5 -95.5t46 -58t88.5 -19.5t88.5 20t46.5 58t14 95v432h115v-440q0 -135 -67 -203t-197 -68zM578 494v73q42 0 58.5 25t16.5 71v34h78v-41q0 -45 -15.5 -81.5t-49 -58.5t-88.5 -22zM268 -174v110h121v-110
h-121z" />
    <glyph glyph-name="uni1EF1" unicode="&#x1ef1;" horiz-adv-x="559" 
d="M236 -9q-58 0 -97.5 23t-59.5 66t-20 104v309h111v-279q0 -39 9.5 -67.5t31 -43.5t58.5 -15q43 0 67.5 22.5t35 66t10.5 104.5v212h111v-493h-111v106l19 -7q-23 -56 -66.5 -82t-98.5 -26zM419 420v73q42 0 58.5 25t16.5 71v34h78v-41q0 -45 -15.5 -81.5t-49 -58.5
t-88.5 -22zM220 -174v110h121v-110h-121z" />
    <glyph glyph-name="Ygrave" unicode="&#x1ef2;" horiz-adv-x="617" 
d="M252 0v271l-246 426h132l169 -310l172 310h131l-242 -426v-271h-116zM268 759l-139 142h118l104 -142h-83z" />
    <glyph glyph-name="ygrave" unicode="&#x1ef3;" horiz-adv-x="530" 
d="M108 -203l98 236l-188 460h122l125 -349l127 349h120l-284 -696h-120zM224 555l-139 142h118l104 -142h-83z" />
    <glyph glyph-name="uni1EF4" unicode="&#x1ef4;" horiz-adv-x="617" 
d="M252 0v271l-246 426h132l169 -310l172 310h131l-242 -426v-271h-116zM249 -174v110h121v-110h-121z" />
    <glyph glyph-name="uni1EF5" unicode="&#x1ef5;" horiz-adv-x="530" 
d="M108 -203l98 236l-188 460h122l125 -349l127 349h120l-284 -696h-120zM365 -204v110h121v-110h-121z" />
    <glyph glyph-name="uni1EF6" unicode="&#x1ef6;" horiz-adv-x="617" 
d="M252 0v271l-246 426h132l169 -310l172 310h131l-242 -426v-271h-116zM284 723l-7 40q24 4 45 10.5t21 27.5q0 23 -25.5 30.5t-57.5 7.5h-15v63h15q72 0 117 -24.5t45 -68.5q0 -33 -22 -50.5t-53.5 -24.5t-62.5 -11z" />
    <glyph glyph-name="uni1EF7" unicode="&#x1ef7;" horiz-adv-x="530" 
d="M108 -203l98 236l-188 460h122l125 -349l127 349h120l-284 -696h-120zM240 519l-7 40q24 4 45 10.5t21 27.5q0 23 -25.5 30.5t-57.5 7.5h-15v63h15q72 0 117 -24.5t45 -68.5q0 -33 -22 -50.5t-53.5 -24.5t-62.5 -11z" />
    <glyph glyph-name="uni1EF8" unicode="&#x1ef8;" horiz-adv-x="617" 
d="M252 0v271l-246 426h132l169 -310l172 310h131l-242 -426v-271h-116zM373 742q-24 0 -40.5 7t-28 18t-21 21.5t-19 17.5t-22.5 7q-15 0 -24.5 -17t-9.5 -49h-64q0 61 28 94t76 33q20 0 35.5 -7t27.5 -18t22 -21.5t20 -18t21 -7.5q14 0 23.5 18.5t9.5 50.5h67
q0 -62 -27 -95.5t-74 -33.5z" />
    <glyph glyph-name="uni1EF9" unicode="&#x1ef9;" horiz-adv-x="530" 
d="M108 -203l98 236l-188 460h122l125 -349l127 349h120l-284 -696h-120zM329 559q-29 0 -48 11t-31.5 25t-24.5 25t-27 11t-24.5 -17.5t-9.5 -50.5h-64q0 65 28 101t76 36q25 0 43 -11t31.5 -25.5t25.5 -25.5t26 -11t23.5 18.5t9.5 51.5h67q0 -66 -27 -102t-74 -36z" />
    <glyph glyph-name="endash" unicode="&#x2013;" horiz-adv-x="422" 
d="M24 257v82h374v-82h-374z" />
    <glyph glyph-name="emdash" unicode="&#x2014;" horiz-adv-x="1058" 
d="M24 257v82h1010v-82h-1010z" />
    <glyph glyph-name="uni2015" unicode="&#x2015;" horiz-adv-x="701" 
d="M42 257v82h618v-82h-618z" />
    <glyph glyph-name="quoteleft" unicode="&#x2018;" horiz-adv-x="267" 
d="M30 416l127 281h74l-72 -281h-129z" />
    <glyph glyph-name="quoteright" unicode="&#x2019;" horiz-adv-x="268" 
d="M36 417l72 280h129l-128 -280h-73z" />
    <glyph glyph-name="quotesinglbase" unicode="&#x201a;" horiz-adv-x="286" 
d="M45 -150l73 280h128l-127 -280h-74z" />
    <glyph glyph-name="quotedblleft" unicode="&#x201c;" horiz-adv-x="453" 
d="M217 416l126 281h74l-71 -281h-129zM29 416l128 281h73l-72 -281h-129z" />
    <glyph glyph-name="quotedblright" unicode="&#x201d;" horiz-adv-x="455" 
d="M224 417l72 280h128l-126 -280h-74zM36 417l72 280h129l-128 -280h-73z" />
    <glyph glyph-name="quotedblbase" unicode="&#x201e;" horiz-adv-x="421" 
d="M211 -150l72 280h128l-126 -280h-74zM14 -150l73 280h128l-127 -280h-74z" />
    <glyph glyph-name="dagger" unicode="&#x2020;" horiz-adv-x="389" 
d="M152 -101v516h-120v82h120v200h84v-200h121v-82h-121v-516h-84z" />
    <glyph glyph-name="daggerdbl" unicode="&#x2021;" horiz-adv-x="403" 
d="M161 -101v200h-121v83h121v233h-121v82h121v200h83v-200h119v-82h-119v-233h119v-83h-119v-200h-83z" />
    <glyph glyph-name="bullet" unicode="&#x2022;" horiz-adv-x="374" 
d="M66 126v242h242v-242h-242z" />
    <glyph glyph-name="uni2023" unicode="&#x2023;" horiz-adv-x="402" 
d="M67 76v370l317 -185z" />
    <glyph glyph-name="twodotenleader" unicode="&#x2025;" horiz-adv-x="443" 
d="M263 0v126h121v-126h-121zM59 0v126h121v-126h-121z" />
    <glyph glyph-name="ellipsis" unicode="&#x2026;" horiz-adv-x="684" 
d="M510 0v126h115v-126h-115zM59 0v126h115v-126h-115zM285 0v126h115v-126h-115z" />
    <glyph glyph-name="perthousand" unicode="&#x2030;" horiz-adv-x="1030" 
d="M109 0l416 697h79l-416 -697h-79zM529 -9q-43 0 -75.5 21t-50 57.5t-17.5 81.5t17 81.5t49 57.5t74 21q40 0 72 -21t51 -57.5t19 -81.5t-18 -81t-49.5 -57.5t-71.5 -21.5zM529 66q27 0 45 23.5t18 61.5q0 25 -8 44t-23 30t-35 11q-21 0 -35 -11t-21.5 -30t-7.5 -44t8 -44
t23 -30t36 -11zM188 386q-44 0 -76 21.5t-49.5 58t-17.5 80.5q0 46 17.5 82t49 57t73.5 21q40 0 72 -21t50.5 -57t18.5 -83q0 -44 -18 -80t-49 -57.5t-71 -21.5zM188 461q27 0 44.5 24t17.5 60q0 25 -8 44.5t-22.5 30.5t-34.5 11q-21 0 -35.5 -11t-22 -29.5t-7.5 -44.5
q0 -24 8 -43.5t23 -30.5t37 -11zM847 -9q-42 0 -74 21.5t-49.5 57.5t-17.5 81t17 81.5t48.5 57.5t72.5 21t73 -21t50.5 -57.5t18.5 -81.5q0 -46 -18 -82t-49.5 -57t-71.5 -21zM847 66q28 0 46 23.5t18 61.5q0 25 -8 44t-23 30t-36 11q-20 0 -34 -11t-22 -30t-8 -44t8 -44
t23 -30t36 -11z" />
    <glyph glyph-name="uni2031" unicode="&#x2031;" horiz-adv-x="1350" 
d="M109 0l416 697h79l-416 -697h-79zM529 -9q-43 0 -75.5 21t-50 57.5t-17.5 81.5t17 81.5t49 57.5t74 21q40 0 72 -21t51 -57.5t19 -81.5t-18 -81t-49.5 -57.5t-71.5 -21.5zM529 66q27 0 45 23.5t18 61.5q0 25 -8 44t-23 30t-35 11q-21 0 -35 -11t-21.5 -30t-7.5 -44t8 -44
t23 -30t36 -11zM188 386q-44 0 -76 21.5t-49.5 58t-17.5 80.5q0 46 17.5 82t49 57t73.5 21q40 0 72 -21t50.5 -57t18.5 -83q0 -44 -18 -80t-49 -57.5t-71 -21.5zM188 461q27 0 44.5 24t17.5 60q0 25 -8 44.5t-22.5 30.5t-34.5 11q-21 0 -35.5 -11t-22 -29.5t-7.5 -44.5
q0 -24 8 -43.5t23 -30.5t37 -11zM847 -9q-42 0 -74 21.5t-49.5 57.5t-17.5 81t17 81.5t48.5 57.5t72.5 21t73 -21t50.5 -57.5t18.5 -81.5q0 -46 -18 -82t-49.5 -57t-71.5 -21zM847 66q28 0 46 23.5t18 61.5q0 25 -8 44t-23 30t-36 11q-20 0 -34 -11t-22 -30t-8 -44t8 -44
t23 -30t36 -11zM1167 -9q-43 0 -75 21.5t-49.5 57.5t-17.5 81t17 81.5t48.5 57.5t73.5 21q41 0 72.5 -21t50.5 -57.5t19 -81.5t-18.5 -81t-49.5 -57.5t-71 -21.5zM1167 66q27 0 45 24t18 61q0 25 -8.5 44t-23 30t-34.5 11t-34.5 -11t-22 -29.5t-7.5 -44.5q0 -24 8 -43.5
t22.5 -30.5t36.5 -11z" />
    <glyph glyph-name="guilsinglleft" unicode="&#x2039;" horiz-adv-x="270" 
d="M247 49l-245 204l245 203v-119l-113 -84l113 -86v-118z" />
    <glyph glyph-name="guilsinglright" unicode="&#x203a;" horiz-adv-x="270" 
d="M22 49v118l114 86l-114 84v119l245 -203z" />
    <glyph glyph-name="fraction" unicode="&#x2044;" horiz-adv-x="145" 
d="M-175 0l416 697h79l-416 -697h-79z" />
    <glyph glyph-name="uni2074" unicode="&#x2074;" horiz-adv-x="405" 
d="M228 484v99h-189v61l188 258h69v-259h67v-60h-67v-99h-68zM89 627l-7 16h147v190l9 -1z" />
    <glyph glyph-name="dong" unicode="&#x20ab;" horiz-adv-x="560" 
d="M235 134q-57 0 -99 28t-64.5 77t-22.5 110q0 67 25 114.5t67 73t94 25.5q61 0 100 -32t55 -103l-41 14v285h97v-584h-82l-15 112h17q-4 -51 -39.5 -85.5t-91.5 -34.5zM55 0v65h452v-65h-452zM253 222q32 0 55.5 16t36.5 45t13 66t-13 65.5t-36.5 44t-55.5 15.5t-56 -15.5
t-37.5 -43.5t-13.5 -66t13.5 -66.5t37.5 -44.5t56 -16zM241 614v59h266v-59h-266z" />
    <glyph glyph-name="Euro" unicode="&#x20ac;" horiz-adv-x="560" 
d="M340 -9q-91 0 -155.5 47t-97.5 128.5t-33 186.5q0 103 34.5 182.5t99 125t154.5 45.5q63 0 113 -15t88 -47l-61 -91q-25 23 -59.5 36t-80.5 13q-57 0 -96 -33t-58 -89.5t-19 -127.5q0 -74 19 -132.5t57 -91.5t95 -33q48 0 83.5 14t60.5 40l61 -92q-38 -32 -89 -49
t-116 -17zM6 241l1 74h411l-2 -74h-410zM8 391v75h411l-1 -75h-410z" />
    <glyph glyph-name="uni20B1" unicode="&#x20b1;" horiz-adv-x="560" 
d="M67 0v697h195q85 0 136.5 -25.5t75 -71t23.5 -106.5q0 -59 -27 -105t-79.5 -71.5t-128.5 -25.5h-80v-292h-115zM8 454v84h116v-84h-116zM182 400h79q64 0 92.5 23t28.5 71q0 49 -28.5 72t-92.5 23h-79v-189zM463 454v84h87v-84h-87z" />
    <glyph glyph-name="uni20B3" unicode="&#x20b3;" horiz-adv-x="560" 
d="M12 0l226 697h86l225 -697h-128l-140 528l-141 -528h-128zM1 138l2 74h555v-74h-557zM3 288v75h554v-75h-554z" />
    <glyph glyph-name="uni20B4" unicode="&#x20b4;" horiz-adv-x="560" 
d="M288 -13q-71 0 -125.5 27.5t-84.5 75t-30 110.5q0 22 5 41.5t14 36.5l137 5q-21 -20 -31 -41t-10 -46q0 -34 15.5 -57.5t43.5 -36t62 -12.5q54 0 91 26.5t52 74.5l107 -46q-26 -74 -90.5 -116t-155.5 -42zM14 260v72h523v-72h-523zM14 399v73h523v-73h-523zM315 441
q34 19 50 38.5t16 45.5q0 25 -12.5 43.5t-34 29.5t-47.5 11q-39 0 -69 -19.5t-53 -59.5l-92 56q33 63 86 94t123 31q65 0 113 -24t75 -66.5t27 -97.5q0 -26 -9 -46t-22 -36h-151z" />
    <glyph glyph-name="uni20B8" unicode="&#x20b8;" horiz-adv-x="560" 
d="M222 0v432h-192v94h500v-94h-192v-432h-116zM30 603v93h500v-93h-500z" />
    <glyph glyph-name="uni20BD" unicode="&#x20bd;" horiz-adv-x="560" 
d="M104 0v131h-88v94h88v76h-88v99h88v297h217q113 0 176.5 -54t63.5 -150q0 -97 -64 -144.5t-176 -47.5h-103v-76h164v-94h-164v-131h-114zM218 400h103q30 0 59 7.5t48 28t19 58.5q0 39 -19 59t-48 28t-59 8h-103v-189z" />
    <glyph glyph-name="uni2116" unicode="&#x2116;" horiz-adv-x="1139" 
d="M71 0v697h120l336 -546h-29v546h116v-697h-122l-333 547h28v-547h-116zM696 0v85h401v-85h-401zM900 163q-62 0 -108 29t-71.5 77.5t-25.5 105.5q0 58 25.5 105.5t71.5 76.5t108 29t108.5 -29t72.5 -76.5t26 -105.5q0 -57 -26 -105.5t-72.5 -77.5t-108.5 -29zM900 242
q39 0 63.5 18.5t36.5 49t12 65.5t-12 64.5t-36.5 48t-63.5 18.5t-63 -18.5t-35.5 -48t-11.5 -64.5t11.5 -65.5t35.5 -49t63 -18.5z" />
    <glyph glyph-name="trademark" unicode="&#x2122;" horiz-adv-x="716" 
d="M340 379v318h92l73 -217l72 217h91v-318h-58v257l-87 -238h-37l-90 241v-260h-56zM123 379v266h-92v52h240v-52h-91v-266h-57z" />
    <glyph glyph-name="uni2126" unicode="&#x2126;" horiz-adv-x="796" 
d="M76 0v109h152l24 -22q-60 28 -102.5 72.5t-64.5 101.5t-22 123q0 71 25 130.5t69 103.5t105.5 68.5t134.5 24.5t134.5 -24.5t106.5 -68.5t70 -103.5t25 -129.5q0 -68 -23 -125.5t-65.5 -100.5t-100.5 -72l24 22h152v-109h-274v97q82 42 123.5 111t41.5 159
q0 71 -25 123.5t-73 81.5t-115 29q-68 0 -116 -29.5t-73.5 -82.5t-25.5 -124q0 -94 44 -163t123 -105v-97h-274z" />
    <glyph glyph-name="oneeighth" unicode="&#x215b;" horiz-adv-x="811" 
d="M124 279v331l22 -38h-129v60h64q21 0 32 9t11 32v24h75v-418h-75zM116 0l416 697h79l-416 -697h-79zM624 -6q-41 0 -76.5 14.5t-57.5 43.5t-22 72q0 33 14.5 60t43.5 43q-17 12 -28 31t-11 47q0 37 19.5 63.5t51 41t66.5 14.5t65.5 -14.5t49.5 -41t19 -64.5
q0 -26 -10 -45.5t-28 -31.5q30 -16 44.5 -43.5t14.5 -59.5q0 -43 -22 -72t-57.5 -43.5t-75.5 -14.5zM624 65q23 0 41 7.5t28.5 22.5t10.5 36q0 32 -22.5 49t-57.5 17q-36 0 -59 -17t-23 -49q0 -21 11 -36t29.5 -22.5t41.5 -7.5zM624 249q26 0 43 13.5t17 36.5q0 24 -16 38.5
t-44 14.5q-27 0 -44.5 -14t-17.5 -38t17.5 -37.5t44.5 -13.5z" />
    <glyph glyph-name="threeeighths" unicode="&#x215c;" horiz-adv-x="890" 
d="M184 274q-70 0 -113 38t-43 100l75 4q0 -32 23 -51.5t60 -19.5t57.5 16.5t20.5 46.5q0 33 -26.5 46.5t-75.5 13.5v59q23 0 40.5 5t27.5 17t10 31q0 24 -15.5 37.5t-41.5 13.5q-30 0 -46 -16t-17 -41l-74 4q0 55 39.5 89.5t99.5 34.5q57 0 94 -31.5t37 -81.5
q0 -31 -15.5 -51.5t-37.5 -31.5q23 -7 40 -21t26.5 -33t9.5 -45q0 -59 -43 -96t-112 -37zM195 0l416 697h79l-416 -697h-79zM703 -6q-41 0 -76.5 14.5t-57.5 43.5t-22 72q0 33 14.5 60t43.5 43q-17 12 -28 31t-11 47q0 37 19.5 63.5t51 41t66.5 14.5t65.5 -14.5t49.5 -41
t19 -64.5q0 -26 -10 -45.5t-28 -31.5q30 -16 44.5 -43.5t14.5 -59.5q0 -43 -22 -72t-57.5 -43.5t-75.5 -14.5zM703 65q23 0 41 7.5t28.5 22.5t10.5 36q0 32 -22.5 49t-57.5 17q-36 0 -59 -17t-23 -49q0 -21 11 -36t29.5 -22.5t41.5 -7.5zM703 249q26 0 43 13.5t17 36.5
q0 24 -16 38.5t-44 14.5q-27 0 -44.5 -14t-17.5 -38t17.5 -37.5t44.5 -13.5z" />
    <glyph glyph-name="fiveeighths" unicode="&#x215d;" horiz-adv-x="886" 
d="M181 273q-39 0 -71.5 16.5t-53.5 45t-26 64.5l73 13q4 -25 23 -46t55 -21q26 0 42.5 12t24.5 30t8 38q0 28 -17.5 50t-56.5 22q-23 0 -41 -10t-29 -28l-70 18l41 220h234v-68h-207l36 30l-26 -140l-20 6q22 25 46 33.5t47 8.5q42 0 74 -19.5t50 -52t18 -70.5
q0 -40 -20 -74.5t-54.5 -56t-79.5 -21.5zM191 0l416 697h79l-416 -697h-79zM699 -6q-41 0 -76.5 14.5t-57.5 43.5t-22 72q0 33 14.5 60t43.5 43q-17 12 -28 31t-11 47q0 37 19.5 63.5t51 41t66.5 14.5t65.5 -14.5t49.5 -41t19 -64.5q0 -26 -10 -45.5t-28 -31.5
q30 -16 44.5 -43.5t14.5 -59.5q0 -43 -22 -72t-57.5 -43.5t-75.5 -14.5zM699 65q23 0 41 7.5t28.5 22.5t10.5 36q0 32 -22.5 49t-57.5 17q-36 0 -59 -17t-23 -49q0 -21 11 -36t29.5 -22.5t41.5 -7.5zM699 249q26 0 43 13.5t17 36.5q0 24 -16 38.5t-44 14.5q-27 0 -44.5 -14
t-17.5 -38t17.5 -37.5t44.5 -13.5z" />
    <glyph glyph-name="seveneighths" unicode="&#x215e;" horiz-adv-x="821" 
d="M55 279l192 377l21 -29h-248v70h302v-55l-184 -363h-83zM126 0l416 697h79l-416 -697h-79zM634 -6q-41 0 -76.5 14.5t-57.5 43.5t-22 72q0 33 14.5 60t43.5 43q-17 12 -28 31t-11 47q0 37 19.5 63.5t51 41t66.5 14.5t65.5 -14.5t49.5 -41t19 -64.5q0 -26 -10 -45.5
t-28 -31.5q30 -16 44.5 -43.5t14.5 -59.5q0 -43 -22 -72t-57.5 -43.5t-75.5 -14.5zM634 65q23 0 41 7.5t28.5 22.5t10.5 36q0 32 -22.5 49t-57.5 17q-36 0 -59 -17t-23 -49q0 -21 11 -36t29.5 -22.5t41.5 -7.5zM634 249q26 0 43 13.5t17 36.5q0 24 -16 38.5t-44 14.5
q-27 0 -44.5 -14t-17.5 -38t17.5 -37.5t44.5 -13.5z" />
    <glyph glyph-name="arrowleft" unicode="&#x2190;" horiz-adv-x="1136" 
d="M566 3l-529 295l529 295l37 -75l-348 -195l-4 16h861v-82h-861l4 16l348 -196z" />
    <glyph glyph-name="arrowright" unicode="&#x2192;" horiz-adv-x="1136" 
d="M570 3l-38 74l349 196l4 -16h-861v82h861l-4 -16l-349 195l38 75l529 -295z" />
    <glyph glyph-name="partialdiff" unicode="&#x2202;" horiz-adv-x="636" 
d="M278 -5q-69 0 -119.5 29t-78 80t-27.5 116q0 62 21.5 113t59 88t86.5 56.5t103 19.5q30 0 54.5 -8t43.5 -22t33 -32.5t23 -40.5q0 16 -1.5 26.5t-3.5 21t-5 27.5q-13 80 -49.5 117t-93.5 37q-23 0 -48 -7t-46.5 -25t-34.5 -49l-82 26q25 65 81 101t133 36
q117 0 181 -86.5t64 -246.5q0 -81 -19.5 -150t-57 -120t-92.5 -79t-125 -28zM287 90q56 0 94 27t58.5 68.5t22.5 83.5q1 25 -7 49.5t-23.5 44.5t-40 31.5t-57.5 11.5q-60 0 -99 -27.5t-58.5 -70t-19.5 -88.5q0 -41 17.5 -70.5t47 -44.5t65.5 -15z" />
    <glyph glyph-name="emptyset" unicode="&#x2205;" horiz-adv-x="713" 
d="M79 35l65 83q-46 42 -73.5 102t-27.5 128q0 66 24 122.5t67.5 99.5t100 67t121.5 24q47 0 89 -12.5t79 -36.5l38 49h71l-65 -82q46 -42 73.5 -101t27.5 -130q0 -64 -24 -121t-67.5 -100t-100 -67.5t-121.5 -24.5q-46 0 -88.5 12.5t-79.5 35.5l-38 -48h-71zM187 172
l296 386q-29 17 -60 26t-67 9q-51 0 -95.5 -19t-78 -52.5t-52.5 -77.5t-19 -96q0 -51 20 -96.5t56 -79.5zM356 103q51 0 95.5 19t78 53t52.5 78.5t19 94.5q0 52 -19.5 98t-55.5 79l-295 -387q27 -17 59.5 -26t65.5 -9z" />
    <glyph glyph-name="uni2206" unicode="&#x2206;" horiz-adv-x="665" 
d="M39 0l279 697h28l280 -697h-587zM176 94h315l-158 411z" />
    <glyph glyph-name="product" unicode="&#x220f;" horiz-adv-x="598" 
d="M87 0v604h-42v93h508v-93h-43v-604h-94v604h-235v-604h-94z" />
    <glyph glyph-name="summation" unicode="&#x2211;" horiz-adv-x="630" 
d="M47 0v55l280 293l-280 294v55h537v-105h-406l17 40l283 -284l-283 -283l-17 41h406v-106h-537z" />
    <glyph glyph-name="minus" unicode="&#x2212;" horiz-adv-x="560" 
d="M77 204v87h407v-87h-407z" />
    <glyph glyph-name="uni2215" unicode="&#x2215;" horiz-adv-x="421" 
d="M30 0l276 697h85l-277 -697h-84z" />
    <glyph glyph-name="radical" unicode="&#x221a;" horiz-adv-x="618" 
d="M252 -110l-137 378h-77v94h145l74 -233l223 568h100z" />
    <glyph glyph-name="infinity" unicode="&#x221e;" horiz-adv-x="857" 
d="M225 161q-61 0 -104.5 24t-67 66.5t-23.5 97.5q0 54 23.5 96.5t67 66.5t104.5 24q50 0 104.5 -27.5t98.5 -84.5q29 37 63 62t70 37.5t70 12.5q61 0 104.5 -24t67.5 -66.5t24 -96.5q0 -55 -24 -97t-67.5 -66.5t-104.5 -24.5q-35 0 -71.5 13t-70 38t-61.5 60
q-42 -53 -96.5 -82t-106.5 -29zM238 251q32 0 71 24.5t69 73.5q-32 51 -71 74.5t-69 23.5q-32 0 -57 -12t-38.5 -34t-13.5 -52q0 -31 13.5 -53t38.5 -33.5t57 -11.5zM616 251q34 0 59 11.5t38.5 33.5t13.5 53q0 30 -13.5 52t-38.5 34t-59 12q-29 0 -67.5 -23.5t-71.5 -74.5
q33 -51 71.5 -74.5t67.5 -23.5z" />
    <glyph glyph-name="integral" unicode="&#x222b;" horiz-adv-x="479" 
d="M36 -227v94q53 0 87 12t50 41.5t16 82.5v557q0 45 20 79.5t53.5 54t73.5 19.5q29 0 57 -10.5t52 -30.5l-59 -72q-14 11 -26 15.5t-24 4.5q-22 0 -37.5 -15.5t-15.5 -48.5v-555q0 -74 -30.5 -125t-85.5 -77t-131 -26z" />
    <glyph glyph-name="approxequal" unicode="&#x2248;" horiz-adv-x="560" 
d="M367 272q-35 0 -57 11.5t-36.5 28.5t-25.5 34t-24 28.5t-33 11.5q-21 0 -33 -24t-12 -62h-89q0 74 36.5 119t97.5 45q36 0 59 -11.5t37.5 -28t26 -33.5t23.5 -28.5t30 -11.5q21 0 34.5 27.5t13.5 68.5h88q0 -51 -16.5 -91t-47.5 -62t-72 -22zM367 29q-35 0 -57 11.5
t-36.5 28.5t-25.5 34t-24 28.5t-33 11.5q-21 0 -33 -23.5t-12 -61.5h-89q0 73 36.5 118.5t97.5 45.5q36 0 59 -11.5t37.5 -28t26 -33.5t23.5 -28.5t30 -11.5q21 0 34.5 27.5t13.5 70.5h88q0 -52 -16.5 -92t-47.5 -63t-72 -23z" />
    <glyph glyph-name="notequal" unicode="&#x2260;" horiz-adv-x="560" 
d="M115 0l200 493h48l-200 -493h-48zM93 313v88h408v-88h-408zM93 93v87h408v-87h-408z" />
    <glyph glyph-name="lessequal" unicode="&#x2264;" horiz-adv-x="560" 
d="M527 112l-502 157v106l502 156v-92l-457 -134v34l457 -134v-93zM25 -41v89h502v-89h-502z" />
    <glyph glyph-name="greaterequal" unicode="&#x2265;" horiz-adv-x="560" 
d="M33 112v93l457 134v-34l-457 134v92l502 -156v-106zM535 -41h-502v89h502v-89z" />
    <glyph glyph-name="lozenge" unicode="&#x25ca;" horiz-adv-x="609" 
d="M230 0l-188 348l188 349h149l188 -349l-188 -348h-149zM298 59h12l146 289l-146 290h-12l-147 -290z" />
    <glyph glyph-name="uni004A0301" horiz-adv-x="554" 
d="M258 -14q-101 0 -164 61t-71 168l114 13q5 -71 35.5 -103t85.5 -32q63 0 89.5 41t26.5 116v344h-266v103h382v-454q0 -79 -28 -137t-80 -89t-124 -31zM258 759l110 142h120l-149 -142h-81z" />
    <glyph glyph-name="uni013B.loclMAH" horiz-adv-x="501" 
d="M71 0v697h116v-594h301v-103h-417zM132 -204l70 151h117l-122 -151h-65z" />
    <glyph glyph-name="uni0145.loclMAH" horiz-adv-x="685" 
d="M71 0v697h120l336 -546h-29v546h116v-697h-122l-333 547h28v-547h-116zM212 -204l70 151h117l-122 -151h-65z" />
    <glyph glyph-name="uni1EB6.ss03" horiz-adv-x="661" 
d="M11 0l276 697h88l275 -697h-126l-193 528l-193 -528h-127zM183 146l36 103h223l38 -103h-297zM331 -192q-26 0 -45 19.5t-19 45.5q0 28 18.5 46.5t45.5 18.5q28 0 46.5 -18.5t18.5 -46.5q0 -26 -18.5 -45.5t-46.5 -19.5zM332 739q-80 0 -117.5 34.5t-37.5 97.5h79
q0 -34 21.5 -50.5t54.5 -16.5t54.5 17t21.5 50h78q0 -67 -38.5 -99.5t-115.5 -32.5z" />
    <glyph glyph-name="uni1EAC.ss03" horiz-adv-x="661" 
d="M11 0l276 697h88l275 -697h-126l-193 528l-193 -528h-127zM183 146l36 103h223l38 -103h-297zM331 -192q-26 0 -45 19.5t-19 45.5q0 28 18.5 46.5t45.5 18.5q28 0 46.5 -18.5t18.5 -46.5q0 -26 -18.5 -45.5t-46.5 -19.5zM177 747l154 170l155 -170h-90l-65 76l-64 -76
h-90z" />
    <glyph glyph-name="Adieresis.ss03" horiz-adv-x="661" 
d="M11 0l276 697h88l275 -697h-126l-193 528l-193 -528h-127zM183 146l36 103h223l38 -103h-297zM432 776q-27 0 -46.5 20t-19.5 48t19.5 47t46.5 19q28 0 47.5 -19t19.5 -47t-19.5 -48t-47.5 -20zM229 776q-27 0 -46.5 20t-19.5 48t19 47t47 19t47.5 -19t19.5 -47
t-19.5 -48t-47.5 -20z" />
    <glyph glyph-name="uni1EA0.ss03" horiz-adv-x="661" 
d="M11 0l276 697h88l275 -697h-126l-193 528l-193 -528h-127zM183 146l36 103h223l38 -103h-297zM331 -192q-26 0 -45 19.5t-19 45.5q0 28 18.5 46.5t45.5 18.5q28 0 46.5 -18.5t18.5 -46.5q0 -26 -18.5 -45.5t-46.5 -19.5z" />
    <glyph glyph-name="Cdotaccent.ss03" horiz-adv-x="708" 
d="M372 -14q-98 0 -172 45t-115.5 127t-41.5 191t41.5 190.5t115.5 126.5t172 45q109 0 188.5 -54t114.5 -150l-108 -39q-24 63 -74 98t-121 35q-65 0 -113 -31t-74.5 -87t-26.5 -134t26.5 -134.5t74.5 -87.5t113 -31q71 0 121 35.5t74 97.5l108 -39q-35 -94 -114.5 -149
t-188.5 -55zM359 776q-27 0 -46.5 20t-19.5 48t19 47t47 19t47.5 -19t19.5 -47t-19.5 -48t-47.5 -20z" />
    <glyph glyph-name="uni1EC6.ss03" horiz-adv-x="580" 
d="M71 0v697h463v-103h-347v-185h320v-104h-320v-202h347v-103h-463zM302 -192q-26 0 -45 19.5t-19 45.5q0 28 18.5 46.5t45.5 18.5q28 0 46.5 -18.5t18.5 -46.5q0 -26 -18.5 -45.5t-46.5 -19.5zM148 747l154 170l155 -170h-90l-65 76l-64 -76h-90z" />
    <glyph glyph-name="Edieresis.ss03" horiz-adv-x="580" 
d="M71 0v697h463v-103h-347v-185h320v-104h-320v-202h347v-103h-463zM404 776q-27 0 -46.5 20t-19.5 48t19.5 47t46.5 19q28 0 47.5 -19t19.5 -47t-19.5 -48t-47.5 -20zM201 776q-27 0 -46.5 20t-19.5 48t19 47t47 19t47.5 -19t19.5 -47t-19.5 -48t-47.5 -20z" />
    <glyph glyph-name="Edotaccent.ss03" horiz-adv-x="580" 
d="M71 0v697h463v-103h-347v-185h320v-104h-320v-202h347v-103h-463zM302 776q-27 0 -46.5 20t-19.5 48t19 47t47 19t47.5 -19t19.5 -47t-19.5 -48t-47.5 -20z" />
    <glyph glyph-name="uni1EB8.ss03" horiz-adv-x="580" 
d="M71 0v697h463v-103h-347v-185h320v-104h-320v-202h347v-103h-463zM302 -192q-26 0 -45 19.5t-19 45.5q0 28 18.5 46.5t45.5 18.5q28 0 46.5 -18.5t18.5 -46.5q0 -26 -18.5 -45.5t-46.5 -19.5z" />
    <glyph glyph-name="Gdotaccent.ss03" horiz-adv-x="734" 
d="M365 -14q-94 0 -167 45t-114 127t-41 191t41.5 190.5t115.5 126.5t172 45q109 0 188.5 -54t114.5 -150l-108 -39q-24 63 -74 98t-121 35q-65 0 -113 -31t-74.5 -87t-26.5 -134t26.5 -134.5t74.5 -87.5t113 -31q34 0 69 9.5t65 32.5t48.5 64.5t18.5 104.5v44l26 -80h-199
v103h275v-374h-102l-16 121l20 -16q-19 -40 -50.5 -66.5t-73 -39.5t-88.5 -13zM372 776q-27 0 -46.5 20t-19.5 48t19 47t47 19t47.5 -19t19.5 -47t-19.5 -48t-47.5 -20z" />
    <glyph glyph-name="Idieresis.ss03" horiz-adv-x="258" 
d="M71 0v697h116v-697h-116zM231 776q-27 0 -46.5 20t-19.5 48t19.5 47t46.5 19q28 0 47.5 -19t19.5 -47t-19.5 -48t-47.5 -20zM28 776q-27 0 -46.5 20t-19.5 48t19 47t47 19t47.5 -19t19.5 -47t-19.5 -48t-47.5 -20z" />
    <glyph glyph-name="uni1ECA.ss03" horiz-adv-x="258" 
d="M71 0v697h116v-697h-116zM129 -192q-26 0 -45 19.5t-19 45.5q0 28 18.5 46.5t45.5 18.5q28 0 46.5 -18.5t18.5 -46.5q0 -26 -18.5 -45.5t-46.5 -19.5z" />
    <glyph glyph-name="Ldot.ss03" horiz-adv-x="613" 
d="M71 0v697h116v-594h301v-103h-417zM433 303q-27 0 -46.5 20t-19.5 47q0 28 19 47.5t47 19.5t47.5 -19.5t19.5 -47.5q0 -27 -19.5 -47t-47.5 -20z" />
    <glyph glyph-name="uni1E44.ss03" horiz-adv-x="685" 
d="M71 0v697h120l336 -546h-29v546h116v-697h-122l-333 547h28v-547h-116zM340 776q-27 0 -46.5 20t-19.5 48t19 47t47 19t47.5 -19t19.5 -47t-19.5 -48t-47.5 -20z" />
    <glyph glyph-name="uni1ED8.ss03" horiz-adv-x="748" 
d="M372 -14q-98 0 -172 45t-115.5 127t-41.5 190q0 109 41.5 191t115.5 127t172 45q100 0 174.5 -45t116 -126.5t41.5 -191.5q0 -109 -42 -190.5t-116.5 -126.5t-173.5 -45zM372 96q67 0 115 31t74.5 87.5t26.5 133.5q0 78 -26.5 134.5t-74.5 87.5t-115 31q-65 0 -113 -30.5
t-74.5 -87t-26.5 -135.5q0 -78 26 -134.5t74.5 -87t113.5 -30.5zM373 -192q-26 0 -45 19.5t-19 45.5q0 28 18.5 46.5t45.5 18.5q28 0 46.5 -18.5t18.5 -46.5q0 -26 -18.5 -45.5t-46.5 -19.5zM219 747l154 170l155 -170h-90l-65 76l-64 -76h-90z" />
    <glyph glyph-name="Odieresis.ss03" horiz-adv-x="748" 
d="M372 -14q-98 0 -172 45t-115.5 127t-41.5 190q0 109 41.5 191t115.5 127t172 45q100 0 174.5 -45t116 -126.5t41.5 -191.5q0 -109 -42 -190.5t-116.5 -126.5t-173.5 -45zM372 96q67 0 115 31t74.5 87.5t26.5 133.5q0 78 -26.5 134.5t-74.5 87.5t-115 31q-65 0 -113 -30.5
t-74.5 -87t-26.5 -135.5q0 -78 26 -134.5t74.5 -87t113.5 -30.5zM474 776q-27 0 -46.5 20t-19.5 48t19.5 47t46.5 19q28 0 47.5 -19t19.5 -47t-19.5 -48t-47.5 -20zM271 776q-27 0 -46.5 20t-19.5 48t19 47t47 19t47.5 -19t19.5 -47t-19.5 -48t-47.5 -20z" />
    <glyph glyph-name="uni1ECC.ss03" horiz-adv-x="748" 
d="M372 -14q-98 0 -172 45t-115.5 127t-41.5 190q0 109 41.5 191t115.5 127t172 45q100 0 174.5 -45t116 -126.5t41.5 -191.5q0 -109 -42 -190.5t-116.5 -126.5t-173.5 -45zM372 96q67 0 115 31t74.5 87.5t26.5 133.5q0 78 -26.5 134.5t-74.5 87.5t-115 31q-65 0 -113 -30.5
t-74.5 -87t-26.5 -135.5q0 -78 26 -134.5t74.5 -87t113.5 -30.5zM373 -192q-26 0 -45 19.5t-19 45.5q0 28 18.5 46.5t45.5 18.5q28 0 46.5 -18.5t18.5 -46.5q0 -26 -18.5 -45.5t-46.5 -19.5z" />
    <glyph glyph-name="uni1EE2.ss03" horiz-adv-x="748" 
d="M372 -14q-98 0 -172 45t-115.5 127t-41.5 190q0 109 41.5 191t115.5 127t172 45q100 0 174.5 -45t116 -126.5t41.5 -191.5q0 -109 -42 -190.5t-116.5 -126.5t-173.5 -45zM372 96q67 0 115 31t74.5 87.5t26.5 133.5q0 78 -26.5 134.5t-74.5 87.5t-115 31q-65 0 -113 -30.5
t-74.5 -87t-26.5 -135.5q0 -78 26 -134.5t74.5 -87t113.5 -30.5zM591 494v73q42 0 58.5 25t16.5 71v34h78v-41q0 -45 -15.5 -81.5t-49 -58.5t-88.5 -22zM373 -192q-26 0 -45 19.5t-19 45.5q0 28 18.5 46.5t45.5 18.5q28 0 46.5 -18.5t18.5 -46.5q0 -26 -18.5 -45.5
t-46.5 -19.5z" />
    <glyph glyph-name="Udieresis.ss03" horiz-adv-x="657" 
d="M328 -14q-129 0 -196.5 67t-67.5 199v445h116v-432q0 -57 13.5 -95.5t46 -58t88.5 -19.5t88.5 20t46.5 58t14 95v432h115v-440q0 -135 -67 -203t-197 -68zM430 776q-27 0 -46.5 20t-19.5 48t19.5 47t46.5 19q28 0 47.5 -19t19.5 -47t-19.5 -48t-47.5 -20zM227 776
q-27 0 -46.5 20t-19.5 48t19 47t47 19t47.5 -19t19.5 -47t-19.5 -48t-47.5 -20z" />
    <glyph glyph-name="uni1EE4.ss03" horiz-adv-x="657" 
d="M328 -14q-129 0 -196.5 67t-67.5 199v445h116v-432q0 -57 13.5 -95.5t46 -58t88.5 -19.5t88.5 20t46.5 58t14 95v432h115v-440q0 -135 -67 -203t-197 -68zM329 -192q-26 0 -45 19.5t-19 45.5q0 28 18.5 46.5t45.5 18.5q28 0 46.5 -18.5t18.5 -46.5q0 -26 -18.5 -45.5
t-46.5 -19.5z" />
    <glyph glyph-name="uni1EF0.ss03" horiz-adv-x="761" 
d="M328 -14q-129 0 -196.5 67t-67.5 199v445h116v-432q0 -57 13.5 -95.5t46 -58t88.5 -19.5t88.5 20t46.5 58t14 95v432h115v-440q0 -135 -67 -203t-197 -68zM578 494v73q42 0 58.5 25t16.5 71v34h78v-41q0 -45 -15.5 -81.5t-49 -58.5t-88.5 -22zM329 -192q-26 0 -45 19.5
t-19 45.5q0 28 18.5 46.5t45.5 18.5q28 0 46.5 -18.5t18.5 -46.5q0 -26 -18.5 -45.5t-46.5 -19.5z" />
    <glyph glyph-name="Wdieresis.ss03" horiz-adv-x="972" 
d="M224 0l-207 697h120l151 -520l141 480h114l142 -480l149 520h121l-207 -697h-113l-158 520h19l-159 -520h-113zM587 776q-27 0 -46.5 20t-19.5 48t19.5 47t46.5 19q28 0 47.5 -19t19.5 -47t-19.5 -48t-47.5 -20zM384 776q-27 0 -46.5 20t-19.5 48t19 47t47 19t47.5 -19
t19.5 -47t-19.5 -48t-47.5 -20z" />
    <glyph glyph-name="Ydieresis.ss03" horiz-adv-x="617" 
d="M252 0v271l-246 426h132l169 -310l172 310h131l-242 -426v-271h-116zM411 776q-27 0 -46.5 20t-19.5 48t19.5 47t46.5 19q28 0 47.5 -19t19.5 -47t-19.5 -48t-47.5 -20zM208 776q-27 0 -46.5 20t-19.5 48t19 47t47 19t47.5 -19t19.5 -47t-19.5 -48t-47.5 -20z" />
    <glyph glyph-name="uni1EF4.ss03" horiz-adv-x="617" 
d="M252 0v271l-246 426h132l169 -310l172 310h131l-242 -426v-271h-116zM309 -192q-26 0 -45 19.5t-19 45.5q0 28 18.5 46.5t45.5 18.5q28 0 46.5 -18.5t18.5 -46.5q0 -26 -18.5 -45.5t-46.5 -19.5z" />
    <glyph glyph-name="Zdotaccent.ss03" horiz-adv-x="598" 
d="M29 0v96l409 534l17 -36h-402v103h502v-96l-400 -520l-15 22h427v-103h-538zM301 776q-27 0 -46.5 20t-19.5 48t19 47t47 19t47.5 -19t19.5 -47t-19.5 -48t-47.5 -20z" />
    <glyph glyph-name="T_h" horiz-adv-x="1042" 
d="M234 0v594h-222v103h560v-103h-221v-594h-117zM548 0v697h111v-313l-20 -5q13 43 38.5 70t58.5 40t70 13q83 0 129.5 -47.5t46.5 -135.5v-319h-111v278q0 66 -24 97t-74 31q-56 0 -85 -40t-29 -126v-240h-111z" />
    <glyph glyph-name="i.loclTRK" horiz-adv-x="239" 
d="M64 0v493h111v-493h-111zM59 574v123h121v-123h-121z" />
    <glyph glyph-name="uni006A0301" horiz-adv-x="239" 
d="M60 -213q-19 0 -41.5 4t-43.5 10v96q14 -3 25.5 -5t18.5 -2q22 0 33.5 10.5t11.5 41.5v551h111v-581q0 -65 -32 -95t-83 -30zM79 555l110 142h120l-149 -142h-81z" />
    <glyph glyph-name="uni013C.loclMAH" horiz-adv-x="263" 
d="M174 -9q-48 0 -80 29.5t-32 94.5v582h111v-560q0 -23 10.5 -33.5t27.5 -10.5q9 0 18.5 2t19.5 5v-94q-19 -8 -39 -11.5t-36 -3.5zM10 -204l70 151h117l-122 -151h-65z" />
    <glyph glyph-name="uni0146.loclMAH" horiz-adv-x="559" 
d="M65 0v493h111v-109l-20 -5q13 43 38 70t58.5 40t70.5 13q83 0 129.5 -47.5t46.5 -135.5v-319h-111v278q0 66 -24 97t-74 31q-37 0 -62.5 -17.5t-38.5 -54.5t-13 -94v-240h-111zM146 -204l70 151h117l-122 -151h-65z" />
    <glyph glyph-name="g.ss01" horiz-adv-x="580" 
d="M276 -213q-55 0 -97 15t-72 41t-51 58l85 68q19 -34 52 -60.5t82 -26.5q33 0 62 10.5t47.5 39.5t18.5 82v116l15 -12q-24 -57 -67 -83.5t-99 -26.5q-63 0 -110.5 33.5t-73.5 89.5t-26 125q0 75 28.5 130t76 85.5t105.5 30.5q61 0 102 -28.5t60 -79.5l-11 -15v114h111
v-479q0 -80 -30.5 -130.5t-84 -73.5t-123.5 -23zM283 112q40 0 69 18.5t45 50.5t16 73q0 43 -16 76t-45 52t-68 19t-68.5 -19t-46 -52t-16.5 -76q0 -41 16 -73t45 -50.5t69 -18.5z" />
    <glyph glyph-name="gbreve.ss01" horiz-adv-x="580" 
d="M276 -213q-55 0 -97 15t-72 41t-51 58l85 68q19 -34 52 -60.5t82 -26.5q33 0 62 10.5t47.5 39.5t18.5 82v116l15 -12q-24 -57 -67 -83.5t-99 -26.5q-63 0 -110.5 33.5t-73.5 89.5t-26 125q0 75 28.5 130t76 85.5t105.5 30.5q61 0 102 -28.5t60 -79.5l-11 -15v114h111
v-479q0 -80 -30.5 -130.5t-84 -73.5t-123.5 -23zM283 112q40 0 69 18.5t45 50.5t16 73q0 43 -16 76t-45 52t-68 19t-68.5 -19t-46 -52t-16.5 -76q0 -41 16 -73t45 -50.5t69 -18.5zM292 551q-80 0 -117.5 36t-37.5 110h71q0 -45 23 -63t61 -18q39 0 61 19t22 62h71
q0 -77 -38.5 -111.5t-115.5 -34.5z" />
    <glyph glyph-name="gcaron.ss01" horiz-adv-x="580" 
d="M276 -213q-55 0 -97 15t-72 41t-51 58l85 68q19 -34 52 -60.5t82 -26.5q33 0 62 10.5t47.5 39.5t18.5 82v116l15 -12q-24 -57 -67 -83.5t-99 -26.5q-63 0 -110.5 33.5t-73.5 89.5t-26 125q0 75 28.5 130t76 85.5t105.5 30.5q61 0 102 -28.5t60 -79.5l-11 -15v114h111
v-479q0 -80 -30.5 -130.5t-84 -73.5t-123.5 -23zM283 112q40 0 69 18.5t45 50.5t16 73q0 43 -16 76t-45 52t-68 19t-68.5 -19t-46 -52t-16.5 -76q0 -41 16 -73t45 -50.5t69 -18.5zM292 535l-154 162h86l68 -76l69 76h86z" />
    <glyph glyph-name="gcircumflex.ss01" horiz-adv-x="580" 
d="M276 -213q-55 0 -97 15t-72 41t-51 58l85 68q19 -34 52 -60.5t82 -26.5q33 0 62 10.5t47.5 39.5t18.5 82v116l15 -12q-24 -57 -67 -83.5t-99 -26.5q-63 0 -110.5 33.5t-73.5 89.5t-26 125q0 75 28.5 130t76 85.5t105.5 30.5q61 0 102 -28.5t60 -79.5l-11 -15v114h111
v-479q0 -80 -30.5 -130.5t-84 -73.5t-123.5 -23zM283 112q40 0 69 18.5t45 50.5t16 73q0 43 -16 76t-45 52t-68 19t-68.5 -19t-46 -52t-16.5 -76q0 -41 16 -73t45 -50.5t69 -18.5zM138 543l154 170l155 -170h-89l-66 76l-65 -76h-89z" />
    <glyph glyph-name="uni0123.ss01" horiz-adv-x="580" 
d="M276 -213q-55 0 -97 15t-72 41t-51 58l85 68q19 -34 52 -60.5t82 -26.5q33 0 62 10.5t47.5 39.5t18.5 82v116l15 -12q-24 -57 -67 -83.5t-99 -26.5q-63 0 -110.5 33.5t-73.5 89.5t-26 125q0 75 28.5 130t76 85.5t105.5 30.5q61 0 102 -28.5t60 -79.5l-11 -15v114h111
v-479q0 -80 -30.5 -130.5t-84 -73.5t-123.5 -23zM283 112q40 0 69 18.5t45 50.5t16 73q0 43 -16 76t-45 52t-68 19t-68.5 -19t-46 -52t-16.5 -76q0 -41 16 -73t45 -50.5t69 -18.5zM199 552l121 154h66l-71 -154h-116z" />
    <glyph glyph-name="gdotaccent.ss01" horiz-adv-x="580" 
d="M276 -213q-55 0 -97 15t-72 41t-51 58l85 68q19 -34 52 -60.5t82 -26.5q33 0 62 10.5t47.5 39.5t18.5 82v116l15 -12q-24 -57 -67 -83.5t-99 -26.5q-63 0 -110.5 33.5t-73.5 89.5t-26 125q0 75 28.5 130t76 85.5t105.5 30.5q61 0 102 -28.5t60 -79.5l-11 -15v114h111
v-479q0 -80 -30.5 -130.5t-84 -73.5t-123.5 -23zM283 112q40 0 69 18.5t45 50.5t16 73q0 43 -16 76t-45 52t-68 19t-68.5 -19t-46 -52t-16.5 -76q0 -41 16 -73t45 -50.5t69 -18.5zM231 574v123h121v-123h-121z" />
    <glyph glyph-name="uni1E21.ss01" horiz-adv-x="580" 
d="M276 -213q-55 0 -97 15t-72 41t-51 58l85 68q19 -34 52 -60.5t82 -26.5q33 0 62 10.5t47.5 39.5t18.5 82v116l15 -12q-24 -57 -67 -83.5t-99 -26.5q-63 0 -110.5 33.5t-73.5 89.5t-26 125q0 75 28.5 130t76 85.5t105.5 30.5q61 0 102 -28.5t60 -79.5l-11 -15v114h111
v-479q0 -80 -30.5 -130.5t-84 -73.5t-123.5 -23zM283 112q40 0 69 18.5t45 50.5t16 73q0 43 -16 76t-45 52t-68 19t-68.5 -19t-46 -52t-16.5 -76q0 -41 16 -73t45 -50.5t69 -18.5zM155 572v65h274v-65h-274z" />
    <glyph glyph-name="g.ss02" horiz-adv-x="533" 
d="M270 -213q-45 0 -86.5 8t-75.5 25t-53.5 46t-19.5 71q0 12 2 23t6 20l96 63l57 -44l-57 -51v-7q0 -34 32 -51.5t100 -17.5q67 0 97.5 16t30.5 47q0 16 -6 28.5t-20.5 19.5t-40.5 7h-160q-13 0 -34 7t-41.5 21t-35.5 36.5t-15 53.5q0 43 22 76t68 65l52 -72
q-15 -7 -27 -21.5t-11 -31.5q0 -17 14.5 -26t36.5 -12.5t45 -3.5h102q56 0 91 -16t51 -46t16 -72q0 -79 -60.5 -120t-175.5 -41zM271 143q-61 0 -106.5 23t-71 63.5t-25.5 91.5q0 55 27.5 95.5t73 63t98.5 22.5q54 0 99 -22.5t73 -64t28 -98.5q0 -52 -25 -91.5t-69 -61
t-102 -21.5zM269 231q43 0 65 26t22 64q0 39 -23.5 64t-63.5 25q-42 0 -65.5 -25t-23.5 -64q0 -37 22.5 -63.5t66.5 -26.5zM434 393l-79 52l110 90l57 -69z" />
    <glyph glyph-name="gbreve.ss02" horiz-adv-x="533" 
d="M270 -213q-45 0 -86.5 8t-75.5 25t-53.5 46t-19.5 71q0 12 2 23t6 20l96 63l57 -44l-57 -51v-7q0 -34 32 -51.5t100 -17.5q67 0 97.5 16t30.5 47q0 16 -6 28.5t-20.5 19.5t-40.5 7h-160q-13 0 -34 7t-41.5 21t-35.5 36.5t-15 53.5q0 43 22 76t68 65l52 -72
q-15 -7 -27 -21.5t-11 -31.5q0 -17 14.5 -26t36.5 -12.5t45 -3.5h102q56 0 91 -16t51 -46t16 -72q0 -79 -60.5 -120t-175.5 -41zM271 143q-61 0 -106.5 23t-71 63.5t-25.5 91.5q0 55 27.5 95.5t73 63t98.5 22.5q54 0 99 -22.5t73 -64t28 -98.5q0 -52 -25 -91.5t-69 -61
t-102 -21.5zM269 231q43 0 65 26t22 64q0 39 -23.5 64t-63.5 25q-42 0 -65.5 -25t-23.5 -64q0 -37 22.5 -63.5t66.5 -26.5zM434 393l-79 52l110 90l57 -69zM274 551q-80 0 -117.5 36t-37.5 110h71q0 -45 23 -63t61 -18q39 0 61 19t22 62h71q0 -77 -38.5 -111.5t-115.5 -34.5
z" />
    <glyph glyph-name="gcaron.ss02" horiz-adv-x="533" 
d="M270 -213q-45 0 -86.5 8t-75.5 25t-53.5 46t-19.5 71q0 12 2 23t6 20l96 63l57 -44l-57 -51v-7q0 -34 32 -51.5t100 -17.5q67 0 97.5 16t30.5 47q0 16 -6 28.5t-20.5 19.5t-40.5 7h-160q-13 0 -34 7t-41.5 21t-35.5 36.5t-15 53.5q0 43 22 76t68 65l52 -72
q-15 -7 -27 -21.5t-11 -31.5q0 -17 14.5 -26t36.5 -12.5t45 -3.5h102q56 0 91 -16t51 -46t16 -72q0 -79 -60.5 -120t-175.5 -41zM271 143q-61 0 -106.5 23t-71 63.5t-25.5 91.5q0 55 27.5 95.5t73 63t98.5 22.5q54 0 99 -22.5t73 -64t28 -98.5q0 -52 -25 -91.5t-69 -61
t-102 -21.5zM269 231q43 0 65 26t22 64q0 39 -23.5 64t-63.5 25q-42 0 -65.5 -25t-23.5 -64q0 -37 22.5 -63.5t66.5 -26.5zM434 393l-79 52l110 90l57 -69zM273 535l-154 162h86l68 -76l69 76h86z" />
    <glyph glyph-name="gcircumflex.ss02" horiz-adv-x="533" 
d="M270 -213q-45 0 -86.5 8t-75.5 25t-53.5 46t-19.5 71q0 12 2 23t6 20l96 63l57 -44l-57 -51v-7q0 -34 32 -51.5t100 -17.5q67 0 97.5 16t30.5 47q0 16 -6 28.5t-20.5 19.5t-40.5 7h-160q-13 0 -34 7t-41.5 21t-35.5 36.5t-15 53.5q0 43 22 76t68 65l52 -72
q-15 -7 -27 -21.5t-11 -31.5q0 -17 14.5 -26t36.5 -12.5t45 -3.5h102q56 0 91 -16t51 -46t16 -72q0 -79 -60.5 -120t-175.5 -41zM271 143q-61 0 -106.5 23t-71 63.5t-25.5 91.5q0 55 27.5 95.5t73 63t98.5 22.5q54 0 99 -22.5t73 -64t28 -98.5q0 -52 -25 -91.5t-69 -61
t-102 -21.5zM269 231q43 0 65 26t22 64q0 39 -23.5 64t-63.5 25q-42 0 -65.5 -25t-23.5 -64q0 -37 22.5 -63.5t66.5 -26.5zM434 393l-79 52l110 90l57 -69zM119 543l154 170l155 -170h-89l-66 76l-65 -76h-89z" />
    <glyph glyph-name="uni0123.ss02" horiz-adv-x="533" 
d="M270 -213q-45 0 -86.5 8t-75.5 25t-53.5 46t-19.5 71q0 12 2 23t6 20l96 63l57 -44l-57 -51v-7q0 -34 32 -51.5t100 -17.5q67 0 97.5 16t30.5 47q0 16 -6 28.5t-20.5 19.5t-40.5 7h-160q-13 0 -34 7t-41.5 21t-35.5 36.5t-15 53.5q0 43 22 76t68 65l52 -72
q-15 -7 -27 -21.5t-11 -31.5q0 -17 14.5 -26t36.5 -12.5t45 -3.5h102q56 0 91 -16t51 -46t16 -72q0 -79 -60.5 -120t-175.5 -41zM271 143q-61 0 -106.5 23t-71 63.5t-25.5 91.5q0 55 27.5 95.5t73 63t98.5 22.5q54 0 99 -22.5t73 -64t28 -98.5q0 -52 -25 -91.5t-69 -61
t-102 -21.5zM269 231q43 0 65 26t22 64q0 39 -23.5 64t-63.5 25q-42 0 -65.5 -25t-23.5 -64q0 -37 22.5 -63.5t66.5 -26.5zM434 393l-79 52l110 90l57 -69zM181 552l121 154h66l-71 -154h-116z" />
    <glyph glyph-name="gdotaccent.ss02" horiz-adv-x="533" 
d="M270 -213q-45 0 -86.5 8t-75.5 25t-53.5 46t-19.5 71q0 12 2 23t6 20l96 63l57 -44l-57 -51v-7q0 -34 32 -51.5t100 -17.5q67 0 97.5 16t30.5 47q0 16 -6 28.5t-20.5 19.5t-40.5 7h-160q-13 0 -34 7t-41.5 21t-35.5 36.5t-15 53.5q0 43 22 76t68 65l52 -72
q-15 -7 -27 -21.5t-11 -31.5q0 -17 14.5 -26t36.5 -12.5t45 -3.5h102q56 0 91 -16t51 -46t16 -72q0 -79 -60.5 -120t-175.5 -41zM271 143q-61 0 -106.5 23t-71 63.5t-25.5 91.5q0 55 27.5 95.5t73 63t98.5 22.5q54 0 99 -22.5t73 -64t28 -98.5q0 -52 -25 -91.5t-69 -61
t-102 -21.5zM269 231q43 0 65 26t22 64q0 39 -23.5 64t-63.5 25q-42 0 -65.5 -25t-23.5 -64q0 -37 22.5 -63.5t66.5 -26.5zM434 393l-79 52l110 90l57 -69zM213 574v123h121v-123h-121z" />
    <glyph glyph-name="uni1E21.ss02" horiz-adv-x="533" 
d="M270 -213q-45 0 -86.5 8t-75.5 25t-53.5 46t-19.5 71q0 12 2 23t6 20l96 63l57 -44l-57 -51v-7q0 -34 32 -51.5t100 -17.5q67 0 97.5 16t30.5 47q0 16 -6 28.5t-20.5 19.5t-40.5 7h-160q-13 0 -34 7t-41.5 21t-35.5 36.5t-15 53.5q0 43 22 76t68 65l52 -72
q-15 -7 -27 -21.5t-11 -31.5q0 -17 14.5 -26t36.5 -12.5t45 -3.5h102q56 0 91 -16t51 -46t16 -72q0 -79 -60.5 -120t-175.5 -41zM271 143q-61 0 -106.5 23t-71 63.5t-25.5 91.5q0 55 27.5 95.5t73 63t98.5 22.5q54 0 99 -22.5t73 -64t28 -98.5q0 -52 -25 -91.5t-69 -61
t-102 -21.5zM269 231q43 0 65 26t22 64q0 39 -23.5 64t-63.5 25q-42 0 -65.5 -25t-23.5 -64q0 -37 22.5 -63.5t66.5 -26.5zM434 393l-79 52l110 90l57 -69zM137 572v65h274v-65h-274z" />
    <glyph glyph-name="uni1EB7.ss03" horiz-adv-x="544" 
d="M383 0l-8 83v228q0 48 -29 72.5t-81 24.5q-40 0 -78.5 -15.5t-70.5 -47.5l-62 73q48 45 102 64.5t118 19.5q100 0 155.5 -50.5t55.5 -140.5v-311h-102zM230 -9q-55 0 -97.5 20t-66 56t-23.5 84q0 41 17.5 71t45.5 47q24 15 56 21.5t67 6.5h155v-83h-139q-18 0 -36 -3.5
t-32 -12.5q-10 -8 -16.5 -20t-6.5 -28q0 -32 24.5 -50.5t65.5 -18.5q36 0 65.5 16t47.5 44t18 63l34 -55q-12 -52 -38 -87.5t-62 -53t-79 -17.5zM275 -192q-26 0 -45 19.5t-19 45.5q0 28 18.5 46.5t45.5 18.5q28 0 46.5 -18.5t18.5 -46.5q0 -26 -18.5 -45.5t-46.5 -19.5z
M275 551q-80 0 -117.5 36t-37.5 110h71q0 -45 23 -63t61 -18q39 0 61 19t22 62h71q0 -77 -38.5 -111.5t-115.5 -34.5z" />
    <glyph glyph-name="uni1EAD.ss03" horiz-adv-x="544" 
d="M383 0l-8 83v228q0 48 -29 72.5t-81 24.5q-40 0 -78.5 -15.5t-70.5 -47.5l-62 73q48 45 102 64.5t118 19.5q100 0 155.5 -50.5t55.5 -140.5v-311h-102zM230 -9q-55 0 -97.5 20t-66 56t-23.5 84q0 41 17.5 71t45.5 47q24 15 56 21.5t67 6.5h155v-83h-139q-18 0 -36 -3.5
t-32 -12.5q-10 -8 -16.5 -20t-6.5 -28q0 -32 24.5 -50.5t65.5 -18.5q36 0 65.5 16t47.5 44t18 63l34 -55q-12 -52 -38 -87.5t-62 -53t-79 -17.5zM275 -192q-26 0 -45 19.5t-19 45.5q0 28 18.5 46.5t45.5 18.5q28 0 46.5 -18.5t18.5 -46.5q0 -26 -18.5 -45.5t-46.5 -19.5z
M120 543l154 170l155 -170h-89l-66 76l-65 -76h-89z" />
    <glyph glyph-name="adieresis.ss03" horiz-adv-x="544" 
d="M383 0l-8 83v228q0 48 -29 72.5t-81 24.5q-40 0 -78.5 -15.5t-70.5 -47.5l-62 73q48 45 102 64.5t118 19.5q100 0 155.5 -50.5t55.5 -140.5v-311h-102zM230 -9q-55 0 -97.5 20t-66 56t-23.5 84q0 41 17.5 71t45.5 47q24 15 56 21.5t67 6.5h155v-83h-139q-18 0 -36 -3.5
t-32 -12.5q-10 -8 -16.5 -20t-6.5 -28q0 -32 24.5 -50.5t65.5 -18.5q36 0 65.5 16t47.5 44t18 63l34 -55q-12 -52 -38 -87.5t-62 -53t-79 -17.5zM376 572q-27 0 -46.5 20t-19.5 48t19.5 47t46.5 19q28 0 47.5 -19t19.5 -47t-19.5 -48t-47.5 -20zM173 572q-27 0 -46.5 20
t-19.5 48t19 47t47 19t47.5 -19t19.5 -47t-19.5 -48t-47.5 -20z" />
    <glyph glyph-name="uni1EA1.ss03" horiz-adv-x="544" 
d="M383 0l-8 83v228q0 48 -29 72.5t-81 24.5q-40 0 -78.5 -15.5t-70.5 -47.5l-62 73q48 45 102 64.5t118 19.5q100 0 155.5 -50.5t55.5 -140.5v-311h-102zM230 -9q-55 0 -97.5 20t-66 56t-23.5 84q0 41 17.5 71t45.5 47q24 15 56 21.5t67 6.5h155v-83h-139q-18 0 -36 -3.5
t-32 -12.5q-10 -8 -16.5 -20t-6.5 -28q0 -32 24.5 -50.5t65.5 -18.5q36 0 65.5 16t47.5 44t18 63l34 -55q-12 -52 -38 -87.5t-62 -53t-79 -17.5zM275 -192q-26 0 -45 19.5t-19 45.5q0 28 18.5 46.5t45.5 18.5q28 0 46.5 -18.5t18.5 -46.5q0 -26 -18.5 -45.5t-46.5 -19.5z
" />
    <glyph glyph-name="cdotaccent.ss03" horiz-adv-x="521" 
d="M278 -9q-58 0 -102.5 20.5t-74 57t-44.5 82.5t-15 96t15 96t44.5 82t74 56.5t102.5 20.5q73 0 127.5 -35t80.5 -108l-98 -38q-12 38 -39 61.5t-71 23.5t-71.5 -23t-40.5 -59t-13 -77t13 -77.5t40.5 -59t71.5 -22.5t71 23t39 61l98 -38q-26 -72 -80.5 -107.5t-127.5 -35.5
zM265 572q-27 0 -46.5 20t-19.5 48t19 47t47 19t47.5 -19t19.5 -47t-19.5 -48t-47.5 -20z" />
    <glyph glyph-name="uni1EC7.ss03" horiz-adv-x="541" 
d="M281 -9q-62 0 -107.5 20t-74.5 56t-43 81.5t-14 94.5t13.5 95.5t41.5 83.5t72 58.5t104 21.5q57 0 99.5 -19.5t70.5 -54t41.5 -78.5t13.5 -94q0 -7 -0.5 -20t-2.5 -26h-342q4 -59 40 -90t92 -31q41 0 75 13t62 41l61 -74q-31 -28 -62 -45t-64.5 -25t-75.5 -8zM389 266
q2 8 2.5 16t0.5 16q0 22 -7.5 42t-22.5 35.5t-37 25t-50 9.5q-39 0 -65.5 -17t-41 -43.5t-17.5 -57.5h274zM281 -192q-26 0 -45 19.5t-19 45.5q0 28 18.5 46.5t45.5 18.5q28 0 46.5 -18.5t18.5 -46.5q0 -26 -18.5 -45.5t-46.5 -19.5zM119 543l154 170l155 -170h-89l-66 76
l-65 -76h-89z" />
    <glyph glyph-name="edieresis.ss03" horiz-adv-x="541" 
d="M281 -9q-62 0 -107.5 20t-74.5 56t-43 81.5t-14 94.5t13.5 95.5t41.5 83.5t72 58.5t104 21.5q57 0 99.5 -19.5t70.5 -54t41.5 -78.5t13.5 -94q0 -7 -0.5 -20t-2.5 -26h-342q4 -59 40 -90t92 -31q41 0 75 13t62 41l61 -74q-31 -28 -62 -45t-64.5 -25t-75.5 -8zM389 266
q2 8 2.5 16t0.5 16q0 22 -7.5 42t-22.5 35.5t-37 25t-50 9.5q-39 0 -65.5 -17t-41 -43.5t-17.5 -57.5h274zM375 572q-27 0 -46.5 20t-19.5 48t19.5 47t46.5 19q28 0 47.5 -19t19.5 -47t-19.5 -48t-47.5 -20zM172 572q-27 0 -46.5 20t-19.5 48t19 47t47 19t47.5 -19t19.5 -47
t-19.5 -48t-47.5 -20z" />
    <glyph glyph-name="edotaccent.ss03" horiz-adv-x="541" 
d="M281 -9q-62 0 -107.5 20t-74.5 56t-43 81.5t-14 94.5t13.5 95.5t41.5 83.5t72 58.5t104 21.5q57 0 99.5 -19.5t70.5 -54t41.5 -78.5t13.5 -94q0 -7 -0.5 -20t-2.5 -26h-342q4 -59 40 -90t92 -31q41 0 75 13t62 41l61 -74q-31 -28 -62 -45t-64.5 -25t-75.5 -8zM389 266
q2 8 2.5 16t0.5 16q0 22 -7.5 42t-22.5 35.5t-37 25t-50 9.5q-39 0 -65.5 -17t-41 -43.5t-17.5 -57.5h274zM274 572q-27 0 -46.5 20t-19.5 48t19 47t47 19t47.5 -19t19.5 -47t-19.5 -48t-47.5 -20z" />
    <glyph glyph-name="gdotaccent.ss03" horiz-adv-x="520" 
d="M270 -214q-109 0 -172 39.5t-63 107.5q0 6 0.5 14t2.5 16l134 87l30 -29l-65 -81q-1 -3 -1 -5.5v-5.5q0 -31 37.5 -47.5t96.5 -16.5q50 0 80 13.5t30 40.5q0 15 -9 24.5t-27 15.5t-44.5 10.5t-62.5 8.5q-45 7 -88.5 20t-72 39t-28.5 69q0 38 26 69.5t69 51.5l57 -44
q-28 -6 -42 -20.5t-14 -34.5q0 -17 13 -27.5t37.5 -16t58.5 -10.5q51 -6 94 -14t75 -22.5t49.5 -39.5t17.5 -65q0 -71 -57.5 -109t-161.5 -38zM259 143q-60 0 -106 23t-71.5 63.5t-25.5 91.5q0 55 27 95.5t72.5 63t99.5 22.5t99 -22.5t72.5 -64t27.5 -98.5
q0 -52 -24.5 -91.5t-68.5 -61t-102 -21.5zM257 232q43 0 65 26.5t22 63.5q0 40 -24 64.5t-63 24.5q-41 0 -65.5 -24.5t-24.5 -63.5q0 -38 23 -64.5t67 -26.5zM422 393l-81 52l111 90l57 -69zM260 572q-27 0 -46.5 20t-19.5 48t19 47t47 19t47.5 -19t19.5 -47t-19.5 -48
t-47.5 -20z" />
    <glyph glyph-name="i.ss03" horiz-adv-x="239" 
d="M64 0v493h111v-493h-111zM119 572q-27 0 -46.5 20t-19.5 48t19 47t47 19t47.5 -19t19.5 -47t-19.5 -48t-47.5 -20z" />
    <glyph glyph-name="idieresis.ss03" horiz-adv-x="239" 
d="M64 0v493h111v-493h-111zM220 572q-27 0 -46.5 20t-19.5 48t19.5 47t46.5 19q28 0 47.5 -19t19.5 -47t-19.5 -48t-47.5 -20zM17 572q-27 0 -46.5 20t-19.5 48t19 47t47 19t47.5 -19t19.5 -47t-19.5 -48t-47.5 -20z" />
    </font>
</defs>
</svg>
