<?xml version="1.0" standalone="no"?>
<!DOCTYPE svg PUBLIC "-//W3C//DTD SVG 1.1//EN" "http://www.w3.org/Graphics/SVG/1.1/DTD/svg11.dtd" >
<svg xmlns="http://www.w3.org/2000/svg" xmlns:xlink="http://www.w3.org/1999/xlink" version="1.1">
<metadata>
Created by FontForge 20170731 at Wed Nov 16 23:15:30 2022
 By Aleksey,,,
Copyright 2021 The Hanken Grotesk Project Authors (https://github.com/marcologous/hanken-grotesk)
</metadata>
<defs>
<font id="HankenGrotesk-SemiBoldItalic" horiz-adv-x="580" >
  <font-face 
    font-family="Hanken Grotesk SemiBold"
    font-weight="600"
    font-style="italic"
    font-stretch="normal"
    units-per-em="1000"
    panose-1="0 0 0 0 0 0 0 0 0 0"
    ascent="800"
    descent="-200"
    x-height="493"
    cap-height="697"
    bbox="-174 -258 1354 994"
    underline-thickness="40"
    underline-position="-181"
    slope="-8"
    unicode-range="U+0020-FB02"
  />
<missing-glyph horiz-adv-x="507" 
d="M50 0v473h407v-473h-407zM89 40h329v393h-329v-393z" />
    <glyph glyph-name="fi" unicode="fi" horiz-adv-x="538" 
d="M59 0l58 407h-85l13 86h84l5 39q8 57 41 95.5t80 58.5t100 20q62 0 104 -13.5t77 -37.5l-58 -76q-23 19 -52.5 28t-65.5 9q-50 0 -80 -26t-37 -74l-3 -23h204l-14 -86h-203l-57 -407h-111zM333 0l70 493h111l-70 -493h-111z" />
    <glyph glyph-name="fl" unicode="fl" horiz-adv-x="583" 
d="M448 -9q-43 0 -71.5 24.5t-28.5 75.5q0 7 0.5 14t1.5 13l71 484q-17 8 -32.5 11t-30.5 3q-51 0 -80 -24.5t-35 -67.5l-5 -31h94l-13 -86h-93l-58 -407h-110l57 407h-83l13 86h83l5 39q9 57 41.5 95.5t79.5 58.5t98 20q62 0 103 -14t80 -41l-71 -519v-6.5v-6.5
q0 -14 6 -20.5t20 -6.5q10 0 20.5 2.5t22.5 6.5l-8 -97q-23 -8 -43.5 -10.5t-33.5 -2.5z" />
    <glyph glyph-name="f_f" unicode="ff" horiz-adv-x="621" 
d="M59 0l58 407h-85l13 86h84l5 40q8 56 40.5 94.5t81.5 58.5t102 20q35 0 65.5 -7.5t55.5 -23.5q25 19 54 25t58 6q30 0 51 -6t42 -16l-43 -82q-11 7 -21 9.5t-18 2.5q-34 0 -51.5 -19.5t-21.5 -49.5l-7 -52h125l-13 -86h-124l-58 -407h-111l57 407h-171l-57 -407h-111z
M240 493h171l11 71q2 22 14 36q-15 8 -33.5 12t-40.5 4q-54 0 -83.5 -27t-34.5 -64z" />
    <glyph glyph-name="f_f_i" unicode="ffi" horiz-adv-x="827" 
d="M59 0l58 407h-85l13 86h84l5 40q8 56 41 94.5t81.5 58.5t101.5 20q37 0 73.5 -10t64.5 -31q33 23 69 32t72 9q61 0 103 -13.5t78 -37.5l-59 -76q-23 18 -52.5 27.5t-65.5 9.5q-51 0 -80 -25t-35 -67l-5 -31h282l-69 -493h-111l57 407h-171l-58 -407h-110l57 407h-171
l-57 -407h-111zM240 493h171l5 39q3 17 8.5 37.5t13.5 29.5q-13 8 -32.5 12.5t-43.5 4.5q-54 0 -83.5 -27t-34.5 -64z" />
    <glyph glyph-name="f_f_l" unicode="ffl" horiz-adv-x="871" 
d="M738 -9q-44 0 -72 24.5t-28 75.5q0 7 0.5 14t1.5 13l70 484q-17 8 -33.5 11t-35.5 3q-51 0 -80 -25t-35 -67l-5 -31h97l-13 -86h-96l-58 -407h-110l57 407h-171l-57 -407h-111l58 407h-85l13 86h84l5 40q8 56 41 94.5t81.5 58.5t101.5 20q39 0 75 -10.5t62 -29.5
q32 21 69 30.5t73 9.5q63 0 105 -14t81 -40l-70 -514q-1 -4 -1 -8v-9q0 -15 6 -22t20 -7q10 0 20.5 2.5t22.5 6.5l-8 -97q-20 -8 -40.5 -10.5t-34.5 -2.5zM240 493h171l5 39q3 18 8 34.5t15 32.5q-14 8 -33.5 12.5t-43.5 4.5q-53 0 -83 -27t-36 -71z" />
    <glyph glyph-name="hyphen_greater.liga" unicode="&#x2d;&#x3e;" horiz-adv-x="1112" 
d="M513 3l-31 77l390 196v-19h-870l11 82h877l-7 -19l-336 203l45 70l490 -295z" />
    <glyph glyph-name="less_hyphen.liga" unicode="&#x3c;&#x2d;" horiz-adv-x="1134" 
d="M635 593l31 -77l-389 -196l-1 19h871l-11 -82h-877l7 19l335 -203l-45 -70l-489 295z" />
    <glyph glyph-name=".notdef" horiz-adv-x="507" 
d="M50 0v473h407v-473h-407zM89 40h329v393h-329v-393z" />
    <glyph glyph-name=".null" horiz-adv-x="0" 
 />
    <glyph glyph-name="nonmarkingreturn" horiz-adv-x="333" 
 />
    <glyph glyph-name="space" unicode=" " horiz-adv-x="260" 
 />
    <glyph glyph-name="exclam" unicode="!" horiz-adv-x="248" 
d="M76 209l56 488h111l-82 -488h-85zM28 0l18 126h122l-18 -126h-122z" />
    <glyph glyph-name="quotedbl" unicode="&#x22;" horiz-adv-x="357" 
d="M69 411l40 286h94l-40 -286h-94zM239 411l40 286h94l-40 -286h-94z" />
    <glyph glyph-name="numbersign" unicode="#" horiz-adv-x="696" 
d="M84 0l73 205h-116l11 79h132l49 139h-120l11 83h138l71 191h89l-71 -195h130l70 195h89l-71 -195h116l-12 -79h-132l-50 -139h122l-11 -79h-139l-73 -205h-88l73 205h-131l-72 -205h-88zM274 284h130l47 139h-130z" />
    <glyph glyph-name="dollar" unicode="$" horiz-adv-x="560" 
d="M193 -114l19 136h80l-18 -136h-81zM303 673l19 135h81l-19 -135h-81zM270 -13q-73 0 -129 27t-88 74.5t-33 110.5l115 22q2 -67 42.5 -99t98.5 -32q41 0 70 14t44.5 38t15.5 55q0 30 -14 50t-41 35.5t-66 30.5q-60 25 -99 53.5t-57.5 64t-18.5 78.5q0 56 27.5 102t78 73
t117.5 27q73 0 129.5 -33.5t79.5 -94.5l-97 -50q-16 38 -45.5 57t-67.5 19q-33 0 -57 -12.5t-37 -33.5t-13 -48q0 -26 12.5 -43.5t40 -32t69.5 -32.5q58 -23 97 -51t58.5 -64.5t19.5 -85.5q0 -65 -32 -114.5t-89 -77t-131 -27.5z" />
    <glyph glyph-name="percent" unicode="%" horiz-adv-x="739" 
d="M69 0l542 697h82l-542 -697h-82zM514 -9q-60 0 -98.5 38t-38.5 101q0 51 22.5 92.5t60.5 66.5t85 25q41 0 71.5 -18.5t48 -51t17.5 -72.5q0 -49 -23 -90t-61.5 -66t-83.5 -25zM521 65q24 0 44 13t32 35.5t12 49.5q0 34 -20 55.5t-51 21.5q-24 0 -44 -13t-32 -35t-12 -51
q0 -36 20 -56t51 -20zM223 383q-40 0 -71 17t-48.5 48.5t-17.5 74.5q0 50 22.5 92t60.5 66.5t85 24.5q41 0 71.5 -18.5t48 -50.5t17.5 -73q0 -48 -23 -89t-61.5 -66.5t-83.5 -25.5zM230 457q24 0 44 13.5t32 35.5t12 49q0 34 -20 55.5t-51 21.5q-24 0 -44 -12.5t-32 -35
t-12 -51.5q0 -35 20 -55.5t51 -20.5z" />
    <glyph glyph-name="ampersand" unicode="&#x26;" horiz-adv-x="696" 
d="M246 -11q-61 0 -108.5 18t-75 53t-27.5 86q0 52 23 91t59.5 69t77.5 53t76 41q50 26 88.5 50.5t60 52t21.5 59.5q0 24 -15.5 39.5t-48.5 15.5q-26 0 -49 -11.5t-37 -32.5t-14 -50q0 -32 16.5 -59.5t31.5 -49.5l-90 -41q-13 17 -28 39t-25.5 49.5t-10.5 60.5q0 56 29.5 97
t77.5 63.5t104 22.5q75 0 118.5 -36t43.5 -100q0 -60 -32 -105t-83 -80t-108 -67q-29 -16 -59 -32.5t-55.5 -35.5t-41 -41.5t-15.5 -52.5q0 -34 27.5 -52.5t76.5 -18.5q69 0 128 34t104 99t70 155l97 -22q-37 -121 -99 -201.5t-140.5 -120t-167.5 -39.5zM537 -36l-260 355
l94 54l252 -340z" />
    <glyph glyph-name="quotesingle" unicode="'" horiz-adv-x="186" 
d="M69 411l40 286h94l-40 -286h-94z" />
    <glyph glyph-name="parenleft" unicode="(" horiz-adv-x="325" 
d="M121 -204q-35 62 -51.5 146t-16.5 173q0 66 11 143t34 156t59 152t87 131h103q-55 -62 -94 -136t-64 -152t-37 -152.5t-12 -139.5q0 -59 8 -117t25.5 -110t43.5 -94h-96z" />
    <glyph glyph-name="parenright" unicode=")" horiz-adv-x="325" 
d="M-24 -204q76 84 122.5 176.5t68 189.5t21.5 194q0 64 -9 126.5t-25.5 118.5t-41.5 96h93q22 -38 36.5 -91t22 -114t7.5 -124q0 -98 -20 -201t-63 -198t-111 -173h-101z" />
    <glyph glyph-name="asterisk" unicode="*" horiz-adv-x="399" 
d="M153 386l-50 41l102 99l-126 28l30 66l115 -55l5 132h68l-33 -132l129 55l11 -66l-133 -28l75 -99l-58 -41l-50 116z" />
    <glyph glyph-name="plus" unicode="+" horiz-adv-x="560" 
d="M236 5v199h-198v87h198v198h88v-198h199v-87h-199v-199h-88z" />
    <glyph glyph-name="comma" unicode="," horiz-adv-x="240" 
d="M-31 -150l119 303h126l-171 -303h-74z" />
    <glyph glyph-name="hyphen" unicode="-" horiz-adv-x="327" 
d="M42 257l11 82h248l-11 -82h-248z" />
    <glyph glyph-name="period" unicode="." horiz-adv-x="240" 
d="M24 0l18 126h121l-17 -126h-122z" />
    <glyph glyph-name="slash" unicode="/" horiz-adv-x="420" 
d="M-118 -211l488 908h86l-489 -908h-85z" />
    <glyph glyph-name="zero" unicode="0" horiz-adv-x="560" 
d="M251 -9q-61 0 -100.5 20.5t-61.5 56.5t-31 80.5t-9 92.5q0 30 2.5 59.5t6.5 57.5q7 43 17.5 91t30 94t50.5 83t75.5 59t106.5 22q60 0 99.5 -20.5t62 -55.5t31.5 -79.5t9 -92.5q0 -27 -2.5 -57t-6.5 -59q-7 -46 -18.5 -95.5t-31.5 -95t-51 -82t-75 -58t-104 -21.5z
M254 98q50 0 83 34.5t52.5 92.5t29.5 129q5 29 7 56.5t2 50.5q0 63 -20.5 101.5t-72.5 38.5t-85 -35.5t-51.5 -94.5t-29.5 -130q-4 -28 -6.5 -54.5t-2.5 -50.5q0 -40 9 -71t29.5 -49t55.5 -18z" />
    <glyph glyph-name="one" unicode="1" horiz-adv-x="560" 
d="M243 0l77 555l25 -56h-211l12 89h109q34 0 55 16t25 51l6 42h111l-98 -697h-111z" />
    <glyph glyph-name="two" unicode="2" horiz-adv-x="560" 
d="M8 0l10 88q38 22 81.5 50.5t88.5 61.5t86 70t73 76.5t51 81.5t19 84q0 38 -22 61.5t-68 23.5q-45 0 -76 -22t-49.5 -57t-26.5 -75l-106 15q6 47 27.5 91t55 79.5t79.5 55.5t102 20q59 0 102.5 -23t67.5 -64.5t24 -99.5q0 -50 -17 -97.5t-47.5 -90.5t-70.5 -82t-85.5 -73
t-93.5 -63t-94 -53l20 45h360l-15 -103h-476z" />
    <glyph glyph-name="three" unicode="3" horiz-adv-x="560" 
d="M245 -9q-70 0 -122.5 24.5t-81.5 68.5t-29 102q0 8 1 17l2 18h110q0 -6 -0.5 -11t-0.5 -7q0 -51 34 -78t95 -27q49 0 86 15.5t57.5 44t20.5 66.5q0 29 -11.5 48t-33 30t-52 15t-68.5 4l6 88q41 -1 77.5 11t59.5 37t23 63t-23.5 59t-67.5 21q-36 0 -64.5 -14t-46.5 -38.5
t-22 -55.5l-108 13q8 59 43 104.5t88.5 71t117.5 25.5q60 0 103.5 -22t67.5 -61t24 -90q0 -43 -18 -77.5t-51 -58.5t-79 -36v23q37 -6 70 -25t54 -51.5t21 -81.5q0 -63 -35.5 -116.5t-99 -86t-147.5 -32.5z" />
    <glyph glyph-name="four" unicode="4" horiz-adv-x="560" 
d="M292 0l23 165h-316l11 86l391 446h100l-60 -429h111l-15 -103h-111l-23 -165h-111zM104 237l-5 31h232l44 319l10 -18z" />
    <glyph glyph-name="five" unicode="5" horiz-adv-x="560" 
d="M252 -9q-69 0 -120.5 28t-80 76.5t-29.5 106.5l110 13q1 -49 34 -83.5t91 -34.5q37 0 65.5 13.5t49.5 36t31.5 51.5t10.5 60q0 53 -30 84t-83 31q-42 0 -77 -19.5t-61 -51.5l-103 30l118 365h384l-15 -103h-343l67 46l-79 -245l-38 4q38 40 84.5 59t94.5 19
q59 0 103.5 -27t69 -74t24.5 -107q0 -53 -20 -103t-57 -89.5t-88.5 -62.5t-112.5 -23z" />
    <glyph glyph-name="six" unicode="6" horiz-adv-x="561" 
d="M468 697l-211 -271l-16 19q20 10 41 14.5t38 4.5q63 0 110 -26.5t74 -73t27 -105.5q0 -55 -22.5 -104t-61 -85.5t-89 -57.5t-107.5 -21q-65 0 -116 27t-80.5 74.5t-29.5 109.5q0 44 15 84.5t41 75.5l257 335h130zM304 366q-33 0 -63 -12.5t-53 -34.5t-36.5 -51.5
t-13.5 -63.5q0 -33 15 -57t41.5 -37.5t59.5 -13.5q34 0 63.5 13t52.5 34.5t36 51t13 63.5q0 32 -14.5 56.5t-40.5 38t-60 13.5z" />
    <glyph glyph-name="seven" unicode="7" horiz-adv-x="560" 
d="M57 0l415 636l26 -42h-421l14 103h502l-10 -82l-401 -615h-125z" />
    <glyph glyph-name="eight" unicode="8" horiz-adv-x="560" 
d="M251 -9q-62 0 -114.5 21.5t-85 65t-32.5 106.5q0 38 13.5 75.5t43 69t76.5 53.5q-25 16 -40 45.5t-15 66.5q-1 62 34 110t91 75t119 27q53 0 97.5 -20t71 -58.5t26.5 -94.5q1 -33 -9.5 -62.5t-30.5 -53.5t-51 -41q41 -21 62.5 -58.5t21.5 -90.5q0 -70 -38 -123.5
t-101 -83t-139 -29.5zM256 95q49 0 86 18.5t57.5 50.5t20.5 69q0 49 -33 75.5t-91 26.5q-45 0 -82.5 -17t-60 -46.5t-22.5 -72.5q0 -35 16 -58t44.5 -34.5t64.5 -11.5zM300 412q35 0 63.5 14t45.5 39t17 57q0 37 -24.5 59.5t-67.5 22.5q-34 0 -63 -14t-46.5 -38.5
t-17.5 -57.5q0 -38 25.5 -60t67.5 -22z" />
    <glyph glyph-name="nine" unicode="9" horiz-adv-x="560" 
d="M121 0l210 271l16 -19q-20 -10 -40.5 -14.5t-38.5 -4.5q-62 0 -109.5 26.5t-74 73t-26.5 105.5q0 55 22 104t61 85.5t89.5 57.5t107.5 21q65 0 116 -27t80 -74t29 -110q0 -44 -15 -84.5t-41 -75.5l-257 -335h-129zM285 331q33 0 62.5 12.5t53 34.5t36.5 51.5t13 63.5
q0 33 -14.5 57t-41 37.5t-60.5 13.5q-33 0 -63 -13t-52.5 -34.5t-36 -51t-13.5 -63.5q0 -32 15 -56.5t41 -38t60 -13.5z" />
    <glyph glyph-name="colon" unicode=":" horiz-adv-x="240" 
d="M72 343l19 128h122l-18 -128h-123zM24 0l18 126h122l-18 -126h-122z" />
    <glyph glyph-name="semicolon" unicode=";" horiz-adv-x="240" 
d="M-49 -150l116 280h126l-166 -280h-76zM88 343l18 128h123l-18 -128h-123z" />
    <glyph glyph-name="less" unicode="&#x3c;" horiz-adv-x="560" 
d="M527 -8l-500 200v110l500 199v-94l-457 -177v34l457 -178v-94z" />
    <glyph glyph-name="equal" unicode="=" horiz-adv-x="560" 
d="M76 313v88h409v-88h-409zM76 93v87h409v-87h-409z" />
    <glyph glyph-name="greater" unicode="&#x3e;" horiz-adv-x="560" 
d="M33 -8v94l457 178v-34l-457 177v94l500 -199v-110z" />
    <glyph glyph-name="question" unicode="?" horiz-adv-x="515" 
d="M201 207l7 47q7 46 25.5 76t42.5 51t49 38q26 17 46 32t31.5 34.5t11.5 48.5q0 35 -25 57.5t-73 22.5q-62 0 -101 -33t-46 -91l-98 5q15 104 82.5 157.5t163.5 53.5q55 0 98.5 -19t69.5 -56.5t26 -92.5q0 -46 -13.5 -78t-40 -56.5t-67.5 -51.5q-34 -23 -58.5 -47
t-31.5 -64l-5 -34h-94zM160 0l17 126h122l-17 -126h-122z" />
    <glyph glyph-name="at" unicode="@" horiz-adv-x="874" 
d="M394 -110q-99 0 -176 42.5t-121 116.5t-44 169q0 87 33.5 166t92.5 140.5t139 97.5t172 36q102 0 178 -41.5t118.5 -114.5t42.5 -168q0 -38 -8 -82.5t-28 -84t-55 -64.5t-88 -25q-38 0 -65 12.5t-42 34t-15 46.5v6t1 5l2 26l22 -37q-27 -50 -72 -73t-94 -23
q-71 0 -116 44.5t-45 118.5q0 58 25.5 108.5t71 82.5t107.5 32q47 0 80.5 -23t49.5 -66l-13 13l23 68h85l-33 -230q-1 -6 -1.5 -12.5t-0.5 -11.5q0 -20 9 -28.5t29 -8.5q28 0 45.5 19.5t27.5 48.5t14 57.5t4 47.5q0 72 -31.5 126t-90 84.5t-136.5 30.5t-143 -29.5
t-112.5 -80t-74 -114.5t-26.5 -133q0 -72 33 -128t91.5 -88t134.5 -32q45 0 89 13t85 36l34 -74q-49 -29 -103 -42.5t-105 -13.5zM410 162q35 0 62 17.5t42.5 47.5t15.5 66q0 37 -20.5 59t-57.5 22q-35 0 -63 -19.5t-43 -49.5t-15 -62q0 -37 22 -59t57 -22z" />
    <glyph glyph-name="A" unicode="A" horiz-adv-x="661" 
d="M-24 0l373 697h88l177 -697h-124l-118 528l-268 -528h-128zM168 146l50 103h224l23 -103h-297z" />
    <glyph glyph-name="B" unicode="B" horiz-adv-x="608" 
d="M36 0l98 697h235q93 0 145.5 -40t52.5 -113q0 -57 -26.5 -101.5t-75.5 -69.5q46 -16 70.5 -51.5t24.5 -88.5q0 -73 -31.5 -125t-88.5 -80t-134 -28h-270zM167 106h139q67 0 103.5 32.5t36.5 90.5q0 38 -23.5 58.5t-70.5 20.5h-157zM210 412h127q33 0 58.5 14t40 38.5
t14.5 55.5q0 34 -23 52.5t-67 18.5h-125z" />
    <glyph glyph-name="C" unicode="C" horiz-adv-x="707" 
d="M341 -14q-70 0 -123.5 22.5t-90.5 63.5t-56 96t-19 120q0 80 25.5 155.5t74.5 136t119.5 96t159.5 35.5q111 0 184 -55.5t95 -151.5l-112 -34q-14 64 -60 97.5t-114 33.5q-63 0 -111 -26t-81 -69.5t-49.5 -98t-16.5 -112.5q0 -92 47.5 -145.5t134.5 -53.5q73 0 127.5 37
t86.5 99l105 -45q-48 -95 -133.5 -148t-192.5 -53z" />
    <glyph glyph-name="D" unicode="D" horiz-adv-x="676" 
d="M36 0l98 697h197q154 0 236.5 -75t82.5 -214q0 -88 -25 -162.5t-76 -129.5t-128.5 -85.5t-182.5 -30.5h-202zM167 106h69q92 0 151 27.5t91.5 72.5t45 99t12.5 106q0 66 -25.5 105t-74 57t-116.5 18h-85z" />
    <glyph glyph-name="E" unicode="E" 
d="M36 0l98 697h463l-15 -103h-347l-25 -185h320l-15 -104h-320l-29 -202h347l-14 -103h-463z" />
    <glyph glyph-name="F" unicode="F" horiz-adv-x="560" 
d="M36 0l98 697h463l-14 -103h-348l-25 -185h301l-14 -104h-302l-43 -305h-116z" />
    <glyph glyph-name="G" unicode="G" horiz-adv-x="733" 
d="M334 -14q-86 0 -149 37t-98 104.5t-35 158.5q0 83 26 159.5t75.5 136.5t119.5 94.5t158 34.5q111 0 183.5 -55.5t94.5 -151.5l-111 -34q-14 64 -58.5 97.5t-112.5 33.5q-63 0 -111 -26t-81.5 -70.5t-50.5 -100t-17 -115.5q0 -91 47 -142t130 -51q38 0 76 10.5t71 35
t56.5 65.5t32.5 103l5 41l15 -80h-198l14 103h276l-53 -374h-101v121l19 -18q-24 -41 -59.5 -67t-77 -38t-86.5 -12z" />
    <glyph glyph-name="H" unicode="H" horiz-adv-x="688" 
d="M36 0l98 697h116l-40 -285h314l40 285h116l-98 -697h-116l44 305h-315l-43 -305h-116z" />
    <glyph glyph-name="I" unicode="I" horiz-adv-x="258" 
d="M36 0l98 697h116l-98 -697h-116z" />
    <glyph glyph-name="J" unicode="J" horiz-adv-x="554" 
d="M227 -14q-95 0 -151 54t-58 150l115 6q1 -51 25.5 -77t76.5 -26q64 0 97 42.5t43 117.5l47 341h-266l15 103h382l-64 -457q-11 -80 -46.5 -137t-90 -87t-125.5 -30z" />
    <glyph glyph-name="K" unicode="K" horiz-adv-x="653" 
d="M159 214l18 146l368 337h157zM36 0l98 697h116l-98 -697h-116zM470 0l-177 359l95 80l216 -439h-134z" />
    <glyph glyph-name="L" unicode="L" horiz-adv-x="501" 
d="M36 0l98 697h116l-84 -594h302l-15 -103h-417z" />
    <glyph glyph-name="M" unicode="M" horiz-adv-x="851" 
d="M36 0l98 697h169l122 -521h-21l269 521h170l-98 -697h-116l79 562l11 -2l-263 -499h-112l-123 499l10 2l-79 -562h-116z" />
    <glyph glyph-name="N" unicode="N" horiz-adv-x="685" 
d="M36 0l98 697h119l259 -546h-28l77 546h116l-98 -697h-120l-257 547h27l-77 -547h-116z" />
    <glyph glyph-name="O" unicode="O" horiz-adv-x="748" 
d="M341 -14q-89 0 -153.5 37t-100 105t-35.5 160q0 81 26 157t75.5 136t119.5 95t159 35q90 0 154.5 -37t100 -104.5t35.5 -160.5q0 -83 -26 -159t-75.5 -135.5t-120 -94t-159.5 -34.5zM348 96q62 0 109.5 25t81 68.5t50.5 98t17 114.5q0 92 -47 145.5t-134 53.5
q-62 0 -110 -25.5t-81 -69.5t-50 -99t-17 -113q0 -61 21.5 -105.5t62 -68.5t97.5 -24z" />
    <glyph glyph-name="P" unicode="P" horiz-adv-x="559" 
d="M36 0l98 697h216q104 0 160.5 -42.5t56.5 -124.5q0 -76 -31.5 -129t-90.5 -81t-142 -28h-111l-41 -292h-115zM206 395h94q71 0 111 30.5t40 89.5q0 42 -30.5 60.5t-86.5 18.5h-100z" />
    <glyph glyph-name="Q" unicode="Q" horiz-adv-x="780" 
d="M341 -14q-89 0 -153.5 37t-100 105t-35.5 161q0 80 26 156t75 136t119.5 95t159.5 35q90 0 154.5 -37t100 -104.5t35.5 -160.5q0 -83 -26 -159t-75.5 -135.5t-120 -94t-159.5 -34.5zM629 -52l-244 271l78 68l241 -274zM348 96q62 0 109.5 25t81 68.5t50.5 98t17 114.5
q0 92 -47 145.5t-134 53.5q-62 0 -110 -25.5t-81 -69.5t-50 -99t-17 -113q0 -92 47.5 -145t133.5 -53z" />
    <glyph glyph-name="R" unicode="R" horiz-adv-x="607" 
d="M36 0l98 697h216q107 0 162 -43t55 -124q0 -60 -23 -111t-71.5 -83.5t-125.5 -41.5h-33h-36h-85l-42 -294h-115zM423 0l-137 306l116 14l149 -320h-128zM207 395h93q71 0 111 30.5t40 89.5q0 44 -32 61.5t-85 17.5h-99z" />
    <glyph glyph-name="S" unicode="S" horiz-adv-x="572" 
d="M274 -13q-72 0 -128 27t-88 74.5t-34 110.5l116 22q2 -67 42 -99t99 -32q41 0 70 14t44.5 38t15.5 55q0 30 -14.5 50t-41.5 35.5t-66 30.5q-59 25 -98 53.5t-58 64t-19 78.5q0 56 28 102t78.5 73t116.5 27q74 0 130 -33.5t80 -94.5l-98 -50q-15 38 -44.5 57t-67.5 19
q-33 0 -57 -12.5t-37 -33.5t-13 -48q0 -26 12.5 -43.5t40 -32t69.5 -32.5q58 -23 96.5 -51t58.5 -64.5t20 -85.5q0 -65 -32.5 -114.5t-89 -77t-131.5 -27.5z" />
    <glyph glyph-name="T" unicode="T" horiz-adv-x="585" 
d="M199 0l84 594h-222l14 103h560l-14 -103h-221l-84 -594h-117z" />
    <glyph glyph-name="U" unicode="U" horiz-adv-x="657" 
d="M297 -14q-116 0 -176 53t-60 157q0 12 1 27.5t3 31.5l62 442h116l-61 -435q-2 -16 -3 -31t-1 -26q0 -57 27.5 -85t94.5 -28q58 0 94.5 20.5t57 59.5t28.5 96l60 429h115l-62 -443q-19 -135 -93.5 -201.5t-202.5 -66.5z" />
    <glyph glyph-name="V" unicode="V" horiz-adv-x="666" 
d="M257 0l-181 697h125l135 -556h-35l289 556h129l-375 -697h-87z" />
    <glyph glyph-name="W" unicode="W" horiz-adv-x="972" 
d="M190 0l-109 697h119l76 -520l210 480h114l73 -480l224 520h122l-305 -697h-114l-85 520h20l-232 -520h-113z" />
    <glyph glyph-name="X" unicode="X" horiz-adv-x="660" 
d="M-20 0l285 348l-183 349h135l137 -268l212 268h141l-284 -349l186 -348h-136l-139 265l-214 -265h-140z" />
    <glyph glyph-name="Y" unicode="Y" horiz-adv-x="617" 
d="M217 0l39 271l-185 426h129l124 -310l217 310h133l-303 -426l-38 -271h-116z" />
    <glyph glyph-name="Z" unicode="Z" horiz-adv-x="598" 
d="M-6 0l12 96l483 534l13 -36h-401l15 103h502l-13 -96l-471 -520l-13 22h426l-15 -103h-538z" />
    <glyph glyph-name="bracketleft" unicode="[" horiz-adv-x="304" 
d="M6 -248l139 989h209l-11 -74h-118l-118 -841h118l-11 -74h-208z" />
    <glyph glyph-name="backslash" unicode="\" horiz-adv-x="460" 
d="M579 -211h-86l-489 908h87z" />
    <glyph glyph-name="bracketright" unicode="]" horiz-adv-x="306" 
d="M-49 -248l10 74h118l123 841h-118l11 74h207l-145 -989h-206z" />
    <glyph glyph-name="asciicircum" unicode="^" horiz-adv-x="602" 
d="M24 210l269 487h140l133 -487h-116l-109 434h33l-230 -434h-120z" />
    <glyph glyph-name="underscore" unicode="_" horiz-adv-x="463" 
d="M-23 -85l12 85h415l-11 -85h-416z" />
    <glyph glyph-name="grave" unicode="`" horiz-adv-x="306" 
d="M226 555l-123 142h116l88 -142h-81z" />
    <glyph glyph-name="a" unicode="a" 
d="M228 -9q-58 0 -100.5 27t-64.5 75t-22 110q0 58 18 111.5t51.5 96t79.5 67t102 24.5q44 0 78 -17t54.5 -49t21.5 -79l-25 -2l23 138h105l-69 -493h-106l14 137l30 -3q-20 -53 -50 -84.5t-65.5 -45t-74.5 -13.5zM258 93q38 0 68 16.5t50.5 44.5t31 61.5t10.5 68.5
q0 36 -12.5 62t-36 40.5t-56.5 14.5q-38 0 -68 -17t-51 -44.5t-31.5 -61.5t-10.5 -69t12.5 -61.5t36.5 -40.5t57 -14z" />
    <glyph glyph-name="b" unicode="b" 
d="M292 -9q-41 0 -75.5 15t-56.5 48t-28 86l27 -3l-23 -137h-106l98 697h110l-47 -342l-25 8q16 47 44 77.5t64.5 46t77.5 15.5q54 0 96.5 -25t67 -72t24.5 -113q0 -55 -17 -108.5t-49 -97t-78 -69.5t-104 -26zM271 93q36 0 64.5 14.5t49.5 40.5t32 59.5t11 71.5
q0 37 -13 64.5t-37.5 42.5t-58.5 15q-35 0 -64 -15t-49.5 -41t-31.5 -59.5t-11 -70.5t12.5 -64.5t37.5 -42.5t58 -15z" />
    <glyph glyph-name="c" unicode="c" horiz-adv-x="521" 
d="M251 -9q-72 0 -119 29.5t-69.5 79t-22.5 108.5q0 57 18 109.5t53.5 94.5t85 66t111.5 24q75 0 125.5 -37t66.5 -109l-100 -32q-7 38 -29.5 60t-64.5 22q-38 0 -67.5 -18t-49.5 -47t-30 -64t-10 -70q0 -32 11 -59.5t34 -43.5t59 -16q47 0 77 24.5t47 62.5l94 -44
q-37 -73 -94.5 -106.5t-125.5 -33.5z" />
    <glyph glyph-name="d" unicode="d" 
d="M228 -9q-58 0 -100.5 27t-64.5 75t-22 110q0 58 18 111.5t51.5 96t79.5 67t102 24.5q44 0 78 -17t54.5 -49t21.5 -79l-25 -2l47 342h110l-98 -697h-106l14 137l30 -3q-20 -53 -50 -84.5t-65.5 -45t-74.5 -13.5zM262 93q35 0 64 15t49.5 41t31 59.5t10.5 70.5
q0 38 -12.5 65t-37 42t-58.5 15q-35 0 -64.5 -15t-50 -41t-31.5 -59.5t-11 -70.5q0 -38 13 -65.5t38 -42t59 -14.5z" />
    <glyph glyph-name="e" unicode="e" horiz-adv-x="542" 
d="M252 -9q-74 0 -121 28.5t-69 76.5t-22 106q0 55 17 108.5t51 97t83 69t113 25.5q69 0 112.5 -27t65 -73t21.5 -104q0 -22 -3.5 -46t-8.5 -45h-343q-1 -6 -0.5 -11.5t0.5 -11.5q3 -46 32 -70.5t78 -24.5q40 0 74.5 13t65.5 38l59 -75q-45 -36 -95 -55t-110 -19zM398 269
q2 14 3.5 24t1.5 23q0 25 -10 46.5t-31.5 35.5t-57.5 14q-40 0 -70 -18t-49 -46t-26 -58h275z" />
    <glyph glyph-name="f" unicode="f" horiz-adv-x="344" 
d="M69 0l57 407h-94l13 86h94l8 59q9 61 33 94.5t58.5 46.5t73.5 13q32 0 53.5 -6.5t41.5 -15.5l-43 -82q-10 6 -21 9t-20 3q-30 0 -46 -19.5t-20 -49.5l-7 -52h108l-13 -86h-108l-57 -407h-111z" />
    <glyph glyph-name="g" unicode="g" horiz-adv-x="581" 
d="M218 -213q-56 0 -96.5 15.5t-67.5 42.5t-44 59l92 62q14 -34 42 -59t75 -25q32 0 64.5 11t57.5 40t31 84l15 113l15 -15q-32 -58 -77 -82.5t-99 -24.5q-57 0 -98.5 27t-63.5 74t-22 106q0 55 18.5 106.5t51 92t77.5 64.5t98 24q63 0 101 -30.5t48 -80.5l-12 -12l19 114
h107l-68 -483q-10 -76 -45.5 -125.5t-91 -73.5t-127.5 -24zM265 109q34 0 62 13.5t48.5 37t31.5 55t11 67.5q0 35 -12.5 62t-37 42t-58.5 15t-62.5 -14t-49.5 -38.5t-32.5 -56t-11.5 -66.5q0 -34 13.5 -60.5t38.5 -41.5t59 -15z" />
    <glyph glyph-name="h" unicode="h" horiz-adv-x="559" 
d="M30 0l98 697h111l-44 -313l-21 2q19 43 47.5 68.5t62.5 36.5t69 11q75 0 116.5 -39t41.5 -110q0 -9 -0.5 -18.5t-1.5 -18.5l-45 -316h-111l40 281q2 11 2.5 20.5t0.5 20.5q0 44 -19.5 64t-57.5 20q-59 0 -95.5 -41.5t-49.5 -128.5l-33 -236h-111z" />
    <glyph glyph-name="i" unicode="i" horiz-adv-x="239" 
d="M29 0l69 493h111l-69 -493h-111zM104 574l17 123h122l-17 -123h-122z" />
    <glyph glyph-name="j" unicode="j" horiz-adv-x="239" 
d="M1 -213q-22 0 -43.5 4.5t-42.5 10.5l8 94q13 -3 24 -4.5t16 -1.5q24 0 39 12t19 43l77 548h111l-82 -584q-9 -65 -43 -93.5t-83 -28.5zM104 574l17 123h122l-17 -123h-122z" />
    <glyph glyph-name="k" unicode="k" horiz-adv-x="550" 
d="M371 0l-121 236l-99 -94l18 138l224 213h151l-213 -186l164 -307h-124zM29 0l98 697h112l-98 -697h-112z" />
    <glyph glyph-name="l" unicode="l" horiz-adv-x="274" 
d="M144 -9q-45 0 -73 24.5t-28 74.5q0 7 0.5 14t1.5 14l80 579h111l-77 -552q-1 -7 -1 -12v-10q0 -17 8 -24t22 -7q10 0 20 2.5t21 4.5l-14 -96q-20 -7 -38.5 -9.5t-32.5 -2.5z" />
    <glyph glyph-name="m" unicode="m" horiz-adv-x="838" 
d="M30 0l70 493h107l-13 -128l-27 -6q19 58 49 89t64 42.5t65 11.5q42 0 75.5 -16.5t54 -51.5t21.5 -93l-67 -9q24 64 56 101t70 53t78 16q57 0 91 -22t49.5 -58t15.5 -79q0 -11 -0.5 -20t-1.5 -19l-43 -304h-111l40 283q2 10 2.5 19.5t0.5 19.5q0 42 -17 63t-53 21
q-51 0 -84 -39.5t-44 -115.5l-35 -251h-111l40 287q2 11 2.5 20t0.5 18q0 39 -16 60t-52 21q-51 0 -85.5 -39.5t-44.5 -115.5l-36 -251h-111z" />
    <glyph glyph-name="n" unicode="n" horiz-adv-x="559" 
d="M30 0l70 493h107l-12 -109l-21 2q19 43 47.5 68.5t62.5 36.5t69 11q75 0 116.5 -39t41.5 -110v-18.5t-2 -18.5l-45 -316h-111l40 281q2 11 2.5 20.5t0.5 20.5q0 44 -19.5 64t-57.5 20q-59 0 -95.5 -41.5t-49.5 -128.5l-33 -236h-111z" />
    <glyph glyph-name="o" unicode="o" horiz-adv-x="573" 
d="M255 -9q-64 0 -113 28t-76 77.5t-27 114.5q0 59 20.5 111t57.5 92.5t88 64t112 23.5q66 0 114 -27.5t75 -76.5t27 -114q0 -59 -21 -112t-58.5 -94t-88 -64t-110.5 -23zM262 89q39 0 68.5 16.5t50.5 44t31.5 61.5t10.5 70q0 54 -28.5 89t-83.5 35q-40 0 -70.5 -16.5
t-51 -45t-31 -62t-10.5 -67.5q0 -55 29.5 -90t84.5 -35z" />
    <glyph glyph-name="p" unicode="p" 
d="M2 -204l98 697h106l-14 -137l-31 2q21 54 50.5 85.5t65.5 45t75 13.5q60 0 101.5 -27t63.5 -75t22 -110q0 -58 -17.5 -111.5t-50 -96t-78 -67t-101.5 -24.5q-43 0 -77.5 17t-55.5 49.5t-25 78.5l25 2l-47 -342h-110zM270 92q36 0 65 15t50 40.5t32 59.5t11 71t-13 64.5
t-37.5 42.5t-58.5 15q-36 0 -65 -15t-49.5 -41t-31 -59.5t-10.5 -70.5t12.5 -64.5t37 -42.5t57.5 -15z" />
    <glyph glyph-name="q" unicode="q" 
d="M342 -204l47 342l25 -8q-16 -46 -44 -77t-64.5 -46.5t-77.5 -15.5q-53 0 -96 25t-67.5 72t-24.5 113q0 55 17 108.5t49 97t78 69.5t104 26q42 0 76 -15t56.5 -48t27.5 -86l-26 3l22 137h106l-98 -697h-110zM261 92q36 0 64.5 15t49 41t31.5 59.5t11 70.5q0 38 -12.5 65
t-37 42t-58.5 15q-35 0 -64 -14.5t-50 -40.5t-32 -59.5t-11 -71.5q0 -37 13 -64.5t38 -42.5t58 -15z" />
    <glyph glyph-name="r" unicode="r" horiz-adv-x="419" 
d="M29 0l70 493h108l-15 -133l-22 3q10 43 38.5 74.5t65 48t70.5 16.5q24 0 45.5 -6.5t43.5 -21.5l-63 -96q-10 6 -26 10t-30 4q-47 0 -76 -24.5t-44.5 -64.5t-22.5 -88l-30 -215h-112z" />
    <glyph glyph-name="s" unicode="s" horiz-adv-x="476" 
d="M211 -9q-55 0 -95 16t-66.5 41t-40.5 49l81 60q17 -36 49 -57t75 -21q29 0 51 8.5t34.5 24.5t12.5 35q0 18 -11.5 29.5t-32 19.5t-49.5 16q-24 7 -50.5 16t-49.5 23.5t-36.5 37.5t-13.5 56q0 47 25 82t69 55t101 20q61 0 106.5 -24.5t66.5 -70.5l-74 -48q-15 30 -42 43
t-60 13q-34 0 -60.5 -15t-26.5 -42q0 -19 18.5 -30t62.5 -22q39 -9 78 -23.5t64 -42t25 -75.5q0 -52 -27 -91t-74.5 -61t-109.5 -22z" />
    <glyph glyph-name="t" unicode="t" horiz-adv-x="360" 
d="M214 -9q-35 0 -64 12t-46 38.5t-17 68.5q0 8 0.5 17t2.5 22l65 464l121 62l-71 -509q-1 -8 -2 -17.5t-1 -18.5q0 -24 10 -36t34 -12q13 0 27.5 2.5t30.5 8.5l-13 -90q-20 -6 -39.5 -9t-37.5 -3zM32 407l13 86h315l-11 -86h-317z" />
    <glyph glyph-name="u" unicode="u" horiz-adv-x="559" 
d="M206 -9q-79 0 -119 40.5t-40 112.5q0 11 1 21.5t2 21.5l43 306h111l-39 -282q-1 -11 -2 -20.5t-1 -20.5q0 -41 18 -61.5t60 -20.5q44 0 73.5 23t47 67.5t26.5 105.5l29 209h111l-69 -493h-107l11 106l18 -9q-29 -57 -75 -81.5t-99 -24.5z" />
    <glyph glyph-name="v" unicode="v" horiz-adv-x="530" 
d="M186 0l-133 493h121l75 -349l176 349h122l-269 -493h-92z" />
    <glyph glyph-name="w" unicode="w" horiz-adv-x="752" 
d="M138 0l-81 493h117l42 -323l145 323h96l53 -321l136 321h119l-220 -493h-98l-56 336l-151 -336h-102z" />
    <glyph glyph-name="x" unicode="x" horiz-adv-x="534" 
d="M-14 0l207 248l-135 245h129l88 -171l137 171h136l-208 -245l136 -248h-128l-89 174l-138 -174h-135z" />
    <glyph glyph-name="y" unicode="y" horiz-adv-x="530" 
d="M43 -203l133 236l-123 460h121l75 -349l176 349h122l-381 -696h-123z" />
    <glyph glyph-name="z" unicode="z" horiz-adv-x="471" 
d="M0 0l10 75l333 353l8 -28h-282l13 93h384l-10 -80l-330 -355l-7 36h290l-13 -94h-396z" />
    <glyph glyph-name="braceleft" unicode="{" horiz-adv-x="310" 
d="M151 -248q-46 0 -71 29t-25 79q0 7 0.5 15t1.5 16l34 239q1 5 1 10v10q0 32 -15 44.5t-36 14.5l4 76q17 2 33.5 11t29.5 26.5t16 46.5l34 239q9 64 40 98.5t85 34.5h77l-10 -71h-33q-31 0 -46 -20.5t-20 -49.5l-34 -239q-6 -48 -26.5 -73t-57.5 -40l-3 -6q25 -12 41 -33
t16 -58q0 -7 -0.5 -13t-1.5 -12l-34 -239q-1 -6 -1.5 -11.5t-0.5 -10.5q0 -19 9.5 -30.5t33.5 -11.5h39l-10 -71h-70z" />
    <glyph glyph-name="bar" unicode="|" horiz-adv-x="267" 
d="M22 -254l140 1000h83l-140 -1000h-83z" />
    <glyph glyph-name="braceright" unicode="}" horiz-adv-x="311" 
d="M-51 -248l10 71h33q31 0 47 19t21 52l34 238q4 30 12 50t25 35t49 28v6q-32 16 -42.5 39t-10.5 48q0 8 1 15.5t2 14.5l34 238q1 8 1 12v8q0 18 -8.5 31t-35.5 13h-38l10 71h71q33 0 53.5 -14t29.5 -38t9 -53q0 -7 -0.5 -15.5t-2.5 -19.5l-34 -239q-1 -4 -1.5 -8t-0.5 -9
q0 -21 11 -39t42 -22l-5 -76q-22 -1 -39.5 -14t-28 -32t-13.5 -39l-35 -239q-4 -32 -16.5 -62.5t-38 -50t-70.5 -19.5h-75z" />
    <glyph glyph-name="asciitilde" unicode="~" horiz-adv-x="560" 
d="M367 151q-35 0 -57 11t-36 28t-25 34t-24 28.5t-34 11.5t-32.5 -24t-11.5 -61h-89q0 73 36.5 118.5t96.5 45.5q37 0 60 -11.5t37.5 -28.5t25.5 -34t23 -28.5t30 -11.5q22 0 35.5 28t13.5 69h87q0 -77 -36.5 -126t-99.5 -49z" />
    <glyph glyph-name="uni00A0" unicode="&#xa0;" horiz-adv-x="260" 
 />
    <glyph glyph-name="exclamdown" unicode="&#xa1;" horiz-adv-x="248" 
d="M172 284l-56 -488h-111l82 488h85zM220 493l-18 -126h-122l18 126h122z" />
    <glyph glyph-name="cent" unicode="&#xa2;" horiz-adv-x="560" 
d="M200 -113l19 137h81l-20 -137h-80zM282 467l19 134h80l-18 -134h-81zM271 -9q-72 0 -119 29.5t-70 79t-23 108.5q0 57 18.5 109.5t54 94.5t85 66t111.5 24q75 0 125.5 -37t66.5 -109l-100 -32q-7 38 -29.5 60t-64.5 22q-38 0 -67.5 -18t-49.5 -47t-30 -64t-10 -70
q0 -32 11 -59.5t34 -43.5t59 -16q47 0 77 24.5t47 62.5l93 -44q-36 -73 -93.5 -106.5t-125.5 -33.5z" />
    <glyph glyph-name="sterling" unicode="&#xa3;" horiz-adv-x="560" 
d="M8 0l14 97q45 18 77.5 41.5t50.5 51t19 56.5q1 18 -0.5 34t-4.5 29h-109l11 83h86q-1 16 -2 33t-1 33q0 76 29 133t81 89t120 32q81 0 131.5 -42.5t61.5 -110.5l-89 -29q-7 45 -36 66.5t-67 21.5q-45 0 -76.5 -21t-47.5 -58t-16 -85q0 -16 1 -30.5t2 -31.5h213l-11 -83
h-190q2 -15 3.5 -34t0.5 -40q-1 -25 -9.5 -48.5t-24 -43.5t-37 -34.5t-49.5 -22.5v8h362l-14 -94h-479z" />
    <glyph glyph-name="currency" unicode="&#xa4;" horiz-adv-x="611" 
d="M93 61l-52 62l68 60q-13 25 -19.5 50.5t-6.5 52.5q0 42 15.5 84t45.5 75l-50 54l66 62l50 -58q32 21 67 31t67 10q37 0 69 -11t58 -32l67 60l55 -60l-69 -61q14 -23 20.5 -49t6.5 -54q0 -42 -16 -84t-46 -76l51 -54l-67 -62l-50 57q-33 -21 -66.5 -30t-66.5 -9
q-38 0 -70.5 11.5t-58.5 31.5zM297 163q41 0 72.5 14.5t52.5 39.5t32.5 55t11.5 61q0 34 -14 62.5t-41.5 46.5t-71.5 18q-40 0 -71 -15t-52.5 -40t-32.5 -55t-11 -61q0 -32 13.5 -61.5t41 -47t70.5 -17.5z" />
    <glyph glyph-name="yen" unicode="&#xa5;" horiz-adv-x="560" 
d="M190 0l14 105h-162l13 90h162l10 71h-162l12 90h115l-126 341h123l108 -318l202 318h126l-220 -341h110l-12 -90h-160l-10 -71h159l-12 -90h-160l-15 -105h-115z" />
    <glyph glyph-name="brokenbar" unicode="&#xa6;" horiz-adv-x="267" 
d="M104 330l58 416h83l-58 -416h-83zM22 -254l57 409h83l-57 -409h-83z" />
    <glyph glyph-name="section" unicode="&#xa7;" horiz-adv-x="597" 
d="M238 -211q-44 0 -83 13.5t-70 41t-49 69.5l102 53q14 -37 43.5 -55t62.5 -18q30 0 55 13t40 34.5t15 46.5q0 27 -17 44.5t-44 30.5t-59 25q-32 13 -63 27t-57 35t-42 51t-16 75q0 47 20 90t59 78q-3 10 -5.5 23.5t-2.5 29.5q0 59 30.5 106.5t84.5 75.5t122 28t119.5 -31
t76.5 -92l-101 -53q-13 35 -39.5 54.5t-65.5 19.5q-31 0 -56.5 -13.5t-39.5 -34.5t-14 -46q0 -27 17 -45.5t44.5 -31t58.5 -25.5q31 -12 62 -27t57.5 -36t42 -50.5t15.5 -72.5q0 -46 -20 -90t-59 -79q4 -12 6 -24.5t2 -27.5q0 -62 -31.5 -110t-83.5 -75t-117 -27zM395 129
q16 16 25.5 35t9.5 40q0 29 -16.5 46.5t-44 31t-63.5 28.5q-26 12 -54 24.5t-49 28.5q-17 -15 -26.5 -35.5t-9.5 -39.5q0 -30 19.5 -50.5t50 -34.5t62.5 -27q21 -8 35 -13.5t24 -10.5t18.5 -10t18.5 -13z" />
    <glyph glyph-name="dieresis" unicode="&#xa8;" horiz-adv-x="415" 
d="M274 574l18 123h119l-18 -123h-119zM86 574l17 123h120l-17 -123h-120z" />
    <glyph glyph-name="copyright" unicode="&#xa9;" horiz-adv-x="812" 
d="M406 -5q-73 0 -137.5 27.5t-113 76t-76 113t-27.5 137.5t27.5 137t76 112.5t113 76t137.5 27.5t137 -27.5t112.5 -76t76 -112.5t27.5 -137t-27.5 -137.5t-76 -113t-112.5 -76t-137 -27.5zM408 134q-65 0 -108.5 30t-65.5 79t-22 104t21.5 104.5t64.5 80.5t109 31
q61 0 107.5 -30.5t69.5 -90.5l-87 -33q-10 30 -33.5 50.5t-56.5 20.5q-36 0 -59 -19.5t-34 -50t-11 -63.5t11 -62.5t34 -48t59 -18.5q34 0 57 19t32 50l83 -32q-20 -56 -65 -88.5t-106 -32.5zM406 48q63 0 117.5 23.5t95.5 64.5t64.5 96t23.5 117q0 63 -23.5 117t-64.5 95
t-95.5 64.5t-117.5 23.5q-62 0 -116.5 -23.5t-95.5 -64t-64.5 -95t-23.5 -117.5q0 -62 23.5 -117t64.5 -96t95.5 -64.5t116.5 -23.5z" />
    <glyph glyph-name="ordfeminine" unicode="&#xaa;" horiz-adv-x="482" 
d="M204 349q-53 0 -88.5 29.5t-35.5 79.5q0 54 38.5 79.5t95.5 25.5h103q0 5 -0.5 11.5t-2.5 12.5q-5 29 -24 44.5t-53 15.5q-36 0 -58.5 -15.5t-37.5 -37.5l-50 34q30 43 64 60.5t80 17.5q68 0 106 -38t38 -102v-209h-58l-1 48q-46 -56 -116 -56zM219 409q28 0 50 12t36 35
q5 12 7.5 24t4.5 24h-99q-33 0 -51 -12.5t-18 -35.5q0 -21 18 -34t52 -13z" />
    <glyph glyph-name="guillemotleft" unicode="&#xab;" horiz-adv-x="517" 
d="M467 49l-217 204l273 203l-15 -119l-126 -84l100 -86zM220 49l-217 204l273 203l-15 -119l-127 -84l101 -86z" />
    <glyph glyph-name="logicalnot" unicode="&#xac;" horiz-adv-x="560" 
d="M394 19v185h-366v87h454v-272h-88z" />
    <glyph glyph-name="uni00AD" unicode="&#xad;" horiz-adv-x="327" 
d="M42 257l11 82h248l-11 -82h-248z" />
    <glyph glyph-name="registered" unicode="&#xae;" horiz-adv-x="616" 
d="M308 190q-71 0 -130 32.5t-93.5 90.5t-34.5 135t34.5 135t93.5 90.5t130 32.5t129.5 -32.5t93 -90.5t34.5 -135t-34.5 -135t-93 -90.5t-129.5 -32.5zM308 241q57 0 104 26t75 72.5t28 108.5q0 63 -28 109.5t-75 72.5t-104 26q-58 0 -105 -26t-75 -72.5t-28 -109.5
q0 -62 28 -108.5t75 -72.5t105 -26zM227 304v289h92q52 0 75 -22.5t23 -61.5q0 -31 -15.5 -50.5t-43.5 -26.5l68 -128h-53l-62 121h-35v-121h-49zM277 469h37q23 0 38.5 8.5t15.5 31.5q0 24 -16 32t-38 8h-37v-80z" />
    <glyph glyph-name="macron" unicode="&#xaf;" horiz-adv-x="366" 
d="M86 572l14 65h268l-15 -65h-267z" />
    <glyph glyph-name="degree" unicode="&#xb0;" horiz-adv-x="420" 
d="M239 419q-36 0 -65.5 17t-46.5 46.5t-17 66.5q0 42 22.5 77.5t58.5 57.5t77 22q38 0 67.5 -17t46.5 -46t17 -66q0 -41 -22.5 -77.5t-59 -58.5t-78.5 -22zM247 493q21 0 38.5 10.5t28.5 28t11 38.5q0 26 -18 44t-46 18q-20 0 -37.5 -10.5t-28.5 -28t-11 -37.5
q0 -27 18 -45t45 -18z" />
    <glyph glyph-name="plusminus" unicode="&#xb1;" horiz-adv-x="560" 
d="M236 126v160h-203v88h203v158h88v-158h203v-88h-203v-160h-88zM33 -41v89h494v-89h-494z" />
    <glyph glyph-name="uni00B2" unicode="&#xb2;" horiz-adv-x="368" 
d="M75 488l6 53q23 14 49.5 30.5t53 36.5t51 42t44 46t30.5 48.5t11 50.5q0 22 -13 36.5t-41 14.5q-27 0 -45.5 -13t-29.5 -34.5t-16 -44.5l-63 8q4 29 16 55.5t33 47.5t48.5 33t60.5 12q36 0 62 -13.5t40 -38.5t14 -60q0 -30 -10 -58.5t-28 -54.5t-42 -49t-51.5 -43.5
t-56.5 -38t-57 -31.5l13 27h215l-8 -62h-286z" />
    <glyph glyph-name="uni00B3" unicode="&#xb3;" horiz-adv-x="354" 
d="M209 483q-42 0 -73.5 14.5t-49 40.5t-17.5 62q0 5 0.5 10t1.5 10h66q-1 -3 -1 -6v-4q0 -31 20.5 -47.5t57.5 -16.5q29 0 51 10t34.5 27t12.5 40q0 17 -7 28.5t-19.5 18t-31 9t-41.5 2.5l3 52q25 0 47 7t35.5 22t13.5 38t-14 35.5t-40 12.5q-22 0 -38.5 -8.5t-27.5 -23
t-14 -33.5l-64 8q5 36 25.5 63t52.5 42t71 15q36 0 62 -13t40.5 -36.5t14.5 -53.5q0 -26 -11 -46.5t-31 -35t-47 -21.5v13q22 -3 42 -14.5t32.5 -31t12.5 -49.5q0 -37 -21.5 -69t-59.5 -51.5t-88 -19.5z" />
    <glyph glyph-name="acute" unicode="&#xb4;" horiz-adv-x="311" 
d="M83 555l116 142h119l-154 -142h-81z" />
    <glyph glyph-name="uni00B5" unicode="&#xb5;" horiz-adv-x="559" 
d="M1 -164l92 657h111l-41 -288q-1 -10 -2 -20.5t-1 -16.5q0 -36 17.5 -58t64.5 -22q46 0 75 26t46 71.5t25 104.5l28 203h111l-69 -493h-103l11 114l15 -17q-31 -56 -76.5 -81t-98.5 -25q-25 0 -41 8t-24 24l-29 -187h-111z" />
    <glyph glyph-name="paragraph" unicode="&#xb6;" horiz-adv-x="601" 
d="M216 -121l64 428q-53 0 -99 20.5t-73.5 59t-27.5 93.5q0 51 21 91.5t57 68.5t80 42.5t91 14.5h66l-115 -818h-64zM389 -121l115 818h63l-115 -818h-63z" />
    <glyph glyph-name="periodcentered" unicode="&#xb7;" horiz-adv-x="316" 
d="M101 286l18 126h116l-18 -126h-116z" />
    <glyph glyph-name="cedilla" unicode="&#xb8;" horiz-adv-x="278" 
d="M64 -258q-18 0 -42.5 8t-42.5 27l37 53q9 -10 22.5 -17t26.5 -7q21 0 34 11t13 32q0 19 -10 30t-26.5 16t-36 7t-38.5 2l66 106h68l-47 -62q25 -5 46 -16.5t33 -31t12 -47.5q0 -49 -32.5 -80t-82.5 -31z" />
    <glyph glyph-name="uni00B9" unicode="&#xb9;" horiz-adv-x="443" 
d="M240 488l46 333l15 -33h-127l8 53h65q20 0 32.5 9.5t15.5 30.5l3 25h67l-58 -418h-67z" />
    <glyph glyph-name="ordmasculine" unicode="&#xba;" horiz-adv-x="506" 
d="M253 352q-52 0 -91 24t-61 64.5t-22 88.5q0 49 22 89t61.5 64t90.5 24t90 -24t61.5 -64t22.5 -89t-22.5 -89t-61.5 -64t-90 -24zM253 413q35 0 57.5 16t33.5 42.5t11 57.5q0 32 -11 58.5t-33.5 42t-57.5 15.5t-57.5 -15.5t-33.5 -42t-11 -58.5q0 -31 10.5 -57.5
t33.5 -42.5t58 -16z" />
    <glyph glyph-name="guillemotright" unicode="&#xbb;" horiz-adv-x="462" 
d="M-6 49l-16 118l101 86l-126 84l-15 119l273 -203zM241 49l-16 118l102 86l-127 84l-15 119l273 -203z" />
    <glyph glyph-name="onequarter" unicode="&#xbc;" horiz-adv-x="803" 
d="M100 279l46 333l15 -33h-127l8 53h65q21 0 33.5 9.5t14.5 30.5l4 25h66l-58 -418h-67zM59 0l513 697h82l-513 -697h-82zM635 0l14 99h-189l7 52l234 267h60l-37 -257h67l-8 -62h-67l-14 -99h-67zM522 143l-3 18h140l26 191l6 -10z" />
    <glyph glyph-name="onehalf" unicode="&#xbd;" horiz-adv-x="780" 
d="M100 279l46 333l15 -33h-127l8 53h65q21 0 33.5 9.5t14.5 30.5l4 25h66l-58 -418h-67zM59 0l513 697h82l-513 -697h-82zM455 0l5 53q23 14 49.5 30.5t53 36.5t51 42t44 46t31 48.5t11.5 50.5q0 22 -13.5 36.5t-41.5 14.5q-27 0 -45.5 -13t-29.5 -34.5t-16 -44.5l-63 8
q4 29 16.5 55.5t33 47.5t48 33t60.5 12q36 0 62 -13.5t40.5 -38.5t14.5 -60q0 -30 -10.5 -58.5t-28.5 -54.5t-42 -49t-51.5 -43.5t-56.5 -38t-57 -31.5l13 27h215l-8 -62h-285z" />
    <glyph glyph-name="threequarters" unicode="&#xbe;" horiz-adv-x="913" 
d="M152 274q-42 0 -74 14.5t-49 40.5t-17 62q0 5 0.5 10t1.5 10h66q-1 -3 -1 -6v-4q0 -31 20.5 -47.5t57.5 -16.5q29 0 51 10t34 27t12 40q0 17 -6.5 28.5t-19.5 18t-31.5 9t-41.5 2.5l4 52q25 0 47 7t35.5 22t13.5 38t-14 35.5t-40 12.5q-22 0 -39 -8.5t-27.5 -23
t-13.5 -33.5l-65 8q5 36 26 63t53 42t71 15q35 0 61.5 -13t41 -36.5t14.5 -53.5q0 -26 -11 -46.5t-31 -35t-48 -21.5v13q23 -3 43 -14.5t32 -31t12 -49.5q0 -37 -21 -69t-59 -51.5t-88 -19.5zM169 0l513 697h81l-513 -697h-81zM745 0l14 99h-189l6 52l235 267h60l-37 -257
h67l-9 -62h-66l-14 -99h-67zM632 143l-3 18h140l26 191l6 -10z" />
    <glyph glyph-name="questiondown" unicode="&#xbf;" horiz-adv-x="390" 
d="M290 286l-7 -47q-6 -46 -24.5 -76t-43 -50.5t-49.5 -38.5q-25 -17 -45.5 -32t-32 -34t-11.5 -49q0 -35 26 -57.5t72 -22.5q64 0 102 33.5t46 90.5l97 -5q-15 -103 -82 -157t-164 -54q-53 0 -97.5 19t-70.5 56.5t-26 92.5q0 47 13.5 78.5t41 56.5t67.5 51q34 23 58.5 47
t30.5 64l5 34h94zM332 493l-18 -126h-122l18 126h122z" />
    <glyph glyph-name="Agrave" unicode="&#xc0;" horiz-adv-x="661" 
d="M-24 0l373 697h88l177 -697h-124l-118 528l-268 -528h-128zM168 146l50 103h224l23 -103h-297zM360 759l-123 142h116l88 -142h-81z" />
    <glyph glyph-name="Aacute" unicode="&#xc1;" horiz-adv-x="661" 
d="M-24 0l373 697h88l177 -697h-124l-118 528l-268 -528h-128zM168 146l50 103h224l23 -103h-297zM357 759l116 142h119l-154 -142h-81z" />
    <glyph glyph-name="Acircumflex" unicode="&#xc2;" horiz-adv-x="661" 
d="M-24 0l373 697h88l177 -697h-124l-118 528l-268 -528h-128zM168 146l50 103h224l23 -103h-297zM245 747l179 170l131 -170h-87l-53 76l-77 -76h-93z" />
    <glyph glyph-name="Atilde" unicode="&#xc3;" horiz-adv-x="661" 
d="M-24 0l373 697h88l177 -697h-124l-118 528l-268 -528h-128zM168 146l50 103h224l23 -103h-297zM470 742q-25 0 -41 7t-26 18t-18 21.5t-16.5 17.5t-19.5 7q-18 0 -32 -18.5t-18 -50.5l-63 6q8 60 39 92t76 32q23 0 37.5 -7t25 -18t18.5 -21.5t16.5 -18t19.5 -7.5
q16 0 30 20t18 52l67 -6q-9 -61 -39 -93.5t-74 -32.5z" />
    <glyph glyph-name="Adieresis" unicode="&#xc4;" horiz-adv-x="661" 
d="M-24 0l373 697h88l177 -697h-124l-118 528l-268 -528h-128zM168 146l50 103h224l23 -103h-297zM440 778l18 123h119l-18 -123h-119zM252 778l17 123h120l-17 -123h-120z" />
    <glyph glyph-name="Aring" unicode="&#xc5;" horiz-adv-x="661" 
d="M-24 0l373 697h88l177 -697h-124l-118 528l-268 -528h-128zM168 146l50 103h224l23 -103h-297zM389 640q-45 0 -73 30t-28 71q0 32 17 59.5t44.5 44t59.5 16.5q42 0 71 -28.5t29 -72.5q0 -32 -16.5 -59.5t-44 -44t-59.5 -16.5zM394 700q24 0 39.5 17t15.5 40
q0 19 -11 31.5t-32 12.5q-26 0 -41.5 -16.5t-15.5 -39.5q0 -19 12 -32t33 -13z" />
    <glyph glyph-name="AE" unicode="&#xc6;" horiz-adv-x="917" 
d="M-24 0l372 697h586l-15 -103h-353l-27 -193h309l-14 -104h-310l-27 -194h353l-14 -103h-470l84 596h-44l-302 -596h-128zM156 146l52 106h222l-15 -106h-259z" />
    <glyph glyph-name="Ccedilla" unicode="&#xc7;" horiz-adv-x="707" 
d="M341 -14q-70 0 -123.5 22.5t-90.5 63.5t-56 96t-19 120q0 80 25.5 155.5t74.5 136t119.5 96t159.5 35.5q111 0 184 -55.5t95 -151.5l-112 -34q-14 64 -60 97.5t-114 33.5q-63 0 -111 -26t-81 -69.5t-49.5 -98t-16.5 -112.5q0 -92 47.5 -145.5t134.5 -53.5q73 0 127.5 37
t86.5 99l105 -45q-48 -95 -133.5 -148t-192.5 -53zM294 -258q-18 0 -42.5 8t-42.5 27l37 53q9 -10 22.5 -17t26.5 -7q21 0 34 11t13 32q0 19 -10 30t-26.5 16t-36 7t-38.5 2l66 106h68l-47 -62q25 -5 46 -16.5t33 -31t12 -47.5q0 -49 -32.5 -80t-82.5 -31z" />
    <glyph glyph-name="Egrave" unicode="&#xc8;" 
d="M36 0l98 697h463l-15 -103h-347l-25 -185h320l-15 -104h-320l-29 -202h347l-14 -103h-463zM332 759l-123 142h116l88 -142h-81z" />
    <glyph glyph-name="Eacute" unicode="&#xc9;" 
d="M36 0l98 697h463l-15 -103h-347l-25 -185h320l-15 -104h-320l-29 -202h347l-14 -103h-463zM328 759l116 142h119l-154 -142h-81z" />
    <glyph glyph-name="Ecircumflex" unicode="&#xca;" 
d="M36 0l98 697h463l-15 -103h-347l-25 -185h320l-15 -104h-320l-29 -202h347l-14 -103h-463zM216 747l179 170l131 -170h-87l-53 76l-77 -76h-93z" />
    <glyph glyph-name="Edieresis" unicode="&#xcb;" 
d="M36 0l98 697h463l-15 -103h-347l-25 -185h320l-15 -104h-320l-29 -202h347l-14 -103h-463zM411 778l18 123h119l-18 -123h-119zM223 778l17 123h120l-17 -123h-120z" />
    <glyph glyph-name="Igrave" unicode="&#xcc;" horiz-adv-x="258" 
d="M36 0l98 697h116l-98 -697h-116zM159 759l-123 142h116l88 -142h-81z" />
    <glyph glyph-name="Iacute" unicode="&#xcd;" horiz-adv-x="258" 
d="M36 0l98 697h116l-98 -697h-116zM155 759l116 142h119l-154 -142h-81z" />
    <glyph glyph-name="Icircumflex" unicode="&#xce;" horiz-adv-x="258" 
d="M36 0l98 697h116l-98 -697h-116zM49 747l173 170l129 -170h-84l-54 76l-74 -76h-90z" />
    <glyph glyph-name="Idieresis" unicode="&#xcf;" horiz-adv-x="258" 
d="M36 0l98 697h116l-98 -697h-116zM238 778l18 123h119l-18 -123h-119zM50 778l17 123h120l-17 -123h-120z" />
    <glyph glyph-name="Eth" unicode="&#xd0;" horiz-adv-x="676" 
d="M36 0l98 697h197q154 0 236.5 -75t82.5 -214q0 -88 -25 -162.5t-76 -129.5t-128.5 -85.5t-182.5 -30.5h-202zM167 106h69q92 0 151 27.5t91.5 72.5t45 99t12.5 106q0 66 -25.5 105t-74 57t-116.5 18h-85zM6 312l10 74h301l-10 -74h-301z" />
    <glyph glyph-name="Ntilde" unicode="&#xd1;" horiz-adv-x="685" 
d="M36 0l98 697h119l259 -546h-28l77 546h116l-98 -697h-120l-257 547h27l-77 -547h-116zM479 742q-25 0 -41 7t-26 18t-18 21.5t-16.5 17.5t-19.5 7q-18 0 -32 -18.5t-18 -50.5l-63 6q8 60 39 92t76 32q23 0 37.5 -7t25 -18t18.5 -21.5t16.5 -18t19.5 -7.5q16 0 30 20
t18 52l67 -6q-9 -61 -39 -93.5t-74 -32.5z" />
    <glyph glyph-name="Ograve" unicode="&#xd2;" horiz-adv-x="748" 
d="M341 -14q-89 0 -153.5 37t-100 105t-35.5 160q0 81 26 157t75.5 136t119.5 95t159 35q90 0 154.5 -37t100 -104.5t35.5 -160.5q0 -83 -26 -159t-75.5 -135.5t-120 -94t-159.5 -34.5zM348 96q62 0 109.5 25t81 68.5t50.5 98t17 114.5q0 92 -47 145.5t-134 53.5
q-62 0 -110 -25.5t-81 -69.5t-50 -99t-17 -113q0 -61 21.5 -105.5t62 -68.5t97.5 -24zM402 759l-123 142h116l88 -142h-81z" />
    <glyph glyph-name="Oacute" unicode="&#xd3;" horiz-adv-x="748" 
d="M341 -14q-89 0 -153.5 37t-100 105t-35.5 160q0 81 26 157t75.5 136t119.5 95t159 35q90 0 154.5 -37t100 -104.5t35.5 -160.5q0 -83 -26 -159t-75.5 -135.5t-120 -94t-159.5 -34.5zM348 96q62 0 109.5 25t81 68.5t50.5 98t17 114.5q0 92 -47 145.5t-134 53.5
q-62 0 -110 -25.5t-81 -69.5t-50 -99t-17 -113q0 -61 21.5 -105.5t62 -68.5t97.5 -24zM399 759l116 142h119l-154 -142h-81z" />
    <glyph glyph-name="Ocircumflex" unicode="&#xd4;" horiz-adv-x="748" 
d="M341 -14q-89 0 -153.5 37t-100 105t-35.5 160q0 81 26 157t75.5 136t119.5 95t159 35q90 0 154.5 -37t100 -104.5t35.5 -160.5q0 -83 -26 -159t-75.5 -135.5t-120 -94t-159.5 -34.5zM348 96q62 0 109.5 25t81 68.5t50.5 98t17 114.5q0 92 -47 145.5t-134 53.5
q-62 0 -110 -25.5t-81 -69.5t-50 -99t-17 -113q0 -61 21.5 -105.5t62 -68.5t97.5 -24zM286 747l179 170l131 -170h-87l-53 76l-77 -76h-93z" />
    <glyph glyph-name="Otilde" unicode="&#xd5;" horiz-adv-x="748" 
d="M341 -14q-89 0 -153.5 37t-100 105t-35.5 160q0 81 26 157t75.5 136t119.5 95t159 35q90 0 154.5 -37t100 -104.5t35.5 -160.5q0 -83 -26 -159t-75.5 -135.5t-120 -94t-159.5 -34.5zM348 96q62 0 109.5 25t81 68.5t50.5 98t17 114.5q0 92 -47 145.5t-134 53.5
q-62 0 -110 -25.5t-81 -69.5t-50 -99t-17 -113q0 -61 21.5 -105.5t62 -68.5t97.5 -24zM512 742q-25 0 -41 7t-26 18t-18 21.5t-16.5 17.5t-19.5 7q-18 0 -32 -18.5t-18 -50.5l-63 6q8 60 39 92t76 32q23 0 37.5 -7t25 -18t18.5 -21.5t16.5 -18t19.5 -7.5q16 0 30 20t18 52
l67 -6q-9 -61 -39 -93.5t-74 -32.5z" />
    <glyph glyph-name="Odieresis" unicode="&#xd6;" horiz-adv-x="748" 
d="M341 -14q-89 0 -153.5 37t-100 105t-35.5 160q0 81 26 157t75.5 136t119.5 95t159 35q90 0 154.5 -37t100 -104.5t35.5 -160.5q0 -83 -26 -159t-75.5 -135.5t-120 -94t-159.5 -34.5zM348 96q62 0 109.5 25t81 68.5t50.5 98t17 114.5q0 92 -47 145.5t-134 53.5
q-62 0 -110 -25.5t-81 -69.5t-50 -99t-17 -113q0 -61 21.5 -105.5t62 -68.5t97.5 -24zM482 778l18 123h119l-18 -123h-119zM294 778l17 123h120l-17 -123h-120z" />
    <glyph glyph-name="multiply" unicode="&#xd7;" horiz-adv-x="560" 
d="M133 32l-68 67l146 147l-147 148l68 68l146 -147l148 147l69 -69l-147 -147l147 -147l-69 -67l-148 146z" />
    <glyph glyph-name="Oslash" unicode="&#xd8;" horiz-adv-x="748" 
d="M341 -14q-89 0 -153.5 37t-100 105t-35.5 160q0 81 26 157t75.5 136t119.5 95t159 35q90 0 154.5 -37t100 -104.5t35.5 -160.5q0 -83 -26 -159t-75.5 -135.5t-120 -94t-159.5 -34.5zM348 96q62 0 109.5 25t81 68.5t50.5 98t17 114.5q0 92 -47 145.5t-134 53.5
q-62 0 -110 -25.5t-81 -69.5t-50 -99t-17 -113q0 -61 21.5 -105.5t62 -68.5t97.5 -24zM40 0l615 697h79l-614 -697h-80z" />
    <glyph glyph-name="Ugrave" unicode="&#xd9;" horiz-adv-x="657" 
d="M297 -14q-116 0 -176 53t-60 157q0 12 1 27.5t3 31.5l62 442h116l-61 -435q-2 -16 -3 -31t-1 -26q0 -57 27.5 -85t94.5 -28q58 0 94.5 20.5t57 59.5t28.5 96l60 429h115l-62 -443q-19 -135 -93.5 -201.5t-202.5 -66.5zM358 759l-123 142h116l88 -142h-81z" />
    <glyph glyph-name="Uacute" unicode="&#xda;" horiz-adv-x="657" 
d="M297 -14q-116 0 -176 53t-60 157q0 12 1 27.5t3 31.5l62 442h116l-61 -435q-2 -16 -3 -31t-1 -26q0 -57 27.5 -85t94.5 -28q58 0 94.5 20.5t57 59.5t28.5 96l60 429h115l-62 -443q-19 -135 -93.5 -201.5t-202.5 -66.5zM354 759l116 142h119l-154 -142h-81z" />
    <glyph glyph-name="Ucircumflex" unicode="&#xdb;" horiz-adv-x="657" 
d="M297 -14q-116 0 -176 53t-60 157q0 12 1 27.5t3 31.5l62 442h116l-61 -435q-2 -16 -3 -31t-1 -26q0 -57 27.5 -85t94.5 -28q58 0 94.5 20.5t57 59.5t28.5 96l60 429h115l-62 -443q-19 -135 -93.5 -201.5t-202.5 -66.5zM242 747l179 170l131 -170h-87l-53 76l-77 -76h-93z
" />
    <glyph glyph-name="Udieresis" unicode="&#xdc;" horiz-adv-x="657" 
d="M297 -14q-116 0 -176 53t-60 157q0 12 1 27.5t3 31.5l62 442h116l-61 -435q-2 -16 -3 -31t-1 -26q0 -57 27.5 -85t94.5 -28q58 0 94.5 20.5t57 59.5t28.5 96l60 429h115l-62 -443q-19 -135 -93.5 -201.5t-202.5 -66.5zM437 778l18 123h119l-18 -123h-119zM249 778l17 123
h120l-17 -123h-120z" />
    <glyph glyph-name="Yacute" unicode="&#xdd;" horiz-adv-x="617" 
d="M217 0l39 271l-185 426h129l124 -310l217 310h133l-303 -426l-38 -271h-116zM335 759l116 142h119l-154 -142h-81z" />
    <glyph glyph-name="Thorn" unicode="&#xde;" horiz-adv-x="621" 
d="M82 0l98 697h105l-13 -97h125q91 0 141.5 -43.5t50.5 -123.5v-17t-2 -20q-13 -93 -82.5 -145.5t-182.5 -52.5h-107l-28 -198h-105zM229 294h100q63 0 104 27.5t49 85.5q1 5 1.5 10t0.5 10q0 43 -31 63t-88 20h-106z" />
    <glyph glyph-name="germandbls" unicode="&#xdf;" horiz-adv-x="646" 
d="M397 -9q-55 0 -96 19t-67 51t-33 69l92 34q5 -21 16.5 -39.5t33 -30t54.5 -11.5q41 0 66.5 20t25.5 49q0 19 -11.5 30t-31.5 18.5t-44 13.5q-31 10 -63.5 23t-54 38t-21.5 69q0 55 38 89.5t107 57.5q25 8 43 16t27.5 18.5t9.5 24.5q0 27 -29 39.5t-65 12.5q-61 0 -97 -17
t-54 -42t-25 -52t-10 -48l-63 -443h-115l63 449q7 49 24 95t49.5 82.5t86.5 58t135 21.5q94 0 152 -35.5t58 -103.5q0 -40 -14 -67t-36.5 -45.5t-48.5 -30t-50 -20.5q-22 -7 -39.5 -14.5t-27.5 -17t-10 -23.5t9 -22.5t25.5 -12.5t36.5 -9q25 -6 52 -14.5t50.5 -24t39 -40.5
t15.5 -65q0 -55 -29.5 -93.5t-76 -57.5t-97.5 -19z" />
    <glyph glyph-name="agrave" unicode="&#xe0;" 
d="M228 -9q-58 0 -100.5 27t-64.5 75t-22 110q0 58 18 111.5t51.5 96t79.5 67t102 24.5q44 0 78 -17t54.5 -49t21.5 -79l-25 -2l23 138h105l-69 -493h-106l14 137l30 -3q-20 -53 -50 -84.5t-65.5 -45t-74.5 -13.5zM258 93q38 0 68 16.5t50.5 44.5t31 61.5t10.5 68.5
q0 36 -12.5 62t-36 40.5t-56.5 14.5q-38 0 -68 -17t-51 -44.5t-31.5 -61.5t-10.5 -69t12.5 -61.5t36.5 -40.5t57 -14zM291 555l-123 142h116l88 -142h-81z" />
    <glyph glyph-name="aacute" unicode="&#xe1;" 
d="M228 -9q-58 0 -100.5 27t-64.5 75t-22 110q0 58 18 111.5t51.5 96t79.5 67t102 24.5q44 0 78 -17t54.5 -49t21.5 -79l-25 -2l23 138h105l-69 -493h-106l14 137l30 -3q-20 -53 -50 -84.5t-65.5 -45t-74.5 -13.5zM258 93q38 0 68 16.5t50.5 44.5t31 61.5t10.5 68.5
q0 36 -12.5 62t-36 40.5t-56.5 14.5q-38 0 -68 -17t-51 -44.5t-31.5 -61.5t-10.5 -69t12.5 -61.5t36.5 -40.5t57 -14zM288 555l116 142h119l-154 -142h-81z" />
    <glyph glyph-name="acircumflex" unicode="&#xe2;" 
d="M228 -9q-58 0 -100.5 27t-64.5 75t-22 110q0 58 18 111.5t51.5 96t79.5 67t102 24.5q44 0 78 -17t54.5 -49t21.5 -79l-25 -2l23 138h105l-69 -493h-106l14 137l30 -3q-20 -53 -50 -84.5t-65.5 -45t-74.5 -13.5zM258 93q38 0 68 16.5t50.5 44.5t31 61.5t10.5 68.5
q0 36 -12.5 62t-36 40.5t-56.5 14.5q-38 0 -68 -17t-51 -44.5t-31.5 -61.5t-10.5 -69t12.5 -61.5t36.5 -40.5t57 -14zM182 543l173 170l129 -170h-84l-54 76l-74 -76h-90z" />
    <glyph glyph-name="atilde" unicode="&#xe3;" 
d="M228 -9q-58 0 -100.5 27t-64.5 75t-22 110q0 58 18 111.5t51.5 96t79.5 67t102 24.5q44 0 78 -17t54.5 -49t21.5 -79l-25 -2l23 138h105l-69 -493h-106l14 137l30 -3q-20 -53 -50 -84.5t-65.5 -45t-74.5 -13.5zM258 93q38 0 68 16.5t50.5 44.5t31 61.5t10.5 68.5
q0 36 -12.5 62t-36 40.5t-56.5 14.5q-38 0 -68 -17t-51 -44.5t-31.5 -61.5t-10.5 -69t12.5 -61.5t36.5 -40.5t57 -14zM409 559q-36 0 -52.5 15t-28.5 31q-8 12 -16.5 19t-18.5 7q-18 0 -32.5 -20t-21.5 -53l-62 9q13 66 45 99.5t75 33.5q31 0 46.5 -14t26.5 -30
q9 -11 17.5 -20t21.5 -9q16 0 31 21t21 54l65 -10q-13 -66 -44 -99.5t-73 -33.5z" />
    <glyph glyph-name="adieresis" unicode="&#xe4;" 
d="M228 -9q-58 0 -100.5 27t-64.5 75t-22 110q0 58 18 111.5t51.5 96t79.5 67t102 24.5q44 0 78 -17t54.5 -49t21.5 -79l-25 -2l23 138h105l-69 -493h-106l14 137l30 -3q-20 -53 -50 -84.5t-65.5 -45t-74.5 -13.5zM258 93q38 0 68 16.5t50.5 44.5t31 61.5t10.5 68.5
q0 36 -12.5 62t-36 40.5t-56.5 14.5q-38 0 -68 -17t-51 -44.5t-31.5 -61.5t-10.5 -69t12.5 -61.5t36.5 -40.5t57 -14zM371 574l18 123h119l-18 -123h-119zM183 574l17 123h120l-17 -123h-120z" />
    <glyph glyph-name="aring" unicode="&#xe5;" 
d="M228 -9q-58 0 -100.5 27t-64.5 75t-22 110q0 58 18 111.5t51.5 96t79.5 67t102 24.5q44 0 78 -17t54.5 -49t21.5 -79l-25 -2l23 138h105l-69 -493h-106l14 137l30 -3q-20 -53 -50 -84.5t-65.5 -45t-74.5 -13.5zM258 93q38 0 68 16.5t50.5 44.5t31 61.5t10.5 68.5
q0 36 -12.5 62t-36 40.5t-56.5 14.5q-38 0 -68 -17t-51 -44.5t-31.5 -61.5t-10.5 -69t12.5 -61.5t36.5 -40.5t57 -14zM342 534q-42 0 -71 26t-29 68q0 33 17.5 60t46 43t61.5 16q40 0 69.5 -25.5t29.5 -68.5q0 -33 -17.5 -60t-45.5 -43t-61 -16zM349 590q24 0 40.5 17.5
t16.5 39.5q0 18 -12.5 31t-32.5 13q-24 0 -40.5 -17.5t-16.5 -39.5q0 -18 12 -31t33 -13z" />
    <glyph glyph-name="ae" unicode="&#xe6;" horiz-adv-x="868" 
d="M203 -9q-48 0 -87.5 16t-63 48.5t-23.5 78.5q0 54 27.5 89t79 52t125.5 17h123l2 22q5 31 -4.5 51.5t-30.5 30.5t-51 10q-36 0 -74 -15t-71 -52l-76 72q56 52 113 71.5t118 19.5q62 0 101 -20.5t56 -61.5q33 40 76 60t95 20q66 0 108.5 -26t63 -70t20.5 -100
q0 -25 -3.5 -49t-9.5 -48h-338q-1 -8 0 -11.5t1 -7.5q4 -47 27 -71.5t76 -24.5q36 0 67.5 12.5t59.5 38.5l76 -68q-45 -43 -94 -63.5t-110 -20.5q-68 0 -109 27.5t-61 81.5h-11q-28 -41 -59 -65t-66 -34t-73 -10zM224 82q35 0 66.5 14.5t53.5 42.5t29 67l6 40l24 -34h-142
q-41 0 -67 -8t-38.5 -24t-12.5 -38q0 -28 21.5 -44t59.5 -16zM725 279q3 8 3.5 16t0.5 17q0 25 -10 47t-31.5 35.5t-53.5 13.5q-42 0 -72 -17.5t-48 -45t-24 -56.5l253 3z" />
    <glyph glyph-name="ccedilla" unicode="&#xe7;" horiz-adv-x="521" 
d="M251 -9q-72 0 -119 29.5t-69.5 79t-22.5 108.5q0 57 18 109.5t53.5 94.5t85 66t111.5 24q75 0 125.5 -37t66.5 -109l-100 -32q-7 38 -29.5 60t-64.5 22q-38 0 -67.5 -18t-49.5 -47t-30 -64t-10 -70q0 -32 11 -59.5t34 -43.5t59 -16q47 0 77 24.5t47 62.5l94 -44
q-37 -73 -94.5 -106.5t-125.5 -33.5zM223 -258q-18 0 -42.5 8t-42.5 27l37 53q9 -10 22.5 -17t26.5 -7q21 0 34 11t13 32q0 19 -10 30t-26.5 16t-36 7t-38.5 2l66 106h68l-47 -62q25 -5 46 -16.5t33 -31t12 -47.5q0 -49 -32.5 -80t-82.5 -31z" />
    <glyph glyph-name="egrave" unicode="&#xe8;" horiz-adv-x="542" 
d="M252 -9q-74 0 -121 28.5t-69 76.5t-22 106q0 55 17 108.5t51 97t83 69t113 25.5q69 0 112.5 -27t65 -73t21.5 -104q0 -22 -3.5 -46t-8.5 -45h-343q-1 -6 -0.5 -11.5t0.5 -11.5q3 -46 32 -70.5t78 -24.5q40 0 74.5 13t65.5 38l59 -75q-45 -36 -95 -55t-110 -19zM398 269
q2 14 3.5 24t1.5 23q0 25 -10 46.5t-31.5 35.5t-57.5 14q-40 0 -70 -18t-49 -46t-26 -58h275zM275 555l-123 142h116l88 -142h-81z" />
    <glyph glyph-name="eacute" unicode="&#xe9;" horiz-adv-x="542" 
d="M252 -9q-74 0 -121 28.5t-69 76.5t-22 106q0 55 17 108.5t51 97t83 69t113 25.5q69 0 112.5 -27t65 -73t21.5 -104q0 -22 -3.5 -46t-8.5 -45h-343q-1 -6 -0.5 -11.5t0.5 -11.5q3 -46 32 -70.5t78 -24.5q40 0 74.5 13t65.5 38l59 -75q-45 -36 -95 -55t-110 -19zM398 269
q2 14 3.5 24t1.5 23q0 25 -10 46.5t-31.5 35.5t-57.5 14q-40 0 -70 -18t-49 -46t-26 -58h275zM272 555l116 142h119l-154 -142h-81z" />
    <glyph glyph-name="ecircumflex" unicode="&#xea;" horiz-adv-x="542" 
d="M252 -9q-74 0 -121 28.5t-69 76.5t-22 106q0 55 17 108.5t51 97t83 69t113 25.5q69 0 112.5 -27t65 -73t21.5 -104q0 -22 -3.5 -46t-8.5 -45h-343q-1 -6 -0.5 -11.5t0.5 -11.5q3 -46 32 -70.5t78 -24.5q40 0 74.5 13t65.5 38l59 -75q-45 -36 -95 -55t-110 -19zM398 269
q2 14 3.5 24t1.5 23q0 25 -10 46.5t-31.5 35.5t-57.5 14q-40 0 -70 -18t-49 -46t-26 -58h275zM166 543l173 170l129 -170h-84l-54 76l-74 -76h-90z" />
    <glyph glyph-name="edieresis" unicode="&#xeb;" horiz-adv-x="542" 
d="M252 -9q-74 0 -121 28.5t-69 76.5t-22 106q0 55 17 108.5t51 97t83 69t113 25.5q69 0 112.5 -27t65 -73t21.5 -104q0 -22 -3.5 -46t-8.5 -45h-343q-1 -6 -0.5 -11.5t0.5 -11.5q3 -46 32 -70.5t78 -24.5q40 0 74.5 13t65.5 38l59 -75q-45 -36 -95 -55t-110 -19zM398 269
q2 14 3.5 24t1.5 23q0 25 -10 46.5t-31.5 35.5t-57.5 14q-40 0 -70 -18t-49 -46t-26 -58h275zM355 574l18 123h119l-18 -123h-119zM167 574l17 123h120l-17 -123h-120z" />
    <glyph glyph-name="igrave" unicode="&#xec;" horiz-adv-x="239" 
d="M29 0l69 493h111l-69 -493h-111zM120 555l-123 142h116l88 -142h-81z" />
    <glyph glyph-name="iacute" unicode="&#xed;" horiz-adv-x="239" 
d="M29 0l69 493h111l-69 -493h-111zM117 555l116 142h119l-154 -142h-81z" />
    <glyph glyph-name="icircumflex" unicode="&#xee;" horiz-adv-x="239" 
d="M29 0l69 493h111l-69 -493h-111zM10 543l173 170l129 -170h-84l-54 76l-74 -76h-90z" />
    <glyph glyph-name="idieresis" unicode="&#xef;" horiz-adv-x="239" 
d="M29 0l69 493h111l-69 -493h-111zM200 574l18 123h119l-18 -123h-119zM12 574l17 123h120l-17 -123h-120z" />
    <glyph glyph-name="eth" unicode="&#xf0;" horiz-adv-x="608" 
d="M250 -9q-98 0 -151 53.5t-53 138.5q0 60 23 115.5t65 99.5t97.5 70t118.5 26q29 0 53 -8t43.5 -22t32.5 -32q6 -10 10.5 -21t5.5 -23q5 21 7 40t2 37q0 57 -23 98.5t-72 65.5t-128 26l13 74q111 -7 177 -41t95 -92.5t29 -139.5q0 -83 -21 -165.5t-64 -150.5
t-107.5 -108.5t-152.5 -40.5zM258 86q43 0 81 19t66.5 50t45 68.5t16.5 74.5q1 27 -9.5 51t-34 38.5t-62.5 14.5q-51 0 -90.5 -19.5t-66.5 -51.5t-40.5 -69.5t-13.5 -73.5q0 -50 30.5 -76t77.5 -26zM285 533l-6 46l358 92l5 -45z" />
    <glyph glyph-name="ntilde" unicode="&#xf1;" horiz-adv-x="559" 
d="M30 0l70 493h107l-12 -109l-21 2q19 43 47.5 68.5t62.5 36.5t69 11q75 0 116.5 -39t41.5 -110v-18.5t-2 -18.5l-45 -316h-111l40 281q2 11 2.5 20.5t0.5 20.5q0 44 -19.5 64t-57.5 20q-59 0 -95.5 -41.5t-49.5 -128.5l-33 -236h-111zM392 559q-36 0 -52.5 15t-28.5 31
q-8 12 -16.5 19t-18.5 7q-18 0 -32.5 -20t-21.5 -53l-62 9q13 66 45 99.5t75 33.5q31 0 46.5 -14t26.5 -30q9 -11 17.5 -20t21.5 -9q16 0 31 21t21 54l65 -10q-13 -66 -44 -99.5t-73 -33.5z" />
    <glyph glyph-name="ograve" unicode="&#xf2;" horiz-adv-x="573" 
d="M255 -9q-64 0 -113 28t-76 77.5t-27 114.5q0 59 20.5 111t57.5 92.5t88 64t112 23.5q66 0 114 -27.5t75 -76.5t27 -114q0 -59 -21 -112t-58.5 -94t-88 -64t-110.5 -23zM262 89q39 0 68.5 16.5t50.5 44t31.5 61.5t10.5 70q0 54 -28.5 89t-83.5 35q-40 0 -70.5 -16.5
t-51 -45t-31 -62t-10.5 -67.5q0 -55 29.5 -90t84.5 -35zM287 555l-123 142h116l88 -142h-81z" />
    <glyph glyph-name="oacute" unicode="&#xf3;" horiz-adv-x="573" 
d="M255 -9q-64 0 -113 28t-76 77.5t-27 114.5q0 59 20.5 111t57.5 92.5t88 64t112 23.5q66 0 114 -27.5t75 -76.5t27 -114q0 -59 -21 -112t-58.5 -94t-88 -64t-110.5 -23zM262 89q39 0 68.5 16.5t50.5 44t31.5 61.5t10.5 70q0 54 -28.5 89t-83.5 35q-40 0 -70.5 -16.5
t-51 -45t-31 -62t-10.5 -67.5q0 -55 29.5 -90t84.5 -35zM283 555l116 142h119l-154 -142h-81z" />
    <glyph glyph-name="ocircumflex" unicode="&#xf4;" horiz-adv-x="573" 
d="M255 -9q-64 0 -113 28t-76 77.5t-27 114.5q0 59 20.5 111t57.5 92.5t88 64t112 23.5q66 0 114 -27.5t75 -76.5t27 -114q0 -59 -21 -112t-58.5 -94t-88 -64t-110.5 -23zM262 89q39 0 68.5 16.5t50.5 44t31.5 61.5t10.5 70q0 54 -28.5 89t-83.5 35q-40 0 -70.5 -16.5
t-51 -45t-31 -62t-10.5 -67.5q0 -55 29.5 -90t84.5 -35zM177 543l173 170l129 -170h-84l-54 76l-74 -76h-90z" />
    <glyph glyph-name="otilde" unicode="&#xf5;" horiz-adv-x="573" 
d="M255 -9q-64 0 -113 28t-76 77.5t-27 114.5q0 59 20.5 111t57.5 92.5t88 64t112 23.5q66 0 114 -27.5t75 -76.5t27 -114q0 -59 -21 -112t-58.5 -94t-88 -64t-110.5 -23zM262 89q39 0 68.5 16.5t50.5 44t31.5 61.5t10.5 70q0 54 -28.5 89t-83.5 35q-40 0 -70.5 -16.5
t-51 -45t-31 -62t-10.5 -67.5q0 -55 29.5 -90t84.5 -35zM405 559q-36 0 -52.5 15t-28.5 31q-8 12 -16.5 19t-18.5 7q-18 0 -32.5 -20t-21.5 -53l-62 9q13 66 45 99.5t75 33.5q31 0 46.5 -14t26.5 -30q9 -11 17.5 -20t21.5 -9q16 0 31 21t21 54l65 -10q-13 -66 -44 -99.5
t-73 -33.5z" />
    <glyph glyph-name="odieresis" unicode="&#xf6;" horiz-adv-x="573" 
d="M255 -9q-64 0 -113 28t-76 77.5t-27 114.5q0 59 20.5 111t57.5 92.5t88 64t112 23.5q66 0 114 -27.5t75 -76.5t27 -114q0 -59 -21 -112t-58.5 -94t-88 -64t-110.5 -23zM262 89q39 0 68.5 16.5t50.5 44t31.5 61.5t10.5 70q0 54 -28.5 89t-83.5 35q-40 0 -70.5 -16.5
t-51 -45t-31 -62t-10.5 -67.5q0 -55 29.5 -90t84.5 -35zM366 574l18 123h119l-18 -123h-119zM178 574l17 123h120l-17 -123h-120z" />
    <glyph glyph-name="divide" unicode="&#xf7;" horiz-adv-x="560" 
d="M59 204v87h442v-87h-442zM215 18v130h130v-130h-130zM215 347v128h130v-128h-130z" />
    <glyph glyph-name="oslash" unicode="&#xf8;" horiz-adv-x="573" 
d="M255 -9q-64 0 -113 28t-76 77.5t-27 114.5q0 59 20.5 111t57.5 92.5t88 64t112 23.5q66 0 114 -27.5t75 -76.5t27 -114q0 -59 -21 -112t-58.5 -94t-88 -64t-110.5 -23zM262 89q39 0 68.5 16.5t50.5 44t31.5 61.5t10.5 70q0 54 -28.5 89t-83.5 35q-40 0 -70.5 -16.5
t-51 -45t-31 -62t-10.5 -67.5q0 -55 29.5 -90t84.5 -35zM48 -44l418 582h58l-419 -582h-57z" />
    <glyph glyph-name="ugrave" unicode="&#xf9;" horiz-adv-x="559" 
d="M206 -9q-79 0 -119 40.5t-40 112.5q0 11 1 21.5t2 21.5l43 306h111l-39 -282q-1 -11 -2 -20.5t-1 -20.5q0 -41 18 -61.5t60 -20.5q44 0 73.5 23t47 67.5t26.5 105.5l29 209h111l-69 -493h-107l11 106l18 -9q-29 -57 -75 -81.5t-99 -24.5zM275 555l-123 142h116l88 -142
h-81z" />
    <glyph glyph-name="uacute" unicode="&#xfa;" horiz-adv-x="559" 
d="M206 -9q-79 0 -119 40.5t-40 112.5q0 11 1 21.5t2 21.5l43 306h111l-39 -282q-1 -11 -2 -20.5t-1 -20.5q0 -41 18 -61.5t60 -20.5q44 0 73.5 23t47 67.5t26.5 105.5l29 209h111l-69 -493h-107l11 106l18 -9q-29 -57 -75 -81.5t-99 -24.5zM272 555l116 142h119l-154 -142
h-81z" />
    <glyph glyph-name="ucircumflex" unicode="&#xfb;" horiz-adv-x="559" 
d="M206 -9q-79 0 -119 40.5t-40 112.5q0 11 1 21.5t2 21.5l43 306h111l-39 -282q-1 -11 -2 -20.5t-1 -20.5q0 -41 18 -61.5t60 -20.5q44 0 73.5 23t47 67.5t26.5 105.5l29 209h111l-69 -493h-107l11 106l18 -9q-29 -57 -75 -81.5t-99 -24.5zM165 543l173 170l129 -170h-84
l-54 76l-74 -76h-90z" />
    <glyph glyph-name="udieresis" unicode="&#xfc;" horiz-adv-x="559" 
d="M206 -9q-79 0 -119 40.5t-40 112.5q0 11 1 21.5t2 21.5l43 306h111l-39 -282q-1 -11 -2 -20.5t-1 -20.5q0 -41 18 -61.5t60 -20.5q44 0 73.5 23t47 67.5t26.5 105.5l29 209h111l-69 -493h-107l11 106l18 -9q-29 -57 -75 -81.5t-99 -24.5zM355 574l18 123h119l-18 -123
h-119zM167 574l17 123h120l-17 -123h-120z" />
    <glyph glyph-name="yacute" unicode="&#xfd;" horiz-adv-x="530" 
d="M43 -203l133 236l-123 460h121l75 -349l176 349h122l-381 -696h-123zM263 555l116 142h119l-154 -142h-81z" />
    <glyph glyph-name="thorn" unicode="&#xfe;" horiz-adv-x="617" 
d="M31 -204l126 901h111l-47 -340l-20 27q18 42 49 67.5t67 38t71 12.5q59 0 97.5 -26.5t58.5 -73.5t20 -108q0 -56 -16 -110.5t-46.5 -98t-74.5 -69t-99 -25.5q-39 0 -74 15.5t-58.5 42.5t-28.5 61l22 28l-47 -342h-111zM299 88q42 0 71.5 19t48 49.5t27 65.5t8.5 68
q0 54 -24 84.5t-74 30.5q-40 0 -71 -17.5t-51.5 -46t-31.5 -64t-11 -71.5q0 -34 11.5 -61t36 -42t60.5 -15z" />
    <glyph glyph-name="ydieresis" unicode="&#xff;" horiz-adv-x="530" 
d="M43 -203l133 236l-123 460h121l75 -349l176 349h122l-381 -696h-123zM346 574l18 123h119l-18 -123h-119zM158 574l17 123h120l-17 -123h-120z" />
    <glyph glyph-name="Amacron" unicode="&#x100;" horiz-adv-x="661" 
d="M-24 0l373 697h88l177 -697h-124l-118 528l-268 -528h-128zM168 146l50 103h224l23 -103h-297zM275 776l14 65h268l-15 -65h-267z" />
    <glyph glyph-name="amacron" unicode="&#x101;" 
d="M228 -9q-58 0 -100.5 27t-64.5 75t-22 110q0 58 18 111.5t51.5 96t79.5 67t102 24.5q44 0 78 -17t54.5 -49t21.5 -79l-25 -2l23 138h105l-69 -493h-106l14 137l30 -3q-20 -53 -50 -84.5t-65.5 -45t-74.5 -13.5zM258 93q38 0 68 16.5t50.5 44.5t31 61.5t10.5 68.5
q0 36 -12.5 62t-36 40.5t-56.5 14.5q-38 0 -68 -17t-51 -44.5t-31.5 -61.5t-10.5 -69t12.5 -61.5t36.5 -40.5t57 -14zM206 572l14 65h268l-15 -65h-267z" />
    <glyph glyph-name="Abreve" unicode="&#x102;" horiz-adv-x="661" 
d="M-24 0l373 697h88l177 -697h-124l-118 528l-268 -528h-128zM168 146l50 103h224l23 -103h-297zM399 739q-42 0 -74.5 14t-49 42.5t-13.5 71.5h71q-3 -33 17.5 -50t59.5 -17q37 0 62 16t29 51h70q-11 -71 -55.5 -99.5t-116.5 -28.5z" />
    <glyph glyph-name="abreve" unicode="&#x103;" 
d="M228 -9q-58 0 -100.5 27t-64.5 75t-22 110q0 58 18 111.5t51.5 96t79.5 67t102 24.5q44 0 78 -17t54.5 -49t21.5 -79l-25 -2l23 138h105l-69 -493h-106l14 137l30 -3q-20 -53 -50 -84.5t-65.5 -45t-74.5 -13.5zM258 93q38 0 68 16.5t50.5 44.5t31 61.5t10.5 68.5
q0 36 -12.5 62t-36 40.5t-56.5 14.5q-38 0 -68 -17t-51 -44.5t-31.5 -61.5t-10.5 -69t12.5 -61.5t36.5 -40.5t57 -14zM333 551q-62 0 -104 28t-46 88v10.5t1 19.5h66q-1 -6 -1 -12t1 -11q3 -29 24 -44.5t60 -15.5q44 0 65.5 22t25.5 61h68q-8 -73 -50.5 -109.5t-109.5 -36.5
z" />
    <glyph glyph-name="Aogonek" unicode="&#x104;" horiz-adv-x="661" 
d="M-24 0l373 697h88l177 -697h-124l-118 528l-268 -528h-128zM168 146l50 103h224l23 -103h-297zM539 -220q-46 0 -77.5 26.5t-31.5 70.5q0 32 13.5 56t33 41t36.5 27l88 -1q-12 -6 -29.5 -16.5t-34.5 -25t-28.5 -32.5t-11.5 -38t12 -29.5t29 -9.5q13 0 27 5t26 15l35 -58
q-18 -14 -39 -22.5t-48 -8.5z" />
    <glyph glyph-name="aogonek" unicode="&#x105;" 
d="M228 -9q-58 0 -100.5 27t-64.5 75t-22 110q0 58 18 111.5t51.5 96t79.5 67t102 24.5q44 0 78 -17t54.5 -49t21.5 -79l-25 -2l23 138h105l-69 -493h-106l14 137l30 -3q-20 -53 -50 -84.5t-65.5 -45t-74.5 -13.5zM258 93q38 0 68 16.5t50.5 44.5t31 61.5t10.5 68.5
q0 36 -12.5 62t-36 40.5t-56.5 14.5q-38 0 -68 -17t-51 -44.5t-31.5 -61.5t-10.5 -69t12.5 -61.5t36.5 -40.5t57 -14zM419 -220q-46 0 -77.5 26.5t-31.5 70.5q0 32 13.5 56t33 41t36.5 27l88 -1q-12 -6 -29.5 -16.5t-34.5 -25t-28.5 -32.5t-11.5 -38t12 -29.5t29 -9.5
q13 0 27 5t26 15l35 -58q-18 -14 -39 -22.5t-48 -8.5z" />
    <glyph glyph-name="Cacute" unicode="&#x106;" horiz-adv-x="707" 
d="M341 -14q-70 0 -123.5 22.5t-90.5 63.5t-56 96t-19 120q0 80 25.5 155.5t74.5 136t119.5 96t159.5 35.5q111 0 184 -55.5t95 -151.5l-112 -34q-14 64 -60 97.5t-114 33.5q-63 0 -111 -26t-81 -69.5t-49.5 -98t-16.5 -112.5q0 -92 47.5 -145.5t134.5 -53.5q73 0 127.5 37
t86.5 99l105 -45q-48 -95 -133.5 -148t-192.5 -53zM384 759l116 142h119l-154 -142h-81z" />
    <glyph glyph-name="cacute" unicode="&#x107;" horiz-adv-x="521" 
d="M251 -9q-72 0 -119 29.5t-69.5 79t-22.5 108.5q0 57 18 109.5t53.5 94.5t85 66t111.5 24q75 0 125.5 -37t66.5 -109l-100 -32q-7 38 -29.5 60t-64.5 22q-38 0 -67.5 -18t-49.5 -47t-30 -64t-10 -70q0 -32 11 -59.5t34 -43.5t59 -16q47 0 77 24.5t47 62.5l94 -44
q-37 -73 -94.5 -106.5t-125.5 -33.5zM262 555l116 142h119l-154 -142h-81z" />
    <glyph glyph-name="Ccircumflex" unicode="&#x108;" horiz-adv-x="707" 
d="M341 -14q-70 0 -123.5 22.5t-90.5 63.5t-56 96t-19 120q0 80 25.5 155.5t74.5 136t119.5 96t159.5 35.5q111 0 184 -55.5t95 -151.5l-112 -34q-14 64 -60 97.5t-114 33.5q-63 0 -111 -26t-81 -69.5t-49.5 -98t-16.5 -112.5q0 -92 47.5 -145.5t134.5 -53.5q73 0 127.5 37
t86.5 99l105 -45q-48 -95 -133.5 -148t-192.5 -53zM272 747l179 170l131 -170h-87l-53 76l-77 -76h-93z" />
    <glyph glyph-name="ccircumflex" unicode="&#x109;" horiz-adv-x="521" 
d="M251 -9q-72 0 -119 29.5t-69.5 79t-22.5 108.5q0 57 18 109.5t53.5 94.5t85 66t111.5 24q75 0 125.5 -37t66.5 -109l-100 -32q-7 38 -29.5 60t-64.5 22q-38 0 -67.5 -18t-49.5 -47t-30 -64t-10 -70q0 -32 11 -59.5t34 -43.5t59 -16q47 0 77 24.5t47 62.5l94 -44
q-37 -73 -94.5 -106.5t-125.5 -33.5zM156 543l173 170l129 -170h-84l-54 76l-74 -76h-90z" />
    <glyph glyph-name="Cdotaccent" unicode="&#x10a;" horiz-adv-x="707" 
d="M341 -14q-70 0 -123.5 22.5t-90.5 63.5t-56 96t-19 120q0 80 25.5 155.5t74.5 136t119.5 96t159.5 35.5q111 0 184 -55.5t95 -151.5l-112 -34q-14 64 -60 97.5t-114 33.5q-63 0 -111 -26t-81 -69.5t-49.5 -98t-16.5 -112.5q0 -92 47.5 -145.5t134.5 -53.5q73 0 127.5 37
t86.5 99l105 -45q-48 -95 -133.5 -148t-192.5 -53zM372 778l17 123h122l-17 -123h-122z" />
    <glyph glyph-name="cdotaccent" unicode="&#x10b;" horiz-adv-x="521" 
d="M251 -9q-72 0 -119 29.5t-69.5 79t-22.5 108.5q0 57 18 109.5t53.5 94.5t85 66t111.5 24q75 0 125.5 -37t66.5 -109l-100 -32q-7 38 -29.5 60t-64.5 22q-38 0 -67.5 -18t-49.5 -47t-30 -64t-10 -70q0 -32 11 -59.5t34 -43.5t59 -16q47 0 77 24.5t47 62.5l94 -44
q-37 -73 -94.5 -106.5t-125.5 -33.5zM250 574l17 123h122l-17 -123h-122z" />
    <glyph glyph-name="Ccaron" unicode="&#x10c;" horiz-adv-x="707" 
d="M341 -14q-70 0 -123.5 22.5t-90.5 63.5t-56 96t-19 120q0 80 25.5 155.5t74.5 136t119.5 96t159.5 35.5q111 0 184 -55.5t95 -151.5l-112 -34q-14 64 -60 97.5t-114 33.5q-63 0 -111 -26t-81 -69.5t-49.5 -98t-16.5 -112.5q0 -92 47.5 -145.5t134.5 -53.5q73 0 127.5 37
t86.5 99l105 -45q-48 -95 -133.5 -148t-192.5 -53zM429 739l-121 162h77l56 -76l82 76h87z" />
    <glyph glyph-name="ccaron" unicode="&#x10d;" horiz-adv-x="521" 
d="M251 -9q-72 0 -119 29.5t-69.5 79t-22.5 108.5q0 57 18 109.5t53.5 94.5t85 66t111.5 24q75 0 125.5 -37t66.5 -109l-100 -32q-7 38 -29.5 60t-64.5 22q-38 0 -67.5 -18t-49.5 -47t-30 -64t-10 -70q0 -32 11 -59.5t34 -43.5t59 -16q47 0 77 24.5t47 62.5l94 -44
q-37 -73 -94.5 -106.5t-125.5 -33.5zM306 535l-121 162h77l56 -76l82 76h87z" />
    <glyph glyph-name="Dcaron" unicode="&#x10e;" horiz-adv-x="676" 
d="M36 0l98 697h197q154 0 236.5 -75t82.5 -214q0 -88 -25 -162.5t-76 -129.5t-128.5 -85.5t-182.5 -30.5h-202zM167 106h69q92 0 151 27.5t91.5 72.5t45 99t12.5 106q0 66 -25.5 105t-74 57t-116.5 18h-85zM397 739l-121 162h77l56 -76l82 76h87z" />
    <glyph glyph-name="dcaron" unicode="&#x10f;" horiz-adv-x="744" 
d="M228 -9q-58 0 -100.5 27t-64.5 75t-22 110q0 58 18 111.5t51.5 96t79.5 67t102 24.5q44 0 78 -17t54.5 -49t21.5 -79l-25 -2l47 342h110l-98 -697h-106l14 137l30 -3q-20 -53 -50 -84.5t-65.5 -45t-74.5 -13.5zM262 93q35 0 64 15t49.5 41t31 59.5t10.5 70.5
q0 38 -12.5 65t-37 42t-58.5 15q-35 0 -64.5 -15t-50 -41t-31.5 -59.5t-11 -70.5q0 -38 13 -65.5t38 -42t59 -14.5zM589 476l70 221h118l-121 -221h-67z" />
    <glyph glyph-name="Dcroat" unicode="&#x110;" horiz-adv-x="676" 
d="M36 0l98 697h197q154 0 236.5 -75t82.5 -214q0 -88 -25 -162.5t-76 -129.5t-128.5 -85.5t-182.5 -30.5h-202zM167 106h69q92 0 151 27.5t91.5 72.5t45 99t12.5 106q0 66 -25.5 105t-74 57t-116.5 18h-85zM6 312l10 74h301l-10 -74h-301z" />
    <glyph glyph-name="dcroat" unicode="&#x111;" 
d="M228 -9q-58 0 -100.5 27t-64.5 75t-22 110q0 58 18 111.5t51.5 96t79.5 67t102 24.5q44 0 78 -17t54.5 -49t21.5 -79l-25 -2l47 342h110l-98 -697h-106l14 137l30 -3q-20 -53 -50 -84.5t-65.5 -45t-74.5 -13.5zM262 93q35 0 64 15t49.5 41t31 59.5t10.5 70.5
q0 38 -12.5 65t-37 42t-58.5 15q-35 0 -64.5 -15t-50 -41t-31.5 -59.5t-11 -70.5q0 -38 13 -65.5t38 -42t59 -14.5zM321 564l10 74h301l-10 -74h-301z" />
    <glyph glyph-name="Emacron" unicode="&#x112;" 
d="M36 0l98 697h463l-15 -103h-347l-25 -185h320l-15 -104h-320l-29 -202h347l-14 -103h-463zM246 776l14 65h268l-15 -65h-267z" />
    <glyph glyph-name="emacron" unicode="&#x113;" horiz-adv-x="542" 
d="M252 -9q-74 0 -121 28.5t-69 76.5t-22 106q0 55 17 108.5t51 97t83 69t113 25.5q69 0 112.5 -27t65 -73t21.5 -104q0 -22 -3.5 -46t-8.5 -45h-343q-1 -6 -0.5 -11.5t0.5 -11.5q3 -46 32 -70.5t78 -24.5q40 0 74.5 13t65.5 38l59 -75q-45 -36 -95 -55t-110 -19zM398 269
q2 14 3.5 24t1.5 23q0 25 -10 46.5t-31.5 35.5t-57.5 14q-40 0 -70 -18t-49 -46t-26 -58h275zM190 572l14 65h268l-15 -65h-267z" />
    <glyph glyph-name="Ebreve" unicode="&#x114;" 
d="M36 0l98 697h463l-15 -103h-347l-25 -185h320l-15 -104h-320l-29 -202h347l-14 -103h-463zM370 739q-42 0 -74.5 14t-49 42.5t-13.5 71.5h71q-3 -33 17.5 -50t59.5 -17q37 0 62 16t29 51h70q-11 -71 -55.5 -99.5t-116.5 -28.5z" />
    <glyph glyph-name="ebreve" unicode="&#x115;" horiz-adv-x="542" 
d="M252 -9q-74 0 -121 28.5t-69 76.5t-22 106q0 55 17 108.5t51 97t83 69t113 25.5q69 0 112.5 -27t65 -73t21.5 -104q0 -22 -3.5 -46t-8.5 -45h-343q-1 -6 -0.5 -11.5t0.5 -11.5q3 -46 32 -70.5t78 -24.5q40 0 74.5 13t65.5 38l59 -75q-45 -36 -95 -55t-110 -19zM398 269
q2 14 3.5 24t1.5 23q0 25 -10 46.5t-31.5 35.5t-57.5 14q-40 0 -70 -18t-49 -46t-26 -58h275zM317 551q-62 0 -104 28t-46 88v10.5t1 19.5h66q-1 -6 -1 -12t1 -11q3 -29 24 -44.5t60 -15.5q44 0 65.5 22t25.5 61h68q-8 -73 -50.5 -109.5t-109.5 -36.5z" />
    <glyph glyph-name="Edotaccent" unicode="&#x116;" 
d="M36 0l98 697h463l-15 -103h-347l-25 -185h320l-15 -104h-320l-29 -202h347l-14 -103h-463zM316 778l17 123h122l-17 -123h-122z" />
    <glyph glyph-name="edotaccent" unicode="&#x117;" horiz-adv-x="542" 
d="M252 -9q-74 0 -121 28.5t-69 76.5t-22 106q0 55 17 108.5t51 97t83 69t113 25.5q69 0 112.5 -27t65 -73t21.5 -104q0 -22 -3.5 -46t-8.5 -45h-343q-1 -6 -0.5 -11.5t0.5 -11.5q3 -46 32 -70.5t78 -24.5q40 0 74.5 13t65.5 38l59 -75q-45 -36 -95 -55t-110 -19zM398 269
q2 14 3.5 24t1.5 23q0 25 -10 46.5t-31.5 35.5t-57.5 14q-40 0 -70 -18t-49 -46t-26 -58h275zM260 574l17 123h122l-17 -123h-122z" />
    <glyph glyph-name="Eogonek" unicode="&#x118;" 
d="M36 0l98 697h463l-15 -103h-347l-25 -185h320l-15 -104h-320l-29 -202h347l-14 -103h-463zM437 -220q-46 0 -77.5 26.5t-31.5 70.5q0 32 13.5 56t33 41t36.5 27l88 -1q-12 -6 -29.5 -16.5t-34.5 -25t-28.5 -32.5t-11.5 -38t12 -29.5t29 -9.5q13 0 27 5t26 15l35 -58
q-18 -14 -39 -22.5t-48 -8.5z" />
    <glyph glyph-name="eogonek" unicode="&#x119;" horiz-adv-x="542" 
d="M252 -9q-74 0 -121 28.5t-69 76.5t-22 106q0 55 17 108.5t51 97t83 69t113 25.5q69 0 112.5 -27t65 -73t21.5 -104q0 -22 -3.5 -46t-8.5 -45h-343q-1 -6 -0.5 -11.5t0.5 -11.5q3 -46 32 -70.5t78 -24.5q40 0 74.5 13t65.5 38l59 -75q-45 -36 -95 -55t-110 -19zM398 269
q2 14 3.5 24t1.5 23q0 25 -10 46.5t-31.5 35.5t-57.5 14q-40 0 -70 -18t-49 -46t-26 -58h275zM257 -220q-46 0 -77.5 26.5t-31.5 70.5q0 32 13.5 56t33 41t36.5 27l88 -1q-12 -6 -29.5 -16.5t-34.5 -25t-28.5 -32.5t-11.5 -38t12 -29.5t29 -9.5q13 0 27 5t26 15l35 -58
q-18 -14 -39 -22.5t-48 -8.5z" />
    <glyph glyph-name="Ecaron" unicode="&#x11a;" 
d="M36 0l98 697h463l-15 -103h-347l-25 -185h320l-15 -104h-320l-29 -202h347l-14 -103h-463zM372 739l-121 162h77l56 -76l82 76h87z" />
    <glyph glyph-name="ecaron" unicode="&#x11b;" horiz-adv-x="542" 
d="M252 -9q-74 0 -121 28.5t-69 76.5t-22 106q0 55 17 108.5t51 97t83 69t113 25.5q69 0 112.5 -27t65 -73t21.5 -104q0 -22 -3.5 -46t-8.5 -45h-343q-1 -6 -0.5 -11.5t0.5 -11.5q3 -46 32 -70.5t78 -24.5q40 0 74.5 13t65.5 38l59 -75q-45 -36 -95 -55t-110 -19zM398 269
q2 14 3.5 24t1.5 23q0 25 -10 46.5t-31.5 35.5t-57.5 14q-40 0 -70 -18t-49 -46t-26 -58h275zM316 535l-121 162h77l56 -76l82 76h87z" />
    <glyph glyph-name="Gcircumflex" unicode="&#x11c;" horiz-adv-x="733" 
d="M334 -14q-86 0 -149 37t-98 104.5t-35 158.5q0 83 26 159.5t75.5 136.5t119.5 94.5t158 34.5q111 0 183.5 -55.5t94.5 -151.5l-111 -34q-14 64 -58.5 97.5t-112.5 33.5q-63 0 -111 -26t-81.5 -70.5t-50.5 -100t-17 -115.5q0 -91 47 -142t130 -51q38 0 76 10.5t71 35
t56.5 65.5t32.5 103l5 41l15 -80h-198l14 103h276l-53 -374h-101v121l19 -18q-24 -41 -59.5 -67t-77 -38t-86.5 -12zM291 747l173 170l129 -170h-84l-54 76l-74 -76h-90z" />
    <glyph glyph-name="gcircumflex" unicode="&#x11d;" horiz-adv-x="581" 
d="M218 -213q-56 0 -96.5 15.5t-67.5 42.5t-44 59l92 62q14 -34 42 -59t75 -25q32 0 64.5 11t57.5 40t31 84l15 113l15 -15q-32 -58 -77 -82.5t-99 -24.5q-57 0 -98.5 27t-63.5 74t-22 106q0 55 18.5 106.5t51 92t77.5 64.5t98 24q63 0 101 -30.5t48 -80.5l-12 -12l19 114
h107l-68 -483q-10 -76 -45.5 -125.5t-91 -73.5t-127.5 -24zM265 109q34 0 62 13.5t48.5 37t31.5 55t11 67.5q0 35 -12.5 62t-37 42t-58.5 15t-62.5 -14t-49.5 -38.5t-32.5 -56t-11.5 -66.5q0 -34 13.5 -60.5t38.5 -41.5t59 -15zM185 543l173 170l129 -170h-84l-54 76
l-74 -76h-90z" />
    <glyph glyph-name="Gbreve" unicode="&#x11e;" horiz-adv-x="733" 
d="M334 -14q-86 0 -149 37t-98 104.5t-35 158.5q0 83 26 159.5t75.5 136.5t119.5 94.5t158 34.5q111 0 183.5 -55.5t94.5 -151.5l-111 -34q-14 64 -58.5 97.5t-112.5 33.5q-63 0 -111 -26t-81.5 -70.5t-50.5 -100t-17 -115.5q0 -91 47 -142t130 -51q38 0 76 10.5t71 35
t56.5 65.5t32.5 103l5 41l15 -80h-198l14 103h276l-53 -374h-101v121l19 -18q-24 -41 -59.5 -67t-77 -38t-86.5 -12zM439 739q-42 0 -74.5 14t-49 42.5t-13.5 71.5h71q-3 -33 17.5 -50t59.5 -17q37 0 62 16t29 51h70q-11 -71 -55.5 -99.5t-116.5 -28.5z" />
    <glyph glyph-name="gbreve" unicode="&#x11f;" horiz-adv-x="581" 
d="M218 -213q-56 0 -96.5 15.5t-67.5 42.5t-44 59l92 62q14 -34 42 -59t75 -25q32 0 64.5 11t57.5 40t31 84l15 113l15 -15q-32 -58 -77 -82.5t-99 -24.5q-57 0 -98.5 27t-63.5 74t-22 106q0 55 18.5 106.5t51 92t77.5 64.5t98 24q63 0 101 -30.5t48 -80.5l-12 -12l19 114
h107l-68 -483q-10 -76 -45.5 -125.5t-91 -73.5t-127.5 -24zM265 109q34 0 62 13.5t48.5 37t31.5 55t11 67.5q0 35 -12.5 62t-37 42t-58.5 15t-62.5 -14t-49.5 -38.5t-32.5 -56t-11.5 -66.5q0 -34 13.5 -60.5t38.5 -41.5t59 -15zM336 551q-62 0 -104 28t-46 88v10.5t1 19.5
h66q-1 -6 -1 -12t1 -11q3 -29 24 -44.5t60 -15.5q44 0 65.5 22t25.5 61h68q-8 -73 -50.5 -109.5t-109.5 -36.5z" />
    <glyph glyph-name="Gdotaccent" unicode="&#x120;" horiz-adv-x="733" 
d="M334 -14q-86 0 -149 37t-98 104.5t-35 158.5q0 83 26 159.5t75.5 136.5t119.5 94.5t158 34.5q111 0 183.5 -55.5t94.5 -151.5l-111 -34q-14 64 -58.5 97.5t-112.5 33.5q-63 0 -111 -26t-81.5 -70.5t-50.5 -100t-17 -115.5q0 -91 47 -142t130 -51q38 0 76 10.5t71 35
t56.5 65.5t32.5 103l5 41l15 -80h-198l14 103h276l-53 -374h-101v121l19 -18q-24 -41 -59.5 -67t-77 -38t-86.5 -12zM385 778l17 123h122l-17 -123h-122z" />
    <glyph glyph-name="gdotaccent" unicode="&#x121;" horiz-adv-x="581" 
d="M218 -213q-56 0 -96.5 15.5t-67.5 42.5t-44 59l92 62q14 -34 42 -59t75 -25q32 0 64.5 11t57.5 40t31 84l15 113l15 -15q-32 -58 -77 -82.5t-99 -24.5q-57 0 -98.5 27t-63.5 74t-22 106q0 55 18.5 106.5t51 92t77.5 64.5t98 24q63 0 101 -30.5t48 -80.5l-12 -12l19 114
h107l-68 -483q-10 -76 -45.5 -125.5t-91 -73.5t-127.5 -24zM265 109q34 0 62 13.5t48.5 37t31.5 55t11 67.5q0 35 -12.5 62t-37 42t-58.5 15t-62.5 -14t-49.5 -38.5t-32.5 -56t-11.5 -66.5q0 -34 13.5 -60.5t38.5 -41.5t59 -15zM279 574l17 123h122l-17 -123h-122z" />
    <glyph glyph-name="uni0122" unicode="&#x122;" horiz-adv-x="733" 
d="M334 -14q-86 0 -149 37t-98 104.5t-35 158.5q0 83 26 159.5t75.5 136.5t119.5 94.5t158 34.5q111 0 183.5 -55.5t94.5 -151.5l-111 -34q-14 64 -58.5 97.5t-112.5 33.5q-63 0 -111 -26t-81.5 -70.5t-50.5 -100t-17 -115.5q0 -91 47 -142t130 -51q38 0 76 10.5t71 35
t56.5 65.5t32.5 103l5 41l15 -80h-198l14 103h276l-53 -374h-101v121l19 -18q-24 -41 -59.5 -67t-77 -38t-86.5 -12zM207 -225l71 172h117l-122 -172h-66z" />
    <glyph glyph-name="uni0123" unicode="&#x123;" horiz-adv-x="581" 
d="M218 -213q-56 0 -96.5 15.5t-67.5 42.5t-44 59l92 62q14 -34 42 -59t75 -25q32 0 64.5 11t57.5 40t31 84l15 113l15 -15q-32 -58 -77 -82.5t-99 -24.5q-57 0 -98.5 27t-63.5 74t-22 106q0 55 18.5 106.5t51 92t77.5 64.5t98 24q63 0 101 -30.5t48 -80.5l-12 -12l19 114
h107l-68 -483q-10 -76 -45.5 -125.5t-91 -73.5t-127.5 -24zM265 109q34 0 62 13.5t48.5 37t31.5 55t11 67.5q0 35 -12.5 62t-37 42t-58.5 15t-62.5 -14t-49.5 -38.5t-32.5 -56t-11.5 -66.5q0 -34 13.5 -60.5t38.5 -41.5t59 -15zM241 552l139 154h68l-89 -154h-118z" />
    <glyph glyph-name="Hcircumflex" unicode="&#x124;" horiz-adv-x="688" 
d="M36 0l98 697h116l-40 -285h314l40 285h116l-98 -697h-116l44 305h-315l-43 -305h-116zM264 747l173 170l129 -170h-84l-54 76l-74 -76h-90z" />
    <glyph glyph-name="hcircumflex" unicode="&#x125;" horiz-adv-x="559" 
d="M30 0l98 697h111l-44 -313l-21 2q19 43 47.5 68.5t62.5 36.5t69 11q75 0 116.5 -39t41.5 -110q0 -9 -0.5 -18.5t-1.5 -18.5l-45 -316h-111l40 281q2 11 2.5 20.5t0.5 20.5q0 44 -19.5 64t-57.5 20q-59 0 -95.5 -41.5t-49.5 -128.5l-33 -236h-111zM35 747l179 170
l131 -170h-87l-53 76l-77 -76h-93z" />
    <glyph glyph-name="Hbar" unicode="&#x126;" horiz-adv-x="688" 
d="M36 0l98 697h116l-40 -285h314l40 285h116l-98 -697h-116l44 305h-315l-43 -305h-116zM56 516l10 66h653l-10 -66h-653z" />
    <glyph glyph-name="hbar" unicode="&#x127;" horiz-adv-x="559" 
d="M30 0l98 697h111l-44 -313l-21 2q19 43 47.5 68.5t62.5 36.5t69 11q75 0 116.5 -39t41.5 -110q0 -9 -0.5 -18.5t-1.5 -18.5l-45 -316h-111l40 281q2 11 2.5 20.5t0.5 20.5q0 44 -19.5 64t-57.5 20q-59 0 -95.5 -41.5t-49.5 -128.5l-33 -236h-111zM62 558l10 74h301
l-10 -74h-301z" />
    <glyph glyph-name="Itilde" unicode="&#x128;" horiz-adv-x="258" 
d="M36 0l98 697h116l-98 -697h-116zM268 742q-25 0 -41 7t-26 18t-18 21.5t-16.5 17.5t-19.5 7q-18 0 -32 -18.5t-18 -50.5l-63 6q8 60 39 92t76 32q23 0 37.5 -7t25 -18t18.5 -21.5t16.5 -18t19.5 -7.5q16 0 30 20t18 52l67 -6q-9 -61 -39 -93.5t-74 -32.5z" />
    <glyph glyph-name="itilde" unicode="&#x129;" horiz-adv-x="239" 
d="M29 0l69 493h111l-69 -493h-111zM238 559q-36 0 -52.5 15t-28.5 31q-8 12 -16.5 19t-18.5 7q-18 0 -32.5 -20t-21.5 -53l-62 9q13 66 45 99.5t75 33.5q31 0 46.5 -14t26.5 -30q9 -11 17.5 -20t21.5 -9q16 0 31 21t21 54l65 -10q-13 -66 -44 -99.5t-73 -33.5z" />
    <glyph glyph-name="Imacron" unicode="&#x12a;" horiz-adv-x="258" 
d="M36 0l98 697h116l-98 -697h-116zM73 776l14 65h268l-15 -65h-267z" />
    <glyph glyph-name="imacron" unicode="&#x12b;" horiz-adv-x="239" 
d="M29 0l69 493h111l-69 -493h-111zM35 572l14 65h268l-15 -65h-267z" />
    <glyph glyph-name="Ibreve" unicode="&#x12c;" horiz-adv-x="258" 
d="M36 0l98 697h116l-98 -697h-116zM197 739q-42 0 -74.5 14t-49 42.5t-13.5 71.5h71q-3 -33 17.5 -50t59.5 -17q37 0 62 16t29 51h70q-11 -71 -55.5 -99.5t-116.5 -28.5z" />
    <glyph glyph-name="ibreve" unicode="&#x12d;" horiz-adv-x="239" 
d="M29 0l69 493h111l-69 -493h-111zM162 551q-62 0 -104 28t-46 88v10.5t1 19.5h66q-1 -6 -1 -12t1 -11q3 -29 24 -44.5t60 -15.5q44 0 65.5 22t25.5 61h68q-8 -73 -50.5 -109.5t-109.5 -36.5z" />
    <glyph glyph-name="Iogonek" unicode="&#x12e;" horiz-adv-x="258" 
d="M36 0l98 697h116l-98 -697h-116zM90 -220q-46 0 -77.5 26.5t-31.5 70.5q0 32 13.5 56t33 41t36.5 27l88 -1q-12 -6 -29.5 -16.5t-34.5 -25t-28.5 -32.5t-11.5 -38t12 -29.5t29 -9.5q13 0 27 5t26 15l35 -58q-18 -14 -39 -22.5t-48 -8.5z" />
    <glyph glyph-name="iogonek" unicode="&#x12f;" horiz-adv-x="239" 
d="M29 0l69 493h111l-69 -493h-111zM104 574l17 123h122l-17 -123h-122zM78 -220q-46 0 -77.5 26.5t-31.5 70.5q0 32 13.5 56t33 41t36.5 27l88 -1q-12 -6 -29.5 -16.5t-34.5 -25t-28.5 -32.5t-11.5 -38t12 -29.5t29 -9.5q13 0 27 5t26 15l35 -58q-18 -14 -39 -22.5
t-48 -8.5z" />
    <glyph glyph-name="Idotaccent" unicode="&#x130;" horiz-adv-x="258" 
d="M36 0l98 697h116l-98 -697h-116zM143 778l17 123h122l-17 -123h-122z" />
    <glyph glyph-name="dotlessi" unicode="&#x131;" horiz-adv-x="239" 
d="M29 0l69 493h111l-69 -493h-111z" />
    <glyph glyph-name="IJ" unicode="&#x132;" horiz-adv-x="812" 
d="M36 0l98 697h116l-98 -697h-116zM485 -14q-95 0 -151 54t-58 150l115 6q1 -51 25.5 -77t76.5 -26q64 0 97 42.5t43 117.5l47 341h-266l15 103h382l-64 -457q-11 -80 -46.5 -137t-90 -87t-125.5 -30z" />
    <glyph glyph-name="ij" unicode="&#x133;" horiz-adv-x="478" 
d="M29 0l69 493h111l-69 -493h-111zM104 574l17 123h122l-17 -123h-122zM240 -213q-22 0 -43.5 4.5t-42.5 10.5l8 94q13 -3 24 -4.5t16 -1.5q24 0 39 12t19 43l77 548h111l-82 -584q-9 -65 -43 -93.5t-83 -28.5zM343 574l17 123h122l-17 -123h-122z" />
    <glyph glyph-name="Jcircumflex" unicode="&#x134;" horiz-adv-x="554" 
d="M227 -14q-95 0 -151 54t-58 150l115 6q1 -51 25.5 -77t76.5 -26q64 0 97 42.5t43 117.5l47 341h-266l15 103h382l-64 -457q-11 -80 -46.5 -137t-90 -87t-125.5 -30zM218 747l173 170l129 -170h-84l-54 76l-74 -76h-90z" />
    <glyph glyph-name="jcircumflex" unicode="&#x135;" horiz-adv-x="239" 
d="M1 -213q-22 0 -43.5 4.5t-42.5 10.5l8 94q13 -3 24 -4.5t16 -1.5q24 0 39 12t19 43l77 548h111l-82 -584q-9 -65 -43 -93.5t-83 -28.5zM10 543l173 170l129 -170h-84l-54 76l-74 -76h-90z" />
    <glyph glyph-name="uni0136" unicode="&#x136;" horiz-adv-x="653" 
d="M159 214l18 146l368 337h157zM36 0l98 697h116l-98 -697h-116zM470 0l-177 359l95 80l216 -439h-134zM163 -225l71 172h117l-122 -172h-66z" />
    <glyph glyph-name="uni0137" unicode="&#x137;" horiz-adv-x="550" 
d="M371 0l-121 236l-99 -94l18 138l224 213h151l-213 -186l164 -307h-124zM29 0l98 697h112l-98 -697h-112zM115 -225l71 172h117l-122 -172h-66z" />
    <glyph glyph-name="kgreenlandic" unicode="&#x138;" horiz-adv-x="551" 
d="M153 142l17 138l225 213h150l-212 -186l163 -307h-123l-121 236zM31 0l69 493h111l-69 -493h-111z" />
    <glyph glyph-name="Lacute" unicode="&#x139;" horiz-adv-x="501" 
d="M36 0l98 697h116l-84 -594h302l-15 -103h-417zM155 759l116 142h119l-154 -142h-81z" />
    <glyph glyph-name="lacute" unicode="&#x13a;" horiz-adv-x="277" 
d="M144 -9q-45 0 -73 24.5t-28 74.5q0 7 0.5 14t1.5 14l80 579h111l-77 -552q-1 -7 -1 -12v-10q0 -17 8 -24t22 -7q10 0 20 2.5t21 4.5l-14 -96q-20 -7 -38.5 -9.5t-32.5 -2.5zM143 759l116 142h119l-154 -142h-81z" />
    <glyph glyph-name="uni013B" unicode="&#x13b;" horiz-adv-x="501" 
d="M36 0l98 697h116l-84 -594h302l-15 -103h-417zM96 -225l71 172h117l-122 -172h-66z" />
    <glyph glyph-name="uni013C" unicode="&#x13c;" horiz-adv-x="277" 
d="M144 -9q-45 0 -73 24.5t-28 74.5q0 7 0.5 14t1.5 14l80 579h111l-77 -552q-1 -7 -1 -12v-10q0 -17 8 -24t22 -7q10 0 20 2.5t21 4.5l-14 -96q-20 -7 -38.5 -9.5t-32.5 -2.5zM-26 -225l71 172h117l-122 -172h-66z" />
    <glyph glyph-name="Lcaron" unicode="&#x13d;" horiz-adv-x="501" 
d="M36 0l98 697h116l-84 -594h302l-15 -103h-417zM370 476l70 221h118l-121 -221h-67z" />
    <glyph glyph-name="lcaron" unicode="&#x13e;" horiz-adv-x="348" 
d="M144 -9q-45 0 -73 24.5t-28 74.5q0 7 0.5 14t1.5 14l80 579h111l-77 -552q-1 -7 -1 -12v-10q0 -17 8 -24t22 -7q10 0 20 2.5t21 4.5l-14 -96q-20 -7 -38.5 -9.5t-32.5 -2.5zM253 476l70 221h118l-121 -221h-67z" />
    <glyph glyph-name="Ldot" unicode="&#x13f;" horiz-adv-x="587" 
d="M36 0l98 697h116l-84 -594h302l-15 -103h-417zM428 286l18 126h116l-18 -126h-116z" />
    <glyph glyph-name="ldot" unicode="&#x140;" horiz-adv-x="413" 
d="M144 -9q-45 0 -73 24.5t-28 74.5q0 7 0.5 14t1.5 14l80 579h111l-77 -552q-1 -7 -1 -12v-10q0 -17 8 -24t22 -7q10 0 20 2.5t21 4.5l-14 -96q-20 -7 -38.5 -9.5t-32.5 -2.5zM268 286l18 126h116l-18 -126h-116z" />
    <glyph glyph-name="Lslash" unicode="&#x141;" horiz-adv-x="501" 
d="M36 0l98 697h116l-84 -594h302l-15 -103h-417zM2 165l13 115l327 232l-14 -113z" />
    <glyph glyph-name="lslash" unicode="&#x142;" horiz-adv-x="277" 
d="M144 -9q-45 0 -73 24.5t-28 74.5q0 7 0.5 14t1.5 14l80 579h111l-77 -552q-1 -7 -1 -12v-10q0 -17 8 -24t22 -7q10 0 20 2.5t21 4.5l-14 -96q-20 -7 -38.5 -9.5t-32.5 -2.5zM13 215l15 114l251 182l-15 -113z" />
    <glyph glyph-name="Nacute" unicode="&#x143;" horiz-adv-x="685" 
d="M36 0l98 697h119l259 -546h-28l77 546h116l-98 -697h-120l-257 547h27l-77 -547h-116zM366 759l116 142h119l-154 -142h-81z" />
    <glyph glyph-name="nacute" unicode="&#x144;" horiz-adv-x="559" 
d="M30 0l70 493h107l-12 -109l-21 2q19 43 47.5 68.5t62.5 36.5t69 11q75 0 116.5 -39t41.5 -110v-18.5t-2 -18.5l-45 -316h-111l40 281q2 11 2.5 20.5t0.5 20.5q0 44 -19.5 64t-57.5 20q-59 0 -95.5 -41.5t-49.5 -128.5l-33 -236h-111zM270 555l116 142h119l-154 -142h-81z
" />
    <glyph glyph-name="uni0145" unicode="&#x145;" horiz-adv-x="685" 
d="M36 0l98 697h119l259 -546h-28l77 546h116l-98 -697h-120l-257 547h27l-77 -547h-116zM176 -225l71 172h117l-122 -172h-66z" />
    <glyph glyph-name="uni0146" unicode="&#x146;" horiz-adv-x="559" 
d="M30 0l70 493h107l-12 -109l-21 2q19 43 47.5 68.5t62.5 36.5t69 11q75 0 116.5 -39t41.5 -110v-18.5t-2 -18.5l-45 -316h-111l40 281q2 11 2.5 20.5t0.5 20.5q0 44 -19.5 64t-57.5 20q-59 0 -95.5 -41.5t-49.5 -128.5l-33 -236h-111zM110 -225l71 172h117l-122 -172h-66z
" />
    <glyph glyph-name="Ncaron" unicode="&#x147;" horiz-adv-x="685" 
d="M36 0l98 697h119l259 -546h-28l77 546h116l-98 -697h-120l-257 547h27l-77 -547h-116zM410 739l-121 162h77l56 -76l82 76h87z" />
    <glyph glyph-name="ncaron" unicode="&#x148;" horiz-adv-x="559" 
d="M30 0l70 493h107l-12 -109l-21 2q19 43 47.5 68.5t62.5 36.5t69 11q75 0 116.5 -39t41.5 -110v-18.5t-2 -18.5l-45 -316h-111l40 281q2 11 2.5 20.5t0.5 20.5q0 44 -19.5 64t-57.5 20q-59 0 -95.5 -41.5t-49.5 -128.5l-33 -236h-111zM315 535l-121 162h77l56 -76l82 76
h87z" />
    <glyph glyph-name="napostrophe" unicode="&#x149;" horiz-adv-x="693" 
d="M23 417l112 280h130l-167 -280h-75zM154 0l70 493h107l-12 -109l-21 2q19 43 47.5 68.5t62.5 36.5t69 11q75 0 116.5 -39t41.5 -110v-18.5t-2 -18.5l-45 -316h-111l40 281q2 11 2.5 20.5t0.5 20.5q0 44 -19.5 64t-57.5 20q-59 0 -95.5 -41.5t-49.5 -128.5l-33 -236h-111z
" />
    <glyph glyph-name="Eng" unicode="&#x14a;" horiz-adv-x="685" 
d="M393 -181q-19 0 -36.5 2t-37.5 6l6 73q9 -2 19.5 -3t16.5 -1q47 0 73 22t30 51q0 1 0.5 4t0.5 7q0 13 -4 23l-258 532h24l-75 -535h-116l98 697h119l257 -533h-24l75 533h116l-99 -702q-7 -49 -28.5 -89t-60 -63.5t-96.5 -23.5z" />
    <glyph glyph-name="eng" unicode="&#x14b;" horiz-adv-x="611" 
d="M358 -213q-21 0 -39.5 4t-38.5 11l7 87q13 -3 22 -4.5t13 -1.5q20 0 33.5 11t16.5 36l51 362q1 9 1.5 18t0.5 15q0 23 -7 41.5t-24.5 29t-48.5 10.5q-59 0 -94.5 -42.5t-47.5 -129.5l-34 -234h-111l70 493h107l-14 -129l-18 16q18 47 47 73.5t63 37.5t68 11
q76 0 118 -38.5t42 -106.5v-15.5t-2 -16.5l-59 -416q-10 -65 -42.5 -93.5t-79.5 -28.5z" />
    <glyph glyph-name="Omacron" unicode="&#x14c;" horiz-adv-x="748" 
d="M341 -14q-89 0 -153.5 37t-100 105t-35.5 160q0 81 26 157t75.5 136t119.5 95t159 35q90 0 154.5 -37t100 -104.5t35.5 -160.5q0 -83 -26 -159t-75.5 -135.5t-120 -94t-159.5 -34.5zM348 96q62 0 109.5 25t81 68.5t50.5 98t17 114.5q0 92 -47 145.5t-134 53.5
q-62 0 -110 -25.5t-81 -69.5t-50 -99t-17 -113q0 -61 21.5 -105.5t62 -68.5t97.5 -24zM317 776l14 65h268l-15 -65h-267z" />
    <glyph glyph-name="omacron" unicode="&#x14d;" horiz-adv-x="573" 
d="M255 -9q-64 0 -113 28t-76 77.5t-27 114.5q0 59 20.5 111t57.5 92.5t88 64t112 23.5q66 0 114 -27.5t75 -76.5t27 -114q0 -59 -21 -112t-58.5 -94t-88 -64t-110.5 -23zM262 89q39 0 68.5 16.5t50.5 44t31.5 61.5t10.5 70q0 54 -28.5 89t-83.5 35q-40 0 -70.5 -16.5
t-51 -45t-31 -62t-10.5 -67.5q0 -55 29.5 -90t84.5 -35zM201 572l14 65h268l-15 -65h-267z" />
    <glyph glyph-name="Obreve" unicode="&#x14e;" horiz-adv-x="748" 
d="M341 -14q-89 0 -153.5 37t-100 105t-35.5 160q0 81 26 157t75.5 136t119.5 95t159 35q90 0 154.5 -37t100 -104.5t35.5 -160.5q0 -83 -26 -159t-75.5 -135.5t-120 -94t-159.5 -34.5zM348 96q62 0 109.5 25t81 68.5t50.5 98t17 114.5q0 92 -47 145.5t-134 53.5
q-62 0 -110 -25.5t-81 -69.5t-50 -99t-17 -113q0 -61 21.5 -105.5t62 -68.5t97.5 -24zM440 739q-42 0 -74.5 14t-49 42.5t-13.5 71.5h71q-3 -33 17.5 -50t59.5 -17q37 0 62 16t29 51h70q-11 -71 -55.5 -99.5t-116.5 -28.5z" />
    <glyph glyph-name="obreve" unicode="&#x14f;" horiz-adv-x="573" 
d="M255 -9q-64 0 -113 28t-76 77.5t-27 114.5q0 59 20.5 111t57.5 92.5t88 64t112 23.5q66 0 114 -27.5t75 -76.5t27 -114q0 -59 -21 -112t-58.5 -94t-88 -64t-110.5 -23zM262 89q39 0 68.5 16.5t50.5 44t31.5 61.5t10.5 70q0 54 -28.5 89t-83.5 35q-40 0 -70.5 -16.5
t-51 -45t-31 -62t-10.5 -67.5q0 -55 29.5 -90t84.5 -35zM329 551q-62 0 -104 28t-46 88v10.5t1 19.5h66q-1 -6 -1 -12t1 -11q3 -29 24 -44.5t60 -15.5q44 0 65.5 22t25.5 61h68q-8 -73 -50.5 -109.5t-109.5 -36.5z" />
    <glyph glyph-name="Ohungarumlaut" unicode="&#x150;" horiz-adv-x="748" 
d="M341 -14q-89 0 -153.5 37t-100 105t-35.5 160q0 81 26 157t75.5 136t119.5 95t159 35q90 0 154.5 -37t100 -104.5t35.5 -160.5q0 -83 -26 -159t-75.5 -135.5t-120 -94t-159.5 -34.5zM348 96q62 0 109.5 25t81 68.5t50.5 98t17 114.5q0 92 -47 145.5t-134 53.5
q-62 0 -110 -25.5t-81 -69.5t-50 -99t-17 -113q0 -61 21.5 -105.5t62 -68.5t97.5 -24zM496 759l114 142h120l-145 -142h-89zM308 759l114 142h102l-130 -142h-86z" />
    <glyph glyph-name="ohungarumlaut" unicode="&#x151;" horiz-adv-x="573" 
d="M255 -9q-64 0 -113 28t-76 77.5t-27 114.5q0 59 20.5 111t57.5 92.5t88 64t112 23.5q66 0 114 -27.5t75 -76.5t27 -114q0 -59 -21 -112t-58.5 -94t-88 -64t-110.5 -23zM262 89q39 0 68.5 16.5t50.5 44t31.5 61.5t10.5 70q0 54 -28.5 89t-83.5 35q-40 0 -70.5 -16.5
t-51 -45t-31 -62t-10.5 -67.5q0 -55 29.5 -90t84.5 -35zM381 555l114 142h120l-145 -142h-89zM193 555l114 142h102l-130 -142h-86z" />
    <glyph glyph-name="OE" unicode="&#x152;" horiz-adv-x="998" 
d="M374 0q-156 0 -239 72t-83 207q0 91 27 167.5t79.5 132.5t129.5 87t177 31h550l-15 -103h-347l-26 -185h320l-14 -104h-320l-29 -202h347l-14 -103h-543zM394 106h75l68 485h-79q-84 0 -140.5 -27t-89 -71.5t-46.5 -99.5t-14 -111q0 -66 26.5 -104.5t77.5 -55t122 -16.5z
" />
    <glyph glyph-name="oe" unicode="&#x153;" horiz-adv-x="923" 
d="M632 -9q-74 0 -121 28.5t-69 76.5t-22 106q0 55 17 108.5t51 97t83 69t113 25.5q69 0 112.5 -27t65 -73t21.5 -104q0 -22 -3.5 -46t-8.5 -45h-343q-1 -6 -0.5 -11.5t0.5 -11.5q3 -46 32 -70.5t78 -24.5q40 0 74.5 13t65.5 38l59 -75q-45 -36 -95 -55t-110 -19zM778 269
q2 14 3.5 24t1.5 23q0 25 -10 46.5t-31.5 35.5t-57.5 14q-40 0 -70 -18t-49 -46t-26 -58h275zM255 -9q-64 0 -113 28t-76 77.5t-27 114.5q0 59 20.5 111t57.5 92.5t88 64t112 23.5q66 0 114 -27.5t75 -76.5t27 -114q0 -59 -21 -112t-58.5 -94t-88 -64t-110.5 -23zM262 89
q39 0 68.5 16.5t50.5 44t31.5 61.5t10.5 70q0 54 -28.5 89t-83.5 35q-40 0 -70.5 -16.5t-51 -45t-31 -62t-10.5 -67.5q0 -55 29.5 -90t84.5 -35z" />
    <glyph glyph-name="Racute" unicode="&#x154;" horiz-adv-x="607" 
d="M36 0l98 697h216q107 0 162 -43t55 -124q0 -60 -23 -111t-71.5 -83.5t-125.5 -41.5h-33h-36h-85l-42 -294h-115zM423 0l-137 306l116 14l149 -320h-128zM207 395h93q71 0 111 30.5t40 89.5q0 44 -32 61.5t-85 17.5h-99zM316 759l116 142h119l-154 -142h-81z" />
    <glyph glyph-name="racute" unicode="&#x155;" horiz-adv-x="419" 
d="M29 0l70 493h108l-15 -133l-22 3q10 43 38.5 74.5t65 48t70.5 16.5q24 0 45.5 -6.5t43.5 -21.5l-63 -96q-10 6 -26 10t-30 4q-47 0 -76 -24.5t-44.5 -64.5t-22.5 -88l-30 -215h-112zM190 555l116 142h119l-154 -142h-81z" />
    <glyph glyph-name="uni0156" unicode="&#x156;" horiz-adv-x="607" 
d="M36 0l98 697h216q107 0 162 -43t55 -124q0 -60 -23 -111t-71.5 -83.5t-125.5 -41.5h-33h-36h-85l-42 -294h-115zM423 0l-137 306l116 14l149 -320h-128zM207 395h93q71 0 111 30.5t40 89.5q0 44 -32 61.5t-85 17.5h-99zM126 -225l71 172h117l-122 -172h-66z" />
    <glyph glyph-name="uni0157" unicode="&#x157;" horiz-adv-x="419" 
d="M29 0l70 493h108l-15 -133l-22 3q10 43 38.5 74.5t65 48t70.5 16.5q24 0 45.5 -6.5t43.5 -21.5l-63 -96q-10 6 -26 10t-30 4q-47 0 -76 -24.5t-44.5 -64.5t-22.5 -88l-30 -215h-112zM29 -225l71 172h117l-122 -172h-66z" />
    <glyph glyph-name="Rcaron" unicode="&#x158;" horiz-adv-x="607" 
d="M36 0l98 697h216q107 0 162 -43t55 -124q0 -60 -23 -111t-71.5 -83.5t-125.5 -41.5h-33h-36h-85l-42 -294h-115zM423 0l-137 306l116 14l149 -320h-128zM207 395h93q71 0 111 30.5t40 89.5q0 44 -32 61.5t-85 17.5h-99zM360 739l-121 162h77l56 -76l82 76h87z" />
    <glyph glyph-name="rcaron" unicode="&#x159;" horiz-adv-x="419" 
d="M29 0l70 493h108l-15 -133l-22 3q10 43 38.5 74.5t65 48t70.5 16.5q24 0 45.5 -6.5t43.5 -21.5l-63 -96q-10 6 -26 10t-30 4q-47 0 -76 -24.5t-44.5 -64.5t-22.5 -88l-30 -215h-112zM235 535l-121 162h77l56 -76l82 76h87z" />
    <glyph glyph-name="Sacute" unicode="&#x15a;" horiz-adv-x="572" 
d="M274 -13q-72 0 -128 27t-88 74.5t-34 110.5l116 22q2 -67 42 -99t99 -32q41 0 70 14t44.5 38t15.5 55q0 30 -14.5 50t-41.5 35.5t-66 30.5q-59 25 -98 53.5t-58 64t-19 78.5q0 56 28 102t78.5 73t116.5 27q74 0 130 -33.5t80 -94.5l-98 -50q-15 38 -44.5 57t-67.5 19
q-33 0 -57 -12.5t-37 -33.5t-13 -48q0 -26 12.5 -43.5t40 -32t69.5 -32.5q58 -23 96.5 -51t58.5 -64.5t20 -85.5q0 -65 -32.5 -114.5t-89 -77t-131.5 -27.5zM311 759l116 142h119l-154 -142h-81z" />
    <glyph glyph-name="sacute" unicode="&#x15b;" horiz-adv-x="476" 
d="M211 -9q-55 0 -95 16t-66.5 41t-40.5 49l81 60q17 -36 49 -57t75 -21q29 0 51 8.5t34.5 24.5t12.5 35q0 18 -11.5 29.5t-32 19.5t-49.5 16q-24 7 -50.5 16t-49.5 23.5t-36.5 37.5t-13.5 56q0 47 25 82t69 55t101 20q61 0 106.5 -24.5t66.5 -70.5l-74 -48q-15 30 -42 43
t-60 13q-34 0 -60.5 -15t-26.5 -42q0 -19 18.5 -30t62.5 -22q39 -9 78 -23.5t64 -42t25 -75.5q0 -52 -27 -91t-74.5 -61t-109.5 -22zM237 555l116 142h119l-154 -142h-81z" />
    <glyph glyph-name="Scircumflex" unicode="&#x15c;" horiz-adv-x="572" 
d="M274 -13q-72 0 -128 27t-88 74.5t-34 110.5l116 22q2 -67 42 -99t99 -32q41 0 70 14t44.5 38t15.5 55q0 30 -14.5 50t-41.5 35.5t-66 30.5q-59 25 -98 53.5t-58 64t-19 78.5q0 56 28 102t78.5 73t116.5 27q74 0 130 -33.5t80 -94.5l-98 -50q-15 38 -44.5 57t-67.5 19
q-33 0 -57 -12.5t-37 -33.5t-13 -48q0 -26 12.5 -43.5t40 -32t69.5 -32.5q58 -23 96.5 -51t58.5 -64.5t20 -85.5q0 -65 -32.5 -114.5t-89 -77t-131.5 -27.5zM199 747l179 170l131 -170h-87l-53 76l-77 -76h-93z" />
    <glyph glyph-name="scircumflex" unicode="&#x15d;" horiz-adv-x="476" 
d="M211 -9q-55 0 -95 16t-66.5 41t-40.5 49l81 60q17 -36 49 -57t75 -21q29 0 51 8.5t34.5 24.5t12.5 35q0 18 -11.5 29.5t-32 19.5t-49.5 16q-24 7 -50.5 16t-49.5 23.5t-36.5 37.5t-13.5 56q0 47 25 82t69 55t101 20q61 0 106.5 -24.5t66.5 -70.5l-74 -48q-15 30 -42 43
t-60 13q-34 0 -60.5 -15t-26.5 -42q0 -19 18.5 -30t62.5 -22q39 -9 78 -23.5t64 -42t25 -75.5q0 -52 -27 -91t-74.5 -61t-109.5 -22zM130 543l173 170l129 -170h-84l-54 76l-74 -76h-90z" />
    <glyph glyph-name="Scedilla" unicode="&#x15e;" horiz-adv-x="572" 
d="M274 -13q-72 0 -128 27t-88 74.5t-34 110.5l116 22q2 -67 42 -99t99 -32q41 0 70 14t44.5 38t15.5 55q0 30 -14.5 50t-41.5 35.5t-66 30.5q-59 25 -98 53.5t-58 64t-19 78.5q0 56 28 102t78.5 73t116.5 27q74 0 130 -33.5t80 -94.5l-98 -50q-15 38 -44.5 57t-67.5 19
q-33 0 -57 -12.5t-37 -33.5t-13 -48q0 -26 12.5 -43.5t40 -32t69.5 -32.5q58 -23 96.5 -51t58.5 -64.5t20 -85.5q0 -65 -32.5 -114.5t-89 -77t-131.5 -27.5zM221 -258q-18 0 -42.5 8t-42.5 27l37 53q9 -10 22.5 -17t26.5 -7q21 0 34 11t13 32q0 19 -10 30t-26.5 16t-36 7
t-38.5 2l66 106h68l-47 -62q25 -5 46 -16.5t33 -31t12 -47.5q0 -49 -32.5 -80t-82.5 -31z" />
    <glyph glyph-name="scedilla" unicode="&#x15f;" horiz-adv-x="476" 
d="M211 -9q-55 0 -95 16t-66.5 41t-40.5 49l81 60q17 -36 49 -57t75 -21q29 0 51 8.5t34.5 24.5t12.5 35q0 18 -11.5 29.5t-32 19.5t-49.5 16q-24 7 -50.5 16t-49.5 23.5t-36.5 37.5t-13.5 56q0 47 25 82t69 55t101 20q61 0 106.5 -24.5t66.5 -70.5l-74 -48q-15 30 -42 43
t-60 13q-34 0 -60.5 -15t-26.5 -42q0 -19 18.5 -30t62.5 -22q39 -9 78 -23.5t64 -42t25 -75.5q0 -52 -27 -91t-74.5 -61t-109.5 -22zM174 -258q-18 0 -42.5 8t-42.5 27l37 53q9 -10 22.5 -17t26.5 -7q21 0 34 11t13 32q0 19 -10 30t-26.5 16t-36 7t-38.5 2l66 106h68
l-47 -62q25 -5 46 -16.5t33 -31t12 -47.5q0 -49 -32.5 -80t-82.5 -31z" />
    <glyph glyph-name="Scaron" unicode="&#x160;" horiz-adv-x="572" 
d="M274 -13q-72 0 -128 27t-88 74.5t-34 110.5l116 22q2 -67 42 -99t99 -32q41 0 70 14t44.5 38t15.5 55q0 30 -14.5 50t-41.5 35.5t-66 30.5q-59 25 -98 53.5t-58 64t-19 78.5q0 56 28 102t78.5 73t116.5 27q74 0 130 -33.5t80 -94.5l-98 -50q-15 38 -44.5 57t-67.5 19
q-33 0 -57 -12.5t-37 -33.5t-13 -48q0 -26 12.5 -43.5t40 -32t69.5 -32.5q58 -23 96.5 -51t58.5 -64.5t20 -85.5q0 -65 -32.5 -114.5t-89 -77t-131.5 -27.5zM355 739l-121 162h77l56 -76l82 76h87z" />
    <glyph glyph-name="scaron" unicode="&#x161;" horiz-adv-x="476" 
d="M211 -9q-55 0 -95 16t-66.5 41t-40.5 49l81 60q17 -36 49 -57t75 -21q29 0 51 8.5t34.5 24.5t12.5 35q0 18 -11.5 29.5t-32 19.5t-49.5 16q-24 7 -50.5 16t-49.5 23.5t-36.5 37.5t-13.5 56q0 47 25 82t69 55t101 20q61 0 106.5 -24.5t66.5 -70.5l-74 -48q-15 30 -42 43
t-60 13q-34 0 -60.5 -15t-26.5 -42q0 -19 18.5 -30t62.5 -22q39 -9 78 -23.5t64 -42t25 -75.5q0 -52 -27 -91t-74.5 -61t-109.5 -22zM281 535l-121 162h77l56 -76l82 76h87z" />
    <glyph glyph-name="uni0162" unicode="&#x162;" horiz-adv-x="585" 
d="M199 0l84 594h-222l14 103h560l-14 -103h-221l-84 -594h-117zM227 -258q-18 0 -42.5 8t-42.5 27l37 53q9 -10 22.5 -17t26.5 -7q21 0 34 11t13 32q0 19 -10 30t-26.5 16t-36 7t-38.5 2l66 106h68l-47 -62q25 -5 46 -16.5t33 -31t12 -47.5q0 -49 -32.5 -80t-82.5 -31z" />
    <glyph glyph-name="uni0163" unicode="&#x163;" horiz-adv-x="371" 
d="M214 -9q-35 0 -64 12t-46 38.5t-17 68.5q0 8 0.5 17t2.5 22l65 464l121 62l-71 -509q-1 -8 -2 -17.5t-1 -18.5q0 -24 10 -36t34 -12q13 0 27.5 2.5t30.5 8.5l-13 -90q-20 -6 -39.5 -9t-37.5 -3zM32 407l13 86h315l-11 -86h-317zM155 -258q-18 0 -42.5 8t-42.5 27l37 53
q9 -10 22.5 -17t26.5 -7q21 0 34 11t13 32q0 19 -10 30t-26.5 16t-36 7t-38.5 2l66 106h68l-47 -62q25 -5 46 -16.5t33 -31t12 -47.5q0 -49 -32.5 -80t-82.5 -31z" />
    <glyph glyph-name="Tcaron" unicode="&#x164;" horiz-adv-x="585" 
d="M199 0l84 594h-222l14 103h560l-14 -103h-221l-84 -594h-117zM362 739l-121 162h77l56 -76l82 76h87z" />
    <glyph glyph-name="tcaron" unicode="&#x165;" horiz-adv-x="445" 
d="M214 -9q-35 0 -64 12t-46 38.5t-17 68.5q0 8 0.5 17t2.5 22l65 464l121 62l-71 -509q-1 -8 -2 -17.5t-1 -18.5q0 -24 10 -36t34 -12q13 0 27.5 2.5t30.5 8.5l-13 -90q-20 -6 -39.5 -9t-37.5 -3zM32 407l13 86h315l-11 -86h-317zM300 540l70 221h118l-121 -221h-67z" />
    <glyph glyph-name="Tbar" unicode="&#x166;" horiz-adv-x="585" 
d="M199 0l84 594h-222l14 103h560l-14 -103h-221l-84 -594h-117zM148 312l10 74h301l-10 -74h-301z" />
    <glyph glyph-name="tbar" unicode="&#x167;" horiz-adv-x="379" 
d="M226 -9q-35 0 -64 12t-46.5 38.5t-17.5 68.5q0 7 1 15l2 16l66 472l121 62l-72 -509q-1 -11 -1.5 -19.5t-0.5 -14.5q0 -25 9.5 -37.5t33.5 -12.5q12 0 26.5 2.5t29.5 7.5l-6 -88q-22 -7 -42.5 -10t-38.5 -3zM17 211l10 74h316l-10 -74h-316zM44 407l13 86h315l-12 -86
h-316z" />
    <glyph glyph-name="Utilde" unicode="&#x168;" horiz-adv-x="657" 
d="M297 -14q-116 0 -176 53t-60 157q0 12 1 27.5t3 31.5l62 442h116l-61 -435q-2 -16 -3 -31t-1 -26q0 -57 27.5 -85t94.5 -28q58 0 94.5 20.5t57 59.5t28.5 96l60 429h115l-62 -443q-19 -135 -93.5 -201.5t-202.5 -66.5zM468 742q-25 0 -41 7t-26 18t-18 21.5t-16.5 17.5
t-19.5 7q-18 0 -32 -18.5t-18 -50.5l-63 6q8 60 39 92t76 32q23 0 37.5 -7t25 -18t18.5 -21.5t16.5 -18t19.5 -7.5q16 0 30 20t18 52l67 -6q-9 -61 -39 -93.5t-74 -32.5z" />
    <glyph glyph-name="utilde" unicode="&#x169;" horiz-adv-x="559" 
d="M206 -9q-79 0 -119 40.5t-40 112.5q0 11 1 21.5t2 21.5l43 306h111l-39 -282q-1 -11 -2 -20.5t-1 -20.5q0 -41 18 -61.5t60 -20.5q44 0 73.5 23t47 67.5t26.5 105.5l29 209h111l-69 -493h-107l11 106l18 -9q-29 -57 -75 -81.5t-99 -24.5zM393 559q-36 0 -52.5 15
t-28.5 31q-8 12 -16.5 19t-18.5 7q-18 0 -32.5 -20t-21.5 -53l-62 9q13 66 45 99.5t75 33.5q31 0 46.5 -14t26.5 -30q9 -11 17.5 -20t21.5 -9q16 0 31 21t21 54l65 -10q-13 -66 -44 -99.5t-73 -33.5z" />
    <glyph glyph-name="Umacron" unicode="&#x16a;" horiz-adv-x="657" 
d="M297 -14q-116 0 -176 53t-60 157q0 12 1 27.5t3 31.5l62 442h116l-61 -435q-2 -16 -3 -31t-1 -26q0 -57 27.5 -85t94.5 -28q58 0 94.5 20.5t57 59.5t28.5 96l60 429h115l-62 -443q-19 -135 -93.5 -201.5t-202.5 -66.5zM272 776l14 65h268l-15 -65h-267z" />
    <glyph glyph-name="umacron" unicode="&#x16b;" horiz-adv-x="559" 
d="M206 -9q-79 0 -119 40.5t-40 112.5q0 11 1 21.5t2 21.5l43 306h111l-39 -282q-1 -11 -2 -20.5t-1 -20.5q0 -41 18 -61.5t60 -20.5q44 0 73.5 23t47 67.5t26.5 105.5l29 209h111l-69 -493h-107l11 106l18 -9q-29 -57 -75 -81.5t-99 -24.5zM190 572l14 65h268l-15 -65h-267
z" />
    <glyph glyph-name="Ubreve" unicode="&#x16c;" horiz-adv-x="657" 
d="M297 -14q-116 0 -176 53t-60 157q0 12 1 27.5t3 31.5l62 442h116l-61 -435q-2 -16 -3 -31t-1 -26q0 -57 27.5 -85t94.5 -28q58 0 94.5 20.5t57 59.5t28.5 96l60 429h115l-62 -443q-19 -135 -93.5 -201.5t-202.5 -66.5zM396 739q-42 0 -74.5 14t-49 42.5t-13.5 71.5h71
q-3 -33 17.5 -50t59.5 -17q37 0 62 16t29 51h70q-11 -71 -55.5 -99.5t-116.5 -28.5z" />
    <glyph glyph-name="ubreve" unicode="&#x16d;" horiz-adv-x="559" 
d="M206 -9q-79 0 -119 40.5t-40 112.5q0 11 1 21.5t2 21.5l43 306h111l-39 -282q-1 -11 -2 -20.5t-1 -20.5q0 -41 18 -61.5t60 -20.5q44 0 73.5 23t47 67.5t26.5 105.5l29 209h111l-69 -493h-107l11 106l18 -9q-29 -57 -75 -81.5t-99 -24.5zM317 551q-62 0 -104 28t-46 88
v10.5t1 19.5h66q-1 -6 -1 -12t1 -11q3 -29 24 -44.5t60 -15.5q44 0 65.5 22t25.5 61h68q-8 -73 -50.5 -109.5t-109.5 -36.5z" />
    <glyph glyph-name="Uring" unicode="&#x16e;" horiz-adv-x="657" 
d="M297 -14q-116 0 -176 53t-60 157q0 12 1 27.5t3 31.5l62 442h116l-61 -435q-2 -16 -3 -31t-1 -26q0 -57 27.5 -85t94.5 -28q58 0 94.5 20.5t57 59.5t28.5 96l60 429h115l-62 -443q-19 -135 -93.5 -201.5t-202.5 -66.5zM395 678q-45 0 -73 30t-28 71q0 32 17 59.5t44.5 44
t59.5 16.5q42 0 71 -28.5t29 -72.5q0 -32 -16.5 -59.5t-44 -44t-59.5 -16.5zM400 738q24 0 39.5 17t15.5 40q0 19 -11 31.5t-32 12.5q-26 0 -41.5 -16.5t-15.5 -39.5q0 -19 12 -32t33 -13z" />
    <glyph glyph-name="uring" unicode="&#x16f;" horiz-adv-x="559" 
d="M206 -9q-79 0 -119 40.5t-40 112.5q0 11 1 21.5t2 21.5l43 306h111l-39 -282q-1 -11 -2 -20.5t-1 -20.5q0 -41 18 -61.5t60 -20.5q44 0 73.5 23t47 67.5t26.5 105.5l29 209h111l-69 -493h-107l11 106l18 -9q-29 -57 -75 -81.5t-99 -24.5zM325 534q-42 0 -71 26t-29 68
q0 33 17.5 60t46 43t61.5 16q40 0 69.5 -25.5t29.5 -68.5q0 -33 -17.5 -60t-45.5 -43t-61 -16zM332 590q24 0 40.5 17.5t16.5 39.5q0 18 -12.5 31t-32.5 13q-24 0 -40.5 -17.5t-16.5 -39.5q0 -18 12 -31t33 -13z" />
    <glyph glyph-name="Uhungarumlaut" unicode="&#x170;" horiz-adv-x="657" 
d="M297 -14q-116 0 -176 53t-60 157q0 12 1 27.5t3 31.5l62 442h116l-61 -435q-2 -16 -3 -31t-1 -26q0 -57 27.5 -85t94.5 -28q58 0 94.5 20.5t57 59.5t28.5 96l60 429h115l-62 -443q-19 -135 -93.5 -201.5t-202.5 -66.5zM452 759l114 142h120l-145 -142h-89zM264 759
l114 142h102l-130 -142h-86z" />
    <glyph glyph-name="uhungarumlaut" unicode="&#x171;" horiz-adv-x="559" 
d="M206 -9q-79 0 -119 40.5t-40 112.5q0 11 1 21.5t2 21.5l43 306h111l-39 -282q-1 -11 -2 -20.5t-1 -20.5q0 -41 18 -61.5t60 -20.5q44 0 73.5 23t47 67.5t26.5 105.5l29 209h111l-69 -493h-107l11 106l18 -9q-29 -57 -75 -81.5t-99 -24.5zM369 555l114 142h120l-145 -142
h-89zM181 555l114 142h102l-130 -142h-86z" />
    <glyph glyph-name="Uogonek" unicode="&#x172;" horiz-adv-x="657" 
d="M297 -14q-116 0 -176 53t-60 157q0 12 1 27.5t3 31.5l62 442h116l-61 -435q-2 -16 -3 -31t-1 -26q0 -57 27.5 -85t94.5 -28q58 0 94.5 20.5t57 59.5t28.5 96l60 429h115l-62 -443q-19 -135 -93.5 -201.5t-202.5 -66.5zM315 -220q-46 0 -77.5 26.5t-31.5 70.5
q0 32 13.5 56t33 41t36.5 27l88 -1q-12 -6 -29.5 -16.5t-34.5 -25t-28.5 -32.5t-11.5 -38t12 -29.5t29 -9.5q13 0 27 5t26 15l35 -58q-18 -14 -39 -22.5t-48 -8.5z" />
    <glyph glyph-name="uogonek" unicode="&#x173;" horiz-adv-x="559" 
d="M206 -9q-79 0 -119 40.5t-40 112.5q0 11 1 21.5t2 21.5l43 306h111l-39 -282q-1 -11 -2 -20.5t-1 -20.5q0 -41 18 -61.5t60 -20.5q44 0 73.5 23t47 67.5t26.5 105.5l29 209h111l-69 -493h-107l11 106l18 -9q-29 -57 -75 -81.5t-99 -24.5zM396 -220q-46 0 -77.5 26.5
t-31.5 70.5q0 32 13.5 56t33 41t36.5 27l88 -1q-12 -6 -29.5 -16.5t-34.5 -25t-28.5 -32.5t-11.5 -38t12 -29.5t29 -9.5q13 0 27 5t26 15l35 -58q-18 -14 -39 -22.5t-48 -8.5z" />
    <glyph glyph-name="Wcircumflex" unicode="&#x174;" horiz-adv-x="972" 
d="M190 0l-109 697h119l76 -520l210 480h114l73 -480l224 520h122l-305 -697h-114l-85 520h20l-232 -520h-113zM399 747l179 170l131 -170h-87l-53 76l-77 -76h-93z" />
    <glyph glyph-name="wcircumflex" unicode="&#x175;" horiz-adv-x="752" 
d="M138 0l-81 493h117l42 -323l145 323h96l53 -321l136 321h119l-220 -493h-98l-56 336l-151 -336h-102zM267 543l173 170l129 -170h-84l-54 76l-74 -76h-90z" />
    <glyph glyph-name="Ycircumflex" unicode="&#x176;" horiz-adv-x="617" 
d="M217 0l39 271l-185 426h129l124 -310l217 310h133l-303 -426l-38 -271h-116zM223 747l179 170l131 -170h-87l-53 76l-77 -76h-93z" />
    <glyph glyph-name="ycircumflex" unicode="&#x177;" horiz-adv-x="530" 
d="M43 -203l133 236l-123 460h121l75 -349l176 349h122l-381 -696h-123zM157 543l173 170l129 -170h-84l-54 76l-74 -76h-90z" />
    <glyph glyph-name="Ydieresis" unicode="&#x178;" horiz-adv-x="617" 
d="M217 0l39 271l-185 426h129l124 -310l217 310h133l-303 -426l-38 -271h-116zM418 778l18 123h119l-18 -123h-119zM230 778l17 123h120l-17 -123h-120z" />
    <glyph glyph-name="Zacute" unicode="&#x179;" horiz-adv-x="598" 
d="M-6 0l12 96l483 534l13 -36h-401l15 103h502l-13 -96l-471 -520l-13 22h426l-15 -103h-538zM327 759l116 142h119l-154 -142h-81z" />
    <glyph glyph-name="zacute" unicode="&#x17a;" horiz-adv-x="471" 
d="M0 0l10 75l333 353l8 -28h-282l13 93h384l-10 -80l-330 -355l-7 36h290l-13 -94h-396zM234 555l116 142h119l-154 -142h-81z" />
    <glyph glyph-name="Zdotaccent" unicode="&#x17b;" horiz-adv-x="598" 
d="M-6 0l12 96l483 534l13 -36h-401l15 103h502l-13 -96l-471 -520l-13 22h426l-15 -103h-538zM315 778l17 123h122l-17 -123h-122z" />
    <glyph glyph-name="zdotaccent" unicode="&#x17c;" horiz-adv-x="471" 
d="M0 0l10 75l333 353l8 -28h-282l13 93h384l-10 -80l-330 -355l-7 36h290l-13 -94h-396zM221 574l17 123h122l-17 -123h-122z" />
    <glyph glyph-name="Zcaron" unicode="&#x17d;" horiz-adv-x="598" 
d="M-6 0l12 96l483 534l13 -36h-401l15 103h502l-13 -96l-471 -520l-13 22h426l-15 -103h-538zM371 739l-121 162h77l56 -76l82 76h87z" />
    <glyph glyph-name="zcaron" unicode="&#x17e;" horiz-adv-x="471" 
d="M0 0l10 75l333 353l8 -28h-282l13 93h384l-10 -80l-330 -355l-7 36h290l-13 -94h-396zM278 535l-121 162h77l56 -76l82 76h87z" />
    <glyph glyph-name="uni018F" unicode="&#x18f;" horiz-adv-x="754" 
d="M345 -14q-91 0 -157 35.5t-101.5 102t-35.5 157.5q0 18 1.5 36t4.5 37l114 -6q-2 -16 -3 -31t-1 -29q0 -93 47 -142.5t135 -49.5q71 0 125.5 31t90 89t46.5 141q2 16 3 30.5t1 28.5q0 91 -47 138.5t-136 47.5q-74 0 -131 -34t-92 -102l-102 48q51 96 135 147.5t194 51.5
q92 0 158 -36t101 -102.5t35 -158.5q0 -16 -1.5 -35.5t-4.5 -38.5q-15 -109 -66.5 -189t-131.5 -123.5t-181 -43.5zM103 262l12 89h581l-12 -89h-581z" />
    <glyph glyph-name="florin" unicode="&#x192;" horiz-adv-x="560" 
d="M24 -217l6 85q49 0 79.5 13.5t48 45t24.5 84.5l56 399h-87l12 83h87l9 66q9 67 49.5 110.5t104.5 43.5q42 0 72.5 -14t51.5 -39l-66 -67q-11 14 -24 20.5t-24 6.5q-29 0 -48 -20t-24 -55l-7 -52h116l-11 -83h-116l-59 -414q-10 -75 -42.5 -122t-84.5 -69t-123 -22z" />
    <glyph glyph-name="uni019D" unicode="&#x19d;" horiz-adv-x="685" 
d="M36 0l98 697h119l257 -533h-24l75 533h116l-98 -697h-120l-256 535h24l-75 -535h-116zM-65 -181l4 77q44 0 67 25.5t26 51.5q1 5 2.5 13t2.5 17l115 -3l-4 -29q-6 -42 -30 -76t-69 -55t-114 -21z" />
    <glyph glyph-name="Ohorn" unicode="&#x1a0;" horiz-adv-x="748" 
d="M341 -14q-89 0 -153.5 37t-100 105t-35.5 160q0 81 26 157t75.5 136t119.5 95t159 35q90 0 154.5 -37t100 -104.5t35.5 -160.5q0 -83 -26 -159t-75.5 -135.5t-120 -94t-159.5 -34.5zM348 96q62 0 109.5 25t81 68.5t50.5 98t17 114.5q0 92 -47 145.5t-134 53.5
q-62 0 -110 -25.5t-81 -69.5t-50 -99t-17 -113q0 -61 21.5 -105.5t62 -68.5t97.5 -24zM644 494l7 69q43 0 66 24.5t29 72.5l5 37h76l-6 -45q-10 -70 -52.5 -114t-124.5 -44z" />
    <glyph glyph-name="ohorn" unicode="&#x1a1;" horiz-adv-x="573" 
d="M255 -9q-64 0 -113 28t-76 77.5t-27 114.5q0 59 20.5 111t57.5 92.5t88 64t112 23.5q66 0 114 -27.5t75 -76.5t27 -114q0 -59 -21 -112t-58.5 -94t-88 -64t-110.5 -23zM262 89q39 0 68.5 16.5t50.5 44t31.5 61.5t10.5 70q0 54 -28.5 89t-83.5 35q-40 0 -70.5 -16.5
t-51 -45t-31 -62t-10.5 -67.5q0 -55 29.5 -90t84.5 -35zM459 290l7 69q43 0 66 24.5t29 72.5l5 37h76l-6 -45q-10 -70 -52.5 -114t-124.5 -44z" />
    <glyph glyph-name="Uhorn" unicode="&#x1af;" horiz-adv-x="719" 
d="M297 -14q-116 0 -176 53t-60 157q0 12 1 27.5t3 31.5l62 442h116l-61 -435q-2 -16 -3 -31t-1 -26q0 -57 27.5 -85t94.5 -28q58 0 94.5 20.5t57 59.5t28.5 96l60 429h115l-62 -443q-19 -135 -93.5 -201.5t-202.5 -66.5zM593 494l7 69q43 0 66 24.5t29 72.5l5 37h76l-6 -45
q-10 -70 -52.5 -114t-124.5 -44z" />
    <glyph glyph-name="uhorn" unicode="&#x1b0;" horiz-adv-x="559" 
d="M206 -9q-79 0 -119 40.5t-40 112.5q0 11 1 21.5t2 21.5l43 306h111l-39 -282q-1 -11 -2 -20.5t-1 -20.5q0 -41 18 -61.5t60 -20.5q44 0 73.5 23t47 67.5t26.5 105.5l29 209h111l-69 -493h-107l11 106l18 -9q-29 -57 -75 -81.5t-99 -24.5zM486 290l7 69q43 0 66 24.5
t29 72.5l5 37h76l-6 -45q-10 -70 -52.5 -114t-124.5 -44z" />
    <glyph glyph-name="uni01CD" unicode="&#x1cd;" horiz-adv-x="661" 
d="M-24 0l373 697h88l177 -697h-124l-118 528l-268 -528h-128zM168 146l50 103h224l23 -103h-297zM401 739l-121 162h77l56 -76l82 76h87z" />
    <glyph glyph-name="uni01CE" unicode="&#x1ce;" 
d="M228 -9q-58 0 -100.5 27t-64.5 75t-22 110q0 58 18 111.5t51.5 96t79.5 67t102 24.5q44 0 78 -17t54.5 -49t21.5 -79l-25 -2l23 138h105l-69 -493h-106l14 137l30 -3q-20 -53 -50 -84.5t-65.5 -45t-74.5 -13.5zM258 93q38 0 68 16.5t50.5 44.5t31 61.5t10.5 68.5
q0 36 -12.5 62t-36 40.5t-56.5 14.5q-38 0 -68 -17t-51 -44.5t-31.5 -61.5t-10.5 -69t12.5 -61.5t36.5 -40.5t57 -14zM332 535l-121 162h77l56 -76l82 76h87z" />
    <glyph glyph-name="uni01CF" unicode="&#x1cf;" horiz-adv-x="258" 
d="M36 0l98 697h116l-98 -697h-116zM199 739l-121 162h77l56 -76l82 76h87z" />
    <glyph glyph-name="uni01D0" unicode="&#x1d0;" horiz-adv-x="239" 
d="M29 0l69 493h111l-69 -493h-111zM161 535l-121 162h77l56 -76l82 76h87z" />
    <glyph glyph-name="uni01D1" unicode="&#x1d1;" horiz-adv-x="748" 
d="M341 -14q-89 0 -153.5 37t-100 105t-35.5 160q0 81 26 157t75.5 136t119.5 95t159 35q90 0 154.5 -37t100 -104.5t35.5 -160.5q0 -83 -26 -159t-75.5 -135.5t-120 -94t-159.5 -34.5zM348 96q62 0 109.5 25t81 68.5t50.5 98t17 114.5q0 92 -47 145.5t-134 53.5
q-62 0 -110 -25.5t-81 -69.5t-50 -99t-17 -113q0 -61 21.5 -105.5t62 -68.5t97.5 -24zM443 739l-121 162h77l56 -76l82 76h87z" />
    <glyph glyph-name="uni01D2" unicode="&#x1d2;" horiz-adv-x="573" 
d="M255 -9q-64 0 -113 28t-76 77.5t-27 114.5q0 59 20.5 111t57.5 92.5t88 64t112 23.5q66 0 114 -27.5t75 -76.5t27 -114q0 -59 -21 -112t-58.5 -94t-88 -64t-110.5 -23zM262 89q39 0 68.5 16.5t50.5 44t31.5 61.5t10.5 70q0 54 -28.5 89t-83.5 35q-40 0 -70.5 -16.5
t-51 -45t-31 -62t-10.5 -67.5q0 -55 29.5 -90t84.5 -35zM328 535l-121 162h77l56 -76l82 76h87z" />
    <glyph glyph-name="uni01D3" unicode="&#x1d3;" horiz-adv-x="657" 
d="M297 -14q-116 0 -176 53t-60 157q0 12 1 27.5t3 31.5l62 442h116l-61 -435q-2 -16 -3 -31t-1 -26q0 -57 27.5 -85t94.5 -28q58 0 94.5 20.5t57 59.5t28.5 96l60 429h115l-62 -443q-19 -135 -93.5 -201.5t-202.5 -66.5zM399 739l-121 162h77l56 -76l82 76h87z" />
    <glyph glyph-name="uni01D4" unicode="&#x1d4;" horiz-adv-x="559" 
d="M206 -9q-79 0 -119 40.5t-40 112.5q0 11 1 21.5t2 21.5l43 306h111l-39 -282q-1 -11 -2 -20.5t-1 -20.5q0 -41 18 -61.5t60 -20.5q44 0 73.5 23t47 67.5t26.5 105.5l29 209h111l-69 -493h-107l11 106l18 -9q-29 -57 -75 -81.5t-99 -24.5zM316 535l-121 162h77l56 -76
l82 76h87z" />
    <glyph glyph-name="Gcaron" unicode="&#x1e6;" horiz-adv-x="733" 
d="M334 -14q-86 0 -149 37t-98 104.5t-35 158.5q0 83 26 159.5t75.5 136.5t119.5 94.5t158 34.5q111 0 183.5 -55.5t94.5 -151.5l-111 -34q-14 64 -58.5 97.5t-112.5 33.5q-63 0 -111 -26t-81.5 -70.5t-50.5 -100t-17 -115.5q0 -91 47 -142t130 -51q38 0 76 10.5t71 35
t56.5 65.5t32.5 103l5 41l15 -80h-198l14 103h276l-53 -374h-101v121l19 -18q-24 -41 -59.5 -67t-77 -38t-86.5 -12zM442 739l-121 162h77l56 -76l82 76h87z" />
    <glyph glyph-name="gcaron" unicode="&#x1e7;" horiz-adv-x="581" 
d="M218 -213q-56 0 -96.5 15.5t-67.5 42.5t-44 59l92 62q14 -34 42 -59t75 -25q32 0 64.5 11t57.5 40t31 84l15 113l15 -15q-32 -58 -77 -82.5t-99 -24.5q-57 0 -98.5 27t-63.5 74t-22 106q0 55 18.5 106.5t51 92t77.5 64.5t98 24q63 0 101 -30.5t48 -80.5l-12 -12l19 114
h107l-68 -483q-10 -76 -45.5 -125.5t-91 -73.5t-127.5 -24zM265 109q34 0 62 13.5t48.5 37t31.5 55t11 67.5q0 35 -12.5 62t-37 42t-58.5 15t-62.5 -14t-49.5 -38.5t-32.5 -56t-11.5 -66.5q0 -34 13.5 -60.5t38.5 -41.5t59 -15zM335 535l-121 162h77l56 -76l82 76h87z" />
    <glyph glyph-name="uni01EA" unicode="&#x1ea;" horiz-adv-x="748" 
d="M341 -14q-89 0 -153.5 37t-100 105t-35.5 160q0 81 26 157t75.5 136t119.5 95t159 35q90 0 154.5 -37t100 -104.5t35.5 -160.5q0 -83 -26 -159t-75.5 -135.5t-120 -94t-159.5 -34.5zM348 96q62 0 109.5 25t81 68.5t50.5 98t17 114.5q0 92 -47 145.5t-134 53.5
q-62 0 -110 -25.5t-81 -69.5t-50 -99t-17 -113q0 -61 21.5 -105.5t62 -68.5t97.5 -24zM357 -220q-46 0 -77.5 26.5t-31.5 70.5q0 32 13.5 56t33 41t36.5 27l88 -1q-12 -6 -29.5 -16.5t-34.5 -25t-28.5 -32.5t-11.5 -38t12 -29.5t29 -9.5q13 0 27 5t26 15l35 -58
q-18 -14 -39 -22.5t-48 -8.5z" />
    <glyph glyph-name="uni01EB" unicode="&#x1eb;" horiz-adv-x="573" 
d="M255 -9q-64 0 -113 28t-76 77.5t-27 114.5q0 59 20.5 111t57.5 92.5t88 64t112 23.5q66 0 114 -27.5t75 -76.5t27 -114q0 -59 -21 -112t-58.5 -94t-88 -64t-110.5 -23zM262 89q39 0 68.5 16.5t50.5 44t31.5 61.5t10.5 70q0 54 -28.5 89t-83.5 35q-40 0 -70.5 -16.5
t-51 -45t-31 -62t-10.5 -67.5q0 -55 29.5 -90t84.5 -35zM258 -220q-46 0 -77.5 26.5t-31.5 70.5q0 32 13.5 56t33 41t36.5 27l88 -1q-12 -6 -29.5 -16.5t-34.5 -25t-28.5 -32.5t-11.5 -38t12 -29.5t29 -9.5q13 0 27 5t26 15l35 -58q-18 -14 -39 -22.5t-48 -8.5z" />
    <glyph glyph-name="Aringacute" unicode="&#x1fa;" horiz-adv-x="661" 
d="M-24 0l373 697h88l177 -697h-124l-118 528l-268 -528h-128zM168 146l50 103h224l23 -103h-297zM389 640q-45 0 -73 30t-28 71q0 32 17 59.5t44.5 44t59.5 16.5q42 0 71 -28.5t29 -72.5q0 -32 -16.5 -59.5t-44 -44t-59.5 -16.5zM394 700q24 0 39.5 17t15.5 40
q0 19 -11 31.5t-32 12.5q-26 0 -41.5 -16.5t-15.5 -39.5q0 -19 12 -32t33 -13zM410 800l116 142h119l-154 -142h-81z" />
    <glyph glyph-name="aringacute" unicode="&#x1fb;" 
d="M228 -9q-58 0 -100.5 27t-64.5 75t-22 110q0 58 18 111.5t51.5 96t79.5 67t102 24.5q44 0 78 -17t54.5 -49t21.5 -79l-25 -2l23 138h105l-69 -493h-106l14 137l30 -3q-20 -53 -50 -84.5t-65.5 -45t-74.5 -13.5zM258 93q38 0 68 16.5t50.5 44.5t31 61.5t10.5 68.5
q0 36 -12.5 62t-36 40.5t-56.5 14.5q-38 0 -68 -17t-51 -44.5t-31.5 -61.5t-10.5 -69t12.5 -61.5t36.5 -40.5t57 -14zM342 534q-42 0 -71 26t-29 68q0 33 17.5 60t46 43t61.5 16q40 0 69.5 -25.5t29.5 -68.5q0 -33 -17.5 -60t-45.5 -43t-61 -16zM349 590q24 0 40.5 17.5
t16.5 39.5q0 18 -12.5 31t-32.5 13q-24 0 -40.5 -17.5t-16.5 -39.5q0 -18 12 -31t33 -13zM367 694l116 142h119l-154 -142h-81z" />
    <glyph glyph-name="AEacute" unicode="&#x1fc;" horiz-adv-x="917" 
d="M-24 0l372 697h586l-15 -103h-353l-27 -193h309l-14 -104h-310l-27 -194h353l-14 -103h-470l84 596h-44l-302 -596h-128zM156 146l52 106h222l-15 -106h-259zM488 759l116 142h119l-154 -142h-81z" />
    <glyph glyph-name="aeacute" unicode="&#x1fd;" horiz-adv-x="868" 
d="M203 -9q-48 0 -87.5 16t-63 48.5t-23.5 78.5q0 54 27.5 89t79 52t125.5 17h123l2 22q5 31 -4.5 51.5t-30.5 30.5t-51 10q-36 0 -74 -15t-71 -52l-76 72q56 52 113 71.5t118 19.5q62 0 101 -20.5t56 -61.5q33 40 76 60t95 20q66 0 108.5 -26t63 -70t20.5 -100
q0 -25 -3.5 -49t-9.5 -48h-338q-1 -8 0 -11.5t1 -7.5q4 -47 27 -71.5t76 -24.5q36 0 67.5 12.5t59.5 38.5l76 -68q-45 -43 -94 -63.5t-110 -20.5q-68 0 -109 27.5t-61 81.5h-11q-28 -41 -59 -65t-66 -34t-73 -10zM224 82q35 0 66.5 14.5t53.5 42.5t29 67l6 40l24 -34h-142
q-41 0 -67 -8t-38.5 -24t-12.5 -38q0 -28 21.5 -44t59.5 -16zM725 279q3 8 3.5 16t0.5 17q0 25 -10 47t-31.5 35.5t-53.5 13.5q-42 0 -72 -17.5t-48 -45t-24 -56.5l253 3zM432 555l116 142h119l-154 -142h-81z" />
    <glyph glyph-name="Oslashacute" unicode="&#x1fe;" horiz-adv-x="748" 
d="M341 -14q-89 0 -153.5 37t-100 105t-35.5 160q0 81 26 157t75.5 136t119.5 95t159 35q90 0 154.5 -37t100 -104.5t35.5 -160.5q0 -83 -26 -159t-75.5 -135.5t-120 -94t-159.5 -34.5zM348 96q62 0 109.5 25t81 68.5t50.5 98t17 114.5q0 92 -47 145.5t-134 53.5
q-62 0 -110 -25.5t-81 -69.5t-50 -99t-17 -113q0 -61 21.5 -105.5t62 -68.5t97.5 -24zM40 0l615 697h79l-614 -697h-80zM399 759l116 142h119l-154 -142h-81z" />
    <glyph glyph-name="oslashacute" unicode="&#x1ff;" horiz-adv-x="573" 
d="M255 -9q-64 0 -113 28t-76 77.5t-27 114.5q0 59 20.5 111t57.5 92.5t88 64t112 23.5q66 0 114 -27.5t75 -76.5t27 -114q0 -59 -21 -112t-58.5 -94t-88 -64t-110.5 -23zM262 89q39 0 68.5 16.5t50.5 44t31.5 61.5t10.5 70q0 54 -28.5 89t-83.5 35q-40 0 -70.5 -16.5
t-51 -45t-31 -62t-10.5 -67.5q0 -55 29.5 -90t84.5 -35zM48 -44l418 582h58l-419 -582h-57zM283 555l116 142h119l-154 -142h-81z" />
    <glyph glyph-name="uni0218" unicode="&#x218;" horiz-adv-x="572" 
d="M274 -13q-72 0 -128 27t-88 74.5t-34 110.5l116 22q2 -67 42 -99t99 -32q41 0 70 14t44.5 38t15.5 55q0 30 -14.5 50t-41.5 35.5t-66 30.5q-59 25 -98 53.5t-58 64t-19 78.5q0 56 28 102t78.5 73t116.5 27q74 0 130 -33.5t80 -94.5l-98 -50q-15 38 -44.5 57t-67.5 19
q-33 0 -57 -12.5t-37 -33.5t-13 -48q0 -26 12.5 -43.5t40 -32t69.5 -32.5q58 -23 96.5 -51t58.5 -64.5t20 -85.5q0 -65 -32.5 -114.5t-89 -77t-131.5 -27.5zM121 -225l71 172h117l-122 -172h-66z" />
    <glyph glyph-name="uni0219" unicode="&#x219;" horiz-adv-x="476" 
d="M211 -9q-55 0 -95 16t-66.5 41t-40.5 49l81 60q17 -36 49 -57t75 -21q29 0 51 8.5t34.5 24.5t12.5 35q0 18 -11.5 29.5t-32 19.5t-49.5 16q-24 7 -50.5 16t-49.5 23.5t-36.5 37.5t-13.5 56q0 47 25 82t69 55t101 20q61 0 106.5 -24.5t66.5 -70.5l-74 -48q-15 30 -42 43
t-60 13q-34 0 -60.5 -15t-26.5 -42q0 -19 18.5 -30t62.5 -22q39 -9 78 -23.5t64 -42t25 -75.5q0 -52 -27 -91t-74.5 -61t-109.5 -22zM74 -225l71 172h117l-122 -172h-66z" />
    <glyph glyph-name="uni021A" unicode="&#x21a;" horiz-adv-x="585" 
d="M199 0l84 594h-222l14 103h560l-14 -103h-221l-84 -594h-117zM128 -225l71 172h117l-122 -172h-66z" />
    <glyph glyph-name="uni021B" unicode="&#x21b;" horiz-adv-x="371" 
d="M214 -9q-35 0 -64 12t-46 38.5t-17 68.5q0 8 0.5 17t2.5 22l65 464l121 62l-71 -509q-1 -8 -2 -17.5t-1 -18.5q0 -24 10 -36t34 -12q13 0 27.5 2.5t30.5 8.5l-13 -90q-20 -6 -39.5 -9t-37.5 -3zM32 407l13 86h315l-11 -86h-317zM55 -225l71 172h117l-122 -172h-66z" />
    <glyph glyph-name="uni0232" unicode="&#x232;" horiz-adv-x="617" 
d="M217 0l39 271l-185 426h129l124 -310l217 310h133l-303 -426l-38 -271h-116zM253 776l14 65h268l-15 -65h-267z" />
    <glyph glyph-name="uni0233" unicode="&#x233;" horiz-adv-x="530" 
d="M43 -203l133 236l-123 460h121l75 -349l176 349h122l-381 -696h-123zM181 572l14 65h268l-15 -65h-267z" />
    <glyph glyph-name="uni0237" unicode="&#x237;" horiz-adv-x="239" 
d="M1 -213q-22 0 -43.5 4.5t-42.5 10.5l8 94q13 -3 24 -4.5t16 -1.5q24 0 39 12t19 43l77 548h111l-82 -584q-9 -65 -43 -93.5t-83 -28.5z" />
    <glyph glyph-name="uni0259" unicode="&#x259;" horiz-adv-x="542" 
d="M290 502q75 0 122 -28.5t69 -76t22 -106.5q0 -55 -17.5 -108.5t-51.5 -97t-82.5 -69t-113.5 -25.5q-68 0 -112 27t-65.5 73.5t-21.5 103.5q0 22 3.5 46t8.5 45h343q1 6 0.5 12t-0.5 11q-3 47 -32 71t-78 24q-39 0 -74 -12.5t-66 -38.5l-58 75q44 37 94 55.5t110 18.5z
M144 224q-2 -13 -3.5 -23t-1.5 -24q0 -24 10 -46t32 -36t57 -14q41 0 71 18t49 46.5t25 57.5h-275z" />
    <glyph glyph-name="uni0272" unicode="&#x272;" horiz-adv-x="560" 
d="M32 0l69 493h107l-13 -121l-17 14q19 43 47 68.5t61 36.5t68 11q76 0 118 -38t42 -106v-15t-2 -18l-46 -325h-112l42 292q1 9 1.5 17.5t0.5 15.5q0 24 -7 42t-24 28.5t-48 10.5q-36 0 -61 -14t-41.5 -38.5t-26 -55t-14.5 -64.5l-34 -234h-110zM7 -213q-20 0 -38.5 4
t-38.5 11l7 87q12 -3 21.5 -4.5t13.5 -1.5q21 0 33 12t16 35l11 70h110l-12 -91q-10 -66 -43.5 -94t-79.5 -28z" />
    <glyph glyph-name="circumflex" unicode="&#x2c6;" horiz-adv-x="392" 
d="M82 543l173 170l129 -170h-84l-54 76l-74 -76h-90z" />
    <glyph glyph-name="caron" unicode="&#x2c7;" horiz-adv-x="392" 
d="M224 535l-121 162h77l56 -76l82 76h87z" />
    <glyph glyph-name="breve" unicode="&#x2d8;" horiz-adv-x="395" 
d="M252 551q-62 0 -104 28t-46 88v10.5t1 19.5h66q-1 -6 -1 -12t1 -11q3 -29 24 -44.5t60 -15.5q44 0 65.5 22t25.5 61h68q-8 -73 -50.5 -109.5t-109.5 -36.5z" />
    <glyph glyph-name="dotaccent" unicode="&#x2d9;" horiz-adv-x="204" 
d="M86 574l17 123h122l-17 -123h-122z" />
    <glyph glyph-name="ring" unicode="&#x2da;" horiz-adv-x="306" 
d="M195 534q-42 0 -71 26t-29 68q0 33 17.5 60t46 43t61.5 16q40 0 69.5 -25.5t29.5 -68.5q0 -33 -17.5 -60t-45.5 -43t-61 -16zM202 590q24 0 40.5 17.5t16.5 39.5q0 18 -12.5 31t-32.5 13q-24 0 -40.5 -17.5t-16.5 -39.5q0 -18 12 -31t33 -13z" />
    <glyph glyph-name="ogonek" unicode="&#x2db;" horiz-adv-x="305" 
d="M99 -220q-46 0 -77.5 26.5t-31.5 70.5q0 32 13.5 56t33 41t36.5 27l88 -1q-12 -6 -29.5 -16.5t-34.5 -25t-28.5 -32.5t-11.5 -38t12 -29.5t29 -9.5q13 0 27 5t26 15l35 -58q-18 -14 -39 -22.5t-48 -8.5z" />
    <glyph glyph-name="tilde" unicode="&#x2dc;" horiz-adv-x="414" 
d="M317 559q-36 0 -52.5 15t-28.5 31q-8 12 -16.5 19t-18.5 7q-18 0 -32.5 -20t-21.5 -53l-62 9q13 66 45 99.5t75 33.5q31 0 46.5 -14t26.5 -30q9 -11 17.5 -20t21.5 -9q16 0 31 21t21 54l65 -10q-13 -66 -44 -99.5t-73 -33.5z" />
    <glyph glyph-name="hungarumlaut" unicode="&#x2dd;" horiz-adv-x="499" 
d="M271 555l114 142h120l-145 -142h-89zM83 555l114 142h102l-130 -142h-86z" />
    <glyph glyph-name="uni02F5" unicode="&#x2f5;" horiz-adv-x="546" 
d="M214 332l-126 161h117l89 -161h-80zM425 332l-125 161h116l89 -161h-80z" />
    <glyph glyph-name="uni02F6" unicode="&#x2f6;" horiz-adv-x="546" 
d="M63 332l134 161h120l-170 -161h-84zM275 332l133 161h121l-171 -161h-83z" />
    <glyph glyph-name="gravecomb" unicode="&#x300;" horiz-adv-x="0" 
d="M226 555l-123 142h116l88 -142h-81z" />
    <glyph glyph-name="acutecomb" unicode="&#x301;" horiz-adv-x="0" 
d="M83 555l116 142h119l-154 -142h-81z" />
    <glyph glyph-name="uni0302" unicode="&#x302;" horiz-adv-x="0" 
d="M82 543l173 170l129 -170h-84l-54 76l-74 -76h-90z" />
    <glyph glyph-name="tildecomb" unicode="&#x303;" horiz-adv-x="0" 
d="M317 559q-36 0 -52.5 15t-28.5 31q-8 12 -16.5 19t-18.5 7q-18 0 -32.5 -20t-21.5 -53l-62 9q13 66 45 99.5t75 33.5q31 0 46.5 -14t26.5 -30q9 -11 17.5 -20t21.5 -9q16 0 31 21t21 54l65 -10q-13 -66 -44 -99.5t-73 -33.5z" />
    <glyph glyph-name="uni0304" unicode="&#x304;" horiz-adv-x="0" 
d="M86 572l14 65h268l-15 -65h-267z" />
    <glyph glyph-name="uni0306" unicode="&#x306;" horiz-adv-x="0" 
d="M252 551q-62 0 -104 28t-46 88v10.5t1 19.5h66q-1 -6 -1 -12t1 -11q3 -29 24 -44.5t60 -15.5q44 0 65.5 22t25.5 61h68q-8 -73 -50.5 -109.5t-109.5 -36.5z" />
    <glyph glyph-name="uni0307" unicode="&#x307;" horiz-adv-x="0" 
d="M86 574l17 123h122l-17 -123h-122z" />
    <glyph glyph-name="uni0308" unicode="&#x308;" horiz-adv-x="0" 
d="M274 574l18 123h119l-18 -123h-119zM86 574l17 123h120l-17 -123h-120z" />
    <glyph glyph-name="hookabovecomb" unicode="&#x309;" horiz-adv-x="0" 
d="M118 519l-8 38q19 4 36 9.5t28.5 14.5t12.5 21q3 19 -17.5 26t-54.5 7h-20l14 63h10q67 0 107.5 -25t36.5 -68q-2 -34 -24 -51.5t-54.5 -24t-66.5 -10.5z" />
    <glyph glyph-name="uni030A" unicode="&#x30a;" horiz-adv-x="0" 
d="M195 534q-42 0 -71 26t-29 68q0 33 17.5 60t46 43t61.5 16q40 0 69.5 -25.5t29.5 -68.5q0 -33 -17.5 -60t-45.5 -43t-61 -16zM202 590q24 0 40.5 17.5t16.5 39.5q0 18 -12.5 31t-32.5 13q-24 0 -40.5 -17.5t-16.5 -39.5q0 -18 12 -31t33 -13z" />
    <glyph glyph-name="uni030B" unicode="&#x30b;" horiz-adv-x="0" 
d="M271 555l114 142h120l-145 -142h-89zM83 555l114 142h102l-130 -142h-86z" />
    <glyph glyph-name="uni030C" unicode="&#x30c;" horiz-adv-x="0" 
d="M224 535l-121 162h77l56 -76l82 76h87z" />
    <glyph glyph-name="uni030F" unicode="&#x30f;" horiz-adv-x="0" 
d="M214 536l-111 161h112l76 -161h-77zM365 536l-94 161h96l75 -161h-77z" />
    <glyph glyph-name="uni0312" unicode="&#x312;" horiz-adv-x="0" 
d="M83 552l139 154h68l-89 -154h-118z" />
    <glyph glyph-name="uni031B" unicode="&#x31b;" horiz-adv-x="0" 
d="M78 494l7 69q43 0 66 24.5t29 72.5l5 37h76l-6 -45q-10 -70 -52.5 -114t-124.5 -44z" />
    <glyph glyph-name="dotbelowcomb" unicode="&#x323;" horiz-adv-x="0" 
d="M-10 -174l13 110h122l-13 -110h-122z" />
    <glyph glyph-name="uni0326" unicode="&#x326;" horiz-adv-x="0" 
d="M-26 -225l71 172h117l-122 -172h-66z" />
    <glyph glyph-name="uni0327" unicode="&#x327;" horiz-adv-x="0" 
d="M64 -258q-18 0 -42.5 8t-42.5 27l37 53q9 -10 22.5 -17t26.5 -7q21 0 34 11t13 32q0 19 -10 30t-26.5 16t-36 7t-38.5 2l66 106h68l-47 -62q25 -5 46 -16.5t33 -31t12 -47.5q0 -49 -32.5 -80t-82.5 -31z" />
    <glyph glyph-name="uni0328" unicode="&#x328;" horiz-adv-x="0" 
d="M99 -220q-46 0 -77.5 26.5t-31.5 70.5q0 32 13.5 56t33 41t36.5 27l88 -1q-12 -6 -29.5 -16.5t-34.5 -25t-28.5 -32.5t-11.5 -38t12 -29.5t29 -9.5q13 0 27 5t26 15l35 -58q-18 -14 -39 -22.5t-48 -8.5z" />
    <glyph glyph-name="uni0335" unicode="&#x335;" horiz-adv-x="0" 
d="M41 254l10 74h301l-10 -74h-301z" />
    <glyph glyph-name="uni0336" unicode="&#x336;" horiz-adv-x="0" 
d="M45 248l10 66h653l-10 -66h-653z" />
    <glyph glyph-name="uni0337" unicode="&#x337;" horiz-adv-x="0" 
d="M42 207l15 114l251 182l-15 -113z" />
    <glyph glyph-name="uni0338" unicode="&#x338;" horiz-adv-x="0" 
d="M5 0l418 582h58l-419 -582h-57z" />
    <glyph glyph-name="uni0374" unicode="&#x374;" horiz-adv-x="299" 
d="M54 417l112 280h130l-167 -280h-75z" />
    <glyph glyph-name="uni0375" unicode="&#x375;" horiz-adv-x="302" 
d="M53 4l166 281h75l-111 -281h-130z" />
    <glyph glyph-name="uni037E" unicode="&#x37e;" horiz-adv-x="240" 
d="M-49 -150l116 280h126l-166 -280h-76zM88 343l18 128h123l-18 -128h-123z" />
    <glyph glyph-name="tonos" unicode="&#x384;" horiz-adv-x="254" 
d="M83 555l85 142h107l-109 -142h-83z" />
    <glyph glyph-name="dieresistonos" unicode="&#x385;" horiz-adv-x="465" 
d="M86 574l17 123h106l-17 -123h-106zM363 574l18 123h105l-17 -123h-106zM296 585l-55 13l72 213l85 -18z" />
    <glyph glyph-name="anoteleia" unicode="&#x387;" horiz-adv-x="351" 
d="M49 126l34 242h241l-34 -242h-241z" />
    <glyph glyph-name="uni0394" unicode="&#x394;" horiz-adv-x="725" 
d="M7 0l374 697h88l177 -697h-639zM190 106h307l-93 422z" />
    <glyph glyph-name="uni03A9" unicode="&#x3a9;" horiz-adv-x="821" 
d="M12 0l15 109h151l25 -21q-74 36 -113.5 101.5t-39.5 149.5q0 72 27.5 139t78.5 119.5t119.5 83t151.5 30.5q90 0 157 -36.5t104.5 -100t37.5 -145.5q0 -75 -28 -141t-80 -118t-124 -85l25 24h152l-15 -109h-274l12 98q68 33 115 83.5t71 111.5t24 127q0 84 -46.5 132.5
t-133.5 48.5q-63 0 -111 -24t-81 -65t-49.5 -93t-16.5 -108q0 -75 34 -129.5t96 -86.5l-10 -95h-274z" />
    <glyph glyph-name="uni03BC" unicode="&#x3bc;" horiz-adv-x="559" 
d="M1 -164l92 657h111l-41 -288q-1 -10 -2 -20.5t-1 -16.5q0 -36 17.5 -58t64.5 -22q46 0 75 26t46 71.5t25 104.5l28 203h111l-69 -493h-103l11 114l15 -17q-31 -56 -76.5 -81t-98.5 -25q-25 0 -41 8t-24 24l-29 -187h-111z" />
    <glyph glyph-name="pi" unicode="&#x3c0;" horiz-adv-x="587" 
d="M461 -9q-58 0 -88.5 26.5t-30.5 77.5q0 5 1 13l2 16l38 276h-148l-56 -400h-110l56 400h-63l13 93h505l-13 -93h-73l-34 -246q-1 -8 -2 -13.5t-1 -9.5q0 -21 9 -29.5t25 -8.5q11 0 20.5 3.5t16.5 8.5l11 -94q-22 -12 -40 -16t-38 -4z" />
    <glyph glyph-name="uni1E20" unicode="&#x1e20;" horiz-adv-x="733" 
d="M334 -14q-86 0 -149 37t-98 104.5t-35 158.5q0 83 26 159.5t75.5 136.5t119.5 94.5t158 34.5q111 0 183.5 -55.5t94.5 -151.5l-111 -34q-14 64 -58.5 97.5t-112.5 33.5q-63 0 -111 -26t-81.5 -70.5t-50.5 -100t-17 -115.5q0 -91 47 -142t130 -51q38 0 76 10.5t71 35
t56.5 65.5t32.5 103l5 41l15 -80h-198l14 103h276l-53 -374h-101v121l19 -18q-24 -41 -59.5 -67t-77 -38t-86.5 -12zM315 776l14 65h268l-15 -65h-267z" />
    <glyph glyph-name="uni1E21" unicode="&#x1e21;" horiz-adv-x="581" 
d="M218 -213q-56 0 -96.5 15.5t-67.5 42.5t-44 59l92 62q14 -34 42 -59t75 -25q32 0 64.5 11t57.5 40t31 84l15 113l15 -15q-32 -58 -77 -82.5t-99 -24.5q-57 0 -98.5 27t-63.5 74t-22 106q0 55 18.5 106.5t51 92t77.5 64.5t98 24q63 0 101 -30.5t48 -80.5l-12 -12l19 114
h107l-68 -483q-10 -76 -45.5 -125.5t-91 -73.5t-127.5 -24zM265 109q34 0 62 13.5t48.5 37t31.5 55t11 67.5q0 35 -12.5 62t-37 42t-58.5 15t-62.5 -14t-49.5 -38.5t-32.5 -56t-11.5 -66.5q0 -34 13.5 -60.5t38.5 -41.5t59 -15zM209 572l14 65h268l-15 -65h-267z" />
    <glyph glyph-name="uni1E44" unicode="&#x1e44;" horiz-adv-x="685" 
d="M36 0l98 697h119l259 -546h-28l77 546h116l-98 -697h-120l-257 547h27l-77 -547h-116zM354 778l17 123h122l-17 -123h-122z" />
    <glyph glyph-name="uni1E45" unicode="&#x1e45;" horiz-adv-x="559" 
d="M30 0l70 493h107l-12 -109l-21 2q19 43 47.5 68.5t62.5 36.5t69 11q75 0 116.5 -39t41.5 -110v-18.5t-2 -18.5l-45 -316h-111l40 281q2 11 2.5 20.5t0.5 20.5q0 44 -19.5 64t-57.5 20q-59 0 -95.5 -41.5t-49.5 -128.5l-33 -236h-111zM258 574l17 123h122l-17 -123h-122z
" />
    <glyph glyph-name="Wgrave" unicode="&#x1e80;" horiz-adv-x="972" 
d="M190 0l-109 697h119l76 -520l210 480h114l73 -480l224 520h122l-305 -697h-114l-85 520h20l-232 -520h-113zM515 759l-123 142h116l88 -142h-81z" />
    <glyph glyph-name="wgrave" unicode="&#x1e81;" horiz-adv-x="752" 
d="M138 0l-81 493h117l42 -323l145 323h96l53 -321l136 321h119l-220 -493h-98l-56 336l-151 -336h-102zM377 555l-123 142h116l88 -142h-81z" />
    <glyph glyph-name="Wacute" unicode="&#x1e82;" horiz-adv-x="972" 
d="M190 0l-109 697h119l76 -520l210 480h114l73 -480l224 520h122l-305 -697h-114l-85 520h20l-232 -520h-113zM512 759l116 142h119l-154 -142h-81z" />
    <glyph glyph-name="wacute" unicode="&#x1e83;" horiz-adv-x="752" 
d="M138 0l-81 493h117l42 -323l145 323h96l53 -321l136 321h119l-220 -493h-98l-56 336l-151 -336h-102zM374 555l116 142h119l-154 -142h-81z" />
    <glyph glyph-name="Wdieresis" unicode="&#x1e84;" horiz-adv-x="972" 
d="M190 0l-109 697h119l76 -520l210 480h114l73 -480l224 520h122l-305 -697h-114l-85 520h20l-232 -520h-113zM595 778l18 123h119l-18 -123h-119zM407 778l17 123h120l-17 -123h-120z" />
    <glyph glyph-name="wdieresis" unicode="&#x1e85;" horiz-adv-x="752" 
d="M138 0l-81 493h117l42 -323l145 323h96l53 -321l136 321h119l-220 -493h-98l-56 336l-151 -336h-102zM457 574l18 123h119l-18 -123h-119zM269 574l17 123h120l-17 -123h-120z" />
    <glyph glyph-name="uni1E9E" unicode="&#x1e9e;" horiz-adv-x="784" 
d="M36 0l98 697h644l-14 -103h-529l-83 -594h-116zM477 -13q-70 0 -123 27t-83 75t-31 110l117 23q-2 -66 34.5 -99t95.5 -33q38 0 69.5 14.5t50.5 40.5t19 60q0 25 -13 43.5t-40.5 34.5t-68.5 34q-57 26 -95.5 51t-58 57t-19.5 78q0 25 9 49t26.5 43t41.5 27l118 -7
q-25 -6 -42.5 -20t-27 -34t-9.5 -44q0 -25 13 -42.5t40 -33t66 -34.5q54 -24 93 -48.5t61 -56t22 -79.5q0 -68 -36.5 -121.5t-96.5 -84t-132 -30.5z" />
    <glyph glyph-name="uni1EA0" unicode="&#x1ea0;" horiz-adv-x="661" 
d="M-24 0l373 697h88l177 -697h-124l-118 528l-268 -528h-128zM168 146l50 103h224l23 -103h-297zM216 -174l13 110h122l-13 -110h-122z" />
    <glyph glyph-name="uni1EA1" unicode="&#x1ea1;" 
d="M228 -9q-58 0 -100.5 27t-64.5 75t-22 110q0 58 18 111.5t51.5 96t79.5 67t102 24.5q44 0 78 -17t54.5 -49t21.5 -79l-25 -2l23 138h105l-69 -493h-106l14 137l30 -3q-20 -53 -50 -84.5t-65.5 -45t-74.5 -13.5zM258 93q38 0 68 16.5t50.5 44.5t31 61.5t10.5 68.5
q0 36 -12.5 62t-36 40.5t-56.5 14.5q-38 0 -68 -17t-51 -44.5t-31.5 -61.5t-10.5 -69t12.5 -61.5t36.5 -40.5t57 -14zM175 -174l13 110h122l-13 -110h-122z" />
    <glyph glyph-name="uni1EA2" unicode="&#x1ea2;" horiz-adv-x="661" 
d="M-24 0l373 697h88l177 -697h-124l-118 528l-268 -528h-128zM168 146l50 103h224l23 -103h-297zM365 723l-8 38q19 4 36 9.5t28.5 14.5t12.5 21q3 19 -17.5 26t-54.5 7h-20l14 63h10q67 0 107.5 -25t36.5 -68q-2 -34 -24 -51.5t-54.5 -24t-66.5 -10.5z" />
    <glyph glyph-name="uni1EA3" unicode="&#x1ea3;" 
d="M228 -9q-58 0 -100.5 27t-64.5 75t-22 110q0 58 18 111.5t51.5 96t79.5 67t102 24.5q44 0 78 -17t54.5 -49t21.5 -79l-25 -2l23 138h105l-69 -493h-106l14 137l30 -3q-20 -53 -50 -84.5t-65.5 -45t-74.5 -13.5zM258 93q38 0 68 16.5t50.5 44.5t31 61.5t10.5 68.5
q0 36 -12.5 62t-36 40.5t-56.5 14.5q-38 0 -68 -17t-51 -44.5t-31.5 -61.5t-10.5 -69t12.5 -61.5t36.5 -40.5t57 -14zM296 519l-8 38q19 4 36 9.5t28.5 14.5t12.5 21q3 19 -17.5 26t-54.5 7h-20l14 63h10q67 0 107.5 -25t36.5 -68q-2 -34 -24 -51.5t-54.5 -24t-66.5 -10.5z
" />
    <glyph glyph-name="uni1EA4" unicode="&#x1ea4;" horiz-adv-x="661" 
d="M-24 0l373 697h88l177 -697h-124l-118 528l-268 -528h-128zM168 146l50 103h224l23 -103h-297zM246 743l173 142l136 -142h-88l-55 62l-75 -62h-91zM487 851l86 133h93l-109 -133h-70z" />
    <glyph glyph-name="uni1EA5" unicode="&#x1ea5;" 
d="M228 -9q-58 0 -100.5 27t-64.5 75t-22 110q0 58 18 111.5t51.5 96t79.5 67t102 24.5q44 0 78 -17t54.5 -49t21.5 -79l-25 -2l23 138h105l-69 -493h-106l14 137l30 -3q-20 -53 -50 -84.5t-65.5 -45t-74.5 -13.5zM258 93q38 0 68 16.5t50.5 44.5t31 61.5t10.5 68.5
q0 36 -12.5 62t-36 40.5t-56.5 14.5q-38 0 -68 -17t-51 -44.5t-31.5 -61.5t-10.5 -69t12.5 -61.5t36.5 -40.5t57 -14zM177 543l175 156l134 -156h-87l-56 61l-75 -61h-91zM418 651l86 133h93l-109 -133h-70z" />
    <glyph glyph-name="uni1EA6" unicode="&#x1ea6;" horiz-adv-x="661" 
d="M-24 0l373 697h88l177 -697h-124l-118 528l-268 -528h-128zM168 146l50 103h224l23 -103h-297zM246 743l173 142l136 -142h-88l-55 62l-75 -62h-91zM528 851l-72 133h88l49 -133h-65z" />
    <glyph glyph-name="uni1EA7" unicode="&#x1ea7;" 
d="M228 -9q-58 0 -100.5 27t-64.5 75t-22 110q0 58 18 111.5t51.5 96t79.5 67t102 24.5q44 0 78 -17t54.5 -49t21.5 -79l-25 -2l23 138h105l-69 -493h-106l14 137l30 -3q-20 -53 -50 -84.5t-65.5 -45t-74.5 -13.5zM258 93q38 0 68 16.5t50.5 44.5t31 61.5t10.5 68.5
q0 36 -12.5 62t-36 40.5t-56.5 14.5q-38 0 -68 -17t-51 -44.5t-31.5 -61.5t-10.5 -69t12.5 -61.5t36.5 -40.5t57 -14zM177 543l175 156l134 -156h-87l-56 61l-74 -61h-92zM463 651l-72 133h89l48 -133h-65z" />
    <glyph glyph-name="uni1EA8" unicode="&#x1ea8;" horiz-adv-x="661" 
d="M-24 0l373 697h88l177 -697h-124l-118 528l-268 -528h-128zM168 146l50 103h224l23 -103h-297zM246 743l173 142l136 -142h-88l-55 62l-75 -62h-91zM519 814l-14 41q28 4 46 14t18 30q0 16 -19 22.5t-44 6.5h-19l9 59h12q66 0 97 -24t27 -63q-2 -31 -19 -48t-42 -25.5
t-52 -12.5z" />
    <glyph glyph-name="uni1EA9" unicode="&#x1ea9;" 
d="M228 -9q-58 0 -100.5 27t-64.5 75t-22 110q0 58 18 111.5t51.5 96t79.5 67t102 24.5q44 0 78 -17t54.5 -49t21.5 -79l-25 -2l23 138h105l-69 -493h-106l14 137l30 -3q-20 -53 -50 -84.5t-65.5 -45t-74.5 -13.5zM258 93q38 0 68 16.5t50.5 44.5t31 61.5t10.5 68.5
q0 36 -12.5 62t-36 40.5t-56.5 14.5q-38 0 -68 -17t-51 -44.5t-31.5 -61.5t-10.5 -69t12.5 -61.5t36.5 -40.5t57 -14zM177 543l175 156l134 -156h-87l-56 61l-74 -61h-92zM444 633l-13 40q17 2 30.5 7t22.5 14t11 22q2 20 -18 25t-46 5h-18l8 59h12q61 0 93.5 -21.5
t32.5 -60.5q0 -35 -16.5 -52.5t-42.5 -25.5t-56 -12z" />
    <glyph glyph-name="uni1EAA" unicode="&#x1eaa;" horiz-adv-x="661" 
d="M-24 0l373 697h88l177 -697h-124l-118 528l-268 -528h-128zM168 146l50 103h224l23 -103h-297zM245 743l173 142l136 -142h-88l-55 62l-75 -62h-91zM489 886q-27 0 -43 6.5t-27.5 15t-21 15t-23.5 6.5q-18 0 -28 -11t-15 -24h-65q12 45 39.5 69.5t68.5 24.5q24 0 40 -6.5
t27.5 -14.5t22 -14.5t23.5 -6.5q16 0 26 10t14 23h68q-12 -45 -38 -69t-68 -24z" />
    <glyph glyph-name="uni1EAB" unicode="&#x1eab;" 
d="M228 -9q-58 0 -100.5 27t-64.5 75t-22 110q0 58 18 111.5t51.5 96t79.5 67t102 24.5q44 0 78 -17t54.5 -49t21.5 -79l-25 -2l23 138h105l-69 -493h-106l14 137l30 -3q-20 -53 -50 -84.5t-65.5 -45t-74.5 -13.5zM258 93q38 0 68 16.5t50.5 44.5t31 61.5t10.5 68.5
q0 36 -12.5 62t-36 40.5t-56.5 14.5q-38 0 -68 -17t-51 -44.5t-31.5 -61.5t-10.5 -69t12.5 -61.5t36.5 -40.5t57 -14zM176 543l175 156l134 -156h-87l-56 61l-75 -61h-91zM426 700q-25 0 -40.5 6.5t-25.5 15t-21 14.5t-27 6q-23 0 -34.5 -11t-16.5 -27l-60 8q9 41 35 65.5
t64 24.5q26 0 43 -5.5t29.5 -13.5t22 -13.5t21.5 -5.5q16 0 26.5 8t14.5 24l64 -7q-9 -42 -32.5 -65.5t-62.5 -23.5z" />
    <glyph glyph-name="uni1EAC" unicode="&#x1eac;" horiz-adv-x="661" 
d="M-24 0l373 697h88l177 -697h-124l-118 528l-268 -528h-128zM168 146l50 103h224l23 -103h-297zM216 -174l13 110h122l-13 -110h-122zM251 747l173 170l129 -170h-84l-54 76l-74 -76h-90z" />
    <glyph glyph-name="uni1EAD" unicode="&#x1ead;" 
d="M228 -9q-58 0 -100.5 27t-64.5 75t-22 110q0 58 18 111.5t51.5 96t79.5 67t102 24.5q44 0 78 -17t54.5 -49t21.5 -79l-25 -2l23 138h105l-69 -493h-106l14 137l30 -3q-20 -53 -50 -84.5t-65.5 -45t-74.5 -13.5zM258 93q38 0 68 16.5t50.5 44.5t31 61.5t10.5 68.5
q0 36 -12.5 62t-36 40.5t-56.5 14.5q-38 0 -68 -17t-51 -44.5t-31.5 -61.5t-10.5 -69t12.5 -61.5t36.5 -40.5t57 -14zM175 -174l13 110h122l-13 -110h-122zM182 543l173 170l129 -170h-84l-54 76l-74 -76h-90z" />
    <glyph glyph-name="uni1EAE" unicode="&#x1eae;" horiz-adv-x="661" 
d="M-24 0l373 697h88l177 -697h-124l-118 528l-268 -528h-128zM168 146l50 103h224l23 -103h-297zM398 739q-42 0 -74.5 14t-49 42.5t-13.5 71.5h71q-3 -33 18 -50t63 -17q34 0 58.5 16t28.5 51h70q-11 -71 -55.5 -99.5t-116.5 -28.5zM374 876l76 108h90l-97 -108h-69z" />
    <glyph glyph-name="uni1EAF" unicode="&#x1eaf;" 
d="M228 -9q-58 0 -100.5 27t-64.5 75t-22 110q0 58 18 111.5t51.5 96t79.5 67t102 24.5q44 0 78 -17t54.5 -49t21.5 -79l-25 -2l23 138h105l-69 -493h-106l14 137l30 -3q-20 -53 -50 -84.5t-65.5 -45t-74.5 -13.5zM258 93q38 0 68 16.5t50.5 44.5t31 61.5t10.5 68.5
q0 36 -12.5 62t-36 40.5t-56.5 14.5q-38 0 -68 -17t-51 -44.5t-31.5 -61.5t-10.5 -69t12.5 -61.5t36.5 -40.5t57 -14zM339 551q-72 0 -107 29t-35 87q0 8 0.5 16t1.5 17l71 -6q-1 -6 -1 -10.5v-8.5q0 -33 18 -46t50 -13q41 0 67.5 20t32.5 64l71 -6q-10 -77 -51.5 -110
t-117.5 -33zM315 702l82 127h90l-103 -127h-69z" />
    <glyph glyph-name="uni1EB0" unicode="&#x1eb0;" horiz-adv-x="661" 
d="M-24 0l373 697h88l177 -697h-124l-118 528l-268 -528h-128zM168 146l50 103h224l23 -103h-297zM404 739q-42 0 -74.5 14t-49 42.5t-13.5 71.5h71q-3 -33 17.5 -50t59.5 -17q37 0 62 16t29 51h70q-11 -71 -55.5 -99.5t-116.5 -28.5zM393 876l-73 108h85l53 -108h-65z" />
    <glyph glyph-name="uni1EB1" unicode="&#x1eb1;" 
d="M228 -9q-58 0 -100.5 27t-64.5 75t-22 110q0 58 18 111.5t51.5 96t79.5 67t102 24.5q44 0 78 -17t54.5 -49t21.5 -79l-25 -2l23 138h105l-69 -493h-106l14 137l30 -3q-20 -53 -50 -84.5t-65.5 -45t-74.5 -13.5zM258 93q38 0 68 16.5t50.5 44.5t31 61.5t10.5 68.5
q0 36 -12.5 62t-36 40.5t-56.5 14.5q-38 0 -68 -17t-51 -44.5t-31.5 -61.5t-10.5 -69t12.5 -61.5t36.5 -40.5t57 -14zM339 551q-72 0 -107 29t-35 87q0 8 0.5 16t1.5 17l71 -6q-1 -6 -1 -10.5v-8.5q0 -33 18 -46t50 -13q41 0 67.5 20t32.5 64l71 -6q-10 -77 -51.5 -110
t-117.5 -33zM328 702l-67 127h87l45 -127h-65z" />
    <glyph glyph-name="uni1EB2" unicode="&#x1eb2;" horiz-adv-x="661" 
d="M-24 0l373 697h88l177 -697h-124l-118 528l-268 -528h-128zM168 146l50 103h224l23 -103h-297zM401 739q-42 0 -74.5 14t-49 42.5t-13.5 71.5h71q-3 -33 16.5 -50t54.5 -17q41 0 67 16t30 51h70q-11 -71 -55.5 -99.5t-116.5 -28.5zM381 848l-11 33q16 2 28 6t19.5 12.5
t7.5 20.5q0 16 -19 21.5t-44 5.5h-18l7 47h12q61 0 94 -18.5t33 -52.5q0 -25 -14 -40.5t-38 -23t-57 -11.5z" />
    <glyph glyph-name="uni1EB3" unicode="&#x1eb3;" 
d="M228 -9q-58 0 -100.5 27t-64.5 75t-22 110q0 58 18 111.5t51.5 96t79.5 67t102 24.5q44 0 78 -17t54.5 -49t21.5 -79l-25 -2l23 138h105l-69 -493h-106l14 137l30 -3q-20 -53 -50 -84.5t-65.5 -45t-74.5 -13.5zM258 93q38 0 68 16.5t50.5 44.5t31 61.5t10.5 68.5
q0 36 -12.5 62t-36 40.5t-56.5 14.5q-38 0 -68 -17t-51 -44.5t-31.5 -61.5t-10.5 -69t12.5 -61.5t36.5 -40.5t57 -14zM339 551q-72 0 -107 29t-35 87q0 8 0.5 16t1.5 17l71 -6q-1 -6 -1 -10.5v-8.5q0 -33 18 -46t50 -13q41 0 67.5 20t32.5 64l71 -6q-10 -77 -51.5 -110
t-117.5 -33zM330 682l-13 41q29 3 46 14.5t18 31.5q0 18 -19 22.5t-44 4.5h-18l8 59h12q63 0 95.5 -22.5t29.5 -64.5q-1 -32 -18 -49.5t-42.5 -25t-54.5 -11.5z" />
    <glyph glyph-name="uni1EB4" unicode="&#x1eb4;" horiz-adv-x="661" 
d="M-24 0l373 697h88l177 -697h-124l-118 528l-268 -528h-128zM168 146l50 103h224l23 -103h-297zM404 739q-42 0 -74.5 14t-49 42.5t-13.5 71.5h71q-3 -33 17.5 -50t59.5 -17q37 0 62 16t29 51h70q-11 -71 -55.5 -99.5t-116.5 -28.5zM490 886q-27 0 -43 6.5t-27.5 15
t-21 15t-23.5 6.5q-18 0 -28 -11t-15 -24h-65q12 45 39.5 69.5t68.5 24.5q24 0 40 -6.5t27.5 -14.5t22 -14.5t23.5 -6.5q16 0 26 10t14 23h68q-12 -45 -38 -69t-68 -24z" />
    <glyph glyph-name="uni1EB5" unicode="&#x1eb5;" 
d="M228 -9q-58 0 -100.5 27t-64.5 75t-22 110q0 58 18 111.5t51.5 96t79.5 67t102 24.5q44 0 78 -17t54.5 -49t21.5 -79l-25 -2l23 138h105l-69 -493h-106l14 137l30 -3q-20 -53 -50 -84.5t-65.5 -45t-74.5 -13.5zM258 93q38 0 68 16.5t50.5 44.5t31 61.5t10.5 68.5
q0 36 -12.5 62t-36 40.5t-56.5 14.5q-38 0 -68 -17t-51 -44.5t-31.5 -61.5t-10.5 -69t12.5 -61.5t36.5 -40.5t57 -14zM339 551q-72 0 -107 29t-35 87q0 8 0.5 16t1.5 17l71 -6q-1 -6 -1 -10.5v-8.5q0 -33 18 -46t50 -13q41 0 67.5 20t32.5 64l71 -6q-10 -77 -51.5 -110
t-117.5 -33zM432 729q-26 0 -41.5 6t-25 14.5t-20.5 15t-28 6.5q-21 0 -33 -11t-17 -27l-60 7q9 44 35.5 67.5t63.5 23.5q26 0 43 -5.5t29.5 -13.5t22.5 -13.5t21 -5.5q32 0 42 32l63 -7q-8 -41 -32 -65t-63 -24z" />
    <glyph glyph-name="uni1EB6" unicode="&#x1eb6;" horiz-adv-x="661" 
d="M-24 0l373 697h88l177 -697h-124l-118 528l-268 -528h-128zM168 146l50 103h224l23 -103h-297zM216 -174l13 110h122l-13 -110h-122zM399 739q-42 0 -74.5 14t-49 42.5t-13.5 71.5h71q-3 -33 17.5 -50t59.5 -17q37 0 62 16t29 51h70q-11 -71 -55.5 -99.5t-116.5 -28.5z
" />
    <glyph glyph-name="uni1EB7" unicode="&#x1eb7;" 
d="M228 -9q-58 0 -100.5 27t-64.5 75t-22 110q0 58 18 111.5t51.5 96t79.5 67t102 24.5q44 0 78 -17t54.5 -49t21.5 -79l-25 -2l23 138h105l-69 -493h-106l14 137l30 -3q-20 -53 -50 -84.5t-65.5 -45t-74.5 -13.5zM258 93q38 0 68 16.5t50.5 44.5t31 61.5t10.5 68.5
q0 36 -12.5 62t-36 40.5t-56.5 14.5q-38 0 -68 -17t-51 -44.5t-31.5 -61.5t-10.5 -69t12.5 -61.5t36.5 -40.5t57 -14zM175 -174l13 110h122l-13 -110h-122zM333 551q-62 0 -104 28t-46 88v10.5t1 19.5h66q-1 -6 -1 -12t1 -11q3 -29 24 -44.5t60 -15.5q44 0 65.5 22t25.5 61
h68q-8 -73 -50.5 -109.5t-109.5 -36.5z" />
    <glyph glyph-name="uni1EB8" unicode="&#x1eb8;" 
d="M36 0l98 697h463l-15 -103h-347l-25 -185h320l-15 -104h-320l-29 -202h347l-14 -103h-463zM187 -174l13 110h122l-13 -110h-122z" />
    <glyph glyph-name="uni1EB9" unicode="&#x1eb9;" horiz-adv-x="542" 
d="M252 -9q-74 0 -121 28.5t-69 76.5t-22 106q0 55 17 108.5t51 97t83 69t113 25.5q69 0 112.5 -27t65 -73t21.5 -104q0 -22 -3.5 -46t-8.5 -45h-343q-1 -6 -0.5 -11.5t0.5 -11.5q3 -46 32 -70.5t78 -24.5q40 0 74.5 13t65.5 38l59 -75q-45 -36 -95 -55t-110 -19zM398 269
q2 14 3.5 24t1.5 23q0 25 -10 46.5t-31.5 35.5t-57.5 14q-40 0 -70 -18t-49 -46t-26 -58h275zM167 -174l13 110h122l-13 -110h-122z" />
    <glyph glyph-name="uni1EBA" unicode="&#x1eba;" 
d="M36 0l98 697h463l-15 -103h-347l-25 -185h320l-15 -104h-320l-29 -202h347l-14 -103h-463zM336 723l-8 38q19 4 36 9.5t28.5 14.5t12.5 21q3 19 -17.5 26t-54.5 7h-20l14 63h10q67 0 107.5 -25t36.5 -68q-2 -34 -24 -51.5t-54.5 -24t-66.5 -10.5z" />
    <glyph glyph-name="uni1EBB" unicode="&#x1ebb;" horiz-adv-x="542" 
d="M252 -9q-74 0 -121 28.5t-69 76.5t-22 106q0 55 17 108.5t51 97t83 69t113 25.5q69 0 112.5 -27t65 -73t21.5 -104q0 -22 -3.5 -46t-8.5 -45h-343q-1 -6 -0.5 -11.5t0.5 -11.5q3 -46 32 -70.5t78 -24.5q40 0 74.5 13t65.5 38l59 -75q-45 -36 -95 -55t-110 -19zM398 269
q2 14 3.5 24t1.5 23q0 25 -10 46.5t-31.5 35.5t-57.5 14q-40 0 -70 -18t-49 -46t-26 -58h275zM280 519l-8 38q19 4 36 9.5t28.5 14.5t12.5 21q3 19 -17.5 26t-54.5 7h-20l14 63h10q67 0 107.5 -25t36.5 -68q-2 -34 -24 -51.5t-54.5 -24t-66.5 -10.5z" />
    <glyph glyph-name="uni1EBC" unicode="&#x1ebc;" 
d="M36 0l98 697h463l-15 -103h-347l-25 -185h320l-15 -104h-320l-29 -202h347l-14 -103h-463zM441 742q-25 0 -41 7t-26 18t-18 21.5t-16.5 17.5t-19.5 7q-18 0 -32 -18.5t-18 -50.5l-63 6q8 60 39 92t76 32q23 0 37.5 -7t25 -18t18.5 -21.5t16.5 -18t19.5 -7.5q16 0 30 20
t18 52l67 -6q-9 -61 -39 -93.5t-74 -32.5z" />
    <glyph glyph-name="uni1EBD" unicode="&#x1ebd;" horiz-adv-x="542" 
d="M252 -9q-74 0 -121 28.5t-69 76.5t-22 106q0 55 17 108.5t51 97t83 69t113 25.5q69 0 112.5 -27t65 -73t21.5 -104q0 -22 -3.5 -46t-8.5 -45h-343q-1 -6 -0.5 -11.5t0.5 -11.5q3 -46 32 -70.5t78 -24.5q40 0 74.5 13t65.5 38l59 -75q-45 -36 -95 -55t-110 -19zM398 269
q2 14 3.5 24t1.5 23q0 25 -10 46.5t-31.5 35.5t-57.5 14q-40 0 -70 -18t-49 -46t-26 -58h275zM393 559q-36 0 -52.5 15t-28.5 31q-8 12 -16.5 19t-18.5 7q-18 0 -32.5 -20t-21.5 -53l-62 9q13 66 45 99.5t75 33.5q31 0 46.5 -14t26.5 -30q9 -11 17.5 -20t21.5 -9q16 0 31 21
t21 54l65 -10q-13 -66 -44 -99.5t-73 -33.5z" />
    <glyph glyph-name="uni1EBE" unicode="&#x1ebe;" 
d="M36 0l98 697h463l-15 -103h-347l-25 -185h320l-15 -104h-320l-29 -202h347l-14 -103h-463zM217 743l173 142l136 -142h-88l-55 62l-75 -62h-91zM458 851l86 133h93l-109 -133h-70z" />
    <glyph glyph-name="uni1EBF" unicode="&#x1ebf;" horiz-adv-x="542" 
d="M252 -9q-74 0 -121 28.5t-69 76.5t-22 106q0 55 17 108.5t51 97t83 69t113 25.5q69 0 112.5 -27t65 -73t21.5 -104q0 -22 -3.5 -46t-8.5 -45h-343q-1 -6 -0.5 -11.5t0.5 -11.5q3 -46 32 -70.5t78 -24.5q40 0 74.5 13t65.5 38l59 -75q-45 -36 -95 -55t-110 -19zM398 269
q2 14 3.5 24t1.5 23q0 25 -10 46.5t-31.5 35.5t-57.5 14q-40 0 -70 -18t-49 -46t-26 -58h275zM160 543l175 156l134 -156h-87l-56 61l-75 -61h-91zM401 651l86 133h93l-109 -133h-70z" />
    <glyph glyph-name="uni1EC0" unicode="&#x1ec0;" 
d="M36 0l98 697h463l-15 -103h-347l-25 -185h320l-15 -104h-320l-29 -202h347l-14 -103h-463zM217 743l173 142l136 -142h-88l-55 62l-75 -62h-91zM499 851l-72 133h88l49 -133h-65z" />
    <glyph glyph-name="uni1EC1" unicode="&#x1ec1;" horiz-adv-x="542" 
d="M252 -9q-74 0 -121 28.5t-69 76.5t-22 106q0 55 17 108.5t51 97t83 69t113 25.5q69 0 112.5 -27t65 -73t21.5 -104q0 -22 -3.5 -46t-8.5 -45h-343q-1 -6 -0.5 -11.5t0.5 -11.5q3 -46 32 -70.5t78 -24.5q40 0 74.5 13t65.5 38l59 -75q-45 -36 -95 -55t-110 -19zM398 269
q2 14 3.5 24t1.5 23q0 25 -10 46.5t-31.5 35.5t-57.5 14q-40 0 -70 -18t-49 -46t-26 -58h275zM160 543l175 156l134 -156h-87l-56 61l-74 -61h-92zM446 651l-72 133h89l48 -133h-65z" />
    <glyph glyph-name="uni1EC2" unicode="&#x1ec2;" 
d="M36 0l98 697h463l-15 -103h-347l-25 -185h320l-15 -104h-320l-29 -202h347l-14 -103h-463zM217 743l173 142l136 -142h-88l-55 62l-75 -62h-91zM490 814l-14 41q28 4 46 14t18 30q0 16 -19 22.5t-44 6.5h-19l9 59h12q66 0 97 -24t27 -63q-2 -31 -19 -48t-42 -25.5
t-52 -12.5z" />
    <glyph glyph-name="uni1EC3" unicode="&#x1ec3;" horiz-adv-x="542" 
d="M252 -9q-74 0 -121 28.5t-69 76.5t-22 106q0 55 17 108.5t51 97t83 69t113 25.5q69 0 112.5 -27t65 -73t21.5 -104q0 -22 -3.5 -46t-8.5 -45h-343q-1 -6 -0.5 -11.5t0.5 -11.5q3 -46 32 -70.5t78 -24.5q40 0 74.5 13t65.5 38l59 -75q-45 -36 -95 -55t-110 -19zM398 269
q2 14 3.5 24t1.5 23q0 25 -10 46.5t-31.5 35.5t-57.5 14q-40 0 -70 -18t-49 -46t-26 -58h275zM160 543l175 156l134 -156h-87l-56 61l-74 -61h-92zM427 633l-13 40q17 2 30.5 7t22.5 14t11 22q2 20 -18 25t-46 5h-18l8 59h12q61 0 93.5 -21.5t32.5 -60.5q0 -35 -16.5 -52.5
t-42.5 -25.5t-56 -12z" />
    <glyph glyph-name="uni1EC4" unicode="&#x1ec4;" 
d="M36 0l98 697h463l-15 -103h-347l-25 -185h320l-15 -104h-320l-29 -202h347l-14 -103h-463zM216 743l173 142l136 -142h-88l-55 62l-75 -62h-91zM460 886q-27 0 -43 6.5t-27.5 15t-21 15t-23.5 6.5q-18 0 -28 -11t-15 -24h-65q12 45 39.5 69.5t68.5 24.5q24 0 40 -6.5
t27.5 -14.5t22 -14.5t23.5 -6.5q16 0 26 10t14 23h68q-12 -45 -38 -69t-68 -24z" />
    <glyph glyph-name="uni1EC5" unicode="&#x1ec5;" horiz-adv-x="542" 
d="M252 -9q-74 0 -121 28.5t-69 76.5t-22 106q0 55 17 108.5t51 97t83 69t113 25.5q69 0 112.5 -27t65 -73t21.5 -104q0 -22 -3.5 -46t-8.5 -45h-343q-1 -6 -0.5 -11.5t0.5 -11.5q3 -46 32 -70.5t78 -24.5q40 0 74.5 13t65.5 38l59 -75q-45 -36 -95 -55t-110 -19zM398 269
q2 14 3.5 24t1.5 23q0 25 -10 46.5t-31.5 35.5t-57.5 14q-40 0 -70 -18t-49 -46t-26 -58h275zM160 543l175 156l134 -156h-87l-56 61l-75 -61h-91zM410 700q-25 0 -40.5 6.5t-25.5 15t-21 14.5t-27 6q-23 0 -34.5 -11t-16.5 -27l-60 8q9 41 35 65.5t64 24.5q26 0 43 -5.5
t29.5 -13.5t22 -13.5t21.5 -5.5q16 0 26.5 8t14.5 24l64 -7q-9 -42 -32.5 -65.5t-62.5 -23.5z" />
    <glyph glyph-name="uni1EC6" unicode="&#x1ec6;" 
d="M36 0l98 697h463l-15 -103h-347l-25 -185h320l-15 -104h-320l-29 -202h347l-14 -103h-463zM187 -174l13 110h122l-13 -110h-122zM222 747l173 170l129 -170h-84l-54 76l-74 -76h-90z" />
    <glyph glyph-name="uni1EC7" unicode="&#x1ec7;" horiz-adv-x="542" 
d="M252 -9q-74 0 -121 28.5t-69 76.5t-22 106q0 55 17 108.5t51 97t83 69t113 25.5q69 0 112.5 -27t65 -73t21.5 -104q0 -22 -3.5 -46t-8.5 -45h-343q-1 -6 -0.5 -11.5t0.5 -11.5q3 -46 32 -70.5t78 -24.5q40 0 74.5 13t65.5 38l59 -75q-45 -36 -95 -55t-110 -19zM398 269
q2 14 3.5 24t1.5 23q0 25 -10 46.5t-31.5 35.5t-57.5 14q-40 0 -70 -18t-49 -46t-26 -58h275zM167 -174l13 110h122l-13 -110h-122zM166 543l173 170l129 -170h-84l-54 76l-74 -76h-90z" />
    <glyph glyph-name="uni1EC8" unicode="&#x1ec8;" horiz-adv-x="258" 
d="M36 0l98 697h116l-98 -697h-116zM163 723l-8 38q19 4 36 9.5t28.5 14.5t12.5 21q3 19 -17.5 26t-54.5 7h-20l14 63h10q67 0 107.5 -25t36.5 -68q-2 -34 -24 -51.5t-54.5 -24t-66.5 -10.5z" />
    <glyph glyph-name="uni1EC9" unicode="&#x1ec9;" horiz-adv-x="239" 
d="M29 0l69 493h111l-69 -493h-111zM125 519l-8 38q19 4 36 9.5t28.5 14.5t12.5 21q3 19 -17.5 26t-54.5 7h-20l14 63h10q67 0 107.5 -25t36.5 -68q-2 -34 -24 -51.5t-54.5 -24t-66.5 -10.5z" />
    <glyph glyph-name="uni1ECA" unicode="&#x1eca;" horiz-adv-x="258" 
d="M36 0l98 697h116l-98 -697h-116zM14 -174l13 110h122l-13 -110h-122z" />
    <glyph glyph-name="uni1ECB" unicode="&#x1ecb;" horiz-adv-x="239" 
d="M29 0l69 493h111l-69 -493h-111zM104 574l17 123h122l-17 -123h-122zM4 -174l13 110h122l-13 -110h-122z" />
    <glyph glyph-name="uni1ECC" unicode="&#x1ecc;" horiz-adv-x="748" 
d="M341 -14q-89 0 -153.5 37t-100 105t-35.5 160q0 81 26 157t75.5 136t119.5 95t159 35q90 0 154.5 -37t100 -104.5t35.5 -160.5q0 -83 -26 -159t-75.5 -135.5t-120 -94t-159.5 -34.5zM348 96q62 0 109.5 25t81 68.5t50.5 98t17 114.5q0 92 -47 145.5t-134 53.5
q-62 0 -110 -25.5t-81 -69.5t-50 -99t-17 -113q0 -61 21.5 -105.5t62 -68.5t97.5 -24zM258 -174l13 110h122l-13 -110h-122z" />
    <glyph glyph-name="uni1ECD" unicode="&#x1ecd;" horiz-adv-x="573" 
d="M255 -9q-64 0 -113 28t-76 77.5t-27 114.5q0 59 20.5 111t57.5 92.5t88 64t112 23.5q66 0 114 -27.5t75 -76.5t27 -114q0 -59 -21 -112t-58.5 -94t-88 -64t-110.5 -23zM262 89q39 0 68.5 16.5t50.5 44t31.5 61.5t10.5 70q0 54 -28.5 89t-83.5 35q-40 0 -70.5 -16.5
t-51 -45t-31 -62t-10.5 -67.5q0 -55 29.5 -90t84.5 -35zM171 -174l13 110h122l-13 -110h-122z" />
    <glyph glyph-name="uni1ECE" unicode="&#x1ece;" horiz-adv-x="748" 
d="M341 -14q-89 0 -153.5 37t-100 105t-35.5 160q0 81 26 157t75.5 136t119.5 95t159 35q90 0 154.5 -37t100 -104.5t35.5 -160.5q0 -83 -26 -159t-75.5 -135.5t-120 -94t-159.5 -34.5zM348 96q62 0 109.5 25t81 68.5t50.5 98t17 114.5q0 92 -47 145.5t-134 53.5
q-62 0 -110 -25.5t-81 -69.5t-50 -99t-17 -113q0 -61 21.5 -105.5t62 -68.5t97.5 -24zM407 723l-8 38q19 4 36 9.5t28.5 14.5t12.5 21q3 19 -17.5 26t-54.5 7h-20l14 63h10q67 0 107.5 -25t36.5 -68q-2 -34 -24 -51.5t-54.5 -24t-66.5 -10.5z" />
    <glyph glyph-name="uni1ECF" unicode="&#x1ecf;" horiz-adv-x="573" 
d="M255 -9q-64 0 -113 28t-76 77.5t-27 114.5q0 59 20.5 111t57.5 92.5t88 64t112 23.5q66 0 114 -27.5t75 -76.5t27 -114q0 -59 -21 -112t-58.5 -94t-88 -64t-110.5 -23zM262 89q39 0 68.5 16.5t50.5 44t31.5 61.5t10.5 70q0 54 -28.5 89t-83.5 35q-40 0 -70.5 -16.5
t-51 -45t-31 -62t-10.5 -67.5q0 -55 29.5 -90t84.5 -35zM292 519l-8 38q19 4 36 9.5t28.5 14.5t12.5 21q3 19 -17.5 26t-54.5 7h-20l14 63h10q67 0 107.5 -25t36.5 -68q-2 -34 -24 -51.5t-54.5 -24t-66.5 -10.5z" />
    <glyph glyph-name="uni1ED0" unicode="&#x1ed0;" horiz-adv-x="748" 
d="M341 -14q-89 0 -153.5 37t-100 105t-35.5 160q0 81 26 157t75.5 136t119.5 95t159 35q90 0 154.5 -37t100 -104.5t35.5 -160.5q0 -83 -26 -159t-75.5 -135.5t-120 -94t-159.5 -34.5zM348 96q62 0 109.5 25t81 68.5t50.5 98t17 114.5q0 92 -47 145.5t-134 53.5
q-62 0 -110 -25.5t-81 -69.5t-50 -99t-17 -113q0 -61 21.5 -105.5t62 -68.5t97.5 -24zM287 743l173 142l136 -142h-88l-55 62l-75 -62h-91zM528 851l86 133h93l-109 -133h-70z" />
    <glyph glyph-name="uni1ED1" unicode="&#x1ed1;" horiz-adv-x="573" 
d="M255 -9q-64 0 -113 28t-76 77.5t-27 114.5q0 59 20.5 111t57.5 92.5t88 64t112 23.5q66 0 114 -27.5t75 -76.5t27 -114q0 -59 -21 -112t-58.5 -94t-88 -64t-110.5 -23zM262 89q39 0 68.5 16.5t50.5 44t31.5 61.5t10.5 70q0 54 -28.5 89t-83.5 35q-40 0 -70.5 -16.5
t-51 -45t-31 -62t-10.5 -67.5q0 -55 29.5 -90t84.5 -35zM172 543l175 156l134 -156h-87l-56 61l-75 -61h-91zM413 651l86 133h93l-109 -133h-70z" />
    <glyph glyph-name="uni1ED2" unicode="&#x1ed2;" horiz-adv-x="748" 
d="M341 -14q-89 0 -153.5 37t-100 105t-35.5 160q0 81 26 157t75.5 136t119.5 95t159 35q90 0 154.5 -37t100 -104.5t35.5 -160.5q0 -83 -26 -159t-75.5 -135.5t-120 -94t-159.5 -34.5zM348 96q62 0 109.5 25t81 68.5t50.5 98t17 114.5q0 92 -47 145.5t-134 53.5
q-62 0 -110 -25.5t-81 -69.5t-50 -99t-17 -113q0 -61 21.5 -105.5t62 -68.5t97.5 -24zM287 743l173 142l136 -142h-88l-55 62l-75 -62h-91zM569 851l-72 133h88l49 -133h-65z" />
    <glyph glyph-name="uni1ED3" unicode="&#x1ed3;" horiz-adv-x="573" 
d="M255 -9q-64 0 -113 28t-76 77.5t-27 114.5q0 59 20.5 111t57.5 92.5t88 64t112 23.5q66 0 114 -27.5t75 -76.5t27 -114q0 -59 -21 -112t-58.5 -94t-88 -64t-110.5 -23zM262 89q39 0 68.5 16.5t50.5 44t31.5 61.5t10.5 70q0 54 -28.5 89t-83.5 35q-40 0 -70.5 -16.5
t-51 -45t-31 -62t-10.5 -67.5q0 -55 29.5 -90t84.5 -35zM172 543l175 156l134 -156h-87l-56 61l-74 -61h-92zM458 651l-72 133h89l48 -133h-65z" />
    <glyph glyph-name="uni1ED4" unicode="&#x1ed4;" horiz-adv-x="748" 
d="M341 -14q-89 0 -153.5 37t-100 105t-35.5 160q0 81 26 157t75.5 136t119.5 95t159 35q90 0 154.5 -37t100 -104.5t35.5 -160.5q0 -83 -26 -159t-75.5 -135.5t-120 -94t-159.5 -34.5zM348 96q62 0 109.5 25t81 68.5t50.5 98t17 114.5q0 92 -47 145.5t-134 53.5
q-62 0 -110 -25.5t-81 -69.5t-50 -99t-17 -113q0 -61 21.5 -105.5t62 -68.5t97.5 -24zM287 743l173 142l136 -142h-88l-55 62l-75 -62h-91zM560 814l-14 41q28 4 46 14t18 30q0 16 -19 22.5t-44 6.5h-19l9 59h12q66 0 97 -24t27 -63q-2 -31 -19 -48t-42 -25.5t-52 -12.5z
" />
    <glyph glyph-name="uni1ED5" unicode="&#x1ed5;" horiz-adv-x="573" 
d="M255 -9q-64 0 -113 28t-76 77.5t-27 114.5q0 59 20.5 111t57.5 92.5t88 64t112 23.5q66 0 114 -27.5t75 -76.5t27 -114q0 -59 -21 -112t-58.5 -94t-88 -64t-110.5 -23zM262 89q39 0 68.5 16.5t50.5 44t31.5 61.5t10.5 70q0 54 -28.5 89t-83.5 35q-40 0 -70.5 -16.5
t-51 -45t-31 -62t-10.5 -67.5q0 -55 29.5 -90t84.5 -35zM172 543l175 156l134 -156h-87l-56 61l-74 -61h-92zM439 633l-13 40q17 2 30.5 7t22.5 14t11 22q2 20 -18 25t-46 5h-18l8 59h12q61 0 93.5 -21.5t32.5 -60.5q0 -35 -16.5 -52.5t-42.5 -25.5t-56 -12z" />
    <glyph glyph-name="uni1ED6" unicode="&#x1ed6;" horiz-adv-x="748" 
d="M341 -14q-89 0 -153.5 37t-100 105t-35.5 160q0 81 26 157t75.5 136t119.5 95t159 35q90 0 154.5 -37t100 -104.5t35.5 -160.5q0 -83 -26 -159t-75.5 -135.5t-120 -94t-159.5 -34.5zM348 96q62 0 109.5 25t81 68.5t50.5 98t17 114.5q0 92 -47 145.5t-134 53.5
q-62 0 -110 -25.5t-81 -69.5t-50 -99t-17 -113q0 -61 21.5 -105.5t62 -68.5t97.5 -24zM287 743l173 142l136 -142h-88l-55 62l-75 -62h-91zM531 886q-27 0 -43 6.5t-27.5 15t-21 15t-23.5 6.5q-18 0 -28 -11t-15 -24h-65q12 45 39.5 69.5t68.5 24.5q24 0 40 -6.5t27.5 -14.5
t22 -14.5t23.5 -6.5q16 0 26 10t14 23h68q-12 -45 -38 -69t-68 -24z" />
    <glyph glyph-name="uni1ED7" unicode="&#x1ed7;" horiz-adv-x="573" 
d="M255 -9q-64 0 -113 28t-76 77.5t-27 114.5q0 59 20.5 111t57.5 92.5t88 64t112 23.5q66 0 114 -27.5t75 -76.5t27 -114q0 -59 -21 -112t-58.5 -94t-88 -64t-110.5 -23zM262 89q39 0 68.5 16.5t50.5 44t31.5 61.5t10.5 70q0 54 -28.5 89t-83.5 35q-40 0 -70.5 -16.5
t-51 -45t-31 -62t-10.5 -67.5q0 -55 29.5 -90t84.5 -35zM172 543l175 156l134 -156h-87l-56 61l-75 -61h-91zM422 700q-25 0 -40.5 6.5t-25.5 15t-21 14.5t-27 6q-23 0 -34.5 -11t-16.5 -27l-60 8q9 41 35 65.5t64 24.5q26 0 43 -5.5t29.5 -13.5t22 -13.5t21.5 -5.5
q16 0 26.5 8t14.5 24l64 -7q-9 -42 -32.5 -65.5t-62.5 -23.5z" />
    <glyph glyph-name="uni1ED8" unicode="&#x1ed8;" horiz-adv-x="748" 
d="M341 -14q-89 0 -153.5 37t-100 105t-35.5 160q0 81 26 157t75.5 136t119.5 95t159 35q90 0 154.5 -37t100 -104.5t35.5 -160.5q0 -83 -26 -159t-75.5 -135.5t-120 -94t-159.5 -34.5zM348 96q62 0 109.5 25t81 68.5t50.5 98t17 114.5q0 92 -47 145.5t-134 53.5
q-62 0 -110 -25.5t-81 -69.5t-50 -99t-17 -113q0 -61 21.5 -105.5t62 -68.5t97.5 -24zM258 -174l13 110h122l-13 -110h-122zM286 747l179 170l131 -170h-87l-53 76l-77 -76h-93z" />
    <glyph glyph-name="uni1ED9" unicode="&#x1ed9;" horiz-adv-x="573" 
d="M255 -9q-64 0 -113 28t-76 77.5t-27 114.5q0 59 20.5 111t57.5 92.5t88 64t112 23.5q66 0 114 -27.5t75 -76.5t27 -114q0 -59 -21 -112t-58.5 -94t-88 -64t-110.5 -23zM262 89q39 0 68.5 16.5t50.5 44t31.5 61.5t10.5 70q0 54 -28.5 89t-83.5 35q-40 0 -70.5 -16.5
t-51 -45t-31 -62t-10.5 -67.5q0 -55 29.5 -90t84.5 -35zM171 -174l13 110h122l-13 -110h-122zM177 543l173 170l129 -170h-84l-54 76l-74 -76h-90z" />
    <glyph glyph-name="uni1EDA" unicode="&#x1eda;" horiz-adv-x="748" 
d="M341 -14q-89 0 -153.5 37t-100 105t-35.5 160q0 81 26 157t75.5 136t119.5 95t159 35q90 0 154.5 -37t100 -104.5t35.5 -160.5q0 -83 -26 -159t-75.5 -135.5t-120 -94t-159.5 -34.5zM348 96q62 0 109.5 25t81 68.5t50.5 98t17 114.5q0 92 -47 145.5t-134 53.5
q-62 0 -110 -25.5t-81 -69.5t-50 -99t-17 -113q0 -61 21.5 -105.5t62 -68.5t97.5 -24zM644 494l7 69q43 0 66 24.5t29 72.5l5 37h76l-6 -45q-10 -70 -52.5 -114t-124.5 -44zM399 759l116 142h119l-154 -142h-81z" />
    <glyph glyph-name="uni1EDB" unicode="&#x1edb;" horiz-adv-x="573" 
d="M255 -9q-64 0 -113 28t-76 77.5t-27 114.5q0 59 20.5 111t57.5 92.5t88 64t112 23.5q66 0 114 -27.5t75 -76.5t27 -114q0 -59 -21 -112t-58.5 -94t-88 -64t-110.5 -23zM262 89q39 0 68.5 16.5t50.5 44t31.5 61.5t10.5 70q0 54 -28.5 89t-83.5 35q-40 0 -70.5 -16.5
t-51 -45t-31 -62t-10.5 -67.5q0 -55 29.5 -90t84.5 -35zM459 290l7 69q43 0 66 24.5t29 72.5l5 37h76l-6 -45q-10 -70 -52.5 -114t-124.5 -44zM283 555l116 142h119l-154 -142h-81z" />
    <glyph glyph-name="uni1EDC" unicode="&#x1edc;" horiz-adv-x="748" 
d="M341 -14q-89 0 -153.5 37t-100 105t-35.5 160q0 81 26 157t75.5 136t119.5 95t159 35q90 0 154.5 -37t100 -104.5t35.5 -160.5q0 -83 -26 -159t-75.5 -135.5t-120 -94t-159.5 -34.5zM348 96q62 0 109.5 25t81 68.5t50.5 98t17 114.5q0 92 -47 145.5t-134 53.5
q-62 0 -110 -25.5t-81 -69.5t-50 -99t-17 -113q0 -61 21.5 -105.5t62 -68.5t97.5 -24zM644 494l7 69q43 0 66 24.5t29 72.5l5 37h76l-6 -45q-10 -70 -52.5 -114t-124.5 -44zM402 759l-123 142h116l88 -142h-81z" />
    <glyph glyph-name="uni1EDD" unicode="&#x1edd;" horiz-adv-x="573" 
d="M255 -9q-64 0 -113 28t-76 77.5t-27 114.5q0 59 20.5 111t57.5 92.5t88 64t112 23.5q66 0 114 -27.5t75 -76.5t27 -114q0 -59 -21 -112t-58.5 -94t-88 -64t-110.5 -23zM262 89q39 0 68.5 16.5t50.5 44t31.5 61.5t10.5 70q0 54 -28.5 89t-83.5 35q-40 0 -70.5 -16.5
t-51 -45t-31 -62t-10.5 -67.5q0 -55 29.5 -90t84.5 -35zM459 290l7 69q43 0 66 24.5t29 72.5l5 37h76l-6 -45q-10 -70 -52.5 -114t-124.5 -44zM287 555l-123 142h116l88 -142h-81z" />
    <glyph glyph-name="uni1EDE" unicode="&#x1ede;" horiz-adv-x="748" 
d="M341 -14q-89 0 -153.5 37t-100 105t-35.5 160q0 81 26 157t75.5 136t119.5 95t159 35q90 0 154.5 -37t100 -104.5t35.5 -160.5q0 -83 -26 -159t-75.5 -135.5t-120 -94t-159.5 -34.5zM348 96q62 0 109.5 25t81 68.5t50.5 98t17 114.5q0 92 -47 145.5t-134 53.5
q-62 0 -110 -25.5t-81 -69.5t-50 -99t-17 -113q0 -61 21.5 -105.5t62 -68.5t97.5 -24zM644 494l7 69q43 0 66 24.5t29 72.5l5 37h76l-6 -45q-10 -70 -52.5 -114t-124.5 -44zM407 723l-8 38q19 4 36 9.5t28.5 14.5t12.5 21q3 19 -17.5 26t-54.5 7h-20l14 63h10
q67 0 107.5 -25t36.5 -68q-2 -34 -24 -51.5t-54.5 -24t-66.5 -10.5z" />
    <glyph glyph-name="uni1EDF" unicode="&#x1edf;" horiz-adv-x="573" 
d="M255 -9q-64 0 -113 28t-76 77.5t-27 114.5q0 59 20.5 111t57.5 92.5t88 64t112 23.5q66 0 114 -27.5t75 -76.5t27 -114q0 -59 -21 -112t-58.5 -94t-88 -64t-110.5 -23zM262 89q39 0 68.5 16.5t50.5 44t31.5 61.5t10.5 70q0 54 -28.5 89t-83.5 35q-40 0 -70.5 -16.5
t-51 -45t-31 -62t-10.5 -67.5q0 -55 29.5 -90t84.5 -35zM459 290l7 69q43 0 66 24.5t29 72.5l5 37h76l-6 -45q-10 -70 -52.5 -114t-124.5 -44zM292 519l-8 38q19 4 36 9.5t28.5 14.5t12.5 21q3 19 -17.5 26t-54.5 7h-20l14 63h10q67 0 107.5 -25t36.5 -68q-2 -34 -24 -51.5
t-54.5 -24t-66.5 -10.5z" />
    <glyph glyph-name="uni1EE0" unicode="&#x1ee0;" horiz-adv-x="748" 
d="M341 -14q-89 0 -153.5 37t-100 105t-35.5 160q0 81 26 157t75.5 136t119.5 95t159 35q90 0 154.5 -37t100 -104.5t35.5 -160.5q0 -83 -26 -159t-75.5 -135.5t-120 -94t-159.5 -34.5zM348 96q62 0 109.5 25t81 68.5t50.5 98t17 114.5q0 92 -47 145.5t-134 53.5
q-62 0 -110 -25.5t-81 -69.5t-50 -99t-17 -113q0 -61 21.5 -105.5t62 -68.5t97.5 -24zM644 494l7 69q43 0 66 24.5t29 72.5l5 37h76l-6 -45q-10 -70 -52.5 -114t-124.5 -44zM512 742q-25 0 -41 7t-26 18t-18 21.5t-16.5 17.5t-19.5 7q-18 0 -32 -18.5t-18 -50.5l-63 6
q8 60 39 92t76 32q23 0 37.5 -7t25 -18t18.5 -21.5t16.5 -18t19.5 -7.5q16 0 30 20t18 52l67 -6q-9 -61 -39 -93.5t-74 -32.5z" />
    <glyph glyph-name="uni1EE1" unicode="&#x1ee1;" horiz-adv-x="573" 
d="M255 -9q-64 0 -113 28t-76 77.5t-27 114.5q0 59 20.5 111t57.5 92.5t88 64t112 23.5q66 0 114 -27.5t75 -76.5t27 -114q0 -59 -21 -112t-58.5 -94t-88 -64t-110.5 -23zM262 89q39 0 68.5 16.5t50.5 44t31.5 61.5t10.5 70q0 54 -28.5 89t-83.5 35q-40 0 -70.5 -16.5
t-51 -45t-31 -62t-10.5 -67.5q0 -55 29.5 -90t84.5 -35zM459 290l7 69q43 0 66 24.5t29 72.5l5 37h76l-6 -45q-10 -70 -52.5 -114t-124.5 -44zM405 559q-36 0 -52.5 15t-28.5 31q-8 12 -16.5 19t-18.5 7q-18 0 -32.5 -20t-21.5 -53l-62 9q13 66 45 99.5t75 33.5
q31 0 46.5 -14t26.5 -30q9 -11 17.5 -20t21.5 -9q16 0 31 21t21 54l65 -10q-13 -66 -44 -99.5t-73 -33.5z" />
    <glyph glyph-name="uni1EE2" unicode="&#x1ee2;" horiz-adv-x="748" 
d="M341 -14q-89 0 -153.5 37t-100 105t-35.5 160q0 81 26 157t75.5 136t119.5 95t159 35q90 0 154.5 -37t100 -104.5t35.5 -160.5q0 -83 -26 -159t-75.5 -135.5t-120 -94t-159.5 -34.5zM348 96q62 0 109.5 25t81 68.5t50.5 98t17 114.5q0 92 -47 145.5t-134 53.5
q-62 0 -110 -25.5t-81 -69.5t-50 -99t-17 -113q0 -61 21.5 -105.5t62 -68.5t97.5 -24zM644 494l7 69q43 0 66 24.5t29 72.5l5 37h76l-6 -45q-10 -70 -52.5 -114t-124.5 -44zM258 -174l13 110h122l-13 -110h-122z" />
    <glyph glyph-name="uni1EE3" unicode="&#x1ee3;" horiz-adv-x="573" 
d="M255 -9q-64 0 -113 28t-76 77.5t-27 114.5q0 59 20.5 111t57.5 92.5t88 64t112 23.5q66 0 114 -27.5t75 -76.5t27 -114q0 -59 -21 -112t-58.5 -94t-88 -64t-110.5 -23zM262 89q39 0 68.5 16.5t50.5 44t31.5 61.5t10.5 70q0 54 -28.5 89t-83.5 35q-40 0 -70.5 -16.5
t-51 -45t-31 -62t-10.5 -67.5q0 -55 29.5 -90t84.5 -35zM459 290l7 69q43 0 66 24.5t29 72.5l5 37h76l-6 -45q-10 -70 -52.5 -114t-124.5 -44zM171 -174l13 110h122l-13 -110h-122z" />
    <glyph glyph-name="uni1EE4" unicode="&#x1ee4;" horiz-adv-x="657" 
d="M297 -14q-116 0 -176 53t-60 157q0 12 1 27.5t3 31.5l62 442h116l-61 -435q-2 -16 -3 -31t-1 -26q0 -57 27.5 -85t94.5 -28q58 0 94.5 20.5t57 59.5t28.5 96l60 429h115l-62 -443q-19 -135 -93.5 -201.5t-202.5 -66.5zM213 -174l13 110h122l-13 -110h-122z" />
    <glyph glyph-name="uni1EE5" unicode="&#x1ee5;" horiz-adv-x="559" 
d="M206 -9q-79 0 -119 40.5t-40 112.5q0 11 1 21.5t2 21.5l43 306h111l-39 -282q-1 -11 -2 -20.5t-1 -20.5q0 -41 18 -61.5t60 -20.5q44 0 73.5 23t47 67.5t26.5 105.5l29 209h111l-69 -493h-107l11 106l18 -9q-29 -57 -75 -81.5t-99 -24.5zM165 -174l13 110h122l-13 -110
h-122z" />
    <glyph glyph-name="uni1EE6" unicode="&#x1ee6;" horiz-adv-x="657" 
d="M297 -14q-116 0 -176 53t-60 157q0 12 1 27.5t3 31.5l62 442h116l-61 -435q-2 -16 -3 -31t-1 -26q0 -57 27.5 -85t94.5 -28q58 0 94.5 20.5t57 59.5t28.5 96l60 429h115l-62 -443q-19 -135 -93.5 -201.5t-202.5 -66.5zM363 723l-8 38q19 4 36 9.5t28.5 14.5t12.5 21
q3 19 -17.5 26t-54.5 7h-20l14 63h10q67 0 107.5 -25t36.5 -68q-2 -34 -24 -51.5t-54.5 -24t-66.5 -10.5z" />
    <glyph glyph-name="uni1EE7" unicode="&#x1ee7;" horiz-adv-x="559" 
d="M206 -9q-79 0 -119 40.5t-40 112.5q0 11 1 21.5t2 21.5l43 306h111l-39 -282q-1 -11 -2 -20.5t-1 -20.5q0 -41 18 -61.5t60 -20.5q44 0 73.5 23t47 67.5t26.5 105.5l29 209h111l-69 -493h-107l11 106l18 -9q-29 -57 -75 -81.5t-99 -24.5zM280 519l-8 38q19 4 36 9.5
t28.5 14.5t12.5 21q3 19 -17.5 26t-54.5 7h-20l14 63h10q67 0 107.5 -25t36.5 -68q-2 -34 -24 -51.5t-54.5 -24t-66.5 -10.5z" />
    <glyph glyph-name="uni1EE8" unicode="&#x1ee8;" horiz-adv-x="719" 
d="M297 -14q-116 0 -176 53t-60 157q0 12 1 27.5t3 31.5l62 442h116l-61 -435q-2 -16 -3 -31t-1 -26q0 -57 27.5 -85t94.5 -28q58 0 94.5 20.5t57 59.5t28.5 96l60 429h115l-62 -443q-19 -135 -93.5 -201.5t-202.5 -66.5zM593 494l7 69q43 0 66 24.5t29 72.5l5 37h76l-6 -45
q-10 -70 -52.5 -114t-124.5 -44zM354 759l116 142h119l-154 -142h-81z" />
    <glyph glyph-name="uni1EE9" unicode="&#x1ee9;" horiz-adv-x="559" 
d="M206 -9q-79 0 -119 40.5t-40 112.5q0 11 1 21.5t2 21.5l43 306h111l-39 -282q-1 -11 -2 -20.5t-1 -20.5q0 -41 18 -61.5t60 -20.5q44 0 73.5 23t47 67.5t26.5 105.5l29 209h111l-69 -493h-107l11 106l18 -9q-29 -57 -75 -81.5t-99 -24.5zM486 290l7 69q43 0 66 24.5
t29 72.5l5 37h76l-6 -45q-10 -70 -52.5 -114t-124.5 -44zM272 555l116 142h119l-154 -142h-81z" />
    <glyph glyph-name="uni1EEA" unicode="&#x1eea;" horiz-adv-x="719" 
d="M297 -14q-116 0 -176 53t-60 157q0 12 1 27.5t3 31.5l62 442h116l-61 -435q-2 -16 -3 -31t-1 -26q0 -57 27.5 -85t94.5 -28q58 0 94.5 20.5t57 59.5t28.5 96l60 429h115l-62 -443q-19 -135 -93.5 -201.5t-202.5 -66.5zM593 494l7 69q43 0 66 24.5t29 72.5l5 37h76l-6 -45
q-10 -70 -52.5 -114t-124.5 -44zM358 759l-123 142h116l88 -142h-81z" />
    <glyph glyph-name="uni1EEB" unicode="&#x1eeb;" horiz-adv-x="559" 
d="M206 -9q-79 0 -119 40.5t-40 112.5q0 11 1 21.5t2 21.5l43 306h111l-39 -282q-1 -11 -2 -20.5t-1 -20.5q0 -41 18 -61.5t60 -20.5q44 0 73.5 23t47 67.5t26.5 105.5l29 209h111l-69 -493h-107l11 106l18 -9q-29 -57 -75 -81.5t-99 -24.5zM486 290l7 69q43 0 66 24.5
t29 72.5l5 37h76l-6 -45q-10 -70 -52.5 -114t-124.5 -44zM275 555l-123 142h116l88 -142h-81z" />
    <glyph glyph-name="uni1EEC" unicode="&#x1eec;" horiz-adv-x="719" 
d="M297 -14q-116 0 -176 53t-60 157q0 12 1 27.5t3 31.5l62 442h116l-61 -435q-2 -16 -3 -31t-1 -26q0 -57 27.5 -85t94.5 -28q58 0 94.5 20.5t57 59.5t28.5 96l60 429h115l-62 -443q-19 -135 -93.5 -201.5t-202.5 -66.5zM593 494l7 69q43 0 66 24.5t29 72.5l5 37h76l-6 -45
q-10 -70 -52.5 -114t-124.5 -44zM363 723l-8 38q19 4 36 9.5t28.5 14.5t12.5 21q3 19 -17.5 26t-54.5 7h-20l14 63h10q67 0 107.5 -25t36.5 -68q-2 -34 -24 -51.5t-54.5 -24t-66.5 -10.5z" />
    <glyph glyph-name="uni1EED" unicode="&#x1eed;" horiz-adv-x="559" 
d="M206 -9q-79 0 -119 40.5t-40 112.5q0 11 1 21.5t2 21.5l43 306h111l-39 -282q-1 -11 -2 -20.5t-1 -20.5q0 -41 18 -61.5t60 -20.5q44 0 73.5 23t47 67.5t26.5 105.5l29 209h111l-69 -493h-107l11 106l18 -9q-29 -57 -75 -81.5t-99 -24.5zM486 290l7 69q43 0 66 24.5
t29 72.5l5 37h76l-6 -45q-10 -70 -52.5 -114t-124.5 -44zM280 519l-8 38q19 4 36 9.5t28.5 14.5t12.5 21q3 19 -17.5 26t-54.5 7h-20l14 63h10q67 0 107.5 -25t36.5 -68q-2 -34 -24 -51.5t-54.5 -24t-66.5 -10.5z" />
    <glyph glyph-name="uni1EEE" unicode="&#x1eee;" horiz-adv-x="719" 
d="M297 -14q-116 0 -176 53t-60 157q0 12 1 27.5t3 31.5l62 442h116l-61 -435q-2 -16 -3 -31t-1 -26q0 -57 27.5 -85t94.5 -28q58 0 94.5 20.5t57 59.5t28.5 96l60 429h115l-62 -443q-19 -135 -93.5 -201.5t-202.5 -66.5zM593 494l7 69q43 0 66 24.5t29 72.5l5 37h76l-6 -45
q-10 -70 -52.5 -114t-124.5 -44zM468 742q-25 0 -41 7t-26 18t-18 21.5t-16.5 17.5t-19.5 7q-18 0 -32 -18.5t-18 -50.5l-63 6q8 60 39 92t76 32q23 0 37.5 -7t25 -18t18.5 -21.5t16.5 -18t19.5 -7.5q16 0 30 20t18 52l67 -6q-9 -61 -39 -93.5t-74 -32.5z" />
    <glyph glyph-name="uni1EEF" unicode="&#x1eef;" horiz-adv-x="559" 
d="M206 -9q-79 0 -119 40.5t-40 112.5q0 11 1 21.5t2 21.5l43 306h111l-39 -282q-1 -11 -2 -20.5t-1 -20.5q0 -41 18 -61.5t60 -20.5q44 0 73.5 23t47 67.5t26.5 105.5l29 209h111l-69 -493h-107l11 106l18 -9q-29 -57 -75 -81.5t-99 -24.5zM486 290l7 69q43 0 66 24.5
t29 72.5l5 37h76l-6 -45q-10 -70 -52.5 -114t-124.5 -44zM393 559q-36 0 -52.5 15t-28.5 31q-8 12 -16.5 19t-18.5 7q-18 0 -32.5 -20t-21.5 -53l-62 9q13 66 45 99.5t75 33.5q31 0 46.5 -14t26.5 -30q9 -11 17.5 -20t21.5 -9q16 0 31 21t21 54l65 -10q-13 -66 -44 -99.5
t-73 -33.5z" />
    <glyph glyph-name="uni1EF0" unicode="&#x1ef0;" horiz-adv-x="719" 
d="M297 -14q-116 0 -176 53t-60 157q0 12 1 27.5t3 31.5l62 442h116l-61 -435q-2 -16 -3 -31t-1 -26q0 -57 27.5 -85t94.5 -28q58 0 94.5 20.5t57 59.5t28.5 96l60 429h115l-62 -443q-19 -135 -93.5 -201.5t-202.5 -66.5zM593 494l7 69q43 0 66 24.5t29 72.5l5 37h76l-6 -45
q-10 -70 -52.5 -114t-124.5 -44zM213 -174l13 110h122l-13 -110h-122z" />
    <glyph glyph-name="uni1EF1" unicode="&#x1ef1;" horiz-adv-x="559" 
d="M206 -9q-79 0 -119 40.5t-40 112.5q0 11 1 21.5t2 21.5l43 306h111l-39 -282q-1 -11 -2 -20.5t-1 -20.5q0 -41 18 -61.5t60 -20.5q44 0 73.5 23t47 67.5t26.5 105.5l29 209h111l-69 -493h-107l11 106l18 -9q-29 -57 -75 -81.5t-99 -24.5zM486 290l7 69q43 0 66 24.5
t29 72.5l5 37h76l-6 -45q-10 -70 -52.5 -114t-124.5 -44zM165 -174l13 110h122l-13 -110h-122z" />
    <glyph glyph-name="Ygrave" unicode="&#x1ef2;" horiz-adv-x="617" 
d="M217 0l39 271l-185 426h129l124 -310l217 310h133l-303 -426l-38 -271h-116zM339 759l-123 142h116l88 -142h-81z" />
    <glyph glyph-name="ygrave" unicode="&#x1ef3;" horiz-adv-x="530" 
d="M43 -203l133 236l-123 460h121l75 -349l176 349h122l-381 -696h-123zM266 555l-123 142h116l88 -142h-81z" />
    <glyph glyph-name="uni1EF4" unicode="&#x1ef4;" horiz-adv-x="617" 
d="M217 0l39 271l-185 426h129l124 -310l217 310h133l-303 -426l-38 -271h-116zM194 -174l13 110h122l-13 -110h-122z" />
    <glyph glyph-name="uni1EF5" unicode="&#x1ef5;" horiz-adv-x="530" 
d="M43 -203l133 236l-123 460h121l75 -349l176 349h122l-381 -696h-123zM306 -204l13 110h122l-13 -110h-122z" />
    <glyph glyph-name="uni1EF6" unicode="&#x1ef6;" horiz-adv-x="617" 
d="M217 0l39 271l-185 426h129l124 -310l217 310h133l-303 -426l-38 -271h-116zM343 723l-8 38q19 4 36 9.5t28.5 14.5t12.5 21q3 19 -17.5 26t-54.5 7h-20l14 63h10q67 0 107.5 -25t36.5 -68q-2 -34 -24 -51.5t-54.5 -24t-66.5 -10.5z" />
    <glyph glyph-name="uni1EF7" unicode="&#x1ef7;" horiz-adv-x="530" 
d="M43 -203l133 236l-123 460h121l75 -349l176 349h122l-381 -696h-123zM271 519l-8 38q19 4 36 9.5t28.5 14.5t12.5 21q3 19 -17.5 26t-54.5 7h-20l14 63h10q67 0 107.5 -25t36.5 -68q-2 -34 -24 -51.5t-54.5 -24t-66.5 -10.5z" />
    <glyph glyph-name="uni1EF8" unicode="&#x1ef8;" horiz-adv-x="617" 
d="M217 0l39 271l-185 426h129l124 -310l217 310h133l-303 -426l-38 -271h-116zM448 742q-25 0 -41 7t-26 18t-18 21.5t-16.5 17.5t-19.5 7q-18 0 -32 -18.5t-18 -50.5l-63 6q8 60 39 92t76 32q23 0 37.5 -7t25 -18t18.5 -21.5t16.5 -18t19.5 -7.5q16 0 30 20t18 52l67 -6
q-9 -61 -39 -93.5t-74 -32.5z" />
    <glyph glyph-name="uni1EF9" unicode="&#x1ef9;" horiz-adv-x="530" 
d="M43 -203l133 236l-123 460h121l75 -349l176 349h122l-381 -696h-123zM384 559q-36 0 -52.5 15t-28.5 31q-8 12 -16.5 19t-18.5 7q-18 0 -32.5 -20t-21.5 -53l-62 9q13 66 45 99.5t75 33.5q31 0 46.5 -14t26.5 -30q9 -11 17.5 -20t21.5 -9q16 0 31 21t21 54l65 -10
q-13 -66 -44 -99.5t-73 -33.5z" />
    <glyph glyph-name="endash" unicode="&#x2013;" horiz-adv-x="374" 
d="M2 257l11 82h374l-11 -82h-374z" />
    <glyph glyph-name="emdash" unicode="&#x2014;" horiz-adv-x="1010" 
d="M2 257l11 82h1010l-11 -82h-1010z" />
    <glyph glyph-name="uni2015" unicode="&#x2015;" horiz-adv-x="701" 
d="M43 257l12 82h617l-11 -82h-618z" />
    <glyph glyph-name="quoteleft" unicode="&#x2018;" horiz-adv-x="267" 
d="M53 416l166 281h75l-111 -281h-130z" />
    <glyph glyph-name="quoteright" unicode="&#x2019;" horiz-adv-x="268" 
d="M59 417l112 280h130l-167 -280h-75z" />
    <glyph glyph-name="quotesinglbase" unicode="&#x201a;" horiz-adv-x="286" 
d="M-11 -150l111 280h131l-167 -280h-75z" />
    <glyph glyph-name="quotedblleft" unicode="&#x201c;" horiz-adv-x="453" 
d="M240 416l166 281h75l-111 -281h-130zM52 416l167 281h75l-112 -281h-130z" />
    <glyph glyph-name="quotedblright" unicode="&#x201d;" horiz-adv-x="455" 
d="M247 417l112 280h129l-166 -280h-75zM59 417l112 280h130l-167 -280h-75z" />
    <glyph glyph-name="quotedblbase" unicode="&#x201e;" horiz-adv-x="421" 
d="M154 -150l112 280h130l-166 -280h-76zM-42 -150l111 280h131l-167 -280h-75z" />
    <glyph glyph-name="dagger" unicode="&#x2020;" horiz-adv-x="389" 
d="M103 -101l73 516h-121l12 82h121l27 200h84l-29 -200h122l-12 -82h-121l-72 -516h-84z" />
    <glyph glyph-name="daggerdbl" unicode="&#x2021;" horiz-adv-x="403" 
d="M112 -101l28 200h-120l11 83h121l32 233h-120l11 82h121l28 200h83l-28 -200h120l-12 -82h-120l-33 -233h120l-11 -83h-120l-28 -200h-83z" />
    <glyph glyph-name="bullet" unicode="&#x2022;" horiz-adv-x="374" 
d="M49 126l34 242h241l-34 -242h-241z" />
    <glyph glyph-name="uni2023" unicode="&#x2023;" horiz-adv-x="402" 
d="M43 76l52 370l291 -185z" />
    <glyph glyph-name="twodotenleader" unicode="&#x2025;" horiz-adv-x="443" 
d="M228 0l18 126h121l-18 -126h-121zM24 0l18 126h121l-18 -126h-121z" />
    <glyph glyph-name="ellipsis" unicode="&#x2026;" horiz-adv-x="684" 
d="M475 0l18 126h115l-18 -126h-115zM24 0l18 126h115l-18 -126h-115zM250 0l17 126h115l-17 -126h-115z" />
    <glyph glyph-name="perthousand" unicode="&#x2030;" horiz-adv-x="1075" 
d="M69 0l542 697h82l-542 -697h-82zM514 -9q-60 0 -98.5 38t-38.5 101q0 51 22.5 92.5t60.5 66.5t85 25q41 0 71.5 -18.5t48 -51t17.5 -72.5q0 -49 -23 -90t-61.5 -66t-83.5 -25zM521 65q24 0 44 13t32 35.5t12 49.5q0 34 -20 55.5t-51 21.5q-24 0 -44 -13t-32 -35t-12 -51
q0 -36 20 -56t51 -20zM223 383q-40 0 -71 17t-48.5 48.5t-17.5 74.5q0 50 22.5 92t60.5 66.5t85 24.5q41 0 71.5 -18.5t48 -50.5t17.5 -73q0 -48 -23 -89t-61.5 -66.5t-83.5 -25.5zM230 457q24 0 44 13.5t32 35.5t12 49q0 34 -20 55.5t-51 21.5q-24 0 -44 -12.5t-32 -35
t-12 -51.5q0 -35 20 -55.5t51 -20.5zM849 -9q-39 0 -70 17t-49 48.5t-18 73.5q0 51 23 92.5t61 66.5t85 25q41 0 71.5 -18.5t48 -51t17.5 -72.5q0 -49 -23 -90t-61.5 -66t-84.5 -25zM857 65q24 0 43.5 13t32 35.5t12.5 49.5q0 34 -20 55.5t-51 21.5q-24 0 -44.5 -13t-32 -35
t-11.5 -51q0 -36 20 -56t51 -20z" />
    <glyph glyph-name="uni2031" unicode="&#x2031;" horiz-adv-x="1411" 
d="M69 0l542 697h82l-542 -697h-82zM514 -9q-60 0 -98.5 38t-38.5 101q0 51 22.5 92.5t60.5 66.5t85 25q41 0 71.5 -18.5t48 -51t17.5 -72.5q0 -49 -23 -90t-61.5 -66t-83.5 -25zM521 65q24 0 44 13t32 35.5t12 49.5q0 34 -20 55.5t-51 21.5q-24 0 -44 -13t-32 -35t-12 -51
q0 -36 20 -56t51 -20zM223 383q-40 0 -71 17t-48.5 48.5t-17.5 74.5q0 50 22.5 92t60.5 66.5t85 24.5q41 0 71.5 -18.5t48 -50.5t17.5 -73q0 -48 -23 -89t-61.5 -66.5t-83.5 -25.5zM230 457q24 0 44 13.5t32 35.5t12 49q0 34 -20 55.5t-51 21.5q-24 0 -44 -12.5t-32 -35
t-12 -51.5q0 -35 20 -55.5t51 -20.5zM849 -9q-39 0 -70 17t-49 48.5t-18 73.5q0 51 23 92.5t61 66.5t85 25q41 0 71.5 -18.5t48 -51t17.5 -72.5q0 -49 -23 -90t-61.5 -66t-84.5 -25zM857 65q24 0 43.5 13t32 35.5t12.5 49.5q0 34 -20 55.5t-51 21.5q-24 0 -44.5 -13t-32 -35
t-11.5 -51q0 -36 20 -56t51 -20zM1185 -9q-39 0 -70 17t-49 48.5t-18 73.5q0 51 22.5 92.5t61 66.5t85.5 25q40 0 70.5 -18.5t48.5 -51t18 -72.5q0 -49 -23 -90t-61.5 -66t-84.5 -25zM1192 65q25 0 44.5 13t32 35.5t12.5 49.5q0 34 -20.5 55.5t-50.5 21.5q-24 0 -44.5 -13
t-32 -35t-11.5 -51q0 -36 20 -56t50 -20z" />
    <glyph glyph-name="guilsinglleft" unicode="&#x2039;" horiz-adv-x="270" 
d="M220 49l-217 204l273 203l-15 -119l-127 -84l101 -86z" />
    <glyph glyph-name="guilsinglright" unicode="&#x203a;" horiz-adv-x="270" 
d="M-5 49l14 118l127 86l-101 84l15 119l217 -203z" />
    <glyph glyph-name="fraction" unicode="&#x2044;" horiz-adv-x="219" 
d="M-174 0l513 697h82l-513 -697h-82z" />
    <glyph glyph-name="uni2074" unicode="&#x2074;" horiz-adv-x="336" 
d="M244 488l14 99h-189l6 52l235 267h60l-37 -257h67l-9 -62h-66l-14 -99h-67zM131 631l-3 18h140l26 191l6 -10z" />
    <glyph glyph-name="dong" unicode="&#x20ab;" horiz-adv-x="560" 
d="M225 134q-79 0 -121.5 50t-42.5 129q0 21 3 42q10 65 40.5 111.5t74.5 71t95 24.5q62 0 97.5 -33t42.5 -105l-37 17l40 285h96l-82 -584h-81l1 112l16 -3q-12 -52 -50.5 -84.5t-91.5 -32.5zM20 0l10 65h452l-10 -65h-452zM243 222q34 0 61.5 17t45.5 47t23 69
q1 5 1.5 12.5t0.5 12.5q0 43 -22.5 68.5t-61.5 25.5q-33 0 -60.5 -16.5t-46.5 -46t-24 -69.5q-1 -5 -1.5 -12.5t-0.5 -12.5q0 -43 23 -69t62 -26zM293 614l8 59h266l-8 -59h-266z" />
    <glyph glyph-name="Euro" unicode="&#x20ac;" horiz-adv-x="560" 
d="M311 -9q-81 0 -136 36t-83 101t-28 150q0 20 1.5 40t4.5 41q14 101 58.5 179t114 123t158.5 45q65 0 113.5 -16.5t82.5 -47.5l-69 -87q-23 23 -54.5 35t-75.5 12q-59 0 -104 -33.5t-73 -92t-39 -131.5q-2 -17 -3.5 -35t-1.5 -35q0 -80 33.5 -130t102.5 -50
q49 0 87.5 15.5t66.5 40.5l53 -97q-42 -32 -94 -47.5t-115 -15.5zM5 241l11 74h413l-14 -74h-410zM29 391l10 75h411l-11 -75h-410z" />
    <glyph glyph-name="uni20B1" unicode="&#x20b1;" horiz-adv-x="560" 
d="M32 0l98 697h192q75 0 122 -21t68.5 -58.5t21.5 -88.5q0 -10 -0.5 -20t-2.5 -21q-8 -58 -40.5 -102t-87.5 -69t-132 -25h-83l-41 -292h-115zM37 454l12 84h116l-12 -84h-116zM203 400h77q63 0 97 25t41 76q1 5 1 10v9q0 36 -25 52.5t-82 16.5h-83zM492 454l12 84h87
l-12 -84h-87z" />
    <glyph glyph-name="uni20B3" unicode="&#x20b3;" horiz-adv-x="560" 
d="M-23 0l323 697h86l127 -697h-127l-64 528l-216 -528h-129zM-15 138l13 74h555l-10 -74h-558zM8 288l11 75h555l-11 -75h-555z" />
    <glyph glyph-name="uni20B4" unicode="&#x20b4;" horiz-adv-x="560" 
d="M257 -13q-71 0 -119.5 24t-73 64.5t-24.5 88.5q0 32 10.5 62.5t32.5 54.5h128q-27 -23 -42 -49t-15 -59q0 -39 28 -61t74 -22q56 0 98 28t64 76l103 -52q-38 -74 -106.5 -114.5t-157.5 -40.5zM15 260l10 72h525l-11 -72h-524zM35 399l10 73h524l-10 -73h-524zM339 440
q36 20 59 43.5t23 58.5q0 30 -21.5 48.5t-56.5 18.5q-41 0 -75 -21.5t-61 -61.5l-88 63q43 63 98.5 92.5t123.5 29.5q63 0 106.5 -21.5t65.5 -57.5t22 -80q0 -36 -14.5 -63.5t-38.5 -48.5h-143z" />
    <glyph glyph-name="uni20B8" unicode="&#x20b8;" horiz-adv-x="560" 
d="M187 0l61 432h-192l13 94h499l-12 -94h-192l-61 -432h-116zM80 603l13 93h500l-14 -93h-499z" />
    <glyph glyph-name="uni20BD" unicode="&#x20bd;" horiz-adv-x="560" 
d="M69 0l19 131h-89l13 94h89l10 76h-88l14 99h88l42 297h215q103 0 159 -47t56 -129v-16.5t-2 -18.5q-13 -94 -83 -139.5t-181 -45.5h-105l-11 -76h164l-13 -94h-164l-19 -131h-114zM240 400h99q30 0 61 8t54 30t29 62q1 5 1 8v8q0 30 -16.5 45.5t-42 21.5t-53.5 6h-106z
" />
    <glyph glyph-name="uni2116" unicode="&#x2116;" horiz-adv-x="1139" 
d="M36 0l98 697h119l259 -546h-28l77 546h116l-98 -697h-120l-257 547h27l-77 -547h-116zM661 0l12 85h401l-12 -85h-401zM894 163q-57 0 -98 25t-63 67t-22 93q0 64 30 117.5t82 87t118 33.5q58 0 99.5 -24.5t63.5 -66.5t22 -94q0 -47 -17 -89.5t-48.5 -76t-74 -53
t-92.5 -19.5zM896 242q42 0 72.5 23t47.5 60.5t17 77.5q0 42 -22.5 72.5t-70.5 30.5q-43 0 -73 -24t-46 -60.5t-16 -77.5q0 -42 22.5 -72t68.5 -30z" />
    <glyph glyph-name="trademark" unicode="&#x2122;" horiz-adv-x="716" 
d="M358 379l45 318h91l42 -217l103 217h92l-44 -318h-58l37 257l-121 -238h-37l-56 241l-37 -260h-57zM141 379l38 266h-92l7 52h240l-7 -52h-91l-38 -266h-57z" />
    <glyph glyph-name="uni2126" unicode="&#x2126;" horiz-adv-x="796" 
d="M41 0l15 109h151l25 -21q-74 36 -113.5 101.5t-39.5 149.5q0 72 27.5 139t78.5 119.5t119.5 83t151.5 30.5q90 0 157 -36.5t104.5 -100t37.5 -145.5q0 -75 -28 -141t-80 -118t-124 -85l25 24h152l-15 -109h-274l12 98q68 33 115 83.5t71 111.5t24 127q0 84 -46.5 132.5
t-133.5 48.5q-63 0 -111 -24t-81 -65t-49.5 -93t-16.5 -108q0 -75 34 -129.5t96 -86.5l-10 -95h-274z" />
    <glyph glyph-name="oneeighth" unicode="&#x215b;" horiz-adv-x="798" 
d="M100 279l46 333l15 -33h-127l8 53h65q21 0 33.5 9.5t14.5 30.5l4 25h66l-58 -418h-67zM59 0l513 697h82l-513 -697h-82zM607 -6q-37 0 -69 13.5t-51 39t-19 64.5q0 22 8 44.5t25.5 41.5t45.5 32q-15 10 -23.5 27.5t-8.5 39.5q-1 37 20 66t54.5 45.5t71.5 16.5
q32 0 58.5 -12.5t42.5 -35.5t16 -57q1 -19 -5.5 -36.5t-18.5 -32t-31 -25.5q24 -12 37.5 -34.5t13.5 -54.5q0 -42 -23 -74t-60.5 -50t-83.5 -18zM610 57q29 0 51.5 11.5t34.5 30t12 41.5q0 29 -20 45t-54 16q-27 0 -49.5 -10t-36 -28t-13.5 -44q0 -20 9.5 -34t26.5 -21
t39 -7zM637 247q20 0 37.5 8.5t27.5 23t10 34.5q0 22 -14.5 35.5t-40.5 13.5q-21 0 -38 -8t-27.5 -23t-10.5 -34q0 -23 15 -36.5t41 -13.5z" />
    <glyph glyph-name="threeeighths" unicode="&#x215c;" horiz-adv-x="907" 
d="M152 274q-42 0 -74 14.5t-49 40.5t-17 62q0 5 0.5 10t1.5 10h66q-1 -3 -1 -6v-4q0 -31 20.5 -47.5t57.5 -16.5q29 0 51 10t34 27t12 40q0 17 -6.5 28.5t-19.5 18t-31.5 9t-41.5 2.5l4 52q25 0 47 7t35.5 22t13.5 38t-14 35.5t-40 12.5q-22 0 -39 -8.5t-27.5 -23
t-13.5 -33.5l-65 8q5 36 26 63t53 42t71 15q35 0 61.5 -13t41 -36.5t14.5 -53.5q0 -26 -11 -46.5t-31 -35t-48 -21.5v13q23 -3 43 -14.5t32 -31t12 -49.5q0 -37 -21 -69t-59 -51.5t-88 -19.5zM169 0l513 697h81l-513 -697h-81zM717 -6q-38 0 -69.5 13.5t-50.5 39t-19 64.5
q0 22 8 44.5t25.5 41.5t45.5 32q-15 10 -24 27.5t-9 39.5q0 37 21 66t54.5 45.5t71.5 16.5q31 0 57.5 -12.5t43 -35.5t16.5 -57q0 -19 -6 -36.5t-18 -32t-31 -25.5q24 -12 37.5 -34.5t13.5 -54.5q0 -42 -23 -74t-61 -50t-83 -18zM720 57q29 0 51 11.5t34.5 30t12.5 41.5
q0 29 -20 45t-55 16q-27 0 -49 -10t-35.5 -28t-13.5 -44q0 -20 9.5 -34t26.5 -21t39 -7zM746 247q21 0 38 8.5t27.5 23t10.5 34.5q0 22 -15 35.5t-41 13.5q-20 0 -37.5 -8t-28 -23t-10.5 -34q0 -23 15.5 -36.5t40.5 -13.5z" />
    <glyph glyph-name="fiveeighths" unicode="&#x215d;" horiz-adv-x="905" 
d="M151 273q-41 0 -71.5 17t-48 46t-17.5 64l66 8q0 -30 19.5 -50.5t54.5 -20.5q22 0 40 8t30 21.5t18.5 31t6.5 36.5q0 32 -18 50.5t-50 18.5q-25 0 -46.5 -12t-35.5 -31l-63 19l72 218h229l-9 -62h-205l40 28l-48 -147l-22 3q23 23 50.5 35t56.5 12q36 0 62.5 -16.5
t41 -44.5t14.5 -64q0 -32 -12 -62t-34 -54t-52.5 -38t-68.5 -14zM167 0l513 697h81l-513 -697h-81zM714 -6q-37 0 -68.5 13.5t-51 39t-19.5 64.5q0 22 8.5 44.5t26 41.5t45.5 32q-15 10 -24 27.5t-9 39.5q-1 37 20 66t55 45.5t72 16.5q31 0 57.5 -12.5t42.5 -35.5t16 -57
q1 -19 -5 -36.5t-18.5 -32t-30.5 -25.5q24 -12 37 -34.5t13 -54.5q0 -42 -22.5 -74t-60.5 -50t-84 -18zM718 57q28 0 50.5 11.5t35 30t12.5 41.5q0 29 -20 45t-55 16q-27 0 -49.5 -10t-36 -28t-13.5 -44q0 -20 10 -34t26.5 -21t39.5 -7zM744 247q20 0 37.5 8.5t28 23
t10.5 34.5q0 22 -15 35.5t-41 13.5q-20 0 -37.5 -8t-28 -23t-10.5 -34q0 -23 15 -36.5t41 -13.5z" />
    <glyph glyph-name="seveneighths" unicode="&#x215e;" horiz-adv-x="824" 
d="M30 279l249 381l16 -25h-253l9 62h302l-7 -49l-240 -369h-76zM86 0l513 697h81l-513 -697h-81zM633 -6q-37 0 -68.5 13.5t-51 39t-19.5 64.5q0 22 8.5 44.5t26 41.5t45.5 32q-15 10 -24 27.5t-9 39.5q-1 37 20 66t55 45.5t72 16.5q31 0 57.5 -12.5t42.5 -35.5t16 -57
q1 -19 -5 -36.5t-18.5 -32t-30.5 -25.5q24 -12 37 -34.5t13 -54.5q0 -42 -22.5 -74t-60.5 -50t-84 -18zM637 57q28 0 50.5 11.5t35 30t12.5 41.5q0 29 -20 45t-55 16q-27 0 -49.5 -10t-36 -28t-13.5 -44q0 -20 10 -34t26.5 -21t39.5 -7zM663 247q20 0 37.5 8.5t28 23
t10.5 34.5q0 22 -15 35.5t-41 13.5q-20 0 -37.5 -8t-28 -23t-10.5 -34q0 -23 15 -36.5t41 -13.5z" />
    <glyph glyph-name="arrowleft" unicode="&#x2190;" horiz-adv-x="1134" 
d="M635 593l31 -77l-389 -196l-1 19h871l-11 -82h-877l7 19l335 -203l-45 -70l-489 295z" />
    <glyph glyph-name="arrowright" unicode="&#x2192;" horiz-adv-x="1112" 
d="M513 3l-31 77l390 196v-19h-870l11 82h877l-7 -19l-336 203l45 70l490 -295z" />
    <glyph glyph-name="partialdiff" unicode="&#x2202;" horiz-adv-x="636" 
d="M249 -5q-96 0 -149 53.5t-53 137.5q0 61 24 117t65.5 100t97 69t118.5 25q33 0 58 -9.5t43 -26t29 -36.5q3 -5 7 -13t7 -17q4 18 4.5 31.5t0.5 30.5q0 83 -28 124.5t-90 41.5q-38 0 -79 -18.5t-67 -65.5l-79 32q34 64 93.5 99t134.5 35q102 0 155.5 -64.5t53.5 -184.5
q0 -66 -14 -132.5t-42 -125.5t-69.5 -105t-96.5 -72t-124 -26zM259 90q46 0 83 19t65.5 49.5t43.5 65.5q8 18 12.5 37t5.5 37q0 30 -11.5 54.5t-34.5 39t-61 14.5q-51 0 -90.5 -20t-66 -52.5t-40.5 -70t-14 -72.5q0 -49 30.5 -75t77.5 -26z" />
    <glyph glyph-name="emptyset" unicode="&#x2205;" horiz-adv-x="718" 
d="M96 35l64 83q-46 42 -73.5 102t-27.5 128q0 66 24.5 122.5t67.5 99.5t99.5 67t121.5 24q47 0 89.5 -12.5t79.5 -36.5l38 49h71l-65 -82q46 -42 73.5 -101t27.5 -130q0 -64 -24.5 -121t-67.5 -100t-99.5 -67.5t-122.5 -24.5q-46 0 -88.5 12.5t-78.5 35.5l-38 -48h-71z
M203 172l296 386q-29 17 -60 26t-66 9q-52 0 -96 -19t-78 -52.5t-53 -77.5t-19 -96q0 -51 20 -96.5t56 -79.5zM373 103q51 0 95 19t78 53t53 78.5t19 94.5q0 52 -20 98t-55 79l-296 -387q28 -17 60 -26t66 -9z" />
    <glyph glyph-name="uni2206" unicode="&#x2206;" horiz-adv-x="665" 
d="M4 0l376 697h29l182 -697h-587zM156 94h314l-99 411z" />
    <glyph glyph-name="product" unicode="&#x220f;" horiz-adv-x="598" 
d="M52 0l85 604h-42l13 93h508l-14 -93h-42l-85 -604h-94l85 604h-235l-85 -604h-94z" />
    <glyph glyph-name="summation" unicode="&#x2211;" horiz-adv-x="630" 
d="M12 0l7 55l322 293l-238 294l7 55h537l-15 -105h-406l21 40l245 -284l-321 -283l-12 41h405l-15 -106h-537z" />
    <glyph glyph-name="minus" unicode="&#x2212;" horiz-adv-x="560" 
d="M77 204v87h407v-87h-407z" />
    <glyph glyph-name="uni2215" unicode="&#x2215;" horiz-adv-x="421" 
d="M-5 0l374 697h86l-375 -697h-85z" />
    <glyph glyph-name="radical" unicode="&#x221a;" horiz-adv-x="618" 
d="M203 -110l-84 378h-78l13 94h144l41 -233l303 568h102z" />
    <glyph glyph-name="infinity" unicode="&#x221e;" horiz-adv-x="857" 
d="M225 161q-61 0 -104.5 24t-67 66.5t-23.5 97.5q0 54 23.5 96.5t67 66.5t104.5 24q50 0 104.5 -27.5t98.5 -84.5q29 37 63 62t70 37.5t70 12.5q61 0 104.5 -24t67.5 -66.5t24 -96.5q0 -55 -24 -97t-67.5 -66.5t-104.5 -24.5q-35 0 -71.5 13t-70 38t-61.5 60
q-42 -53 -96.5 -82t-106.5 -29zM238 251q32 0 71 24.5t69 73.5q-32 51 -71 74.5t-69 23.5q-32 0 -57 -12t-38.5 -34t-13.5 -52q0 -31 13.5 -53t38.5 -33.5t57 -11.5zM616 251q34 0 59 11.5t38.5 33.5t13.5 53q0 30 -13.5 52t-38.5 34t-59 12q-29 0 -67.5 -23.5t-71.5 -74.5
q33 -51 71.5 -74.5t67.5 -23.5z" />
    <glyph glyph-name="integral" unicode="&#x222b;" horiz-adv-x="479" 
d="M-28 -227l7 94q82 0 124 31t52 108l78 557q7 44 31 78t58.5 53t72.5 19q31 0 58.5 -11.5t49.5 -32.5l-65 -66q-12 10 -23 13.5t-20 3.5q-26 0 -45.5 -17.5t-23.5 -48.5l-79 -556q-10 -74 -46.5 -124.5t-94.5 -75.5t-134 -25z" />
    <glyph glyph-name="approxequal" unicode="&#x2248;" horiz-adv-x="560" 
d="M367 272q-35 0 -57 11.5t-36.5 28.5t-25.5 34t-24 28.5t-33 11.5q-21 0 -33 -24t-12 -62h-89q0 74 36.5 119t97.5 45q36 0 59 -11.5t37.5 -28t26 -33.5t23.5 -28.5t30 -11.5q21 0 34.5 27.5t13.5 68.5h88q0 -51 -16.5 -91t-47.5 -62t-72 -22zM367 29q-35 0 -57 11.5
t-36.5 28.5t-25.5 34t-24 28.5t-33 11.5q-21 0 -33 -23.5t-12 -61.5h-89q0 73 36.5 118.5t97.5 45.5q36 0 59 -11.5t37.5 -28t26 -33.5t23.5 -28.5t30 -11.5q21 0 34.5 27.5t13.5 70.5h88q0 -52 -16.5 -92t-47.5 -63t-72 -23z" />
    <glyph glyph-name="notequal" unicode="&#x2260;" horiz-adv-x="560" 
d="M156 0l200 493h49l-200 -493h-49zM76 313v88h409v-88h-409zM76 93v87h409v-87h-409z" />
    <glyph glyph-name="lessequal" unicode="&#x2264;" horiz-adv-x="560" 
d="M527 112l-502 157v106l502 156v-92l-457 -134v34l457 -134v-93zM25 -41v89h502v-89h-502z" />
    <glyph glyph-name="greaterequal" unicode="&#x2265;" horiz-adv-x="560" 
d="M33 112v93l457 134v-34l-457 134v92l502 -156v-106zM535 -41h-502v89h502v-89z" />
    <glyph glyph-name="lozenge" unicode="&#x25ca;" horiz-adv-x="609" 
d="M197 0l-141 348l236 349h149l140 -349l-236 -348h-148zM271 59h12l187 289l-103 290h-13l-189 -290z" />
    <glyph glyph-name="uni004A0301" horiz-adv-x="554" 
d="M227 -14q-95 0 -151 54t-58 150l115 6q1 -51 25.5 -77t76.5 -26q64 0 97 42.5t43 117.5l47 341h-266l15 103h382l-64 -457q-11 -80 -46.5 -137t-90 -87t-125.5 -30zM324 759l116 142h119l-154 -142h-81z" />
    <glyph glyph-name="uni013B.loclMAH" horiz-adv-x="501" 
d="M36 0l98 697h116l-84 -594h302l-15 -103h-417zM96 -225l71 172h117l-122 -172h-66z" />
    <glyph glyph-name="uni0145.loclMAH" horiz-adv-x="685" 
d="M36 0l98 697h119l259 -546h-28l77 546h116l-98 -697h-120l-257 547h27l-77 -547h-116zM176 -225l71 172h117l-122 -172h-66z" />
    <glyph glyph-name="uni1EB6.ss03" horiz-adv-x="661" 
d="M-24 0l373 697h88l177 -697h-124l-118 528l-268 -528h-128zM168 146l50 103h224l23 -103h-297zM276 -194q-27 0 -45 18.5t-18 45.5q0 29 20 49.5t49 20.5q28 0 46 -17.5t18 -43.5q0 -29 -21 -51t-49 -22zM399 739q-42 0 -74.5 14t-49 42.5t-13.5 71.5h71q-3 -33 17.5 -50
t59.5 -17q37 0 62 16t29 51h70q-11 -71 -55.5 -99.5t-116.5 -28.5z" />
    <glyph glyph-name="uni1EAC.ss03" horiz-adv-x="661" 
d="M-24 0l373 697h88l177 -697h-124l-118 528l-268 -528h-128zM168 146l50 103h224l23 -103h-297zM276 -194q-27 0 -45 18.5t-18 45.5q0 29 20 49.5t49 20.5q28 0 46 -17.5t18 -43.5q0 -29 -21 -51t-49 -22zM245 747l179 170l131 -170h-87l-53 76l-77 -76h-93z" />
    <glyph glyph-name="Adieresis.ss03" horiz-adv-x="661" 
d="M-24 0l373 697h88l177 -697h-124l-118 528l-268 -528h-128zM168 146l50 103h224l23 -103h-297zM513 776q-27 0 -45 18.5t-18 45.5q0 29 21 49.5t49 20.5q27 0 45 -17.5t18 -44.5q0 -29 -21 -50.5t-49 -21.5zM310 776q-27 0 -45 18t-18 45q0 30 20 50.5t50 20.5
q27 0 45 -17.5t18 -45.5t-21 -49.5t-49 -21.5z" />
    <glyph glyph-name="uni1EA0.ss03" horiz-adv-x="661" 
d="M-24 0l373 697h88l177 -697h-124l-118 528l-268 -528h-128zM168 146l50 103h224l23 -103h-297zM276 -194q-27 0 -45 18.5t-18 45.5q0 29 20 49.5t49 20.5q28 0 46 -17.5t18 -43.5q0 -29 -21 -51t-49 -22z" />
    <glyph glyph-name="Cdotaccent.ss03" horiz-adv-x="707" 
d="M341 -14q-70 0 -123.5 22.5t-90.5 63.5t-56 96t-19 120q0 80 25.5 155.5t74.5 136t119.5 96t159.5 35.5q111 0 184 -55.5t95 -151.5l-112 -34q-14 64 -60 97.5t-114 33.5q-63 0 -111 -26t-81 -69.5t-49.5 -98t-16.5 -112.5q0 -92 47.5 -145.5t134.5 -53.5q73 0 127.5 37
t86.5 99l105 -45q-48 -95 -133.5 -148t-192.5 -53zM439 776q-27 0 -45 18t-18 45q0 30 20 50.5t50 20.5q27 0 45 -17.5t18 -45.5t-21 -49.5t-49 -21.5z" />
    <glyph glyph-name="uni1EC6.ss03" 
d="M36 0l98 697h463l-15 -103h-347l-25 -185h320l-15 -104h-320l-29 -202h347l-14 -103h-463zM247 -194q-27 0 -45 18.5t-18 45.5q0 29 20 49.5t49 20.5q28 0 46 -17.5t18 -43.5q0 -29 -21 -51t-49 -22zM216 747l179 170l131 -170h-87l-53 76l-77 -76h-93z" />
    <glyph glyph-name="Edieresis.ss03" 
d="M36 0l98 697h463l-15 -103h-347l-25 -185h320l-15 -104h-320l-29 -202h347l-14 -103h-463zM485 776q-27 0 -45 18.5t-18 45.5q0 29 21 49.5t49 20.5q27 0 45 -17.5t18 -44.5q0 -29 -21 -50.5t-49 -21.5zM282 776q-27 0 -45 18t-18 45q0 30 20 50.5t50 20.5q27 0 45 -17.5
t18 -45.5t-21 -49.5t-49 -21.5z" />
    <glyph glyph-name="Edotaccent.ss03" 
d="M36 0l98 697h463l-15 -103h-347l-25 -185h320l-15 -104h-320l-29 -202h347l-14 -103h-463zM383 776q-27 0 -45 18t-18 45q0 30 20 50.5t50 20.5q27 0 45 -17.5t18 -45.5t-21 -49.5t-49 -21.5z" />
    <glyph glyph-name="uni1EB8.ss03" 
d="M36 0l98 697h463l-15 -103h-347l-25 -185h320l-15 -104h-320l-29 -202h347l-14 -103h-463zM247 -194q-27 0 -45 18.5t-18 45.5q0 29 20 49.5t49 20.5q28 0 46 -17.5t18 -43.5q0 -29 -21 -51t-49 -22z" />
    <glyph glyph-name="Gdotaccent.ss03" horiz-adv-x="733" 
d="M334 -14q-86 0 -149 37t-98 104.5t-35 158.5q0 83 26 159.5t75.5 136.5t119.5 94.5t158 34.5q111 0 183.5 -55.5t94.5 -151.5l-111 -34q-14 64 -58.5 97.5t-112.5 33.5q-63 0 -111 -26t-81.5 -70.5t-50.5 -100t-17 -115.5q0 -91 47 -142t130 -51q38 0 76 10.5t71 35
t56.5 65.5t32.5 103l5 41l15 -80h-198l14 103h276l-53 -374h-101v121l19 -18q-24 -41 -59.5 -67t-77 -38t-86.5 -12zM452 776q-27 0 -45 18t-18 45q0 30 20 50.5t50 20.5q27 0 45 -17.5t18 -45.5t-21 -49.5t-49 -21.5z" />
    <glyph glyph-name="Idieresis.ss03" horiz-adv-x="258" 
d="M36 0l98 697h116l-98 -697h-116zM312 776q-27 0 -45 18.5t-18 45.5q0 29 21 49.5t49 20.5q27 0 45 -17.5t18 -44.5q0 -29 -21 -50.5t-49 -21.5zM109 776q-27 0 -45 18t-18 45q0 30 20 50.5t50 20.5q27 0 45 -17.5t18 -45.5t-21 -49.5t-49 -21.5z" />
    <glyph glyph-name="uni1ECA.ss03" horiz-adv-x="258" 
d="M36 0l98 697h116l-98 -697h-116zM74 -194q-27 0 -45 18.5t-18 45.5q0 29 20 49.5t49 20.5q28 0 46 -17.5t18 -43.5q0 -29 -21 -51t-49 -22z" />
    <glyph glyph-name="Ldot.ss03" horiz-adv-x="501" 
d="M36 0l98 697h116l-84 -594h302l-15 -103h-417zM436 304q-27 0 -45 18t-18 45q0 29 20.5 50t48.5 21t45.5 -18t17.5 -45q0 -29 -20.5 -50t-48.5 -21z" />
    <glyph glyph-name="uni1E44.ss03" horiz-adv-x="685" 
d="M36 0l98 697h119l259 -546h-28l77 546h116l-98 -697h-120l-257 547h27l-77 -547h-116zM421 776q-27 0 -45 18t-18 45q0 30 20 50.5t50 20.5q27 0 45 -17.5t18 -45.5t-21 -49.5t-49 -21.5z" />
    <glyph glyph-name="uni1ED8.ss03" horiz-adv-x="748" 
d="M341 -14q-89 0 -153.5 37t-100 105t-35.5 160q0 81 26 157t75.5 136t119.5 95t159 35q90 0 154.5 -37t100 -104.5t35.5 -160.5q0 -83 -26 -159t-75.5 -135.5t-120 -94t-159.5 -34.5zM348 96q62 0 109.5 25t81 68.5t50.5 98t17 114.5q0 92 -47 145.5t-134 53.5
q-62 0 -110 -25.5t-81 -69.5t-50 -99t-17 -113q0 -61 21.5 -105.5t62 -68.5t97.5 -24zM318 -194q-27 0 -45 18.5t-18 45.5q0 29 20 49.5t49 20.5q28 0 46 -17.5t18 -43.5q0 -29 -21 -51t-49 -22zM286 747l179 170l131 -170h-87l-53 76l-77 -76h-93z" />
    <glyph glyph-name="Odieresis.ss03" horiz-adv-x="748" 
d="M341 -14q-89 0 -153.5 37t-100 105t-35.5 160q0 81 26 157t75.5 136t119.5 95t159 35q90 0 154.5 -37t100 -104.5t35.5 -160.5q0 -83 -26 -159t-75.5 -135.5t-120 -94t-159.5 -34.5zM348 96q62 0 109.5 25t81 68.5t50.5 98t17 114.5q0 92 -47 145.5t-134 53.5
q-62 0 -110 -25.5t-81 -69.5t-50 -99t-17 -113q0 -61 21.5 -105.5t62 -68.5t97.5 -24zM555 776q-27 0 -45 18.5t-18 45.5q0 29 21 49.5t49 20.5q27 0 45 -17.5t18 -44.5q0 -29 -21 -50.5t-49 -21.5zM352 776q-27 0 -45 18t-18 45q0 30 20 50.5t50 20.5q27 0 45 -17.5
t18 -45.5t-21 -49.5t-49 -21.5z" />
    <glyph glyph-name="uni1ECC.ss03" horiz-adv-x="748" 
d="M341 -14q-89 0 -153.5 37t-100 105t-35.5 160q0 81 26 157t75.5 136t119.5 95t159 35q90 0 154.5 -37t100 -104.5t35.5 -160.5q0 -83 -26 -159t-75.5 -135.5t-120 -94t-159.5 -34.5zM348 96q62 0 109.5 25t81 68.5t50.5 98t17 114.5q0 92 -47 145.5t-134 53.5
q-62 0 -110 -25.5t-81 -69.5t-50 -99t-17 -113q0 -61 21.5 -105.5t62 -68.5t97.5 -24zM318 -194q-27 0 -45 18.5t-18 45.5q0 29 20 49.5t49 20.5q28 0 46 -17.5t18 -43.5q0 -29 -21 -51t-49 -22z" />
    <glyph glyph-name="uni1EE2.ss03" horiz-adv-x="748" 
d="M341 -14q-89 0 -153.5 37t-100 105t-35.5 160q0 81 26 157t75.5 136t119.5 95t159 35q90 0 154.5 -37t100 -104.5t35.5 -160.5q0 -83 -26 -159t-75.5 -135.5t-120 -94t-159.5 -34.5zM348 96q62 0 109.5 25t81 68.5t50.5 98t17 114.5q0 92 -47 145.5t-134 53.5
q-62 0 -110 -25.5t-81 -69.5t-50 -99t-17 -113q0 -61 21.5 -105.5t62 -68.5t97.5 -24zM644 494l7 69q43 0 66 24.5t29 72.5l5 37h76l-6 -45q-10 -70 -52.5 -114t-124.5 -44zM318 -194q-27 0 -45 18.5t-18 45.5q0 29 20 49.5t49 20.5q28 0 46 -17.5t18 -43.5q0 -29 -21 -51
t-49 -22z" />
    <glyph glyph-name="Udieresis.ss03" horiz-adv-x="657" 
d="M297 -14q-116 0 -176 53t-60 157q0 12 1 27.5t3 31.5l62 442h116l-61 -435q-2 -16 -3 -31t-1 -26q0 -57 27.5 -85t94.5 -28q58 0 94.5 20.5t57 59.5t28.5 96l60 429h115l-62 -443q-19 -135 -93.5 -201.5t-202.5 -66.5zM511 776q-27 0 -45 18.5t-18 45.5q0 29 21 49.5
t49 20.5q27 0 45 -17.5t18 -44.5q0 -29 -21 -50.5t-49 -21.5zM308 776q-27 0 -45 18t-18 45q0 30 20 50.5t50 20.5q27 0 45 -17.5t18 -45.5t-21 -49.5t-49 -21.5z" />
    <glyph glyph-name="uni1EE4.ss03" horiz-adv-x="657" 
d="M297 -14q-116 0 -176 53t-60 157q0 12 1 27.5t3 31.5l62 442h116l-61 -435q-2 -16 -3 -31t-1 -26q0 -57 27.5 -85t94.5 -28q58 0 94.5 20.5t57 59.5t28.5 96l60 429h115l-62 -443q-19 -135 -93.5 -201.5t-202.5 -66.5zM273 -194q-27 0 -45 18.5t-18 45.5q0 29 20 49.5
t49 20.5q28 0 46 -17.5t18 -43.5q0 -29 -21 -51t-49 -22z" />
    <glyph glyph-name="uni1EF0.ss03" horiz-adv-x="719" 
d="M297 -14q-116 0 -176 53t-60 157q0 12 1 27.5t3 31.5l62 442h116l-61 -435q-2 -16 -3 -31t-1 -26q0 -57 27.5 -85t94.5 -28q58 0 94.5 20.5t57 59.5t28.5 96l60 429h115l-62 -443q-19 -135 -93.5 -201.5t-202.5 -66.5zM593 494l7 69q43 0 66 24.5t29 72.5l5 37h76l-6 -45
q-10 -70 -52.5 -114t-124.5 -44zM273 -194q-27 0 -45 18.5t-18 45.5q0 29 20 49.5t49 20.5q28 0 46 -17.5t18 -43.5q0 -29 -21 -51t-49 -22z" />
    <glyph glyph-name="Wdieresis.ss03" horiz-adv-x="972" 
d="M190 0l-109 697h119l76 -520l210 480h114l73 -480l224 520h122l-305 -697h-114l-85 520h20l-232 -520h-113zM668 776q-27 0 -45 18.5t-18 45.5q0 29 21 49.5t49 20.5q27 0 45 -17.5t18 -44.5q0 -29 -21 -50.5t-49 -21.5zM465 776q-27 0 -45 18t-18 45q0 30 20 50.5
t50 20.5q27 0 45 -17.5t18 -45.5t-21 -49.5t-49 -21.5z" />
    <glyph glyph-name="Ydieresis.ss03" horiz-adv-x="617" 
d="M217 0l39 271l-185 426h129l124 -310l217 310h133l-303 -426l-38 -271h-116zM492 776q-27 0 -45 18.5t-18 45.5q0 29 21 49.5t49 20.5q27 0 45 -17.5t18 -44.5q0 -29 -21 -50.5t-49 -21.5zM289 776q-27 0 -45 18t-18 45q0 30 20 50.5t50 20.5q27 0 45 -17.5t18 -45.5
t-21 -49.5t-49 -21.5z" />
    <glyph glyph-name="uni1EF4.ss03" horiz-adv-x="617" 
d="M217 0l39 271l-185 426h129l124 -310l217 310h133l-303 -426l-38 -271h-116zM254 -194q-27 0 -45 18.5t-18 45.5q0 29 20 49.5t49 20.5q28 0 46 -17.5t18 -43.5q0 -29 -21 -51t-49 -22z" />
    <glyph glyph-name="Zdotaccent.ss03" horiz-adv-x="598" 
d="M-6 0l12 96l483 534l13 -36h-401l15 103h502l-13 -96l-471 -520l-13 22h426l-15 -103h-538zM382 776q-27 0 -45 18t-18 45q0 30 20 50.5t50 20.5q27 0 45 -17.5t18 -45.5t-21 -49.5t-49 -21.5z" />
    <glyph glyph-name="T_h" horiz-adv-x="1042" 
d="M199 0l84 594h-222l14 103h560l-14 -103h-221l-84 -594h-117zM513 0l98 697h111l-44 -313l-21 2q19 43 47.5 68.5t62.5 36.5t69 11q75 0 116.5 -39t41.5 -110q0 -9 -0.5 -18.5t-1.5 -18.5l-45 -316h-111l40 281q2 11 2.5 20.5t0.5 20.5q0 44 -19.5 64t-57.5 20
q-59 0 -95.5 -41.5t-49.5 -128.5l-33 -236h-111z" />
    <glyph glyph-name="i.loclTRK" horiz-adv-x="239" 
d="M29 0l69 493h111l-69 -493h-111zM104 574l17 123h122l-17 -123h-122z" />
    <glyph glyph-name="uni006A0301" horiz-adv-x="239" 
d="M1 -213q-22 0 -43.5 4.5t-42.5 10.5l8 94q13 -3 24 -4.5t16 -1.5q24 0 39 12t19 43l77 548h111l-82 -584q-9 -65 -43 -93.5t-83 -28.5zM117 555l116 142h119l-154 -142h-81z" />
    <glyph glyph-name="uni013C.loclMAH" horiz-adv-x="277" 
d="M144 -9q-45 0 -73 24.5t-28 74.5q0 7 0.5 14t1.5 14l80 579h111l-77 -552q-1 -7 -1 -12v-10q0 -17 8 -24t22 -7q10 0 20 2.5t21 4.5l-14 -96q-20 -7 -38.5 -9.5t-32.5 -2.5zM-26 -225l71 172h117l-122 -172h-66z" />
    <glyph glyph-name="uni0146.loclMAH" horiz-adv-x="559" 
d="M30 0l70 493h107l-12 -109l-21 2q19 43 47.5 68.5t62.5 36.5t69 11q75 0 116.5 -39t41.5 -110v-18.5t-2 -18.5l-45 -316h-111l40 281q2 11 2.5 20.5t0.5 20.5q0 44 -19.5 64t-57.5 20q-59 0 -95.5 -41.5t-49.5 -128.5l-33 -236h-111zM110 -225l71 172h117l-122 -172h-66z
" />
    <glyph glyph-name="g.ss01" horiz-adv-x="547" 
d="M217 -213q-46 0 -85.5 8t-69 24.5t-46 43t-16.5 63.5q0 14 2.5 28t7.5 28l105 61l48 -41l-60 -54v-10q0 -25 13.5 -40.5t39 -22t62.5 -6.5q73 0 109 21.5t36 59.5q0 13 -5.5 21.5t-18 13.5t-34.5 5h-161q-12 0 -31.5 7t-38.5 21t-31 36t-10 52q3 43 28.5 77t77.5 67
l46 -68q-23 -12 -38.5 -27.5t-15.5 -36.5q0 -15 12.5 -23t34 -10.5t47.5 -2.5h103q75 0 109 -30t34 -84q0 -61 -31 -101t-87.5 -60t-135.5 -20zM268 143q-85 0 -135 44t-50 114q0 60 31.5 105t82 70.5t106.5 25.5q51 0 92 -20t65 -57t24 -87q0 -58 -28.5 -102t-77 -68.5
t-110.5 -24.5zM267 231q33 0 57 15t37.5 40.5t13.5 54.5q0 30 -19 49.5t-54 19.5q-31 0 -55.5 -15.5t-38.5 -40t-14 -53.5q0 -30 18.5 -50t54.5 -20zM462 393l-74 52l121 90l49 -69z" />
    <glyph glyph-name="gbreve.ss01" horiz-adv-x="547" 
d="M217 -213q-46 0 -85.5 8t-69 24.5t-46 43t-16.5 63.5q0 14 2.5 28t7.5 28l105 61l48 -41l-60 -54v-10q0 -25 13.5 -40.5t39 -22t62.5 -6.5q73 0 109 21.5t36 59.5q0 13 -5.5 21.5t-18 13.5t-34.5 5h-161q-12 0 -31.5 7t-38.5 21t-31 36t-10 52q3 43 28.5 77t77.5 67
l46 -68q-23 -12 -38.5 -27.5t-15.5 -36.5q0 -15 12.5 -23t34 -10.5t47.5 -2.5h103q75 0 109 -30t34 -84q0 -61 -31 -101t-87.5 -60t-135.5 -20zM268 143q-85 0 -135 44t-50 114q0 60 31.5 105t82 70.5t106.5 25.5q51 0 92 -20t65 -57t24 -87q0 -58 -28.5 -102t-77 -68.5
t-110.5 -24.5zM267 231q33 0 57 15t37.5 40.5t13.5 54.5q0 30 -19 49.5t-54 19.5q-31 0 -55.5 -15.5t-38.5 -40t-14 -53.5q0 -30 18.5 -50t54.5 -20zM462 393l-74 52l121 90l49 -69zM323 551q-62 0 -104 28t-46 88v10.5t1 19.5h66q-1 -6 -1 -12t1 -11q3 -29 24 -44.5
t60 -15.5q44 0 65.5 22t25.5 61h68q-8 -73 -50.5 -109.5t-109.5 -36.5z" />
    <glyph glyph-name="gcaron.ss01" horiz-adv-x="547" 
d="M217 -213q-46 0 -85.5 8t-69 24.5t-46 43t-16.5 63.5q0 14 2.5 28t7.5 28l105 61l48 -41l-60 -54v-10q0 -25 13.5 -40.5t39 -22t62.5 -6.5q73 0 109 21.5t36 59.5q0 13 -5.5 21.5t-18 13.5t-34.5 5h-161q-12 0 -31.5 7t-38.5 21t-31 36t-10 52q3 43 28.5 77t77.5 67
l46 -68q-23 -12 -38.5 -27.5t-15.5 -36.5q0 -15 12.5 -23t34 -10.5t47.5 -2.5h103q75 0 109 -30t34 -84q0 -61 -31 -101t-87.5 -60t-135.5 -20zM268 143q-85 0 -135 44t-50 114q0 60 31.5 105t82 70.5t106.5 25.5q51 0 92 -20t65 -57t24 -87q0 -58 -28.5 -102t-77 -68.5
t-110.5 -24.5zM267 231q33 0 57 15t37.5 40.5t13.5 54.5q0 30 -19 49.5t-54 19.5q-31 0 -55.5 -15.5t-38.5 -40t-14 -53.5q0 -30 18.5 -50t54.5 -20zM462 393l-74 52l121 90l49 -69zM322 535l-121 162h77l56 -76l82 76h87z" />
    <glyph glyph-name="gcircumflex.ss01" horiz-adv-x="547" 
d="M217 -213q-46 0 -85.5 8t-69 24.5t-46 43t-16.5 63.5q0 14 2.5 28t7.5 28l105 61l48 -41l-60 -54v-10q0 -25 13.5 -40.5t39 -22t62.5 -6.5q73 0 109 21.5t36 59.5q0 13 -5.5 21.5t-18 13.5t-34.5 5h-161q-12 0 -31.5 7t-38.5 21t-31 36t-10 52q3 43 28.5 77t77.5 67
l46 -68q-23 -12 -38.5 -27.5t-15.5 -36.5q0 -15 12.5 -23t34 -10.5t47.5 -2.5h103q75 0 109 -30t34 -84q0 -61 -31 -101t-87.5 -60t-135.5 -20zM268 143q-85 0 -135 44t-50 114q0 60 31.5 105t82 70.5t106.5 25.5q51 0 92 -20t65 -57t24 -87q0 -58 -28.5 -102t-77 -68.5
t-110.5 -24.5zM267 231q33 0 57 15t37.5 40.5t13.5 54.5q0 30 -19 49.5t-54 19.5q-31 0 -55.5 -15.5t-38.5 -40t-14 -53.5q0 -30 18.5 -50t54.5 -20zM462 393l-74 52l121 90l49 -69zM171 543l173 170l129 -170h-84l-54 76l-74 -76h-90z" />
    <glyph glyph-name="uni0123.ss01" horiz-adv-x="547" 
d="M217 -213q-46 0 -85.5 8t-69 24.5t-46 43t-16.5 63.5q0 14 2.5 28t7.5 28l105 61l48 -41l-60 -54v-10q0 -25 13.5 -40.5t39 -22t62.5 -6.5q73 0 109 21.5t36 59.5q0 13 -5.5 21.5t-18 13.5t-34.5 5h-161q-12 0 -31.5 7t-38.5 21t-31 36t-10 52q3 43 28.5 77t77.5 67
l46 -68q-23 -12 -38.5 -27.5t-15.5 -36.5q0 -15 12.5 -23t34 -10.5t47.5 -2.5h103q75 0 109 -30t34 -84q0 -61 -31 -101t-87.5 -60t-135.5 -20zM268 143q-85 0 -135 44t-50 114q0 60 31.5 105t82 70.5t106.5 25.5q51 0 92 -20t65 -57t24 -87q0 -58 -28.5 -102t-77 -68.5
t-110.5 -24.5zM267 231q33 0 57 15t37.5 40.5t13.5 54.5q0 30 -19 49.5t-54 19.5q-31 0 -55.5 -15.5t-38.5 -40t-14 -53.5q0 -30 18.5 -50t54.5 -20zM462 393l-74 52l121 90l49 -69zM227 552l139 154h68l-89 -154h-118z" />
    <glyph glyph-name="gdotaccent.ss01" horiz-adv-x="547" 
d="M217 -213q-46 0 -85.5 8t-69 24.5t-46 43t-16.5 63.5q0 14 2.5 28t7.5 28l105 61l48 -41l-60 -54v-10q0 -25 13.5 -40.5t39 -22t62.5 -6.5q73 0 109 21.5t36 59.5q0 13 -5.5 21.5t-18 13.5t-34.5 5h-161q-12 0 -31.5 7t-38.5 21t-31 36t-10 52q3 43 28.5 77t77.5 67
l46 -68q-23 -12 -38.5 -27.5t-15.5 -36.5q0 -15 12.5 -23t34 -10.5t47.5 -2.5h103q75 0 109 -30t34 -84q0 -61 -31 -101t-87.5 -60t-135.5 -20zM268 143q-85 0 -135 44t-50 114q0 60 31.5 105t82 70.5t106.5 25.5q51 0 92 -20t65 -57t24 -87q0 -58 -28.5 -102t-77 -68.5
t-110.5 -24.5zM267 231q33 0 57 15t37.5 40.5t13.5 54.5q0 30 -19 49.5t-54 19.5q-31 0 -55.5 -15.5t-38.5 -40t-14 -53.5q0 -30 18.5 -50t54.5 -20zM462 393l-74 52l121 90l49 -69zM265 574l17 123h122l-17 -123h-122z" />
    <glyph glyph-name="uni1E21.ss01" horiz-adv-x="547" 
d="M217 -213q-46 0 -85.5 8t-69 24.5t-46 43t-16.5 63.5q0 14 2.5 28t7.5 28l105 61l48 -41l-60 -54v-10q0 -25 13.5 -40.5t39 -22t62.5 -6.5q73 0 109 21.5t36 59.5q0 13 -5.5 21.5t-18 13.5t-34.5 5h-161q-12 0 -31.5 7t-38.5 21t-31 36t-10 52q3 43 28.5 77t77.5 67
l46 -68q-23 -12 -38.5 -27.5t-15.5 -36.5q0 -15 12.5 -23t34 -10.5t47.5 -2.5h103q75 0 109 -30t34 -84q0 -61 -31 -101t-87.5 -60t-135.5 -20zM268 143q-85 0 -135 44t-50 114q0 60 31.5 105t82 70.5t106.5 25.5q51 0 92 -20t65 -57t24 -87q0 -58 -28.5 -102t-77 -68.5
t-110.5 -24.5zM267 231q33 0 57 15t37.5 40.5t13.5 54.5q0 30 -19 49.5t-54 19.5q-31 0 -55.5 -15.5t-38.5 -40t-14 -53.5q0 -30 18.5 -50t54.5 -20zM462 393l-74 52l121 90l49 -69zM195 572l14 65h268l-15 -65h-267z" />
    </font>
</defs>
</svg>
