<?xml version="1.0" standalone="no"?>
<!DOCTYPE svg PUBLIC "-//W3C//DTD SVG 1.1//EN" "http://www.w3.org/Graphics/SVG/1.1/DTD/svg11.dtd" >
<svg xmlns="http://www.w3.org/2000/svg" xmlns:xlink="http://www.w3.org/1999/xlink" version="1.1">
<metadata>
Created by FontForge 20170731 at Wed Nov 16 23:15:30 2022
 By Aleksey,,,
Copyright 2021 The Hanken Grotesk Project Authors (https://github.com/marcologous/hanken-grotesk)
</metadata>
<defs>
<font id="HankenGrotesk-Bold" horiz-adv-x="0" >
  <font-face 
    font-family="Hanken Grotesk"
    font-weight="700"
    font-stretch="normal"
    units-per-em="1000"
    panose-1="0 0 0 0 0 0 0 0 0 0"
    ascent="800"
    descent="-200"
    x-height="493"
    cap-height="697"
    bbox="-175 -259 1310 997"
    underline-thickness="40"
    underline-position="-181"
    unicode-range="U+0020-FB02"
  />
<missing-glyph horiz-adv-x="506" 
d="M50 0v472h406v-472h-406zM92 43h321v386h-321v-386z" />
    <glyph glyph-name="fi" unicode="fi" horiz-adv-x="555" 
d="M94 0v396h-84v97h84v35q0 57 29 97t77.5 61t103.5 21q64 0 109.5 -13t84.5 -38l-58 -88q-27 19 -59 29t-70 10q-49 0 -71.5 -24t-22.5 -66v-24h200v-97h-200v-396h-123zM372 0v493h123v-493h-123z" />
    <glyph glyph-name="fl" unicode="fl" horiz-adv-x="596" 
d="M491 -10q-48 0 -81.5 31t-33.5 98v474q-18 8 -34 11t-32 3q-49 0 -71 -23t-22 -58v-33h89v-97h-89v-396h-125v396h-82v97h82v35q0 56 29.5 96t78 61.5t103.5 21.5q63 0 108 -13.5t90 -40.5v-513q0 -36 34 -36q8 0 17 2t20 5v-106q-22 -8 -43.5 -11.5t-37.5 -3.5z" />
    <glyph glyph-name="f_f" unicode="ff" horiz-adv-x="633" 
d="M94 0v396h-84v97h84v34q0 57 29 97.5t77 61.5t103 21q33 0 65.5 -7.5t61.5 -24.5q22 18 50.5 25t59.5 7q29 0 51.5 -5.5t44.5 -15.5l-40 -95q-11 6 -21.5 9t-20.5 3q-27 0 -37.5 -16t-10.5 -43v-51h115v-97h-115v-396h-125v396h-164v-396h-123zM217 493h165v65q0 9 1 16
t4 13q-17 10 -36 15t-42 5q-48 0 -70 -23t-22 -59v-32z" />
    <glyph glyph-name="f_f_i" unicode="ffi" horiz-adv-x="849" 
d="M94 0v396h-84v97h84v34q0 57 29 97.5t77 61.5t103 21q37 0 75.5 -10t71.5 -33q29 21 65.5 32t75.5 11q63 0 108 -12.5t86 -38.5l-58 -88q-26 18 -58.5 28.5t-71.5 10.5q-48 0 -70 -23t-22 -58v-33h287v-493h-124v396h-163v-396h-124v396h-164v-396h-123zM217 493h164v35
q0 15 3 34.5t7 23.5q-16 9 -36.5 15t-45.5 6q-48 0 -70 -23t-22 -59v-32z" />
    <glyph glyph-name="f_f_l" unicode="ffl" horiz-adv-x="887" 
d="M784 -10q-49 0 -82.5 31t-33.5 98v475q-18 7 -35 10t-36 3q-48 0 -70 -23t-22 -58v-33h92v-97h-92v-396h-124v396h-164v-396h-123v396h-84v97h84v34q0 57 29 97.5t77 61.5t103 21q38 0 76.5 -10t69.5 -32q29 21 66 31.5t76 10.5q65 0 110.5 -13.5t90.5 -40.5v-505
q0 -24 8.5 -34t25.5 -10q15 0 37 7v-106q-20 -8 -41.5 -11.5t-37.5 -3.5zM217 493h164v35q0 16 3 29.5t6 28.5q-15 9 -35.5 15t-45.5 6q-48 0 -70 -24t-22 -66v-24z" />
    <glyph glyph-name="hyphen_greater.liga" unicode="&#x2d;&#x3e;" horiz-adv-x="1150" 
d="M572 -6l-41 83l339 190l5 -18h-851v93h851l-5 -18l-339 190l41 83l541 -301z" />
    <glyph glyph-name="less_hyphen.liga" unicode="&#x3c;&#x2d;" horiz-adv-x="1150" 
d="M578 -6l-541 302l541 301l42 -83l-340 -190l-5 18h851v-93h-851l5 18l340 -190z" />
    <glyph glyph-name=".notdef" horiz-adv-x="506" 
d="M50 0v472h406v-472h-406zM92 43h321v386h-321v-386z" />
    <glyph glyph-name=".null" 
 />
    <glyph glyph-name="nonmarkingreturn" horiz-adv-x="333" 
 />
    <glyph glyph-name="space" unicode=" " horiz-adv-x="260" 
 />
    <glyph glyph-name="exclam" unicode="!" horiz-adv-x="252" 
d="M79 212l-14 485h123l-14 -485h-95zM59 0v132h134v-132h-134z" />
    <glyph glyph-name="quotedbl" unicode="&#x22;" horiz-adv-x="366" 
d="M44 410v287h104v-287h-104zM217 410v287h105v-287h-105z" />
    <glyph glyph-name="numbersign" unicode="#" horiz-adv-x="694" 
d="M115 0l44 204h-114v88h133l26 124h-119v92h138l44 189h98l-44 -193h119l42 193h99l-45 -193h114v-88h-133l-28 -124h121v-88h-139l-44 -204h-97l44 204h-119l-43 -204h-97zM276 292h119l24 124h-118z" />
    <glyph glyph-name="dollar" unicode="$" horiz-adv-x="560" 
d="M239 -116v149h91v-149h-91zM239 660v148h91v-148h-91zM291 -13q-111 0 -182.5 58t-86.5 154l126 31q11 -64 50.5 -96t97.5 -32q31 0 55.5 10.5t39 31t14.5 48.5q0 26 -15 45t-45.5 35t-76.5 33q-66 26 -110.5 55.5t-66.5 68.5t-22 92q0 56 27.5 99t77 68t115.5 25
q70 0 124.5 -32.5t87.5 -96.5l-103 -63q-21 38 -49.5 57.5t-63.5 19.5q-25 0 -44.5 -9.5t-31 -26t-11.5 -38.5q0 -23 13.5 -41t44 -34.5t79.5 -34.5q65 -24 108.5 -53t66.5 -67.5t23 -93.5q0 -62 -30.5 -110.5t-84.5 -75.5t-127 -27z" />
    <glyph glyph-name="percent" unicode="%" horiz-adv-x="735" 
d="M100 0l441 697h88l-441 -697h-88zM544 -10q-42 0 -76.5 20t-55 57t-20.5 86t20 85t54 56t76 20q43 0 77.5 -21.5t54.5 -58t20 -82.5q0 -44 -20 -81t-53.5 -59t-76.5 -22zM544 74q19 0 34 10t23.5 28t8.5 40q0 25 -9 42.5t-24.5 26.5t-34.5 9q-18 0 -33 -8.5t-24 -25.5
t-9 -43t9.5 -44t25 -26.5t33.5 -8.5zM195 383q-43 0 -77.5 20t-55.5 56.5t-21 85.5t20.5 85.5t55 56.5t75.5 20q43 0 77.5 -21.5t54.5 -58.5t20 -83q0 -44 -20 -80.5t-53 -58.5t-76 -22zM195 467q18 0 32.5 10t23 28t8.5 39q0 25 -9 42.5t-24 27t-34 9.5q-18 0 -33.5 -8.5
t-24.5 -26t-9 -43.5t9.5 -43.5t25 -26t35.5 -8.5z" />
    <glyph glyph-name="ampersand" unicode="&#x26;" horiz-adv-x="700" 
d="M278 -12q-66 0 -119 20t-84 60t-31 98q0 46 19 81t50 62.5t67.5 49.5t70.5 42q40 23 71 45t48.5 46.5t17.5 52.5q0 25 -16 44t-51 19q-31 0 -53.5 -19t-22.5 -53q0 -22 11 -43t25.5 -38.5t25.5 -31.5l-98 -50q-16 17 -35.5 41.5t-33.5 55.5t-14 69q0 52 27 89t71.5 57
t95.5 20q83 0 133.5 -42t50.5 -116q0 -57 -30 -99t-74.5 -74.5t-89.5 -60.5q-37 -23 -68.5 -44t-50 -44t-18.5 -53q0 -36 28 -57t77 -21q99 0 163 73.5t94 206.5l111 -18q-23 -123 -75.5 -205t-127.5 -122.5t-165 -40.5zM574 -38l-306 352l99 60l295 -333z" />
    <glyph glyph-name="quotesingle" unicode="'" horiz-adv-x="193" 
d="M44 410v287h105v-287h-105z" />
    <glyph glyph-name="parenleft" unicode="(" horiz-adv-x="277" 
d="M156 -204q-31 41 -53.5 93.5t-38 112t-23 121.5t-7.5 123q0 84 13.5 166.5t41 155.5t67.5 129h112q-46 -59 -76.5 -133.5t-45 -155.5t-14.5 -161q0 -61 8.5 -122t25.5 -120t42.5 -112.5t59.5 -96.5h-112z" />
    <glyph glyph-name="parenright" unicode=")" horiz-adv-x="277" 
d="M122 -204h-113q34 43 59.5 96.5t42.5 112.5t25.5 120t8.5 122q0 80 -14.5 161t-45 155.5t-76.5 133.5h112q41 -56 68 -129t40.5 -155.5t13.5 -166.5q0 -61 -7.5 -123t-22.5 -121.5t-38 -112t-53 -93.5z" />
    <glyph glyph-name="asterisk" unicode="*" horiz-adv-x="399" 
d="M134 382l-59 45l89 96l-129 26l23 74l120 -56l-16 130h76l-16 -130l120 56l22 -74l-128 -26l89 -96l-60 -45l-65 116z" />
    <glyph glyph-name="plus" unicode="+" horiz-adv-x="560" 
d="M231 4v194h-195v98h195v195h99v-195h194v-98h-194v-194h-99z" />
    <glyph glyph-name="comma" unicode="," horiz-adv-x="240" 
d="M25 -149l69 305h139l-126 -305h-82z" />
    <glyph glyph-name="hyphen" unicode="-" horiz-adv-x="327" 
d="M40 249v93h248v-93h-248z" />
    <glyph glyph-name="period" unicode="." horiz-adv-x="240" 
d="M54 0v132h132v-132h-132z" />
    <glyph glyph-name="slash" unicode="/" horiz-adv-x="420" 
d="M-58 -212l361 909h94l-362 -909h-93z" />
    <glyph glyph-name="zero" unicode="0" horiz-adv-x="560" 
d="M281 -9q-65 0 -109 23t-71 61.5t-40.5 85.5t-18.5 97t-5 94q0 43 4.5 91.5t18 95.5t40.5 85t70.5 61t109.5 23q65 0 108.5 -22.5t70.5 -60.5t40.5 -85t18.5 -95.5t5 -92.5q0 -46 -5 -96t-19 -97t-41 -85t-70 -60.5t-107 -22.5zM281 110q47 0 72 32.5t34 86.5t9 119
q0 67 -9.5 121.5t-34.5 86.5t-72 32q-37 0 -60 -19t-34.5 -52t-16 -76.5t-4.5 -92.5q0 -47 4.5 -90t16.5 -76t35 -52.5t60 -19.5z" />
    <glyph glyph-name="one" unicode="1" horiz-adv-x="560" 
d="M271 0v551l36 -61h-214v98h108q34 0 52 15.5t18 53.5v40h125v-697h-125z" />
    <glyph glyph-name="two" unicode="2" horiz-adv-x="560" 
d="M41 0v94q32 24 75 55t87.5 68t82.5 79t61.5 88t23.5 94q0 45 -24 75.5t-75 30.5q-42 0 -66.5 -21t-35.5 -53.5t-13 -67.5l-122 9q0 47 15.5 92t46 81.5t75.5 58.5t104 22q64 0 113.5 -28t77.5 -78t28 -117q0 -52 -17.5 -101t-49.5 -94t-76 -85t-98 -74.5t-114 -62.5
l33 51h349v-116h-481z" />
    <glyph glyph-name="three" unicode="3" horiz-adv-x="560" 
d="M274 -9q-78 0 -136 28.5t-90.5 80.5t-32.5 121l123 7q0 -54 38.5 -86t102.5 -32q41 0 70 12.5t45 36t16 55.5q0 28 -11.5 47.5t-34 31.5t-54 17.5t-71.5 5.5v97q29 0 53 5t41.5 15.5t26.5 28t9 41.5q0 27 -11.5 45.5t-33 28.5t-51.5 10q-48 0 -76 -26t-29 -70l-123 8
q0 60 30 107t82.5 73.5t120.5 26.5q64 0 112.5 -24.5t76 -67t27.5 -98.5q0 -25 -6.5 -45.5t-18 -38t-27.5 -30.5t-35 -23q27 -9 50.5 -24.5t40.5 -36t26.5 -47t9.5 -58.5q0 -66 -33 -116t-91 -78t-136 -28z" />
    <glyph glyph-name="four" unicode="4" horiz-adv-x="560" 
d="M316 0v164h-308v96l324 437h109v-417h111v-116h-111v-164h-125zM105 237l-2 43h213v294l17 -17z" />
    <glyph glyph-name="five" unicode="5" horiz-adv-x="560" 
d="M277 -10q-66 0 -120.5 28t-89 76t-44.5 108l122 21q4 -28 19 -54t43 -43t68 -17q44 0 71.5 20t41 51t13.5 64q0 32 -12.5 59t-40 44t-70.5 17q-42 0 -71 -18t-46 -46l-117 30l68 367h390v-116h-344l66 53l-44 -234l-40 11q39 43 79.5 56.5t75.5 13.5q71 0 124.5 -33
t83.5 -87t30 -117q0 -50 -19 -95.5t-53 -81t-81 -56.5t-103 -21z" />
    <glyph glyph-name="six" unicode="6" horiz-adv-x="560" 
d="M407 697l-173 -263l-15 19q17 7 35 11.5t36 4.5q67 0 121 -31.5t85 -84.5t31 -120q0 -71 -34.5 -126t-92 -86t-127.5 -31t-128.5 31t-93.5 86t-35 125q0 35 10.5 68.5t29.5 62.5l207 334h144zM273 359q-36 0 -65 -15.5t-46.5 -43.5t-17.5 -67q0 -37 17 -65t46.5 -43.5
t65.5 -15.5q35 0 64 15.5t46.5 43.5t17.5 66t-17 66t-46 43.5t-65 15.5z" />
    <glyph glyph-name="seven" unicode="7" horiz-adv-x="560" 
d="M87 0l320 629l35 -48h-414v116h503v-91l-306 -606h-138z" />
    <glyph glyph-name="eight" unicode="8" horiz-adv-x="560" 
d="M280 -10q-67 0 -126.5 24t-96 72.5t-36.5 120.5q0 55 24.5 100t73.5 72q-30 21 -47.5 53t-17.5 76q0 63 32 107t84 68t110 24q61 0 112 -24.5t82 -69t31 -106.5q0 -44 -17 -75.5t-47 -52.5q49 -27 73.5 -72t24.5 -100q0 -72 -36.5 -120.5t-95.5 -72.5t-127 -24zM280 108
q39 0 69.5 12.5t48 37.5t17.5 61t-17.5 60.5t-48 37t-69.5 12.5t-69.5 -12.5t-48 -37t-17.5 -60.5t17.5 -61t48.5 -37.5t69 -12.5zM281 414q45 0 73 23t28 61q0 41 -27 65.5t-75 24.5q-30 0 -53 -10.5t-35.5 -30t-12.5 -47.5q0 -40 28 -63t74 -23z" />
    <glyph glyph-name="nine" unicode="9" horiz-adv-x="560" 
d="M145 0l173 263l15 -19q-17 -7 -35 -11.5t-36 -4.5q-67 0 -121 31.5t-85.5 84.5t-31.5 120q0 71 35 126t93 86t127 31q71 0 129 -31t92.5 -86t34.5 -125q0 -34 -10 -67.5t-29 -63.5l-208 -334h-143zM279 338q36 0 65 15.5t46.5 43.5t17.5 67q0 38 -17.5 65.5t-46.5 43
t-65 15.5q-35 0 -64.5 -15.5t-46.5 -43t-17 -66.5q0 -37 17 -65.5t46 -44t65 -15.5z" />
    <glyph glyph-name="colon" unicode=":" horiz-adv-x="240" 
d="M53 338v133h134v-133h-134zM53 0v132h134v-132h-134z" />
    <glyph glyph-name="semicolon" unicode=";" horiz-adv-x="240" 
d="M6 -149l70 280h139l-126 -280h-83zM69 338v133h134v-133h-134z" />
    <glyph glyph-name="less" unicode="&#x3c;" horiz-adv-x="560" 
d="M530 -15l-502 197v130l502 197v-105l-462 -176v39l462 -177v-105z" />
    <glyph glyph-name="equal" unicode="=" horiz-adv-x="560" 
d="M73 312v98h414v-98h-414zM73 84v98h414v-98h-414z" />
    <glyph glyph-name="greater" unicode="&#x3e;" horiz-adv-x="560" 
d="M30 -15v105l462 177v-39l-462 176v105l502 -197v-130z" />
    <glyph glyph-name="question" unicode="?" horiz-adv-x="515" 
d="M201 210v39q0 43 12 72.5t30.5 50.5t40 37t40 31.5t30.5 34.5t12 46q0 41 -28.5 61.5t-78.5 20.5q-57 0 -87 -29.5t-29 -86.5h-110q0 71 29 120t81 74.5t119 25.5q57 0 105.5 -19.5t77.5 -61t29 -107.5q0 -44 -12 -73.5t-31.5 -50t-40.5 -36.5t-40 -31.5t-31 -36.5
t-12 -51v-30h-106zM189 0v132h133v-132h-133z" />
    <glyph glyph-name="at" unicode="@" horiz-adv-x="873" 
d="M438 -112q-82 0 -152 29t-123 80.5t-83 120.5t-30 150q0 86 29 158t81.5 125t123 82.5t154.5 29.5t154.5 -28t123 -78.5t81 -119t28.5 -149.5q0 -65 -18 -111.5t-53 -71.5t-88 -25q-39 0 -70 14.5t-48.5 38t-17.5 51.5v28l27 -38q-19 -48 -61 -72.5t-94 -24.5t-93 24.5
t-64 67t-23 99.5q0 58 23 101.5t64 67.5t93 24q44 0 78 -19.5t55 -60.5l-17 11l16 62h93v-217q0 -33 11 -47.5t38 -14.5q31 0 45 27.5t14 84.5q0 63 -21.5 115t-61 90.5t-94 59t-119.5 20.5t-119.5 -22t-94.5 -62.5t-62 -96t-22 -123.5q0 -61 23 -114t63.5 -92.5t94.5 -61.5
t117 -22q87 0 165 49l42 -79q-45 -30 -99 -45t-109 -15zM428 174q26 0 45.5 12t30 33t10.5 49q0 30 -11 51.5t-30 33t-45 11.5t-46 -12t-31 -33.5t-11 -50.5q0 -28 11 -49t31 -33t46 -12z" />
    <glyph glyph-name="A" unicode="A" horiz-adv-x="674" 
d="M8 0l280 697h97l280 -697h-141l-186 506l-189 -506h-141zM192 136l40 116h210l42 -116h-292z" />
    <glyph glyph-name="B" unicode="B" horiz-adv-x="611" 
d="M67 0v697h245q104 0 163 -46.5t59 -129.5q0 -48 -20 -85.5t-56 -58.5q58 -22 86 -65.5t28 -107.5q0 -96 -60.5 -150t-167.5 -54h-277zM196 119h138q109 0 109 91q0 44 -26.5 68t-75.5 24h-145v-183zM196 417h122q40 0 63.5 22.5t23.5 61.5q0 37 -24 57t-69 20h-116v-161z
" />
    <glyph glyph-name="C" unicode="C" horiz-adv-x="709" 
d="M373 -16q-99 0 -174.5 46t-117.5 128t-42 191t42 190.5t117.5 127.5t174.5 46q111 0 191.5 -55.5t115.5 -152.5l-122 -45q-22 61 -69.5 95t-115.5 34q-62 0 -108.5 -29t-71 -82.5t-24.5 -128.5t24.5 -129t71 -83t108.5 -29q68 0 115.5 34t69.5 95l122 -44
q-35 -97 -115.5 -153t-191.5 -56z" />
    <glyph glyph-name="D" unicode="D" horiz-adv-x="674" 
d="M67 0v697h203q174 0 269 -92t95 -262q0 -166 -94 -254.5t-271 -88.5h-202zM196 119h60q79 0 134 20t84.5 70t29.5 139q0 86 -28.5 136.5t-81 72t-126.5 21.5h-72v-459z" />
    <glyph glyph-name="E" unicode="E" horiz-adv-x="578" 
d="M67 0v697h464v-116h-335v-166h313v-115h-313v-184h335v-116h-464z" />
    <glyph glyph-name="F" unicode="F" horiz-adv-x="558" 
d="M67 0v697h466v-116h-337v-166h293v-115h-293v-300h-129z" />
    <glyph glyph-name="G" unicode="G" horiz-adv-x="735" 
d="M365 -16q-96 0 -169 46t-115 128t-42 191t42 190.5t117.5 127.5t174.5 46q111 0 191.5 -55.5t115.5 -152.5l-122 -45q-22 61 -69.5 95t-115.5 34q-62 0 -108.5 -29t-71 -82.5t-24.5 -128.5t24.5 -129t71 -83t108.5 -29q32 0 66 9t62.5 31.5t46 62.5t17.5 102v40l29 -90
h-200v116h286v-379h-114l-18 113l22 -17q-18 -37 -49 -62t-70.5 -37.5t-85.5 -12.5z" />
    <glyph glyph-name="H" unicode="H" horiz-adv-x="693" 
d="M67 0v697h129v-279h301v279h129v-697h-129v299h-301v-299h-129z" />
    <glyph glyph-name="I" unicode="I" horiz-adv-x="263" 
d="M67 0v697h129v-697h-129z" />
    <glyph glyph-name="J" unicode="J" horiz-adv-x="556" 
d="M258 -16q-101 0 -165.5 62t-71.5 173l128 13q4 -68 31.5 -98t77.5 -30q59 0 82.5 38.5t23.5 106.5v332h-261v116h391v-455q0 -80 -28.5 -137.5t-81.5 -89t-126 -31.5z" />
    <glyph glyph-name="K" unicode="K" horiz-adv-x="663" 
d="M170 210v164l306 323h174zM67 0v697h129v-697h-129zM499 0l-220 351l96 90l277 -441h-153z" />
    <glyph glyph-name="L" unicode="L" horiz-adv-x="504" 
d="M67 0v697h129v-581h297v-116h-426z" />
    <glyph glyph-name="M" unicode="M" horiz-adv-x="856" 
d="M67 0v697h189l184 -506h-23l183 506h189v-697h-129v546l12 -2l-181 -483h-125l-181 483l11 2v-546h-129z" />
    <glyph glyph-name="N" unicode="N" horiz-adv-x="689" 
d="M67 0v697h133l325 -528h-32v528h129v-697h-134l-324 529h32v-529h-129z" />
    <glyph glyph-name="O" unicode="O" horiz-adv-x="747" 
d="M373 -16q-99 0 -174.5 45.5t-117.5 127.5t-42 191q0 110 42 192t117.5 127.5t174.5 45.5q100 0 175.5 -45.5t117.5 -127.5t42 -192q0 -109 -42.5 -191t-118 -127.5t-174.5 -45.5zM372 108q64 0 109.5 29.5t70.5 83.5t25 127q0 74 -25 128t-70.5 83.5t-109.5 29.5
q-61 0 -107.5 -29t-71 -83t-24.5 -129q0 -74 24.5 -128t71 -83t107.5 -29z" />
    <glyph glyph-name="P" unicode="P" horiz-adv-x="562" 
d="M67 0v697h230q118 0 178 -50.5t60 -151.5t-61 -154t-177 -53h-102v-288h-128zM195 403h89q58 0 90 20.5t32 70.5q0 48 -30.5 67.5t-91.5 19.5h-89v-178z" />
    <glyph glyph-name="Q" unicode="Q" horiz-adv-x="785" 
d="M373 -16q-99 0 -174 45.5t-117.5 127.5t-42.5 191q0 110 42 191.5t117.5 127.5t174.5 46q100 0 175.5 -45.5t117.5 -127.5t42 -192q0 -109 -42.5 -191t-118 -127.5t-174.5 -45.5zM668 -56l-285 276l76 80l287 -280zM372 108q64 0 109.5 29.5t70.5 83.5t25 127
q0 74 -25 128t-70.5 83.5t-109.5 29.5q-61 0 -107.5 -29t-71 -83t-24.5 -129q0 -74 24.5 -128t71 -83t107.5 -29z" />
    <glyph glyph-name="R" unicode="R" horiz-adv-x="612" 
d="M67 0v697h230q85 0 137 -24.5t76.5 -70t24.5 -107.5q0 -96 -54.5 -148.5t-155.5 -58.5q-23 -1 -47 -1h-41h-41v-287h-129zM446 0l-175 302l132 16l192 -318h-149zM196 403h88q33 0 60.5 7.5t44.5 27t17 55.5q0 37 -17 56t-44.5 25.5t-60.5 6.5h-88v-178z" />
    <glyph glyph-name="S" unicode="S" horiz-adv-x="575" 
d="M297 -13q-111 0 -182.5 58t-86.5 154l126 31q11 -64 50.5 -96t97.5 -32q31 0 55.5 10.5t39 31t14.5 48.5q0 26 -15 45t-45.5 35t-76.5 33q-66 26 -110.5 55.5t-66.5 68.5t-22 92q0 56 27.5 99t77 68t115.5 25q70 0 124.5 -32.5t87.5 -96.5l-103 -63q-21 38 -49.5 57.5
t-63.5 19.5q-25 0 -44.5 -9.5t-31 -26t-11.5 -38.5q0 -23 13.5 -41t44 -34.5t79.5 -34.5q65 -24 108.5 -53t66.5 -67.5t23 -93.5q0 -62 -30.5 -110.5t-84.5 -75.5t-127 -27z" />
    <glyph glyph-name="T" unicode="T" horiz-adv-x="584" 
d="M227 0v581h-216v116h562v-116h-215v-581h-131z" />
    <glyph glyph-name="U" unicode="U" horiz-adv-x="657" 
d="M328 -16q-132 0 -199.5 67t-67.5 201v445h129v-430q0 -54 11.5 -90.5t42 -55t84.5 -18.5t84.5 18.5t42.5 55t12 89.5v431h129v-440q0 -136 -68 -204.5t-200 -68.5z" />
    <glyph glyph-name="V" unicode="V" horiz-adv-x="672" 
d="M288 0l-279 697h142l207 -538h-41l203 538h143l-278 -697h-97z" />
    <glyph glyph-name="W" unicode="W" horiz-adv-x="979" 
d="M223 0l-210 697h136l144 -499l133 459h128l132 -459l145 499h135l-210 -697h-125l-152 502h21l-151 -502h-126z" />
    <glyph glyph-name="X" unicode="X" horiz-adv-x="670" 
d="M14 0l232 348l-232 349h155l166 -259l166 259h154l-231 -349l233 -348h-155l-168 254l-166 -254h-154z" />
    <glyph glyph-name="Y" unicode="Y" horiz-adv-x="625" 
d="M249 0v273l-245 424h148l158 -296l164 296h147l-243 -424v-273h-129z" />
    <glyph glyph-name="Z" unicode="Z" horiz-adv-x="605" 
d="M28 0v106l405 516l19 -41h-401v116h512v-106l-393 -501l-18 26h425v-116h-549z" />
    <glyph glyph-name="bracketleft" unicode="[" horiz-adv-x="299" 
d="M67 -248v989h215v-83h-114v-823h114v-83h-215z" />
    <glyph glyph-name="backslash" unicode="\" horiz-adv-x="467" 
d="M525 -212h-93l-363 909h95z" />
    <glyph glyph-name="bracketright" unicode="]" horiz-adv-x="299" 
d="M232 -248h-215v83h114v823h-114v83h215v-989z" />
    <glyph glyph-name="asciicircum" unicode="^" horiz-adv-x="627" 
d="M30 206l205 491h156l206 -491h-131l-171 432h36l-169 -432h-132z" />
    <glyph glyph-name="underscore" unicode="_" horiz-adv-x="493" 
d="M36 -94v94h421v-94h-421z" />
    <glyph glyph-name="grave" unicode="`" horiz-adv-x="312" 
d="M182 555l-144 142h132l104 -142h-92z" />
    <glyph glyph-name="a" unicode="a" horiz-adv-x="546" 
d="M377 0l-10 74v237q0 44 -27.5 65.5t-74.5 21.5q-39 0 -79.5 -15.5t-71.5 -43.5l-63 85q52 42 106.5 60.5t117.5 18.5q102 0 159 -51t57 -141v-311h-114zM228 -10q-54 0 -96.5 20t-67 57t-24.5 85q0 43 17.5 73.5t46.5 46.5q25 15 55.5 21t65.5 6h153v-92h-135
q-16 0 -31.5 -2.5t-26.5 -11.5q-10 -7 -15 -17.5t-5 -23.5q0 -28 22 -45t59 -17q33 0 60.5 14.5t44 40t16.5 58.5l33 -66q-13 -52 -39.5 -84.5t-60.5 -47.5t-72 -15z" />
    <glyph glyph-name="b" unicode="b" horiz-adv-x="574" 
d="M326 -10q-37 0 -71.5 14.5t-60.5 49t-39 92.5l30 -14v-132h-124v697h124v-337l-26 -8q9 51 33.5 84.5t59.5 50t74 16.5q58 0 106 -30.5t76 -87.5t28 -138q0 -73 -25 -131.5t-72.5 -92t-112.5 -33.5zM292 104q37 0 63.5 17.5t41.5 49.5t15 76t-15 75.5t-41.5 49
t-63.5 17.5q-36 0 -62.5 -17.5t-41 -49.5t-14.5 -75t14.5 -75t41 -50t62.5 -18z" />
    <glyph glyph-name="c" unicode="c" horiz-adv-x="522" 
d="M278 -10q-60 0 -104.5 21.5t-75 57.5t-45.5 82t-15 96q0 49 15 95t45.5 82t75 57.5t104.5 21.5q75 0 130 -36t82 -109l-108 -43q-12 35 -36.5 57.5t-67.5 22.5q-40 0 -66 -21.5t-38 -55.5t-12 -71t12 -71.5t38 -56t66 -21.5q43 0 67.5 22.5t36.5 58.5l108 -43
q-27 -74 -82 -110t-130 -36z" />
    <glyph glyph-name="d" unicode="d" horiz-adv-x="574" 
d="M248 -10q-65 0 -112 33.5t-72.5 92t-25.5 131.5q0 81 28.5 138t76.5 87.5t105 30.5q40 0 74.5 -16.5t59.5 -49.5t33 -84l-25 7v337h123v-697h-123v132l29 14q-12 -58 -38.5 -92.5t-61 -49t-71.5 -14.5zM282 104q37 0 63.5 18t41 50t14.5 75t-14.5 75t-41 49.5t-63.5 17.5
q-36 0 -63 -17.5t-41.5 -49t-14.5 -75.5t14.5 -76t41.5 -49.5t63 -17.5z" />
    <glyph glyph-name="e" unicode="e" horiz-adv-x="541" 
d="M281 -10q-64 0 -110 21t-75.5 56.5t-43.5 81t-14 95.5q0 48 14 94t42 83t72.5 59.5t106.5 22.5q58 0 101 -19.5t71 -54t42.5 -80.5t14.5 -98q0 -7 -0.5 -19.5t-2.5 -26.5h-337q5 -53 39.5 -80t86.5 -27q38 0 74 13.5t64 38.5l62 -84q-35 -27 -66 -44t-64.5 -24.5
t-76.5 -7.5zM379 267q2 8 3.5 16t1.5 15q0 21 -8 39.5t-22 32.5t-33.5 21.5t-44.5 7.5q-37 0 -62 -15t-37.5 -38.5t-15.5 -48.5h260z" />
    <glyph glyph-name="f" unicode="f" horiz-adv-x="348" 
d="M99 0v396h-89v97h90v52q0 64 21 99t56.5 49t76.5 14q31 0 53.5 -5.5t43.5 -15.5l-40 -95q-10 5 -21 8.5t-22 3.5q-24 0 -34 -16t-10 -43v-51h105v-97h-105v-396h-125z" />
    <glyph glyph-name="g" unicode="g" horiz-adv-x="522" 
d="M269 -214q-110 0 -173.5 39t-63.5 108q0 6 1 14.5t3 16.5l138 86l31 -35l-63 -77q-1 -3 -1 -5v-4q0 -28 35 -43t93 -15q49 0 75 12.5t26 36.5q0 13 -7 21t-23 13t-41.5 9t-61.5 9q-46 5 -90 18.5t-73 40t-29 70.5q0 39 27 71.5t71 53.5l60 -48q-27 -4 -40.5 -18
t-13.5 -33q0 -16 13 -25.5t37 -14.5t57 -9q51 -7 94.5 -15t76 -22.5t50 -39.5t17.5 -65q0 -73 -58.5 -111.5t-166.5 -38.5zM259 138q-62 0 -108.5 23.5t-72.5 64t-26 93.5q0 55 27.5 96.5t74 64.5t101.5 23q54 0 100.5 -23t75 -65.5t28.5 -99.5q0 -54 -25.5 -93.5
t-70.5 -61.5t-104 -22zM256 236q40 0 59.5 24.5t19.5 59.5q0 36 -21 58.5t-58 22.5t-58.5 -23t-21.5 -58t20 -59.5t60 -24.5zM425 389l-89 58l114 91l63 -77z" />
    <glyph glyph-name="h" unicode="h" horiz-adv-x="564" 
d="M61 0v697h125v-316l-21 -3q13 45 38.5 72.5t59 40t67.5 12.5q84 0 131.5 -47.5t47.5 -133.5v-322h-125v276q0 62 -22 90.5t-69 28.5q-53 0 -80 -38t-27 -121v-236h-125z" />
    <glyph glyph-name="i" unicode="i" horiz-adv-x="245" 
d="M60 0v493h124v-493h-124zM56 569v128h133v-128h-133z" />
    <glyph glyph-name="j" unicode="j" horiz-adv-x="245" 
d="M63 -214q-20 0 -43 4t-45 11v108q13 -4 24 -5.5t19 -1.5q20 0 31 9.5t11 37.5v544h124v-578q0 -66 -33 -97.5t-88 -31.5zM57 569v128h133v-128h-133z" />
    <glyph glyph-name="k" unicode="k" horiz-adv-x="560" 
d="M395 0l-143 225l-77 -86v155l189 199h158l-179 -184l200 -309h-148zM61 0v697h125v-697h-125z" />
    <glyph glyph-name="l" unicode="l" horiz-adv-x="278" 
d="M176 -10q-51 0 -84 31t-33 98v578h123v-554q0 -21 10 -29.5t26 -8.5q8 0 17 1.5t19 4.5v-106q-21 -8 -41.5 -11.5t-36.5 -3.5z" />
    <glyph glyph-name="m" unicode="m" horiz-adv-x="843" 
d="M61 0v493h125v-128l-27 -21q7 47 24 78t40.5 48.5t49 25t50.5 7.5q39 0 74 -14.5t61 -49.5t36 -96l-74 -27q15 70 43.5 111t66 58.5t79.5 17.5q63 0 102 -28t57.5 -71.5t18.5 -92.5v-311h-124v281q0 37 -9.5 62.5t-27.5 38.5t-47 13q-30 0 -51 -16t-31.5 -48t-10.5 -82
v-249h-124v283q0 56 -20.5 84t-59.5 28q-31 0 -52.5 -16t-32.5 -48t-11 -82v-249h-125z" />
    <glyph glyph-name="n" unicode="n" horiz-adv-x="564" 
d="M61 0v493h125v-112l-20 -2q13 45 38 72t58 39.5t68 12.5q84 0 131.5 -47.5t47.5 -133.5v-322h-125v276q0 62 -22 90.5t-69 28.5q-36 0 -59.5 -16.5t-35.5 -51.5t-12 -91v-236h-125z" />
    <glyph glyph-name="o" unicode="o" horiz-adv-x="572" 
d="M287 -10q-72 0 -128 33t-88.5 91.5t-32.5 132.5q0 75 32 132.5t88.5 90.5t128.5 33q71 0 127 -33t88 -90.5t32 -132.5q0 -74 -32 -132t-88 -91.5t-127 -33.5zM287 99q38 0 65.5 18t42 51t14.5 79q0 47 -14.5 79.5t-42 50t-65.5 17.5q-39 0 -67 -17.5t-43 -50t-15 -79.5
q0 -46 15 -79t43 -51t67 -18z" />
    <glyph glyph-name="p" unicode="p" horiz-adv-x="574" 
d="M61 -204v697h124v-132l-30 -10q13 59 39.5 92t60.5 46.5t71 13.5q65 0 112.5 -33.5t72.5 -91.5t25 -132q0 -80 -28 -137.5t-76 -88t-106 -30.5q-39 0 -74 16t-59.5 48.5t-33.5 82.5l26 -4v-337h-124zM292 104q37 0 63.5 17.5t41.5 49.5t15 75q0 44 -15 76t-41.5 49.5
t-63.5 17.5q-36 0 -62.5 -18t-41 -49.5t-14.5 -75.5q0 -43 14.5 -75t41 -49.5t62.5 -17.5z" />
    <glyph glyph-name="q" unicode="q" horiz-adv-x="574" 
d="M390 -204v337l25 4q-8 -50 -33 -82.5t-59.5 -48.5t-74.5 -16q-57 0 -105 30.5t-76.5 88t-28.5 137.5q0 74 25.5 132t72.5 91.5t112 33.5q37 0 71.5 -13.5t61 -46.5t38.5 -92l-29 10v132h123v-697h-123zM282 104q37 0 63.5 17.5t41 49.5t14.5 75q0 44 -14.5 75.5t-41 49.5
t-63.5 18q-36 0 -63 -17.5t-41.5 -49.5t-14.5 -76q0 -43 14.5 -75t41.5 -49.5t63 -17.5z" />
    <glyph glyph-name="r" unicode="r" horiz-adv-x="426" 
d="M61 0v493h125v-134l-19 -2q3 43 26 76t56.5 51.5t68.5 18.5q25 0 47.5 -6.5t46.5 -21.5l-60 -112q-11 6 -28 11t-34 5q-20 0 -38.5 -7t-33 -22t-23.5 -40q-4 -14 -6.5 -35.5t-2.5 -62.5v-212h-125z" />
    <glyph glyph-name="s" unicode="s" horiz-adv-x="472" 
d="M232 -10q-55 0 -96 16t-69.5 40t-45.5 46l85 74q17 -28 48.5 -51.5t78.5 -23.5q37 0 57.5 14.5t20.5 36.5q0 18 -13 29.5t-35 19t-49 14.5q-28 8 -58 18t-55 26.5t-40.5 42.5t-15.5 65q0 65 51 105.5t135 40.5q59 0 107 -23.5t76 -67.5l-77 -61q-18 29 -47.5 43.5
t-62.5 14.5q-29 0 -47.5 -11t-18.5 -30q0 -13 8.5 -22t28 -15.5t51.5 -14.5q30 -7 62 -17t60 -27t45 -45t17 -71q0 -49 -25 -86.5t-70 -58.5t-106 -21z" />
    <glyph glyph-name="t" unicode="t" horiz-adv-x="367" 
d="M249 -10q-40 0 -74 15t-54.5 49t-20.5 91v463l126 67v-496q0 -43 11.5 -65t45.5 -22q10 0 22.5 2t27.5 6v-95q-21 -8 -42 -11.5t-42 -3.5zM10 396v97h323v-97h-323z" />
    <glyph glyph-name="u" unicode="u" horiz-adv-x="564" 
d="M235 -10q-60 0 -100.5 24t-60 68t-19.5 103v308h124v-277q0 -34 8 -60.5t28.5 -42t56.5 -15.5q44 0 66.5 25t31 69.5t8.5 104.5v196h124v-493h-124v107l17 -10q-22 -57 -65 -82t-95 -25z" />
    <glyph glyph-name="v" unicode="v" horiz-adv-x="535" 
d="M217 0l-202 493h136l116 -331l118 331h134l-200 -493h-102z" />
    <glyph glyph-name="w" unicode="w" horiz-adv-x="755" 
d="M171 0l-152 493h132l83 -303l89 303h107l89 -301l84 301h133l-153 -493h-111l-95 317l-93 -317h-113z" />
    <glyph glyph-name="x" unicode="x" horiz-adv-x="542" 
d="M20 0l168 249l-168 244h147l104 -163l104 163h147l-170 -244l170 -249h-147l-104 166l-105 -166h-146z" />
    <glyph glyph-name="y" unicode="y" horiz-adv-x="535" 
d="M101 -204l100 242l-186 455h136l116 -331l118 331h134l-283 -697h-135z" />
    <glyph glyph-name="z" unicode="z" horiz-adv-x="471" 
d="M35 0v83l273 340l10 -33h-272v103h386v-89l-270 -341l-10 40h280v-103h-397z" />
    <glyph glyph-name="braceleft" unicode="{" horiz-adv-x="283" 
d="M187 -248q-53 0 -82 37.5t-29 102.5v230q0 32 -10 49t-24.5 25t-30.5 9v83q16 2 30.5 9.5t24.5 25t10 48.5v230q0 66 29 103t82 37h80v-79h-38q-28 0 -37.5 -19t-9.5 -44v-230q0 -51 -19 -77.5t-51 -42.5v-5q32 -16 51 -42t19 -77v-231q0 -25 9.5 -44t37.5 -19h38v-79
h-80z" />
    <glyph glyph-name="bar" unicode="|" horiz-adv-x="271" 
d="M89 -254v1000h93v-1000h-93z" />
    <glyph glyph-name="braceright" unicode="}" horiz-adv-x="283" 
d="M96 -248h-80v79h38q28 0 37 19t9 44v231q0 51 19.5 77t51.5 42v5q-32 16 -51.5 42.5t-19.5 77.5v230q0 25 -9 44t-37 19h-38v79h80q53 0 81.5 -37t28.5 -103v-230q0 -31 10.5 -48.5t25.5 -25t30 -9.5v-83q-15 -1 -30 -9t-25.5 -25t-10.5 -49v-230q0 -65 -28.5 -102.5
t-81.5 -37.5z" />
    <glyph glyph-name="asciitilde" unicode="~" horiz-adv-x="560" 
d="M368 147q-37 0 -59.5 11.5t-37 28t-25 33t-23 27.5t-31.5 11t-29.5 -22.5t-10.5 -58.5h-99q0 75 37.5 122.5t101.5 47.5q37 0 60.5 -11.5t38 -28t25.5 -33.5t22.5 -28.5t29.5 -11.5t30 27t12 66h99q0 -79 -38.5 -129.5t-102.5 -50.5z" />
    <glyph glyph-name="uni00A0" unicode="&#xa0;" horiz-adv-x="260" 
 />
    <glyph glyph-name="exclamdown" unicode="&#xa1;" horiz-adv-x="252" 
d="M173 281l14 -485h-123l14 485h95zM193 493v-132h-134v132h134z" />
    <glyph glyph-name="cent" unicode="&#xa2;" horiz-adv-x="560" 
d="M243 -113v149h92v-149h-92zM243 455v146h92v-146h-92zM297 -10q-59 0 -104 21.5t-75.5 57.5t-45.5 82t-15 96q0 49 15 95t45.5 82t75.5 57.5t104 21.5q75 0 130.5 -36t81.5 -109l-108 -43q-12 35 -36.5 57.5t-67.5 22.5q-40 0 -66 -21.5t-37.5 -55.5t-11.5 -71
t11.5 -71.5t37.5 -56t66 -21.5q43 0 67.5 22.5t36.5 58.5l108 -43q-26 -74 -81.5 -110t-130.5 -36z" />
    <glyph glyph-name="sterling" unicode="&#xa3;" horiz-adv-x="560" 
d="M44 0v105q30 13 57.5 34t45 47t17.5 53q0 11 -4 28t-7 28h-107v105h85q-5 22 -12 51.5t-7 57.5q0 57 24.5 103.5t71 73.5t111.5 27q81 0 136 -41.5t70 -111.5l-96 -36q-8 43 -39 64t-68 21q-32 0 -56 -13t-37 -35.5t-13 -53.5q0 -26 7 -57t16 -50h194v-105h-177
q3 -9 7 -25t4 -32q0 -33 -9.5 -59.5t-27 -46t-43.5 -31t-61 -15.5l25 18h375v-104h-482z" />
    <glyph glyph-name="currency" unicode="&#xa4;" horiz-adv-x="611" 
d="M120 58l-65 69l57 56q-20 29 -29.5 62.5t-9.5 65.5q0 34 10 67t29 61l-57 55l67 70l57 -59q59 41 130 41q33 0 65.5 -10t60.5 -30l57 57l67 -67l-57 -56q20 -28 30 -62t10 -67q0 -32 -10 -66t-30 -63l57 -55l-66 -69l-58 58q-28 -20 -61 -30t-67 -10t-67.5 10.5
t-62.5 29.5zM307 170q40 0 71.5 20t50.5 52t19 70t-19.5 69.5t-51.5 51t-71 19.5q-38 0 -70 -19.5t-51 -51.5t-19 -72t19.5 -71.5t51.5 -49.5t70 -18z" />
    <glyph glyph-name="yen" unicode="&#xa5;" horiz-adv-x="560" 
d="M218 0v104h-157v100h157v63h-157v101h102l-161 329h139l139 -304l143 304h138l-159 -329h99v-101h-153v-63h153v-100h-153v-104h-130z" />
    <glyph glyph-name="brokenbar" unicode="&#xa6;" horiz-adv-x="271" 
d="M89 330v416h93v-416h-93zM89 -254v409h93v-409h-93z" />
    <glyph glyph-name="section" unicode="&#xa7;" horiz-adv-x="606" 
d="M296 -216q-64 0 -121 29t-92 94l108 66q18 -35 47.5 -54.5t61.5 -19.5q25 0 44 9.5t30 25t11 37.5q0 29 -20 48t-51.5 32.5t-65.5 26.5q-33 13 -67.5 29t-64 39.5t-48 57.5t-18.5 84q0 45 16 81.5t44 63.5q-8 16 -13.5 36.5t-5.5 44.5q0 62 30.5 105t80.5 65.5t108 22.5
q68 0 124 -30.5t89 -91.5l-108 -66q-16 34 -45.5 53.5t-63.5 19.5q-24 0 -43.5 -9t-30.5 -25t-11 -38q0 -27 20 -46t51 -33t65 -27t68.5 -29t64.5 -39.5t48 -57.5t18 -84q0 -43 -15.5 -80.5t-43.5 -64.5q8 -17 13 -37.5t5 -44.5q0 -61 -30 -105t-80 -66t-109 -22zM410 143
q17 20 17 50t-18.5 50.5t-49.5 35.5t-68 30q-18 7 -32.5 12.5t-29 11.5t-33.5 16q-8 -10 -12.5 -23.5t-4.5 -25.5q0 -23 11.5 -40.5t30.5 -30.5t43.5 -24.5t51.5 -22.5q15 -5 41 -14t53 -25z" />
    <glyph glyph-name="dieresis" unicode="&#xa8;" horiz-adv-x="405" 
d="M235 569v128h132v-128h-132zM38 569v128h133v-128h-133z" />
    <glyph glyph-name="copyright" unicode="&#xa9;" horiz-adv-x="804" 
d="M403 -5q-73 0 -137.5 27.5t-113 76t-76 113t-27.5 137.5t27.5 137t76 112.5t113 76t137.5 27.5t137 -27.5t112.5 -76t76 -112.5t27.5 -137t-27.5 -137.5t-76 -113t-112.5 -76t-137 -27.5zM404 138q-66 0 -109 30.5t-64.5 78t-21.5 100.5q0 54 21 102t64.5 78.5
t108.5 30.5q62 0 107.5 -30t68.5 -90l-96 -38q-8 27 -28.5 46t-51.5 19q-32 0 -52.5 -17.5t-29.5 -44.5t-9 -56t9 -55.5t29.5 -43t52.5 -16.5q30 0 51 18t28 45l92 -35q-19 -57 -63.5 -89.5t-106.5 -32.5zM403 54q61 0 114.5 23t93.5 63.5t63 94t23 114.5t-23 114.5
t-63.5 94t-93.5 63.5t-114 23t-115 -23t-94.5 -63.5t-63.5 -94t-23 -114.5t23 -114.5t63.5 -94t94.5 -63.5t115 -23z" />
    <glyph glyph-name="ordfeminine" unicode="&#xaa;" horiz-adv-x="473" 
d="M199 349q-54 0 -90 30t-36 81q0 55 39.5 80t94.5 25h100q0 6 -0.5 13t-1.5 12q-6 25 -23.5 38.5t-48.5 13.5q-36 0 -57.5 -16.5t-35.5 -36.5l-56 38q31 43 66 61.5t80 18.5q70 0 108.5 -38.5t38.5 -101.5v-210h-64l-2 43q-46 -51 -112 -51zM215 415q27 0 47 10t33 31
q5 11 8 22t4 23h-95q-30 0 -45.5 -12t-15.5 -31q0 -18 16 -30.5t48 -12.5z" />
    <glyph glyph-name="guillemotleft" unicode="&#xab;" horiz-adv-x="541" 
d="M515 43l-254 209l254 209v-132l-108 -77l108 -76v-133zM256 43l-254 209l254 209v-132l-108 -77l108 -76v-133z" />
    <glyph glyph-name="logicalnot" unicode="&#xac;" horiz-adv-x="560" 
d="M388 22v176h-360v98h458v-274h-98z" />
    <glyph glyph-name="uni00AD" unicode="&#xad;" horiz-adv-x="327" 
d="M40 249v93h248v-93h-248z" />
    <glyph glyph-name="registered" unicode="&#xae;" horiz-adv-x="610" 
d="M305 189q-71 0 -130 32t-94 90.5t-35 136.5t35 136t94 90.5t130 32.5q72 0 130.5 -32.5t93.5 -90.5t35 -136t-35 -136.5t-93.5 -90.5t-130.5 -32zM305 245q57 0 102.5 25t72.5 71t27 107q0 62 -27 107.5t-72.5 70.5t-102.5 25q-56 0 -102 -25t-73 -70.5t-27 -107.5
q0 -61 27 -107t73 -71t102 -25zM222 305v287h96q52 0 75 -22.5t23 -60.5q0 -31 -14.5 -50.5t-40.5 -28.5l64 -125h-59l-57 119h-33v-119h-54zM277 472h35q20 0 35 7t15 30q0 22 -15 28.5t-35 6.5h-35v-72z" />
    <glyph glyph-name="macron" unicode="&#xaf;" horiz-adv-x="352" 
d="M38 563v73h275v-73h-275z" />
    <glyph glyph-name="degree" unicode="&#xb0;" horiz-adv-x="422" 
d="M210 418q-39 0 -71.5 19.5t-52.5 52.5t-20 73t19.5 72.5t52.5 52t72 19.5q40 0 73 -19.5t53 -52.5t20 -72q0 -40 -20 -73t-53 -52.5t-73 -19.5zM210 502q18 0 32 8t22 22t8 31t-8 30.5t-22 21.5t-32 8q-16 0 -30 -8t-22 -21.5t-8 -30.5t8 -31t22 -22t30 -8z" />
    <glyph glyph-name="plusminus" unicode="&#xb1;" horiz-adv-x="560" 
d="M231 129v156h-198v98h198v154h99v-154h197v-98h-197v-156h-99zM33 -46v98h494v-98h-494z" />
    <glyph glyph-name="uni00B2" unicode="&#xb2;" horiz-adv-x="407" 
d="M48 488v54q29 17 67 42.5t73.5 56.5t59 66.5t23.5 74.5q0 27 -15.5 46t-49.5 19q-27 0 -43.5 -13.5t-24 -34.5t-8.5 -46l-65 6q0 38 16.5 72t48 55.5t76.5 21.5q57 0 94 -33.5t37 -94.5q0 -37 -17.5 -72t-45.5 -66.5t-61.5 -56t-65.5 -41.5l-17 4h228v-60h-310z" />
    <glyph glyph-name="uni00B3" unicode="&#xb3;" horiz-adv-x="400" 
d="M197 481q-41 0 -75.5 15t-55 45t-20.5 74l63 5q0 -38 25.5 -58t63.5 -20q34 0 61 17.5t27 54.5q0 30 -17.5 44.5t-42 18.5t-47.5 4v45q31 0 50 6.5t26.5 18.5t7.5 29q0 34 -19.5 49t-45.5 15q-30 0 -49.5 -17t-20.5 -46l-63 4q0 57 39 89t92 32q35 0 64.5 -13.5t48 -38.5
t18.5 -60q0 -18 -6 -34t-19 -28t-32 -22q26 -6 43.5 -21.5t26.5 -36t9 -45.5q0 -41 -21 -69t-55.5 -42.5t-75.5 -14.5z" />
    <glyph glyph-name="acute" unicode="&#xb4;" horiz-adv-x="321" 
d="M38 555l112 142h133l-154 -142h-91z" />
    <glyph glyph-name="uni00B5" unicode="&#xb5;" horiz-adv-x="564" 
d="M55 -162v655h124v-281q0 -30 7.5 -56t28 -42t58.5 -16q47 0 69 27t29 73.5t7 103.5v191h124v-493h-124v60q-25 -35 -61.5 -52.5t-80.5 -17.5q-18 0 -32.5 5.5t-24.5 15.5v-173h-124z" />
    <glyph glyph-name="paragraph" unicode="&#xb6;" horiz-adv-x="615" 
d="M269 -121v428q-58 0 -109 23t-83 67t-32 105q0 62 32 105.5t83 66.5t109 23h69v-818h-69zM447 -121v818h71v-818h-71z" />
    <glyph glyph-name="periodcentered" unicode="&#xb7;" horiz-adv-x="308" 
d="M89 283v132h124v-132h-124z" />
    <glyph glyph-name="cedilla" unicode="&#xb8;" horiz-adv-x="287" 
d="M135 -259q-31 0 -58 18t-39 46l69 30q3 -9 12 -16t20 -7q16 0 26.5 11t10.5 27q0 24 -22.5 39t-59.5 14q-2 1 -13.5 1h-19.5l60 95h74l-38 -47q5 -2 12 -3t17 -4q30 -11 46.5 -34t16.5 -56q0 -31 -15 -57t-40.5 -41.5t-58.5 -15.5z" />
    <glyph glyph-name="uni00B9" unicode="&#xb9;" horiz-adv-x="260" 
d="M125 488v330l20 -32h-117v51h58q43 0 43 38v27h62v-414h-66z" />
    <glyph glyph-name="ordmasculine" unicode="&#xba;" horiz-adv-x="497" 
d="M248 351q-52 0 -91.5 24.5t-62 65t-22.5 88.5q0 49 22.5 89t62.5 64.5t91 24.5t91 -24t62 -64.5t22 -89.5t-22 -89.5t-61.5 -64.5t-91.5 -24zM248 420q34 0 54.5 14.5t30.5 39.5t10 55q0 31 -10 56t-30.5 39.5t-54.5 14.5q-33 0 -54 -14.5t-31 -39.5t-10 -56
q0 -30 9.5 -55t30.5 -39.5t55 -14.5z" />
    <glyph glyph-name="guillemotright" unicode="&#xbb;" horiz-adv-x="459" 
d="M-56 43v133l107 76l-107 77v132l253 -209zM203 43v133l107 76l-107 77v132l253 -209z" />
    <glyph glyph-name="onequarter" unicode="&#xbc;" horiz-adv-x="764" 
d="M120 279v328l24 -41h-129v67h61q22 0 33 9t11 34v21h84v-418h-84zM117 0l423 697h88l-423 -697h-88zM598 0v99h-182v66l185 253h75v-251h67v-68h-67v-99h-78zM470 147l-7 20h137v175l9 -3z" />
    <glyph glyph-name="onehalf" unicode="&#xbd;" horiz-adv-x="804" 
d="M120 279v328l24 -41h-129v67h61q22 0 33 9t11 34v21h84v-418h-84zM117 0l423 697h88l-423 -697h-88zM484 0v62q23 16 55.5 40t64 53t52.5 62.5t21 67.5q0 23 -12 40t-40 17q-24 0 -37.5 -12.5t-19 -30.5t-7.5 -37l-81 6q0 38 17 73t49.5 58.5t80.5 23.5q58 0 95.5 -37.5
t37.5 -97.5q0 -39 -15 -74.5t-43.5 -67t-67 -57.5t-84.5 -46l22 34h204v-77h-292z" />
    <glyph glyph-name="threequarters" unicode="&#xbe;" horiz-adv-x="842" 
d="M183 273q-71 0 -114.5 39t-43.5 101l83 5q0 -30 21.5 -48t56.5 -18t54 15.5t19 41.5q0 31 -24.5 43t-71.5 12v66q22 0 38 5t24.5 15.5t8.5 27.5q0 21 -13.5 33.5t-38.5 12.5q-26 0 -40.5 -14.5t-15.5 -38.5l-82 6q0 54 40 90t102 36q58 0 95 -32t37 -84q0 -28 -13 -48.5
t-33 -31.5q21 -9 36.5 -22.5t24 -32.5t8.5 -43q0 -60 -43.5 -98t-114.5 -38zM195 0l423 697h88l-423 -697h-88zM676 0v99h-182v66l185 253h75v-251h67v-68h-67v-99h-78zM548 147l-7 20h137v175l9 -3z" />
    <glyph glyph-name="questiondown" unicode="&#xbf;" horiz-adv-x="414" 
d="M288 283v-39q0 -43 -11.5 -72.5t-30.5 -50.5t-40 -37t-39.5 -31.5t-30.5 -34.5t-12 -46q0 -41 28 -61.5t78 -20.5q58 0 88 30t29 86h110q0 -71 -29.5 -120t-80.5 -74.5t-119 -25.5q-57 0 -105.5 19.5t-77.5 61t-29 107.5q0 44 12 73.5t31 50t40 36.5t40.5 31.5t31.5 36.5
t12 51v30h105zM300 493v-132h-133v132h133z" />
    <glyph glyph-name="Agrave" unicode="&#xc0;" horiz-adv-x="674" 
d="M8 0l280 697h97l280 -697h-141l-186 506l-189 -506h-141zM192 136l40 116h210l42 -116h-292zM291 759l-144 142h132l104 -142h-92z" />
    <glyph glyph-name="Aacute" unicode="&#xc1;" horiz-adv-x="674" 
d="M8 0l280 697h97l280 -697h-141l-186 506l-189 -506h-141zM192 136l40 116h210l42 -116h-292zM292 759l112 142h133l-154 -142h-91z" />
    <glyph glyph-name="Acircumflex" unicode="&#xc2;" horiz-adv-x="674" 
d="M8 0l280 697h97l280 -697h-141l-186 506l-189 -506h-141zM192 136l40 116h210l42 -116h-292zM181 745l157 175l156 -175h-99l-57 69l-57 -69h-100z" />
    <glyph glyph-name="Atilde" unicode="&#xc3;" horiz-adv-x="674" 
d="M8 0l280 697h97l280 -697h-141l-186 506l-189 -506h-141zM192 136l40 116h210l42 -116h-292zM399 742q-23 0 -39.5 6.5t-29 16t-22 19t-18.5 16t-19 6.5q-14 0 -22 -15.5t-8 -45.5h-72q0 61 29 95t78 34q21 0 36.5 -7t27 -16.5t21.5 -19t19.5 -16t20.5 -6.5t19.5 16
t8.5 46h75q0 -62 -28.5 -95.5t-76.5 -33.5z" />
    <glyph glyph-name="Adieresis" unicode="&#xc4;" horiz-adv-x="674" 
d="M8 0l280 697h97l280 -697h-141l-186 506l-189 -506h-141zM192 136l40 116h210l42 -116h-292zM370 773v128h132v-128h-132zM173 773v128h133v-128h-133z" />
    <glyph glyph-name="Aring" unicode="&#xc5;" horiz-adv-x="674" 
d="M8 0l280 697h97l280 -697h-141l-186 506l-189 -506h-141zM192 136l40 116h210l42 -116h-292zM339 632q-33 0 -59 16.5t-41.5 42.5t-15.5 57t15.5 57t42 42t57.5 16t57.5 -15.5t42.5 -41.5t16 -58t-16 -58.5t-42 -42t-57 -15.5zM339 699q21 0 34.5 14.5t13.5 35.5t-13 34
t-35 13q-23 0 -35.5 -13.5t-12.5 -33.5q0 -21 13.5 -35.5t34.5 -14.5z" />
    <glyph glyph-name="AE" unicode="&#xc6;" horiz-adv-x="928" 
d="M8 0l280 697h593v-116h-346v-174h304v-116h-304v-175h346v-116h-476v583h-39l-217 -583h-141zM179 136l41 119h216v-119h-257z" />
    <glyph glyph-name="Ccedilla" unicode="&#xc7;" horiz-adv-x="709" 
d="M373 -16q-99 0 -174.5 46t-117.5 128t-42 191t42 190.5t117.5 127.5t174.5 46q111 0 191.5 -55.5t115.5 -152.5l-122 -45q-22 61 -69.5 95t-115.5 34q-62 0 -108.5 -29t-71 -82.5t-24.5 -128.5t24.5 -129t71 -83t108.5 -29q68 0 115.5 34t69.5 95l122 -44
q-35 -97 -115.5 -153t-191.5 -56zM337 -204q-12 0 -29.5 2.5t-35 8t-29.5 13.5l32 51q13 -7 28 -11.5t28 -4.5q17 0 29 7t12 23q0 13 -9.5 21t-25.5 12t-34.5 5t-36.5 1l62 87l59 -1l-37 -46q43 -6 68.5 -26t25.5 -54q0 -40 -30.5 -64t-76.5 -24z" />
    <glyph glyph-name="Egrave" unicode="&#xc8;" horiz-adv-x="578" 
d="M67 0v697h464v-116h-335v-166h313v-115h-313v-184h335v-116h-464zM253 759l-144 142h132l104 -142h-92z" />
    <glyph glyph-name="Eacute" unicode="&#xc9;" horiz-adv-x="578" 
d="M67 0v697h464v-116h-335v-166h313v-115h-313v-184h335v-116h-464zM253 759l112 142h133l-154 -142h-91z" />
    <glyph glyph-name="Ecircumflex" unicode="&#xca;" horiz-adv-x="578" 
d="M67 0v697h464v-116h-335v-166h313v-115h-313v-184h335v-116h-464zM143 745l157 175l156 -175h-99l-57 69l-57 -69h-100z" />
    <glyph glyph-name="Edieresis" unicode="&#xcb;" horiz-adv-x="578" 
d="M67 0v697h464v-116h-335v-166h313v-115h-313v-184h335v-116h-464zM332 773v128h132v-128h-132zM135 773v128h133v-128h-133z" />
    <glyph glyph-name="Igrave" unicode="&#xcc;" horiz-adv-x="263" 
d="M67 0v697h129v-697h-129zM86 759l-144 142h132l104 -142h-92z" />
    <glyph glyph-name="Iacute" unicode="&#xcd;" horiz-adv-x="263" 
d="M67 0v697h129v-697h-129zM86 759l112 142h133l-154 -142h-91z" />
    <glyph glyph-name="Icircumflex" unicode="&#xce;" horiz-adv-x="263" 
d="M67 0v697h129v-697h-129zM-24 745l157 175l156 -175h-99l-57 69l-57 -69h-100z" />
    <glyph glyph-name="Idieresis" unicode="&#xcf;" horiz-adv-x="263" 
d="M67 0v697h129v-697h-129zM165 773v128h132v-128h-132zM-32 773v128h133v-128h-133z" />
    <glyph glyph-name="Eth" unicode="&#xd0;" horiz-adv-x="674" 
d="M67 0v697h203q174 0 269 -92t95 -262q0 -166 -94 -254.5t-271 -88.5h-202zM196 119h60q79 0 134 20t84.5 70t29.5 139q0 86 -28.5 136.5t-81 72t-126.5 21.5h-72v-459zM4 308v83h328v-83h-328z" />
    <glyph glyph-name="Ntilde" unicode="&#xd1;" horiz-adv-x="689" 
d="M67 0v697h133l325 -528h-32v528h129v-697h-134l-324 529h32v-529h-129zM405 742q-23 0 -39.5 6.5t-29 16t-22 19t-18.5 16t-19 6.5q-14 0 -22 -15.5t-8 -45.5h-72q0 61 29 95t78 34q21 0 36.5 -7t27 -16.5t21.5 -19t19.5 -16t20.5 -6.5t19.5 16t8.5 46h75
q0 -62 -28.5 -95.5t-76.5 -33.5z" />
    <glyph glyph-name="Ograve" unicode="&#xd2;" horiz-adv-x="747" 
d="M373 -16q-99 0 -174.5 45.5t-117.5 127.5t-42 191q0 110 42 192t117.5 127.5t174.5 45.5q100 0 175.5 -45.5t117.5 -127.5t42 -192q0 -109 -42.5 -191t-118 -127.5t-174.5 -45.5zM372 108q64 0 109.5 29.5t70.5 83.5t25 127q0 74 -25 128t-70.5 83.5t-109.5 29.5
q-61 0 -107.5 -29t-71 -83t-24.5 -129q0 -74 24.5 -128t71 -83t107.5 -29zM327 759l-144 142h132l104 -142h-92z" />
    <glyph glyph-name="Oacute" unicode="&#xd3;" horiz-adv-x="747" 
d="M373 -16q-99 0 -174.5 45.5t-117.5 127.5t-42 191q0 110 42 192t117.5 127.5t174.5 45.5q100 0 175.5 -45.5t117.5 -127.5t42 -192q0 -109 -42.5 -191t-118 -127.5t-174.5 -45.5zM372 108q64 0 109.5 29.5t70.5 83.5t25 127q0 74 -25 128t-70.5 83.5t-109.5 29.5
q-61 0 -107.5 -29t-71 -83t-24.5 -129q0 -74 24.5 -128t71 -83t107.5 -29zM327 759l112 142h133l-154 -142h-91z" />
    <glyph glyph-name="Ocircumflex" unicode="&#xd4;" horiz-adv-x="747" 
d="M373 -16q-99 0 -174.5 45.5t-117.5 127.5t-42 191q0 110 42 192t117.5 127.5t174.5 45.5q100 0 175.5 -45.5t117.5 -127.5t42 -192q0 -109 -42.5 -191t-118 -127.5t-174.5 -45.5zM372 108q64 0 109.5 29.5t70.5 83.5t25 127q0 74 -25 128t-70.5 83.5t-109.5 29.5
q-61 0 -107.5 -29t-71 -83t-24.5 -129q0 -74 24.5 -128t71 -83t107.5 -29zM216 745l157 175l156 -175h-99l-57 69l-57 -69h-100z" />
    <glyph glyph-name="Otilde" unicode="&#xd5;" horiz-adv-x="747" 
d="M373 -16q-99 0 -174.5 45.5t-117.5 127.5t-42 191q0 110 42 192t117.5 127.5t174.5 45.5q100 0 175.5 -45.5t117.5 -127.5t42 -192q0 -109 -42.5 -191t-118 -127.5t-174.5 -45.5zM372 108q64 0 109.5 29.5t70.5 83.5t25 127q0 74 -25 128t-70.5 83.5t-109.5 29.5
q-61 0 -107.5 -29t-71 -83t-24.5 -129q0 -74 24.5 -128t71 -83t107.5 -29zM435 742q-23 0 -39.5 6.5t-29 16t-22 19t-18.5 16t-19 6.5q-14 0 -22 -15.5t-8 -45.5h-72q0 61 29 95t78 34q21 0 36.5 -7t27 -16.5t21.5 -19t19.5 -16t20.5 -6.5t19.5 16t8.5 46h75
q0 -62 -28.5 -95.5t-76.5 -33.5z" />
    <glyph glyph-name="Odieresis" unicode="&#xd6;" horiz-adv-x="747" 
d="M373 -16q-99 0 -174.5 45.5t-117.5 127.5t-42 191q0 110 42 192t117.5 127.5t174.5 45.5q100 0 175.5 -45.5t117.5 -127.5t42 -192q0 -109 -42.5 -191t-118 -127.5t-174.5 -45.5zM372 108q64 0 109.5 29.5t70.5 83.5t25 127q0 74 -25 128t-70.5 83.5t-109.5 29.5
q-61 0 -107.5 -29t-71 -83t-24.5 -129q0 -74 24.5 -128t71 -83t107.5 -29zM406 773v128h132v-128h-132zM209 773v128h133v-128h-133z" />
    <glyph glyph-name="multiply" unicode="&#xd7;" horiz-adv-x="560" 
d="M136 27l-76 76l143 144l-143 143l76 77l143 -144l144 144l76 -77l-142 -143l142 -144l-76 -76l-144 142z" />
    <glyph glyph-name="Oslash" unicode="&#xd8;" horiz-adv-x="747" 
d="M373 -16q-99 0 -174.5 45.5t-117.5 127.5t-42 191q0 110 42 192t117.5 127.5t174.5 45.5q100 0 175.5 -45.5t117.5 -127.5t42 -192q0 -109 -42.5 -191t-118 -127.5t-174.5 -45.5zM372 108q64 0 109.5 29.5t70.5 83.5t25 127q0 74 -25 128t-70.5 83.5t-109.5 29.5
q-61 0 -107.5 -29t-71 -83t-24.5 -129q0 -74 24.5 -128t71 -83t107.5 -29zM67 0l527 697h85l-526 -697h-86z" />
    <glyph glyph-name="Ugrave" unicode="&#xd9;" horiz-adv-x="657" 
d="M328 -16q-132 0 -199.5 67t-67.5 201v445h129v-430q0 -54 11.5 -90.5t42 -55t84.5 -18.5t84.5 18.5t42.5 55t12 89.5v431h129v-440q0 -136 -68 -204.5t-200 -68.5zM283 759l-144 142h132l104 -142h-92z" />
    <glyph glyph-name="Uacute" unicode="&#xda;" horiz-adv-x="657" 
d="M328 -16q-132 0 -199.5 67t-67.5 201v445h129v-430q0 -54 11.5 -90.5t42 -55t84.5 -18.5t84.5 18.5t42.5 55t12 89.5v431h129v-440q0 -136 -68 -204.5t-200 -68.5zM283 759l112 142h133l-154 -142h-91z" />
    <glyph glyph-name="Ucircumflex" unicode="&#xdb;" horiz-adv-x="657" 
d="M328 -16q-132 0 -199.5 67t-67.5 201v445h129v-430q0 -54 11.5 -90.5t42 -55t84.5 -18.5t84.5 18.5t42.5 55t12 89.5v431h129v-440q0 -136 -68 -204.5t-200 -68.5zM173 745l157 175l156 -175h-99l-57 69l-57 -69h-100z" />
    <glyph glyph-name="Udieresis" unicode="&#xdc;" horiz-adv-x="657" 
d="M328 -16q-132 0 -199.5 67t-67.5 201v445h129v-430q0 -54 11.5 -90.5t42 -55t84.5 -18.5t84.5 18.5t42.5 55t12 89.5v431h129v-440q0 -136 -68 -204.5t-200 -68.5zM362 773v128h132v-128h-132zM165 773v128h133v-128h-133z" />
    <glyph glyph-name="Yacute" unicode="&#xdd;" horiz-adv-x="625" 
d="M249 0v273l-245 424h148l158 -296l164 296h147l-243 -424v-273h-129zM267 759l112 142h133l-154 -142h-91z" />
    <glyph glyph-name="Thorn" unicode="&#xde;" horiz-adv-x="616" 
d="M110 0v697h119v-96h124q101 0 157.5 -52t56.5 -145q0 -98 -64 -153t-178 -55h-96v-196h-119zM229 303h96q58 0 91 23t33 74q0 53 -33 76.5t-91 23.5h-96v-197z" />
    <glyph glyph-name="germandbls" unicode="&#xdf;" horiz-adv-x="651" 
d="M427 -10q-52 0 -94.5 19t-71.5 50.5t-42 69.5l99 44q7 -18 19.5 -36.5t33.5 -30.5t54 -12q38 0 55.5 15t17.5 35q0 18 -13 29.5t-35 19t-48 15t-52.5 17t-48 25.5t-35 40.5t-13.5 60.5q0 39 14 64t36 40.5t46.5 25t46.5 17.5t35.5 18.5t13.5 26.5q0 17 -15 27.5t-38.5 15
t-47.5 4.5q-46 0 -75.5 -10t-45.5 -27t-23 -37t-8 -40t-1 -36v-440h-130v440q0 51 11.5 98t41 85.5t83 60.5t137.5 22q70 0 122.5 -18t81.5 -53t29 -88q0 -38 -13.5 -63.5t-35.5 -43t-46.5 -29t-46.5 -20t-36 -17.5t-14 -23q0 -12 13.5 -19t35 -12.5t48 -12t52.5 -16.5
t48 -26.5t35 -43t13 -65.5q0 -43 -17 -74.5t-45 -51.5t-62.5 -30t-68.5 -10z" />
    <glyph glyph-name="agrave" unicode="&#xe0;" horiz-adv-x="546" 
d="M377 0l-10 74v237q0 44 -27.5 65.5t-74.5 21.5q-39 0 -79.5 -15.5t-71.5 -43.5l-63 85q52 42 106.5 60.5t117.5 18.5q102 0 159 -51t57 -141v-311h-114zM228 -10q-54 0 -96.5 20t-67 57t-24.5 85q0 43 17.5 73.5t46.5 46.5q25 15 55.5 21t65.5 6h153v-92h-135
q-16 0 -31.5 -2.5t-26.5 -11.5q-10 -7 -15 -17.5t-5 -23.5q0 -28 22 -45t59 -17q33 0 60.5 14.5t44 40t16.5 58.5l33 -66q-13 -52 -39.5 -84.5t-60.5 -47.5t-72 -15zM229 555l-144 142h132l104 -142h-92z" />
    <glyph glyph-name="aacute" unicode="&#xe1;" horiz-adv-x="546" 
d="M377 0l-10 74v237q0 44 -27.5 65.5t-74.5 21.5q-39 0 -79.5 -15.5t-71.5 -43.5l-63 85q52 42 106.5 60.5t117.5 18.5q102 0 159 -51t57 -141v-311h-114zM228 -10q-54 0 -96.5 20t-67 57t-24.5 85q0 43 17.5 73.5t46.5 46.5q25 15 55.5 21t65.5 6h153v-92h-135
q-16 0 -31.5 -2.5t-26.5 -11.5q-10 -7 -15 -17.5t-5 -23.5q0 -28 22 -45t59 -17q33 0 60.5 14.5t44 40t16.5 58.5l33 -66q-13 -52 -39.5 -84.5t-60.5 -47.5t-72 -15zM229 555l112 142h133l-154 -142h-91z" />
    <glyph glyph-name="acircumflex" unicode="&#xe2;" horiz-adv-x="546" 
d="M377 0l-10 74v237q0 44 -27.5 65.5t-74.5 21.5q-39 0 -79.5 -15.5t-71.5 -43.5l-63 85q52 42 106.5 60.5t117.5 18.5q102 0 159 -51t57 -141v-311h-114zM228 -10q-54 0 -96.5 20t-67 57t-24.5 85q0 43 17.5 73.5t46.5 46.5q25 15 55.5 21t65.5 6h153v-92h-135
q-16 0 -31.5 -2.5t-26.5 -11.5q-10 -7 -15 -17.5t-5 -23.5q0 -28 22 -45t59 -17q33 0 60.5 14.5t44 40t16.5 58.5l33 -66q-13 -52 -39.5 -84.5t-60.5 -47.5t-72 -15zM119 541l157 175l156 -175h-99l-57 69l-57 -69h-100z" />
    <glyph glyph-name="atilde" unicode="&#xe3;" horiz-adv-x="546" 
d="M377 0l-10 74v237q0 44 -27.5 65.5t-74.5 21.5q-39 0 -79.5 -15.5t-71.5 -43.5l-63 85q52 42 106.5 60.5t117.5 18.5q102 0 159 -51t57 -141v-311h-114zM228 -10q-54 0 -96.5 20t-67 57t-24.5 85q0 43 17.5 73.5t46.5 46.5q25 15 55.5 21t65.5 6h153v-92h-135
q-16 0 -31.5 -2.5t-26.5 -11.5q-10 -7 -15 -17.5t-5 -23.5q0 -28 22 -45t59 -17q33 0 60.5 14.5t44 40t16.5 58.5l33 -66q-13 -52 -39.5 -84.5t-60.5 -47.5t-72 -15zM337 556q-29 0 -48 10t-32 23.5t-24 23.5t-24 10q-14 0 -22 -17t-8 -49h-72q0 69 29 106t78 37
q26 0 44 -10.5t31.5 -24t25 -24t24.5 -10.5q11 0 19.5 17t8.5 49h75q0 -68 -28.5 -104.5t-76.5 -36.5z" />
    <glyph glyph-name="adieresis" unicode="&#xe4;" horiz-adv-x="546" 
d="M377 0l-10 74v237q0 44 -27.5 65.5t-74.5 21.5q-39 0 -79.5 -15.5t-71.5 -43.5l-63 85q52 42 106.5 60.5t117.5 18.5q102 0 159 -51t57 -141v-311h-114zM228 -10q-54 0 -96.5 20t-67 57t-24.5 85q0 43 17.5 73.5t46.5 46.5q25 15 55.5 21t65.5 6h153v-92h-135
q-16 0 -31.5 -2.5t-26.5 -11.5q-10 -7 -15 -17.5t-5 -23.5q0 -28 22 -45t59 -17q33 0 60.5 14.5t44 40t16.5 58.5l33 -66q-13 -52 -39.5 -84.5t-60.5 -47.5t-72 -15zM308 569v128h132v-128h-132zM111 569v128h133v-128h-133z" />
    <glyph glyph-name="aring" unicode="&#xe5;" horiz-adv-x="546" 
d="M377 0l-10 74v237q0 44 -27.5 65.5t-74.5 21.5q-39 0 -79.5 -15.5t-71.5 -43.5l-63 85q52 42 106.5 60.5t117.5 18.5q102 0 159 -51t57 -141v-311h-114zM228 -10q-54 0 -96.5 20t-67 57t-24.5 85q0 43 17.5 73.5t46.5 46.5q25 15 55.5 21t65.5 6h153v-92h-135
q-16 0 -31.5 -2.5t-26.5 -11.5q-10 -7 -15 -17.5t-5 -23.5q0 -28 22 -45t59 -17q33 0 60.5 14.5t44 40t16.5 58.5l33 -66q-13 -52 -39.5 -84.5t-60.5 -47.5t-72 -15zM276 526q-33 0 -59 16.5t-41.5 42.5t-15.5 57t15.5 57t42 42t57.5 16t57.5 -15.5t42.5 -41.5t16 -58
t-16 -58.5t-42 -42t-57 -15.5zM276 593q21 0 34.5 14.5t13.5 35.5t-13 34t-35 13q-23 0 -35.5 -13.5t-12.5 -33.5q0 -21 13.5 -35.5t34.5 -14.5z" />
    <glyph glyph-name="ae" unicode="&#xe6;" horiz-adv-x="857" 
d="M226 -10q-90 0 -138 46t-48 114q0 45 18.5 72t48 42t61.5 21.5t59 7.5t40 1h102v17q0 40 -26 62t-72 22q-30 0 -64 -12.5t-64 -48.5l-90 76q51 51 107 72t124 21q58 0 99 -17t61 -51q27 32 63.5 49.5t84.5 17.5q59 0 101.5 -19.5t70 -53t41 -78.5t13.5 -97
q0 -11 -0.5 -23.5t-2.5 -25.5h-332q4 -52 37 -79t84 -27q39 0 74.5 13t63.5 38l63 -84q-36 -29 -67 -45.5t-64.5 -23.5t-76.5 -7q-66 0 -110 25.5t-68 68.5h-13q-37 -51 -81.5 -72.5t-98.5 -21.5zM241 96q34 0 61 11.5t44.5 34.5t22.5 57v6h-100q-58 0 -80 -17.5t-22 -39.5
q0 -23 19 -37.5t55 -14.5zM481 296h220q0 16 -7 34t-20.5 33.5t-33 25.5t-46.5 10q-38 0 -62 -15.5t-36.5 -39t-14.5 -48.5z" />
    <glyph glyph-name="ccedilla" unicode="&#xe7;" horiz-adv-x="522" 
d="M278 -10q-60 0 -104.5 21.5t-75 57.5t-45.5 82t-15 96q0 49 15 95t45.5 82t75 57.5t104.5 21.5q75 0 130 -36t82 -109l-108 -43q-12 35 -36.5 57.5t-67.5 22.5q-40 0 -66 -21.5t-38 -55.5t-12 -71t12 -71.5t38 -56t66 -21.5q43 0 67.5 22.5t36.5 58.5l108 -43
q-27 -74 -82 -110t-130 -36zM267 -204q-12 0 -29.5 2.5t-35 8t-29.5 13.5l32 51q13 -7 28 -11.5t28 -4.5q17 0 29 7t12 23q0 13 -9.5 21t-25.5 12t-34.5 5t-36.5 1l62 87l59 -1l-37 -46q43 -6 68.5 -26t25.5 -54q0 -40 -30.5 -64t-76.5 -24z" />
    <glyph glyph-name="egrave" unicode="&#xe8;" horiz-adv-x="541" 
d="M281 -10q-64 0 -110 21t-75.5 56.5t-43.5 81t-14 95.5q0 48 14 94t42 83t72.5 59.5t106.5 22.5q58 0 101 -19.5t71 -54t42.5 -80.5t14.5 -98q0 -7 -0.5 -19.5t-2.5 -26.5h-337q5 -53 39.5 -80t86.5 -27q38 0 74 13.5t64 38.5l62 -84q-35 -27 -66 -44t-64.5 -24.5
t-76.5 -7.5zM379 267q2 8 3.5 16t1.5 15q0 21 -8 39.5t-22 32.5t-33.5 21.5t-44.5 7.5q-37 0 -62 -15t-37.5 -38.5t-15.5 -48.5h260zM228 555l-144 142h132l104 -142h-92z" />
    <glyph glyph-name="eacute" unicode="&#xe9;" horiz-adv-x="541" 
d="M281 -10q-64 0 -110 21t-75.5 56.5t-43.5 81t-14 95.5q0 48 14 94t42 83t72.5 59.5t106.5 22.5q58 0 101 -19.5t71 -54t42.5 -80.5t14.5 -98q0 -7 -0.5 -19.5t-2.5 -26.5h-337q5 -53 39.5 -80t86.5 -27q38 0 74 13.5t64 38.5l62 -84q-35 -27 -66 -44t-64.5 -24.5
t-76.5 -7.5zM379 267q2 8 3.5 16t1.5 15q0 21 -8 39.5t-22 32.5t-33.5 21.5t-44.5 7.5q-37 0 -62 -15t-37.5 -38.5t-15.5 -48.5h260zM228 555l112 142h133l-154 -142h-91z" />
    <glyph glyph-name="ecircumflex" unicode="&#xea;" horiz-adv-x="541" 
d="M281 -10q-64 0 -110 21t-75.5 56.5t-43.5 81t-14 95.5q0 48 14 94t42 83t72.5 59.5t106.5 22.5q58 0 101 -19.5t71 -54t42.5 -80.5t14.5 -98q0 -7 -0.5 -19.5t-2.5 -26.5h-337q5 -53 39.5 -80t86.5 -27q38 0 74 13.5t64 38.5l62 -84q-35 -27 -66 -44t-64.5 -24.5
t-76.5 -7.5zM379 267q2 8 3.5 16t1.5 15q0 21 -8 39.5t-22 32.5t-33.5 21.5t-44.5 7.5q-37 0 -62 -15t-37.5 -38.5t-15.5 -48.5h260zM118 541l157 175l156 -175h-99l-57 69l-57 -69h-100z" />
    <glyph glyph-name="edieresis" unicode="&#xeb;" horiz-adv-x="541" 
d="M281 -10q-64 0 -110 21t-75.5 56.5t-43.5 81t-14 95.5q0 48 14 94t42 83t72.5 59.5t106.5 22.5q58 0 101 -19.5t71 -54t42.5 -80.5t14.5 -98q0 -7 -0.5 -19.5t-2.5 -26.5h-337q5 -53 39.5 -80t86.5 -27q38 0 74 13.5t64 38.5l62 -84q-35 -27 -66 -44t-64.5 -24.5
t-76.5 -7.5zM379 267q2 8 3.5 16t1.5 15q0 21 -8 39.5t-22 32.5t-33.5 21.5t-44.5 7.5q-37 0 -62 -15t-37.5 -38.5t-15.5 -48.5h260zM307 569v128h132v-128h-132zM110 569v128h133v-128h-133z" />
    <glyph glyph-name="igrave" unicode="&#xec;" horiz-adv-x="245" 
d="M60 0v493h124v-493h-124zM76 555l-144 142h132l104 -142h-92z" />
    <glyph glyph-name="iacute" unicode="&#xed;" horiz-adv-x="245" 
d="M60 0v493h124v-493h-124zM77 555l112 142h133l-154 -142h-91z" />
    <glyph glyph-name="icircumflex" unicode="&#xee;" horiz-adv-x="245" 
d="M60 0v493h124v-493h-124zM-34 541l157 175l156 -175h-99l-57 69l-57 -69h-100z" />
    <glyph glyph-name="idieresis" unicode="&#xef;" horiz-adv-x="245" 
d="M60 0v493h124v-493h-124zM155 569v128h132v-128h-132zM-42 569v128h133v-128h-133z" />
    <glyph glyph-name="eth" unicode="&#xf0;" horiz-adv-x="602" 
d="M278 -10q-73 0 -125 29.5t-79 81t-27 116.5q0 61 21.5 111.5t59 87t86 56t101.5 19.5q25 0 48 -6t42.5 -18t34.5 -28.5t25 -38.5q3 71 -20 126t-76.5 88t-142.5 35l10 83q95 -6 159.5 -33.5t103 -74t55.5 -110t17 -142.5q0 -88 -20 -158.5t-57.5 -120.5t-92 -76.5
t-123.5 -26.5zM285 97q50 0 87 25.5t57 65.5t20 85q0 21 -7.5 42t-22.5 38t-37.5 27t-53.5 10q-58 0 -94.5 -26.5t-53.5 -66t-17 -79.5q0 -39 16.5 -66.5t44.5 -41t61 -13.5zM232 529l-12 50l352 91l12 -51z" />
    <glyph glyph-name="ntilde" unicode="&#xf1;" horiz-adv-x="564" 
d="M61 0v493h125v-112l-20 -2q13 45 38 72t58 39.5t68 12.5q84 0 131.5 -47.5t47.5 -133.5v-322h-125v276q0 62 -22 90.5t-69 28.5q-36 0 -59.5 -16.5t-35.5 -51.5t-12 -91v-236h-125zM337 556q-29 0 -48 10t-32 23.5t-24 23.5t-24 10q-14 0 -22 -17t-8 -49h-72q0 69 29 106
t78 37q26 0 44 -10.5t31.5 -24t25 -24t24.5 -10.5q11 0 19.5 17t8.5 49h75q0 -68 -28.5 -104.5t-76.5 -36.5z" />
    <glyph glyph-name="ograve" unicode="&#xf2;" horiz-adv-x="572" 
d="M287 -10q-72 0 -128 33t-88.5 91.5t-32.5 132.5q0 75 32 132.5t88.5 90.5t128.5 33q71 0 127 -33t88 -90.5t32 -132.5q0 -74 -32 -132t-88 -91.5t-127 -33.5zM287 99q38 0 65.5 18t42 51t14.5 79q0 47 -14.5 79.5t-42 50t-65.5 17.5q-39 0 -67 -17.5t-43 -50t-15 -79.5
q0 -46 15 -79t43 -51t67 -18zM240 555l-144 142h132l104 -142h-92z" />
    <glyph glyph-name="oacute" unicode="&#xf3;" horiz-adv-x="572" 
d="M287 -10q-72 0 -128 33t-88.5 91.5t-32.5 132.5q0 75 32 132.5t88.5 90.5t128.5 33q71 0 127 -33t88 -90.5t32 -132.5q0 -74 -32 -132t-88 -91.5t-127 -33.5zM287 99q38 0 65.5 18t42 51t14.5 79q0 47 -14.5 79.5t-42 50t-65.5 17.5q-39 0 -67 -17.5t-43 -50t-15 -79.5
q0 -46 15 -79t43 -51t67 -18zM241 555l112 142h133l-154 -142h-91z" />
    <glyph glyph-name="ocircumflex" unicode="&#xf4;" horiz-adv-x="572" 
d="M287 -10q-72 0 -128 33t-88.5 91.5t-32.5 132.5q0 75 32 132.5t88.5 90.5t128.5 33q71 0 127 -33t88 -90.5t32 -132.5q0 -74 -32 -132t-88 -91.5t-127 -33.5zM287 99q38 0 65.5 18t42 51t14.5 79q0 47 -14.5 79.5t-42 50t-65.5 17.5q-39 0 -67 -17.5t-43 -50t-15 -79.5
q0 -46 15 -79t43 -51t67 -18zM130 541l157 175l156 -175h-99l-57 69l-57 -69h-100z" />
    <glyph glyph-name="otilde" unicode="&#xf5;" horiz-adv-x="572" 
d="M287 -10q-72 0 -128 33t-88.5 91.5t-32.5 132.5q0 75 32 132.5t88.5 90.5t128.5 33q71 0 127 -33t88 -90.5t32 -132.5q0 -74 -32 -132t-88 -91.5t-127 -33.5zM287 99q38 0 65.5 18t42 51t14.5 79q0 47 -14.5 79.5t-42 50t-65.5 17.5q-39 0 -67 -17.5t-43 -50t-15 -79.5
q0 -46 15 -79t43 -51t67 -18zM348 556q-29 0 -48 10t-32 23.5t-24 23.5t-24 10q-14 0 -22 -17t-8 -49h-72q0 69 29 106t78 37q26 0 44 -10.5t31.5 -24t25 -24t24.5 -10.5q11 0 19.5 17t8.5 49h75q0 -68 -28.5 -104.5t-76.5 -36.5z" />
    <glyph glyph-name="odieresis" unicode="&#xf6;" horiz-adv-x="572" 
d="M287 -10q-72 0 -128 33t-88.5 91.5t-32.5 132.5q0 75 32 132.5t88.5 90.5t128.5 33q71 0 127 -33t88 -90.5t32 -132.5q0 -74 -32 -132t-88 -91.5t-127 -33.5zM287 99q38 0 65.5 18t42 51t14.5 79q0 47 -14.5 79.5t-42 50t-65.5 17.5q-39 0 -67 -17.5t-43 -50t-15 -79.5
q0 -46 15 -79t43 -51t67 -18zM319 569v128h132v-128h-132zM122 569v128h133v-128h-133z" />
    <glyph glyph-name="divide" unicode="&#xf7;" horiz-adv-x="560" 
d="M56 198v98h448v-98h-448zM208 12v135h144v-135h-144zM208 348v134h144v-134h-144z" />
    <glyph glyph-name="oslash" unicode="&#xf8;" horiz-adv-x="572" 
d="M287 -10q-72 0 -128 33t-88.5 91.5t-32.5 132.5q0 75 32 132.5t88.5 90.5t128.5 33q71 0 127 -33t88 -90.5t32 -132.5q0 -74 -32 -132t-88 -91.5t-127 -33.5zM287 99q38 0 65.5 18t42 51t14.5 79q0 47 -14.5 79.5t-42 50t-65.5 17.5q-39 0 -67 -17.5t-43 -50t-15 -79.5
q0 -46 15 -79t43 -51t67 -18zM81 -43l350 578h61l-350 -578h-61z" />
    <glyph glyph-name="ugrave" unicode="&#xf9;" horiz-adv-x="564" 
d="M235 -10q-60 0 -100.5 24t-60 68t-19.5 103v308h124v-277q0 -34 8 -60.5t28.5 -42t56.5 -15.5q44 0 66.5 25t31 69.5t8.5 104.5v196h124v-493h-124v107l17 -10q-22 -57 -65 -82t-95 -25zM232 555l-144 142h132l104 -142h-92z" />
    <glyph glyph-name="uacute" unicode="&#xfa;" horiz-adv-x="564" 
d="M235 -10q-60 0 -100.5 24t-60 68t-19.5 103v308h124v-277q0 -34 8 -60.5t28.5 -42t56.5 -15.5q44 0 66.5 25t31 69.5t8.5 104.5v196h124v-493h-124v107l17 -10q-22 -57 -65 -82t-95 -25zM232 555l112 142h133l-154 -142h-91z" />
    <glyph glyph-name="ucircumflex" unicode="&#xfb;" horiz-adv-x="564" 
d="M235 -10q-60 0 -100.5 24t-60 68t-19.5 103v308h124v-277q0 -34 8 -60.5t28.5 -42t56.5 -15.5q44 0 66.5 25t31 69.5t8.5 104.5v196h124v-493h-124v107l17 -10q-22 -57 -65 -82t-95 -25zM121 541l157 175l156 -175h-99l-57 69l-57 -69h-100z" />
    <glyph glyph-name="udieresis" unicode="&#xfc;" horiz-adv-x="564" 
d="M235 -10q-60 0 -100.5 24t-60 68t-19.5 103v308h124v-277q0 -34 8 -60.5t28.5 -42t56.5 -15.5q44 0 66.5 25t31 69.5t8.5 104.5v196h124v-493h-124v107l17 -10q-22 -57 -65 -82t-95 -25zM311 569v128h132v-128h-132zM114 569v128h133v-128h-133z" />
    <glyph glyph-name="yacute" unicode="&#xfd;" horiz-adv-x="535" 
d="M101 -204l100 242l-186 455h136l116 -331l118 331h134l-283 -697h-135zM222 555l112 142h133l-154 -142h-91z" />
    <glyph glyph-name="thorn" unicode="&#xfe;" horiz-adv-x="611" 
d="M89 -204v901h125v-336l-26 28q13 40 40 65t61.5 37t69.5 12q65 0 110.5 -34.5t68 -92.5t22.5 -131q0 -82 -27 -139t-72.5 -86.5t-101.5 -29.5q-37 0 -72 14t-60.5 38.5t-34.5 56.5l22 34v-337h-125zM324 98q39 0 64 17.5t37 50.5t12 81q0 47 -11.5 80t-36 50t-63.5 17
q-44 0 -71.5 -19.5t-40 -53t-12.5 -74.5t13 -75t40.5 -54t68.5 -20z" />
    <glyph glyph-name="ydieresis" unicode="&#xff;" horiz-adv-x="535" 
d="M101 -204l100 242l-186 455h136l116 -331l118 331h134l-283 -697h-135zM301 569v128h132v-128h-132zM104 569v128h133v-128h-133z" />
    <glyph glyph-name="Amacron" unicode="&#x100;" horiz-adv-x="674" 
d="M8 0l280 697h97l280 -697h-141l-186 506l-189 -506h-141zM192 136l40 116h210l42 -116h-292zM200 767v73h275v-73h-275z" />
    <glyph glyph-name="amacron" unicode="&#x101;" horiz-adv-x="546" 
d="M377 0l-10 74v237q0 44 -27.5 65.5t-74.5 21.5q-39 0 -79.5 -15.5t-71.5 -43.5l-63 85q52 42 106.5 60.5t117.5 18.5q102 0 159 -51t57 -141v-311h-114zM228 -10q-54 0 -96.5 20t-67 57t-24.5 85q0 43 17.5 73.5t46.5 46.5q25 15 55.5 21t65.5 6h153v-92h-135
q-16 0 -31.5 -2.5t-26.5 -11.5q-10 -7 -15 -17.5t-5 -23.5q0 -28 22 -45t59 -17q33 0 60.5 14.5t44 40t16.5 58.5l33 -66q-13 -52 -39.5 -84.5t-60.5 -47.5t-72 -15zM137 563v73h275v-73h-275z" />
    <glyph glyph-name="Abreve" unicode="&#x102;" horiz-adv-x="674" 
d="M8 0l280 697h97l280 -697h-141l-186 506l-189 -506h-141zM192 136l40 116h210l42 -116h-292zM337 738q-81 0 -118.5 34.5t-37.5 98.5h88q0 -31 20.5 -45.5t47.5 -14.5q30 0 49.5 15.5t19.5 44.5h88q0 -67 -39.5 -100t-117.5 -33z" />
    <glyph glyph-name="abreve" unicode="&#x103;" horiz-adv-x="546" 
d="M377 0l-10 74v237q0 44 -27.5 65.5t-74.5 21.5q-39 0 -79.5 -15.5t-71.5 -43.5l-63 85q52 42 106.5 60.5t117.5 18.5q102 0 159 -51t57 -141v-311h-114zM228 -10q-54 0 -96.5 20t-67 57t-24.5 85q0 43 17.5 73.5t46.5 46.5q25 15 55.5 21t65.5 6h153v-92h-135
q-16 0 -31.5 -2.5t-26.5 -11.5q-10 -7 -15 -17.5t-5 -23.5q0 -28 22 -45t59 -17q33 0 60.5 14.5t44 40t16.5 58.5l33 -66q-13 -52 -39.5 -84.5t-60.5 -47.5t-72 -15zM275 548q-81 0 -118.5 36.5t-37.5 112.5h80q0 -43 21 -60t55 -17q37 0 57 17.5t20 59.5h80
q0 -80 -39.5 -114.5t-117.5 -34.5z" />
    <glyph glyph-name="Aogonek" unicode="&#x104;" horiz-adv-x="674" 
d="M8 0l280 697h97l280 -697h-141l-186 506l-189 -506h-141zM192 136l40 116h210l42 -116h-292zM583 -204q-48 0 -80 25t-32 68q0 30 13.5 52t32.5 37t35 23l97 -1q-10 -4 -27 -13t-35 -22t-30 -29.5t-12 -35.5q0 -17 12 -27.5t29 -10.5q15 0 31.5 8t31.5 25l43 -45
q-19 -23 -45.5 -38.5t-63.5 -15.5z" />
    <glyph glyph-name="aogonek" unicode="&#x105;" horiz-adv-x="546" 
d="M377 0l-10 74v237q0 44 -27.5 65.5t-74.5 21.5q-39 0 -79.5 -15.5t-71.5 -43.5l-63 85q52 42 106.5 60.5t117.5 18.5q102 0 159 -51t57 -141v-311h-114zM228 -10q-54 0 -96.5 20t-67 57t-24.5 85q0 43 17.5 73.5t46.5 46.5q25 15 55.5 21t65.5 6h153v-92h-135
q-16 0 -31.5 -2.5t-26.5 -11.5q-10 -7 -15 -17.5t-5 -23.5q0 -28 22 -45t59 -17q33 0 60.5 14.5t44 40t16.5 58.5l33 -66q-13 -52 -39.5 -84.5t-60.5 -47.5t-72 -15zM425 -204q-48 0 -80 25t-32 68q0 30 13.5 52t32.5 37t35 23l97 -1q-10 -4 -27 -13t-35 -22t-30 -29.5
t-12 -35.5q0 -17 12 -27.5t29 -10.5q15 0 31.5 8t31.5 25l43 -45q-19 -23 -45.5 -38.5t-63.5 -15.5z" />
    <glyph glyph-name="Cacute" unicode="&#x106;" horiz-adv-x="709" 
d="M373 -16q-99 0 -174.5 46t-117.5 128t-42 191t42 190.5t117.5 127.5t174.5 46q111 0 191.5 -55.5t115.5 -152.5l-122 -45q-22 61 -69.5 95t-115.5 34q-62 0 -108.5 -29t-71 -82.5t-24.5 -128.5t24.5 -129t71 -83t108.5 -29q68 0 115.5 34t69.5 95l122 -44
q-35 -97 -115.5 -153t-191.5 -56zM312 759l112 142h133l-154 -142h-91z" />
    <glyph glyph-name="cacute" unicode="&#x107;" horiz-adv-x="522" 
d="M278 -10q-60 0 -104.5 21.5t-75 57.5t-45.5 82t-15 96q0 49 15 95t45.5 82t75 57.5t104.5 21.5q75 0 130 -36t82 -109l-108 -43q-12 35 -36.5 57.5t-67.5 22.5q-40 0 -66 -21.5t-38 -55.5t-12 -71t12 -71.5t38 -56t66 -21.5q43 0 67.5 22.5t36.5 58.5l108 -43
q-27 -74 -82 -110t-130 -36zM218 555l112 142h133l-154 -142h-91z" />
    <glyph glyph-name="Ccircumflex" unicode="&#x108;" horiz-adv-x="709" 
d="M373 -16q-99 0 -174.5 46t-117.5 128t-42 191t42 190.5t117.5 127.5t174.5 46q111 0 191.5 -55.5t115.5 -152.5l-122 -45q-22 61 -69.5 95t-115.5 34q-62 0 -108.5 -29t-71 -82.5t-24.5 -128.5t24.5 -129t71 -83t108.5 -29q68 0 115.5 34t69.5 95l122 -44
q-35 -97 -115.5 -153t-191.5 -56zM201 745l157 175l156 -175h-99l-57 69l-57 -69h-100z" />
    <glyph glyph-name="ccircumflex" unicode="&#x109;" horiz-adv-x="522" 
d="M278 -10q-60 0 -104.5 21.5t-75 57.5t-45.5 82t-15 96q0 49 15 95t45.5 82t75 57.5t104.5 21.5q75 0 130 -36t82 -109l-108 -43q-12 35 -36.5 57.5t-67.5 22.5q-40 0 -66 -21.5t-38 -55.5t-12 -71t12 -71.5t38 -56t66 -21.5q43 0 67.5 22.5t36.5 58.5l108 -43
q-27 -74 -82 -110t-130 -36zM107 541l157 175l156 -175h-99l-57 69l-57 -69h-100z" />
    <glyph glyph-name="Cdotaccent" unicode="&#x10a;" horiz-adv-x="709" 
d="M373 -16q-99 0 -174.5 46t-117.5 128t-42 191t42 190.5t117.5 127.5t174.5 46q111 0 191.5 -55.5t115.5 -152.5l-122 -45q-22 61 -69.5 95t-115.5 34q-62 0 -108.5 -29t-71 -82.5t-24.5 -128.5t24.5 -129t71 -83t108.5 -29q68 0 115.5 34t69.5 95l122 -44
q-35 -97 -115.5 -153t-191.5 -56zM292 773v128h133v-128h-133z" />
    <glyph glyph-name="cdotaccent" unicode="&#x10b;" horiz-adv-x="522" 
d="M278 -10q-60 0 -104.5 21.5t-75 57.5t-45.5 82t-15 96q0 49 15 95t45.5 82t75 57.5t104.5 21.5q75 0 130 -36t82 -109l-108 -43q-12 35 -36.5 57.5t-67.5 22.5q-40 0 -66 -21.5t-38 -55.5t-12 -71t12 -71.5t38 -56t66 -21.5q43 0 67.5 22.5t36.5 58.5l108 -43
q-27 -74 -82 -110t-130 -36zM197 569v128h133v-128h-133z" />
    <glyph glyph-name="Ccaron" unicode="&#x10c;" horiz-adv-x="709" 
d="M373 -16q-99 0 -174.5 46t-117.5 128t-42 191t42 190.5t117.5 127.5t174.5 46q111 0 191.5 -55.5t115.5 -152.5l-122 -45q-22 61 -69.5 95t-115.5 34q-62 0 -108.5 -29t-71 -82.5t-24.5 -128.5t24.5 -129t71 -83t108.5 -29q68 0 115.5 34t69.5 95l122 -44
q-35 -97 -115.5 -153t-191.5 -56zM358 736l-157 165h96l61 -70l61 70h95z" />
    <glyph glyph-name="ccaron" unicode="&#x10d;" horiz-adv-x="522" 
d="M278 -10q-60 0 -104.5 21.5t-75 57.5t-45.5 82t-15 96q0 49 15 95t45.5 82t75 57.5t104.5 21.5q75 0 130 -36t82 -109l-108 -43q-12 35 -36.5 57.5t-67.5 22.5q-40 0 -66 -21.5t-38 -55.5t-12 -71t12 -71.5t38 -56t66 -21.5q43 0 67.5 22.5t36.5 58.5l108 -43
q-27 -74 -82 -110t-130 -36zM264 532l-157 165h96l61 -70l61 70h95z" />
    <glyph glyph-name="Dcaron" unicode="&#x10e;" horiz-adv-x="674" 
d="M67 0v697h203q174 0 269 -92t95 -262q0 -166 -94 -254.5t-271 -88.5h-202zM196 119h60q79 0 134 20t84.5 70t29.5 139q0 86 -28.5 136.5t-81 72t-126.5 21.5h-72v-459zM326 736l-157 165h96l61 -70l61 70h95z" />
    <glyph glyph-name="dcaron" unicode="&#x10f;" horiz-adv-x="769" 
d="M248 -10q-65 0 -112 33.5t-72.5 92t-25.5 131.5q0 81 28.5 138t76.5 87.5t105 30.5q40 0 74.5 -16.5t59.5 -49.5t33 -84l-25 7v337h123v-697h-123v132l29 14q-12 -58 -38.5 -92.5t-61 -49t-71.5 -14.5zM282 104q37 0 63.5 18t41 50t14.5 75t-14.5 75t-41 49.5t-63.5 17.5
q-36 0 -63 -17.5t-41.5 -49t-14.5 -75.5t14.5 -76t41.5 -49.5t63 -17.5zM554 471l56 226h130l-113 -226h-73z" />
    <glyph glyph-name="Dcroat" unicode="&#x110;" horiz-adv-x="674" 
d="M67 0v697h203q174 0 269 -92t95 -262q0 -166 -94 -254.5t-271 -88.5h-202zM196 119h60q79 0 134 20t84.5 70t29.5 139q0 86 -28.5 136.5t-81 72t-126.5 21.5h-72v-459zM4 308v83h328v-83h-328z" />
    <glyph glyph-name="dcroat" unicode="&#x111;" horiz-adv-x="574" 
d="M248 -10q-65 0 -112 33.5t-72.5 92t-25.5 131.5q0 81 28.5 138t76.5 87.5t105 30.5q40 0 74.5 -16.5t59.5 -49.5t33 -84l-25 7v337h123v-697h-123v132l29 14q-12 -58 -38.5 -92.5t-61 -49t-71.5 -14.5zM282 104q37 0 63.5 18t41 50t14.5 75t-14.5 75t-41 49.5t-63.5 17.5
q-36 0 -63 -17.5t-41.5 -49t-14.5 -75.5t14.5 -76t41.5 -49.5t63 -17.5zM258 555v83h328v-83h-328z" />
    <glyph glyph-name="Emacron" unicode="&#x112;" horiz-adv-x="578" 
d="M67 0v697h464v-116h-335v-166h313v-115h-313v-184h335v-116h-464zM161 767v73h275v-73h-275z" />
    <glyph glyph-name="emacron" unicode="&#x113;" horiz-adv-x="541" 
d="M281 -10q-64 0 -110 21t-75.5 56.5t-43.5 81t-14 95.5q0 48 14 94t42 83t72.5 59.5t106.5 22.5q58 0 101 -19.5t71 -54t42.5 -80.5t14.5 -98q0 -7 -0.5 -19.5t-2.5 -26.5h-337q5 -53 39.5 -80t86.5 -27q38 0 74 13.5t64 38.5l62 -84q-35 -27 -66 -44t-64.5 -24.5
t-76.5 -7.5zM379 267q2 8 3.5 16t1.5 15q0 21 -8 39.5t-22 32.5t-33.5 21.5t-44.5 7.5q-37 0 -62 -15t-37.5 -38.5t-15.5 -48.5h260zM136 563v73h275v-73h-275z" />
    <glyph glyph-name="Ebreve" unicode="&#x114;" horiz-adv-x="578" 
d="M67 0v697h464v-116h-335v-166h313v-115h-313v-184h335v-116h-464zM299 738q-81 0 -118.5 34.5t-37.5 98.5h88q0 -31 20.5 -45.5t47.5 -14.5q30 0 49.5 15.5t19.5 44.5h88q0 -67 -39.5 -100t-117.5 -33z" />
    <glyph glyph-name="ebreve" unicode="&#x115;" horiz-adv-x="541" 
d="M281 -10q-64 0 -110 21t-75.5 56.5t-43.5 81t-14 95.5q0 48 14 94t42 83t72.5 59.5t106.5 22.5q58 0 101 -19.5t71 -54t42.5 -80.5t14.5 -98q0 -7 -0.5 -19.5t-2.5 -26.5h-337q5 -53 39.5 -80t86.5 -27q38 0 74 13.5t64 38.5l62 -84q-35 -27 -66 -44t-64.5 -24.5
t-76.5 -7.5zM379 267q2 8 3.5 16t1.5 15q0 21 -8 39.5t-22 32.5t-33.5 21.5t-44.5 7.5q-37 0 -62 -15t-37.5 -38.5t-15.5 -48.5h260zM274 548q-81 0 -118.5 36.5t-37.5 112.5h80q0 -43 21 -60t55 -17q37 0 57 17.5t20 59.5h80q0 -80 -39.5 -114.5t-117.5 -34.5z" />
    <glyph glyph-name="Edotaccent" unicode="&#x116;" horiz-adv-x="578" 
d="M67 0v697h464v-116h-335v-166h313v-115h-313v-184h335v-116h-464zM233 773v128h133v-128h-133z" />
    <glyph glyph-name="edotaccent" unicode="&#x117;" horiz-adv-x="541" 
d="M281 -10q-64 0 -110 21t-75.5 56.5t-43.5 81t-14 95.5q0 48 14 94t42 83t72.5 59.5t106.5 22.5q58 0 101 -19.5t71 -54t42.5 -80.5t14.5 -98q0 -7 -0.5 -19.5t-2.5 -26.5h-337q5 -53 39.5 -80t86.5 -27q38 0 74 13.5t64 38.5l62 -84q-35 -27 -66 -44t-64.5 -24.5
t-76.5 -7.5zM379 267q2 8 3.5 16t1.5 15q0 21 -8 39.5t-22 32.5t-33.5 21.5t-44.5 7.5q-37 0 -62 -15t-37.5 -38.5t-15.5 -48.5h260zM208 569v128h133v-128h-133z" />
    <glyph glyph-name="Eogonek" unicode="&#x118;" horiz-adv-x="578" 
d="M67 0v697h464v-116h-335v-166h313v-115h-313v-184h335v-116h-464zM465 -204q-48 0 -80 25t-32 68q0 30 13.5 52t32.5 37t35 23l97 -1q-10 -4 -27 -13t-35 -22t-30 -29.5t-12 -35.5q0 -17 12 -27.5t29 -10.5q15 0 31.5 8t31.5 25l43 -45q-19 -23 -45.5 -38.5t-63.5 -15.5z
" />
    <glyph glyph-name="eogonek" unicode="&#x119;" horiz-adv-x="541" 
d="M281 -10q-64 0 -110 21t-75.5 56.5t-43.5 81t-14 95.5q0 48 14 94t42 83t72.5 59.5t106.5 22.5q58 0 101 -19.5t71 -54t42.5 -80.5t14.5 -98q0 -7 -0.5 -19.5t-2.5 -26.5h-337q5 -53 39.5 -80t86.5 -27q38 0 74 13.5t64 38.5l62 -84q-35 -27 -66 -44t-64.5 -24.5
t-76.5 -7.5zM379 267q2 8 3.5 16t1.5 15q0 21 -8 39.5t-22 32.5t-33.5 21.5t-44.5 7.5q-37 0 -62 -15t-37.5 -38.5t-15.5 -48.5h260zM291 -204q-48 0 -80 25t-32 68q0 30 13.5 52t32.5 37t35 23l97 -1q-10 -4 -27 -13t-35 -22t-30 -29.5t-12 -35.5q0 -17 12 -27.5t29 -10.5
q15 0 31.5 8t31.5 25l43 -45q-19 -23 -45.5 -38.5t-63.5 -15.5z" />
    <glyph glyph-name="Ecaron" unicode="&#x11a;" horiz-adv-x="578" 
d="M67 0v697h464v-116h-335v-166h313v-115h-313v-184h335v-116h-464zM300 736l-157 165h96l61 -70l61 70h95z" />
    <glyph glyph-name="ecaron" unicode="&#x11b;" horiz-adv-x="541" 
d="M281 -10q-64 0 -110 21t-75.5 56.5t-43.5 81t-14 95.5q0 48 14 94t42 83t72.5 59.5t106.5 22.5q58 0 101 -19.5t71 -54t42.5 -80.5t14.5 -98q0 -7 -0.5 -19.5t-2.5 -26.5h-337q5 -53 39.5 -80t86.5 -27q38 0 74 13.5t64 38.5l62 -84q-35 -27 -66 -44t-64.5 -24.5
t-76.5 -7.5zM379 267q2 8 3.5 16t1.5 15q0 21 -8 39.5t-22 32.5t-33.5 21.5t-44.5 7.5q-37 0 -62 -15t-37.5 -38.5t-15.5 -48.5h260zM275 532l-157 165h96l61 -70l61 70h95z" />
    <glyph glyph-name="Gcircumflex" unicode="&#x11c;" horiz-adv-x="735" 
d="M365 -16q-96 0 -169 46t-115 128t-42 191t42 190.5t117.5 127.5t174.5 46q111 0 191.5 -55.5t115.5 -152.5l-122 -45q-22 61 -69.5 95t-115.5 34q-62 0 -108.5 -29t-71 -82.5t-24.5 -128.5t24.5 -129t71 -83t108.5 -29q32 0 66 9t62.5 31.5t46 62.5t17.5 102v40l29 -90
h-200v116h286v-379h-114l-18 113l22 -17q-18 -37 -49 -62t-70.5 -37.5t-85.5 -12.5zM216 745l157 175l156 -175h-99l-57 69l-57 -69h-100z" />
    <glyph glyph-name="gcircumflex" unicode="&#x11d;" horiz-adv-x="522" 
d="M269 -214q-110 0 -173.5 39t-63.5 108q0 6 1 14.5t3 16.5l138 86l31 -35l-63 -77q-1 -3 -1 -5v-4q0 -28 35 -43t93 -15q49 0 75 12.5t26 36.5q0 13 -7 21t-23 13t-41.5 9t-61.5 9q-46 5 -90 18.5t-73 40t-29 70.5q0 39 27 71.5t71 53.5l60 -48q-27 -4 -40.5 -18
t-13.5 -33q0 -16 13 -25.5t37 -14.5t57 -9q51 -7 94.5 -15t76 -22.5t50 -39.5t17.5 -65q0 -73 -58.5 -111.5t-166.5 -38.5zM259 138q-62 0 -108.5 23.5t-72.5 64t-26 93.5q0 55 27.5 96.5t74 64.5t101.5 23q54 0 100.5 -23t75 -65.5t28.5 -99.5q0 -54 -25.5 -93.5
t-70.5 -61.5t-104 -22zM256 236q40 0 59.5 24.5t19.5 59.5q0 36 -21 58.5t-58 22.5t-58.5 -23t-21.5 -58t20 -59.5t60 -24.5zM425 389l-89 58l114 91l63 -77zM103 541l157 175l156 -175h-99l-57 69l-57 -69h-100z" />
    <glyph glyph-name="Gbreve" unicode="&#x11e;" horiz-adv-x="735" 
d="M365 -16q-96 0 -169 46t-115 128t-42 191t42 190.5t117.5 127.5t174.5 46q111 0 191.5 -55.5t115.5 -152.5l-122 -45q-22 61 -69.5 95t-115.5 34q-62 0 -108.5 -29t-71 -82.5t-24.5 -128.5t24.5 -129t71 -83t108.5 -29q32 0 66 9t62.5 31.5t46 62.5t17.5 102v40l29 -90
h-200v116h286v-379h-114l-18 113l22 -17q-18 -37 -49 -62t-70.5 -37.5t-85.5 -12.5zM372 738q-81 0 -118.5 34.5t-37.5 98.5h88q0 -31 20.5 -45.5t47.5 -14.5q30 0 49.5 15.5t19.5 44.5h88q0 -67 -39.5 -100t-117.5 -33z" />
    <glyph glyph-name="gbreve" unicode="&#x11f;" horiz-adv-x="522" 
d="M269 -214q-110 0 -173.5 39t-63.5 108q0 6 1 14.5t3 16.5l138 86l31 -35l-63 -77q-1 -3 -1 -5v-4q0 -28 35 -43t93 -15q49 0 75 12.5t26 36.5q0 13 -7 21t-23 13t-41.5 9t-61.5 9q-46 5 -90 18.5t-73 40t-29 70.5q0 39 27 71.5t71 53.5l60 -48q-27 -4 -40.5 -18
t-13.5 -33q0 -16 13 -25.5t37 -14.5t57 -9q51 -7 94.5 -15t76 -22.5t50 -39.5t17.5 -65q0 -73 -58.5 -111.5t-166.5 -38.5zM259 138q-62 0 -108.5 23.5t-72.5 64t-26 93.5q0 55 27.5 96.5t74 64.5t101.5 23q54 0 100.5 -23t75 -65.5t28.5 -99.5q0 -54 -25.5 -93.5
t-70.5 -61.5t-104 -22zM256 236q40 0 59.5 24.5t19.5 59.5q0 36 -21 58.5t-58 22.5t-58.5 -23t-21.5 -58t20 -59.5t60 -24.5zM425 389l-89 58l114 91l63 -77zM260 548q-81 0 -118.5 36.5t-37.5 112.5h80q0 -43 21 -60t55 -17q37 0 57 17.5t20 59.5h80q0 -80 -39.5 -114.5
t-117.5 -34.5z" />
    <glyph glyph-name="Gdotaccent" unicode="&#x120;" horiz-adv-x="735" 
d="M365 -16q-96 0 -169 46t-115 128t-42 191t42 190.5t117.5 127.5t174.5 46q111 0 191.5 -55.5t115.5 -152.5l-122 -45q-22 61 -69.5 95t-115.5 34q-62 0 -108.5 -29t-71 -82.5t-24.5 -128.5t24.5 -129t71 -83t108.5 -29q32 0 66 9t62.5 31.5t46 62.5t17.5 102v40l29 -90
h-200v116h286v-379h-114l-18 113l22 -17q-18 -37 -49 -62t-70.5 -37.5t-85.5 -12.5zM306 773v128h133v-128h-133z" />
    <glyph glyph-name="gdotaccent" unicode="&#x121;" horiz-adv-x="522" 
d="M269 -214q-110 0 -173.5 39t-63.5 108q0 6 1 14.5t3 16.5l138 86l31 -35l-63 -77q-1 -3 -1 -5v-4q0 -28 35 -43t93 -15q49 0 75 12.5t26 36.5q0 13 -7 21t-23 13t-41.5 9t-61.5 9q-46 5 -90 18.5t-73 40t-29 70.5q0 39 27 71.5t71 53.5l60 -48q-27 -4 -40.5 -18
t-13.5 -33q0 -16 13 -25.5t37 -14.5t57 -9q51 -7 94.5 -15t76 -22.5t50 -39.5t17.5 -65q0 -73 -58.5 -111.5t-166.5 -38.5zM259 138q-62 0 -108.5 23.5t-72.5 64t-26 93.5q0 55 27.5 96.5t74 64.5t101.5 23q54 0 100.5 -23t75 -65.5t28.5 -99.5q0 -54 -25.5 -93.5
t-70.5 -61.5t-104 -22zM256 236q40 0 59.5 24.5t19.5 59.5q0 36 -21 58.5t-58 22.5t-58.5 -23t-21.5 -58t20 -59.5t60 -24.5zM425 389l-89 58l114 91l63 -77zM194 569v128h133v-128h-133z" />
    <glyph glyph-name="uni0122" unicode="&#x122;" horiz-adv-x="735" 
d="M365 -16q-96 0 -169 46t-115 128t-42 191t42 190.5t117.5 127.5t174.5 46q111 0 191.5 -55.5t115.5 -152.5l-122 -45q-22 61 -69.5 95t-115.5 34q-62 0 -108.5 -29t-71 -82.5t-24.5 -128.5t24.5 -129t71 -83t108.5 -29q32 0 66 9t62.5 31.5t46 62.5t17.5 102v40l29 -90
h-200v116h286v-379h-114l-18 113l22 -17q-18 -37 -49 -62t-70.5 -37.5t-85.5 -12.5zM242 -204l65 151h130l-122 -151h-73z" />
    <glyph glyph-name="uni0123" unicode="&#x123;" horiz-adv-x="522" 
d="M269 -214q-110 0 -173.5 39t-63.5 108q0 6 1 14.5t3 16.5l138 86l31 -35l-63 -77q-1 -3 -1 -5v-4q0 -28 35 -43t93 -15q49 0 75 12.5t26 36.5q0 13 -7 21t-23 13t-41.5 9t-61.5 9q-46 5 -90 18.5t-73 40t-29 70.5q0 39 27 71.5t71 53.5l60 -48q-27 -4 -40.5 -18
t-13.5 -33q0 -16 13 -25.5t37 -14.5t57 -9q51 -7 94.5 -15t76 -22.5t50 -39.5t17.5 -65q0 -73 -58.5 -111.5t-166.5 -38.5zM259 138q-62 0 -108.5 23.5t-72.5 64t-26 93.5q0 55 27.5 96.5t74 64.5t101.5 23q54 0 100.5 -23t75 -65.5t28.5 -99.5q0 -54 -25.5 -93.5
t-70.5 -61.5t-104 -22zM256 236q40 0 59.5 24.5t19.5 59.5q0 36 -21 58.5t-58 22.5t-58.5 -23t-21.5 -58t20 -59.5t60 -24.5zM425 389l-89 58l114 91l63 -77zM163 552l122 156h73l-66 -156h-129z" />
    <glyph glyph-name="Hcircumflex" unicode="&#x124;" horiz-adv-x="693" 
d="M67 0v697h129v-279h301v279h129v-697h-129v299h-301v-299h-129zM190 745l157 175l156 -175h-99l-57 69l-57 -69h-100z" />
    <glyph glyph-name="hcircumflex" unicode="&#x125;" horiz-adv-x="564" 
d="M61 0v697h125v-316l-21 -3q13 45 38.5 72.5t59 40t67.5 12.5q84 0 131.5 -47.5t47.5 -133.5v-322h-125v276q0 62 -22 90.5t-69 28.5q-53 0 -80 -38t-27 -121v-236h-125zM-32 745l157 175l156 -175h-99l-57 69l-57 -69h-100z" />
    <glyph glyph-name="Hbar" unicode="&#x126;" horiz-adv-x="693" 
d="M67 0v697h129v-279h301v279h129v-697h-129v299h-301v-299h-129zM18 515v73h658v-73h-658z" />
    <glyph glyph-name="hbar" unicode="&#x127;" horiz-adv-x="564" 
d="M61 0v697h125v-316l-21 -3q13 45 38.5 72.5t59 40t67.5 12.5q84 0 131.5 -47.5t47.5 -133.5v-322h-125v276q0 62 -22 90.5t-69 28.5q-53 0 -80 -38t-27 -121v-236h-125zM12 551v83h328v-83h-328z" />
    <glyph glyph-name="Itilde" unicode="&#x128;" horiz-adv-x="263" 
d="M67 0v697h129v-697h-129zM194 742q-23 0 -39.5 6.5t-29 16t-22 19t-18.5 16t-19 6.5q-14 0 -22 -15.5t-8 -45.5h-72q0 61 29 95t78 34q21 0 36.5 -7t27 -16.5t21.5 -19t19.5 -16t20.5 -6.5t19.5 16t8.5 46h75q0 -62 -28.5 -95.5t-76.5 -33.5z" />
    <glyph glyph-name="itilde" unicode="&#x129;" horiz-adv-x="245" 
d="M60 0v493h124v-493h-124zM184 556q-29 0 -48 10t-32 23.5t-24 23.5t-24 10q-14 0 -22 -17t-8 -49h-72q0 69 29 106t78 37q26 0 44 -10.5t31.5 -24t25 -24t24.5 -10.5q11 0 19.5 17t8.5 49h75q0 -68 -28.5 -104.5t-76.5 -36.5z" />
    <glyph glyph-name="Imacron" unicode="&#x12a;" horiz-adv-x="263" 
d="M67 0v697h129v-697h-129zM-6 767v73h275v-73h-275z" />
    <glyph glyph-name="imacron" unicode="&#x12b;" horiz-adv-x="245" 
d="M60 0v493h124v-493h-124zM-15 563v73h275v-73h-275z" />
    <glyph glyph-name="Ibreve" unicode="&#x12c;" horiz-adv-x="263" 
d="M67 0v697h129v-697h-129zM132 738q-81 0 -118.5 34.5t-37.5 98.5h88q0 -31 20.5 -45.5t47.5 -14.5q30 0 49.5 15.5t19.5 44.5h88q0 -67 -39.5 -100t-117.5 -33z" />
    <glyph glyph-name="ibreve" unicode="&#x12d;" horiz-adv-x="245" 
d="M60 0v493h124v-493h-124zM122 548q-81 0 -118.5 36.5t-37.5 112.5h80q0 -43 21 -60t55 -17q37 0 57 17.5t20 59.5h80q0 -80 -39.5 -114.5t-117.5 -34.5z" />
    <glyph glyph-name="Iogonek" unicode="&#x12e;" horiz-adv-x="263" 
d="M67 0v697h129v-697h-129zM130 -204q-48 0 -80 25t-32 68q0 30 13.5 52t32.5 37t35 23l97 -1q-10 -4 -27 -13t-35 -22t-30 -29.5t-12 -35.5q0 -17 12 -27.5t29 -10.5q15 0 31.5 8t31.5 25l43 -45q-19 -23 -45.5 -38.5t-63.5 -15.5z" />
    <glyph glyph-name="iogonek" unicode="&#x12f;" horiz-adv-x="245" 
d="M60 0v493h124v-493h-124zM56 569v128h133v-128h-133zM118 -204q-48 0 -80 25t-32 68q0 30 13.5 52t32.5 37t35 23l97 -1q-10 -4 -27 -13t-35 -22t-30 -29.5t-12 -35.5q0 -17 12 -27.5t29 -10.5q15 0 31.5 8t31.5 25l43 -45q-19 -23 -45.5 -38.5t-63.5 -15.5z" />
    <glyph glyph-name="Idotaccent" unicode="&#x130;" horiz-adv-x="263" 
d="M67 0v697h129v-697h-129zM66 773v128h133v-128h-133z" />
    <glyph glyph-name="dotlessi" unicode="&#x131;" horiz-adv-x="245" 
d="M60 0v493h124v-493h-124z" />
    <glyph glyph-name="IJ" unicode="&#x132;" horiz-adv-x="819" 
d="M67 0v697h129v-697h-129zM521 -16q-101 0 -165.5 62t-71.5 173l128 13q4 -68 31.5 -98t77.5 -30q59 0 82.5 38.5t23.5 106.5v332h-261v116h391v-455q0 -80 -28.5 -137.5t-81.5 -89t-126 -31.5z" />
    <glyph glyph-name="ij" unicode="&#x133;" horiz-adv-x="490" 
d="M60 0v493h124v-493h-124zM56 569v128h133v-128h-133zM308 -214q-20 0 -43 4t-45 11v108q13 -4 24 -5.5t19 -1.5q20 0 31 9.5t11 37.5v544h124v-578q0 -66 -33 -97.5t-88 -31.5zM302 569v128h133v-128h-133z" />
    <glyph glyph-name="Jcircumflex" unicode="&#x134;" horiz-adv-x="556" 
d="M258 -16q-101 0 -165.5 62t-71.5 173l128 13q4 -68 31.5 -98t77.5 -30q59 0 82.5 38.5t23.5 106.5v332h-261v116h391v-455q0 -80 -28.5 -137.5t-81.5 -89t-126 -31.5zM143 745l157 175l156 -175h-99l-57 69l-57 -69h-100z" />
    <glyph glyph-name="jcircumflex" unicode="&#x135;" horiz-adv-x="245" 
d="M63 -214q-20 0 -43 4t-45 11v108q13 -4 24 -5.5t19 -1.5q20 0 31 9.5t11 37.5v544h124v-578q0 -66 -33 -97.5t-88 -31.5zM-34 541l157 175l156 -175h-99l-57 69l-57 -69h-100z" />
    <glyph glyph-name="uni0136" unicode="&#x136;" horiz-adv-x="663" 
d="M170 210v164l306 323h174zM67 0v697h129v-697h-129zM499 0l-220 351l96 90l277 -441h-153zM201 -204l65 151h130l-122 -151h-73z" />
    <glyph glyph-name="uni0137" unicode="&#x137;" horiz-adv-x="560" 
d="M395 0l-143 225l-77 -86v155l189 199h158l-179 -184l200 -309h-148zM61 0v697h125v-697h-125zM155 -204l65 151h130l-122 -151h-73z" />
    <glyph glyph-name="kgreenlandic" unicode="&#x138;" horiz-adv-x="572" 
d="M394 0l-142 225l-77 -86v155l188 199h159l-179 -184l199 -309h-148zM61 0v493h125v-493h-125z" />
    <glyph glyph-name="Lacute" unicode="&#x139;" horiz-adv-x="504" 
d="M67 0v697h129v-581h297v-116h-426zM86 759l112 142h133l-154 -142h-91z" />
    <glyph glyph-name="lacute" unicode="&#x13a;" horiz-adv-x="266" 
d="M176 -10q-51 0 -84 31t-33 98v578h123v-554q0 -21 10 -29.5t26 -8.5q8 0 17 1.5t19 4.5v-106q-21 -8 -41.5 -11.5t-36.5 -3.5zM74 759l112 142h133l-154 -142h-91z" />
    <glyph glyph-name="uni013B" unicode="&#x13b;" horiz-adv-x="504" 
d="M67 0v697h129v-581h297v-116h-426zM137 -204l65 151h130l-122 -151h-73z" />
    <glyph glyph-name="uni013C" unicode="&#x13c;" horiz-adv-x="266" 
d="M176 -10q-51 0 -84 31t-33 98v578h123v-554q0 -21 10 -29.5t26 -8.5q8 0 17 1.5t19 4.5v-106q-21 -8 -41.5 -11.5t-36.5 -3.5zM9 -204l65 151h130l-122 -151h-73z" />
    <glyph glyph-name="Lcaron" unicode="&#x13d;" horiz-adv-x="504" 
d="M67 0v697h129v-581h297v-116h-426zM330 471l56 226h130l-113 -226h-73z" />
    <glyph glyph-name="lcaron" unicode="&#x13e;" horiz-adv-x="390" 
d="M176 -10q-51 0 -84 31t-33 98v578h123v-554q0 -21 10 -29.5t26 -8.5q8 0 17 1.5t19 4.5v-106q-21 -8 -41.5 -11.5t-36.5 -3.5zM226 471l56 226h130l-113 -226h-73z" />
    <glyph glyph-name="Ldot" unicode="&#x13f;" horiz-adv-x="574" 
d="M67 0v697h129v-581h297v-116h-426zM415 282v132h124v-132h-124z" />
    <glyph glyph-name="ldot" unicode="&#x140;" horiz-adv-x="408" 
d="M176 -10q-51 0 -84 31t-33 98v578h123v-554q0 -21 10 -29.5t26 -8.5q8 0 17 1.5t19 4.5v-106q-21 -8 -41.5 -11.5t-36.5 -3.5zM270 283v132h124v-132h-124z" />
    <glyph glyph-name="Lslash" unicode="&#x141;" horiz-adv-x="504" 
d="M67 0v697h129v-581h297v-116h-426zM11 154l-1 128l294 232v-127z" />
    <glyph glyph-name="lslash" unicode="&#x142;" horiz-adv-x="266" 
d="M176 -10q-51 0 -84 31t-33 98v578h123v-554q0 -21 10 -29.5t26 -8.5q8 0 17 1.5t19 4.5v-106q-21 -8 -41.5 -11.5t-36.5 -3.5zM4 213v116l250 184v-114z" />
    <glyph glyph-name="Nacute" unicode="&#x143;" horiz-adv-x="689" 
d="M67 0v697h133l325 -528h-32v528h129v-697h-134l-324 529h32v-529h-129zM298 759l112 142h133l-154 -142h-91z" />
    <glyph glyph-name="nacute" unicode="&#x144;" horiz-adv-x="564" 
d="M61 0v493h125v-112l-20 -2q13 45 38 72t58 39.5t68 12.5q84 0 131.5 -47.5t47.5 -133.5v-322h-125v276q0 62 -22 90.5t-69 28.5q-36 0 -59.5 -16.5t-35.5 -51.5t-12 -91v-236h-125zM229 555l112 142h133l-154 -142h-91z" />
    <glyph glyph-name="uni0145" unicode="&#x145;" horiz-adv-x="689" 
d="M67 0v697h133l325 -528h-32v528h129v-697h-134l-324 529h32v-529h-129zM213 -204l65 151h130l-122 -151h-73z" />
    <glyph glyph-name="uni0146" unicode="&#x146;" horiz-adv-x="564" 
d="M61 0v493h125v-112l-20 -2q13 45 38 72t58 39.5t68 12.5q84 0 131.5 -47.5t47.5 -133.5v-322h-125v276q0 62 -22 90.5t-69 28.5q-36 0 -59.5 -16.5t-35.5 -51.5t-12 -91v-236h-125zM146 -204l65 151h130l-122 -151h-73z" />
    <glyph glyph-name="Ncaron" unicode="&#x147;" horiz-adv-x="689" 
d="M67 0v697h133l325 -528h-32v528h129v-697h-134l-324 529h32v-529h-129zM344 736l-157 165h96l61 -70l61 70h95z" />
    <glyph glyph-name="ncaron" unicode="&#x148;" horiz-adv-x="564" 
d="M61 0v493h125v-112l-20 -2q13 45 38 72t58 39.5t68 12.5q84 0 131.5 -47.5t47.5 -133.5v-322h-125v276q0 62 -22 90.5t-69 28.5q-36 0 -59.5 -16.5t-35.5 -51.5t-12 -91v-236h-125zM276 532l-157 165h96l61 -70l61 70h95z" />
    <glyph glyph-name="napostrophe" unicode="&#x149;" horiz-adv-x="690" 
d="M-4 419l64 278h144l-126 -278h-82zM183 0v493h125v-112l-20 -2q13 45 38 72t58 39.5t68 12.5q84 0 131.5 -47.5t47.5 -133.5v-322h-125v276q0 62 -22 90.5t-69 28.5q-36 0 -59.5 -16.5t-35.5 -51.5t-12 -91v-236h-125z" />
    <glyph glyph-name="Eng" unicode="&#x14a;" horiz-adv-x="689" 
d="M449 -183q-16 0 -33 1t-38 4l1 83q9 -2 18 -3t17 -1q43 0 63.5 18.5t20.5 42.5q0 9 -2 18.5t-8 19.5l-320 515h28v-515h-129v697h133l321 -512h-28v512h129v-696q0 -46 -16.5 -88.5t-54.5 -69t-102 -26.5z" />
    <glyph glyph-name="eng" unicode="&#x14b;" horiz-adv-x="613" 
d="M419 -214q-19 0 -38 3.5t-41 11.5v100q13 -4 21.5 -5.5t15.5 -1.5q17 0 25.5 8t8.5 30v362q0 10 -2 26.5t-11 34t-28 29t-53 11.5q-43 0 -65.5 -19.5t-30.5 -49.5t-8 -62.5v-59.5v-204h-125v493h125v-129l-26 26q22 61 67 87t103 26q82 0 130 -45t48 -130v-413
q0 -66 -32.5 -97.5t-83.5 -31.5z" />
    <glyph glyph-name="Omacron" unicode="&#x14c;" horiz-adv-x="747" 
d="M373 -16q-99 0 -174.5 45.5t-117.5 127.5t-42 191q0 110 42 192t117.5 127.5t174.5 45.5q100 0 175.5 -45.5t117.5 -127.5t42 -192q0 -109 -42.5 -191t-118 -127.5t-174.5 -45.5zM372 108q64 0 109.5 29.5t70.5 83.5t25 127q0 74 -25 128t-70.5 83.5t-109.5 29.5
q-61 0 -107.5 -29t-71 -83t-24.5 -129q0 -74 24.5 -128t71 -83t107.5 -29zM235 767v73h275v-73h-275z" />
    <glyph glyph-name="omacron" unicode="&#x14d;" horiz-adv-x="572" 
d="M287 -10q-72 0 -128 33t-88.5 91.5t-32.5 132.5q0 75 32 132.5t88.5 90.5t128.5 33q71 0 127 -33t88 -90.5t32 -132.5q0 -74 -32 -132t-88 -91.5t-127 -33.5zM287 99q38 0 65.5 18t42 51t14.5 79q0 47 -14.5 79.5t-42 50t-65.5 17.5q-39 0 -67 -17.5t-43 -50t-15 -79.5
q0 -46 15 -79t43 -51t67 -18zM149 563v73h275v-73h-275z" />
    <glyph glyph-name="Obreve" unicode="&#x14e;" horiz-adv-x="747" 
d="M373 -16q-99 0 -174.5 45.5t-117.5 127.5t-42 191q0 110 42 192t117.5 127.5t174.5 45.5q100 0 175.5 -45.5t117.5 -127.5t42 -192q0 -109 -42.5 -191t-118 -127.5t-174.5 -45.5zM372 108q64 0 109.5 29.5t70.5 83.5t25 127q0 74 -25 128t-70.5 83.5t-109.5 29.5
q-61 0 -107.5 -29t-71 -83t-24.5 -129q0 -74 24.5 -128t71 -83t107.5 -29zM373 738q-81 0 -118.5 34.5t-37.5 98.5h88q0 -31 20.5 -45.5t47.5 -14.5q30 0 49.5 15.5t19.5 44.5h88q0 -67 -39.5 -100t-117.5 -33z" />
    <glyph glyph-name="obreve" unicode="&#x14f;" horiz-adv-x="572" 
d="M287 -10q-72 0 -128 33t-88.5 91.5t-32.5 132.5q0 75 32 132.5t88.5 90.5t128.5 33q71 0 127 -33t88 -90.5t32 -132.5q0 -74 -32 -132t-88 -91.5t-127 -33.5zM287 99q38 0 65.5 18t42 51t14.5 79q0 47 -14.5 79.5t-42 50t-65.5 17.5q-39 0 -67 -17.5t-43 -50t-15 -79.5
q0 -46 15 -79t43 -51t67 -18zM286 548q-81 0 -118.5 36.5t-37.5 112.5h80q0 -43 21 -60t55 -17q37 0 57 17.5t20 59.5h80q0 -80 -39.5 -114.5t-117.5 -34.5z" />
    <glyph glyph-name="Ohungarumlaut" unicode="&#x150;" horiz-adv-x="747" 
d="M373 -16q-99 0 -174.5 45.5t-117.5 127.5t-42 191q0 110 42 192t117.5 127.5t174.5 45.5q100 0 175.5 -45.5t117.5 -127.5t42 -192q0 -109 -42.5 -191t-118 -127.5t-174.5 -45.5zM372 108q64 0 109.5 29.5t70.5 83.5t25 127q0 74 -25 128t-70.5 83.5t-109.5 29.5
q-61 0 -107.5 -29t-71 -83t-24.5 -129q0 -74 24.5 -128t71 -83t107.5 -29zM425 737l111 164h132l-152 -164h-91zM231 737l112 164h111l-132 -164h-91z" />
    <glyph glyph-name="ohungarumlaut" unicode="&#x151;" horiz-adv-x="572" 
d="M287 -10q-72 0 -128 33t-88.5 91.5t-32.5 132.5q0 75 32 132.5t88.5 90.5t128.5 33q71 0 127 -33t88 -90.5t32 -132.5q0 -74 -32 -132t-88 -91.5t-127 -33.5zM287 99q38 0 65.5 18t42 51t14.5 79q0 47 -14.5 79.5t-42 50t-65.5 17.5q-39 0 -67 -17.5t-43 -50t-15 -79.5
q0 -46 15 -79t43 -51t67 -18zM338 533l111 164h132l-152 -164h-91zM144 533l112 164h111l-132 -164h-91z" />
    <glyph glyph-name="OE" unicode="&#x152;" horiz-adv-x="987" 
d="M404 0q-177 0 -271 88.5t-94 254.5q0 170 95 262t269 92h538v-116h-335v-166h312v-115h-312v-184h335v-116h-537zM417 119h59v459h-71q-73 0 -126 -21.5t-81 -72t-28 -136.5q0 -89 29 -139t84.5 -70t133.5 -20z" />
    <glyph glyph-name="oe" unicode="&#x153;" horiz-adv-x="911" 
d="M651 -10q-64 0 -110 21t-75.5 56.5t-43.5 81t-14 95.5q0 48 14 94t42 83t72.5 59.5t106.5 22.5q58 0 101 -19.5t71 -54t42.5 -80.5t14.5 -98q0 -7 -0.5 -19.5t-2.5 -26.5h-337q5 -53 39.5 -80t86.5 -27q38 0 74 13.5t64 38.5l62 -84q-35 -27 -66 -44t-64.5 -24.5
t-76.5 -7.5zM749 267q2 8 3.5 16t1.5 15q0 21 -8 39.5t-22 32.5t-33.5 21.5t-44.5 7.5q-37 0 -62 -15t-37.5 -38.5t-15.5 -48.5h260zM287 -10q-72 0 -128 33t-88.5 91.5t-32.5 132.5q0 75 32 132.5t88.5 90.5t128.5 33q71 0 127 -33t88 -90.5t32 -132.5q0 -74 -32 -132
t-88 -91.5t-127 -33.5zM287 99q38 0 65.5 18t42 51t14.5 79q0 47 -14.5 79.5t-42 50t-65.5 17.5q-39 0 -67 -17.5t-43 -50t-15 -79.5q0 -46 15 -79t43 -51t67 -18z" />
    <glyph glyph-name="Racute" unicode="&#x154;" horiz-adv-x="612" 
d="M67 0v697h230q85 0 137 -24.5t76.5 -70t24.5 -107.5q0 -96 -54.5 -148.5t-155.5 -58.5q-23 -1 -47 -1h-41h-41v-287h-129zM446 0l-175 302l132 16l192 -318h-149zM196 403h88q33 0 60.5 7.5t44.5 27t17 55.5q0 37 -17 56t-44.5 25.5t-60.5 6.5h-88v-178zM246 759l112 142
h133l-154 -142h-91z" />
    <glyph glyph-name="racute" unicode="&#x155;" horiz-adv-x="426" 
d="M61 0v493h125v-134l-19 -2q3 43 26 76t56.5 51.5t68.5 18.5q25 0 47.5 -6.5t46.5 -21.5l-60 -112q-11 6 -28 11t-34 5q-20 0 -38.5 -7t-33 -22t-23.5 -40q-4 -14 -6.5 -35.5t-2.5 -62.5v-212h-125zM150 555l112 142h133l-154 -142h-91z" />
    <glyph glyph-name="uni0156" unicode="&#x156;" horiz-adv-x="612" 
d="M67 0v697h230q85 0 137 -24.5t76.5 -70t24.5 -107.5q0 -96 -54.5 -148.5t-155.5 -58.5q-23 -1 -47 -1h-41h-41v-287h-129zM446 0l-175 302l132 16l192 -318h-149zM196 403h88q33 0 60.5 7.5t44.5 27t17 55.5q0 37 -17 56t-44.5 25.5t-60.5 6.5h-88v-178zM161 -204l65 151
h130l-122 -151h-73z" />
    <glyph glyph-name="uni0157" unicode="&#x157;" horiz-adv-x="426" 
d="M61 0v493h125v-134l-19 -2q3 43 26 76t56.5 51.5t68.5 18.5q25 0 47.5 -6.5t46.5 -21.5l-60 -112q-11 6 -28 11t-34 5q-20 0 -38.5 -7t-33 -22t-23.5 -40q-4 -14 -6.5 -35.5t-2.5 -62.5v-212h-125zM66 -204l65 151h130l-122 -151h-73z" />
    <glyph glyph-name="Rcaron" unicode="&#x158;" horiz-adv-x="612" 
d="M67 0v697h230q85 0 137 -24.5t76.5 -70t24.5 -107.5q0 -96 -54.5 -148.5t-155.5 -58.5q-23 -1 -47 -1h-41h-41v-287h-129zM446 0l-175 302l132 16l192 -318h-149zM196 403h88q33 0 60.5 7.5t44.5 27t17 55.5q0 37 -17 56t-44.5 25.5t-60.5 6.5h-88v-178zM292 736
l-157 165h96l61 -70l61 70h95z" />
    <glyph glyph-name="rcaron" unicode="&#x159;" horiz-adv-x="426" 
d="M61 0v493h125v-134l-19 -2q3 43 26 76t56.5 51.5t68.5 18.5q25 0 47.5 -6.5t46.5 -21.5l-60 -112q-11 6 -28 11t-34 5q-20 0 -38.5 -7t-33 -22t-23.5 -40q-4 -14 -6.5 -35.5t-2.5 -62.5v-212h-125zM196 532l-157 165h96l61 -70l61 70h95z" />
    <glyph glyph-name="Sacute" unicode="&#x15a;" horiz-adv-x="575" 
d="M297 -13q-111 0 -182.5 58t-86.5 154l126 31q11 -64 50.5 -96t97.5 -32q31 0 55.5 10.5t39 31t14.5 48.5q0 26 -15 45t-45.5 35t-76.5 33q-66 26 -110.5 55.5t-66.5 68.5t-22 92q0 56 27.5 99t77 68t115.5 25q70 0 124.5 -32.5t87.5 -96.5l-103 -63q-21 38 -49.5 57.5
t-63.5 19.5q-25 0 -44.5 -9.5t-31 -26t-11.5 -38.5q0 -23 13.5 -41t44 -34.5t79.5 -34.5q65 -24 108.5 -53t66.5 -67.5t23 -93.5q0 -62 -30.5 -110.5t-84.5 -75.5t-127 -27zM241 759l112 142h133l-154 -142h-91z" />
    <glyph glyph-name="sacute" unicode="&#x15b;" horiz-adv-x="472" 
d="M232 -10q-55 0 -96 16t-69.5 40t-45.5 46l85 74q17 -28 48.5 -51.5t78.5 -23.5q37 0 57.5 14.5t20.5 36.5q0 18 -13 29.5t-35 19t-49 14.5q-28 8 -58 18t-55 26.5t-40.5 42.5t-15.5 65q0 65 51 105.5t135 40.5q59 0 107 -23.5t76 -67.5l-77 -61q-18 29 -47.5 43.5
t-62.5 14.5q-29 0 -47.5 -11t-18.5 -30q0 -13 8.5 -22t28 -15.5t51.5 -14.5q30 -7 62 -17t60 -27t45 -45t17 -71q0 -49 -25 -86.5t-70 -58.5t-106 -21zM189 555l112 142h133l-154 -142h-91z" />
    <glyph glyph-name="Scircumflex" unicode="&#x15c;" horiz-adv-x="575" 
d="M297 -13q-111 0 -182.5 58t-86.5 154l126 31q11 -64 50.5 -96t97.5 -32q31 0 55.5 10.5t39 31t14.5 48.5q0 26 -15 45t-45.5 35t-76.5 33q-66 26 -110.5 55.5t-66.5 68.5t-22 92q0 56 27.5 99t77 68t115.5 25q70 0 124.5 -32.5t87.5 -96.5l-103 -63q-21 38 -49.5 57.5
t-63.5 19.5q-25 0 -44.5 -9.5t-31 -26t-11.5 -38.5q0 -23 13.5 -41t44 -34.5t79.5 -34.5q65 -24 108.5 -53t66.5 -67.5t23 -93.5q0 -62 -30.5 -110.5t-84.5 -75.5t-127 -27zM131 745l157 175l156 -175h-99l-57 69l-57 -69h-100z" />
    <glyph glyph-name="scircumflex" unicode="&#x15d;" horiz-adv-x="472" 
d="M232 -10q-55 0 -96 16t-69.5 40t-45.5 46l85 74q17 -28 48.5 -51.5t78.5 -23.5q37 0 57.5 14.5t20.5 36.5q0 18 -13 29.5t-35 19t-49 14.5q-28 8 -58 18t-55 26.5t-40.5 42.5t-15.5 65q0 65 51 105.5t135 40.5q59 0 107 -23.5t76 -67.5l-77 -61q-18 29 -47.5 43.5
t-62.5 14.5q-29 0 -47.5 -11t-18.5 -30q0 -13 8.5 -22t28 -15.5t51.5 -14.5q30 -7 62 -17t60 -27t45 -45t17 -71q0 -49 -25 -86.5t-70 -58.5t-106 -21zM78 541l157 175l156 -175h-99l-57 69l-57 -69h-100z" />
    <glyph glyph-name="Scedilla" unicode="&#x15e;" horiz-adv-x="575" 
d="M297 -13q-111 0 -182.5 58t-86.5 154l126 31q11 -64 50.5 -96t97.5 -32q31 0 55.5 10.5t39 31t14.5 48.5q0 26 -15 45t-45.5 35t-76.5 33q-66 26 -110.5 55.5t-66.5 68.5t-22 92q0 56 27.5 99t77 68t115.5 25q70 0 124.5 -32.5t87.5 -96.5l-103 -63q-21 38 -49.5 57.5
t-63.5 19.5q-25 0 -44.5 -9.5t-31 -26t-11.5 -38.5q0 -23 13.5 -41t44 -34.5t79.5 -34.5q65 -24 108.5 -53t66.5 -67.5t23 -93.5q0 -62 -30.5 -110.5t-84.5 -75.5t-127 -27zM266 -204q-12 0 -29.5 2.5t-35 8t-29.5 13.5l32 51q13 -7 28 -11.5t28 -4.5q17 0 29 7t12 23
q0 13 -9.5 21t-25.5 12t-34.5 5t-36.5 1l62 87l59 -1l-37 -46q43 -6 68.5 -26t25.5 -54q0 -40 -30.5 -64t-76.5 -24z" />
    <glyph glyph-name="scedilla" unicode="&#x15f;" horiz-adv-x="472" 
d="M232 -10q-55 0 -96 16t-69.5 40t-45.5 46l85 74q17 -28 48.5 -51.5t78.5 -23.5q37 0 57.5 14.5t20.5 36.5q0 18 -13 29.5t-35 19t-49 14.5q-28 8 -58 18t-55 26.5t-40.5 42.5t-15.5 65q0 65 51 105.5t135 40.5q59 0 107 -23.5t76 -67.5l-77 -61q-18 29 -47.5 43.5
t-62.5 14.5q-29 0 -47.5 -11t-18.5 -30q0 -13 8.5 -22t28 -15.5t51.5 -14.5q30 -7 62 -17t60 -27t45 -45t17 -71q0 -49 -25 -86.5t-70 -58.5t-106 -21zM214 -204q-12 0 -29.5 2.5t-35 8t-29.5 13.5l32 51q13 -7 28 -11.5t28 -4.5q17 0 29 7t12 23q0 13 -9.5 21t-25.5 12
t-34.5 5t-36.5 1l62 87l59 -1l-37 -46q43 -6 68.5 -26t25.5 -54q0 -40 -30.5 -64t-76.5 -24z" />
    <glyph glyph-name="Scaron" unicode="&#x160;" horiz-adv-x="575" 
d="M297 -13q-111 0 -182.5 58t-86.5 154l126 31q11 -64 50.5 -96t97.5 -32q31 0 55.5 10.5t39 31t14.5 48.5q0 26 -15 45t-45.5 35t-76.5 33q-66 26 -110.5 55.5t-66.5 68.5t-22 92q0 56 27.5 99t77 68t115.5 25q70 0 124.5 -32.5t87.5 -96.5l-103 -63q-21 38 -49.5 57.5
t-63.5 19.5q-25 0 -44.5 -9.5t-31 -26t-11.5 -38.5q0 -23 13.5 -41t44 -34.5t79.5 -34.5q65 -24 108.5 -53t66.5 -67.5t23 -93.5q0 -62 -30.5 -110.5t-84.5 -75.5t-127 -27zM288 736l-157 165h96l61 -70l61 70h95z" />
    <glyph glyph-name="scaron" unicode="&#x161;" horiz-adv-x="472" 
d="M232 -10q-55 0 -96 16t-69.5 40t-45.5 46l85 74q17 -28 48.5 -51.5t78.5 -23.5q37 0 57.5 14.5t20.5 36.5q0 18 -13 29.5t-35 19t-49 14.5q-28 8 -58 18t-55 26.5t-40.5 42.5t-15.5 65q0 65 51 105.5t135 40.5q59 0 107 -23.5t76 -67.5l-77 -61q-18 29 -47.5 43.5
t-62.5 14.5q-29 0 -47.5 -11t-18.5 -30q0 -13 8.5 -22t28 -15.5t51.5 -14.5q30 -7 62 -17t60 -27t45 -45t17 -71q0 -49 -25 -86.5t-70 -58.5t-106 -21zM235 532l-157 165h96l61 -70l61 70h95z" />
    <glyph glyph-name="uni0162" unicode="&#x162;" horiz-adv-x="584" 
d="M227 0v581h-216v116h562v-116h-215v-581h-131zM271 -204q-12 0 -29.5 2.5t-35 8t-29.5 13.5l32 51q13 -7 28 -11.5t28 -4.5q17 0 29 7t12 23q0 13 -9.5 21t-25.5 12t-34.5 5t-36.5 1l62 87l59 -1l-37 -46q43 -6 68.5 -26t25.5 -54q0 -40 -30.5 -64t-76.5 -24z" />
    <glyph glyph-name="uni0163" unicode="&#x163;" horiz-adv-x="349" 
d="M249 -10q-40 0 -74 15t-54.5 49t-20.5 91v463l126 67v-496q0 -43 11.5 -65t45.5 -22q10 0 22.5 2t27.5 6v-95q-21 -8 -42 -11.5t-42 -3.5zM10 396v97h323v-97h-323zM199 -204q-12 0 -29.5 2.5t-35 8t-29.5 13.5l32 51q13 -7 28 -11.5t28 -4.5q17 0 29 7t12 23
q0 13 -9.5 21t-25.5 12t-34.5 5t-36.5 1l62 87l59 -1l-37 -46q43 -6 68.5 -26t25.5 -54q0 -40 -30.5 -64t-76.5 -24z" />
    <glyph glyph-name="Tcaron" unicode="&#x164;" horiz-adv-x="584" 
d="M227 0v581h-216v116h562v-116h-215v-581h-131zM292 736l-157 165h96l61 -70l61 70h95z" />
    <glyph glyph-name="tcaron" unicode="&#x165;" horiz-adv-x="494" 
d="M249 -10q-40 0 -74 15t-54.5 49t-20.5 91v463l126 67v-496q0 -43 11.5 -65t45.5 -22q10 0 22.5 2t27.5 6v-95q-21 -8 -42 -11.5t-42 -3.5zM10 396v97h323v-97h-323zM279 543l56 226h130l-113 -226h-73z" />
    <glyph glyph-name="Tbar" unicode="&#x166;" horiz-adv-x="584" 
d="M227 0v581h-216v116h562v-116h-215v-581h-131zM128 308v83h328v-83h-328z" />
    <glyph glyph-name="tbar" unicode="&#x167;" horiz-adv-x="384" 
d="M261 -10q-39 0 -73.5 15t-55 49t-20.5 91v463l126 67v-496q0 -43 11.5 -65t45.5 -22q10 0 22.5 2t27.5 6v-95q-21 -8 -42 -11.5t-42 -3.5zM22 206v84h323v-84h-323zM22 396v97h323v-97h-323z" />
    <glyph glyph-name="Utilde" unicode="&#x168;" horiz-adv-x="657" 
d="M328 -16q-132 0 -199.5 67t-67.5 201v445h129v-430q0 -54 11.5 -90.5t42 -55t84.5 -18.5t84.5 18.5t42.5 55t12 89.5v431h129v-440q0 -136 -68 -204.5t-200 -68.5zM391 742q-23 0 -39.5 6.5t-29 16t-22 19t-18.5 16t-19 6.5q-14 0 -22 -15.5t-8 -45.5h-72q0 61 29 95
t78 34q21 0 36.5 -7t27 -16.5t21.5 -19t19.5 -16t20.5 -6.5t19.5 16t8.5 46h75q0 -62 -28.5 -95.5t-76.5 -33.5z" />
    <glyph glyph-name="utilde" unicode="&#x169;" horiz-adv-x="564" 
d="M235 -10q-60 0 -100.5 24t-60 68t-19.5 103v308h124v-277q0 -34 8 -60.5t28.5 -42t56.5 -15.5q44 0 66.5 25t31 69.5t8.5 104.5v196h124v-493h-124v107l17 -10q-22 -57 -65 -82t-95 -25zM340 556q-29 0 -48 10t-32 23.5t-24 23.5t-24 10q-14 0 -22 -17t-8 -49h-72
q0 69 29 106t78 37q26 0 44 -10.5t31.5 -24t25 -24t24.5 -10.5q11 0 19.5 17t8.5 49h75q0 -68 -28.5 -104.5t-76.5 -36.5z" />
    <glyph glyph-name="Umacron" unicode="&#x16a;" horiz-adv-x="657" 
d="M328 -16q-132 0 -199.5 67t-67.5 201v445h129v-430q0 -54 11.5 -90.5t42 -55t84.5 -18.5t84.5 18.5t42.5 55t12 89.5v431h129v-440q0 -136 -68 -204.5t-200 -68.5zM191 767v73h275v-73h-275z" />
    <glyph glyph-name="umacron" unicode="&#x16b;" horiz-adv-x="564" 
d="M235 -10q-60 0 -100.5 24t-60 68t-19.5 103v308h124v-277q0 -34 8 -60.5t28.5 -42t56.5 -15.5q44 0 66.5 25t31 69.5t8.5 104.5v196h124v-493h-124v107l17 -10q-22 -57 -65 -82t-95 -25zM140 563v73h275v-73h-275z" />
    <glyph glyph-name="Ubreve" unicode="&#x16c;" horiz-adv-x="657" 
d="M328 -16q-132 0 -199.5 67t-67.5 201v445h129v-430q0 -54 11.5 -90.5t42 -55t84.5 -18.5t84.5 18.5t42.5 55t12 89.5v431h129v-440q0 -136 -68 -204.5t-200 -68.5zM329 738q-81 0 -118.5 34.5t-37.5 98.5h88q0 -31 20.5 -45.5t47.5 -14.5q30 0 49.5 15.5t19.5 44.5h88
q0 -67 -39.5 -100t-117.5 -33z" />
    <glyph glyph-name="ubreve" unicode="&#x16d;" horiz-adv-x="564" 
d="M235 -10q-60 0 -100.5 24t-60 68t-19.5 103v308h124v-277q0 -34 8 -60.5t28.5 -42t56.5 -15.5q44 0 66.5 25t31 69.5t8.5 104.5v196h124v-493h-124v107l17 -10q-22 -57 -65 -82t-95 -25zM278 548q-81 0 -118.5 36.5t-37.5 112.5h80q0 -43 21 -60t55 -17q37 0 57 17.5
t20 59.5h80q0 -80 -39.5 -114.5t-117.5 -34.5z" />
    <glyph glyph-name="Uring" unicode="&#x16e;" horiz-adv-x="657" 
d="M328 -16q-132 0 -199.5 67t-67.5 201v445h129v-430q0 -54 11.5 -90.5t42 -55t84.5 -18.5t84.5 18.5t42.5 55t12 89.5v431h129v-440q0 -136 -68 -204.5t-200 -68.5zM330 676q-33 0 -59 16.5t-41.5 42.5t-15.5 57t15.5 57t42 42t57.5 16t57.5 -15.5t42.5 -41.5t16 -58
t-16 -58.5t-42 -42t-57 -15.5zM330 743q21 0 34.5 14.5t13.5 35.5t-13 34t-35 13q-23 0 -35.5 -13.5t-12.5 -33.5q0 -21 13.5 -35.5t34.5 -14.5z" />
    <glyph glyph-name="uring" unicode="&#x16f;" horiz-adv-x="564" 
d="M235 -10q-60 0 -100.5 24t-60 68t-19.5 103v308h124v-277q0 -34 8 -60.5t28.5 -42t56.5 -15.5q44 0 66.5 25t31 69.5t8.5 104.5v196h124v-493h-124v107l17 -10q-22 -57 -65 -82t-95 -25zM279 526q-33 0 -59 16.5t-41.5 42.5t-15.5 57t15.5 57t42 42t57.5 16t57.5 -15.5
t42.5 -41.5t16 -58t-16 -58.5t-42 -42t-57 -15.5zM279 593q21 0 34.5 14.5t13.5 35.5t-13 34t-35 13q-23 0 -35.5 -13.5t-12.5 -33.5q0 -21 13.5 -35.5t34.5 -14.5z" />
    <glyph glyph-name="Uhungarumlaut" unicode="&#x170;" horiz-adv-x="657" 
d="M328 -16q-132 0 -199.5 67t-67.5 201v445h129v-430q0 -54 11.5 -90.5t42 -55t84.5 -18.5t84.5 18.5t42.5 55t12 89.5v431h129v-440q0 -136 -68 -204.5t-200 -68.5zM381 737l111 164h132l-152 -164h-91zM187 737l112 164h111l-132 -164h-91z" />
    <glyph glyph-name="uhungarumlaut" unicode="&#x171;" horiz-adv-x="564" 
d="M235 -10q-60 0 -100.5 24t-60 68t-19.5 103v308h124v-277q0 -34 8 -60.5t28.5 -42t56.5 -15.5q44 0 66.5 25t31 69.5t8.5 104.5v196h124v-493h-124v107l17 -10q-22 -57 -65 -82t-95 -25zM330 533l111 164h132l-152 -164h-91zM136 533l112 164h111l-132 -164h-91z" />
    <glyph glyph-name="Uogonek" unicode="&#x172;" horiz-adv-x="657" 
d="M328 -16q-132 0 -199.5 67t-67.5 201v445h129v-430q0 -54 11.5 -90.5t42 -55t84.5 -18.5t84.5 18.5t42.5 55t12 89.5v431h129v-440q0 -136 -68 -204.5t-200 -68.5zM350 -204q-48 0 -80 25t-32 68q0 30 13.5 52t32.5 37t35 23l97 -1q-10 -4 -27 -13t-35 -22t-30 -29.5
t-12 -35.5q0 -17 12 -27.5t29 -10.5q15 0 31.5 8t31.5 25l43 -45q-19 -23 -45.5 -38.5t-63.5 -15.5z" />
    <glyph glyph-name="uogonek" unicode="&#x173;" horiz-adv-x="564" 
d="M235 -10q-60 0 -100.5 24t-60 68t-19.5 103v308h124v-277q0 -34 8 -60.5t28.5 -42t56.5 -15.5q44 0 66.5 25t31 69.5t8.5 104.5v196h124v-493h-124v107l17 -10q-22 -57 -65 -82t-95 -25zM436 -204q-48 0 -80 25t-32 68q0 30 13.5 52t32.5 37t35 23l97 -1q-10 -4 -27 -13
t-35 -22t-30 -29.5t-12 -35.5q0 -17 12 -27.5t29 -10.5q15 0 31.5 8t31.5 25l43 -45q-19 -23 -45.5 -38.5t-63.5 -15.5z" />
    <glyph glyph-name="Wcircumflex" unicode="&#x174;" horiz-adv-x="979" 
d="M223 0l-210 697h136l144 -499l133 459h128l132 -459l145 499h135l-210 -697h-125l-152 502h21l-151 -502h-126zM333 745l157 175l156 -175h-99l-57 69l-57 -69h-100z" />
    <glyph glyph-name="wcircumflex" unicode="&#x175;" horiz-adv-x="755" 
d="M171 0l-152 493h132l83 -303l89 303h107l89 -301l84 301h133l-153 -493h-111l-95 317l-93 -317h-113zM221 541l157 175l156 -175h-99l-57 69l-57 -69h-100z" />
    <glyph glyph-name="Ycircumflex" unicode="&#x176;" horiz-adv-x="625" 
d="M249 0v273l-245 424h148l158 -296l164 296h147l-243 -424v-273h-129zM157 745l157 175l156 -175h-99l-57 69l-57 -69h-100z" />
    <glyph glyph-name="ycircumflex" unicode="&#x177;" horiz-adv-x="535" 
d="M101 -204l100 242l-186 455h136l116 -331l118 331h134l-283 -697h-135zM112 541l157 175l156 -175h-99l-57 69l-57 -69h-100z" />
    <glyph glyph-name="Ydieresis" unicode="&#x178;" horiz-adv-x="625" 
d="M249 0v273l-245 424h148l158 -296l164 296h147l-243 -424v-273h-129zM346 773v128h132v-128h-132zM149 773v128h133v-128h-133z" />
    <glyph glyph-name="Zacute" unicode="&#x179;" horiz-adv-x="605" 
d="M28 0v106l405 516l19 -41h-401v116h512v-106l-393 -501l-18 26h425v-116h-549zM260 759l112 142h133l-154 -142h-91z" />
    <glyph glyph-name="zacute" unicode="&#x17a;" horiz-adv-x="471" 
d="M35 0v83l273 340l10 -33h-272v103h386v-89l-270 -341l-10 40h280v-103h-397zM190 555l112 142h133l-154 -142h-91z" />
    <glyph glyph-name="Zdotaccent" unicode="&#x17b;" horiz-adv-x="605" 
d="M28 0v106l405 516l19 -41h-401v116h512v-106l-393 -501l-18 26h425v-116h-549zM239 773v128h133v-128h-133z" />
    <glyph glyph-name="zdotaccent" unicode="&#x17c;" horiz-adv-x="471" 
d="M35 0v83l273 340l10 -33h-272v103h386v-89l-270 -341l-10 40h280v-103h-397zM170 569v128h133v-128h-133z" />
    <glyph glyph-name="Zcaron" unicode="&#x17d;" horiz-adv-x="605" 
d="M28 0v106l405 516l19 -41h-401v116h512v-106l-393 -501l-18 26h425v-116h-549zM306 736l-157 165h96l61 -70l61 70h95z" />
    <glyph glyph-name="zcaron" unicode="&#x17e;" horiz-adv-x="471" 
d="M35 0v83l273 340l10 -33h-272v103h386v-89l-270 -341l-10 40h280v-103h-397zM237 532l-157 165h96l61 -70l61 70h95z" />
    <glyph glyph-name="uni018F" unicode="&#x18f;" horiz-adv-x="759" 
d="M379 -16q-103 0 -179 45t-118.5 127.5t-42.5 194.5h130q0 -116 55.5 -179.5t154.5 -63.5q100 0 155.5 63.5t55.5 178.5q0 116 -55 178.5t-155 62.5q-69 0 -119 -32t-72 -97l-120 47q38 97 118 151t193 54q104 0 180 -45t118 -126.5t42 -193.5t-42.5 -193.5t-118.5 -126.5
t-180 -45zM105 252v99h581v-99h-581z" />
    <glyph glyph-name="florin" unicode="&#x192;" horiz-adv-x="560" 
d="M85 -214v94q49 0 76 12.5t38.5 42.5t11.5 83v382h-88v93h88v62q0 69 36.5 114.5t104.5 45.5q42 0 74.5 -13.5t56.5 -39.5l-67 -80q-13 14 -26 21t-25 7q-24 0 -36.5 -16t-12.5 -47v-54h111v-93h-111v-393q0 -116 -60.5 -168.5t-170.5 -52.5z" />
    <glyph glyph-name="uni019D" unicode="&#x19d;" horiz-adv-x="689" 
d="M67 0v697h133l321 -512h-28v512h129v-697h-134l-320 515h28v-515h-129zM-9 -183v84q29 0 45.5 10.5t23.5 26.5t7 30v14.5v17.5h129v-26q0 -40 -20 -76.5t-65 -58.5t-120 -22z" />
    <glyph glyph-name="Ohorn" unicode="&#x1a0;" horiz-adv-x="747" 
d="M373 -16q-99 0 -174.5 45.5t-117.5 127.5t-42 191q0 110 42 192t117.5 127.5t174.5 45.5q100 0 175.5 -45.5t117.5 -127.5t42 -192q0 -109 -42.5 -191t-118 -127.5t-174.5 -45.5zM372 108q64 0 109.5 29.5t70.5 83.5t25 127q0 74 -25 128t-70.5 83.5t-109.5 29.5
q-61 0 -107.5 -29t-71 -83t-24.5 -129q0 -74 24.5 -128t71 -83t107.5 -29zM594 493v81q40 0 56 24t16 68v31h86v-38q0 -45 -16 -83t-50.5 -60.5t-91.5 -22.5z" />
    <glyph glyph-name="ohorn" unicode="&#x1a1;" horiz-adv-x="572" 
d="M287 -10q-72 0 -128 33t-88.5 91.5t-32.5 132.5q0 75 32 132.5t88.5 90.5t128.5 33q71 0 127 -33t88 -90.5t32 -132.5q0 -74 -32 -132t-88 -91.5t-127 -33.5zM287 99q38 0 65.5 18t42 51t14.5 79q0 47 -14.5 79.5t-42 50t-65.5 17.5q-39 0 -67 -17.5t-43 -50t-15 -79.5
q0 -46 15 -79t43 -51t67 -18zM431 338v81q40 0 56 24t16 68v31h86v-38q0 -45 -16 -83t-50.5 -60.5t-91.5 -22.5z" />
    <glyph glyph-name="Uhorn" unicode="&#x1af;" horiz-adv-x="770" 
d="M328 -16q-132 0 -199.5 67t-67.5 201v445h129v-430q0 -54 11.5 -90.5t42 -55t84.5 -18.5t84.5 18.5t42.5 55t12 89.5v431h129v-440q0 -136 -68 -204.5t-200 -68.5zM583 493v81q40 0 56 24t16 68v31h86v-38q0 -45 -16 -83t-50.5 -60.5t-91.5 -22.5z" />
    <glyph glyph-name="uhorn" unicode="&#x1b0;" horiz-adv-x="564" 
d="M235 -10q-60 0 -100.5 24t-60 68t-19.5 103v308h124v-277q0 -34 8 -60.5t28.5 -42t56.5 -15.5q44 0 66.5 25t31 69.5t8.5 104.5v196h124v-493h-124v107l17 -10q-22 -57 -65 -82t-95 -25zM419 411v81q40 0 56 24t16 68v31h86v-38q0 -45 -16 -83t-50.5 -60.5t-91.5 -22.5z
" />
    <glyph glyph-name="uni01CD" unicode="&#x1cd;" horiz-adv-x="674" 
d="M8 0l280 697h97l280 -697h-141l-186 506l-189 -506h-141zM192 136l40 116h210l42 -116h-292zM338 736l-157 165h96l61 -70l61 70h95z" />
    <glyph glyph-name="uni01CE" unicode="&#x1ce;" horiz-adv-x="546" 
d="M377 0l-10 74v237q0 44 -27.5 65.5t-74.5 21.5q-39 0 -79.5 -15.5t-71.5 -43.5l-63 85q52 42 106.5 60.5t117.5 18.5q102 0 159 -51t57 -141v-311h-114zM228 -10q-54 0 -96.5 20t-67 57t-24.5 85q0 43 17.5 73.5t46.5 46.5q25 15 55.5 21t65.5 6h153v-92h-135
q-16 0 -31.5 -2.5t-26.5 -11.5q-10 -7 -15 -17.5t-5 -23.5q0 -28 22 -45t59 -17q33 0 60.5 14.5t44 40t16.5 58.5l33 -66q-13 -52 -39.5 -84.5t-60.5 -47.5t-72 -15zM276 532l-157 165h96l61 -70l61 70h95z" />
    <glyph glyph-name="uni01CF" unicode="&#x1cf;" horiz-adv-x="263" 
d="M67 0v697h129v-697h-129zM133 736l-157 165h96l61 -70l61 70h95z" />
    <glyph glyph-name="uni01D0" unicode="&#x1d0;" horiz-adv-x="245" 
d="M60 0v493h124v-493h-124zM123 532l-157 165h96l61 -70l61 70h95z" />
    <glyph glyph-name="uni01D1" unicode="&#x1d1;" horiz-adv-x="747" 
d="M373 -16q-99 0 -174.5 45.5t-117.5 127.5t-42 191q0 110 42 192t117.5 127.5t174.5 45.5q100 0 175.5 -45.5t117.5 -127.5t42 -192q0 -109 -42.5 -191t-118 -127.5t-174.5 -45.5zM372 108q64 0 109.5 29.5t70.5 83.5t25 127q0 74 -25 128t-70.5 83.5t-109.5 29.5
q-61 0 -107.5 -29t-71 -83t-24.5 -129q0 -74 24.5 -128t71 -83t107.5 -29zM373 736l-157 165h96l61 -70l61 70h95z" />
    <glyph glyph-name="uni01D2" unicode="&#x1d2;" horiz-adv-x="572" 
d="M287 -10q-72 0 -128 33t-88.5 91.5t-32.5 132.5q0 75 32 132.5t88.5 90.5t128.5 33q71 0 127 -33t88 -90.5t32 -132.5q0 -74 -32 -132t-88 -91.5t-127 -33.5zM287 99q38 0 65.5 18t42 51t14.5 79q0 47 -14.5 79.5t-42 50t-65.5 17.5q-39 0 -67 -17.5t-43 -50t-15 -79.5
q0 -46 15 -79t43 -51t67 -18zM287 532l-157 165h96l61 -70l61 70h95z" />
    <glyph glyph-name="uni01D3" unicode="&#x1d3;" horiz-adv-x="657" 
d="M328 -16q-132 0 -199.5 67t-67.5 201v445h129v-430q0 -54 11.5 -90.5t42 -55t84.5 -18.5t84.5 18.5t42.5 55t12 89.5v431h129v-440q0 -136 -68 -204.5t-200 -68.5zM330 736l-157 165h96l61 -70l61 70h95z" />
    <glyph glyph-name="uni01D4" unicode="&#x1d4;" horiz-adv-x="564" 
d="M235 -10q-60 0 -100.5 24t-60 68t-19.5 103v308h124v-277q0 -34 8 -60.5t28.5 -42t56.5 -15.5q44 0 66.5 25t31 69.5t8.5 104.5v196h124v-493h-124v107l17 -10q-22 -57 -65 -82t-95 -25zM278 532l-157 165h96l61 -70l61 70h95z" />
    <glyph glyph-name="Gcaron" unicode="&#x1e6;" horiz-adv-x="735" 
d="M365 -16q-96 0 -169 46t-115 128t-42 191t42 190.5t117.5 127.5t174.5 46q111 0 191.5 -55.5t115.5 -152.5l-122 -45q-22 61 -69.5 95t-115.5 34q-62 0 -108.5 -29t-71 -82.5t-24.5 -128.5t24.5 -129t71 -83t108.5 -29q32 0 66 9t62.5 31.5t46 62.5t17.5 102v40l29 -90
h-200v116h286v-379h-114l-18 113l22 -17q-18 -37 -49 -62t-70.5 -37.5t-85.5 -12.5zM373 736l-157 165h96l61 -70l61 70h95z" />
    <glyph glyph-name="gcaron" unicode="&#x1e7;" horiz-adv-x="522" 
d="M269 -214q-110 0 -173.5 39t-63.5 108q0 6 1 14.5t3 16.5l138 86l31 -35l-63 -77q-1 -3 -1 -5v-4q0 -28 35 -43t93 -15q49 0 75 12.5t26 36.5q0 13 -7 21t-23 13t-41.5 9t-61.5 9q-46 5 -90 18.5t-73 40t-29 70.5q0 39 27 71.5t71 53.5l60 -48q-27 -4 -40.5 -18
t-13.5 -33q0 -16 13 -25.5t37 -14.5t57 -9q51 -7 94.5 -15t76 -22.5t50 -39.5t17.5 -65q0 -73 -58.5 -111.5t-166.5 -38.5zM259 138q-62 0 -108.5 23.5t-72.5 64t-26 93.5q0 55 27.5 96.5t74 64.5t101.5 23q54 0 100.5 -23t75 -65.5t28.5 -99.5q0 -54 -25.5 -93.5
t-70.5 -61.5t-104 -22zM256 236q40 0 59.5 24.5t19.5 59.5q0 36 -21 58.5t-58 22.5t-58.5 -23t-21.5 -58t20 -59.5t60 -24.5zM425 389l-89 58l114 91l63 -77zM260 532l-157 165h96l61 -70l61 70h95z" />
    <glyph glyph-name="uni01EA" unicode="&#x1ea;" horiz-adv-x="747" 
d="M373 -16q-99 0 -174.5 45.5t-117.5 127.5t-42 191q0 110 42 192t117.5 127.5t174.5 45.5q100 0 175.5 -45.5t117.5 -127.5t42 -192q0 -109 -42.5 -191t-118 -127.5t-174.5 -45.5zM372 108q64 0 109.5 29.5t70.5 83.5t25 127q0 74 -25 128t-70.5 83.5t-109.5 29.5
q-61 0 -107.5 -29t-71 -83t-24.5 -129q0 -74 24.5 -128t71 -83t107.5 -29zM390 -204q-48 0 -80 25t-32 68q0 30 13.5 52t32.5 37t35 23l97 -1q-10 -4 -27 -13t-35 -22t-30 -29.5t-12 -35.5q0 -17 12 -27.5t29 -10.5q15 0 31.5 8t31.5 25l43 -45q-19 -23 -45.5 -38.5
t-63.5 -15.5z" />
    <glyph glyph-name="uni01EB" unicode="&#x1eb;" horiz-adv-x="572" 
d="M287 -10q-72 0 -128 33t-88.5 91.5t-32.5 132.5q0 75 32 132.5t88.5 90.5t128.5 33q71 0 127 -33t88 -90.5t32 -132.5q0 -74 -32 -132t-88 -91.5t-127 -33.5zM287 99q38 0 65.5 18t42 51t14.5 79q0 47 -14.5 79.5t-42 50t-65.5 17.5q-39 0 -67 -17.5t-43 -50t-15 -79.5
q0 -46 15 -79t43 -51t67 -18zM291 -204q-48 0 -80 25t-32 68q0 30 13.5 52t32.5 37t35 23l97 -1q-10 -4 -27 -13t-35 -22t-30 -29.5t-12 -35.5q0 -17 12 -27.5t29 -10.5q15 0 31.5 8t31.5 25l43 -45q-19 -23 -45.5 -38.5t-63.5 -15.5z" />
    <glyph glyph-name="Aringacute" unicode="&#x1fa;" horiz-adv-x="674" 
d="M8 0l280 697h97l280 -697h-141l-186 506l-189 -506h-141zM192 136l40 116h210l42 -116h-292zM339 632q-33 0 -59 16.5t-41.5 42.5t-15.5 57t15.5 57t42 42t57.5 16t57.5 -15.5t42.5 -41.5t16 -58t-16 -58.5t-42 -42t-57 -15.5zM339 699q21 0 34.5 14.5t13.5 35.5t-13 34
t-35 13q-23 0 -35.5 -13.5t-12.5 -33.5q0 -21 13.5 -35.5t34.5 -14.5zM348 795l112 142h133l-154 -142h-91z" />
    <glyph glyph-name="aringacute" unicode="&#x1fb;" horiz-adv-x="546" 
d="M377 0l-10 74v237q0 44 -27.5 65.5t-74.5 21.5q-39 0 -79.5 -15.5t-71.5 -43.5l-63 85q52 42 106.5 60.5t117.5 18.5q102 0 159 -51t57 -141v-311h-114zM228 -10q-54 0 -96.5 20t-67 57t-24.5 85q0 43 17.5 73.5t46.5 46.5q25 15 55.5 21t65.5 6h153v-92h-135
q-16 0 -31.5 -2.5t-26.5 -11.5q-10 -7 -15 -17.5t-5 -23.5q0 -28 22 -45t59 -17q33 0 60.5 14.5t44 40t16.5 58.5l33 -66q-13 -52 -39.5 -84.5t-60.5 -47.5t-72 -15zM276 526q-33 0 -59 16.5t-41.5 42.5t-15.5 57t15.5 57t42 42t57.5 16t57.5 -15.5t42.5 -41.5t16 -58
t-16 -58.5t-42 -42t-57 -15.5zM276 593q21 0 34.5 14.5t13.5 35.5t-13 34t-35 13q-23 0 -35.5 -13.5t-12.5 -33.5q0 -21 13.5 -35.5t34.5 -14.5zM281 696l112 142h133l-154 -142h-91z" />
    <glyph glyph-name="AEacute" unicode="&#x1fc;" horiz-adv-x="928" 
d="M8 0l280 697h593v-116h-346v-174h304v-116h-304v-175h346v-116h-476v583h-39l-217 -583h-141zM179 136l41 119h216v-119h-257zM423 759l112 142h133l-154 -142h-91z" />
    <glyph glyph-name="aeacute" unicode="&#x1fd;" horiz-adv-x="857" 
d="M226 -10q-90 0 -138 46t-48 114q0 45 18.5 72t48 42t61.5 21.5t59 7.5t40 1h102v17q0 40 -26 62t-72 22q-30 0 -64 -12.5t-64 -48.5l-90 76q51 51 107 72t124 21q58 0 99 -17t61 -51q27 32 63.5 49.5t84.5 17.5q59 0 101.5 -19.5t70 -53t41 -78.5t13.5 -97
q0 -11 -0.5 -23.5t-2.5 -25.5h-332q4 -52 37 -79t84 -27q39 0 74.5 13t63.5 38l63 -84q-36 -29 -67 -45.5t-64.5 -23.5t-76.5 -7q-66 0 -110 25.5t-68 68.5h-13q-37 -51 -81.5 -72.5t-98.5 -21.5zM241 96q34 0 61 11.5t44.5 34.5t22.5 57v6h-100q-58 0 -80 -17.5t-22 -39.5
q0 -23 19 -37.5t55 -14.5zM481 296h220q0 16 -7 34t-20.5 33.5t-33 25.5t-46.5 10q-38 0 -62 -15.5t-36.5 -39t-14.5 -48.5zM384 555l112 142h133l-154 -142h-91z" />
    <glyph glyph-name="Oslashacute" unicode="&#x1fe;" horiz-adv-x="747" 
d="M373 -16q-99 0 -174.5 45.5t-117.5 127.5t-42 191q0 110 42 192t117.5 127.5t174.5 45.5q100 0 175.5 -45.5t117.5 -127.5t42 -192q0 -109 -42.5 -191t-118 -127.5t-174.5 -45.5zM372 108q64 0 109.5 29.5t70.5 83.5t25 127q0 74 -25 128t-70.5 83.5t-109.5 29.5
q-61 0 -107.5 -29t-71 -83t-24.5 -129q0 -74 24.5 -128t71 -83t107.5 -29zM67 0l527 697h85l-526 -697h-86zM327 759l112 142h133l-154 -142h-91z" />
    <glyph glyph-name="oslashacute" unicode="&#x1ff;" horiz-adv-x="572" 
d="M287 -10q-72 0 -128 33t-88.5 91.5t-32.5 132.5q0 75 32 132.5t88.5 90.5t128.5 33q71 0 127 -33t88 -90.5t32 -132.5q0 -74 -32 -132t-88 -91.5t-127 -33.5zM287 99q38 0 65.5 18t42 51t14.5 79q0 47 -14.5 79.5t-42 50t-65.5 17.5q-39 0 -67 -17.5t-43 -50t-15 -79.5
q0 -46 15 -79t43 -51t67 -18zM81 -43l350 578h61l-350 -578h-61zM241 555l112 142h133l-154 -142h-91z" />
    <glyph glyph-name="uni0218" unicode="&#x218;" horiz-adv-x="575" 
d="M297 -13q-111 0 -182.5 58t-86.5 154l126 31q11 -64 50.5 -96t97.5 -32q31 0 55.5 10.5t39 31t14.5 48.5q0 26 -15 45t-45.5 35t-76.5 33q-66 26 -110.5 55.5t-66.5 68.5t-22 92q0 56 27.5 99t77 68t115.5 25q70 0 124.5 -32.5t87.5 -96.5l-103 -63q-21 38 -49.5 57.5
t-63.5 19.5q-25 0 -44.5 -9.5t-31 -26t-11.5 -38.5q0 -23 13.5 -41t44 -34.5t79.5 -34.5q65 -24 108.5 -53t66.5 -67.5t23 -93.5q0 -62 -30.5 -110.5t-84.5 -75.5t-127 -27zM157 -204l65 151h130l-122 -151h-73z" />
    <glyph glyph-name="uni0219" unicode="&#x219;" horiz-adv-x="472" 
d="M232 -10q-55 0 -96 16t-69.5 40t-45.5 46l85 74q17 -28 48.5 -51.5t78.5 -23.5q37 0 57.5 14.5t20.5 36.5q0 18 -13 29.5t-35 19t-49 14.5q-28 8 -58 18t-55 26.5t-40.5 42.5t-15.5 65q0 65 51 105.5t135 40.5q59 0 107 -23.5t76 -67.5l-77 -61q-18 29 -47.5 43.5
t-62.5 14.5q-29 0 -47.5 -11t-18.5 -30q0 -13 8.5 -22t28 -15.5t51.5 -14.5q30 -7 62 -17t60 -27t45 -45t17 -71q0 -49 -25 -86.5t-70 -58.5t-106 -21zM105 -204l65 151h130l-122 -151h-73z" />
    <glyph glyph-name="uni021A" unicode="&#x21a;" horiz-adv-x="584" 
d="M227 0v581h-216v116h562v-116h-215v-581h-131zM161 -204l65 151h130l-122 -151h-73z" />
    <glyph glyph-name="uni021B" unicode="&#x21b;" horiz-adv-x="349" 
d="M249 -10q-40 0 -74 15t-54.5 49t-20.5 91v463l126 67v-496q0 -43 11.5 -65t45.5 -22q10 0 22.5 2t27.5 6v-95q-21 -8 -42 -11.5t-42 -3.5zM10 396v97h323v-97h-323zM90 -204l65 151h130l-122 -151h-73z" />
    <glyph glyph-name="uni0232" unicode="&#x232;" horiz-adv-x="625" 
d="M249 0v273l-245 424h148l158 -296l164 296h147l-243 -424v-273h-129zM175 767v73h275v-73h-275z" />
    <glyph glyph-name="uni0233" unicode="&#x233;" horiz-adv-x="535" 
d="M101 -204l100 242l-186 455h136l116 -331l118 331h134l-283 -697h-135zM130 563v73h275v-73h-275z" />
    <glyph glyph-name="uni0237" unicode="&#x237;" horiz-adv-x="245" 
d="M63 -214q-20 0 -43 4t-45 11v108q13 -4 24 -5.5t19 -1.5q20 0 31 9.5t11 37.5v544h124v-578q0 -66 -33 -97.5t-88 -31.5z" />
    <glyph glyph-name="uni0259" unicode="&#x259;" horiz-adv-x="541" 
d="M260 503q64 0 110 -21t75.5 -56.5t43.5 -81t14 -95.5q0 -48 -13.5 -94t-42 -83t-73 -59.5t-106.5 -22.5q-58 0 -101 19.5t-71 54t-42.5 80.5t-14.5 98q0 8 1 20.5t2 25.5h337q-5 53 -39.5 80t-85.5 27q-39 0 -74 -13.5t-64 -38.5l-62 84q34 27 65 44t65 24.5t76 7.5z
M162 226q-2 -8 -3 -16t-1 -15q0 -21 7.5 -39.5t21.5 -32.5t34 -21.5t44 -7.5q38 0 62.5 15t37 38.5t15.5 48.5h-259z" />
    <glyph glyph-name="uni0272" unicode="&#x272;" horiz-adv-x="565" 
d="M62 0v493h124v-129l-25 26q21 61 66 87t103 26q82 0 130.5 -45.5t48.5 -129.5v-328h-125v294q0 27 -9.5 49.5t-30 37t-53.5 14.5q-38 0 -59.5 -15t-31 -40t-12 -54.5t-2.5 -58.5v-227h-124zM70 -214q-38 0 -80 15v100q13 -4 22 -5.5t15 -1.5q18 0 26.5 8t8.5 30v68h124
v-85q0 -66 -32.5 -97.5t-83.5 -31.5z" />
    <glyph glyph-name="circumflex" unicode="&#x2c6;" horiz-adv-x="389" 
d="M38 541l157 175l156 -175h-96l-60 69l-61 -69h-96z" />
    <glyph glyph-name="caron" unicode="&#x2c7;" horiz-adv-x="389" 
d="M195 532l-157 165h96l61 -64l60 64h96z" />
    <glyph glyph-name="breve" unicode="&#x2d8;" horiz-adv-x="389" 
d="M194 564q-81 0 -118.5 34.5t-37.5 98.5h88q0 -31 20.5 -45.5t47.5 -14.5q30 0 49.5 15.5t19.5 44.5h88q0 -67 -39.5 -100t-117.5 -33z" />
    <glyph glyph-name="dotaccent" unicode="&#x2d9;" horiz-adv-x="209" 
d="M38 569v128h133v-128h-133z" />
    <glyph glyph-name="ring" unicode="&#x2da;" horiz-adv-x="307" 
d="M154 526q-33 0 -59 16.5t-41.5 42.5t-15.5 57t15.5 57t42 42t57.5 16t57.5 -15.5t42.5 -41.5t16 -58t-16 -58.5t-42 -42t-57 -15.5zM154 593q21 0 34.5 14.5t13.5 35.5t-13 34t-35 13q-23 0 -35.5 -13.5t-12.5 -33.5q0 -21 13.5 -35.5t34.5 -14.5z" />
    <glyph glyph-name="ogonek" unicode="&#x2db;" horiz-adv-x="297" 
d="M150 -204q-48 0 -80 25t-32 68q0 30 13.5 52t32.5 37t35 23l97 -1q-10 -4 -27 -13t-35 -22t-30 -29.5t-12 -35.5q0 -17 12 -27.5t29 -10.5q15 0 31.5 8t31.5 25l43 -45q-19 -23 -45.5 -38.5t-63.5 -15.5z" />
    <glyph glyph-name="tilde" unicode="&#x2dc;" horiz-adv-x="411" 
d="M268 556q-23 0 -39.5 6.5t-29 17t-22 20t-18.5 16.5t-19 7q-15 0 -22.5 -17t-7.5 -49h-72q0 69 29 106t78 37q26 0 44 -10.5t31.5 -24t25 -24t24.5 -10.5q11 0 19.5 17t8.5 49h75q0 -68 -28.5 -104.5t-76.5 -36.5z" />
    <glyph glyph-name="hungarumlaut" unicode="&#x2dd;" horiz-adv-x="514" 
d="M232 533l111 164h132l-152 -164h-91zM38 533l112 164h111l-132 -164h-91z" />
    <glyph glyph-name="uni02F5" unicode="&#x2f5;" horiz-adv-x="560" 
d="M206 329l-154 164h133l112 -164h-91zM417 329l-152 164h132l111 -164h-91z" />
    <glyph glyph-name="uni02F6" unicode="&#x2f6;" horiz-adv-x="560" 
d="M52 329l111 164h132l-152 -164h-91zM264 329l112 164h132l-153 -164h-91z" />
    <glyph glyph-name="gravecomb" unicode="&#x300;" 
d="M182 555l-144 142h132l104 -142h-92z" />
    <glyph glyph-name="acutecomb" unicode="&#x301;" 
d="M38 555l112 142h133l-154 -142h-91z" />
    <glyph glyph-name="uni0302" unicode="&#x302;" 
d="M38 541l157 175l156 -175h-99l-57 69l-57 -69h-100z" />
    <glyph glyph-name="tildecomb" unicode="&#x303;" 
d="M268 556q-29 0 -48 10t-32 23.5t-24 23.5t-24 10q-14 0 -22 -17t-8 -49h-72q0 69 29 106t78 37q26 0 44 -10.5t31.5 -24t25 -24t24.5 -10.5q11 0 19.5 17t8.5 49h75q0 -68 -28.5 -104.5t-76.5 -36.5z" />
    <glyph glyph-name="uni0304" unicode="&#x304;" 
d="M38 563v73h275v-73h-275z" />
    <glyph glyph-name="uni0306" unicode="&#x306;" 
d="M194 548q-81 0 -118.5 36.5t-37.5 112.5h80q0 -43 21 -60t55 -17q37 0 57 17.5t20 59.5h80q0 -80 -39.5 -114.5t-117.5 -34.5z" />
    <glyph glyph-name="uni0307" unicode="&#x307;" 
d="M38 569v128h133v-128h-133z" />
    <glyph glyph-name="uni0308" unicode="&#x308;" 
d="M235 569v128h132v-128h-132zM38 569v128h133v-128h-133z" />
    <glyph glyph-name="hookabovecomb" unicode="&#x309;" 
d="M78 518l-8 43q23 3 43 8.5t20 25.5q0 21 -24 27t-55 6h-16v69h16q75 0 120.5 -24t45.5 -70q0 -33 -22.5 -51t-55.5 -25t-64 -9z" />
    <glyph glyph-name="uni030A" unicode="&#x30a;" 
d="M154 526q-33 0 -59 16.5t-41.5 42.5t-15.5 57t15.5 57t42 42t57.5 16t57.5 -15.5t42.5 -41.5t16 -58t-16 -58.5t-42 -42t-57 -15.5zM154 593q21 0 34.5 14.5t13.5 35.5t-13 34t-35 13q-23 0 -35.5 -13.5t-12.5 -33.5q0 -21 13.5 -35.5t34.5 -14.5z" />
    <glyph glyph-name="uni030B" unicode="&#x30b;" 
d="M232 533l111 164h132l-152 -164h-91zM38 533l112 164h111l-132 -164h-91z" />
    <glyph glyph-name="uni030C" unicode="&#x30c;" 
d="M195 532l-157 165h96l61 -70l61 70h95z" />
    <glyph glyph-name="uni030F" unicode="&#x30f;" 
d="M191 533l-153 164h132l112 -164h-91zM384 533l-131 164h112l110 -164h-91z" />
    <glyph glyph-name="uni0312" unicode="&#x312;" 
d="M38 552l122 156h73l-66 -156h-129z" />
    <glyph glyph-name="uni031B" unicode="&#x31b;" 
d="M38 493v81q40 0 56 24t16 68v31h86v-38q0 -45 -16 -83t-50.5 -60.5t-91.5 -22.5z" />
    <glyph glyph-name="dotbelowcomb" unicode="&#x323;" 
d="M38 -173v112h133v-112h-133z" />
    <glyph glyph-name="uni0326" unicode="&#x326;" 
d="M38 -204l65 151h130l-122 -151h-73z" />
    <glyph glyph-name="uni0327" unicode="&#x327;" 
d="M132 -204q-12 0 -29.5 2.5t-35 8t-29.5 13.5l32 51q13 -7 28 -11.5t28 -4.5q17 0 29 7t12 23q0 13 -9.5 21t-25.5 12t-34.5 5t-36.5 1l62 87l59 -1l-37 -46q43 -6 68.5 -26t25.5 -54q0 -40 -30.5 -64t-76.5 -24z" />
    <glyph glyph-name="uni0328" unicode="&#x328;" 
d="M150 -204q-48 0 -80 25t-32 68q0 30 13.5 52t32.5 37t35 23l97 -1q-10 -4 -27 -13t-35 -22t-30 -29.5t-12 -35.5q0 -17 12 -27.5t29 -10.5q15 0 31.5 8t31.5 25l43 -45q-19 -23 -45.5 -38.5t-63.5 -15.5z" />
    <glyph glyph-name="uni0335" unicode="&#x335;" 
d="M38 250v83h328v-83h-328z" />
    <glyph glyph-name="uni0336" unicode="&#x336;" 
d="M38 244v73h658v-73h-658z" />
    <glyph glyph-name="uni0337" unicode="&#x337;" 
d="M38 203v116l250 184v-114z" />
    <glyph glyph-name="uni0338" unicode="&#x338;" 
d="M38 0l350 578h61l-350 -578h-61z" />
    <glyph glyph-name="uni0374" unicode="&#x374;" horiz-adv-x="292" 
d="M27 419l64 278h144l-126 -278h-82z" />
    <glyph glyph-name="uni0375" unicode="&#x375;" horiz-adv-x="299" 
d="M26 3l126 279h82l-64 -279h-144z" />
    <glyph glyph-name="uni037E" unicode="&#x37e;" horiz-adv-x="240" 
d="M6 -149l70 280h139l-126 -280h-83zM69 338v133h134v-133h-134z" />
    <glyph glyph-name="tonos" unicode="&#x384;" horiz-adv-x="261" 
d="M38 555l68 142h117l-95 -142h-90z" />
    <glyph glyph-name="dieresistonos" unicode="&#x385;" horiz-adv-x="474" 
d="M38 569v128h109v-128h-109zM328 569v128h108v-128h-108zM255 580l-61 13l39 218l96 -19z" />
    <glyph glyph-name="anoteleia" unicode="&#x387;" horiz-adv-x="349" 
d="M65 121v253h252v-253h-252z" />
    <glyph glyph-name="uni0394" unicode="&#x394;" horiz-adv-x="727" 
d="M36 0l280 697h97l279 -697h-656zM222 119h285l-142 387z" />
    <glyph glyph-name="uni03A9" unicode="&#x3a9;" horiz-adv-x="821" 
d="M49 0v122h144l28 -32q-59 25 -100.5 68.5t-63.5 101t-22 123.5q0 70 25 130.5t70.5 105t107.5 69.5t136 25t136 -25.5t108.5 -70t72 -104.5t25.5 -129q0 -68 -23.5 -125t-65 -100t-98.5 -69l27 32h146v-122h-282v100q78 39 119 107t41 155q0 69 -24.5 120t-70 79
t-110.5 28q-66 0 -112 -28.5t-70 -79.5t-24 -120q0 -92 43 -159.5t118 -101.5v-100h-281z" />
    <glyph glyph-name="uni03BC" unicode="&#x3bc;" horiz-adv-x="564" 
d="M55 -162v655h124v-281q0 -30 7.5 -56t28 -42t58.5 -16q47 0 69 27t29 73.5t7 103.5v191h124v-493h-124v60q-25 -35 -61.5 -52.5t-80.5 -17.5q-18 0 -32.5 5.5t-24.5 15.5v-173h-124z" />
    <glyph glyph-name="pi" unicode="&#x3c0;" horiz-adv-x="591" 
d="M490 -10q-65 0 -98.5 32t-33.5 94v273h-134v-389h-124v389h-63v104h514v-104h-69v-231q0 -29 10.5 -41t28.5 -12q9 0 17.5 3t15.5 7l21 -100q-22 -14 -41.5 -19.5t-43.5 -5.5z" />
    <glyph glyph-name="uni1E20" unicode="&#x1e20;" horiz-adv-x="735" 
d="M365 -16q-96 0 -169 46t-115 128t-42 191t42 190.5t117.5 127.5t174.5 46q111 0 191.5 -55.5t115.5 -152.5l-122 -45q-22 61 -69.5 95t-115.5 34q-62 0 -108.5 -29t-71 -82.5t-24.5 -128.5t24.5 -129t71 -83t108.5 -29q32 0 66 9t62.5 31.5t46 62.5t17.5 102v40l29 -90
h-200v116h286v-379h-114l-18 113l22 -17q-18 -37 -49 -62t-70.5 -37.5t-85.5 -12.5zM235 767v73h275v-73h-275z" />
    <glyph glyph-name="uni1E21" unicode="&#x1e21;" horiz-adv-x="522" 
d="M269 -214q-110 0 -173.5 39t-63.5 108q0 6 1 14.5t3 16.5l138 86l31 -35l-63 -77q-1 -3 -1 -5v-4q0 -28 35 -43t93 -15q49 0 75 12.5t26 36.5q0 13 -7 21t-23 13t-41.5 9t-61.5 9q-46 5 -90 18.5t-73 40t-29 70.5q0 39 27 71.5t71 53.5l60 -48q-27 -4 -40.5 -18
t-13.5 -33q0 -16 13 -25.5t37 -14.5t57 -9q51 -7 94.5 -15t76 -22.5t50 -39.5t17.5 -65q0 -73 -58.5 -111.5t-166.5 -38.5zM259 138q-62 0 -108.5 23.5t-72.5 64t-26 93.5q0 55 27.5 96.5t74 64.5t101.5 23q54 0 100.5 -23t75 -65.5t28.5 -99.5q0 -54 -25.5 -93.5
t-70.5 -61.5t-104 -22zM256 236q40 0 59.5 24.5t19.5 59.5q0 36 -21 58.5t-58 22.5t-58.5 -23t-21.5 -58t20 -59.5t60 -24.5zM425 389l-89 58l114 91l63 -77zM122 563v73h275v-73h-275z" />
    <glyph glyph-name="uni1E44" unicode="&#x1e44;" horiz-adv-x="689" 
d="M67 0v697h133l325 -528h-32v528h129v-697h-134l-324 529h32v-529h-129zM277 773v128h133v-128h-133z" />
    <glyph glyph-name="uni1E45" unicode="&#x1e45;" horiz-adv-x="564" 
d="M61 0v493h125v-112l-20 -2q13 45 38 72t58 39.5t68 12.5q84 0 131.5 -47.5t47.5 -133.5v-322h-125v276q0 62 -22 90.5t-69 28.5q-36 0 -59.5 -16.5t-35.5 -51.5t-12 -91v-236h-125zM209 569v128h133v-128h-133z" />
    <glyph glyph-name="Wgrave" unicode="&#x1e80;" horiz-adv-x="979" 
d="M223 0l-210 697h136l144 -499l133 459h128l132 -459l145 499h135l-210 -697h-125l-152 502h21l-151 -502h-126zM443 759l-144 142h132l104 -142h-92z" />
    <glyph glyph-name="wgrave" unicode="&#x1e81;" horiz-adv-x="755" 
d="M171 0l-152 493h132l83 -303l89 303h107l89 -301l84 301h133l-153 -493h-111l-95 317l-93 -317h-113zM331 555l-144 142h132l104 -142h-92z" />
    <glyph glyph-name="Wacute" unicode="&#x1e82;" horiz-adv-x="979" 
d="M223 0l-210 697h136l144 -499l133 459h128l132 -459l145 499h135l-210 -697h-125l-152 502h21l-151 -502h-126zM444 759l112 142h133l-154 -142h-91z" />
    <glyph glyph-name="wacute" unicode="&#x1e83;" horiz-adv-x="755" 
d="M171 0l-152 493h132l83 -303l89 303h107l89 -301l84 301h133l-153 -493h-111l-95 317l-93 -317h-113zM332 555l112 142h133l-154 -142h-91z" />
    <glyph glyph-name="Wdieresis" unicode="&#x1e84;" horiz-adv-x="979" 
d="M223 0l-210 697h136l144 -499l133 459h128l132 -459l145 499h135l-210 -697h-125l-152 502h21l-151 -502h-126zM522 773v128h132v-128h-132zM325 773v128h133v-128h-133z" />
    <glyph glyph-name="wdieresis" unicode="&#x1e85;" horiz-adv-x="755" 
d="M171 0l-152 493h132l83 -303l89 303h107l89 -301l84 301h133l-153 -493h-111l-95 317l-93 -317h-113zM410 569v128h132v-128h-132zM213 569v128h133v-128h-133z" />
    <glyph glyph-name="uni1E9E" unicode="&#x1e9e;" horiz-adv-x="800" 
d="M67 0v697h663v-116h-534v-581h-129zM520 -13q-70 0 -127.5 26.5t-94 74.5t-46.5 111l128 32q7 -64 45.5 -96.5t96.5 -32.5q32 0 57.5 10.5t40.5 30.5t15 47t-15 46.5t-45 36t-77 36.5q-67 28 -111.5 57.5t-66 70t-21.5 103.5q0 23 9.5 41.5t25.5 28.5l127 -2
q-15 -10 -24 -27.5t-9 -40.5q0 -31 14.5 -51.5t44.5 -37t78 -37.5q63 -28 107.5 -55.5t68 -64.5t23.5 -93q0 -62 -32.5 -110.5t-87.5 -76t-124 -27.5z" />
    <glyph glyph-name="uni1EA0" unicode="&#x1ea0;" horiz-adv-x="674" 
d="M8 0l280 697h97l280 -697h-141l-186 506l-189 -506h-141zM192 136l40 116h210l42 -116h-292zM271 -173v112h133v-112h-133z" />
    <glyph glyph-name="uni1EA1" unicode="&#x1ea1;" horiz-adv-x="546" 
d="M377 0l-10 74v237q0 44 -27.5 65.5t-74.5 21.5q-39 0 -79.5 -15.5t-71.5 -43.5l-63 85q52 42 106.5 60.5t117.5 18.5q102 0 159 -51t57 -141v-311h-114zM228 -10q-54 0 -96.5 20t-67 57t-24.5 85q0 43 17.5 73.5t46.5 46.5q25 15 55.5 21t65.5 6h153v-92h-135
q-16 0 -31.5 -2.5t-26.5 -11.5q-10 -7 -15 -17.5t-5 -23.5q0 -28 22 -45t59 -17q33 0 60.5 14.5t44 40t16.5 58.5l33 -66q-13 -52 -39.5 -84.5t-60.5 -47.5t-72 -15zM209 -173v112h133v-112h-133z" />
    <glyph glyph-name="uni1EA2" unicode="&#x1ea2;" horiz-adv-x="674" 
d="M8 0l280 697h97l280 -697h-141l-186 506l-189 -506h-141zM192 136l40 116h210l42 -116h-292zM309 722l-8 43q23 3 43 8.5t20 25.5q0 21 -24 27t-55 6h-16v69h16q75 0 120.5 -24t45.5 -70q0 -33 -22.5 -51t-55.5 -25t-64 -9z" />
    <glyph glyph-name="uni1EA3" unicode="&#x1ea3;" horiz-adv-x="546" 
d="M377 0l-10 74v237q0 44 -27.5 65.5t-74.5 21.5q-39 0 -79.5 -15.5t-71.5 -43.5l-63 85q52 42 106.5 60.5t117.5 18.5q102 0 159 -51t57 -141v-311h-114zM228 -10q-54 0 -96.5 20t-67 57t-24.5 85q0 43 17.5 73.5t46.5 46.5q25 15 55.5 21t65.5 6h153v-92h-135
q-16 0 -31.5 -2.5t-26.5 -11.5q-10 -7 -15 -17.5t-5 -23.5q0 -28 22 -45t59 -17q33 0 60.5 14.5t44 40t16.5 58.5l33 -66q-13 -52 -39.5 -84.5t-60.5 -47.5t-72 -15zM246 518l-8 43q23 3 43 8.5t20 25.5q0 21 -24 27t-55 6h-16v69h16q75 0 120.5 -24t45.5 -70
q0 -33 -22.5 -51t-55.5 -25t-64 -9z" />
    <glyph glyph-name="uni1EA4" unicode="&#x1ea4;" horiz-adv-x="674" 
d="M8 0l280 697h97l280 -697h-141l-186 506l-189 -506h-141zM192 136l40 116h210l42 -116h-292zM181 742l157 131l156 -131h-99l-57 53l-57 -53h-100zM407 853l65 133h101l-91 -133h-75z" />
    <glyph glyph-name="uni1EA5" unicode="&#x1ea5;" horiz-adv-x="546" 
d="M377 0l-10 74v237q0 44 -27.5 65.5t-74.5 21.5q-39 0 -79.5 -15.5t-71.5 -43.5l-63 85q52 42 106.5 60.5t117.5 18.5q102 0 159 -51t57 -141v-311h-114zM228 -10q-54 0 -96.5 20t-67 57t-24.5 85q0 43 17.5 73.5t46.5 46.5q25 15 55.5 21t65.5 6h153v-92h-135
q-16 0 -31.5 -2.5t-26.5 -11.5q-10 -7 -15 -17.5t-5 -23.5q0 -28 22 -45t59 -17q33 0 60.5 14.5t44 40t16.5 58.5l33 -66q-13 -52 -39.5 -84.5t-60.5 -47.5t-72 -15zM119 541l157 159l156 -159h-99l-57 53l-57 -53h-100zM345 652l65 132h101l-91 -132h-75z" />
    <glyph glyph-name="uni1EA6" unicode="&#x1ea6;" horiz-adv-x="674" 
d="M8 0l280 697h97l280 -697h-141l-186 506l-189 -506h-141zM192 136l40 116h210l42 -116h-292zM181 742l157 131l156 -131h-99l-57 53l-57 -53h-100zM447 853l-92 133h101l65 -133h-74z" />
    <glyph glyph-name="uni1EA7" unicode="&#x1ea7;" horiz-adv-x="546" 
d="M377 0l-10 74v237q0 44 -27.5 65.5t-74.5 21.5q-39 0 -79.5 -15.5t-71.5 -43.5l-63 85q52 42 106.5 60.5t117.5 18.5q102 0 159 -51t57 -141v-311h-114zM228 -10q-54 0 -96.5 20t-67 57t-24.5 85q0 43 17.5 73.5t46.5 46.5q25 15 55.5 21t65.5 6h153v-92h-135
q-16 0 -31.5 -2.5t-26.5 -11.5q-10 -7 -15 -17.5t-5 -23.5q0 -28 22 -45t59 -17q33 0 60.5 14.5t44 40t16.5 58.5l33 -66q-13 -52 -39.5 -84.5t-60.5 -47.5t-72 -15zM119 541l157 159l156 -159h-99l-57 53l-57 -53h-100zM385 652l-92 132h101l65 -132h-74z" />
    <glyph glyph-name="uni1EA8" unicode="&#x1ea8;" horiz-adv-x="674" 
d="M8 0l280 697h97l280 -697h-141l-186 506l-189 -506h-141zM192 136l40 116h210l42 -116h-292zM181 742l157 143l156 -143h-99l-57 59l-57 -59h-100zM444 821l-14 44q23 3 36 10t13 23q0 13 -9.5 19.5t-24 9t-30.5 2.5h-15v65h15q67 0 101.5 -23t34.5 -66q0 -31 -15.5 -48
t-40 -24t-51.5 -12z" />
    <glyph glyph-name="uni1EA9" unicode="&#x1ea9;" horiz-adv-x="546" 
d="M377 0l-10 74v237q0 44 -27.5 65.5t-74.5 21.5q-39 0 -79.5 -15.5t-71.5 -43.5l-63 85q52 42 106.5 60.5t117.5 18.5q102 0 159 -51t57 -141v-311h-114zM228 -10q-54 0 -96.5 20t-67 57t-24.5 85q0 43 17.5 73.5t46.5 46.5q25 15 55.5 21t65.5 6h153v-92h-135
q-16 0 -31.5 -2.5t-26.5 -11.5q-10 -7 -15 -17.5t-5 -23.5q0 -28 22 -45t59 -17q33 0 60.5 14.5t44 40t16.5 58.5l33 -66q-13 -52 -39.5 -84.5t-60.5 -47.5t-72 -15zM119 541l157 159l156 -159h-99l-57 53l-57 -53h-100zM372 633l-14 44q22 3 35.5 9.5t13.5 23.5
q0 20 -20.5 25.5t-43.5 5.5h-15v65h15q67 0 101.5 -23t34.5 -66q0 -32 -15.5 -48.5t-40 -24t-51.5 -11.5z" />
    <glyph glyph-name="uni1EAA" unicode="&#x1eaa;" horiz-adv-x="674" 
d="M8 0l280 697h97l280 -697h-141l-186 506l-189 -506h-141zM192 136l40 116h210l42 -116h-292zM180 742l157 131l156 -131h-99l-57 53l-57 -53h-100zM395 887q-24 0 -42 6t-31 14.5t-24 15t-22 6.5q-13 0 -19.5 -9.5t-8.5 -24.5l-67 1q2 45 28 72t67 27q24 0 42 -5.5
t31 -13t24 -13t22 -5.5q12 0 19 6t8 22l71 -1q-1 -45 -25.5 -71.5t-72.5 -26.5z" />
    <glyph glyph-name="uni1EAB" unicode="&#x1eab;" horiz-adv-x="546" 
d="M377 0l-10 74v237q0 44 -27.5 65.5t-74.5 21.5q-39 0 -79.5 -15.5t-71.5 -43.5l-63 85q52 42 106.5 60.5t117.5 18.5q102 0 159 -51t57 -141v-311h-114zM228 -10q-54 0 -96.5 20t-67 57t-24.5 85q0 43 17.5 73.5t46.5 46.5q25 15 55.5 21t65.5 6h153v-92h-135
q-16 0 -31.5 -2.5t-26.5 -11.5q-10 -7 -15 -17.5t-5 -23.5q0 -28 22 -45t59 -17q33 0 60.5 14.5t44 40t16.5 58.5l33 -66q-13 -52 -39.5 -84.5t-60.5 -47.5t-72 -15zM118 541l157 159l156 -159h-99l-57 65l-57 -65h-100zM342 696q-25 0 -41 6t-27 14.5t-22.5 15t-29.5 6.5
q-19 0 -26.5 -9.5t-9.5 -24.5l-67 1q1 44 27 71.5t68 27.5q24 0 42 -5.5t31 -13t24 -13t22 -5.5q12 0 19 6t8 22l71 -1q-1 -45 -24.5 -71.5t-64.5 -26.5z" />
    <glyph glyph-name="uni1EAC" unicode="&#x1eac;" horiz-adv-x="674" 
d="M8 0l280 697h97l280 -697h-141l-186 506l-189 -506h-141zM192 136l40 116h210l42 -116h-292zM271 -173v112h133v-112h-133zM181 745l157 175l156 -175h-99l-57 69l-57 -69h-100z" />
    <glyph glyph-name="uni1EAD" unicode="&#x1ead;" horiz-adv-x="546" 
d="M377 0l-10 74v237q0 44 -27.5 65.5t-74.5 21.5q-39 0 -79.5 -15.5t-71.5 -43.5l-63 85q52 42 106.5 60.5t117.5 18.5q102 0 159 -51t57 -141v-311h-114zM228 -10q-54 0 -96.5 20t-67 57t-24.5 85q0 43 17.5 73.5t46.5 46.5q25 15 55.5 21t65.5 6h153v-92h-135
q-16 0 -31.5 -2.5t-26.5 -11.5q-10 -7 -15 -17.5t-5 -23.5q0 -28 22 -45t59 -17q33 0 60.5 14.5t44 40t16.5 58.5l33 -66q-13 -52 -39.5 -84.5t-60.5 -47.5t-72 -15zM209 -173v112h133v-112h-133zM119 541l157 175l156 -175h-99l-57 69l-57 -69h-100z" />
    <glyph glyph-name="uni1EAE" unicode="&#x1eae;" horiz-adv-x="674" 
d="M8 0l280 697h97l280 -697h-141l-186 506l-189 -506h-141zM192 136l40 116h210l42 -116h-292zM337 738q-81 0 -118.5 34.5t-37.5 98.5h80q0 -31 21 -45.5t55 -14.5q36 0 56.5 15.5t20.5 44.5h80q0 -67 -39.5 -100t-117.5 -33zM297 881l56 116h97l-79 -116h-74z" />
    <glyph glyph-name="uni1EAF" unicode="&#x1eaf;" horiz-adv-x="546" 
d="M377 0l-10 74v237q0 44 -27.5 65.5t-74.5 21.5q-39 0 -79.5 -15.5t-71.5 -43.5l-63 85q52 42 106.5 60.5t117.5 18.5q102 0 159 -51t57 -141v-311h-114zM228 -10q-54 0 -96.5 20t-67 57t-24.5 85q0 43 17.5 73.5t46.5 46.5q25 15 55.5 21t65.5 6h153v-92h-135
q-16 0 -31.5 -2.5t-26.5 -11.5q-10 -7 -15 -17.5t-5 -23.5q0 -28 22 -45t59 -17q33 0 60.5 14.5t44 40t16.5 58.5l33 -66q-13 -52 -39.5 -84.5t-60.5 -47.5t-72 -15zM275 548q-81 0 -118.5 36.5t-37.5 112.5h80q0 -43 21 -60t55 -17q37 0 57 17.5t20 59.5h80
q0 -80 -39.5 -114.5t-117.5 -34.5zM235 707l61 124h99l-86 -124h-74z" />
    <glyph glyph-name="uni1EB0" unicode="&#x1eb0;" horiz-adv-x="674" 
d="M8 0l280 697h97l280 -697h-141l-186 506l-189 -506h-141zM192 136l40 116h210l42 -116h-292zM337 738q-81 0 -118.5 34.5t-37.5 98.5h80q0 -31 21 -45.5t55 -14.5q36 0 56.5 15.5t20.5 44.5h80q0 -67 -39.5 -100t-117.5 -33zM304 881l-79 116h97l57 -116h-75z" />
    <glyph glyph-name="uni1EB1" unicode="&#x1eb1;" horiz-adv-x="546" 
d="M377 0l-10 74v237q0 44 -27.5 65.5t-74.5 21.5q-39 0 -79.5 -15.5t-71.5 -43.5l-63 85q52 42 106.5 60.5t117.5 18.5q102 0 159 -51t57 -141v-311h-114zM228 -10q-54 0 -96.5 20t-67 57t-24.5 85q0 43 17.5 73.5t46.5 46.5q25 15 55.5 21t65.5 6h153v-92h-135
q-16 0 -31.5 -2.5t-26.5 -11.5q-10 -7 -15 -17.5t-5 -23.5q0 -28 22 -45t59 -17q33 0 60.5 14.5t44 40t16.5 58.5l33 -66q-13 -52 -39.5 -84.5t-60.5 -47.5t-72 -15zM275 548q-81 0 -118.5 36.5t-37.5 112.5h80q0 -43 21 -60t55 -17q37 0 57 17.5t20 59.5h80
q0 -80 -39.5 -114.5t-117.5 -34.5zM242 707l-85 124h99l61 -124h-75z" />
    <glyph glyph-name="uni1EB2" unicode="&#x1eb2;" horiz-adv-x="674" 
d="M8 0l280 697h97l280 -697h-141l-186 506l-189 -506h-141zM192 136l40 116h210l42 -116h-292zM337 738q-81 0 -118.5 34.5t-37.5 98.5h80q0 -31 21 -45.5t55 -14.5q36 0 56.5 15.5t20.5 44.5h80q0 -67 -39.5 -100t-117.5 -33zM312 850l-14 36q22 2 35.5 8.5t13.5 20.5
q0 16 -20.5 21.5t-43.5 5.5h-15v52h15q67 0 101.5 -18.5t34.5 -54.5q0 -25 -14.5 -39t-39 -21t-53.5 -11z" />
    <glyph glyph-name="uni1EB3" unicode="&#x1eb3;" horiz-adv-x="546" 
d="M377 0l-10 74v237q0 44 -27.5 65.5t-74.5 21.5q-39 0 -79.5 -15.5t-71.5 -43.5l-63 85q52 42 106.5 60.5t117.5 18.5q102 0 159 -51t57 -141v-311h-114zM228 -10q-54 0 -96.5 20t-67 57t-24.5 85q0 43 17.5 73.5t46.5 46.5q25 15 55.5 21t65.5 6h153v-92h-135
q-16 0 -31.5 -2.5t-26.5 -11.5q-10 -7 -15 -17.5t-5 -23.5q0 -28 22 -45t59 -17q33 0 60.5 14.5t44 40t16.5 58.5l33 -66q-13 -52 -39.5 -84.5t-60.5 -47.5t-72 -15zM275 548q-81 0 -118.5 36.5t-37.5 112.5h80q0 -43 21 -60t55 -17q37 0 57 17.5t20 59.5h80
q0 -80 -39.5 -114.5t-117.5 -34.5zM250 685l-14 45q24 3 36.5 10t12.5 22q0 14 -10 20.5t-24.5 9t-29.5 2.5h-15v65h15q67 0 101.5 -23t34.5 -66q0 -32 -15.5 -49t-40 -24.5t-51.5 -11.5z" />
    <glyph glyph-name="uni1EB4" unicode="&#x1eb4;" horiz-adv-x="674" 
d="M8 0l280 697h97l280 -697h-141l-186 506l-189 -506h-141zM192 136l40 116h210l42 -116h-292zM337 738q-81 0 -118.5 34.5t-37.5 98.5h80q0 -31 21 -45.5t55 -14.5q36 0 56.5 15.5t20.5 44.5h80q0 -67 -39.5 -100t-117.5 -33zM398 884q-25 0 -41 7t-27 16.5t-21.5 16.5
t-24.5 7q-16 0 -24 -12t-10 -27h-67q2 46 28 72.5t67 26.5q25 0 41 -6t27.5 -15t22 -15t23.5 -6q17 0 24 9t9 24h71q-2 -45 -26.5 -71.5t-71.5 -26.5z" />
    <glyph glyph-name="uni1EB5" unicode="&#x1eb5;" horiz-adv-x="546" 
d="M377 0l-10 74v237q0 44 -27.5 65.5t-74.5 21.5q-39 0 -79.5 -15.5t-71.5 -43.5l-63 85q52 42 106.5 60.5t117.5 18.5q102 0 159 -51t57 -141v-311h-114zM228 -10q-54 0 -96.5 20t-67 57t-24.5 85q0 43 17.5 73.5t46.5 46.5q25 15 55.5 21t65.5 6h153v-92h-135
q-16 0 -31.5 -2.5t-26.5 -11.5q-10 -7 -15 -17.5t-5 -23.5q0 -28 22 -45t59 -17q33 0 60.5 14.5t44 40t16.5 58.5l33 -66q-13 -52 -39.5 -84.5t-60.5 -47.5t-72 -15zM275 548q-81 0 -118.5 36.5t-37.5 112.5h80q0 -43 21 -60t55 -17q37 0 57 17.5t20 59.5h80
q0 -80 -39.5 -114.5t-117.5 -34.5zM344 728q-25 0 -41 6.5t-27 15t-23 14.5t-29 6q-18 0 -26 -9t-10 -24h-68q2 46 28.5 72.5t66.5 26.5q25 0 43 -5.5t31 -13t24 -13t23 -5.5q11 0 18 6.5t8 21.5h71q-2 -45 -25 -72t-64 -27z" />
    <glyph glyph-name="uni1EB6" unicode="&#x1eb6;" horiz-adv-x="674" 
d="M8 0l280 697h97l280 -697h-141l-186 506l-189 -506h-141zM192 136l40 116h210l42 -116h-292zM271 -173v112h133v-112h-133zM337 738q-81 0 -118.5 34.5t-37.5 98.5h88q0 -31 20.5 -45.5t47.5 -14.5q30 0 49.5 15.5t19.5 44.5h88q0 -67 -39.5 -100t-117.5 -33z" />
    <glyph glyph-name="uni1EB7" unicode="&#x1eb7;" horiz-adv-x="546" 
d="M377 0l-10 74v237q0 44 -27.5 65.5t-74.5 21.5q-39 0 -79.5 -15.5t-71.5 -43.5l-63 85q52 42 106.5 60.5t117.5 18.5q102 0 159 -51t57 -141v-311h-114zM228 -10q-54 0 -96.5 20t-67 57t-24.5 85q0 43 17.5 73.5t46.5 46.5q25 15 55.5 21t65.5 6h153v-92h-135
q-16 0 -31.5 -2.5t-26.5 -11.5q-10 -7 -15 -17.5t-5 -23.5q0 -28 22 -45t59 -17q33 0 60.5 14.5t44 40t16.5 58.5l33 -66q-13 -52 -39.5 -84.5t-60.5 -47.5t-72 -15zM209 -173v112h133v-112h-133zM275 548q-81 0 -118.5 36.5t-37.5 112.5h80q0 -43 21 -60t55 -17
q37 0 57 17.5t20 59.5h80q0 -80 -39.5 -114.5t-117.5 -34.5z" />
    <glyph glyph-name="uni1EB8" unicode="&#x1eb8;" horiz-adv-x="578" 
d="M67 0v697h464v-116h-335v-166h313v-115h-313v-184h335v-116h-464zM233 -173v112h133v-112h-133z" />
    <glyph glyph-name="uni1EB9" unicode="&#x1eb9;" horiz-adv-x="541" 
d="M281 -10q-64 0 -110 21t-75.5 56.5t-43.5 81t-14 95.5q0 48 14 94t42 83t72.5 59.5t106.5 22.5q58 0 101 -19.5t71 -54t42.5 -80.5t14.5 -98q0 -7 -0.5 -19.5t-2.5 -26.5h-337q5 -53 39.5 -80t86.5 -27q38 0 74 13.5t64 38.5l62 -84q-35 -27 -66 -44t-64.5 -24.5
t-76.5 -7.5zM379 267q2 8 3.5 16t1.5 15q0 21 -8 39.5t-22 32.5t-33.5 21.5t-44.5 7.5q-37 0 -62 -15t-37.5 -38.5t-15.5 -48.5h260zM215 -173v112h133v-112h-133z" />
    <glyph glyph-name="uni1EBA" unicode="&#x1eba;" horiz-adv-x="578" 
d="M67 0v697h464v-116h-335v-166h313v-115h-313v-184h335v-116h-464zM270 722l-8 43q23 3 43 8.5t20 25.5q0 21 -24 27t-55 6h-16v69h16q75 0 120.5 -24t45.5 -70q0 -33 -22.5 -51t-55.5 -25t-64 -9z" />
    <glyph glyph-name="uni1EBB" unicode="&#x1ebb;" horiz-adv-x="541" 
d="M281 -10q-64 0 -110 21t-75.5 56.5t-43.5 81t-14 95.5q0 48 14 94t42 83t72.5 59.5t106.5 22.5q58 0 101 -19.5t71 -54t42.5 -80.5t14.5 -98q0 -7 -0.5 -19.5t-2.5 -26.5h-337q5 -53 39.5 -80t86.5 -27q38 0 74 13.5t64 38.5l62 -84q-35 -27 -66 -44t-64.5 -24.5
t-76.5 -7.5zM379 267q2 8 3.5 16t1.5 15q0 21 -8 39.5t-22 32.5t-33.5 21.5t-44.5 7.5q-37 0 -62 -15t-37.5 -38.5t-15.5 -48.5h260zM245 518l-8 43q23 3 43 8.5t20 25.5q0 21 -24 27t-55 6h-16v69h16q75 0 120.5 -24t45.5 -70q0 -33 -22.5 -51t-55.5 -25t-64 -9z" />
    <glyph glyph-name="uni1EBC" unicode="&#x1ebc;" horiz-adv-x="578" 
d="M67 0v697h464v-116h-335v-166h313v-115h-313v-184h335v-116h-464zM361 742q-23 0 -39.5 6.5t-29 16t-22 19t-18.5 16t-19 6.5q-14 0 -22 -15.5t-8 -45.5h-72q0 61 29 95t78 34q21 0 36.5 -7t27 -16.5t21.5 -19t19.5 -16t20.5 -6.5t19.5 16t8.5 46h75q0 -62 -28.5 -95.5
t-76.5 -33.5z" />
    <glyph glyph-name="uni1EBD" unicode="&#x1ebd;" horiz-adv-x="541" 
d="M281 -10q-64 0 -110 21t-75.5 56.5t-43.5 81t-14 95.5q0 48 14 94t42 83t72.5 59.5t106.5 22.5q58 0 101 -19.5t71 -54t42.5 -80.5t14.5 -98q0 -7 -0.5 -19.5t-2.5 -26.5h-337q5 -53 39.5 -80t86.5 -27q38 0 74 13.5t64 38.5l62 -84q-35 -27 -66 -44t-64.5 -24.5
t-76.5 -7.5zM379 267q2 8 3.5 16t1.5 15q0 21 -8 39.5t-22 32.5t-33.5 21.5t-44.5 7.5q-37 0 -62 -15t-37.5 -38.5t-15.5 -48.5h260zM336 556q-29 0 -48 10t-32 23.5t-24 23.5t-24 10q-14 0 -22 -17t-8 -49h-72q0 69 29 106t78 37q26 0 44 -10.5t31.5 -24t25 -24t24.5 -10.5
q11 0 19.5 17t8.5 49h75q0 -68 -28.5 -104.5t-76.5 -36.5z" />
    <glyph glyph-name="uni1EBE" unicode="&#x1ebe;" horiz-adv-x="578" 
d="M67 0v697h464v-116h-335v-166h313v-115h-313v-184h335v-116h-464zM143 742l157 131l156 -131h-99l-57 53l-57 -53h-100zM369 853l65 133h101l-91 -133h-75z" />
    <glyph glyph-name="uni1EBF" unicode="&#x1ebf;" horiz-adv-x="541" 
d="M281 -10q-64 0 -110 21t-75.5 56.5t-43.5 81t-14 95.5q0 48 14 94t42 83t72.5 59.5t106.5 22.5q58 0 101 -19.5t71 -54t42.5 -80.5t14.5 -98q0 -7 -0.5 -19.5t-2.5 -26.5h-337q5 -53 39.5 -80t86.5 -27q38 0 74 13.5t64 38.5l62 -84q-35 -27 -66 -44t-64.5 -24.5
t-76.5 -7.5zM379 267q2 8 3.5 16t1.5 15q0 21 -8 39.5t-22 32.5t-33.5 21.5t-44.5 7.5q-37 0 -62 -15t-37.5 -38.5t-15.5 -48.5h260zM118 541l157 159l156 -159h-99l-57 53l-57 -53h-100zM344 652l65 132h101l-91 -132h-75z" />
    <glyph glyph-name="uni1EC0" unicode="&#x1ec0;" horiz-adv-x="578" 
d="M67 0v697h464v-116h-335v-166h313v-115h-313v-184h335v-116h-464zM143 742l157 131l156 -131h-99l-57 53l-57 -53h-100zM409 853l-92 133h101l65 -133h-74z" />
    <glyph glyph-name="uni1EC1" unicode="&#x1ec1;" horiz-adv-x="541" 
d="M281 -10q-64 0 -110 21t-75.5 56.5t-43.5 81t-14 95.5q0 48 14 94t42 83t72.5 59.5t106.5 22.5q58 0 101 -19.5t71 -54t42.5 -80.5t14.5 -98q0 -7 -0.5 -19.5t-2.5 -26.5h-337q5 -53 39.5 -80t86.5 -27q38 0 74 13.5t64 38.5l62 -84q-35 -27 -66 -44t-64.5 -24.5
t-76.5 -7.5zM379 267q2 8 3.5 16t1.5 15q0 21 -8 39.5t-22 32.5t-33.5 21.5t-44.5 7.5q-37 0 -62 -15t-37.5 -38.5t-15.5 -48.5h260zM118 541l157 159l156 -159h-99l-57 53l-57 -53h-100zM384 652l-92 132h101l65 -132h-74z" />
    <glyph glyph-name="uni1EC2" unicode="&#x1ec2;" horiz-adv-x="578" 
d="M67 0v697h464v-116h-335v-166h313v-115h-313v-184h335v-116h-464zM143 742l157 143l156 -143h-99l-57 59l-57 -59h-100zM406 821l-14 44q23 3 36 10t13 23q0 13 -9.5 19.5t-24 9t-30.5 2.5h-15v65h15q67 0 101.5 -23t34.5 -66q0 -31 -15.5 -48t-40 -24t-51.5 -12z" />
    <glyph glyph-name="uni1EC3" unicode="&#x1ec3;" horiz-adv-x="541" 
d="M281 -10q-64 0 -110 21t-75.5 56.5t-43.5 81t-14 95.5q0 48 14 94t42 83t72.5 59.5t106.5 22.5q58 0 101 -19.5t71 -54t42.5 -80.5t14.5 -98q0 -7 -0.5 -19.5t-2.5 -26.5h-337q5 -53 39.5 -80t86.5 -27q38 0 74 13.5t64 38.5l62 -84q-35 -27 -66 -44t-64.5 -24.5
t-76.5 -7.5zM379 267q2 8 3.5 16t1.5 15q0 21 -8 39.5t-22 32.5t-33.5 21.5t-44.5 7.5q-37 0 -62 -15t-37.5 -38.5t-15.5 -48.5h260zM118 541l157 159l156 -159h-99l-57 53l-57 -53h-100zM371 633l-14 44q22 3 35.5 9.5t13.5 23.5q0 20 -20.5 25.5t-43.5 5.5h-15v65h15
q67 0 101.5 -23t34.5 -66q0 -32 -15.5 -48.5t-40 -24t-51.5 -11.5z" />
    <glyph glyph-name="uni1EC4" unicode="&#x1ec4;" horiz-adv-x="578" 
d="M67 0v697h464v-116h-335v-166h313v-115h-313v-184h335v-116h-464zM142 742l157 131l156 -131h-99l-57 53l-57 -53h-100zM357 887q-24 0 -42 6t-31 14.5t-24 15t-22 6.5q-13 0 -19.5 -9.5t-8.5 -24.5l-67 1q2 45 28 72t67 27q24 0 42 -5.5t31 -13t24 -13t22 -5.5
q12 0 19 6t8 22l71 -1q-1 -45 -25.5 -71.5t-72.5 -26.5z" />
    <glyph glyph-name="uni1EC5" unicode="&#x1ec5;" horiz-adv-x="541" 
d="M281 -10q-64 0 -110 21t-75.5 56.5t-43.5 81t-14 95.5q0 48 14 94t42 83t72.5 59.5t106.5 22.5q58 0 101 -19.5t71 -54t42.5 -80.5t14.5 -98q0 -7 -0.5 -19.5t-2.5 -26.5h-337q5 -53 39.5 -80t86.5 -27q38 0 74 13.5t64 38.5l62 -84q-35 -27 -66 -44t-64.5 -24.5
t-76.5 -7.5zM379 267q2 8 3.5 16t1.5 15q0 21 -8 39.5t-22 32.5t-33.5 21.5t-44.5 7.5q-37 0 -62 -15t-37.5 -38.5t-15.5 -48.5h260zM117 541l157 159l156 -159h-99l-57 65l-57 -65h-100zM341 696q-25 0 -41 6t-27 14.5t-22.5 15t-29.5 6.5q-19 0 -26.5 -9.5t-9.5 -24.5
l-67 1q1 44 27 71.5t68 27.5q24 0 42 -5.5t31 -13t24 -13t22 -5.5q12 0 19 6t8 22l71 -1q-1 -45 -24.5 -71.5t-64.5 -26.5z" />
    <glyph glyph-name="uni1EC6" unicode="&#x1ec6;" horiz-adv-x="578" 
d="M67 0v697h464v-116h-335v-166h313v-115h-313v-184h335v-116h-464zM233 -173v112h133v-112h-133zM143 745l157 175l156 -175h-99l-57 69l-57 -69h-100z" />
    <glyph glyph-name="uni1EC7" unicode="&#x1ec7;" horiz-adv-x="541" 
d="M281 -10q-64 0 -110 21t-75.5 56.5t-43.5 81t-14 95.5q0 48 14 94t42 83t72.5 59.5t106.5 22.5q58 0 101 -19.5t71 -54t42.5 -80.5t14.5 -98q0 -7 -0.5 -19.5t-2.5 -26.5h-337q5 -53 39.5 -80t86.5 -27q38 0 74 13.5t64 38.5l62 -84q-35 -27 -66 -44t-64.5 -24.5
t-76.5 -7.5zM379 267q2 8 3.5 16t1.5 15q0 21 -8 39.5t-22 32.5t-33.5 21.5t-44.5 7.5q-37 0 -62 -15t-37.5 -38.5t-15.5 -48.5h260zM215 -173v112h133v-112h-133zM118 541l157 175l156 -175h-99l-57 69l-57 -69h-100z" />
    <glyph glyph-name="uni1EC8" unicode="&#x1ec8;" horiz-adv-x="263" 
d="M67 0v697h129v-697h-129zM103 722l-8 43q23 3 43 8.5t20 25.5q0 21 -24 27t-55 6h-16v69h16q75 0 120.5 -24t45.5 -70q0 -33 -22.5 -51t-55.5 -25t-64 -9z" />
    <glyph glyph-name="uni1EC9" unicode="&#x1ec9;" horiz-adv-x="245" 
d="M60 0v493h124v-493h-124zM94 518l-8 43q23 3 43 8.5t20 25.5q0 21 -24 27t-55 6h-16v69h16q75 0 120.5 -24t45.5 -70q0 -33 -22.5 -51t-55.5 -25t-64 -9z" />
    <glyph glyph-name="uni1ECA" unicode="&#x1eca;" horiz-adv-x="263" 
d="M67 0v697h129v-697h-129zM66 -173v112h133v-112h-133z" />
    <glyph glyph-name="uni1ECB" unicode="&#x1ecb;" horiz-adv-x="245" 
d="M60 0v493h124v-493h-124zM56 569v128h133v-128h-133zM56 -173v112h133v-112h-133z" />
    <glyph glyph-name="uni1ECC" unicode="&#x1ecc;" horiz-adv-x="747" 
d="M373 -16q-99 0 -174.5 45.5t-117.5 127.5t-42 191q0 110 42 192t117.5 127.5t174.5 45.5q100 0 175.5 -45.5t117.5 -127.5t42 -192q0 -109 -42.5 -191t-118 -127.5t-174.5 -45.5zM372 108q64 0 109.5 29.5t70.5 83.5t25 127q0 74 -25 128t-70.5 83.5t-109.5 29.5
q-61 0 -107.5 -29t-71 -83t-24.5 -129q0 -74 24.5 -128t71 -83t107.5 -29zM307 -173v112h133v-112h-133z" />
    <glyph glyph-name="uni1ECD" unicode="&#x1ecd;" horiz-adv-x="572" 
d="M287 -10q-72 0 -128 33t-88.5 91.5t-32.5 132.5q0 75 32 132.5t88.5 90.5t128.5 33q71 0 127 -33t88 -90.5t32 -132.5q0 -74 -32 -132t-88 -91.5t-127 -33.5zM287 99q38 0 65.5 18t42 51t14.5 79q0 47 -14.5 79.5t-42 50t-65.5 17.5q-39 0 -67 -17.5t-43 -50t-15 -79.5
q0 -46 15 -79t43 -51t67 -18zM220 -173v112h133v-112h-133z" />
    <glyph glyph-name="uni1ECE" unicode="&#x1ece;" horiz-adv-x="747" 
d="M373 -16q-99 0 -174.5 45.5t-117.5 127.5t-42 191q0 110 42 192t117.5 127.5t174.5 45.5q100 0 175.5 -45.5t117.5 -127.5t42 -192q0 -109 -42.5 -191t-118 -127.5t-174.5 -45.5zM372 108q64 0 109.5 29.5t70.5 83.5t25 127q0 74 -25 128t-70.5 83.5t-109.5 29.5
q-61 0 -107.5 -29t-71 -83t-24.5 -129q0 -74 24.5 -128t71 -83t107.5 -29zM344 722l-8 43q23 3 43 8.5t20 25.5q0 21 -24 27t-55 6h-16v69h16q75 0 120.5 -24t45.5 -70q0 -33 -22.5 -51t-55.5 -25t-64 -9z" />
    <glyph glyph-name="uni1ECF" unicode="&#x1ecf;" horiz-adv-x="572" 
d="M287 -10q-72 0 -128 33t-88.5 91.5t-32.5 132.5q0 75 32 132.5t88.5 90.5t128.5 33q71 0 127 -33t88 -90.5t32 -132.5q0 -74 -32 -132t-88 -91.5t-127 -33.5zM287 99q38 0 65.5 18t42 51t14.5 79q0 47 -14.5 79.5t-42 50t-65.5 17.5q-39 0 -67 -17.5t-43 -50t-15 -79.5
q0 -46 15 -79t43 -51t67 -18zM258 518l-8 43q23 3 43 8.5t20 25.5q0 21 -24 27t-55 6h-16v69h16q75 0 120.5 -24t45.5 -70q0 -33 -22.5 -51t-55.5 -25t-64 -9z" />
    <glyph glyph-name="uni1ED0" unicode="&#x1ed0;" horiz-adv-x="747" 
d="M373 -16q-99 0 -174.5 45.5t-117.5 127.5t-42 191q0 110 42 192t117.5 127.5t174.5 45.5q100 0 175.5 -45.5t117.5 -127.5t42 -192q0 -109 -42.5 -191t-118 -127.5t-174.5 -45.5zM372 108q64 0 109.5 29.5t70.5 83.5t25 127q0 74 -25 128t-70.5 83.5t-109.5 29.5
q-61 0 -107.5 -29t-71 -83t-24.5 -129q0 -74 24.5 -128t71 -83t107.5 -29zM216 742l157 131l156 -131h-99l-57 53l-57 -53h-100zM442 853l65 133h101l-91 -133h-75z" />
    <glyph glyph-name="uni1ED1" unicode="&#x1ed1;" horiz-adv-x="572" 
d="M287 -10q-72 0 -128 33t-88.5 91.5t-32.5 132.5q0 75 32 132.5t88.5 90.5t128.5 33q71 0 127 -33t88 -90.5t32 -132.5q0 -74 -32 -132t-88 -91.5t-127 -33.5zM287 99q38 0 65.5 18t42 51t14.5 79q0 47 -14.5 79.5t-42 50t-65.5 17.5q-39 0 -67 -17.5t-43 -50t-15 -79.5
q0 -46 15 -79t43 -51t67 -18zM130 541l157 159l156 -159h-99l-57 53l-57 -53h-100zM356 652l65 132h101l-91 -132h-75z" />
    <glyph glyph-name="uni1ED2" unicode="&#x1ed2;" horiz-adv-x="747" 
d="M373 -16q-99 0 -174.5 45.5t-117.5 127.5t-42 191q0 110 42 192t117.5 127.5t174.5 45.5q100 0 175.5 -45.5t117.5 -127.5t42 -192q0 -109 -42.5 -191t-118 -127.5t-174.5 -45.5zM372 108q64 0 109.5 29.5t70.5 83.5t25 127q0 74 -25 128t-70.5 83.5t-109.5 29.5
q-61 0 -107.5 -29t-71 -83t-24.5 -129q0 -74 24.5 -128t71 -83t107.5 -29zM216 742l157 131l156 -131h-99l-57 53l-57 -53h-100zM482 853l-92 133h101l65 -133h-74z" />
    <glyph glyph-name="uni1ED3" unicode="&#x1ed3;" horiz-adv-x="572" 
d="M287 -10q-72 0 -128 33t-88.5 91.5t-32.5 132.5q0 75 32 132.5t88.5 90.5t128.5 33q71 0 127 -33t88 -90.5t32 -132.5q0 -74 -32 -132t-88 -91.5t-127 -33.5zM287 99q38 0 65.5 18t42 51t14.5 79q0 47 -14.5 79.5t-42 50t-65.5 17.5q-39 0 -67 -17.5t-43 -50t-15 -79.5
q0 -46 15 -79t43 -51t67 -18zM130 541l157 159l156 -159h-99l-57 53l-57 -53h-100zM396 652l-92 132h101l65 -132h-74z" />
    <glyph glyph-name="uni1ED4" unicode="&#x1ed4;" horiz-adv-x="747" 
d="M373 -16q-99 0 -174.5 45.5t-117.5 127.5t-42 191q0 110 42 192t117.5 127.5t174.5 45.5q100 0 175.5 -45.5t117.5 -127.5t42 -192q0 -109 -42.5 -191t-118 -127.5t-174.5 -45.5zM372 108q64 0 109.5 29.5t70.5 83.5t25 127q0 74 -25 128t-70.5 83.5t-109.5 29.5
q-61 0 -107.5 -29t-71 -83t-24.5 -129q0 -74 24.5 -128t71 -83t107.5 -29zM216 742l157 143l156 -143h-99l-57 59l-57 -59h-100zM479 821l-14 44q23 3 36 10t13 23q0 13 -9.5 19.5t-24 9t-30.5 2.5h-15v65h15q67 0 101.5 -23t34.5 -66q0 -31 -15.5 -48t-40 -24t-51.5 -12z
" />
    <glyph glyph-name="uni1ED5" unicode="&#x1ed5;" horiz-adv-x="572" 
d="M287 -10q-72 0 -128 33t-88.5 91.5t-32.5 132.5q0 75 32 132.5t88.5 90.5t128.5 33q71 0 127 -33t88 -90.5t32 -132.5q0 -74 -32 -132t-88 -91.5t-127 -33.5zM287 99q38 0 65.5 18t42 51t14.5 79q0 47 -14.5 79.5t-42 50t-65.5 17.5q-39 0 -67 -17.5t-43 -50t-15 -79.5
q0 -46 15 -79t43 -51t67 -18zM130 541l157 159l156 -159h-99l-57 53l-57 -53h-100zM383 633l-14 44q22 3 35.5 9.5t13.5 23.5q0 20 -20.5 25.5t-43.5 5.5h-15v65h15q67 0 101.5 -23t34.5 -66q0 -32 -15.5 -48.5t-40 -24t-51.5 -11.5z" />
    <glyph glyph-name="uni1ED6" unicode="&#x1ed6;" horiz-adv-x="747" 
d="M373 -16q-99 0 -174.5 45.5t-117.5 127.5t-42 191q0 110 42 192t117.5 127.5t174.5 45.5q100 0 175.5 -45.5t117.5 -127.5t42 -192q0 -109 -42.5 -191t-118 -127.5t-174.5 -45.5zM372 108q64 0 109.5 29.5t70.5 83.5t25 127q0 74 -25 128t-70.5 83.5t-109.5 29.5
q-61 0 -107.5 -29t-71 -83t-24.5 -129q0 -74 24.5 -128t71 -83t107.5 -29zM216 742l157 131l156 -131h-99l-57 53l-57 -53h-100zM431 887q-24 0 -42 6t-31 14.5t-24 15t-22 6.5q-13 0 -19.5 -9.5t-8.5 -24.5l-67 1q2 45 28 72t67 27q24 0 42 -5.5t31 -13t24 -13t22 -5.5
q12 0 19 6t8 22l71 -1q-1 -45 -25.5 -71.5t-72.5 -26.5z" />
    <glyph glyph-name="uni1ED7" unicode="&#x1ed7;" horiz-adv-x="572" 
d="M287 -10q-72 0 -128 33t-88.5 91.5t-32.5 132.5q0 75 32 132.5t88.5 90.5t128.5 33q71 0 127 -33t88 -90.5t32 -132.5q0 -74 -32 -132t-88 -91.5t-127 -33.5zM287 99q38 0 65.5 18t42 51t14.5 79q0 47 -14.5 79.5t-42 50t-65.5 17.5q-39 0 -67 -17.5t-43 -50t-15 -79.5
q0 -46 15 -79t43 -51t67 -18zM129 541l157 159l156 -159h-99l-57 65l-57 -65h-100zM353 696q-25 0 -41 6t-27 14.5t-22.5 15t-29.5 6.5q-19 0 -26.5 -9.5t-9.5 -24.5l-67 1q1 44 27 71.5t68 27.5q24 0 42 -5.5t31 -13t24 -13t22 -5.5q12 0 19 6t8 22l71 -1
q-1 -45 -24.5 -71.5t-64.5 -26.5z" />
    <glyph glyph-name="uni1ED8" unicode="&#x1ed8;" horiz-adv-x="747" 
d="M373 -16q-99 0 -174.5 45.5t-117.5 127.5t-42 191q0 110 42 192t117.5 127.5t174.5 45.5q100 0 175.5 -45.5t117.5 -127.5t42 -192q0 -109 -42.5 -191t-118 -127.5t-174.5 -45.5zM372 108q64 0 109.5 29.5t70.5 83.5t25 127q0 74 -25 128t-70.5 83.5t-109.5 29.5
q-61 0 -107.5 -29t-71 -83t-24.5 -129q0 -74 24.5 -128t71 -83t107.5 -29zM307 -173v112h133v-112h-133zM216 745l157 175l156 -175h-99l-57 69l-57 -69h-100z" />
    <glyph glyph-name="uni1ED9" unicode="&#x1ed9;" horiz-adv-x="572" 
d="M287 -10q-72 0 -128 33t-88.5 91.5t-32.5 132.5q0 75 32 132.5t88.5 90.5t128.5 33q71 0 127 -33t88 -90.5t32 -132.5q0 -74 -32 -132t-88 -91.5t-127 -33.5zM287 99q38 0 65.5 18t42 51t14.5 79q0 47 -14.5 79.5t-42 50t-65.5 17.5q-39 0 -67 -17.5t-43 -50t-15 -79.5
q0 -46 15 -79t43 -51t67 -18zM220 -173v112h133v-112h-133zM130 541l157 175l156 -175h-99l-57 69l-57 -69h-100z" />
    <glyph glyph-name="uni1EDA" unicode="&#x1eda;" horiz-adv-x="747" 
d="M373 -16q-99 0 -174.5 45.5t-117.5 127.5t-42 191q0 110 42 192t117.5 127.5t174.5 45.5q100 0 175.5 -45.5t117.5 -127.5t42 -192q0 -109 -42.5 -191t-118 -127.5t-174.5 -45.5zM372 108q64 0 109.5 29.5t70.5 83.5t25 127q0 74 -25 128t-70.5 83.5t-109.5 29.5
q-61 0 -107.5 -29t-71 -83t-24.5 -129q0 -74 24.5 -128t71 -83t107.5 -29zM594 493v81q40 0 56 24t16 68v31h86v-38q0 -45 -16 -83t-50.5 -60.5t-91.5 -22.5zM327 759l112 142h133l-154 -142h-91z" />
    <glyph glyph-name="uni1EDB" unicode="&#x1edb;" horiz-adv-x="572" 
d="M287 -10q-72 0 -128 33t-88.5 91.5t-32.5 132.5q0 75 32 132.5t88.5 90.5t128.5 33q71 0 127 -33t88 -90.5t32 -132.5q0 -74 -32 -132t-88 -91.5t-127 -33.5zM287 99q38 0 65.5 18t42 51t14.5 79q0 47 -14.5 79.5t-42 50t-65.5 17.5q-39 0 -67 -17.5t-43 -50t-15 -79.5
q0 -46 15 -79t43 -51t67 -18zM431 338v81q40 0 56 24t16 68v31h86v-38q0 -45 -16 -83t-50.5 -60.5t-91.5 -22.5zM241 555l112 142h133l-154 -142h-91z" />
    <glyph glyph-name="uni1EDC" unicode="&#x1edc;" horiz-adv-x="747" 
d="M373 -16q-99 0 -174.5 45.5t-117.5 127.5t-42 191q0 110 42 192t117.5 127.5t174.5 45.5q100 0 175.5 -45.5t117.5 -127.5t42 -192q0 -109 -42.5 -191t-118 -127.5t-174.5 -45.5zM372 108q64 0 109.5 29.5t70.5 83.5t25 127q0 74 -25 128t-70.5 83.5t-109.5 29.5
q-61 0 -107.5 -29t-71 -83t-24.5 -129q0 -74 24.5 -128t71 -83t107.5 -29zM594 493v81q40 0 56 24t16 68v31h86v-38q0 -45 -16 -83t-50.5 -60.5t-91.5 -22.5zM327 759l-144 142h132l104 -142h-92z" />
    <glyph glyph-name="uni1EDD" unicode="&#x1edd;" horiz-adv-x="572" 
d="M287 -10q-72 0 -128 33t-88.5 91.5t-32.5 132.5q0 75 32 132.5t88.5 90.5t128.5 33q71 0 127 -33t88 -90.5t32 -132.5q0 -74 -32 -132t-88 -91.5t-127 -33.5zM287 99q38 0 65.5 18t42 51t14.5 79q0 47 -14.5 79.5t-42 50t-65.5 17.5q-39 0 -67 -17.5t-43 -50t-15 -79.5
q0 -46 15 -79t43 -51t67 -18zM431 338v81q40 0 56 24t16 68v31h86v-38q0 -45 -16 -83t-50.5 -60.5t-91.5 -22.5zM240 555l-144 142h132l104 -142h-92z" />
    <glyph glyph-name="uni1EDE" unicode="&#x1ede;" horiz-adv-x="747" 
d="M373 -16q-99 0 -174.5 45.5t-117.5 127.5t-42 191q0 110 42 192t117.5 127.5t174.5 45.5q100 0 175.5 -45.5t117.5 -127.5t42 -192q0 -109 -42.5 -191t-118 -127.5t-174.5 -45.5zM372 108q64 0 109.5 29.5t70.5 83.5t25 127q0 74 -25 128t-70.5 83.5t-109.5 29.5
q-61 0 -107.5 -29t-71 -83t-24.5 -129q0 -74 24.5 -128t71 -83t107.5 -29zM594 493v81q40 0 56 24t16 68v31h86v-38q0 -45 -16 -83t-50.5 -60.5t-91.5 -22.5zM344 722l-8 43q23 3 43 8.5t20 25.5q0 21 -24 27t-55 6h-16v69h16q75 0 120.5 -24t45.5 -70q0 -33 -22.5 -51
t-55.5 -25t-64 -9z" />
    <glyph glyph-name="uni1EDF" unicode="&#x1edf;" horiz-adv-x="572" 
d="M287 -10q-72 0 -128 33t-88.5 91.5t-32.5 132.5q0 75 32 132.5t88.5 90.5t128.5 33q71 0 127 -33t88 -90.5t32 -132.5q0 -74 -32 -132t-88 -91.5t-127 -33.5zM287 99q38 0 65.5 18t42 51t14.5 79q0 47 -14.5 79.5t-42 50t-65.5 17.5q-39 0 -67 -17.5t-43 -50t-15 -79.5
q0 -46 15 -79t43 -51t67 -18zM431 338v81q40 0 56 24t16 68v31h86v-38q0 -45 -16 -83t-50.5 -60.5t-91.5 -22.5zM258 518l-8 43q23 3 43 8.5t20 25.5q0 21 -24 27t-55 6h-16v69h16q75 0 120.5 -24t45.5 -70q0 -33 -22.5 -51t-55.5 -25t-64 -9z" />
    <glyph glyph-name="uni1EE0" unicode="&#x1ee0;" horiz-adv-x="747" 
d="M373 -16q-99 0 -174.5 45.5t-117.5 127.5t-42 191q0 110 42 192t117.5 127.5t174.5 45.5q100 0 175.5 -45.5t117.5 -127.5t42 -192q0 -109 -42.5 -191t-118 -127.5t-174.5 -45.5zM372 108q64 0 109.5 29.5t70.5 83.5t25 127q0 74 -25 128t-70.5 83.5t-109.5 29.5
q-61 0 -107.5 -29t-71 -83t-24.5 -129q0 -74 24.5 -128t71 -83t107.5 -29zM594 493v81q40 0 56 24t16 68v31h86v-38q0 -45 -16 -83t-50.5 -60.5t-91.5 -22.5zM435 742q-23 0 -39.5 6.5t-29 16t-22 19t-18.5 16t-19 6.5q-14 0 -22 -15.5t-8 -45.5h-72q0 61 29 95t78 34
q21 0 36.5 -7t27 -16.5t21.5 -19t19.5 -16t20.5 -6.5t19.5 16t8.5 46h75q0 -62 -28.5 -95.5t-76.5 -33.5z" />
    <glyph glyph-name="uni1EE1" unicode="&#x1ee1;" horiz-adv-x="572" 
d="M287 -10q-72 0 -128 33t-88.5 91.5t-32.5 132.5q0 75 32 132.5t88.5 90.5t128.5 33q71 0 127 -33t88 -90.5t32 -132.5q0 -74 -32 -132t-88 -91.5t-127 -33.5zM287 99q38 0 65.5 18t42 51t14.5 79q0 47 -14.5 79.5t-42 50t-65.5 17.5q-39 0 -67 -17.5t-43 -50t-15 -79.5
q0 -46 15 -79t43 -51t67 -18zM431 338v81q40 0 56 24t16 68v31h86v-38q0 -45 -16 -83t-50.5 -60.5t-91.5 -22.5zM348 556q-29 0 -48 10t-32 23.5t-24 23.5t-24 10q-14 0 -22 -17t-8 -49h-72q0 69 29 106t78 37q26 0 44 -10.5t31.5 -24t25 -24t24.5 -10.5q11 0 19.5 17
t8.5 49h75q0 -68 -28.5 -104.5t-76.5 -36.5z" />
    <glyph glyph-name="uni1EE2" unicode="&#x1ee2;" horiz-adv-x="747" 
d="M373 -16q-99 0 -174.5 45.5t-117.5 127.5t-42 191q0 110 42 192t117.5 127.5t174.5 45.5q100 0 175.5 -45.5t117.5 -127.5t42 -192q0 -109 -42.5 -191t-118 -127.5t-174.5 -45.5zM372 108q64 0 109.5 29.5t70.5 83.5t25 127q0 74 -25 128t-70.5 83.5t-109.5 29.5
q-61 0 -107.5 -29t-71 -83t-24.5 -129q0 -74 24.5 -128t71 -83t107.5 -29zM594 493v81q40 0 56 24t16 68v31h86v-38q0 -45 -16 -83t-50.5 -60.5t-91.5 -22.5zM307 -173v112h133v-112h-133z" />
    <glyph glyph-name="uni1EE3" unicode="&#x1ee3;" horiz-adv-x="572" 
d="M287 -10q-72 0 -128 33t-88.5 91.5t-32.5 132.5q0 75 32 132.5t88.5 90.5t128.5 33q71 0 127 -33t88 -90.5t32 -132.5q0 -74 -32 -132t-88 -91.5t-127 -33.5zM287 99q38 0 65.5 18t42 51t14.5 79q0 47 -14.5 79.5t-42 50t-65.5 17.5q-39 0 -67 -17.5t-43 -50t-15 -79.5
q0 -46 15 -79t43 -51t67 -18zM431 338v81q40 0 56 24t16 68v31h86v-38q0 -45 -16 -83t-50.5 -60.5t-91.5 -22.5zM220 -173v112h133v-112h-133z" />
    <glyph glyph-name="uni1EE4" unicode="&#x1ee4;" horiz-adv-x="657" 
d="M328 -16q-132 0 -199.5 67t-67.5 201v445h129v-430q0 -54 11.5 -90.5t42 -55t84.5 -18.5t84.5 18.5t42.5 55t12 89.5v431h129v-440q0 -136 -68 -204.5t-200 -68.5zM263 -173v112h133v-112h-133z" />
    <glyph glyph-name="uni1EE5" unicode="&#x1ee5;" horiz-adv-x="564" 
d="M235 -10q-60 0 -100.5 24t-60 68t-19.5 103v308h124v-277q0 -34 8 -60.5t28.5 -42t56.5 -15.5q44 0 66.5 25t31 69.5t8.5 104.5v196h124v-493h-124v107l17 -10q-22 -57 -65 -82t-95 -25zM218 -173v112h133v-112h-133z" />
    <glyph glyph-name="uni1EE6" unicode="&#x1ee6;" horiz-adv-x="657" 
d="M328 -16q-132 0 -199.5 67t-67.5 201v445h129v-430q0 -54 11.5 -90.5t42 -55t84.5 -18.5t84.5 18.5t42.5 55t12 89.5v431h129v-440q0 -136 -68 -204.5t-200 -68.5zM300 722l-8 43q23 3 43 8.5t20 25.5q0 21 -24 27t-55 6h-16v69h16q75 0 120.5 -24t45.5 -70
q0 -33 -22.5 -51t-55.5 -25t-64 -9z" />
    <glyph glyph-name="uni1EE7" unicode="&#x1ee7;" horiz-adv-x="564" 
d="M235 -10q-60 0 -100.5 24t-60 68t-19.5 103v308h124v-277q0 -34 8 -60.5t28.5 -42t56.5 -15.5q44 0 66.5 25t31 69.5t8.5 104.5v196h124v-493h-124v107l17 -10q-22 -57 -65 -82t-95 -25zM249 518l-8 43q23 3 43 8.5t20 25.5q0 21 -24 27t-55 6h-16v69h16q75 0 120.5 -24
t45.5 -70q0 -33 -22.5 -51t-55.5 -25t-64 -9z" />
    <glyph glyph-name="uni1EE8" unicode="&#x1ee8;" horiz-adv-x="770" 
d="M328 -16q-132 0 -199.5 67t-67.5 201v445h129v-430q0 -54 11.5 -90.5t42 -55t84.5 -18.5t84.5 18.5t42.5 55t12 89.5v431h129v-440q0 -136 -68 -204.5t-200 -68.5zM583 493v81q40 0 56 24t16 68v31h86v-38q0 -45 -16 -83t-50.5 -60.5t-91.5 -22.5zM283 759l112 142h133
l-154 -142h-91z" />
    <glyph glyph-name="uni1EE9" unicode="&#x1ee9;" horiz-adv-x="564" 
d="M235 -10q-60 0 -100.5 24t-60 68t-19.5 103v308h124v-277q0 -34 8 -60.5t28.5 -42t56.5 -15.5q44 0 66.5 25t31 69.5t8.5 104.5v196h124v-493h-124v107l17 -10q-22 -57 -65 -82t-95 -25zM419 411v81q40 0 56 24t16 68v31h86v-38q0 -45 -16 -83t-50.5 -60.5t-91.5 -22.5z
M232 555l112 142h133l-154 -142h-91z" />
    <glyph glyph-name="uni1EEA" unicode="&#x1eea;" horiz-adv-x="770" 
d="M328 -16q-132 0 -199.5 67t-67.5 201v445h129v-430q0 -54 11.5 -90.5t42 -55t84.5 -18.5t84.5 18.5t42.5 55t12 89.5v431h129v-440q0 -136 -68 -204.5t-200 -68.5zM583 493v81q40 0 56 24t16 68v31h86v-38q0 -45 -16 -83t-50.5 -60.5t-91.5 -22.5zM283 759l-144 142h132
l104 -142h-92z" />
    <glyph glyph-name="uni1EEB" unicode="&#x1eeb;" horiz-adv-x="564" 
d="M235 -10q-60 0 -100.5 24t-60 68t-19.5 103v308h124v-277q0 -34 8 -60.5t28.5 -42t56.5 -15.5q44 0 66.5 25t31 69.5t8.5 104.5v196h124v-493h-124v107l17 -10q-22 -57 -65 -82t-95 -25zM419 411v81q40 0 56 24t16 68v31h86v-38q0 -45 -16 -83t-50.5 -60.5t-91.5 -22.5z
M232 555l-144 142h132l104 -142h-92z" />
    <glyph glyph-name="uni1EEC" unicode="&#x1eec;" horiz-adv-x="770" 
d="M328 -16q-132 0 -199.5 67t-67.5 201v445h129v-430q0 -54 11.5 -90.5t42 -55t84.5 -18.5t84.5 18.5t42.5 55t12 89.5v431h129v-440q0 -136 -68 -204.5t-200 -68.5zM583 493v81q40 0 56 24t16 68v31h86v-38q0 -45 -16 -83t-50.5 -60.5t-91.5 -22.5zM300 722l-8 43
q23 3 43 8.5t20 25.5q0 21 -24 27t-55 6h-16v69h16q75 0 120.5 -24t45.5 -70q0 -33 -22.5 -51t-55.5 -25t-64 -9z" />
    <glyph glyph-name="uni1EED" unicode="&#x1eed;" horiz-adv-x="564" 
d="M235 -10q-60 0 -100.5 24t-60 68t-19.5 103v308h124v-277q0 -34 8 -60.5t28.5 -42t56.5 -15.5q44 0 66.5 25t31 69.5t8.5 104.5v196h124v-493h-124v107l17 -10q-22 -57 -65 -82t-95 -25zM419 411v81q40 0 56 24t16 68v31h86v-38q0 -45 -16 -83t-50.5 -60.5t-91.5 -22.5z
M249 518l-8 43q23 3 43 8.5t20 25.5q0 21 -24 27t-55 6h-16v69h16q75 0 120.5 -24t45.5 -70q0 -33 -22.5 -51t-55.5 -25t-64 -9z" />
    <glyph glyph-name="uni1EEE" unicode="&#x1eee;" horiz-adv-x="770" 
d="M328 -16q-132 0 -199.5 67t-67.5 201v445h129v-430q0 -54 11.5 -90.5t42 -55t84.5 -18.5t84.5 18.5t42.5 55t12 89.5v431h129v-440q0 -136 -68 -204.5t-200 -68.5zM583 493v81q40 0 56 24t16 68v31h86v-38q0 -45 -16 -83t-50.5 -60.5t-91.5 -22.5zM391 742
q-23 0 -39.5 6.5t-29 16t-22 19t-18.5 16t-19 6.5q-14 0 -22 -15.5t-8 -45.5h-72q0 61 29 95t78 34q21 0 36.5 -7t27 -16.5t21.5 -19t19.5 -16t20.5 -6.5t19.5 16t8.5 46h75q0 -62 -28.5 -95.5t-76.5 -33.5z" />
    <glyph glyph-name="uni1EEF" unicode="&#x1eef;" horiz-adv-x="564" 
d="M235 -10q-60 0 -100.5 24t-60 68t-19.5 103v308h124v-277q0 -34 8 -60.5t28.5 -42t56.5 -15.5q44 0 66.5 25t31 69.5t8.5 104.5v196h124v-493h-124v107l17 -10q-22 -57 -65 -82t-95 -25zM419 411v81q40 0 56 24t16 68v31h86v-38q0 -45 -16 -83t-50.5 -60.5t-91.5 -22.5z
M340 556q-29 0 -48 10t-32 23.5t-24 23.5t-24 10q-14 0 -22 -17t-8 -49h-72q0 69 29 106t78 37q26 0 44 -10.5t31.5 -24t25 -24t24.5 -10.5q11 0 19.5 17t8.5 49h75q0 -68 -28.5 -104.5t-76.5 -36.5z" />
    <glyph glyph-name="uni1EF0" unicode="&#x1ef0;" horiz-adv-x="770" 
d="M328 -16q-132 0 -199.5 67t-67.5 201v445h129v-430q0 -54 11.5 -90.5t42 -55t84.5 -18.5t84.5 18.5t42.5 55t12 89.5v431h129v-440q0 -136 -68 -204.5t-200 -68.5zM583 493v81q40 0 56 24t16 68v31h86v-38q0 -45 -16 -83t-50.5 -60.5t-91.5 -22.5zM263 -173v112h133v-112
h-133z" />
    <glyph glyph-name="uni1EF1" unicode="&#x1ef1;" horiz-adv-x="564" 
d="M235 -10q-60 0 -100.5 24t-60 68t-19.5 103v308h124v-277q0 -34 8 -60.5t28.5 -42t56.5 -15.5q44 0 66.5 25t31 69.5t8.5 104.5v196h124v-493h-124v107l17 -10q-22 -57 -65 -82t-95 -25zM419 411v81q40 0 56 24t16 68v31h86v-38q0 -45 -16 -83t-50.5 -60.5t-91.5 -22.5z
M218 -173v112h133v-112h-133z" />
    <glyph glyph-name="Ygrave" unicode="&#x1ef2;" horiz-adv-x="625" 
d="M249 0v273l-245 424h148l158 -296l164 296h147l-243 -424v-273h-129zM267 759l-144 142h132l104 -142h-92z" />
    <glyph glyph-name="ygrave" unicode="&#x1ef3;" horiz-adv-x="535" 
d="M101 -204l100 242l-186 455h136l116 -331l118 331h134l-283 -697h-135zM222 555l-144 142h132l104 -142h-92z" />
    <glyph glyph-name="uni1EF4" unicode="&#x1ef4;" horiz-adv-x="625" 
d="M249 0v273l-245 424h148l158 -296l164 296h147l-243 -424v-273h-129zM247 -173v112h133v-112h-133z" />
    <glyph glyph-name="uni1EF5" unicode="&#x1ef5;" horiz-adv-x="535" 
d="M101 -204l100 242l-186 455h136l116 -331l118 331h134l-283 -697h-135zM363 -204v112h133v-112h-133z" />
    <glyph glyph-name="uni1EF6" unicode="&#x1ef6;" horiz-adv-x="625" 
d="M249 0v273l-245 424h148l158 -296l164 296h147l-243 -424v-273h-129zM284 722l-8 43q23 3 43 8.5t20 25.5q0 21 -24 27t-55 6h-16v69h16q75 0 120.5 -24t45.5 -70q0 -33 -22.5 -51t-55.5 -25t-64 -9z" />
    <glyph glyph-name="uni1EF7" unicode="&#x1ef7;" horiz-adv-x="535" 
d="M101 -204l100 242l-186 455h136l116 -331l118 331h134l-283 -697h-135zM239 518l-8 43q23 3 43 8.5t20 25.5q0 21 -24 27t-55 6h-16v69h16q75 0 120.5 -24t45.5 -70q0 -33 -22.5 -51t-55.5 -25t-64 -9z" />
    <glyph glyph-name="uni1EF8" unicode="&#x1ef8;" horiz-adv-x="625" 
d="M249 0v273l-245 424h148l158 -296l164 296h147l-243 -424v-273h-129zM375 742q-23 0 -39.5 6.5t-29 16t-22 19t-18.5 16t-19 6.5q-14 0 -22 -15.5t-8 -45.5h-72q0 61 29 95t78 34q21 0 36.5 -7t27 -16.5t21.5 -19t19.5 -16t20.5 -6.5t19.5 16t8.5 46h75
q0 -62 -28.5 -95.5t-76.5 -33.5z" />
    <glyph glyph-name="uni1EF9" unicode="&#x1ef9;" horiz-adv-x="535" 
d="M101 -204l100 242l-186 455h136l116 -331l118 331h134l-283 -697h-135zM330 556q-29 0 -48 10t-32 23.5t-24 23.5t-24 10q-14 0 -22 -17t-8 -49h-72q0 69 29 106t78 37q26 0 44 -10.5t31.5 -24t25 -24t24.5 -10.5q11 0 19.5 17t8.5 49h75q0 -68 -28.5 -104.5t-76.5 -36.5
z" />
    <glyph glyph-name="endash" unicode="&#x2013;" horiz-adv-x="428" 
d="M24 249v93h380v-93h-380z" />
    <glyph glyph-name="emdash" unicode="&#x2014;" horiz-adv-x="1058" 
d="M24 249v93h1010v-93h-1010z" />
    <glyph glyph-name="uni2015" unicode="&#x2015;" horiz-adv-x="708" 
d="M43 249v93h622v-93h-622z" />
    <glyph glyph-name="quoteleft" unicode="&#x2018;" horiz-adv-x="270" 
d="M27 418l126 279h82l-64 -279h-144z" />
    <glyph glyph-name="quoteright" unicode="&#x2019;" horiz-adv-x="270" 
d="M34 419l64 278h144l-126 -278h-82z" />
    <glyph glyph-name="quotesinglbase" unicode="&#x201a;" horiz-adv-x="285" 
d="M43 -149l63 280h145l-127 -280h-81z" />
    <glyph glyph-name="quotedblleft" unicode="&#x201c;" horiz-adv-x="462" 
d="M221 418l124 279h83l-63 -279h-144zM27 418l125 279h83l-64 -279h-144z" />
    <glyph glyph-name="quotedblright" unicode="&#x201d;" horiz-adv-x="463" 
d="M228 419l64 278h143l-125 -278h-82zM34 419l64 278h144l-126 -278h-82z" />
    <glyph glyph-name="quotedblbase" unicode="&#x201e;" horiz-adv-x="437" 
d="M221 -149l63 280h144l-125 -280h-82zM17 -149l63 280h145l-127 -280h-81z" />
    <glyph glyph-name="dagger" unicode="&#x2020;" horiz-adv-x="391" 
d="M149 -101v507h-119v93h119v198h92v-198h120v-93h-120v-507h-92z" />
    <glyph glyph-name="daggerdbl" unicode="&#x2021;" horiz-adv-x="407" 
d="M157 -101v199h-118v93h118v215h-118v93h118v198h93v-198h118v-93h-118v-215h118v-93h-118v-199h-93z" />
    <glyph glyph-name="bullet" unicode="&#x2022;" horiz-adv-x="384" 
d="M66 121v253h252v-253h-252z" />
    <glyph glyph-name="uni2023" unicode="&#x2023;" horiz-adv-x="417" 
d="M67 69v390l333 -194z" />
    <glyph glyph-name="twodotenleader" unicode="&#x2025;" horiz-adv-x="443" 
d="M258 0v132h131v-132h-131zM54 0v132h131v-132h-131z" />
    <glyph glyph-name="ellipsis" unicode="&#x2026;" horiz-adv-x="692" 
d="M510 0v132h128v-132h-128zM54 0v132h127v-132h-127zM282 0v132h128v-132h-128z" />
    <glyph glyph-name="perthousand" unicode="&#x2030;" horiz-adv-x="1029" 
d="M99 0l422 697h88l-422 -697h-88zM524 -10q-42 0 -75 20.5t-51.5 57.5t-18.5 84t18 83t50 57t74 21t74.5 -21.5t51.5 -58t19 -82.5q0 -44 -18.5 -81t-50 -58.5t-73.5 -21.5zM524 74q25 0 41.5 21.5t16.5 55.5q0 24 -7.5 41t-21 26.5t-32.5 9.5q-17 0 -30.5 -9t-20.5 -26.5
t-7 -40.5q0 -24 7.5 -42t21.5 -27t32 -9zM187 385q-42 0 -75 20.5t-52 57t-19 83.5t18.5 83.5t51 57t73.5 20.5q42 0 74.5 -21t51 -58t18.5 -83q0 -44 -18 -80.5t-49.5 -58t-73.5 -21.5zM187 469q25 0 41.5 21.5t16.5 54.5q0 24 -7.5 41.5t-21 27t-32.5 9.5q-18 0 -31.5 -9
t-20.5 -26.5t-7 -41.5t7.5 -41.5t21.5 -26.5t33 -9zM846 -10q-42 0 -75 21t-51.5 57.5t-18.5 83.5t18.5 83t50.5 57t73 21q42 0 74.5 -21.5t51.5 -58t19 -82.5q0 -45 -18.5 -81.5t-50.5 -58t-73 -21.5zM846 74q25 0 42 21.5t17 55.5q0 24 -8 41t-22 26.5t-32 9.5
q-17 0 -30.5 -9t-20.5 -26t-7 -41t7.5 -42t21.5 -27t32 -9z" />
    <glyph glyph-name="uni2031" unicode="&#x2031;" horiz-adv-x="1351" 
d="M99 0l422 697h88l-422 -697h-88zM524 -10q-42 0 -75 20.5t-51.5 57.5t-18.5 84t18 83t50 57t74 21t74.5 -21.5t51.5 -58t19 -82.5q0 -44 -18.5 -81t-50 -58.5t-73.5 -21.5zM524 74q25 0 41.5 21.5t16.5 55.5q0 24 -7.5 41t-21 26.5t-32.5 9.5q-17 0 -30.5 -9t-20.5 -26.5
t-7 -40.5q0 -24 7.5 -42t21.5 -27t32 -9zM187 385q-42 0 -75 20.5t-52 57t-19 83.5t18.5 83.5t51 57t73.5 20.5q42 0 74.5 -21t51 -58t18.5 -83q0 -44 -18 -80.5t-49.5 -58t-73.5 -21.5zM187 469q25 0 41.5 21.5t16.5 54.5q0 24 -7.5 41.5t-21 27t-32.5 9.5q-18 0 -31.5 -9
t-20.5 -26.5t-7 -41.5t7.5 -41.5t21.5 -26.5t33 -9zM846 -10q-42 0 -75 21t-51.5 57.5t-18.5 83.5t18.5 83t50.5 57t73 21q42 0 74.5 -21.5t51.5 -58t19 -82.5q0 -45 -18.5 -81.5t-50.5 -58t-73 -21.5zM846 74q25 0 42 21.5t17 55.5q0 24 -8 41t-22 26.5t-32 9.5
q-17 0 -30.5 -9t-20.5 -26t-7 -41t7.5 -42t21.5 -27t32 -9zM1169 -10q-42 0 -75 21t-52 57.5t-19 83.5t18.5 83t51 57t73.5 21t73.5 -22t51.5 -58t19 -82q0 -44 -18 -81t-50.5 -58.5t-72.5 -21.5zM1169 74q25 0 41.5 21.5t16.5 55.5q0 24 -8 41.5t-21.5 26.5t-31.5 9
t-31.5 -9t-20.5 -26t-7 -41t7.5 -41.5t21.5 -27t33 -9.5z" />
    <glyph glyph-name="guilsinglleft" unicode="&#x2039;" horiz-adv-x="282" 
d="M256 43l-254 209l254 209v-132l-108 -77l108 -76v-133z" />
    <glyph glyph-name="guilsinglright" unicode="&#x203a;" horiz-adv-x="283" 
d="M26 43v133l107 76l-107 77v132l254 -209z" />
    <glyph glyph-name="fraction" unicode="&#x2044;" horiz-adv-x="161" 
d="M-175 0l423 697h88l-423 -697h-88z" />
    <glyph glyph-name="uni2074" unicode="&#x2074;" horiz-adv-x="402" 
d="M221 484v99h-184v68l184 251h76v-253h66v-66h-66v-99h-76zM88 632l-6 17h141v180l8 -2z" />
    <glyph glyph-name="dong" unicode="&#x20ab;" horiz-adv-x="560" 
d="M234 129q-60 0 -102 29t-64 78.5t-22 111.5q0 68 24.5 116.5t67.5 74.5t96 26q60 0 98 -31t55 -105l-45 16v284h107v-591h-91l-16 111h18q-3 -51 -36.5 -85.5t-89.5 -34.5zM51 0v73h462v-73h-462zM253 229q31 0 53 14.5t34 41.5t12 63t-12 62t-34.5 40.5t-52.5 14.5
q-29 0 -52 -14t-35 -40.5t-12 -62.5t12 -63t35 -41.5t52 -14.5zM233 613v64h280v-64h-280z" />
    <glyph glyph-name="Euro" unicode="&#x20ac;" horiz-adv-x="560" 
d="M340 -10q-92 0 -156.5 47t-98.5 128.5t-34 186.5q0 103 34.5 183t99.5 126t156 46q64 0 115 -16t88 -47l-67 -103q-25 22 -58 36t-78 14q-54 0 -89.5 -31.5t-53.5 -85.5t-18 -123q0 -70 17.5 -125.5t53 -87.5t89.5 -32q45 0 79 14.5t58 38.5l68 -103q-38 -32 -88.5 -49
t-116.5 -17zM7 236v84h408l-3 -84h-405zM9 386v83h407l-1 -83h-406z" />
    <glyph glyph-name="uni20B1" unicode="&#x20b1;" horiz-adv-x="560" 
d="M63 0v697h197q87 0 139 -25.5t75.5 -72t23.5 -106.5t-27.5 -106.5t-80 -72.5t-130.5 -26h-69v-288h-128zM4 448v92h123v-92h-123zM191 409h69q58 0 83.5 20t25.5 64q0 43 -25 63t-84 20h-69v-167zM459 448v92h91v-92h-91z" />
    <glyph glyph-name="uni20B3" unicode="&#x20b3;" horiz-adv-x="560" 
d="M10 0l223 697h96l222 -697h-143l-126 506l-130 -506h-142zM1 129l2 84h556v-84h-558zM2 279v83h556v-83h-556z" />
    <glyph glyph-name="uni20B4" unicode="&#x20b4;" horiz-adv-x="560" 
d="M289 -13q-74 0 -129 27t-85.5 76t-30.5 112q0 21 4 39.5t13 35.5l153 6q-21 -21 -31.5 -40.5t-10.5 -44.5q0 -31 15 -52.5t40.5 -32.5t57.5 -11q49 0 83.5 23.5t49.5 67.5l121 -51q-29 -73 -94 -114t-156 -41zM11 257v81h530v-81h-530zM11 398v82h530v-82h-530zM308 445
q34 18 48.5 36.5t14.5 42.5q0 21 -11.5 38t-30.5 26.5t-43 9.5q-35 0 -63.5 -19.5t-50.5 -57.5l-103 63q33 65 87 97t126 32q65 0 114 -25t76.5 -68t27.5 -99q0 -23 -6.5 -42t-16.5 -34h-169z" />
    <glyph glyph-name="uni20B8" unicode="&#x20b8;" horiz-adv-x="560" 
d="M215 0v417h-186v105h501v-105h-186v-417h-129zM29 592v105h501v-105h-501z" />
    <glyph glyph-name="uni20BD" unicode="&#x20bd;" horiz-adv-x="560" 
d="M100 0v125h-88v104h88v70h-88v110h88v288h225q114 0 178 -55t64 -151q0 -98 -65 -145t-177 -47h-96v-70h165v-104h-165v-125h-129zM229 409h96q25 0 51 6t44.5 24t18.5 54q0 35 -18 53t-44.5 24t-51.5 6h-96v-167z" />
    <glyph glyph-name="uni2116" unicode="&#x2116;" horiz-adv-x="1149" 
d="M67 0v697h133l325 -528h-32v528h129v-697h-134l-324 529h32v-529h-129zM699 0v94h411v-94h-411zM907 165q-62 0 -109 29.5t-72.5 77.5t-25.5 105q0 56 25.5 103.5t72.5 76.5t109 29q63 0 110 -29t73 -76.5t26 -103.5q0 -58 -26 -106t-73 -77t-110 -29zM907 253
q38 0 60 17.5t32 46t10 60.5q0 31 -10 58.5t-32 44.5t-60 17q-36 0 -58.5 -17t-32 -44.5t-9.5 -58.5q0 -33 9.5 -61t32 -45.5t58.5 -17.5z" />
    <glyph glyph-name="trademark" unicode="&#x2122;" horiz-adv-x="724" 
d="M341 379v318h102l67 -211l67 211h101v-318h-63v252l-85 -236h-40l-86 238v-254h-63zM120 379v260h-91v58h244v-58h-90v-260h-63z" />
    <glyph glyph-name="uni2126" unicode="&#x2126;" horiz-adv-x="808" 
d="M78 0v122h144l28 -32q-59 25 -100.5 68.5t-63.5 101t-22 123.5q0 70 25 130.5t70.5 105t107.5 69.5t136 25t136 -25.5t108.5 -70t72 -104.5t25.5 -129q0 -68 -23.5 -125t-65 -100t-98.5 -69l27 32h146v-122h-282v100q78 39 119 107t41 155q0 69 -24.5 120t-70 79
t-110.5 28q-66 0 -112 -28.5t-70 -79.5t-24 -120q0 -92 43 -159.5t118 -101.5v-100h-281z" />
    <glyph glyph-name="oneeighth" unicode="&#x215b;" horiz-adv-x="830" 
d="M120 279v328l24 -41h-129v67h61q22 0 33 9t11 34v21h84v-418h-84zM117 0l423 697h88l-423 -697h-88zM642 -6q-41 0 -77.5 14.5t-59.5 44t-23 73.5q0 31 13 57.5t42 43.5q-15 13 -25 31t-10 44q0 39 20 66t52 41.5t68 14.5q37 0 68.5 -14.5t51 -42t19.5 -65.5
q0 -25 -8.5 -43.5t-25.5 -31.5q29 -18 41.5 -44.5t12.5 -56.5q0 -44 -22.5 -73.5t-58.5 -44t-78 -14.5zM642 72q22 0 39 7t27 20.5t10 34.5q0 29 -21.5 44.5t-54.5 15.5t-54.5 -15t-21.5 -45q0 -21 10 -34.5t27.5 -20.5t38.5 -7zM642 251q25 0 41 12t16 33q0 23 -15.5 36
t-41.5 13t-41.5 -13t-15.5 -35q0 -21 16 -33.5t41 -12.5z" />
    <glyph glyph-name="threeeighths" unicode="&#x215c;" horiz-adv-x="908" 
d="M183 273q-71 0 -114.5 39t-43.5 101l83 5q0 -30 21.5 -48t56.5 -18t54 15.5t19 41.5q0 31 -24.5 43t-71.5 12v66q22 0 38 5t24.5 15.5t8.5 27.5q0 21 -13.5 33.5t-38.5 12.5q-26 0 -40.5 -14.5t-15.5 -38.5l-82 6q0 54 40 90t102 36q58 0 95 -32t37 -84q0 -28 -13 -48.5
t-33 -31.5q21 -9 36.5 -22.5t24 -32.5t8.5 -43q0 -60 -43.5 -98t-114.5 -38zM195 0l423 697h88l-423 -697h-88zM720 -6q-41 0 -77.5 14.5t-59.5 44t-23 73.5q0 31 13 57.5t42 43.5q-15 13 -25 31t-10 44q0 39 20 66t52 41.5t68 14.5q37 0 68.5 -14.5t51 -42t19.5 -65.5
q0 -25 -8.5 -43.5t-25.5 -31.5q29 -18 41.5 -44.5t12.5 -56.5q0 -44 -22.5 -73.5t-58.5 -44t-78 -14.5zM720 72q22 0 39 7t27 20.5t10 34.5q0 29 -21.5 44.5t-54.5 15.5t-54.5 -15t-21.5 -45q0 -21 10 -34.5t27.5 -20.5t38.5 -7zM720 251q25 0 41 12t16 33q0 23 -15.5 36
t-41.5 13t-41.5 -13t-15.5 -35q0 -21 16 -33.5t41 -12.5z" />
    <glyph glyph-name="fiveeighths" unicode="&#x215d;" horiz-adv-x="905" 
d="M182 273q-40 0 -74 17t-55 46t-26 65l82 14q2 -22 20 -42.5t51 -20.5q25 0 40 11.5t22 28.5t7 34q0 25 -15.5 45t-52.5 20q-23 0 -39 -10t-25 -25l-77 19l41 222h238v-75h-207l38 32l-25 -132l-22 8q23 25 46.5 32t43.5 7q43 0 75.5 -20t50.5 -52.5t18 -70.5
q0 -40 -20 -75t-55 -56.5t-80 -21.5zM192 0l423 697h88l-423 -697h-88zM717 -6q-41 0 -77.5 14.5t-59.5 44t-23 73.5q0 31 13 57.5t42 43.5q-15 13 -25 31t-10 44q0 39 20 66t52 41.5t68 14.5q37 0 68.5 -14.5t51 -42t19.5 -65.5q0 -25 -8.5 -43.5t-25.5 -31.5
q29 -18 41.5 -44.5t12.5 -56.5q0 -44 -22.5 -73.5t-58.5 -44t-78 -14.5zM717 72q22 0 39 7t27 20.5t10 34.5q0 29 -21.5 44.5t-54.5 15.5t-54.5 -15t-21.5 -45q0 -21 10 -34.5t27.5 -20.5t38.5 -7zM717 251q25 0 41 12t16 33q0 23 -15.5 36t-41.5 13t-41.5 -13t-15.5 -35
q0 -21 16 -33.5t41 -12.5z" />
    <glyph glyph-name="seveneighths" unicode="&#x215e;" horiz-adv-x="838" 
d="M50 279l189 374l23 -33h-243v77h303v-60l-179 -358h-93zM125 0l423 697h88l-423 -697h-88zM650 -6q-41 0 -77.5 14.5t-59.5 44t-23 73.5q0 31 13 57.5t42 43.5q-15 13 -25 31t-10 44q0 39 20 66t52 41.5t68 14.5q37 0 68.5 -14.5t51 -42t19.5 -65.5q0 -25 -8.5 -43.5
t-25.5 -31.5q29 -18 41.5 -44.5t12.5 -56.5q0 -44 -22.5 -73.5t-58.5 -44t-78 -14.5zM650 72q22 0 39 7t27 20.5t10 34.5q0 29 -21.5 44.5t-54.5 15.5t-54.5 -15t-21.5 -45q0 -21 10 -34.5t27.5 -20.5t38.5 -7zM650 251q25 0 41 12t16 33q0 23 -15.5 36t-41.5 13t-41.5 -13
t-15.5 -35q0 -21 16 -33.5t41 -12.5z" />
    <glyph glyph-name="arrowleft" unicode="&#x2190;" horiz-adv-x="1150" 
d="M578 -6l-541 302l541 301l42 -83l-340 -190l-5 18h851v-93h-851l5 18l340 -190z" />
    <glyph glyph-name="arrowright" unicode="&#x2192;" horiz-adv-x="1150" 
d="M572 -6l-41 83l339 190l5 -18h-851v93h851l-5 -18l-339 190l41 83l541 -301z" />
    <glyph glyph-name="partialdiff" unicode="&#x2202;" horiz-adv-x="640" 
d="M281 -6q-71 0 -122 29.5t-78.5 81t-27.5 117.5q0 61 21.5 111t59 86.5t86 56.5t101.5 20q28 0 51.5 -7t42.5 -19t33 -28t24 -34q0 16 -2 27.5t-4.5 22.5t-6.5 25q-13 68 -47.5 99.5t-85.5 31.5q-21 0 -44.5 -6.5t-43.5 -23t-34 -47.5l-91 30q26 65 83 101.5t133 36.5
q118 0 183 -86.5t65 -244.5q0 -84 -20 -153t-58 -120t-93 -79t-125 -28zM292 101q53 0 89.5 26.5t55.5 66t19 79.5q-1 25 -8.5 46.5t-23 38t-38 26.5t-52.5 10q-57 0 -93.5 -26.5t-53.5 -66t-17 -79.5t16 -66.5t43.5 -40.5t62.5 -14z" />
    <glyph glyph-name="emptyset" unicode="&#x2205;" horiz-adv-x="707" 
d="M71 34l67 86q-45 42 -72 101t-27 128q0 65 24.5 121.5t67.5 100t100 68t122 24.5q47 0 89 -13t79 -35l38 48h78l-67 -86q45 -42 71.5 -101t26.5 -127q0 -66 -24.5 -123t-67.5 -100t-100 -67.5t-123 -24.5q-46 0 -88 12t-78 35l-37 -47h-79zM185 180l289 374
q-27 16 -57 24.5t-63 8.5q-50 0 -93 -18.5t-76 -51t-51.5 -76t-18.5 -92.5t18.5 -93t51.5 -76zM354 110q50 0 93 18.5t76 51t51.5 76t18.5 93.5q0 48 -18.5 92t-51.5 76l-289 -375q27 -15 57.5 -23.5t62.5 -8.5z" />
    <glyph glyph-name="uni2206" unicode="&#x2206;" horiz-adv-x="671" 
d="M39 0l281 697h31l281 -697h-593zM193 104h287l-145 379z" />
    <glyph glyph-name="product" unicode="&#x220f;" horiz-adv-x="611" 
d="M88 0v593h-39v104h512v-104h-39v-593h-105v593h-224v-593h-105z" />
    <glyph glyph-name="summation" unicode="&#x2211;" horiz-adv-x="639" 
d="M48 0v57l278 291l-278 292v57h542v-118h-395l18 49l282 -280l-282 -278l-18 48h395v-118h-542z" />
    <glyph glyph-name="minus" unicode="&#x2212;" horiz-adv-x="560" 
d="M69 198v98h422v-98h-422z" />
    <glyph glyph-name="uni2215" unicode="&#x2215;" horiz-adv-x="431" 
d="M30 0l277 697h94l-278 -697h-93z" />
    <glyph glyph-name="radical" unicode="&#x221a;" horiz-adv-x="624" 
d="M255 -123l-138 389h-78v105h154l69 -226l213 552h111z" />
    <glyph glyph-name="infinity" unicode="&#x221e;" horiz-adv-x="850" 
d="M227 160q-62 0 -106 24t-67.5 67t-23.5 97q0 56 23 98.5t67.5 66.5t106.5 24q47 0 101 -25t98 -79q28 35 61.5 58t68.5 34.5t67 11.5q62 0 106.5 -24t67.5 -66.5t23 -98.5q0 -54 -23 -97t-67.5 -67t-106.5 -24q-33 0 -68.5 11.5t-68.5 34.5t-60 58q-43 -52 -96 -78
t-103 -26zM242 261q28 0 64 21.5t63 65.5q-28 47 -64 68t-63 21q-31 0 -53.5 -10.5t-35 -30t-12.5 -48.5q0 -28 12.5 -47.5t35 -29.5t53.5 -10zM607 261q31 0 54 10t36 29.5t13 47.5q0 29 -13 48.5t-36 30t-54 10.5q-26 0 -61.5 -21t-64.5 -68q29 -47 64.5 -67t61.5 -20z
" />
    <glyph glyph-name="integral" unicode="&#x222b;" horiz-adv-x="481" 
d="M37 -224v105q52 0 85.5 11t50 40t16.5 82v547q0 44 20 79t54 55t74 20q29 0 57.5 -10.5t52.5 -32.5l-66 -79q-13 10 -23.5 13.5t-20.5 3.5q-18 0 -31 -12t-13 -41v-547q0 -76 -32 -128.5t-89.5 -79t-134.5 -26.5z" />
    <glyph glyph-name="approxequal" unicode="&#x2248;" horiz-adv-x="560" 
d="M367 271q-37 0 -59.5 11.5t-36.5 28.5t-24.5 33.5t-23 28t-32.5 11.5q-19 0 -29.5 -23.5t-10.5 -58.5h-99q0 75 38 121.5t101 46.5q38 0 61.5 -11t38 -27.5t25 -33t22 -27.5t29.5 -11q19 0 30.5 27t11.5 65h99q0 -53 -17.5 -93.5t-49 -64t-74.5 -23.5zM367 23
q-37 0 -59.5 11t-36.5 27.5t-24.5 33.5t-23 28t-32.5 11q-19 0 -29.5 -22.5t-10.5 -59.5h-99q0 76 38 123t101 47q38 0 61.5 -11t38 -27.5t25 -33t22 -27.5t29.5 -11q19 0 30.5 26.5t11.5 66.5h99q0 -53 -17.5 -94t-49 -64.5t-74.5 -23.5z" />
    <glyph glyph-name="notequal" unicode="&#x2260;" horiz-adv-x="560" 
d="M127 0l200 493h52l-200 -493h-52zM96 312v98h415v-98h-415zM96 84v98h415v-98h-415z" />
    <glyph glyph-name="lessequal" unicode="&#x2264;" horiz-adv-x="560" 
d="M530 108l-504 154v122l504 153v-103l-461 -130v38l461 -130v-104zM26 -46v98h504v-98h-504z" />
    <glyph glyph-name="greaterequal" unicode="&#x2265;" horiz-adv-x="560" 
d="M30 108v104l461 130v-38l-461 130v103l504 -153v-122zM534 -46h-504v98h504v-98z" />
    <glyph glyph-name="lozenge" unicode="&#x25ca;" horiz-adv-x="626" 
d="M231 0l-189 348l189 349h164l189 -349l-189 -348h-164zM307 65h12l142 283l-142 284h-12l-143 -284z" />
    <glyph glyph-name="uni004A0301" horiz-adv-x="556" 
d="M258 -16q-101 0 -165.5 62t-71.5 173l128 13q4 -68 31.5 -98t77.5 -30q59 0 82.5 38.5t23.5 106.5v332h-261v116h391v-455q0 -80 -28.5 -137.5t-81.5 -89t-126 -31.5zM253 759l112 142h133l-154 -142h-91z" />
    <glyph glyph-name="uni013B.loclMAH" horiz-adv-x="504" 
d="M67 0v697h129v-581h297v-116h-426zM137 -204l65 151h130l-122 -151h-73z" />
    <glyph glyph-name="uni0145.loclMAH" horiz-adv-x="689" 
d="M67 0v697h133l325 -528h-32v528h129v-697h-134l-324 529h32v-529h-129zM213 -204l65 151h130l-122 -151h-73z" />
    <glyph glyph-name="uni1EB6.ss03" horiz-adv-x="674" 
d="M8 0l280 697h97l280 -697h-141l-186 506l-189 -506h-141zM192 136l40 116h210l42 -116h-292zM338 -196q-29 0 -49.5 20.5t-20.5 50.5q0 29 20.5 49.5t49.5 20.5t49.5 -20.5t20.5 -49.5q0 -30 -20.5 -50.5t-49.5 -20.5zM337 738q-81 0 -118.5 34.5t-37.5 98.5h88
q0 -31 20.5 -45.5t47.5 -14.5q30 0 49.5 15.5t19.5 44.5h88q0 -67 -39.5 -100t-117.5 -33z" />
    <glyph glyph-name="uni1EAC.ss03" horiz-adv-x="674" 
d="M8 0l280 697h97l280 -697h-141l-186 506l-189 -506h-141zM192 136l40 116h210l42 -116h-292zM338 -196q-29 0 -49.5 20.5t-20.5 50.5q0 29 20.5 49.5t49.5 20.5t49.5 -20.5t20.5 -49.5q0 -30 -20.5 -50.5t-49.5 -20.5zM181 745l157 175l156 -175h-99l-57 69l-57 -69h-100
z" />
    <glyph glyph-name="Adieresis.ss03" horiz-adv-x="674" 
d="M8 0l280 697h97l280 -697h-141l-186 506l-189 -506h-141zM192 136l40 116h210l42 -116h-292zM440 765q-30 0 -51.5 21.5t-21.5 51.5q0 31 21 52t52 21q30 0 51.5 -21t21.5 -52q0 -30 -21.5 -51.5t-51.5 -21.5zM236 765q-30 0 -51.5 21.5t-21.5 51.5q0 31 21 52t52 21
t52 -21t21 -52q0 -30 -21.5 -51.5t-51.5 -21.5z" />
    <glyph glyph-name="uni1EA0.ss03" horiz-adv-x="674" 
d="M8 0l280 697h97l280 -697h-141l-186 506l-189 -506h-141zM192 136l40 116h210l42 -116h-292zM338 -196q-29 0 -49.5 20.5t-20.5 50.5q0 29 20.5 49.5t49.5 20.5t49.5 -20.5t20.5 -49.5q0 -30 -20.5 -50.5t-49.5 -20.5z" />
    <glyph glyph-name="Cdotaccent.ss03" horiz-adv-x="709" 
d="M373 -16q-99 0 -174.5 46t-117.5 128t-42 191t42 190.5t117.5 127.5t174.5 46q111 0 191.5 -55.5t115.5 -152.5l-122 -45q-22 61 -69.5 95t-115.5 34q-62 0 -108.5 -29t-71 -82.5t-24.5 -128.5t24.5 -129t71 -83t108.5 -29q68 0 115.5 34t69.5 95l122 -44
q-35 -97 -115.5 -153t-191.5 -56zM358 765q-30 0 -51.5 21.5t-21.5 51.5q0 31 21 52t52 21t52 -21t21 -52q0 -30 -21.5 -51.5t-51.5 -21.5z" />
    <glyph glyph-name="uni1EC6.ss03" horiz-adv-x="578" 
d="M67 0v697h464v-116h-335v-166h313v-115h-313v-184h335v-116h-464zM300 -196q-29 0 -49.5 20.5t-20.5 50.5q0 29 20.5 49.5t49.5 20.5t49.5 -20.5t20.5 -49.5q0 -30 -20.5 -50.5t-49.5 -20.5zM143 745l157 175l156 -175h-99l-57 69l-57 -69h-100z" />
    <glyph glyph-name="Edieresis.ss03" horiz-adv-x="578" 
d="M67 0v697h464v-116h-335v-166h313v-115h-313v-184h335v-116h-464zM401 765q-30 0 -51.5 21.5t-21.5 51.5q0 31 21 52t52 21q30 0 51.5 -21t21.5 -52q0 -30 -21.5 -51.5t-51.5 -21.5zM197 765q-30 0 -51.5 21.5t-21.5 51.5q0 31 21 52t52 21t52 -21t21 -52
q0 -30 -21.5 -51.5t-51.5 -21.5z" />
    <glyph glyph-name="Edotaccent.ss03" horiz-adv-x="578" 
d="M67 0v697h464v-116h-335v-166h313v-115h-313v-184h335v-116h-464zM300 765q-30 0 -51.5 21.5t-21.5 51.5q0 31 21 52t52 21t52 -21t21 -52q0 -30 -21.5 -51.5t-51.5 -21.5z" />
    <glyph glyph-name="uni1EB8.ss03" horiz-adv-x="578" 
d="M67 0v697h464v-116h-335v-166h313v-115h-313v-184h335v-116h-464zM300 -196q-29 0 -49.5 20.5t-20.5 50.5q0 29 20.5 49.5t49.5 20.5t49.5 -20.5t20.5 -49.5q0 -30 -20.5 -50.5t-49.5 -20.5z" />
    <glyph glyph-name="Gdotaccent.ss03" horiz-adv-x="735" 
d="M365 -16q-96 0 -169 46t-115 128t-42 191t42 190.5t117.5 127.5t174.5 46q111 0 191.5 -55.5t115.5 -152.5l-122 -45q-22 61 -69.5 95t-115.5 34q-62 0 -108.5 -29t-71 -82.5t-24.5 -128.5t24.5 -129t71 -83t108.5 -29q32 0 66 9t62.5 31.5t46 62.5t17.5 102v40l29 -90
h-200v116h286v-379h-114l-18 113l22 -17q-18 -37 -49 -62t-70.5 -37.5t-85.5 -12.5zM373 765q-30 0 -51.5 21.5t-21.5 51.5q0 31 21 52t52 21t52 -21t21 -52q0 -30 -21.5 -51.5t-51.5 -21.5z" />
    <glyph glyph-name="Idieresis.ss03" horiz-adv-x="263" 
d="M67 0v697h129v-697h-129zM234 765q-30 0 -51.5 21.5t-21.5 51.5q0 31 21 52t52 21q30 0 51.5 -21t21.5 -52q0 -30 -21.5 -51.5t-51.5 -21.5zM30 765q-30 0 -51.5 21.5t-21.5 51.5q0 31 21 52t52 21t52 -21t21 -52q0 -30 -21.5 -51.5t-51.5 -21.5z" />
    <glyph glyph-name="uni1ECA.ss03" horiz-adv-x="263" 
d="M67 0v697h129v-697h-129zM133 -196q-29 0 -49.5 20.5t-20.5 50.5q0 29 20.5 49.5t49.5 20.5t49.5 -20.5t20.5 -49.5q0 -30 -20.5 -50.5t-49.5 -20.5z" />
    <glyph glyph-name="Ldot.ss03" horiz-adv-x="603" 
d="M67 0v697h129v-581h297v-116h-426zM426 289q-30 0 -51.5 21.5t-21.5 52.5t21.5 51.5t51.5 20.5q31 0 52 -20.5t21 -51.5t-21 -52.5t-52 -21.5z" />
    <glyph glyph-name="uni1E44.ss03" horiz-adv-x="689" 
d="M67 0v697h133l325 -528h-32v528h129v-697h-134l-324 529h32v-529h-129zM344 765q-30 0 -51.5 21.5t-21.5 51.5q0 31 21 52t52 21t52 -21t21 -52q0 -30 -21.5 -51.5t-51.5 -21.5z" />
    <glyph glyph-name="uni1ED8.ss03" horiz-adv-x="747" 
d="M373 -16q-99 0 -174.5 45.5t-117.5 127.5t-42 191q0 110 42 192t117.5 127.5t174.5 45.5q100 0 175.5 -45.5t117.5 -127.5t42 -192q0 -109 -42.5 -191t-118 -127.5t-174.5 -45.5zM372 108q64 0 109.5 29.5t70.5 83.5t25 127q0 74 -25 128t-70.5 83.5t-109.5 29.5
q-61 0 -107.5 -29t-71 -83t-24.5 -129q0 -74 24.5 -128t71 -83t107.5 -29zM374 -196q-29 0 -49.5 20.5t-20.5 50.5q0 29 20.5 49.5t49.5 20.5t49.5 -20.5t20.5 -49.5q0 -30 -20.5 -50.5t-49.5 -20.5zM216 745l157 175l156 -175h-99l-57 69l-57 -69h-100z" />
    <glyph glyph-name="Odieresis.ss03" horiz-adv-x="747" 
d="M373 -16q-99 0 -174.5 45.5t-117.5 127.5t-42 191q0 110 42 192t117.5 127.5t174.5 45.5q100 0 175.5 -45.5t117.5 -127.5t42 -192q0 -109 -42.5 -191t-118 -127.5t-174.5 -45.5zM372 108q64 0 109.5 29.5t70.5 83.5t25 127q0 74 -25 128t-70.5 83.5t-109.5 29.5
q-61 0 -107.5 -29t-71 -83t-24.5 -129q0 -74 24.5 -128t71 -83t107.5 -29zM475 765q-30 0 -51.5 21.5t-21.5 51.5q0 31 21 52t52 21q30 0 51.5 -21t21.5 -52q0 -30 -21.5 -51.5t-51.5 -21.5zM271 765q-30 0 -51.5 21.5t-21.5 51.5q0 31 21 52t52 21t52 -21t21 -52
q0 -30 -21.5 -51.5t-51.5 -21.5z" />
    <glyph glyph-name="uni1ECC.ss03" horiz-adv-x="747" 
d="M373 -16q-99 0 -174.5 45.5t-117.5 127.5t-42 191q0 110 42 192t117.5 127.5t174.5 45.5q100 0 175.5 -45.5t117.5 -127.5t42 -192q0 -109 -42.5 -191t-118 -127.5t-174.5 -45.5zM372 108q64 0 109.5 29.5t70.5 83.5t25 127q0 74 -25 128t-70.5 83.5t-109.5 29.5
q-61 0 -107.5 -29t-71 -83t-24.5 -129q0 -74 24.5 -128t71 -83t107.5 -29zM374 -196q-29 0 -49.5 20.5t-20.5 50.5q0 29 20.5 49.5t49.5 20.5t49.5 -20.5t20.5 -49.5q0 -30 -20.5 -50.5t-49.5 -20.5z" />
    <glyph glyph-name="uni1EE2.ss03" horiz-adv-x="747" 
d="M373 -16q-99 0 -174.5 45.5t-117.5 127.5t-42 191q0 110 42 192t117.5 127.5t174.5 45.5q100 0 175.5 -45.5t117.5 -127.5t42 -192q0 -109 -42.5 -191t-118 -127.5t-174.5 -45.5zM372 108q64 0 109.5 29.5t70.5 83.5t25 127q0 74 -25 128t-70.5 83.5t-109.5 29.5
q-61 0 -107.5 -29t-71 -83t-24.5 -129q0 -74 24.5 -128t71 -83t107.5 -29zM594 493v81q40 0 56 24t16 68v31h86v-38q0 -45 -16 -83t-50.5 -60.5t-91.5 -22.5zM374 -196q-29 0 -49.5 20.5t-20.5 50.5q0 29 20.5 49.5t49.5 20.5t49.5 -20.5t20.5 -49.5q0 -30 -20.5 -50.5
t-49.5 -20.5z" />
    <glyph glyph-name="Udieresis.ss03" horiz-adv-x="657" 
d="M328 -16q-132 0 -199.5 67t-67.5 201v445h129v-430q0 -54 11.5 -90.5t42 -55t84.5 -18.5t84.5 18.5t42.5 55t12 89.5v431h129v-440q0 -136 -68 -204.5t-200 -68.5zM431 765q-30 0 -51.5 21.5t-21.5 51.5q0 31 21 52t52 21q30 0 51.5 -21t21.5 -52q0 -30 -21.5 -51.5
t-51.5 -21.5zM227 765q-30 0 -51.5 21.5t-21.5 51.5q0 31 21 52t52 21t52 -21t21 -52q0 -30 -21.5 -51.5t-51.5 -21.5z" />
    <glyph glyph-name="uni1EE4.ss03" horiz-adv-x="657" 
d="M328 -16q-132 0 -199.5 67t-67.5 201v445h129v-430q0 -54 11.5 -90.5t42 -55t84.5 -18.5t84.5 18.5t42.5 55t12 89.5v431h129v-440q0 -136 -68 -204.5t-200 -68.5zM329 -196q-29 0 -49.5 20.5t-20.5 50.5q0 29 20.5 49.5t49.5 20.5t49.5 -20.5t20.5 -49.5
q0 -30 -20.5 -50.5t-49.5 -20.5z" />
    <glyph glyph-name="uni1EF0.ss03" horiz-adv-x="770" 
d="M328 -16q-132 0 -199.5 67t-67.5 201v445h129v-430q0 -54 11.5 -90.5t42 -55t84.5 -18.5t84.5 18.5t42.5 55t12 89.5v431h129v-440q0 -136 -68 -204.5t-200 -68.5zM583 493v81q40 0 56 24t16 68v31h86v-38q0 -45 -16 -83t-50.5 -60.5t-91.5 -22.5zM329 -196
q-29 0 -49.5 20.5t-20.5 50.5q0 29 20.5 49.5t49.5 20.5t49.5 -20.5t20.5 -49.5q0 -30 -20.5 -50.5t-49.5 -20.5z" />
    <glyph glyph-name="Wdieresis.ss03" horiz-adv-x="979" 
d="M223 0l-210 697h136l144 -499l133 459h128l132 -459l145 499h135l-210 -697h-125l-152 502h21l-151 -502h-126zM592 765q-30 0 -51.5 21.5t-21.5 51.5q0 31 21 52t52 21q30 0 51.5 -21t21.5 -52q0 -30 -21.5 -51.5t-51.5 -21.5zM388 765q-30 0 -51.5 21.5t-21.5 51.5
q0 31 21 52t52 21t52 -21t21 -52q0 -30 -21.5 -51.5t-51.5 -21.5z" />
    <glyph glyph-name="Ydieresis.ss03" horiz-adv-x="625" 
d="M249 0v273l-245 424h148l158 -296l164 296h147l-243 -424v-273h-129zM415 765q-30 0 -51.5 21.5t-21.5 51.5q0 31 21 52t52 21q30 0 51.5 -21t21.5 -52q0 -30 -21.5 -51.5t-51.5 -21.5zM211 765q-30 0 -51.5 21.5t-21.5 51.5q0 31 21 52t52 21t52 -21t21 -52
q0 -30 -21.5 -51.5t-51.5 -21.5z" />
    <glyph glyph-name="uni1EF4.ss03" horiz-adv-x="625" 
d="M249 0v273l-245 424h148l158 -296l164 296h147l-243 -424v-273h-129zM314 -196q-29 0 -49.5 20.5t-20.5 50.5q0 29 20.5 49.5t49.5 20.5t49.5 -20.5t20.5 -49.5q0 -30 -20.5 -50.5t-49.5 -20.5z" />
    <glyph glyph-name="Zdotaccent.ss03" horiz-adv-x="605" 
d="M28 0v106l405 516l19 -41h-401v116h512v-106l-393 -501l-18 26h425v-116h-549zM306 765q-30 0 -51.5 21.5t-21.5 51.5q0 31 21 52t52 21t52 -21t21 -52q0 -30 -21.5 -51.5t-51.5 -21.5z" />
    <glyph glyph-name="T_h" horiz-adv-x="1053" 
d="M227 0v581h-216v116h562v-116h-215v-581h-131zM550 0v697h125v-316l-21 -3q13 45 38.5 72.5t59 40t67.5 12.5q84 0 131.5 -47.5t47.5 -133.5v-322h-125v276q0 62 -22 90.5t-69 28.5q-53 0 -80 -38t-27 -121v-236h-125z" />
    <glyph glyph-name="i.loclTRK" horiz-adv-x="245" 
d="M60 0v493h124v-493h-124zM56 569v128h133v-128h-133z" />
    <glyph glyph-name="uni006A0301" horiz-adv-x="245" 
d="M63 -214q-20 0 -43 4t-45 11v108q13 -4 24 -5.5t19 -1.5q20 0 31 9.5t11 37.5v544h124v-578q0 -66 -33 -97.5t-88 -31.5zM77 555l112 142h133l-154 -142h-91z" />
    <glyph glyph-name="uni013C.loclMAH" horiz-adv-x="268" 
d="M176 -10q-51 0 -84 31t-33 98v578h123v-554q0 -21 10 -29.5t26 -8.5q8 0 17 1.5t19 4.5v-106q-21 -8 -41.5 -11.5t-36.5 -3.5zM9 -204l65 151h130l-122 -151h-73z" />
    <glyph glyph-name="uni0146.loclMAH" horiz-adv-x="564" 
d="M61 0v493h125v-112l-20 -2q13 45 38 72t58 39.5t68 12.5q84 0 131.5 -47.5t47.5 -133.5v-322h-125v276q0 62 -22 90.5t-69 28.5q-36 0 -59.5 -16.5t-35.5 -51.5t-12 -91v-236h-125zM146 -204l65 151h130l-122 -151h-73z" />
    <glyph glyph-name="g.ss01" horiz-adv-x="575" 
d="M273 -214q-56 0 -98 15t-72.5 41t-51.5 56l97 75q18 -30 47.5 -55.5t77.5 -25.5q28 0 54.5 10t44.5 36t18 76v108l15 -12q-23 -55 -64 -78.5t-95 -23.5q-63 0 -110 33.5t-72.5 89.5t-25.5 125q0 77 28.5 132t76 85t103.5 30q58 0 97.5 -26.5t58.5 -73.5l-12 -16v106h123
v-479q0 -79 -30 -129.5t-84 -74.5t-126 -24zM281 125q38 0 64.5 16.5t41 45.5t14.5 68t-14.5 69t-41 47.5t-63.5 17.5q-36 0 -63 -17.5t-41.5 -47t-14.5 -69.5q0 -39 14.5 -68.5t41 -45.5t62.5 -16z" />
    <glyph glyph-name="gbreve.ss01" horiz-adv-x="575" 
d="M273 -214q-56 0 -98 15t-72.5 41t-51.5 56l97 75q18 -30 47.5 -55.5t77.5 -25.5q28 0 54.5 10t44.5 36t18 76v108l15 -12q-23 -55 -64 -78.5t-95 -23.5q-63 0 -110 33.5t-72.5 89.5t-25.5 125q0 77 28.5 132t76 85t103.5 30q58 0 97.5 -26.5t58.5 -73.5l-12 -16v106h123
v-479q0 -79 -30 -129.5t-84 -74.5t-126 -24zM281 125q38 0 64.5 16.5t41 45.5t14.5 68t-14.5 69t-41 47.5t-63.5 17.5q-36 0 -63 -17.5t-41.5 -47t-14.5 -69.5q0 -39 14.5 -68.5t41 -45.5t62.5 -16zM289 548q-81 0 -118.5 36.5t-37.5 112.5h80q0 -43 21 -60t55 -17
q37 0 57 17.5t20 59.5h80q0 -80 -39.5 -114.5t-117.5 -34.5z" />
    <glyph glyph-name="gcaron.ss01" horiz-adv-x="575" 
d="M273 -214q-56 0 -98 15t-72.5 41t-51.5 56l97 75q18 -30 47.5 -55.5t77.5 -25.5q28 0 54.5 10t44.5 36t18 76v108l15 -12q-23 -55 -64 -78.5t-95 -23.5q-63 0 -110 33.5t-72.5 89.5t-25.5 125q0 77 28.5 132t76 85t103.5 30q58 0 97.5 -26.5t58.5 -73.5l-12 -16v106h123
v-479q0 -79 -30 -129.5t-84 -74.5t-126 -24zM281 125q38 0 64.5 16.5t41 45.5t14.5 68t-14.5 69t-41 47.5t-63.5 17.5q-36 0 -63 -17.5t-41.5 -47t-14.5 -69.5q0 -39 14.5 -68.5t41 -45.5t62.5 -16zM289 532l-157 165h96l61 -70l61 70h95z" />
    <glyph glyph-name="gcircumflex.ss01" horiz-adv-x="575" 
d="M273 -214q-56 0 -98 15t-72.5 41t-51.5 56l97 75q18 -30 47.5 -55.5t77.5 -25.5q28 0 54.5 10t44.5 36t18 76v108l15 -12q-23 -55 -64 -78.5t-95 -23.5q-63 0 -110 33.5t-72.5 89.5t-25.5 125q0 77 28.5 132t76 85t103.5 30q58 0 97.5 -26.5t58.5 -73.5l-12 -16v106h123
v-479q0 -79 -30 -129.5t-84 -74.5t-126 -24zM281 125q38 0 64.5 16.5t41 45.5t14.5 68t-14.5 69t-41 47.5t-63.5 17.5q-36 0 -63 -17.5t-41.5 -47t-14.5 -69.5q0 -39 14.5 -68.5t41 -45.5t62.5 -16zM132 541l157 175l156 -175h-99l-57 69l-57 -69h-100z" />
    <glyph glyph-name="uni0123.ss01" horiz-adv-x="575" 
d="M273 -214q-56 0 -98 15t-72.5 41t-51.5 56l97 75q18 -30 47.5 -55.5t77.5 -25.5q28 0 54.5 10t44.5 36t18 76v108l15 -12q-23 -55 -64 -78.5t-95 -23.5q-63 0 -110 33.5t-72.5 89.5t-25.5 125q0 77 28.5 132t76 85t103.5 30q58 0 97.5 -26.5t58.5 -73.5l-12 -16v106h123
v-479q0 -79 -30 -129.5t-84 -74.5t-126 -24zM281 125q38 0 64.5 16.5t41 45.5t14.5 68t-14.5 69t-41 47.5t-63.5 17.5q-36 0 -63 -17.5t-41.5 -47t-14.5 -69.5q0 -39 14.5 -68.5t41 -45.5t62.5 -16zM192 552l122 156h73l-66 -156h-129z" />
    <glyph glyph-name="gdotaccent.ss01" horiz-adv-x="575" 
d="M273 -214q-56 0 -98 15t-72.5 41t-51.5 56l97 75q18 -30 47.5 -55.5t77.5 -25.5q28 0 54.5 10t44.5 36t18 76v108l15 -12q-23 -55 -64 -78.5t-95 -23.5q-63 0 -110 33.5t-72.5 89.5t-25.5 125q0 77 28.5 132t76 85t103.5 30q58 0 97.5 -26.5t58.5 -73.5l-12 -16v106h123
v-479q0 -79 -30 -129.5t-84 -74.5t-126 -24zM281 125q38 0 64.5 16.5t41 45.5t14.5 68t-14.5 69t-41 47.5t-63.5 17.5q-36 0 -63 -17.5t-41.5 -47t-14.5 -69.5q0 -39 14.5 -68.5t41 -45.5t62.5 -16zM223 569v128h133v-128h-133z" />
    <glyph glyph-name="uni1E21.ss01" horiz-adv-x="575" 
d="M273 -214q-56 0 -98 15t-72.5 41t-51.5 56l97 75q18 -30 47.5 -55.5t77.5 -25.5q28 0 54.5 10t44.5 36t18 76v108l15 -12q-23 -55 -64 -78.5t-95 -23.5q-63 0 -110 33.5t-72.5 89.5t-25.5 125q0 77 28.5 132t76 85t103.5 30q58 0 97.5 -26.5t58.5 -73.5l-12 -16v106h123
v-479q0 -79 -30 -129.5t-84 -74.5t-126 -24zM281 125q38 0 64.5 16.5t41 45.5t14.5 68t-14.5 69t-41 47.5t-63.5 17.5q-36 0 -63 -17.5t-41.5 -47t-14.5 -69.5q0 -39 14.5 -68.5t41 -45.5t62.5 -16zM151 563v73h275v-73h-275z" />
    <glyph glyph-name="g.ss02" horiz-adv-x="538" 
d="M272 -213q-44 0 -87 7t-77.5 24t-55 45.5t-20.5 71.5q0 13 2.5 24.5t5.5 20.5l99 61l62 -50l-52 -45v-7q0 -29 29.5 -43.5t94.5 -14.5q64 0 91.5 14t27.5 41q0 14 -5.5 24.5t-18.5 16.5t-35 6h-167q-9 0 -29.5 6.5t-42 21.5t-37 38.5t-15.5 57.5q-1 42 23 77.5t71 66.5
l59 -81q-15 -4 -26.5 -17.5t-11.5 -29.5q1 -15 15 -23.5t35.5 -11t41.5 -2.5h102q55 0 90.5 -16t52.5 -46.5t17 -73.5q0 -81 -61 -122t-178 -41zM273 138q-61 0 -107.5 23.5t-72.5 64t-26 93.5q0 56 27.5 97t74 64t101.5 23q54 0 100.5 -23t74.5 -65.5t28 -99.5
q0 -54 -25 -93.5t-70 -61.5t-105 -22zM271 235q40 0 59.5 24.5t19.5 58.5q0 37 -21.5 59t-57.5 22q-37 0 -58.5 -22t-21.5 -58q0 -35 19.5 -59.5t60.5 -24.5zM441 389l-90 58l114 91l64 -77z" />
    <glyph glyph-name="gbreve.ss02" horiz-adv-x="538" 
d="M272 -213q-44 0 -87 7t-77.5 24t-55 45.5t-20.5 71.5q0 13 2.5 24.5t5.5 20.5l99 61l62 -50l-52 -45v-7q0 -29 29.5 -43.5t94.5 -14.5q64 0 91.5 14t27.5 41q0 14 -5.5 24.5t-18.5 16.5t-35 6h-167q-9 0 -29.5 6.5t-42 21.5t-37 38.5t-15.5 57.5q-1 42 23 77.5t71 66.5
l59 -81q-15 -4 -26.5 -17.5t-11.5 -29.5q1 -15 15 -23.5t35.5 -11t41.5 -2.5h102q55 0 90.5 -16t52.5 -46.5t17 -73.5q0 -81 -61 -122t-178 -41zM273 138q-61 0 -107.5 23.5t-72.5 64t-26 93.5q0 56 27.5 97t74 64t101.5 23q54 0 100.5 -23t74.5 -65.5t28 -99.5
q0 -54 -25 -93.5t-70 -61.5t-105 -22zM271 235q40 0 59.5 24.5t19.5 58.5q0 37 -21.5 59t-57.5 22q-37 0 -58.5 -22t-21.5 -58q0 -35 19.5 -59.5t60.5 -24.5zM441 389l-90 58l114 91l64 -77zM276 548q-81 0 -118.5 36.5t-37.5 112.5h80q0 -43 21 -60t55 -17q37 0 57 17.5
t20 59.5h80q0 -80 -39.5 -114.5t-117.5 -34.5z" />
    <glyph glyph-name="gcaron.ss02" horiz-adv-x="538" 
d="M272 -213q-44 0 -87 7t-77.5 24t-55 45.5t-20.5 71.5q0 13 2.5 24.5t5.5 20.5l99 61l62 -50l-52 -45v-7q0 -29 29.5 -43.5t94.5 -14.5q64 0 91.5 14t27.5 41q0 14 -5.5 24.5t-18.5 16.5t-35 6h-167q-9 0 -29.5 6.5t-42 21.5t-37 38.5t-15.5 57.5q-1 42 23 77.5t71 66.5
l59 -81q-15 -4 -26.5 -17.5t-11.5 -29.5q1 -15 15 -23.5t35.5 -11t41.5 -2.5h102q55 0 90.5 -16t52.5 -46.5t17 -73.5q0 -81 -61 -122t-178 -41zM273 138q-61 0 -107.5 23.5t-72.5 64t-26 93.5q0 56 27.5 97t74 64t101.5 23q54 0 100.5 -23t74.5 -65.5t28 -99.5
q0 -54 -25 -93.5t-70 -61.5t-105 -22zM271 235q40 0 59.5 24.5t19.5 58.5q0 37 -21.5 59t-57.5 22q-37 0 -58.5 -22t-21.5 -58q0 -35 19.5 -59.5t60.5 -24.5zM441 389l-90 58l114 91l64 -77zM277 532l-157 165h96l61 -70l61 70h95z" />
    <glyph glyph-name="gcircumflex.ss02" horiz-adv-x="538" 
d="M272 -213q-44 0 -87 7t-77.5 24t-55 45.5t-20.5 71.5q0 13 2.5 24.5t5.5 20.5l99 61l62 -50l-52 -45v-7q0 -29 29.5 -43.5t94.5 -14.5q64 0 91.5 14t27.5 41q0 14 -5.5 24.5t-18.5 16.5t-35 6h-167q-9 0 -29.5 6.5t-42 21.5t-37 38.5t-15.5 57.5q-1 42 23 77.5t71 66.5
l59 -81q-15 -4 -26.5 -17.5t-11.5 -29.5q1 -15 15 -23.5t35.5 -11t41.5 -2.5h102q55 0 90.5 -16t52.5 -46.5t17 -73.5q0 -81 -61 -122t-178 -41zM273 138q-61 0 -107.5 23.5t-72.5 64t-26 93.5q0 56 27.5 97t74 64t101.5 23q54 0 100.5 -23t74.5 -65.5t28 -99.5
q0 -54 -25 -93.5t-70 -61.5t-105 -22zM271 235q40 0 59.5 24.5t19.5 58.5q0 37 -21.5 59t-57.5 22q-37 0 -58.5 -22t-21.5 -58q0 -35 19.5 -59.5t60.5 -24.5zM441 389l-90 58l114 91l64 -77zM120 541l157 175l156 -175h-99l-57 69l-57 -69h-100z" />
    <glyph glyph-name="uni0123.ss02" horiz-adv-x="538" 
d="M272 -213q-44 0 -87 7t-77.5 24t-55 45.5t-20.5 71.5q0 13 2.5 24.5t5.5 20.5l99 61l62 -50l-52 -45v-7q0 -29 29.5 -43.5t94.5 -14.5q64 0 91.5 14t27.5 41q0 14 -5.5 24.5t-18.5 16.5t-35 6h-167q-9 0 -29.5 6.5t-42 21.5t-37 38.5t-15.5 57.5q-1 42 23 77.5t71 66.5
l59 -81q-15 -4 -26.5 -17.5t-11.5 -29.5q1 -15 15 -23.5t35.5 -11t41.5 -2.5h102q55 0 90.5 -16t52.5 -46.5t17 -73.5q0 -81 -61 -122t-178 -41zM273 138q-61 0 -107.5 23.5t-72.5 64t-26 93.5q0 56 27.5 97t74 64t101.5 23q54 0 100.5 -23t74.5 -65.5t28 -99.5
q0 -54 -25 -93.5t-70 -61.5t-105 -22zM271 235q40 0 59.5 24.5t19.5 58.5q0 37 -21.5 59t-57.5 22q-37 0 -58.5 -22t-21.5 -58q0 -35 19.5 -59.5t60.5 -24.5zM441 389l-90 58l114 91l64 -77zM179 552l122 156h73l-66 -156h-129z" />
    <glyph glyph-name="gdotaccent.ss02" horiz-adv-x="538" 
d="M272 -213q-44 0 -87 7t-77.5 24t-55 45.5t-20.5 71.5q0 13 2.5 24.5t5.5 20.5l99 61l62 -50l-52 -45v-7q0 -29 29.5 -43.5t94.5 -14.5q64 0 91.5 14t27.5 41q0 14 -5.5 24.5t-18.5 16.5t-35 6h-167q-9 0 -29.5 6.5t-42 21.5t-37 38.5t-15.5 57.5q-1 42 23 77.5t71 66.5
l59 -81q-15 -4 -26.5 -17.5t-11.5 -29.5q1 -15 15 -23.5t35.5 -11t41.5 -2.5h102q55 0 90.5 -16t52.5 -46.5t17 -73.5q0 -81 -61 -122t-178 -41zM273 138q-61 0 -107.5 23.5t-72.5 64t-26 93.5q0 56 27.5 97t74 64t101.5 23q54 0 100.5 -23t74.5 -65.5t28 -99.5
q0 -54 -25 -93.5t-70 -61.5t-105 -22zM271 235q40 0 59.5 24.5t19.5 58.5q0 37 -21.5 59t-57.5 22q-37 0 -58.5 -22t-21.5 -58q0 -35 19.5 -59.5t60.5 -24.5zM441 389l-90 58l114 91l64 -77zM210 569v128h133v-128h-133z" />
    <glyph glyph-name="uni1E21.ss02" horiz-adv-x="538" 
d="M272 -213q-44 0 -87 7t-77.5 24t-55 45.5t-20.5 71.5q0 13 2.5 24.5t5.5 20.5l99 61l62 -50l-52 -45v-7q0 -29 29.5 -43.5t94.5 -14.5q64 0 91.5 14t27.5 41q0 14 -5.5 24.5t-18.5 16.5t-35 6h-167q-9 0 -29.5 6.5t-42 21.5t-37 38.5t-15.5 57.5q-1 42 23 77.5t71 66.5
l59 -81q-15 -4 -26.5 -17.5t-11.5 -29.5q1 -15 15 -23.5t35.5 -11t41.5 -2.5h102q55 0 90.5 -16t52.5 -46.5t17 -73.5q0 -81 -61 -122t-178 -41zM273 138q-61 0 -107.5 23.5t-72.5 64t-26 93.5q0 56 27.5 97t74 64t101.5 23q54 0 100.5 -23t74.5 -65.5t28 -99.5
q0 -54 -25 -93.5t-70 -61.5t-105 -22zM271 235q40 0 59.5 24.5t19.5 58.5q0 37 -21.5 59t-57.5 22q-37 0 -58.5 -22t-21.5 -58q0 -35 19.5 -59.5t60.5 -24.5zM441 389l-90 58l114 91l64 -77zM138 563v73h275v-73h-275z" />
    <glyph glyph-name="uni1EB7.ss03" horiz-adv-x="546" 
d="M377 0l-10 74v237q0 44 -27.5 65.5t-74.5 21.5q-39 0 -79.5 -15.5t-71.5 -43.5l-63 85q52 42 106.5 60.5t117.5 18.5q102 0 159 -51t57 -141v-311h-114zM228 -10q-54 0 -96.5 20t-67 57t-24.5 85q0 43 17.5 73.5t46.5 46.5q25 15 55.5 21t65.5 6h153v-92h-135
q-16 0 -31.5 -2.5t-26.5 -11.5q-10 -7 -15 -17.5t-5 -23.5q0 -28 22 -45t59 -17q33 0 60.5 14.5t44 40t16.5 58.5l33 -66q-13 -52 -39.5 -84.5t-60.5 -47.5t-72 -15zM275 -196q-29 0 -49.5 20.5t-20.5 50.5q0 29 20.5 49.5t49.5 20.5t49.5 -20.5t20.5 -49.5
q0 -30 -20.5 -50.5t-49.5 -20.5zM275 548q-81 0 -118.5 36.5t-37.5 112.5h80q0 -43 21 -60t55 -17q37 0 57 17.5t20 59.5h80q0 -80 -39.5 -114.5t-117.5 -34.5z" />
    <glyph glyph-name="uni1EAD.ss03" horiz-adv-x="546" 
d="M377 0l-10 74v237q0 44 -27.5 65.5t-74.5 21.5q-39 0 -79.5 -15.5t-71.5 -43.5l-63 85q52 42 106.5 60.5t117.5 18.5q102 0 159 -51t57 -141v-311h-114zM228 -10q-54 0 -96.5 20t-67 57t-24.5 85q0 43 17.5 73.5t46.5 46.5q25 15 55.5 21t65.5 6h153v-92h-135
q-16 0 -31.5 -2.5t-26.5 -11.5q-10 -7 -15 -17.5t-5 -23.5q0 -28 22 -45t59 -17q33 0 60.5 14.5t44 40t16.5 58.5l33 -66q-13 -52 -39.5 -84.5t-60.5 -47.5t-72 -15zM275 -196q-29 0 -49.5 20.5t-20.5 50.5q0 29 20.5 49.5t49.5 20.5t49.5 -20.5t20.5 -49.5
q0 -30 -20.5 -50.5t-49.5 -20.5zM119 541l157 175l156 -175h-99l-57 69l-57 -69h-100z" />
    <glyph glyph-name="adieresis.ss03" horiz-adv-x="546" 
d="M377 0l-10 74v237q0 44 -27.5 65.5t-74.5 21.5q-39 0 -79.5 -15.5t-71.5 -43.5l-63 85q52 42 106.5 60.5t117.5 18.5q102 0 159 -51t57 -141v-311h-114zM228 -10q-54 0 -96.5 20t-67 57t-24.5 85q0 43 17.5 73.5t46.5 46.5q25 15 55.5 21t65.5 6h153v-92h-135
q-16 0 -31.5 -2.5t-26.5 -11.5q-10 -7 -15 -17.5t-5 -23.5q0 -28 22 -45t59 -17q33 0 60.5 14.5t44 40t16.5 58.5l33 -66q-13 -52 -39.5 -84.5t-60.5 -47.5t-72 -15zM377 561q-30 0 -51.5 21.5t-21.5 51.5q0 31 21 52t52 21q30 0 51.5 -21t21.5 -52q0 -30 -21.5 -51.5
t-51.5 -21.5zM173 561q-30 0 -51.5 21.5t-21.5 51.5q0 31 21 52t52 21t52 -21t21 -52q0 -30 -21.5 -51.5t-51.5 -21.5z" />
    <glyph glyph-name="uni1EA1.ss03" horiz-adv-x="546" 
d="M377 0l-10 74v237q0 44 -27.5 65.5t-74.5 21.5q-39 0 -79.5 -15.5t-71.5 -43.5l-63 85q52 42 106.5 60.5t117.5 18.5q102 0 159 -51t57 -141v-311h-114zM228 -10q-54 0 -96.5 20t-67 57t-24.5 85q0 43 17.5 73.5t46.5 46.5q25 15 55.5 21t65.5 6h153v-92h-135
q-16 0 -31.5 -2.5t-26.5 -11.5q-10 -7 -15 -17.5t-5 -23.5q0 -28 22 -45t59 -17q33 0 60.5 14.5t44 40t16.5 58.5l33 -66q-13 -52 -39.5 -84.5t-60.5 -47.5t-72 -15zM275 -196q-29 0 -49.5 20.5t-20.5 50.5q0 29 20.5 49.5t49.5 20.5t49.5 -20.5t20.5 -49.5
q0 -30 -20.5 -50.5t-49.5 -20.5z" />
    <glyph glyph-name="cdotaccent.ss03" horiz-adv-x="522" 
d="M278 -10q-60 0 -104.5 21.5t-75 57.5t-45.5 82t-15 96q0 49 15 95t45.5 82t75 57.5t104.5 21.5q75 0 130 -36t82 -109l-108 -43q-12 35 -36.5 57.5t-67.5 22.5q-40 0 -66 -21.5t-38 -55.5t-12 -71t12 -71.5t38 -56t66 -21.5q43 0 67.5 22.5t36.5 58.5l108 -43
q-27 -74 -82 -110t-130 -36zM264 561q-30 0 -51.5 21.5t-21.5 51.5q0 31 21 52t52 21t52 -21t21 -52q0 -30 -21.5 -51.5t-51.5 -21.5z" />
    <glyph glyph-name="uni1EC7.ss03" horiz-adv-x="541" 
d="M281 -10q-64 0 -110 21t-75.5 56.5t-43.5 81t-14 95.5q0 48 14 94t42 83t72.5 59.5t106.5 22.5q58 0 101 -19.5t71 -54t42.5 -80.5t14.5 -98q0 -7 -0.5 -19.5t-2.5 -26.5h-337q5 -53 39.5 -80t86.5 -27q38 0 74 13.5t64 38.5l62 -84q-35 -27 -66 -44t-64.5 -24.5
t-76.5 -7.5zM379 267q2 8 3.5 16t1.5 15q0 21 -8 39.5t-22 32.5t-33.5 21.5t-44.5 7.5q-37 0 -62 -15t-37.5 -38.5t-15.5 -48.5h260zM281 -196q-29 0 -49.5 20.5t-20.5 50.5q0 29 20.5 49.5t49.5 20.5t49.5 -20.5t20.5 -49.5q0 -30 -20.5 -50.5t-49.5 -20.5zM118 541
l157 175l156 -175h-99l-57 69l-57 -69h-100z" />
    </font>
</defs>
</svg>
