<?xml version="1.0" standalone="no"?>
<!DOCTYPE svg PUBLIC "-//W3C//DTD SVG 1.1//EN" "http://www.w3.org/Graphics/SVG/1.1/DTD/svg11.dtd" >
<svg xmlns="http://www.w3.org/2000/svg" xmlns:xlink="http://www.w3.org/1999/xlink" version="1.1">
<metadata>
Created by FontForge 20170731 at Wed Nov 16 23:15:30 2022
 By Aleksey,,,
Copyright 2021 The Hanken Grotesk Project Authors (https://github.com/marcologous/hanken-grotesk)
</metadata>
<defs>
<font id="HankenGrotesk-MediumItalic" horiz-adv-x="0" >
  <font-face 
    font-family="Hanken Grotesk Medium"
    font-weight="500"
    font-style="italic"
    font-stretch="normal"
    units-per-em="1000"
    panose-1="0 0 0 0 0 0 0 0 0 0"
    ascent="800"
    descent="-200"
    x-height="493"
    cap-height="697"
    bbox="-167 -258 1358 993"
    underline-thickness="40"
    underline-position="-181"
    slope="-8"
    unicode-range="U+0020-FB02"
  />
<missing-glyph horiz-adv-x="508" 
d="M50 0v473h408v-473h-408zM85 36h338v402h-338v-402z" />
    <glyph glyph-name="fi" unicode="fi" horiz-adv-x="523" 
d="M60 0l59 417h-85l11 76h84l6 40q8 57 39.5 95.5t77 58t96.5 19.5q58 0 98 -13.5t73 -37.5l-52 -66q-22 19 -51 28t-63 9q-52 0 -83.5 -27t-38.5 -80l-4 -26h208l-12 -76h-207l-59 -417h-97zM330 0l69 493h98l-70 -493h-97z" />
    <glyph glyph-name="fl" unicode="fl" horiz-adv-x="567" 
d="M435 -9q-42 0 -68.5 24t-26.5 73q0 7 0.5 14t1.5 13l72 494q-16 10 -32.5 13.5t-33.5 3.5q-50 0 -80.5 -25.5t-37.5 -74.5l-5 -33h97l-12 -76h-96l-59 -417h-97l58 417h-82l11 76h83l6 40q8 58 39 96t76 57.5t94 19.5q57 0 96 -14t75 -40l-71 -526q-1 -3 -1 -6.5v-8.5
q0 -16 7 -23t22 -7q11 0 21.5 2.5t23.5 6.5l-7 -86q-23 -8 -42.5 -10.5t-31.5 -2.5z" />
    <glyph glyph-name="f_f" unicode="ff" horiz-adv-x="609" 
d="M60 0l59 417h-85l11 76h84l6 42q8 55 40 93t79.5 58t99.5 20q34 0 64 -8t54 -23q25 18 53.5 24.5t57.5 6.5q28 0 48.5 -6t40.5 -16l-38 -72q-12 7 -22.5 9.5t-18.5 2.5q-38 0 -57.5 -20.5t-23.5 -53.5l-8 -57h133l-11 -76h-133l-59 -417h-98l59 417h-179l-59 -417h-97z
M227 493h179l11 73q3 26 17 43q-16 8 -35 12.5t-42 4.5q-56 0 -87.5 -28.5t-37.5 -69.5z" />
    <glyph glyph-name="f_f_i" unicode="ffi" horiz-adv-x="806" 
d="M60 0l59 417h-85l11 76h84l6 42q8 55 40 93t79.5 58t99.5 20q36 0 71.5 -10t62.5 -31q32 23 66.5 32t69.5 9q57 0 97 -13.5t74 -37.5l-53 -66q-22 18 -51 27.5t-64 9.5q-51 0 -81.5 -26t-37.5 -74l-5 -33h276l-69 -493h-98l58 417h-178l-59 -417h-97l59 417h-179
l-59 -417h-97zM227 493h179l5 40q3 19 9.5 41.5t16.5 32.5q-15 10 -35 14.5t-45 4.5q-56 0 -87.5 -28.5t-37.5 -69.5z" />
    <glyph glyph-name="f_f_l" unicode="ffl" horiz-adv-x="852" 
d="M721 -9q-42 0 -68.5 24t-26.5 73q0 7 0.5 14t1.5 13l72 495q-17 9 -34.5 12.5t-38.5 3.5q-51 0 -81.5 -26t-37.5 -74l-5 -33h101l-11 -76h-101l-59 -417h-97l59 417h-179l-59 -417h-97l59 417h-85l11 76h84l6 42q8 55 40 93t79.5 58t99.5 20q39 0 73.5 -10.5t59.5 -29.5
q31 21 66.5 30.5t70.5 9.5q59 0 99 -14t76 -39l-71 -522q-1 -4 -1 -8v-9q0 -18 7 -25.5t22 -7.5q11 0 21.5 2.5t23.5 6.5l-7 -86q-19 -7 -39 -10t-34 -3zM227 493h179l5 40q3 22 9.5 40t17.5 34q-15 9 -35.5 14t-45.5 5q-55 0 -87.5 -29t-38.5 -75z" />
    <glyph glyph-name="hyphen_greater.liga" unicode="&#x2d;&#x3e;" horiz-adv-x="1097" 
d="M512 13l-29 68l394 198l1 -15h-875l9 73h880l-6 -13l-337 204l40 61l478 -288z" />
    <glyph glyph-name="less_hyphen.liga" unicode="&#x3c;&#x2d;" horiz-adv-x="1118" 
d="M622 589l28 -68l-394 -198l-1 14h875l-9 -73h-880l6 13l337 -203l-40 -61l-478 287z" />
    <glyph glyph-name=".notdef" horiz-adv-x="508" 
d="M50 0v473h408v-473h-408zM85 36h338v402h-338v-402z" />
    <glyph glyph-name=".null" 
 />
    <glyph glyph-name="nonmarkingreturn" horiz-adv-x="333" 
 />
    <glyph glyph-name="space" unicode=" " horiz-adv-x="260" 
 />
    <glyph glyph-name="exclam" unicode="!" horiz-adv-x="244" 
d="M79 205l58 492h97l-80 -492h-75zM31 0l18 121h111l-17 -121h-112z" />
    <glyph glyph-name="quotedbl" unicode="&#x22;" horiz-adv-x="347" 
d="M72 413l40 284h82l-40 -284h-82zM238 413l40 284h83l-40 -284h-83z" />
    <glyph glyph-name="numbersign" unicode="#" horiz-adv-x="697" 
d="M88 0l74 207h-118l10 70h132l54 154h-123l10 74h138l71 192h79l-70 -196h142l70 196h79l-71 -196h118l-10 -70h-133l-55 -154h126l-11 -70h-139l-74 -207h-78l73 207h-143l-72 -207h-79zM266 277h142l53 154h-143z" />
    <glyph glyph-name="dollar" unicode="$" horiz-adv-x="560" 
d="M198 -113l17 124h70l-17 -124h-70zM310 685l17 123h71l-18 -123h-70zM268 -12q-71 0 -125.5 26t-85.5 72.5t-33 108.5l102 20q2 -69 44.5 -102.5t104.5 -33.5q45 0 76 15.5t47.5 42t16.5 59.5t-16 54.5t-44.5 37.5t-67.5 32q-59 25 -97.5 52.5t-57 62t-18.5 76.5
q0 54 27 99t76.5 72.5t115.5 27.5q71 0 126 -32.5t79 -92.5l-86 -44q-16 40 -48 59.5t-71 19.5q-35 0 -61.5 -13.5t-41.5 -37t-15 -53.5q0 -28 14 -47t42.5 -34t71.5 -32q58 -23 96.5 -51.5t58 -64.5t19.5 -84q0 -63 -32 -112t-88 -76t-129 -27z" />
    <glyph glyph-name="percent" unicode="%" horiz-adv-x="743" 
d="M74 0l545 697h73l-545 -697h-73zM513 -9q-60 0 -98.5 38.5t-38.5 101.5q0 51 23 92.5t62 65.5t85 24q40 0 70.5 -18.5t48.5 -50.5t18 -72q0 -48 -23.5 -89t-62 -66.5t-84.5 -25.5zM519 58q28 0 50 14.5t35.5 38.5t13.5 53q0 36 -22.5 59.5t-55.5 23.5q-27 0 -49.5 -14
t-36 -38t-13.5 -55q0 -37 22.5 -59.5t55.5 -22.5zM226 384q-40 0 -71 17t-48.5 48.5t-17.5 73.5q0 51 23 92.5t62 66t85 24.5q40 0 70.5 -18.5t48.5 -51t18 -72.5q0 -48 -23.5 -89t-62 -66t-84.5 -25zM232 450q28 0 50 14.5t35.5 39t13.5 52.5q0 36 -22.5 59.5t-55.5 23.5
q-27 0 -49.5 -14t-36 -38t-13.5 -55q0 -37 22.5 -59.5t55.5 -22.5z" />
    <glyph glyph-name="ampersand" unicode="&#x26;" horiz-adv-x="691" 
d="M246 -11q-61 0 -107.5 18t-73 52.5t-26.5 83.5q0 53 22 92t58.5 68.5t77.5 52t77 41.5q49 25 89 50t64 54.5t24 66.5q0 25 -17 42t-54 17q-29 0 -54.5 -13.5t-40.5 -36.5t-15 -55t16.5 -61t32.5 -53l-79 -37q-13 19 -28 42t-25.5 50t-10.5 59q0 56 29 97t76 63t102 22
q74 0 116.5 -35t42.5 -96q0 -60 -31.5 -104.5t-82.5 -78.5t-109 -66q-29 -16 -60.5 -33t-58.5 -37t-43.5 -45t-16.5 -58q0 -37 29 -57.5t81 -20.5q71 0 131 35t106 101t73 158l86 -19q-36 -120 -96.5 -199.5t-138 -119.5t-165.5 -40zM538 -35l-262 360l84 47l253 -346z" />
    <glyph glyph-name="quotesingle" unicode="'" horiz-adv-x="180" 
d="M72 413l40 284h83l-40 -284h-83z" />
    <glyph glyph-name="parenleft" unicode="(" horiz-adv-x="322" 
d="M123 -204q-34 62 -50 147t-16 173q0 65 11 142t34 155.5t59 151.5t87 132h91q-54 -62 -93 -136t-63.5 -152t-36.5 -152.5t-12 -139.5q0 -59 8 -117t24.5 -110.5t42.5 -93.5h-86z" />
    <glyph glyph-name="parenright" unicode=")" horiz-adv-x="322" 
d="M-18 -204q74 84 120 174.5t67.5 187t21.5 196.5q0 61 -8 124.5t-24.5 120.5t-41.5 98h83q21 -39 36 -93t22 -115.5t7 -123.5q0 -98 -19.5 -199.5t-62.5 -196t-112 -173.5h-89z" />
    <glyph glyph-name="asterisk" unicode="*" horiz-adv-x="398" 
d="M150 391l-43 35l102 102l-127 31l26 58l117 -53l7 133h60l-30 -133l131 53l10 -58l-135 -31l74 -102l-51 -35l-53 116z" />
    <glyph glyph-name="plus" unicode="+" horiz-adv-x="560" 
d="M241 7v202h-202v77h202v202h78v-202h202v-77h-202v-202h-78z" />
    <glyph glyph-name="comma" unicode="," horiz-adv-x="240" 
d="M-32 -152l127 302h111l-172 -302h-66z" />
    <glyph glyph-name="hyphen" unicode="-" horiz-adv-x="327" 
d="M43 264l9 73h248l-9 -73h-248z" />
    <glyph glyph-name="period" unicode="." horiz-adv-x="240" 
d="M30 0l16 121h111l-17 -121h-110z" />
    <glyph glyph-name="slash" unicode="/" horiz-adv-x="419" 
d="M-113 -211l487 908h77l-488 -908h-76z" />
    <glyph glyph-name="zero" unicode="0" horiz-adv-x="560" 
d="M250 -8q-59 0 -97 20t-59.5 55.5t-30.5 80t-9 92.5q0 29 2.5 59t6.5 57q7 46 18 94.5t30.5 94t50 82t73.5 58.5t104 22q57 0 95 -20.5t60 -55t31 -79t9 -92.5q0 -27 -2 -57.5t-7 -59.5q-6 -48 -18.5 -98t-32.5 -95.5t-50.5 -81t-73.5 -56t-100 -20.5zM254 86q51 0 86 36
t56 96t31 134q5 30 7 58t2 51q0 69 -22.5 110.5t-77.5 41.5t-89.5 -37t-54.5 -98.5t-31 -135.5q-4 -28 -6.5 -54.5t-2.5 -51.5q0 -43 9.5 -77t31.5 -53.5t61 -19.5z" />
    <glyph glyph-name="one" unicode="1" horiz-adv-x="560" 
d="M249 0l78 558l22 -49h-209l12 78h113q32 0 52 15t24 49l6 46h99l-98 -697h-99z" />
    <glyph glyph-name="two" unicode="2" horiz-adv-x="560" 
d="M11 0l9 79q38 25 83 54.5t91 64t87.5 72t74.5 78t52 83t19 85.5q0 42 -24.5 67.5t-74.5 25.5q-46 0 -79.5 -22t-53.5 -58.5t-28 -80.5l-94 13q7 48 28 91.5t54 78t78.5 54t100.5 19.5q58 0 101 -22.5t66.5 -63.5t23.5 -97q0 -51 -18 -98.5t-49 -91t-72 -83.5t-86.5 -75
t-93 -65t-92.5 -55l12 38h368l-13 -91h-470z" />
    <glyph glyph-name="three" unicode="3" horiz-adv-x="560" 
d="M246 -8q-69 0 -121.5 24t-80.5 67t-28 100q0 8 1 16.5t2 17.5l97 1q-1 -8 -1.5 -14t-0.5 -7q0 -54 36.5 -82.5t101.5 -28.5q51 0 90.5 17t61.5 47.5t22 71.5q0 32 -12.5 52t-36.5 32t-56 16.5t-70 4.5l5 77q42 0 82 12.5t65.5 39.5t25.5 70q0 41 -26.5 63.5t-73.5 22.5
q-39 0 -69.5 -15t-50 -41t-24.5 -59l-94 10q8 59 42 103.5t86.5 69.5t115.5 25q59 0 102 -21t67 -58.5t24 -88.5q0 -45 -20.5 -81t-55 -59.5t-79.5 -34.5v19q35 -5 70 -23t57.5 -51t22.5 -84q0 -61 -34.5 -113.5t-96.5 -85t-146 -32.5z" />
    <glyph glyph-name="four" unicode="4" horiz-adv-x="560" 
d="M302 0l23 165h-323l10 77l397 455h90l-63 -440h112l-13 -92h-111l-23 -165h-99zM94 226l-5 31h250l47 338l10 -13z" />
    <glyph glyph-name="five" unicode="5" horiz-adv-x="560" 
d="M252 -9q-67 0 -117.5 28t-78.5 75.5t-30 105.5l96 11q2 -52 36.5 -89t97.5 -37q39 0 70 14.5t53.5 39t34 56t11.5 65.5q0 55 -31 88.5t-89 33.5q-44 0 -82 -20.5t-66 -55.5l-92 28l117 363h376l-12 -91h-341l58 41l-82 -258l-32 6q39 40 85.5 59.5t95.5 19.5
q62 0 106 -28t67.5 -75t23.5 -105q0 -53 -20 -102t-56.5 -88.5t-87.5 -62t-111 -22.5z" />
    <glyph glyph-name="six" unicode="6" horiz-adv-x="561" 
d="M456 697l-213 -278l-14 17q22 12 45.5 18t43.5 6q62 0 108.5 -26.5t73 -72.5t26.5 -104q0 -54 -22 -102.5t-60 -85t-88 -57.5t-106 -21q-63 0 -113.5 27t-79 74t-28.5 107q0 46 15 85.5t41 73.5l258 339h113zM304 374q-34 0 -65.5 -13.5t-56.5 -36.5t-39 -55t-14 -68
q0 -35 15.5 -61.5t44 -41t64.5 -14.5q35 0 66.5 13.5t55.5 36.5t38.5 54t14.5 68q0 35 -16 61t-44 41.5t-64 15.5z" />
    <glyph glyph-name="seven" unicode="7" horiz-adv-x="560" 
d="M63 0l422 642l23 -36h-430l13 91h501l-9 -74l-410 -623h-110z" />
    <glyph glyph-name="eight" unicode="8" horiz-adv-x="560" 
d="M250 -9q-59 0 -110.5 21t-83 63t-31.5 105q0 40 14.5 78.5t45.5 70.5t80 53q-29 16 -44.5 46.5t-16.5 68.5q-1 61 33 108t89 74t116 27q51 0 93.5 -20t68 -57t26.5 -92q1 -34 -10.5 -65t-33 -55t-54.5 -41q44 -20 67.5 -58.5t23.5 -92.5q0 -70 -37.5 -122.5t-99.5 -82
t-136 -29.5zM254 83q52 0 90.5 20.5t60.5 54.5t22 74q0 52 -35 80t-94 28q-47 0 -86.5 -18t-64 -50t-24.5 -78q0 -38 17.5 -62.5t47 -36.5t66.5 -12zM299 407q36 0 66.5 15t49 42t18.5 62q0 41 -25.5 64.5t-70.5 23.5q-36 0 -67 -14.5t-49.5 -41.5t-18.5 -63
q0 -41 26.5 -64.5t70.5 -23.5z" />
    <glyph glyph-name="nine" unicode="9" horiz-adv-x="560" 
d="M132 0l213 278l14 -17q-22 -12 -45.5 -18t-43.5 -6q-61 0 -108 26.5t-73.5 73t-26.5 103.5q0 55 22 103t60 84.5t88.5 57.5t105.5 21q64 0 114 -27t78.5 -73.5t28.5 -107.5q0 -46 -15 -85t-40 -74l-258 -339h-114zM284 323q34 0 65.5 13.5t56.5 36.5t39.5 55t14.5 68
q0 35 -16 61.5t-44 41t-65 14.5q-35 0 -66 -13.5t-55.5 -36.5t-39 -54t-14.5 -68q0 -35 16 -61t44 -41.5t64 -15.5z" />
    <glyph glyph-name="colon" unicode=":" horiz-adv-x="240" 
d="M79 349l17 122h112l-18 -122h-111zM29 0l18 121h111l-17 -121h-112z" />
    <glyph glyph-name="semicolon" unicode=";" horiz-adv-x="240" 
d="M-49 -152l125 282h111l-168 -282h-68zM94 349l18 122h111l-17 -122h-112z" />
    <glyph glyph-name="less" unicode="&#x3c;" horiz-adv-x="560" 
d="M524 0l-499 201v92l499 201v-83l-453 -179v30l453 -180v-82z" />
    <glyph glyph-name="equal" unicode="=" horiz-adv-x="560" 
d="M79 315v78h403v-78h-403zM79 101v78h403v-78h-403z" />
    <glyph glyph-name="greater" unicode="&#x3e;" horiz-adv-x="560" 
d="M36 0v82l453 180v-30l-453 179v83l499 -201v-92z" />
    <glyph glyph-name="question" unicode="?" horiz-adv-x="516" 
d="M206 203l8 54q7 44 25 72.5t42 48.5t49 37q27 18 48 33.5t33 35.5t12 52q0 39 -27.5 63.5t-79.5 24.5q-65 0 -106 -34t-49 -95l-86 5q15 101 81.5 153.5t161.5 52.5q54 0 97 -19t68 -56t25 -91q0 -46 -13 -77.5t-40 -55.5t-69 -51q-34 -22 -59 -46t-31 -65l-6 -42h-84z
M165 0l17 121h111l-17 -121h-111z" />
    <glyph glyph-name="at" unicode="@" horiz-adv-x="874" 
d="M393 -109q-97 0 -173.5 42t-119.5 115.5t-43 167.5q0 87 33 165t92 139.5t138 96.5t170 35q100 0 175.5 -41.5t117.5 -114t42 -166.5q0 -35 -7.5 -79t-26.5 -83.5t-53 -66t-88 -26.5q-36 0 -61.5 12.5t-39.5 33.5t-14 45q0 2 0.5 5t0.5 6l3 28l19 -33q-28 -52 -74 -76
t-94 -24q-71 0 -115.5 45t-44.5 119q0 58 25.5 109t71.5 83t107 32q49 0 83 -24.5t49 -68.5l-10 12l22 74h75l-34 -240q-1 -6 -1.5 -12.5t-0.5 -11.5q0 -21 10 -30t31 -9q30 0 48.5 20t29 50t14.5 60t4 50q0 74 -32.5 130.5t-92 88t-139.5 31.5q-78 0 -144 -30t-114.5 -81.5
t-75.5 -116.5t-27 -135q0 -74 34 -131.5t94 -90t136 -32.5q45 0 89 13t85 36l30 -66q-47 -28 -100 -41.5t-104 -13.5zM410 149q37 0 66.5 19t46.5 51.5t17 73.5q0 42 -23 66t-63 24q-38 0 -68 -21t-47 -53.5t-17 -68.5q0 -41 24.5 -66t63.5 -25z" />
    <glyph glyph-name="A" unicode="A" horiz-adv-x="649" 
d="M-21 0l368 697h80l171 -697h-108l-121 549l-277 -549h-113zM160 155l45 91h237l21 -91h-303z" />
    <glyph glyph-name="B" unicode="B" horiz-adv-x="604" 
d="M40 0l98 697h228q92 0 143.5 -39.5t51.5 -111.5q0 -59 -28 -104.5t-79 -69.5q47 -15 72.5 -50.5t25.5 -90.5q0 -73 -31 -124.5t-87.5 -79t-133.5 -27.5h-260zM156 94h144q73 0 113 35.5t40 99.5q0 41 -26 63.5t-76 22.5h-165zM200 406h136q36 0 63.5 16t43 43t15.5 61
q0 38 -25.5 57.5t-74.5 19.5h-131z" />
    <glyph glyph-name="C" unicode="C" horiz-adv-x="705" 
d="M340 -13q-67 0 -120 21.5t-89.5 61.5t-55.5 95t-19 121q0 82 25.5 157.5t74 135.5t118 95.5t157.5 35.5q109 0 180.5 -54.5t93.5 -148.5l-98 -30q-15 66 -62.5 101t-118.5 35q-66 0 -116 -27.5t-84.5 -73t-52 -103t-17.5 -119.5q0 -96 49.5 -151t139.5 -55q76 0 133.5 38
t90.5 103l92 -41q-47 -92 -131 -144.5t-190 -52.5z" />
    <glyph glyph-name="D" unicode="D" horiz-adv-x="679" 
d="M40 0l98 697h194q153 0 235 -75t82 -213q0 -88 -25 -162.5t-76 -130t-128 -86t-181 -30.5h-199zM156 94h80q95 0 155.5 28.5t95 74.5t48 102.5t13.5 111.5q0 69 -26.5 111t-77 61.5t-121.5 19.5h-96z" />
    <glyph glyph-name="E" unicode="E" horiz-adv-x="583" 
d="M40 0l98 697h461l-13 -91h-359l-28 -204h328l-13 -91h-328l-31 -220h359l-13 -91h-461z" />
    <glyph glyph-name="F" unicode="F" horiz-adv-x="563" 
d="M40 0l98 697h460l-13 -91h-358l-28 -204h311l-13 -91h-311l-44 -311h-102z" />
    <glyph glyph-name="G" unicode="G" horiz-adv-x="732" 
d="M334 -13q-85 0 -147.5 36.5t-96.5 103.5t-34 157q0 84 25.5 160t74.5 136t118.5 95t156.5 35q109 0 180.5 -54.5t93.5 -148.5l-98 -30q-15 66 -61.5 101t-117.5 35q-66 0 -116.5 -27.5t-85 -73.5t-52.5 -104t-18 -121q0 -95 49.5 -149t137.5 -54q39 0 78.5 11t73.5 36
t58 67.5t33 105.5l6 45l13 -70h-196l12 91h265l-52 -370h-89l3 128l16 -15q-24 -44 -60.5 -72.5t-80 -41t-89.5 -12.5z" />
    <glyph glyph-name="H" unicode="H" horiz-adv-x="683" 
d="M40 0l98 697h102l-41 -292h329l41 292h102l-98 -697h-102l44 310h-329l-44 -310h-102z" />
    <glyph glyph-name="I" unicode="I" horiz-adv-x="252" 
d="M40 0l98 697h102l-98 -697h-102z" />
    <glyph glyph-name="J" unicode="J" horiz-adv-x="553" 
d="M225 -13q-93 0 -148 53t-57 146l101 6q2 -53 27.5 -82t81.5 -29q69 0 106 45.5t48 126.5l49 353h-271l13 91h373l-64 -455q-11 -80 -46 -137.5t-88.5 -87.5t-124.5 -30z" />
    <glyph glyph-name="K" unicode="K" horiz-adv-x="644" 
d="M152 218l16 129l383 350h139zM40 0l98 697h102l-98 -697h-102zM474 0l-181 367l84 71l214 -438h-117z" />
    <glyph glyph-name="L" unicode="L" horiz-adv-x="498" 
d="M40 0l98 697h102l-85 -606h306l-12 -91h-409z" />
    <glyph glyph-name="M" unicode="M" horiz-adv-x="845" 
d="M40 0l98 697h149l132 -536h-18l282 536h150l-98 -697h-102l82 579l8 -2l-276 -517h-100l-132 517l8 2l-81 -579h-102z" />
    <glyph glyph-name="N" unicode="N" horiz-adv-x="680" 
d="M40 0l98 697h105l267 -565h-23l80 565h101l-98 -697h-107l-265 566h23l-79 -566h-102z" />
    <glyph glyph-name="O" unicode="O" horiz-adv-x="748" 
d="M341 -13q-88 0 -152 36.5t-98.5 104t-34.5 158.5q0 81 25.5 157t74 136.5t118.5 95.5t158 35q89 0 153 -36.5t99 -103.5t35 -159q0 -83 -26 -159t-75 -135.5t-119 -94.5t-158 -35zM346 84q65 0 115 26.5t85 72.5t53 103.5t18 120.5q0 95 -50 150.5t-139 55.5
q-66 0 -116.5 -27t-84.5 -73.5t-52 -104t-18 -118.5q0 -64 22 -110.5t64.5 -71t102.5 -24.5z" />
    <glyph glyph-name="P" unicode="P" horiz-adv-x="557" 
d="M40 0l98 697h211q102 0 157.5 -42.5t55.5 -123.5q0 -74 -31.5 -127t-90.5 -80.5t-141 -27.5h-117l-41 -296h-101zM195 386h102q76 0 119.5 34.5t43.5 99.5q0 45 -32.5 65.5t-94.5 20.5h-107z" />
    <glyph glyph-name="Q" unicode="Q" horiz-adv-x="777" 
d="M341 -13q-88 0 -152 36.5t-98.5 104.5t-34.5 159q0 80 25 156t74 136.5t119 95.5t158 35q89 0 153 -36.5t99 -103.5t35 -159q0 -83 -26 -159t-75 -135.5t-119 -94.5t-158 -35zM630 -49l-240 268l68 61l239 -270zM346 84q65 0 115 26.5t85 72.5t53 103.5t18 120.5
q0 95 -50 150.5t-139 55.5q-66 0 -116.5 -27t-84.5 -73.5t-52 -104t-18 -118.5q0 -97 49.5 -151.5t139.5 -54.5z" />
    <glyph glyph-name="R" unicode="R" horiz-adv-x="603" 
d="M40 0l98 697h211q107 0 160 -43.5t53 -121.5q0 -58 -22.5 -108.5t-71 -83.5t-126.5 -42h-36h-38h-84l-42 -298h-102zM430 0l-138 310l102 13l148 -323h-112zM197 388h100q76 0 119.5 34.5t43.5 98.5q0 47 -34.5 66t-92.5 19h-106z" />
    <glyph glyph-name="S" unicode="S" horiz-adv-x="568" 
d="M271 -12q-71 0 -125.5 26t-85.5 72.5t-33 108.5l102 20q2 -69 44.5 -102.5t104.5 -33.5q44 0 75.5 15.5t48 42t16.5 59.5t-16 54.5t-44.5 37.5t-67.5 32q-59 25 -97.5 52.5t-57 62t-18.5 76.5q0 54 27 99t76.5 72.5t115.5 27.5q71 0 126 -32.5t79 -92.5l-86 -44
q-16 40 -48 59.5t-72 19.5q-35 0 -61.5 -13.5t-41 -37t-14.5 -53.5q0 -28 13.5 -47t42.5 -34t71 -32q58 -23 97 -51.5t58.5 -64.5t19.5 -84q0 -63 -32 -112t-88 -76t-129 -27z" />
    <glyph glyph-name="T" unicode="T" horiz-adv-x="586" 
d="M207 0l85 606h-228l13 91h558l-13 -91h-227l-85 -606h-103z" />
    <glyph glyph-name="U" unicode="U" horiz-adv-x="656" 
d="M296 -13q-114 0 -172.5 53t-58.5 156q0 12 1 27.5t3 30.5l62 443h102l-61 -437q-2 -15 -3 -30t-1 -26q0 -61 30 -92.5t100 -31.5q60 0 99 22t61 63.5t31 100.5l60 431h101l-62 -442q-19 -135 -92.5 -201.5t-199.5 -66.5z" />
    <glyph glyph-name="V" unicode="V" horiz-adv-x="661" 
d="M259 0l-181 697h110l141 -573h-31l299 573h114l-375 -697h-77z" />
    <glyph glyph-name="W" unicode="W" horiz-adv-x="964" 
d="M191 0l-107 697h105l78 -542l222 503h101l78 -503l233 542h108l-304 -697h-101l-89 537h17l-241 -537h-100z" />
    <glyph glyph-name="X" unicode="X" horiz-adv-x="651" 
d="M-18 0l288 349l-185 348h119l144 -276l222 276h124l-285 -348l188 -349h-120l-146 275l-226 -275h-123z" />
    <glyph glyph-name="Y" unicode="Y" horiz-adv-x="610" 
d="M220 0l38 270l-185 427h114l131 -325l228 325h118l-304 -427l-38 -270h-102z" />
    <glyph glyph-name="Z" unicode="Z" horiz-adv-x="590" 
d="M-4 0l10 85l490 552l11 -31h-402l12 91h492l-11 -85l-479 -540l-12 19h429l-13 -91h-527z" />
    <glyph glyph-name="bracketleft" unicode="[" horiz-adv-x="300" 
d="M9 -247l138 987h202l-9 -65h-122l-121 -857h122l-9 -65h-201z" />
    <glyph glyph-name="backslash" unicode="\" horiz-adv-x="454" 
d="M567 -211h-76l-487 908h76z" />
    <glyph glyph-name="bracketright" unicode="]" horiz-adv-x="301" 
d="M-49 -247l9 65h122l125 857h-122l10 65h200l-144 -987h-200z" />
    <glyph glyph-name="asciicircum" unicode="^" horiz-adv-x="577" 
d="M24 215l265 482h123l129 -482h-101l-109 435h29l-230 -435h-106z" />
    <glyph glyph-name="underscore" unicode="_" horiz-adv-x="434" 
d="M-33 -75l10 75h410l-10 -75h-410z" />
    <glyph glyph-name="grave" unicode="`" horiz-adv-x="308" 
d="M233 556l-126 141h102l96 -141h-72z" />
    <glyph glyph-name="a" unicode="a" horiz-adv-x="584" 
d="M235 -9q-59 0 -102 27.5t-66 75.5t-23 110q0 58 18.5 111t52.5 95.5t80.5 67t102.5 24.5q46 0 80.5 -17.5t56 -48.5t24.5 -74l-26 -11l22 142h94l-69 -493h-95l17 142l27 -12q-19 -49 -48.5 -79t-66 -45t-79.5 -15zM258 81q40 0 72 18t54 47t33.5 65t11.5 74
q0 39 -13.5 67.5t-39 44t-62.5 15.5q-40 0 -72 -17.5t-54.5 -46.5t-34.5 -65t-12 -74q0 -39 14.5 -68t40.5 -44.5t62 -15.5z" />
    <glyph glyph-name="b" unicode="b" horiz-adv-x="584" 
d="M288 -9q-45 0 -80 16t-57 48t-29 80l28 7l-21 -142h-96l98 697h98l-48 -346l-24 16q17 43 45 73t65.5 46t80.5 16q56 0 99 -25.5t68 -72.5t25 -113q0 -55 -17 -108.5t-50 -96.5t-80 -69t-105 -26zM271 81q39 0 70.5 16.5t54 45t34.5 64.5t12 74q0 40 -14.5 69.5
t-40.5 45.5t-62 16q-39 0 -70.5 -16t-54 -44.5t-34.5 -64.5t-12 -75t14 -68.5t40.5 -46t62.5 -16.5z" />
    <glyph glyph-name="c" unicode="c" horiz-adv-x="520" 
d="M248 -9q-69 0 -114.5 29t-68 78t-22.5 109q0 57 18 109.5t53 94.5t84 66.5t110 24.5q73 0 122.5 -36.5t65.5 -107.5l-88 -28q-8 40 -32.5 63.5t-68.5 23.5q-41 0 -72 -19t-52.5 -50t-32.5 -68t-11 -74q0 -35 11.5 -64.5t36 -47t62.5 -17.5q49 0 82.5 25.5t51.5 66.5
l83 -40q-36 -71 -93 -104.5t-125 -33.5z" />
    <glyph glyph-name="d" unicode="d" horiz-adv-x="584" 
d="M235 -9q-59 0 -102 27.5t-66 75.5t-23 110q0 58 18.5 111t52.5 95.5t80.5 67t102.5 24.5q46 0 80.5 -17.5t56 -48.5t24.5 -74l-26 -11l48 346h97l-98 -697h-95l17 142l27 -12q-19 -49 -48.5 -79t-66 -45t-79.5 -15zM260 81q39 0 70 17t53.5 45.5t34 64t11.5 74.5
q0 40 -14 69t-40 45t-62 16q-39 0 -71 -16.5t-54 -44.5t-34 -64.5t-12 -74.5q0 -40 14 -69.5t40.5 -45.5t63.5 -16z" />
    <glyph glyph-name="e" unicode="e" horiz-adv-x="542" 
d="M251 -9q-72 0 -118 28.5t-68 76t-22 104.5q0 56 17 109.5t50.5 97t82.5 69.5t111 26q68 0 111 -27.5t63.5 -72.5t20.5 -100q0 -21 -3 -45.5t-8 -44.5h-349q-1 -6 -1 -12t1 -11q1 -53 31.5 -81.5t84.5 -28.5q42 0 76.5 14t66.5 42l57 -66q-46 -39 -95 -58.5t-109 -19.5z
M407 267q2 16 3 26t1 25q0 26 -11 49.5t-34 38.5t-61 15q-42 0 -74.5 -19.5t-53 -50t-29.5 -65.5h290z" />
    <glyph glyph-name="f" unicode="f" horiz-adv-x="339" 
d="M73 0l58 417h-97l11 76h98l9 62q8 60 31.5 92.5t57 45.5t70.5 13q31 0 52 -6.5t40 -15.5l-38 -72q-11 6 -22.5 9t-21.5 3q-33 0 -50.5 -21t-22.5 -53l-7 -57h111l-11 -76h-111l-59 -417h-98z" />
    <glyph glyph-name="g" unicode="g" horiz-adv-x="585" 
d="M219 -213q-54 0 -94.5 16t-67.5 43t-44 61l81 55q15 -38 46 -64.5t80 -26.5q35 0 70 12t61.5 43.5t33.5 89.5l16 121l13 -13q-32 -61 -79.5 -89t-104.5 -28t-98.5 27t-64 74t-22.5 106q0 57 18.5 108t51.5 91.5t77.5 64.5t98.5 24q65 0 105 -33t51 -87l-11 -10l18 121h96
l-68 -483q-10 -76 -45 -125t-90 -73.5t-128 -24.5zM262 98q36 0 66.5 14.5t53.5 39.5t35.5 59t12.5 74q0 37 -14 66t-40.5 45t-62.5 16q-37 0 -68 -15.5t-54 -42t-35.5 -60.5t-12.5 -71t14.5 -65t41.5 -44t63 -16z" />
    <glyph glyph-name="h" unicode="h" horiz-adv-x="553" 
d="M33 0l98 697h99l-45 -311l-20 2q19 41 47 65.5t62.5 36.5t71.5 12q74 0 115 -38.5t41 -110.5q0 -11 -0.5 -20.5t-2.5 -19.5l-44 -313h-98l40 282q2 12 2.5 22t0.5 21q0 48 -21 70t-62 22q-62 0 -100 -43.5t-52 -133.5l-33 -240h-99z" />
    <glyph glyph-name="i" unicode="i" horiz-adv-x="232" 
d="M32 0l69 493h99l-70 -493h-98zM107 578l17 119h110l-16 -119h-111z" />
    <glyph glyph-name="j" unicode="j" horiz-adv-x="232" 
d="M-4 -213q-20 0 -40.5 4.5t-40.5 10.5l7 83q14 -3 25 -5t17 -2q24 0 40 13.5t20 45.5l77 556h99l-83 -587q-8 -63 -40.5 -91t-80.5 -28zM107 578l17 119h110l-16 -119h-111z" />
    <glyph glyph-name="k" unicode="k" horiz-adv-x="540" 
d="M374 0l-126 245l-106 -99l15 122l241 225h132l-211 -186l164 -307h-109zM33 0l98 697h98l-98 -697h-98z" />
    <glyph glyph-name="l" unicode="l" horiz-adv-x="268" 
d="M141 -9q-43 0 -69 24t-26 72q0 6 0.5 13.5t1.5 14.5l81 582h97l-78 -564q-1 -5 -1 -9.5v-9.5q0 -18 8.5 -25.5t23.5 -7.5q10 0 20.5 2.5t22.5 5.5l-12 -86q-19 -7 -37 -9.5t-32 -2.5z" />
    <glyph glyph-name="m" unicode="m" horiz-adv-x="833" 
d="M33 0l70 493h96l-15 -127l-23 1q19 53 48.5 82t62.5 41t65 12q44 0 77 -17.5t52 -52.5t20 -90h-58q23 58 53.5 93t67.5 51t80 16q55 0 88.5 -21.5t48.5 -58t15 -79.5q0 -12 -0.5 -21.5t-2.5 -20.5l-43 -301h-97l40 283q2 10 2.5 20t0.5 22q0 45 -18 68.5t-58 23.5
q-53 0 -88.5 -41t-46.5 -119l-36 -257h-98l41 288q2 11 2.5 20.5t0.5 19.5q0 45 -18.5 67t-56.5 22q-53 0 -89.5 -41t-47.5 -119l-36 -257h-99z" />
    <glyph glyph-name="n" unicode="n" horiz-adv-x="553" 
d="M33 0l70 493h96l-14 -107l-20 2q19 41 47 65.5t62.5 36.5t71.5 12q74 0 115 -38.5t41 -110.5q0 -11 -0.5 -20.5t-2.5 -19.5l-44 -313h-98l40 282q2 12 2.5 22t0.5 21q0 48 -21 70t-62 22q-62 0 -100 -43.5t-52 -133.5l-33 -240h-99z" />
    <glyph glyph-name="o" unicode="o" horiz-adv-x="575" 
d="M256 -9q-64 0 -112 28t-75 77t-27 114q0 58 20 110.5t57 93t87.5 64.5t111.5 24q65 0 112.5 -27.5t74 -76t26.5 -113.5q0 -59 -20.5 -112t-57.5 -94t-87 -64.5t-110 -23.5zM260 78q42 0 74 17.5t54.5 47t34.5 66.5t12 76q0 59 -31.5 95t-89.5 36q-43 0 -76 -18t-55 -48.5
t-33.5 -66.5t-11.5 -74q0 -59 32 -95t90 -36z" />
    <glyph glyph-name="p" unicode="p" horiz-adv-x="584" 
d="M5 -204l98 697h96l-18 -142l-28 12q20 48 49.5 78.5t66.5 45.5t79 15q61 0 103.5 -27.5t65.5 -75.5t23 -110q0 -58 -18 -111t-52 -95.5t-80 -67t-102 -24.5q-46 0 -81 17.5t-56 49t-26 73.5l25 11l-47 -346h-98zM270 81q39 0 70.5 16t54.5 44.5t35 64.5t12 74
q0 40 -14.5 69.5t-41 46t-62.5 16.5q-39 0 -70.5 -17t-53.5 -45.5t-34 -64t-12 -74.5t14 -68.5t40.5 -45.5t61.5 -16z" />
    <glyph glyph-name="q" unicode="q" horiz-adv-x="584" 
d="M355 -204l47 346l24 -16q-16 -42 -44.5 -72.5t-65.5 -46.5t-81 -16q-55 0 -98.5 25.5t-68.5 72.5t-25 113q0 55 17.5 108.5t50.5 96.5t79.5 69t105.5 26q45 0 80 -16t57 -48t28 -80l-27 -7l21 142h95l-98 -697h-97zM259 81q39 0 70.5 16t53.5 44.5t34 65t12 74.5
q0 40 -14 69t-40 45.5t-62 16.5q-39 0 -70.5 -16.5t-54 -45t-34.5 -64.5t-12 -74q0 -40 14 -69.5t40.5 -45.5t62.5 -16z" />
    <glyph glyph-name="r" unicode="r" horiz-adv-x="413" 
d="M33 0l70 493h96l-17 -133l-24 3q12 43 42 74.5t67.5 48t71.5 16.5q23 0 43.5 -6.5t42.5 -19.5l-56 -85q-11 6 -26.5 9.5t-29.5 3.5q-50 0 -80.5 -24.5t-46.5 -66.5t-24 -92l-31 -221h-98z" />
    <glyph glyph-name="s" unicode="s" horiz-adv-x="476" 
d="M210 -9q-54 0 -93 16t-65 41t-40 51l73 53q15 -37 48 -59t79 -22q31 0 55.5 9.5t39 27.5t14.5 41q0 19 -12 31.5t-34 21.5t-55 17q-25 7 -51 16t-48 23t-35 35.5t-13 53.5q0 46 24.5 80.5t67.5 54.5t100 20q58 0 103 -25t66 -71l-66 -42q-15 33 -43 46.5t-63 13.5
q-39 0 -68 -17t-29 -48q0 -22 20.5 -33.5t66.5 -23.5q39 -9 77.5 -23t63.5 -40.5t25 -74.5q0 -52 -26.5 -90.5t-73.5 -60.5t-108 -22z" />
    <glyph glyph-name="t" unicode="t" horiz-adv-x="353" 
d="M209 -9q-34 0 -60.5 12t-42.5 37t-16 64q0 8 0.5 16.5t1.5 18.5l68 480l106 55l-72 -518l-2 -16t-1 -17q0 -25 10.5 -38t34.5 -13q13 0 28 2.5t32 8.5l-12 -80q-19 -6 -38.5 -9t-36.5 -3zM34 417l11 76h308l-10 -76h-309z" />
    <glyph glyph-name="u" unicode="u" horiz-adv-x="553" 
d="M206 -9q-76 0 -115.5 39.5t-39.5 112.5q0 11 1 21t2 21l42 308h99l-40 -283q-1 -11 -2 -21t-1 -21q0 -47 20.5 -69t62.5 -22q44 0 74.5 21.5t50.5 64t28 104.5l32 226h98l-70 -493h-95l13 106l20 -6q-29 -57 -76.5 -83t-103.5 -26z" />
    <glyph glyph-name="v" unicode="v" horiz-adv-x="526" 
d="M188 0l-132 493h106l82 -366l188 366h108l-270 -493h-82z" />
    <glyph glyph-name="w" unicode="w" horiz-adv-x="750" 
d="M139 0l-79 493h103l45 -344l158 344h85l60 -342l144 342h105l-218 -493h-87l-62 356l-163 -356h-91z" />
    <glyph glyph-name="x" unicode="x" horiz-adv-x="527" 
d="M-11 0l210 248l-138 245h114l96 -179l147 179h120l-211 -245l140 -248h-115l-96 181l-148 -181h-119z" />
    <glyph glyph-name="y" unicode="y" horiz-adv-x="526" 
d="M50 -203l130 232l-124 464h106l82 -366l188 366h108l-381 -696h-109z" />
    <glyph glyph-name="z" unicode="z" horiz-adv-x="472" 
d="M1 0l9 68l347 367l7 -24h-291l11 82h382l-10 -72l-344 -369l-6 31h301l-12 -83h-394z" />
    <glyph glyph-name="braceleft" unicode="{" horiz-adv-x="310" 
d="M156 -247q-46 0 -70.5 27.5t-24.5 76.5q0 7 0.5 14.5t1.5 15.5l35 247q1 5 1 10v9q0 31 -14 44t-36 15l4 69q18 3 34 12t28 26.5t15 44.5l35 247q9 63 39.5 96t84.5 33h70l-9 -63h-32q-33 0 -49.5 -21.5t-21.5 -51.5l-35 -247q-6 -45 -25.5 -69.5t-54.5 -38.5l-5 -7
q26 -11 41 -31.5t15 -55.5q0 -7 -0.5 -13t-1.5 -12l-35 -246q-1 -6 -1.5 -11.5t-0.5 -10.5q0 -21 10.5 -33.5t37.5 -12.5h37l-9 -63h-64z" />
    <glyph glyph-name="bar" unicode="|" horiz-adv-x="262" 
d="M24 -254l140 1000h74l-140 -1000h-74z" />
    <glyph glyph-name="braceright" unicode="}" horiz-adv-x="311" 
d="M-50 -247l9 63h32q33 0 50.5 19.5t22.5 53.5l35 247q5 29 12.5 49t24.5 34t47 25v7q-31 15 -41 37.5t-10 46.5q0 8 0.5 15t1.5 13l35 247q2 9 2 12.5v6.5q0 19 -10 33.5t-39 14.5h-37l9 63h65q35 0 55 -14t28.5 -37t8.5 -50q0 -7 -0.5 -15t-2.5 -19l-36 -247q-1 -4 -1 -8
v-9q0 -21 10.5 -38.5t40.5 -21.5l-4 -69q-23 -2 -40 -15t-26.5 -31t-12.5 -38l-36 -247q-5 -32 -17 -61.5t-37 -48t-70 -18.5h-69z" />
    <glyph glyph-name="asciitilde" unicode="~" horiz-adv-x="560" 
d="M367 154q-34 0 -55.5 11.5t-35.5 29t-25.5 34.5t-25 28.5t-34.5 11.5q-23 0 -36.5 -24.5t-13.5 -63.5h-78q0 70 35 114.5t93 44.5q35 0 57.5 -11.5t37 -29t26 -35.5t24 -29.5t31.5 -11.5q24 0 39 29t15 72h77q0 -75 -35.5 -122.5t-95.5 -47.5z" />
    <glyph glyph-name="uni00A0" unicode="&#xa0;" horiz-adv-x="260" 
 />
    <glyph glyph-name="exclamdown" unicode="&#xa1;" horiz-adv-x="244" 
d="M165 288l-58 -492h-97l80 492h75zM213 493l-18 -121h-111l17 121h112z" />
    <glyph glyph-name="cent" unicode="&#xa2;" horiz-adv-x="560" 
d="M207 -113l18 125h70l-18 -125h-70zM291 480l17 121h70l-17 -121h-70zM269 -9q-69 0 -115 29t-68.5 78t-22.5 109q0 57 18.5 109.5t53 94.5t84 66.5t109.5 24.5q73 0 122.5 -36.5t66.5 -107.5l-89 -28q-8 40 -32 63.5t-69 23.5q-41 0 -72 -19t-52.5 -50t-32.5 -68t-11 -74
q0 -35 11.5 -64.5t36 -47t63.5 -17.5q49 0 82 25.5t52 66.5l82 -40q-35 -71 -92 -104.5t-125 -33.5z" />
    <glyph glyph-name="sterling" unicode="&#xa3;" horiz-adv-x="560" 
d="M10 0l13 88q43 15 77 39.5t53.5 54.5t20.5 61q0 22 -2 39.5t-5 31.5h-111l10 78h88q-2 15 -2.5 31t-0.5 32q0 75 28.5 132.5t80.5 90t119 32.5q80 0 129 -41.5t59 -110.5l-79 -25q-6 48 -36.5 71t-71.5 23q-46 0 -79.5 -22t-51.5 -62t-18 -94q0 -16 1 -29.5t2 -27.5h212
l-10 -78h-189q3 -15 5 -35t1 -43q0 -27 -9.5 -52t-26.5 -46.5t-40.5 -37t-52.5 -24.5v7h372l-12 -83h-474z" />
    <glyph glyph-name="currency" unicode="&#xa4;" horiz-adv-x="612" 
d="M90 65l-46 55l69 61q-14 25 -21 51.5t-7 53.5q0 43 16.5 85.5t47.5 75.5l-51 56l59 56l50 -60q32 22 68 33t70 11q38 0 70.5 -12t58.5 -34l69 61l48 -53l-70 -61q15 -24 21.5 -50.5t6.5 -54.5q0 -44 -16.5 -87t-47.5 -77l52 -55l-60 -55l-51 58q-33 -22 -67.5 -32
t-68.5 -10q-39 0 -72 12t-59 33zM297 155q42 0 75.5 16t56 42.5t34.5 58t12 63.5q0 36 -14.5 66t-43.5 49t-75 19q-43 0 -76 -16t-55.5 -42.5t-34.5 -58.5t-12 -64q0 -34 14.5 -64.5t43.5 -49.5t75 -19z" />
    <glyph glyph-name="yen" unicode="&#xa5;" horiz-adv-x="560" 
d="M196 0l15 107h-168l12 79h168l11 79h-168l11 80h126l-136 352h108l120 -332l218 332h111l-233 -352h120l-10 -80h-166l-11 -79h165l-11 -79h-165l-15 -107h-102z" />
    <glyph glyph-name="brokenbar" unicode="&#xa6;" horiz-adv-x="262" 
d="M106 330l58 416h74l-58 -416h-74zM24 -254l57 409h74l-57 -409h-74z" />
    <glyph glyph-name="section" unicode="&#xa7;" horiz-adv-x="587" 
d="M231 -205q-43 0 -80.5 13t-67 40t-47.5 67l89 48q16 -40 46 -58.5t65 -18.5q34 0 61.5 14.5t44.5 38t17 52.5t-18 48t-46.5 32.5t-61.5 26.5q-32 12 -63 26.5t-56.5 35t-41 50t-15.5 72.5q0 46 20 88.5t57 76.5q-3 10 -5.5 23t-2.5 29q0 56 30 103.5t83 75.5t120 28
t117 -30.5t75 -90.5l-89 -46q-15 36 -42.5 56t-68.5 20q-35 0 -63 -15t-43.5 -39t-15.5 -51q0 -29 18.5 -48t47 -32.5t59.5 -26.5q32 -12 63 -27t57 -35.5t41.5 -50t15.5 -70.5q0 -45 -19.5 -88.5t-57.5 -77.5q4 -11 5.5 -23.5t1.5 -27.5q0 -62 -31.5 -109.5t-83.5 -73
t-115 -25.5zM393 123q18 18 28 38.5t10 44.5q0 31 -18.5 51t-49 35t-67.5 31q-29 13 -56 25.5t-45 27.5q-18 -17 -28 -39t-10 -43q0 -32 20.5 -54t53 -37.5t66.5 -29.5q18 -7 32 -13t25 -11.5t21 -11.5t18 -14z" />
    <glyph glyph-name="dieresis" unicode="&#xa8;" horiz-adv-x="406" 
d="M272 578l18 119h108l-18 -119h-108zM90 578l17 119h107l-16 -119h-108z" />
    <glyph glyph-name="copyright" unicode="&#xa9;" horiz-adv-x="819" 
d="M410 -5q-73 0 -137.5 27.5t-113 76t-76 113t-27.5 137.5t27.5 137t76 112.5t113 76t137.5 27.5t137 -27.5t112.5 -76t76 -112.5t27.5 -137t-27.5 -137.5t-76 -113t-112.5 -76t-137 -27.5zM411 129q-64 0 -108 30.5t-66.5 80t-22.5 107.5q0 57 22 107t65.5 82t108.5 32
q62 0 108.5 -31t69.5 -90l-76 -30q-12 33 -38.5 55t-63.5 22q-39 0 -65 -21.5t-38 -55t-12 -70.5t12 -70t38 -53.5t65 -20.5q38 0 64 21t36 55l73 -28q-19 -57 -64.5 -89.5t-107.5 -32.5zM410 43q64 0 119.5 24t97 65.5t65.5 97.5t24 119q0 64 -24 119.5t-65.5 97t-97 65.5
t-119.5 24q-63 0 -119 -24t-97.5 -65.5t-65.5 -97t-24 -119.5q0 -63 24 -119t65.5 -97.5t97.5 -65.5t119 -24z" />
    <glyph glyph-name="ordfeminine" unicode="&#xaa;" horiz-adv-x="490" 
d="M209 348q-53 0 -88 29.5t-35 79.5q0 53 38.5 78t95.5 25h106q0 4 -0.5 11t-1.5 13q-4 34 -24.5 51.5t-58.5 17.5q-37 0 -60 -15.5t-39 -39.5l-45 31q30 42 63.5 59.5t78.5 17.5q68 0 105.5 -37.5t37.5 -102.5v-210h-52l-1 54q-47 -62 -120 -62zM222 402q31 0 55 14t39 41
q4 13 6.5 25.5t3.5 25.5h-103q-36 0 -55.5 -14t-19.5 -39q0 -24 19 -38.5t55 -14.5z" />
    <glyph glyph-name="guillemotleft" unicode="&#xab;" horiz-adv-x="493" 
d="M448 54l-209 199l263 197l-13 -104l-134 -93l106 -94zM213 54l-209 199l263 197l-13 -104l-135 -93l107 -94z" />
    <glyph glyph-name="logicalnot" unicode="&#xac;" horiz-adv-x="560" 
d="M401 17v192h-372v77h450v-269h-78z" />
    <glyph glyph-name="uni00AD" unicode="&#xad;" horiz-adv-x="327" 
d="M43 264l9 73h248l-9 -73h-248z" />
    <glyph glyph-name="registered" unicode="&#xae;" horiz-adv-x="621" 
d="M310 190q-71 0 -129.5 33t-93 91t-34.5 134t34.5 134t93 91t129.5 33q72 0 130 -33t92.5 -91t34.5 -134t-34.5 -134t-92.5 -91t-130 -33zM310 236q59 0 107 27t76.5 75t28.5 110q0 63 -28.5 111t-76.5 75t-107 27q-58 0 -106.5 -27t-77 -75t-28.5 -111q0 -62 28.5 -110
t77 -75t106.5 -27zM231 304v289h90q50 0 73.5 -22.5t23.5 -60.5q0 -31 -16.5 -50.5t-45.5 -26.5l72 -129h-48l-66 123h-39v-123h-44zM276 467h40q25 0 41.5 9t16.5 34t-16.5 34t-41.5 9h-40v-86z" />
    <glyph glyph-name="macron" unicode="&#xaf;" horiz-adv-x="370" 
d="M90 580l11 59h264l-11 -59h-264z" />
    <glyph glyph-name="degree" unicode="&#xb0;" horiz-adv-x="419" 
d="M238 419q-36 0 -65.5 17.5t-46 46t-16.5 65.5q0 42 22.5 78t58.5 58t77 22q37 0 66.5 -17t46.5 -45.5t17 -65.5q0 -42 -22.5 -78.5t-59 -58.5t-78.5 -22zM246 485q22 0 42 12t32 31.5t12 42.5q0 29 -20 49t-50 20q-22 0 -41.5 -12t-32 -31t-12.5 -42q0 -30 19.5 -50
t50.5 -20z" />
    <glyph glyph-name="plusminus" unicode="&#xb1;" horiz-adv-x="560" 
d="M241 123v164h-209v78h209v162h78v-162h209v-78h-209v-164h-78zM32 -35v78h496v-78h-496z" />
    <glyph glyph-name="uni00B2" unicode="&#xb2;" horiz-adv-x="370" 
d="M78 488l6 48q23 15 50 32.5t54.5 38t52 43t44.5 47t31.5 49.5t11.5 52q0 24 -15 39.5t-45 15.5q-28 0 -48 -13t-32 -35t-16 -48l-56 7q4 30 16 56t32.5 46.5t47.5 32t59 11.5q36 0 61.5 -13t39.5 -38t14 -59q0 -30 -10.5 -58.5t-29 -55t-43 -50t-52.5 -44.5t-56 -39.5
t-55 -32.5l7 22h221l-8 -54h-282z" />
    <glyph glyph-name="uni00B3" unicode="&#xb3;" horiz-adv-x="357" 
d="M211 483q-42 0 -73 14t-48.5 40t-17.5 61q0 5 0.5 10t1.5 10h59q-1 -4 -1.5 -7.5t-0.5 -4.5q0 -32 22.5 -49.5t61.5 -17.5q30 0 54 10.5t37 29t13 42.5q0 19 -7.5 31.5t-21.5 19.5t-33.5 9.5t-42.5 2.5l3 47q26 -1 49.5 7t38.5 24t15 42q0 24 -15.5 37.5t-43.5 13.5
q-24 0 -42 -9t-30 -24.5t-15 -35.5l-56 6q5 36 25 63t52 41.5t70 14.5q35 0 61 -12.5t40 -35.5t14 -52q0 -28 -12 -49.5t-33 -36t-48 -20.5v12q22 -3 42.5 -14t34 -31t13.5 -51q0 -36 -21 -67.5t-58 -51t-87 -19.5z" />
    <glyph glyph-name="acute" unicode="&#xb4;" horiz-adv-x="294" 
d="M87 556l112 141h105l-146 -141h-71z" />
    <glyph glyph-name="uni00B5" unicode="&#xb5;" horiz-adv-x="553" 
d="M4 -167l92 660h99l-42 -292l-2 -20t-1 -17q0 -39 19.5 -63t68.5 -24q46 0 76.5 25t49 69.5t26.5 104.5l30 217h98l-70 -493h-93l14 114l12 -15q-29 -56 -74 -82t-100 -26q-29 0 -48 11t-27 31l-30 -200h-98z" />
    <glyph glyph-name="paragraph" unicode="&#xb6;" horiz-adv-x="587" 
d="M216 -121l64 428q-53 0 -99 20t-73.5 59t-27.5 93q0 52 21 92t57 68.5t80.5 43t90.5 14.5h59l-115 -818h-57zM382 -121l115 818h56l-115 -818h-56z" />
    <glyph glyph-name="periodcentered" unicode="&#xb7;" horiz-adv-x="325" 
d="M108 288l17 122h108l-17 -122h-108z" />
    <glyph glyph-name="cedilla" unicode="&#xb8;" horiz-adv-x="281" 
d="M66 -258q-19 0 -44 9.5t-42 29.5l34 47q9 -12 23.5 -20.5t30.5 -8.5q23 0 37 12t14 36q0 19 -10 30.5t-27 17t-36.5 8t-37.5 2.5l63 104h60l-46 -65q25 -5 46.5 -16t34 -30.5t12.5 -47.5q0 -47 -31 -77.5t-81 -30.5z" />
    <glyph glyph-name="uni00B9" unicode="&#xb9;" horiz-adv-x="448" 
d="M246 488l46 335l13 -30h-125l7 47h68q19 0 31 9t14 30l4 27h59l-58 -418h-59z" />
    <glyph glyph-name="ordmasculine" unicode="&#xba;" horiz-adv-x="516" 
d="M258 352q-51 0 -89.5 24.5t-61 64.5t-22.5 88q0 49 22.5 88.5t61.5 64t89 24.5t89 -24t61 -64t22 -89t-22 -89t-60.5 -64t-89.5 -24zM258 407q36 0 60 16.5t36 44.5t12 61q0 34 -12 62t-36 44.5t-60 16.5t-60 -16.5t-36 -44.5t-12 -62q0 -33 11.5 -61t36 -44.5
t60.5 -16.5z" />
    <glyph glyph-name="guillemotright" unicode="&#xbb;" horiz-adv-x="464" 
d="M16 54l-14 105l107 94l-135 93l-12 104l263 -197zM251 54l-14 105l107 94l-135 93l-12 104l263 -197z" />
    <glyph glyph-name="onequarter" unicode="&#xbc;" horiz-adv-x="790" 
d="M101 279l46 335l14 -30h-126l7 47h68q19 0 31 9t15 30l3 27h59l-58 -418h-59zM59 0l506 697h72l-506 -697h-72zM630 0l14 100h-194l6 45l238 273h54l-38 -264h67l-7 -54h-67l-14 -100h-59zM505 136l-3 18h150l28 203l6 -8z" />
    <glyph glyph-name="onehalf" unicode="&#xbd;" horiz-adv-x="766" 
d="M101 279l46 335l14 -30h-126l7 47h68q19 0 31 9t15 30l3 27h59l-58 -418h-59zM59 0l506 697h72l-506 -697h-72zM444 0l5 48q24 15 50.5 32.5t54 38t52.5 43t44.5 47t31.5 49.5t12 52q0 24 -15 39.5t-45 15.5q-28 0 -48 -13t-32 -35t-17 -48l-56 7q4 30 16.5 56t32.5 46.5
t47 32t60 11.5q35 0 61 -13t40 -38t14 -59q0 -30 -10.5 -58.5t-29.5 -55t-43.5 -50t-52 -44.5t-56 -39.5t-55.5 -32.5l8 22h220l-7 -54h-282z" />
    <glyph glyph-name="threequarters" unicode="&#xbe;" horiz-adv-x="903" 
d="M150 274q-41 0 -72.5 14t-48.5 40t-17 61q0 5 0.5 10t1.5 10h58q0 -4 -0.5 -7.5t-0.5 -4.5q0 -32 22 -49.5t61 -17.5q31 0 54.5 10.5t36.5 29t13 42.5q0 19 -7.5 31.5t-21.5 19.5t-33.5 9.5t-42.5 2.5l4 47q25 -1 48.5 7t39 24t15.5 42q0 24 -15.5 37.5t-43.5 13.5
q-24 0 -42.5 -9t-30 -24.5t-14.5 -35.5l-57 6q5 36 25.5 63t52 41.5t69.5 14.5q35 0 61 -12.5t40 -35.5t14 -52q0 -28 -11.5 -49.5t-32.5 -36t-49 -20.5v12q22 -3 42.5 -14t34 -31t13.5 -51q0 -36 -20.5 -67.5t-57.5 -51t-88 -19.5zM172 0l506 697h72l-506 -697h-72zM743 0
l14 100h-194l6 45l238 273h54l-38 -264h67l-7 -54h-67l-14 -100h-59zM617 136l-2 18h150l28 203l6 -8z" />
    <glyph glyph-name="questiondown" unicode="&#xbf;" horiz-adv-x="365" 
d="M287 290l-8 -54q-6 -44 -24.5 -72.5t-42 -48.5t-48.5 -37q-28 -18 -49 -33.5t-32.5 -35.5t-11.5 -52q0 -39 27.5 -63.5t78.5 -24.5q66 0 106.5 34.5t48.5 94.5l86 -5q-15 -100 -81.5 -153t-160.5 -53q-54 0 -97.5 19t-68.5 56.5t-25 90.5q0 47 13.5 78t40.5 55.5t68 50.5
q34 22 59 46t32 65l6 42h83zM328 493l-17 -121h-111l17 121h111z" />
    <glyph glyph-name="Agrave" unicode="&#xc0;" horiz-adv-x="649" 
d="M-21 0l368 697h80l171 -697h-108l-121 549l-277 -549h-113zM160 155l45 91h237l21 -91h-303zM355 760l-126 141h102l96 -141h-72z" />
    <glyph glyph-name="Aacute" unicode="&#xc1;" horiz-adv-x="649" 
d="M-21 0l368 697h80l171 -697h-108l-121 549l-277 -549h-113zM160 155l45 91h237l21 -91h-303zM354 760l112 141h105l-146 -141h-71z" />
    <glyph glyph-name="Acircumflex" unicode="&#xc2;" horiz-adv-x="649" 
d="M-21 0l368 697h80l171 -697h-108l-121 549l-277 -549h-113zM160 155l45 91h237l21 -91h-303zM241 749l176 166l131 -166h-78l-61 82l-85 -82h-83z" />
    <glyph glyph-name="Atilde" unicode="&#xc3;" horiz-adv-x="649" 
d="M-21 0l368 697h80l171 -697h-108l-121 549l-277 -549h-113zM160 155l45 91h237l21 -91h-303zM465 743q-25 0 -40.5 7.5t-25.5 19t-18 23t-16.5 19.5t-21.5 8q-20 0 -35 -19.5t-20 -54.5l-56 5q8 60 38.5 92t74.5 32q23 0 37 -8t24.5 -20t18.5 -23.5t17 -19.5t21 -8
q18 0 33 21.5t20 55.5l59 -4q-8 -61 -38 -93.5t-72 -32.5z" />
    <glyph glyph-name="Adieresis" unicode="&#xc4;" horiz-adv-x="649" 
d="M-21 0l368 697h80l171 -697h-108l-121 549l-277 -549h-113zM160 155l45 91h237l21 -91h-303zM437 782l18 119h108l-18 -119h-108zM255 782l17 119h107l-16 -119h-108z" />
    <glyph glyph-name="Aring" unicode="&#xc5;" horiz-adv-x="649" 
d="M-21 0l368 697h80l171 -697h-108l-121 549l-277 -549h-113zM160 155l45 91h237l21 -91h-303zM383 646q-43 0 -70 28.5t-27 67.5q0 32 16.5 58t43 42.5t57.5 16.5q40 0 68 -28t28 -69q0 -31 -16 -57.5t-42.5 -42.5t-57.5 -16zM387 699q25 0 41.5 17.5t16.5 42.5
q0 20 -12 33t-33 13q-27 0 -43.5 -17t-16.5 -41q0 -21 13 -34.5t34 -13.5z" />
    <glyph glyph-name="AE" unicode="&#xc6;" horiz-adv-x="907" 
d="M-21 0l368 697h576l-13 -91h-360l-29 -210h314l-13 -92h-315l-29 -213h360l-13 -91h-463l85 608h-49l-306 -608h-113zM150 155l46 93h226l-13 -93h-259z" />
    <glyph glyph-name="Ccedilla" unicode="&#xc7;" horiz-adv-x="705" 
d="M340 -13q-67 0 -120 21.5t-89.5 61.5t-55.5 95t-19 121q0 82 25.5 157.5t74 135.5t118 95.5t157.5 35.5q109 0 180.5 -54.5t93.5 -148.5l-98 -30q-15 66 -62.5 101t-118.5 35q-66 0 -116 -27.5t-84.5 -73t-52 -103t-17.5 -119.5q0 -96 49.5 -151t139.5 -55q76 0 133.5 38
t90.5 103l92 -41q-47 -92 -131 -144.5t-190 -52.5zM295 -258q-19 0 -44 9.5t-42 29.5l34 47q9 -12 23.5 -20.5t30.5 -8.5q23 0 37 12t14 36q0 19 -10 30.5t-27 17t-36.5 8t-37.5 2.5l63 104h60l-46 -65q25 -5 46.5 -16t34 -30.5t12.5 -47.5q0 -47 -31 -77.5t-81 -30.5z" />
    <glyph glyph-name="Egrave" unicode="&#xc8;" horiz-adv-x="583" 
d="M40 0l98 697h461l-13 -91h-359l-28 -204h328l-13 -91h-328l-31 -220h359l-13 -91h-461zM336 760l-126 141h102l96 -141h-72z" />
    <glyph glyph-name="Eacute" unicode="&#xc9;" horiz-adv-x="583" 
d="M40 0l98 697h461l-13 -91h-359l-28 -204h328l-13 -91h-328l-31 -220h359l-13 -91h-461zM335 760l112 141h105l-146 -141h-71z" />
    <glyph glyph-name="Ecircumflex" unicode="&#xca;" horiz-adv-x="583" 
d="M40 0l98 697h461l-13 -91h-359l-28 -204h328l-13 -91h-328l-31 -220h359l-13 -91h-461zM221 749l176 166l131 -166h-78l-61 82l-85 -82h-83z" />
    <glyph glyph-name="Edieresis" unicode="&#xcb;" horiz-adv-x="583" 
d="M40 0l98 697h461l-13 -91h-359l-28 -204h328l-13 -91h-328l-31 -220h359l-13 -91h-461zM418 782l18 119h108l-18 -119h-108zM236 782l17 119h107l-16 -119h-108z" />
    <glyph glyph-name="Igrave" unicode="&#xcc;" horiz-adv-x="252" 
d="M40 0l98 697h102l-98 -697h-102zM157 760l-126 141h102l96 -141h-72z" />
    <glyph glyph-name="Iacute" unicode="&#xcd;" horiz-adv-x="252" 
d="M40 0l98 697h102l-98 -697h-102zM156 760l112 141h105l-146 -141h-71z" />
    <glyph glyph-name="Icircumflex" unicode="&#xce;" horiz-adv-x="252" 
d="M40 0l98 697h102l-98 -697h-102zM49 749l171 166l125 -166h-74l-60 82l-82 -82h-80z" />
    <glyph glyph-name="Idieresis" unicode="&#xcf;" horiz-adv-x="252" 
d="M40 0l98 697h102l-98 -697h-102zM239 782l18 119h108l-18 -119h-108zM57 782l17 119h107l-16 -119h-108z" />
    <glyph glyph-name="Eth" unicode="&#xd0;" horiz-adv-x="679" 
d="M40 0l98 697h194q153 0 235 -75t82 -213q0 -88 -25 -162.5t-76 -130t-128 -86t-181 -30.5h-199zM156 94h80q95 0 155.5 28.5t95 74.5t48 102.5t13.5 111.5q0 69 -26.5 111t-77 61.5t-121.5 19.5h-96zM12 317l9 66h288l-10 -66h-287z" />
    <glyph glyph-name="Ntilde" unicode="&#xd1;" horiz-adv-x="680" 
d="M40 0l98 697h105l267 -565h-23l80 565h101l-98 -697h-107l-265 566h23l-79 -566h-102zM477 743q-25 0 -40.5 7.5t-25.5 19t-18 23t-16.5 19.5t-21.5 8q-20 0 -35 -19.5t-20 -54.5l-56 5q8 60 38.5 92t74.5 32q23 0 37 -8t24.5 -20t18.5 -23.5t17 -19.5t21 -8
q18 0 33 21.5t20 55.5l59 -4q-8 -61 -38 -93.5t-72 -32.5z" />
    <glyph glyph-name="Ograve" unicode="&#xd2;" horiz-adv-x="748" 
d="M341 -13q-88 0 -152 36.5t-98.5 104t-34.5 158.5q0 81 25.5 157t74 136.5t118.5 95.5t158 35q89 0 153 -36.5t99 -103.5t35 -159q0 -83 -26 -159t-75 -135.5t-119 -94.5t-158 -35zM346 84q65 0 115 26.5t85 72.5t53 103.5t18 120.5q0 95 -50 150.5t-139 55.5
q-66 0 -116.5 -27t-84.5 -73.5t-52 -104t-18 -118.5q0 -64 22 -110.5t64.5 -71t102.5 -24.5zM403 760l-126 141h102l96 -141h-72z" />
    <glyph glyph-name="Oacute" unicode="&#xd3;" horiz-adv-x="748" 
d="M341 -13q-88 0 -152 36.5t-98.5 104t-34.5 158.5q0 81 25.5 157t74 136.5t118.5 95.5t158 35q89 0 153 -36.5t99 -103.5t35 -159q0 -83 -26 -159t-75 -135.5t-119 -94.5t-158 -35zM346 84q65 0 115 26.5t85 72.5t53 103.5t18 120.5q0 95 -50 150.5t-139 55.5
q-66 0 -116.5 -27t-84.5 -73.5t-52 -104t-18 -118.5q0 -64 22 -110.5t64.5 -71t102.5 -24.5zM402 760l112 141h105l-146 -141h-71z" />
    <glyph glyph-name="Ocircumflex" unicode="&#xd4;" horiz-adv-x="748" 
d="M341 -13q-88 0 -152 36.5t-98.5 104t-34.5 158.5q0 81 25.5 157t74 136.5t118.5 95.5t158 35q89 0 153 -36.5t99 -103.5t35 -159q0 -83 -26 -159t-75 -135.5t-119 -94.5t-158 -35zM346 84q65 0 115 26.5t85 72.5t53 103.5t18 120.5q0 95 -50 150.5t-139 55.5
q-66 0 -116.5 -27t-84.5 -73.5t-52 -104t-18 -118.5q0 -64 22 -110.5t64.5 -71t102.5 -24.5zM289 749l176 166l131 -166h-78l-61 82l-85 -82h-83z" />
    <glyph glyph-name="Otilde" unicode="&#xd5;" horiz-adv-x="748" 
d="M341 -13q-88 0 -152 36.5t-98.5 104t-34.5 158.5q0 81 25.5 157t74 136.5t118.5 95.5t158 35q89 0 153 -36.5t99 -103.5t35 -159q0 -83 -26 -159t-75 -135.5t-119 -94.5t-158 -35zM346 84q65 0 115 26.5t85 72.5t53 103.5t18 120.5q0 95 -50 150.5t-139 55.5
q-66 0 -116.5 -27t-84.5 -73.5t-52 -104t-18 -118.5q0 -64 22 -110.5t64.5 -71t102.5 -24.5zM512 743q-25 0 -40.5 7.5t-25.5 19t-18 23t-16.5 19.5t-21.5 8q-20 0 -35 -19.5t-20 -54.5l-56 5q8 60 38.5 92t74.5 32q23 0 37 -8t24.5 -20t18.5 -23.5t17 -19.5t21 -8
q18 0 33 21.5t20 55.5l59 -4q-8 -61 -38 -93.5t-72 -32.5z" />
    <glyph glyph-name="Odieresis" unicode="&#xd6;" horiz-adv-x="748" 
d="M341 -13q-88 0 -152 36.5t-98.5 104t-34.5 158.5q0 81 25.5 157t74 136.5t118.5 95.5t158 35q89 0 153 -36.5t99 -103.5t35 -159q0 -83 -26 -159t-75 -135.5t-119 -94.5t-158 -35zM346 84q65 0 115 26.5t85 72.5t53 103.5t18 120.5q0 95 -50 150.5t-139 55.5
q-66 0 -116.5 -27t-84.5 -73.5t-52 -104t-18 -118.5q0 -64 22 -110.5t64.5 -71t102.5 -24.5zM485 782l18 119h108l-18 -119h-108zM303 782l17 119h107l-16 -119h-108z" />
    <glyph glyph-name="multiply" unicode="&#xd7;" horiz-adv-x="560" 
d="M129 36l-60 60l150 150l-150 151l60 61l149 -151l152 151l60 -61l-150 -151l150 -150l-60 -60l-152 150z" />
    <glyph glyph-name="Oslash" unicode="&#xd8;" horiz-adv-x="748" 
d="M341 -13q-88 0 -152 36.5t-98.5 104t-34.5 158.5q0 81 25.5 157t74 136.5t118.5 95.5t158 35q89 0 153 -36.5t99 -103.5t35 -159q0 -83 -26 -159t-75 -135.5t-119 -94.5t-158 -35zM346 84q65 0 115 26.5t85 72.5t53 103.5t18 120.5q0 95 -50 150.5t-139 55.5
q-66 0 -116.5 -27t-84.5 -73.5t-52 -104t-18 -118.5q0 -64 22 -110.5t64.5 -71t102.5 -24.5zM49 0l605 697h70l-605 -697h-70z" />
    <glyph glyph-name="Ugrave" unicode="&#xd9;" horiz-adv-x="656" 
d="M296 -13q-114 0 -172.5 53t-58.5 156q0 12 1 27.5t3 30.5l62 443h102l-61 -437q-2 -15 -3 -30t-1 -26q0 -61 30 -92.5t100 -31.5q60 0 99 22t61 63.5t31 100.5l60 431h101l-62 -442q-19 -135 -92.5 -201.5t-199.5 -66.5zM358 760l-126 141h102l96 -141h-72z" />
    <glyph glyph-name="Uacute" unicode="&#xda;" horiz-adv-x="656" 
d="M296 -13q-114 0 -172.5 53t-58.5 156q0 12 1 27.5t3 30.5l62 443h102l-61 -437q-2 -15 -3 -30t-1 -26q0 -61 30 -92.5t100 -31.5q60 0 99 22t61 63.5t31 100.5l60 431h101l-62 -442q-19 -135 -92.5 -201.5t-199.5 -66.5zM357 760l112 141h105l-146 -141h-71z" />
    <glyph glyph-name="Ucircumflex" unicode="&#xdb;" horiz-adv-x="656" 
d="M296 -13q-114 0 -172.5 53t-58.5 156q0 12 1 27.5t3 30.5l62 443h102l-61 -437q-2 -15 -3 -30t-1 -26q0 -61 30 -92.5t100 -31.5q60 0 99 22t61 63.5t31 100.5l60 431h101l-62 -442q-19 -135 -92.5 -201.5t-199.5 -66.5zM244 749l176 166l131 -166h-78l-61 82l-85 -82
h-83z" />
    <glyph glyph-name="Udieresis" unicode="&#xdc;" horiz-adv-x="656" 
d="M296 -13q-114 0 -172.5 53t-58.5 156q0 12 1 27.5t3 30.5l62 443h102l-61 -437q-2 -15 -3 -30t-1 -26q0 -61 30 -92.5t100 -31.5q60 0 99 22t61 63.5t31 100.5l60 431h101l-62 -442q-19 -135 -92.5 -201.5t-199.5 -66.5zM440 782l18 119h108l-18 -119h-108zM258 782
l17 119h107l-16 -119h-108z" />
    <glyph glyph-name="Yacute" unicode="&#xdd;" horiz-adv-x="610" 
d="M220 0l38 270l-185 427h114l131 -325l228 325h118l-304 -427l-38 -270h-102zM335 760l112 141h105l-146 -141h-71z" />
    <glyph glyph-name="Thorn" unicode="&#xde;" horiz-adv-x="626" 
d="M88 0l98 697h93l-14 -98h130q91 0 141.5 -43.5t50.5 -122.5v-16.5t-2 -19.5q-13 -93 -82 -144.5t-181 -51.5h-113l-28 -201h-93zM221 285h107q68 0 112 30.5t53 90.5q1 6 1 11.5v10.5q0 46 -33 68.5t-94 22.5h-113z" />
    <glyph glyph-name="germandbls" unicode="&#xdf;" horiz-adv-x="640" 
d="M390 -9q-52 0 -92.5 19t-66 50t-32.5 68l80 30q6 -23 19 -42.5t36 -31t56 -11.5q44 0 74 22.5t30 56.5q0 21 -13 33.5t-35 20.5t-47 14q-33 10 -65.5 22.5t-53.5 37.5t-21 69q0 57 39 90.5t106 55.5q24 7 43 15t30.5 19t11.5 27q0 29 -30 43.5t-70 14.5
q-62 0 -98.5 -17.5t-55.5 -43.5t-26.5 -54t-10.5 -50l-63 -449h-102l65 455q6 48 22.5 92.5t48 80.5t84 56.5t130.5 20.5q91 0 147 -34.5t56 -99.5q0 -38 -13 -63t-34.5 -42.5t-47 -28t-48.5 -19.5q-23 -8 -43.5 -16.5t-32.5 -19.5t-12 -29t10.5 -28t29.5 -14.5t42 -11.5
q25 -6 52 -14.5t50 -23.5t37.5 -39.5t14.5 -63.5q0 -54 -29 -91.5t-75.5 -56.5t-96.5 -19z" />
    <glyph glyph-name="agrave" unicode="&#xe0;" horiz-adv-x="584" 
d="M235 -9q-59 0 -102 27.5t-66 75.5t-23 110q0 58 18.5 111t52.5 95.5t80.5 67t102.5 24.5q46 0 80.5 -17.5t56 -48.5t24.5 -74l-26 -11l22 142h94l-69 -493h-95l17 142l27 -12q-19 -49 -48.5 -79t-66 -45t-79.5 -15zM258 81q40 0 72 18t54 47t33.5 65t11.5 74
q0 39 -13.5 67.5t-39 44t-62.5 15.5q-40 0 -72 -17.5t-54.5 -46.5t-34.5 -65t-12 -74q0 -39 14.5 -68t40.5 -44.5t62 -15.5zM294 556l-126 141h102l96 -141h-72z" />
    <glyph glyph-name="aacute" unicode="&#xe1;" horiz-adv-x="584" 
d="M235 -9q-59 0 -102 27.5t-66 75.5t-23 110q0 58 18.5 111t52.5 95.5t80.5 67t102.5 24.5q46 0 80.5 -17.5t56 -48.5t24.5 -74l-26 -11l22 142h94l-69 -493h-95l17 142l27 -12q-19 -49 -48.5 -79t-66 -45t-79.5 -15zM258 81q40 0 72 18t54 47t33.5 65t11.5 74
q0 39 -13.5 67.5t-39 44t-62.5 15.5q-40 0 -72 -17.5t-54.5 -46.5t-34.5 -65t-12 -74q0 -39 14.5 -68t40.5 -44.5t62 -15.5zM293 556l112 141h105l-146 -141h-71z" />
    <glyph glyph-name="acircumflex" unicode="&#xe2;" horiz-adv-x="584" 
d="M235 -9q-59 0 -102 27.5t-66 75.5t-23 110q0 58 18.5 111t52.5 95.5t80.5 67t102.5 24.5q46 0 80.5 -17.5t56 -48.5t24.5 -74l-26 -11l22 142h94l-69 -493h-95l17 142l27 -12q-19 -49 -48.5 -79t-66 -45t-79.5 -15zM258 81q40 0 72 18t54 47t33.5 65t11.5 74
q0 39 -13.5 67.5t-39 44t-62.5 15.5q-40 0 -72 -17.5t-54.5 -46.5t-34.5 -65t-12 -74q0 -39 14.5 -68t40.5 -44.5t62 -15.5zM186 545l171 166l125 -166h-74l-60 82l-82 -82h-80z" />
    <glyph glyph-name="atilde" unicode="&#xe3;" horiz-adv-x="584" 
d="M235 -9q-59 0 -102 27.5t-66 75.5t-23 110q0 58 18.5 111t52.5 95.5t80.5 67t102.5 24.5q46 0 80.5 -17.5t56 -48.5t24.5 -74l-26 -11l22 142h94l-69 -493h-95l17 142l27 -12q-19 -49 -48.5 -79t-66 -45t-79.5 -15zM258 81q40 0 72 18t54 47t33.5 65t11.5 74
q0 39 -13.5 67.5t-39 44t-62.5 15.5q-40 0 -72 -17.5t-54.5 -46.5t-34.5 -65t-12 -74q0 -39 14.5 -68t40.5 -44.5t62 -15.5zM410 563q-35 0 -51 15t-29 33q-9 13 -18 20.5t-20 7.5q-19 0 -34 -20.5t-21 -54.5l-55 7q11 64 41 97t73 33q30 0 45.5 -15t26.5 -31
q9 -13 18 -22.5t23 -9.5q17 0 32.5 21.5t21.5 55.5l56 -6q-10 -64 -39.5 -97.5t-69.5 -33.5z" />
    <glyph glyph-name="adieresis" unicode="&#xe4;" horiz-adv-x="584" 
d="M235 -9q-59 0 -102 27.5t-66 75.5t-23 110q0 58 18.5 111t52.5 95.5t80.5 67t102.5 24.5q46 0 80.5 -17.5t56 -48.5t24.5 -74l-26 -11l22 142h94l-69 -493h-95l17 142l27 -12q-19 -49 -48.5 -79t-66 -45t-79.5 -15zM258 81q40 0 72 18t54 47t33.5 65t11.5 74
q0 39 -13.5 67.5t-39 44t-62.5 15.5q-40 0 -72 -17.5t-54.5 -46.5t-34.5 -65t-12 -74q0 -39 14.5 -68t40.5 -44.5t62 -15.5zM376 578l18 119h108l-18 -119h-108zM194 578l17 119h107l-16 -119h-108z" />
    <glyph glyph-name="aring" unicode="&#xe5;" horiz-adv-x="584" 
d="M235 -9q-59 0 -102 27.5t-66 75.5t-23 110q0 58 18.5 111t52.5 95.5t80.5 67t102.5 24.5q46 0 80.5 -17.5t56 -48.5t24.5 -74l-26 -11l22 142h94l-69 -493h-95l17 142l27 -12q-19 -49 -48.5 -79t-66 -45t-79.5 -15zM258 81q40 0 72 18t54 47t33.5 65t11.5 74
q0 39 -13.5 67.5t-39 44t-62.5 15.5q-40 0 -72 -17.5t-54.5 -46.5t-34.5 -65t-12 -74q0 -39 14.5 -68t40.5 -44.5t62 -15.5zM340 535q-42 0 -69 26.5t-27 66.5q0 32 16.5 58t43.5 42t59 16q39 0 67 -26.5t28 -67.5q0 -31 -16.5 -57.5t-43.5 -42t-58 -15.5zM346 587
q24 0 41 18t17 40q0 20 -13.5 33.5t-33.5 13.5q-24 0 -41 -17.5t-17 -40.5q0 -19 12.5 -33t34.5 -14z" />
    <glyph glyph-name="ae" unicode="&#xe6;" horiz-adv-x="869" 
d="M201 -9q-48 0 -86.5 16.5t-60.5 48.5t-22 78q0 52 27 86.5t80 51.5t130 17h122l3 23q6 35 -4 58.5t-33 35t-57 11.5q-39 0 -77.5 -16t-72.5 -54l-67 63q55 52 110.5 72t114.5 20q67 0 106.5 -24t52.5 -67q34 44 77 66t98 22q65 0 106 -25.5t60.5 -68.5t19.5 -96
q0 -24 -3.5 -48.5t-9.5 -48.5h-342q-1 -7 -0.5 -9.5t0.5 -6.5q2 -57 27 -86t83 -29q39 0 72 13.5t63 42.5l67 -63q-46 -43 -93.5 -63t-107.5 -20q-73 0 -113.5 30.5t-57.5 89.5h-11q-27 -43 -58.5 -69.5t-67.5 -38.5t-75 -12zM217 73q37 0 71.5 15.5t59.5 47t33 77.5l7 43
l28 -37h-146q-47 0 -78 -9t-45.5 -27t-14.5 -44q0 -32 23 -49t62 -17zM736 277q2 8 2.5 16.5t0.5 16.5q0 28 -10.5 53t-33.5 40t-59 15q-44 0 -76 -19.5t-51.5 -49.5t-26.5 -64l269 4z" />
    <glyph glyph-name="ccedilla" unicode="&#xe7;" horiz-adv-x="520" 
d="M248 -9q-69 0 -114.5 29t-68 78t-22.5 109q0 57 18 109.5t53 94.5t84 66.5t110 24.5q73 0 122.5 -36.5t65.5 -107.5l-88 -28q-8 40 -32.5 63.5t-68.5 23.5q-41 0 -72 -19t-52.5 -50t-32.5 -68t-11 -74q0 -35 11.5 -64.5t36 -47t62.5 -17.5q49 0 82.5 25.5t51.5 66.5
l83 -40q-36 -71 -93 -104.5t-125 -33.5zM224 -258q-19 0 -44 9.5t-42 29.5l34 47q9 -12 23.5 -20.5t30.5 -8.5q23 0 37 12t14 36q0 19 -10 30.5t-27 17t-36.5 8t-37.5 2.5l63 104h60l-46 -65q25 -5 46.5 -16t34 -30.5t12.5 -47.5q0 -47 -31 -77.5t-81 -30.5z" />
    <glyph glyph-name="egrave" unicode="&#xe8;" horiz-adv-x="542" 
d="M251 -9q-72 0 -118 28.5t-68 76t-22 104.5q0 56 17 109.5t50.5 97t82.5 69.5t111 26q68 0 111 -27.5t63.5 -72.5t20.5 -100q0 -21 -3 -45.5t-8 -44.5h-349q-1 -6 -1 -12t1 -11q1 -53 31.5 -81.5t84.5 -28.5q42 0 76.5 14t66.5 42l57 -66q-46 -39 -95 -58.5t-109 -19.5z
M407 267q2 16 3 26t1 25q0 26 -11 49.5t-34 38.5t-61 15q-42 0 -74.5 -19.5t-53 -50t-29.5 -65.5h290zM276 556l-126 141h102l96 -141h-72z" />
    <glyph glyph-name="eacute" unicode="&#xe9;" horiz-adv-x="542" 
d="M251 -9q-72 0 -118 28.5t-68 76t-22 104.5q0 56 17 109.5t50.5 97t82.5 69.5t111 26q68 0 111 -27.5t63.5 -72.5t20.5 -100q0 -21 -3 -45.5t-8 -44.5h-349q-1 -6 -1 -12t1 -11q1 -53 31.5 -81.5t84.5 -28.5q42 0 76.5 14t66.5 42l57 -66q-46 -39 -95 -58.5t-109 -19.5z
M407 267q2 16 3 26t1 25q0 26 -11 49.5t-34 38.5t-61 15q-42 0 -74.5 -19.5t-53 -50t-29.5 -65.5h290zM274 556l112 141h105l-146 -141h-71z" />
    <glyph glyph-name="ecircumflex" unicode="&#xea;" horiz-adv-x="542" 
d="M251 -9q-72 0 -118 28.5t-68 76t-22 104.5q0 56 17 109.5t50.5 97t82.5 69.5t111 26q68 0 111 -27.5t63.5 -72.5t20.5 -100q0 -21 -3 -45.5t-8 -44.5h-349q-1 -6 -1 -12t1 -11q1 -53 31.5 -81.5t84.5 -28.5q42 0 76.5 14t66.5 42l57 -66q-46 -39 -95 -58.5t-109 -19.5z
M407 267q2 16 3 26t1 25q0 26 -11 49.5t-34 38.5t-61 15q-42 0 -74.5 -19.5t-53 -50t-29.5 -65.5h290zM168 545l171 166l125 -166h-74l-60 82l-82 -82h-80z" />
    <glyph glyph-name="edieresis" unicode="&#xeb;" horiz-adv-x="542" 
d="M251 -9q-72 0 -118 28.5t-68 76t-22 104.5q0 56 17 109.5t50.5 97t82.5 69.5t111 26q68 0 111 -27.5t63.5 -72.5t20.5 -100q0 -21 -3 -45.5t-8 -44.5h-349q-1 -6 -1 -12t1 -11q1 -53 31.5 -81.5t84.5 -28.5q42 0 76.5 14t66.5 42l57 -66q-46 -39 -95 -58.5t-109 -19.5z
M407 267q2 16 3 26t1 25q0 26 -11 49.5t-34 38.5t-61 15q-42 0 -74.5 -19.5t-53 -50t-29.5 -65.5h290zM357 578l18 119h108l-18 -119h-108zM175 578l17 119h107l-16 -119h-108z" />
    <glyph glyph-name="igrave" unicode="&#xec;" horiz-adv-x="232" 
d="M32 0l69 493h99l-70 -493h-98zM118 556l-126 141h102l96 -141h-72z" />
    <glyph glyph-name="iacute" unicode="&#xed;" horiz-adv-x="232" 
d="M32 0l69 493h99l-70 -493h-98zM117 556l112 141h105l-146 -141h-71z" />
    <glyph glyph-name="icircumflex" unicode="&#xee;" horiz-adv-x="232" 
d="M32 0l69 493h99l-70 -493h-98zM10 545l171 166l125 -166h-74l-60 82l-82 -82h-80z" />
    <glyph glyph-name="idieresis" unicode="&#xef;" horiz-adv-x="232" 
d="M32 0l69 493h99l-70 -493h-98zM200 578l18 119h108l-18 -119h-108zM18 578l17 119h107l-16 -119h-108z" />
    <glyph glyph-name="eth" unicode="&#xf0;" horiz-adv-x="613" 
d="M251 -9q-95 0 -147.5 53.5t-52.5 136.5q0 59 23 115.5t65 101.5t97.5 71.5t121.5 26.5q32 0 57 -9t44.5 -25.5t31.5 -37.5q6 -11 9.5 -23.5t4.5 -25.5q5 24 7.5 46t2.5 42q0 62 -25 105t-77 66.5t-136 25.5l11 66q114 -7 181.5 -40t96.5 -91t29 -139q0 -83 -21 -165
t-63.5 -150t-107 -109t-152.5 -41zM258 76q46 0 86.5 20t70.5 52.5t47 72.5t17 80q0 29 -11 55t-35.5 42.5t-64.5 16.5q-53 0 -95 -20.5t-71 -54.5t-44 -74t-15 -80q0 -54 32.5 -82t82.5 -28zM297 537l-5 41l351 95l6 -41z" />
    <glyph glyph-name="ntilde" unicode="&#xf1;" horiz-adv-x="553" 
d="M33 0l70 493h96l-14 -107l-20 2q19 41 47 65.5t62.5 36.5t71.5 12q74 0 115 -38.5t41 -110.5q0 -11 -0.5 -20.5t-2.5 -19.5l-44 -313h-98l40 282q2 12 2.5 22t0.5 21q0 48 -21 70t-62 22q-62 0 -100 -43.5t-52 -133.5l-33 -240h-99zM388 563q-35 0 -51 15t-29 33
q-9 13 -18 20.5t-20 7.5q-19 0 -34 -20.5t-21 -54.5l-55 7q11 64 41 97t73 33q30 0 45.5 -15t26.5 -31q9 -13 18 -22.5t23 -9.5q17 0 32.5 21.5t21.5 55.5l56 -6q-10 -64 -39.5 -97.5t-69.5 -33.5z" />
    <glyph glyph-name="ograve" unicode="&#xf2;" horiz-adv-x="575" 
d="M256 -9q-64 0 -112 28t-75 77t-27 114q0 58 20 110.5t57 93t87.5 64.5t111.5 24q65 0 112.5 -27.5t74 -76t26.5 -113.5q0 -59 -20.5 -112t-57.5 -94t-87 -64.5t-110 -23.5zM260 78q42 0 74 17.5t54.5 47t34.5 66.5t12 76q0 59 -31.5 95t-89.5 36q-43 0 -76 -18t-55 -48.5
t-33.5 -66.5t-11.5 -74q0 -59 32 -95t90 -36zM288 556l-126 141h102l96 -141h-72z" />
    <glyph glyph-name="oacute" unicode="&#xf3;" horiz-adv-x="575" 
d="M256 -9q-64 0 -112 28t-75 77t-27 114q0 58 20 110.5t57 93t87.5 64.5t111.5 24q65 0 112.5 -27.5t74 -76t26.5 -113.5q0 -59 -20.5 -112t-57.5 -94t-87 -64.5t-110 -23.5zM260 78q42 0 74 17.5t54.5 47t34.5 66.5t12 76q0 59 -31.5 95t-89.5 36q-43 0 -76 -18t-55 -48.5
t-33.5 -66.5t-11.5 -74q0 -59 32 -95t90 -36zM287 556l112 141h105l-146 -141h-71z" />
    <glyph glyph-name="ocircumflex" unicode="&#xf4;" horiz-adv-x="575" 
d="M256 -9q-64 0 -112 28t-75 77t-27 114q0 58 20 110.5t57 93t87.5 64.5t111.5 24q65 0 112.5 -27.5t74 -76t26.5 -113.5q0 -59 -20.5 -112t-57.5 -94t-87 -64.5t-110 -23.5zM260 78q42 0 74 17.5t54.5 47t34.5 66.5t12 76q0 59 -31.5 95t-89.5 36q-43 0 -76 -18t-55 -48.5
t-33.5 -66.5t-11.5 -74q0 -59 32 -95t90 -36zM181 545l171 166l125 -166h-74l-60 82l-82 -82h-80z" />
    <glyph glyph-name="otilde" unicode="&#xf5;" horiz-adv-x="575" 
d="M256 -9q-64 0 -112 28t-75 77t-27 114q0 58 20 110.5t57 93t87.5 64.5t111.5 24q65 0 112.5 -27.5t74 -76t26.5 -113.5q0 -59 -20.5 -112t-57.5 -94t-87 -64.5t-110 -23.5zM260 78q42 0 74 17.5t54.5 47t34.5 66.5t12 76q0 59 -31.5 95t-89.5 36q-43 0 -76 -18t-55 -48.5
t-33.5 -66.5t-11.5 -74q0 -59 32 -95t90 -36zM404 563q-35 0 -51 15t-29 33q-9 13 -18 20.5t-20 7.5q-19 0 -34 -20.5t-21 -54.5l-55 7q11 64 41 97t73 33q30 0 45.5 -15t26.5 -31q9 -13 18 -22.5t23 -9.5q17 0 32.5 21.5t21.5 55.5l56 -6q-10 -64 -39.5 -97.5t-69.5 -33.5z
" />
    <glyph glyph-name="odieresis" unicode="&#xf6;" horiz-adv-x="575" 
d="M256 -9q-64 0 -112 28t-75 77t-27 114q0 58 20 110.5t57 93t87.5 64.5t111.5 24q65 0 112.5 -27.5t74 -76t26.5 -113.5q0 -59 -20.5 -112t-57.5 -94t-87 -64.5t-110 -23.5zM260 78q42 0 74 17.5t54.5 47t34.5 66.5t12 76q0 59 -31.5 95t-89.5 36q-43 0 -76 -18t-55 -48.5
t-33.5 -66.5t-11.5 -74q0 -59 32 -95t90 -36zM370 578l18 119h108l-18 -119h-108zM188 578l17 119h107l-16 -119h-108z" />
    <glyph glyph-name="divide" unicode="&#xf7;" horiz-adv-x="560" 
d="M62 209v77h436v-77h-436zM223 25v123h114v-123h-114zM223 347v122h114v-122h-114z" />
    <glyph glyph-name="oslash" unicode="&#xf8;" horiz-adv-x="575" 
d="M256 -9q-64 0 -112 28t-75 77t-27 114q0 58 20 110.5t57 93t87.5 64.5t111.5 24q65 0 112.5 -27.5t74 -76t26.5 -113.5q0 -59 -20.5 -112t-57.5 -94t-87 -64.5t-110 -23.5zM260 78q42 0 74 17.5t54.5 47t34.5 66.5t12 76q0 59 -31.5 95t-89.5 36q-43 0 -76 -18t-55 -48.5
t-33.5 -66.5t-11.5 -74q0 -59 32 -95t90 -36zM67 -46l390 585h50l-390 -585h-50z" />
    <glyph glyph-name="ugrave" unicode="&#xf9;" horiz-adv-x="553" 
d="M206 -9q-76 0 -115.5 39.5t-39.5 112.5q0 11 1 21t2 21l42 308h99l-40 -283q-1 -11 -2 -21t-1 -21q0 -47 20.5 -69t62.5 -22q44 0 74.5 21.5t50.5 64t28 104.5l32 226h98l-70 -493h-95l13 106l20 -6q-29 -57 -76.5 -83t-103.5 -26zM273 556l-126 141h102l96 -141h-72z
" />
    <glyph glyph-name="uacute" unicode="&#xfa;" horiz-adv-x="553" 
d="M206 -9q-76 0 -115.5 39.5t-39.5 112.5q0 11 1 21t2 21l42 308h99l-40 -283q-1 -11 -2 -21t-1 -21q0 -47 20.5 -69t62.5 -22q44 0 74.5 21.5t50.5 64t28 104.5l32 226h98l-70 -493h-95l13 106l20 -6q-29 -57 -76.5 -83t-103.5 -26zM272 556l112 141h105l-146 -141h-71z
" />
    <glyph glyph-name="ucircumflex" unicode="&#xfb;" horiz-adv-x="553" 
d="M206 -9q-76 0 -115.5 39.5t-39.5 112.5q0 11 1 21t2 21l42 308h99l-40 -283q-1 -11 -2 -21t-1 -21q0 -47 20.5 -69t62.5 -22q44 0 74.5 21.5t50.5 64t28 104.5l32 226h98l-70 -493h-95l13 106l20 -6q-29 -57 -76.5 -83t-103.5 -26zM165 545l171 166l125 -166h-74l-60 82
l-82 -82h-80z" />
    <glyph glyph-name="udieresis" unicode="&#xfc;" horiz-adv-x="553" 
d="M206 -9q-76 0 -115.5 39.5t-39.5 112.5q0 11 1 21t2 21l42 308h99l-40 -283q-1 -11 -2 -21t-1 -21q0 -47 20.5 -69t62.5 -22q44 0 74.5 21.5t50.5 64t28 104.5l32 226h98l-70 -493h-95l13 106l20 -6q-29 -57 -76.5 -83t-103.5 -26zM355 578l18 119h108l-18 -119h-108z
M173 578l17 119h107l-16 -119h-108z" />
    <glyph glyph-name="yacute" unicode="&#xfd;" horiz-adv-x="526" 
d="M50 -203l130 232l-124 464h106l82 -366l188 366h108l-381 -696h-109zM263 556l112 141h105l-146 -141h-71z" />
    <glyph glyph-name="thorn" unicode="&#xfe;" horiz-adv-x="622" 
d="M36 -204l126 901h98l-48 -345l-17 24q18 43 49.5 70.5t69 41.5t75.5 14q58 0 96.5 -27t58.5 -74t20 -107q0 -56 -16 -110t-46.5 -97.5t-74.5 -69.5t-100 -26q-41 0 -76.5 16.5t-59 45t-29.5 65.5l19 24l-48 -346h-97zM302 77q44 0 75 19.5t51 51.5t29.5 70t9.5 75
q0 57 -26 90t-81 33q-42 0 -75 -18.5t-55.5 -49t-34 -68t-11.5 -74.5t13 -66.5t40 -46t65 -16.5z" />
    <glyph glyph-name="ydieresis" unicode="&#xff;" horiz-adv-x="526" 
d="M50 -203l130 232l-124 464h106l82 -366l188 366h108l-381 -696h-109zM346 578l18 119h108l-18 -119h-108zM164 578l17 119h107l-16 -119h-108z" />
    <glyph glyph-name="Amacron" unicode="&#x100;" horiz-adv-x="649" 
d="M-21 0l368 697h80l171 -697h-108l-121 549l-277 -549h-113zM160 155l45 91h237l21 -91h-303zM270 784l11 59h264l-11 -59h-264z" />
    <glyph glyph-name="amacron" unicode="&#x101;" horiz-adv-x="584" 
d="M235 -9q-59 0 -102 27.5t-66 75.5t-23 110q0 58 18.5 111t52.5 95.5t80.5 67t102.5 24.5q46 0 80.5 -17.5t56 -48.5t24.5 -74l-26 -11l22 142h94l-69 -493h-95l17 142l27 -12q-19 -49 -48.5 -79t-66 -45t-79.5 -15zM258 81q40 0 72 18t54 47t33.5 65t11.5 74
q0 39 -13.5 67.5t-39 44t-62.5 15.5q-40 0 -72 -17.5t-54.5 -46.5t-34.5 -65t-12 -74q0 -39 14.5 -68t40.5 -44.5t62 -15.5zM209 580l11 59h264l-11 -59h-264z" />
    <glyph glyph-name="Abreve" unicode="&#x102;" horiz-adv-x="649" 
d="M-21 0l368 697h80l171 -697h-108l-121 549l-277 -549h-113zM160 155l45 91h237l21 -91h-303zM393 739q-39 0 -71.5 13.5t-50 42.5t-12.5 74h62q-4 -35 18 -54t66 -19q38 0 66 16.5t32 56.5h62q-12 -74 -57.5 -102t-114.5 -28z" />
    <glyph glyph-name="abreve" unicode="&#x103;" horiz-adv-x="584" 
d="M235 -9q-59 0 -102 27.5t-66 75.5t-23 110q0 58 18.5 111t52.5 95.5t80.5 67t102.5 24.5q46 0 80.5 -17.5t56 -48.5t24.5 -74l-26 -11l22 142h94l-69 -493h-95l17 142l27 -12q-19 -49 -48.5 -79t-66 -45t-79.5 -15zM258 81q40 0 72 18t54 47t33.5 65t11.5 74
q0 39 -13.5 67.5t-39 44t-62.5 15.5q-40 0 -72 -17.5t-54.5 -46.5t-34.5 -65t-12 -74q0 -39 14.5 -68t40.5 -44.5t62 -15.5zM336 553q-64 0 -106 28t-45 86q-1 3 -0.5 10t1.5 20h58q-1 -6 -1 -12t1 -11q3 -30 25.5 -47t67.5 -17q47 0 70 23.5t28 63.5h60q-9 -72 -50.5 -108
t-108.5 -36z" />
    <glyph glyph-name="Aogonek" unicode="&#x104;" horiz-adv-x="649" 
d="M-21 0l368 697h80l171 -697h-108l-121 549l-277 -549h-113zM160 155l45 91h237l21 -91h-303zM528 -218q-44 0 -74 25t-30 67q0 32 13.5 56t33.5 42.5t39 29.5l77 -2q-14 -7 -31 -18.5t-34 -26.5t-28 -33t-11 -38q0 -22 13 -31.5t30 -9.5q13 0 26 4.5t24 13.5l35 -49
q-17 -13 -37.5 -21.5t-45.5 -8.5z" />
    <glyph glyph-name="aogonek" unicode="&#x105;" horiz-adv-x="584" 
d="M235 -9q-59 0 -102 27.5t-66 75.5t-23 110q0 58 18.5 111t52.5 95.5t80.5 67t102.5 24.5q46 0 80.5 -17.5t56 -48.5t24.5 -74l-26 -11l22 142h94l-69 -493h-95l17 142l27 -12q-19 -49 -48.5 -79t-66 -45t-79.5 -15zM258 81q40 0 72 18t54 47t33.5 65t11.5 74
q0 39 -13.5 67.5t-39 44t-62.5 15.5q-40 0 -72 -17.5t-54.5 -46.5t-34.5 -65t-12 -74q0 -39 14.5 -68t40.5 -44.5t62 -15.5zM421 -218q-44 0 -74 25t-30 67q0 32 13.5 56t33.5 42.5t39 29.5l77 -2q-14 -7 -31 -18.5t-34 -26.5t-28 -33t-11 -38q0 -22 13 -31.5t30 -9.5
q13 0 26 4.5t24 13.5l35 -49q-17 -13 -37.5 -21.5t-45.5 -8.5z" />
    <glyph glyph-name="Cacute" unicode="&#x106;" horiz-adv-x="705" 
d="M340 -13q-67 0 -120 21.5t-89.5 61.5t-55.5 95t-19 121q0 82 25.5 157.5t74 135.5t118 95.5t157.5 35.5q109 0 180.5 -54.5t93.5 -148.5l-98 -30q-15 66 -62.5 101t-118.5 35q-66 0 -116 -27.5t-84.5 -73t-52 -103t-17.5 -119.5q0 -96 49.5 -151t139.5 -55q76 0 133.5 38
t90.5 103l92 -41q-47 -92 -131 -144.5t-190 -52.5zM388 760l112 141h105l-146 -141h-71z" />
    <glyph glyph-name="cacute" unicode="&#x107;" horiz-adv-x="520" 
d="M248 -9q-69 0 -114.5 29t-68 78t-22.5 109q0 57 18 109.5t53 94.5t84 66.5t110 24.5q73 0 122.5 -36.5t65.5 -107.5l-88 -28q-8 40 -32.5 63.5t-68.5 23.5q-41 0 -72 -19t-52.5 -50t-32.5 -68t-11 -74q0 -35 11.5 -64.5t36 -47t62.5 -17.5q49 0 82.5 25.5t51.5 66.5
l83 -40q-36 -71 -93 -104.5t-125 -33.5zM267 556l112 141h105l-146 -141h-71z" />
    <glyph glyph-name="Ccircumflex" unicode="&#x108;" horiz-adv-x="705" 
d="M340 -13q-67 0 -120 21.5t-89.5 61.5t-55.5 95t-19 121q0 82 25.5 157.5t74 135.5t118 95.5t157.5 35.5q109 0 180.5 -54.5t93.5 -148.5l-98 -30q-15 66 -62.5 101t-118.5 35q-66 0 -116 -27.5t-84.5 -73t-52 -103t-17.5 -119.5q0 -96 49.5 -151t139.5 -55q76 0 133.5 38
t90.5 103l92 -41q-47 -92 -131 -144.5t-190 -52.5zM275 749l176 166l131 -166h-78l-61 82l-85 -82h-83z" />
    <glyph glyph-name="ccircumflex" unicode="&#x109;" horiz-adv-x="520" 
d="M248 -9q-69 0 -114.5 29t-68 78t-22.5 109q0 57 18 109.5t53 94.5t84 66.5t110 24.5q73 0 122.5 -36.5t65.5 -107.5l-88 -28q-8 40 -32.5 63.5t-68.5 23.5q-41 0 -72 -19t-52.5 -50t-32.5 -68t-11 -74q0 -35 11.5 -64.5t36 -47t62.5 -17.5q49 0 82.5 25.5t51.5 66.5
l83 -40q-36 -71 -93 -104.5t-125 -33.5zM160 545l171 166l125 -166h-74l-60 82l-82 -82h-80z" />
    <glyph glyph-name="Cdotaccent" unicode="&#x10a;" horiz-adv-x="705" 
d="M340 -13q-67 0 -120 21.5t-89.5 61.5t-55.5 95t-19 121q0 82 25.5 157.5t74 135.5t118 95.5t157.5 35.5q109 0 180.5 -54.5t93.5 -148.5l-98 -30q-15 66 -62.5 101t-118.5 35q-66 0 -116 -27.5t-84.5 -73t-52 -103t-17.5 -119.5q0 -96 49.5 -151t139.5 -55q76 0 133.5 38
t90.5 103l92 -41q-47 -92 -131 -144.5t-190 -52.5zM379 782l17 119h110l-16 -119h-111z" />
    <glyph glyph-name="cdotaccent" unicode="&#x10b;" horiz-adv-x="520" 
d="M248 -9q-69 0 -114.5 29t-68 78t-22.5 109q0 57 18 109.5t53 94.5t84 66.5t110 24.5q73 0 122.5 -36.5t65.5 -107.5l-88 -28q-8 40 -32.5 63.5t-68.5 23.5q-41 0 -72 -19t-52.5 -50t-32.5 -68t-11 -74q0 -35 11.5 -64.5t36 -47t62.5 -17.5q49 0 82.5 25.5t51.5 66.5
l83 -40q-36 -71 -93 -104.5t-125 -33.5zM257 578l17 119h110l-16 -119h-111z" />
    <glyph glyph-name="Ccaron" unicode="&#x10c;" horiz-adv-x="705" 
d="M340 -13q-67 0 -120 21.5t-89.5 61.5t-55.5 95t-19 121q0 82 25.5 157.5t74 135.5t118 95.5t157.5 35.5q109 0 180.5 -54.5t93.5 -148.5l-98 -30q-15 66 -62.5 101t-118.5 35q-66 0 -116 -27.5t-84.5 -73t-52 -103t-17.5 -119.5q0 -96 49.5 -151t139.5 -55q76 0 133.5 38
t90.5 103l92 -41q-47 -92 -131 -144.5t-190 -52.5zM430 742l-122 159h69l62 -81l88 81h77z" />
    <glyph glyph-name="ccaron" unicode="&#x10d;" horiz-adv-x="520" 
d="M248 -9q-69 0 -114.5 29t-68 78t-22.5 109q0 57 18 109.5t53 94.5t84 66.5t110 24.5q73 0 122.5 -36.5t65.5 -107.5l-88 -28q-8 40 -32.5 63.5t-68.5 23.5q-41 0 -72 -19t-52.5 -50t-32.5 -68t-11 -74q0 -35 11.5 -64.5t36 -47t62.5 -17.5q49 0 82.5 25.5t51.5 66.5
l83 -40q-36 -71 -93 -104.5t-125 -33.5zM308 538l-122 159h69l62 -81l88 81h77z" />
    <glyph glyph-name="Dcaron" unicode="&#x10e;" horiz-adv-x="679" 
d="M40 0l98 697h194q153 0 235 -75t82 -213q0 -88 -25 -162.5t-76 -130t-128 -86t-181 -30.5h-199zM156 94h80q95 0 155.5 28.5t95 74.5t48 102.5t13.5 111.5q0 69 -26.5 111t-77 61.5t-121.5 19.5h-96zM400 742l-122 159h69l62 -81l88 81h77z" />
    <glyph glyph-name="dcaron" unicode="&#x10f;" horiz-adv-x="730" 
d="M235 -9q-59 0 -102 27.5t-66 75.5t-23 110q0 58 18.5 111t52.5 95.5t80.5 67t102.5 24.5q46 0 80.5 -17.5t56 -48.5t24.5 -74l-26 -11l48 346h97l-98 -697h-95l17 142l27 -12q-19 -49 -48.5 -79t-66 -45t-79.5 -15zM260 81q39 0 70 17t53.5 45.5t34 64t11.5 74.5
q0 40 -14 69t-40 45t-62 16q-39 0 -71 -16.5t-54 -44.5t-34 -64.5t-12 -74.5q0 -40 14 -69.5t40.5 -45.5t63.5 -16zM593 480l63 217h104l-108 -217h-59z" />
    <glyph glyph-name="Dcroat" unicode="&#x110;" horiz-adv-x="679" 
d="M40 0l98 697h194q153 0 235 -75t82 -213q0 -88 -25 -162.5t-76 -130t-128 -86t-181 -30.5h-199zM156 94h80q95 0 155.5 28.5t95 74.5t48 102.5t13.5 111.5q0 69 -26.5 111t-77 61.5t-121.5 19.5h-96zM12 317l9 66h288l-10 -66h-287z" />
    <glyph glyph-name="dcroat" unicode="&#x111;" horiz-adv-x="584" 
d="M235 -9q-59 0 -102 27.5t-66 75.5t-23 110q0 58 18.5 111t52.5 95.5t80.5 67t102.5 24.5q46 0 80.5 -17.5t56 -48.5t24.5 -74l-26 -11l48 346h97l-98 -697h-95l17 142l27 -12q-19 -49 -48.5 -79t-66 -45t-79.5 -15zM260 81q39 0 70 17t53.5 45.5t34 64t11.5 74.5
q0 40 -14 69t-40 45t-62 16q-39 0 -71 -16.5t-54 -44.5t-34 -64.5t-12 -74.5q0 -40 14 -69.5t40.5 -45.5t63.5 -16zM334 572l9 66h288l-10 -66h-287z" />
    <glyph glyph-name="Emacron" unicode="&#x112;" horiz-adv-x="583" 
d="M40 0l98 697h461l-13 -91h-359l-28 -204h328l-13 -91h-328l-31 -220h359l-13 -91h-461zM251 784l11 59h264l-11 -59h-264z" />
    <glyph glyph-name="emacron" unicode="&#x113;" horiz-adv-x="542" 
d="M251 -9q-72 0 -118 28.5t-68 76t-22 104.5q0 56 17 109.5t50.5 97t82.5 69.5t111 26q68 0 111 -27.5t63.5 -72.5t20.5 -100q0 -21 -3 -45.5t-8 -44.5h-349q-1 -6 -1 -12t1 -11q1 -53 31.5 -81.5t84.5 -28.5q42 0 76.5 14t66.5 42l57 -66q-46 -39 -95 -58.5t-109 -19.5z
M407 267q2 16 3 26t1 25q0 26 -11 49.5t-34 38.5t-61 15q-42 0 -74.5 -19.5t-53 -50t-29.5 -65.5h290zM190 580l11 59h264l-11 -59h-264z" />
    <glyph glyph-name="Ebreve" unicode="&#x114;" horiz-adv-x="583" 
d="M40 0l98 697h461l-13 -91h-359l-28 -204h328l-13 -91h-328l-31 -220h359l-13 -91h-461zM374 739q-39 0 -71.5 13.5t-50 42.5t-12.5 74h62q-4 -35 18 -54t66 -19q38 0 66 16.5t32 56.5h62q-12 -74 -57.5 -102t-114.5 -28z" />
    <glyph glyph-name="ebreve" unicode="&#x115;" horiz-adv-x="542" 
d="M251 -9q-72 0 -118 28.5t-68 76t-22 104.5q0 56 17 109.5t50.5 97t82.5 69.5t111 26q68 0 111 -27.5t63.5 -72.5t20.5 -100q0 -21 -3 -45.5t-8 -44.5h-349q-1 -6 -1 -12t1 -11q1 -53 31.5 -81.5t84.5 -28.5q42 0 76.5 14t66.5 42l57 -66q-46 -39 -95 -58.5t-109 -19.5z
M407 267q2 16 3 26t1 25q0 26 -11 49.5t-34 38.5t-61 15q-42 0 -74.5 -19.5t-53 -50t-29.5 -65.5h290zM317 553q-64 0 -106 28t-45 86q-1 3 -0.5 10t1.5 20h58q-1 -6 -1 -12t1 -11q3 -30 25.5 -47t67.5 -17q47 0 70 23.5t28 63.5h60q-9 -72 -50.5 -108t-108.5 -36z" />
    <glyph glyph-name="Edotaccent" unicode="&#x116;" horiz-adv-x="583" 
d="M40 0l98 697h461l-13 -91h-359l-28 -204h328l-13 -91h-328l-31 -220h359l-13 -91h-461zM325 782l17 119h110l-16 -119h-111z" />
    <glyph glyph-name="edotaccent" unicode="&#x117;" horiz-adv-x="542" 
d="M251 -9q-72 0 -118 28.5t-68 76t-22 104.5q0 56 17 109.5t50.5 97t82.5 69.5t111 26q68 0 111 -27.5t63.5 -72.5t20.5 -100q0 -21 -3 -45.5t-8 -44.5h-349q-1 -6 -1 -12t1 -11q1 -53 31.5 -81.5t84.5 -28.5q42 0 76.5 14t66.5 42l57 -66q-46 -39 -95 -58.5t-109 -19.5z
M407 267q2 16 3 26t1 25q0 26 -11 49.5t-34 38.5t-61 15q-42 0 -74.5 -19.5t-53 -50t-29.5 -65.5h290zM265 578l17 119h110l-16 -119h-111z" />
    <glyph glyph-name="Eogonek" unicode="&#x118;" horiz-adv-x="583" 
d="M40 0l98 697h461l-13 -91h-359l-28 -204h328l-13 -91h-328l-31 -220h359l-13 -91h-461zM442 -218q-44 0 -74 25t-30 67q0 32 13.5 56t33.5 42.5t39 29.5l77 -2q-14 -7 -31 -18.5t-34 -26.5t-28 -33t-11 -38q0 -22 13 -31.5t30 -9.5q13 0 26 4.5t24 13.5l35 -49
q-17 -13 -37.5 -21.5t-45.5 -8.5z" />
    <glyph glyph-name="eogonek" unicode="&#x119;" horiz-adv-x="542" 
d="M251 -9q-72 0 -118 28.5t-68 76t-22 104.5q0 56 17 109.5t50.5 97t82.5 69.5t111 26q68 0 111 -27.5t63.5 -72.5t20.5 -100q0 -21 -3 -45.5t-8 -44.5h-349q-1 -6 -1 -12t1 -11q1 -53 31.5 -81.5t84.5 -28.5q42 0 76.5 14t66.5 42l57 -66q-46 -39 -95 -58.5t-109 -19.5z
M407 267q2 16 3 26t1 25q0 26 -11 49.5t-34 38.5t-61 15q-42 0 -74.5 -19.5t-53 -50t-29.5 -65.5h290zM257 -218q-44 0 -74 25t-30 67q0 32 13.5 56t33.5 42.5t39 29.5l77 -2q-14 -7 -31 -18.5t-34 -26.5t-28 -33t-11 -38q0 -22 13 -31.5t30 -9.5q13 0 26 4.5t24 13.5
l35 -49q-17 -13 -37.5 -21.5t-45.5 -8.5z" />
    <glyph glyph-name="Ecaron" unicode="&#x11a;" horiz-adv-x="583" 
d="M40 0l98 697h461l-13 -91h-359l-28 -204h328l-13 -91h-328l-31 -220h359l-13 -91h-461zM376 742l-122 159h69l62 -81l88 81h77z" />
    <glyph glyph-name="ecaron" unicode="&#x11b;" horiz-adv-x="542" 
d="M251 -9q-72 0 -118 28.5t-68 76t-22 104.5q0 56 17 109.5t50.5 97t82.5 69.5t111 26q68 0 111 -27.5t63.5 -72.5t20.5 -100q0 -21 -3 -45.5t-8 -44.5h-349q-1 -6 -1 -12t1 -11q1 -53 31.5 -81.5t84.5 -28.5q42 0 76.5 14t66.5 42l57 -66q-46 -39 -95 -58.5t-109 -19.5z
M407 267q2 16 3 26t1 25q0 26 -11 49.5t-34 38.5t-61 15q-42 0 -74.5 -19.5t-53 -50t-29.5 -65.5h290zM316 538l-122 159h69l62 -81l88 81h77z" />
    <glyph glyph-name="Gcircumflex" unicode="&#x11c;" horiz-adv-x="732" 
d="M334 -13q-85 0 -147.5 36.5t-96.5 103.5t-34 157q0 84 25.5 160t74.5 136t118.5 95t156.5 35q109 0 180.5 -54.5t93.5 -148.5l-98 -30q-15 66 -61.5 101t-117.5 35q-66 0 -116.5 -27.5t-85 -73.5t-52.5 -104t-18 -121q0 -95 49.5 -149t137.5 -54q39 0 78.5 11t73.5 36
t58 67.5t33 105.5l6 45l13 -70h-196l12 91h265l-52 -370h-89l3 128l16 -15q-24 -44 -60.5 -72.5t-80 -41t-89.5 -12.5zM294 749l171 166l125 -166h-74l-60 82l-82 -82h-80z" />
    <glyph glyph-name="gcircumflex" unicode="&#x11d;" horiz-adv-x="585" 
d="M219 -213q-54 0 -94.5 16t-67.5 43t-44 61l81 55q15 -38 46 -64.5t80 -26.5q35 0 70 12t61.5 43.5t33.5 89.5l16 121l13 -13q-32 -61 -79.5 -89t-104.5 -28t-98.5 27t-64 74t-22.5 106q0 57 18.5 108t51.5 91.5t77.5 64.5t98.5 24q65 0 105 -33t51 -87l-11 -10l18 121h96
l-68 -483q-10 -76 -45 -125t-90 -73.5t-128 -24.5zM262 98q36 0 66.5 14.5t53.5 39.5t35.5 59t12.5 74q0 37 -14 66t-40.5 45t-62.5 16q-37 0 -68 -15.5t-54 -42t-35.5 -60.5t-12.5 -71t14.5 -65t41.5 -44t63 -16zM190 545l171 166l125 -166h-74l-60 82l-82 -82h-80z" />
    <glyph glyph-name="Gbreve" unicode="&#x11e;" horiz-adv-x="732" 
d="M334 -13q-85 0 -147.5 36.5t-96.5 103.5t-34 157q0 84 25.5 160t74.5 136t118.5 95t156.5 35q109 0 180.5 -54.5t93.5 -148.5l-98 -30q-15 66 -61.5 101t-117.5 35q-66 0 -116.5 -27.5t-85 -73.5t-52.5 -104t-18 -121q0 -95 49.5 -149t137.5 -54q39 0 78.5 11t73.5 36
t58 67.5t33 105.5l6 45l13 -70h-196l12 91h265l-52 -370h-89l3 128l16 -15q-24 -44 -60.5 -72.5t-80 -41t-89.5 -12.5zM440 739q-39 0 -71.5 13.5t-50 42.5t-12.5 74h62q-4 -35 18 -54t66 -19q38 0 66 16.5t32 56.5h62q-12 -74 -57.5 -102t-114.5 -28z" />
    <glyph glyph-name="gbreve" unicode="&#x11f;" horiz-adv-x="585" 
d="M219 -213q-54 0 -94.5 16t-67.5 43t-44 61l81 55q15 -38 46 -64.5t80 -26.5q35 0 70 12t61.5 43.5t33.5 89.5l16 121l13 -13q-32 -61 -79.5 -89t-104.5 -28t-98.5 27t-64 74t-22.5 106q0 57 18.5 108t51.5 91.5t77.5 64.5t98.5 24q65 0 105 -33t51 -87l-11 -10l18 121h96
l-68 -483q-10 -76 -45 -125t-90 -73.5t-128 -24.5zM262 98q36 0 66.5 14.5t53.5 39.5t35.5 59t12.5 74q0 37 -14 66t-40.5 45t-62.5 16q-37 0 -68 -15.5t-54 -42t-35.5 -60.5t-12.5 -71t14.5 -65t41.5 -44t63 -16zM339 553q-64 0 -106 28t-45 86q-1 3 -0.5 10t1.5 20h58
q-1 -6 -1 -12t1 -11q3 -30 25.5 -47t67.5 -17q47 0 70 23.5t28 63.5h60q-9 -72 -50.5 -108t-108.5 -36z" />
    <glyph glyph-name="Gdotaccent" unicode="&#x120;" horiz-adv-x="732" 
d="M334 -13q-85 0 -147.5 36.5t-96.5 103.5t-34 157q0 84 25.5 160t74.5 136t118.5 95t156.5 35q109 0 180.5 -54.5t93.5 -148.5l-98 -30q-15 66 -61.5 101t-117.5 35q-66 0 -116.5 -27.5t-85 -73.5t-52.5 -104t-18 -121q0 -95 49.5 -149t137.5 -54q39 0 78.5 11t73.5 36
t58 67.5t33 105.5l6 45l13 -70h-196l12 91h265l-52 -370h-89l3 128l16 -15q-24 -44 -60.5 -72.5t-80 -41t-89.5 -12.5zM391 782l17 119h110l-16 -119h-111z" />
    <glyph glyph-name="gdotaccent" unicode="&#x121;" horiz-adv-x="585" 
d="M219 -213q-54 0 -94.5 16t-67.5 43t-44 61l81 55q15 -38 46 -64.5t80 -26.5q35 0 70 12t61.5 43.5t33.5 89.5l16 121l13 -13q-32 -61 -79.5 -89t-104.5 -28t-98.5 27t-64 74t-22.5 106q0 57 18.5 108t51.5 91.5t77.5 64.5t98.5 24q65 0 105 -33t51 -87l-11 -10l18 121h96
l-68 -483q-10 -76 -45 -125t-90 -73.5t-128 -24.5zM262 98q36 0 66.5 14.5t53.5 39.5t35.5 59t12.5 74q0 37 -14 66t-40.5 45t-62.5 16q-37 0 -68 -15.5t-54 -42t-35.5 -60.5t-12.5 -71t14.5 -65t41.5 -44t63 -16zM287 578l17 119h110l-16 -119h-111z" />
    <glyph glyph-name="uni0122" unicode="&#x122;" horiz-adv-x="732" 
d="M334 -13q-85 0 -147.5 36.5t-96.5 103.5t-34 157q0 84 25.5 160t74.5 136t118.5 95t156.5 35q109 0 180.5 -54.5t93.5 -148.5l-98 -30q-15 66 -61.5 101t-117.5 35q-66 0 -116.5 -27.5t-85 -73.5t-52.5 -104t-18 -121q0 -95 49.5 -149t137.5 -54q39 0 78.5 11t73.5 36
t58 67.5t33 105.5l6 45l13 -70h-196l12 91h265l-52 -370h-89l3 128l16 -15q-24 -44 -60.5 -72.5t-80 -41t-89.5 -12.5zM208 -224l77 170h103l-120 -170h-60z" />
    <glyph glyph-name="uni0123" unicode="&#x123;" horiz-adv-x="585" 
d="M219 -213q-54 0 -94.5 16t-67.5 43t-44 61l81 55q15 -38 46 -64.5t80 -26.5q35 0 70 12t61.5 43.5t33.5 89.5l16 121l13 -13q-32 -61 -79.5 -89t-104.5 -28t-98.5 27t-64 74t-22.5 106q0 57 18.5 108t51.5 91.5t77.5 64.5t98.5 24q65 0 105 -33t51 -87l-11 -10l18 121h96
l-68 -483q-10 -76 -45 -125t-90 -73.5t-128 -24.5zM262 98q36 0 66.5 14.5t53.5 39.5t35.5 59t12.5 74q0 37 -14 66t-40.5 45t-62.5 16q-37 0 -68 -15.5t-54 -42t-35.5 -60.5t-12.5 -71t14.5 -65t41.5 -44t63 -16zM245 553l128 152h61l-86 -152h-103z" />
    <glyph glyph-name="Hcircumflex" unicode="&#x124;" horiz-adv-x="683" 
d="M40 0l98 697h102l-41 -292h329l41 292h102l-98 -697h-102l44 310h-329l-44 -310h-102zM264 749l171 166l125 -166h-74l-60 82l-82 -82h-80z" />
    <glyph glyph-name="hcircumflex" unicode="&#x125;" horiz-adv-x="553" 
d="M33 0l98 697h99l-45 -311l-20 2q19 41 47 65.5t62.5 36.5t71.5 12q74 0 115 -38.5t41 -110.5q0 -11 -0.5 -20.5t-2.5 -19.5l-44 -313h-98l40 282q2 12 2.5 22t0.5 21q0 48 -21 70t-62 22q-62 0 -100 -43.5t-52 -133.5l-33 -240h-99zM34 749l176 166l131 -166h-78l-61 82
l-85 -82h-83z" />
    <glyph glyph-name="Hbar" unicode="&#x126;" horiz-adv-x="683" 
d="M40 0l98 697h102l-41 -292h329l41 292h102l-98 -697h-102l44 310h-329l-44 -310h-102zM59 518l5 58h647l-5 -58h-647z" />
    <glyph glyph-name="hbar" unicode="&#x127;" horiz-adv-x="553" 
d="M33 0l98 697h99l-45 -311l-20 2q19 41 47 65.5t62.5 36.5t71.5 12q74 0 115 -38.5t41 -110.5q0 -11 -0.5 -20.5t-2.5 -19.5l-44 -313h-98l40 282q2 12 2.5 22t0.5 21q0 48 -21 70t-62 22q-62 0 -100 -43.5t-52 -133.5l-33 -240h-99zM65 564l9 66h288l-10 -66h-287z" />
    <glyph glyph-name="Itilde" unicode="&#x128;" horiz-adv-x="252" 
d="M40 0l98 697h102l-98 -697h-102zM266 743q-25 0 -40.5 7.5t-25.5 19t-18 23t-16.5 19.5t-21.5 8q-20 0 -35 -19.5t-20 -54.5l-56 5q8 60 38.5 92t74.5 32q23 0 37 -8t24.5 -20t18.5 -23.5t17 -19.5t21 -8q18 0 33 21.5t20 55.5l59 -4q-8 -61 -38 -93.5t-72 -32.5z" />
    <glyph glyph-name="itilde" unicode="&#x129;" horiz-adv-x="232" 
d="M32 0l69 493h99l-70 -493h-98zM233 563q-35 0 -51 15t-29 33q-9 13 -18 20.5t-20 7.5q-19 0 -34 -20.5t-21 -54.5l-55 7q11 64 41 97t73 33q30 0 45.5 -15t26.5 -31q9 -13 18 -22.5t23 -9.5q17 0 32.5 21.5t21.5 55.5l56 -6q-10 -64 -39.5 -97.5t-69.5 -33.5z" />
    <glyph glyph-name="Imacron" unicode="&#x12a;" horiz-adv-x="252" 
d="M40 0l98 697h102l-98 -697h-102zM72 784l11 59h264l-11 -59h-264z" />
    <glyph glyph-name="imacron" unicode="&#x12b;" horiz-adv-x="232" 
d="M32 0l69 493h99l-70 -493h-98zM33 580l11 59h264l-11 -59h-264z" />
    <glyph glyph-name="Ibreve" unicode="&#x12c;" horiz-adv-x="252" 
d="M40 0l98 697h102l-98 -697h-102zM195 739q-39 0 -71.5 13.5t-50 42.5t-12.5 74h62q-4 -35 18 -54t66 -19q38 0 66 16.5t32 56.5h62q-12 -74 -57.5 -102t-114.5 -28z" />
    <glyph glyph-name="ibreve" unicode="&#x12d;" horiz-adv-x="232" 
d="M32 0l69 493h99l-70 -493h-98zM159 553q-64 0 -106 28t-45 86q-1 3 -0.5 10t1.5 20h58q-1 -6 -1 -12t1 -11q3 -30 25.5 -47t67.5 -17q47 0 70 23.5t28 63.5h60q-9 -72 -50.5 -108t-108.5 -36z" />
    <glyph glyph-name="Iogonek" unicode="&#x12e;" horiz-adv-x="252" 
d="M40 0l98 697h102l-98 -697h-102zM83 -218q-44 0 -74 25t-30 67q0 32 13.5 56t33.5 42.5t39 29.5l77 -2q-14 -7 -31 -18.5t-34 -26.5t-28 -33t-11 -38q0 -22 13 -31.5t30 -9.5q13 0 26 4.5t24 13.5l35 -49q-17 -13 -37.5 -21.5t-45.5 -8.5z" />
    <glyph glyph-name="iogonek" unicode="&#x12f;" horiz-adv-x="232" 
d="M32 0l69 493h99l-70 -493h-98zM107 578l17 119h110l-16 -119h-111zM71 -218q-44 0 -74 25t-30 67q0 32 13.5 56t33.5 42.5t39 29.5l77 -2q-14 -7 -31 -18.5t-34 -26.5t-28 -33t-11 -38q0 -22 13 -31.5t30 -9.5q13 0 26 4.5t24 13.5l35 -49q-17 -13 -37.5 -21.5
t-45.5 -8.5z" />
    <glyph glyph-name="Idotaccent" unicode="&#x130;" horiz-adv-x="252" 
d="M40 0l98 697h102l-98 -697h-102zM146 782l17 119h110l-16 -119h-111z" />
    <glyph glyph-name="dotlessi" unicode="&#x131;" horiz-adv-x="232" 
d="M32 0l69 493h99l-70 -493h-98z" />
    <glyph glyph-name="IJ" unicode="&#x132;" horiz-adv-x="805" 
d="M40 0l98 697h102l-98 -697h-102zM477 -13q-93 0 -148 53t-57 146l101 6q2 -53 27.5 -82t81.5 -29q69 0 106 45.5t48 126.5l49 353h-271l13 91h373l-64 -455q-11 -80 -46 -137.5t-88.5 -87.5t-124.5 -30z" />
    <glyph glyph-name="ij" unicode="&#x133;" horiz-adv-x="465" 
d="M32 0l69 493h99l-70 -493h-98zM107 578l17 119h110l-16 -119h-111zM228 -213q-20 0 -40.5 4.5t-40.5 10.5l7 83q14 -3 25 -5t17 -2q24 0 40 13.5t20 45.5l77 556h99l-83 -587q-8 -63 -40.5 -91t-80.5 -28zM340 578l17 119h110l-16 -119h-111z" />
    <glyph glyph-name="Jcircumflex" unicode="&#x134;" horiz-adv-x="553" 
d="M225 -13q-93 0 -148 53t-57 146l101 6q2 -53 27.5 -82t81.5 -29q69 0 106 45.5t48 126.5l49 353h-271l13 91h373l-64 -455q-11 -80 -46 -137.5t-88.5 -87.5t-124.5 -30zM221 749l171 166l125 -166h-74l-60 82l-82 -82h-80z" />
    <glyph glyph-name="jcircumflex" unicode="&#x135;" horiz-adv-x="232" 
d="M-4 -213q-20 0 -40.5 4.5t-40.5 10.5l7 83q14 -3 25 -5t17 -2q24 0 40 13.5t20 45.5l77 556h99l-83 -587q-8 -63 -40.5 -91t-80.5 -28zM10 545l171 166l125 -166h-74l-60 82l-82 -82h-80z" />
    <glyph glyph-name="uni0136" unicode="&#x136;" horiz-adv-x="644" 
d="M152 218l16 129l383 350h139zM40 0l98 697h102l-98 -697h-102zM474 0l-181 367l84 71l214 -438h-117zM159 -224l77 170h103l-120 -170h-60z" />
    <glyph glyph-name="uni0137" unicode="&#x137;" horiz-adv-x="540" 
d="M374 0l-126 245l-106 -99l15 122l241 225h132l-211 -186l164 -307h-109zM33 0l98 697h98l-98 -697h-98zM111 -224l77 170h103l-120 -170h-60z" />
    <glyph glyph-name="kgreenlandic" unicode="&#x138;" horiz-adv-x="542" 
d="M144 146l15 122l240 225h133l-211 -186l164 -307h-109l-126 245zM34 0l69 493h99l-69 -493h-99z" />
    <glyph glyph-name="Lacute" unicode="&#x139;" horiz-adv-x="498" 
d="M40 0l98 697h102l-85 -606h306l-12 -91h-409zM156 760l112 141h105l-146 -141h-71z" />
    <glyph glyph-name="lacute" unicode="&#x13a;" horiz-adv-x="273" 
d="M141 -9q-43 0 -69 24t-26 72q0 6 0.5 13.5t1.5 14.5l81 582h97l-78 -564q-1 -5 -1 -9.5v-9.5q0 -18 8.5 -25.5t23.5 -7.5q10 0 20.5 2.5t22.5 5.5l-12 -86q-19 -7 -37 -9.5t-32 -2.5zM144 760l112 141h105l-146 -141h-71z" />
    <glyph glyph-name="uni013B" unicode="&#x13b;" horiz-adv-x="498" 
d="M40 0l98 697h102l-85 -606h306l-12 -91h-409zM90 -224l77 170h103l-120 -170h-60z" />
    <glyph glyph-name="uni013C" unicode="&#x13c;" horiz-adv-x="273" 
d="M141 -9q-43 0 -69 24t-26 72q0 6 0.5 13.5t1.5 14.5l81 582h97l-78 -564q-1 -5 -1 -9.5v-9.5q0 -18 8.5 -25.5t23.5 -7.5q10 0 20.5 2.5t22.5 5.5l-12 -86q-19 -7 -37 -9.5t-32 -2.5zM-25 -224l77 170h103l-120 -170h-60z" />
    <glyph glyph-name="Lcaron" unicode="&#x13d;" horiz-adv-x="498" 
d="M40 0l98 697h102l-85 -606h306l-12 -91h-409zM371 480l63 217h104l-108 -217h-59z" />
    <glyph glyph-name="lcaron" unicode="&#x13e;" horiz-adv-x="306" 
d="M141 -9q-43 0 -69 24t-26 72q0 6 0.5 13.5t1.5 14.5l81 582h97l-78 -564q-1 -5 -1 -9.5v-9.5q0 -18 8.5 -25.5t23.5 -7.5q10 0 20.5 2.5t22.5 5.5l-12 -86q-19 -7 -37 -9.5t-32 -2.5zM249 480l63 217h104l-108 -217h-59z" />
    <glyph glyph-name="Ldot" unicode="&#x13f;" horiz-adv-x="600" 
d="M40 0l98 697h102l-85 -606h306l-12 -91h-409zM435 288l17 122h108l-17 -122h-108z" />
    <glyph glyph-name="ldot" unicode="&#x140;" horiz-adv-x="419" 
d="M141 -9q-43 0 -69 24t-26 72q0 6 0.5 13.5t1.5 14.5l81 582h97l-78 -564q-1 -5 -1 -9.5v-9.5q0 -18 8.5 -25.5t23.5 -7.5q10 0 20.5 2.5t22.5 5.5l-12 -86q-19 -7 -37 -9.5t-32 -2.5zM260 288l17 122h108l-17 -122h-108z" />
    <glyph glyph-name="Lslash" unicode="&#x141;" horiz-adv-x="498" 
d="M40 0l98 697h102l-85 -606h306l-12 -91h-409zM5 178l11 101l326 232l-12 -100z" />
    <glyph glyph-name="lslash" unicode="&#x142;" horiz-adv-x="273" 
d="M141 -9q-43 0 -69 24t-26 72q0 6 0.5 13.5t1.5 14.5l81 582h97l-78 -564q-1 -5 -1 -9.5v-9.5q0 -18 8.5 -25.5t23.5 -7.5q10 0 20.5 2.5t22.5 5.5l-12 -86q-19 -7 -37 -9.5t-32 -2.5zM25 231l8 100l236 179l-8 -99z" />
    <glyph glyph-name="Nacute" unicode="&#x143;" horiz-adv-x="680" 
d="M40 0l98 697h105l267 -565h-23l80 565h101l-98 -697h-107l-265 566h23l-79 -566h-102zM366 760l112 141h105l-146 -141h-71z" />
    <glyph glyph-name="nacute" unicode="&#x144;" horiz-adv-x="553" 
d="M33 0l70 493h96l-14 -107l-20 2q19 41 47 65.5t62.5 36.5t71.5 12q74 0 115 -38.5t41 -110.5q0 -11 -0.5 -20.5t-2.5 -19.5l-44 -313h-98l40 282q2 12 2.5 22t0.5 21q0 48 -21 70t-62 22q-62 0 -100 -43.5t-52 -133.5l-33 -240h-99zM271 556l112 141h105l-146 -141h-71z
" />
    <glyph glyph-name="uni0145" unicode="&#x145;" horiz-adv-x="680" 
d="M40 0l98 697h105l267 -565h-23l80 565h101l-98 -697h-107l-265 566h23l-79 -566h-102zM173 -224l77 170h103l-120 -170h-60z" />
    <glyph glyph-name="uni0146" unicode="&#x146;" horiz-adv-x="553" 
d="M33 0l70 493h96l-14 -107l-20 2q19 41 47 65.5t62.5 36.5t71.5 12q74 0 115 -38.5t41 -110.5q0 -11 -0.5 -20.5t-2.5 -19.5l-44 -313h-98l40 282q2 12 2.5 22t0.5 21q0 48 -21 70t-62 22q-62 0 -100 -43.5t-52 -133.5l-33 -240h-99zM109 -224l77 170h103l-120 -170h-60z
" />
    <glyph glyph-name="Ncaron" unicode="&#x147;" horiz-adv-x="680" 
d="M40 0l98 697h105l267 -565h-23l80 565h101l-98 -697h-107l-265 566h23l-79 -566h-102zM408 742l-122 159h69l62 -81l88 81h77z" />
    <glyph glyph-name="ncaron" unicode="&#x148;" horiz-adv-x="553" 
d="M33 0l70 493h96l-14 -107l-20 2q19 41 47 65.5t62.5 36.5t71.5 12q74 0 115 -38.5t41 -110.5q0 -11 -0.5 -20.5t-2.5 -19.5l-44 -313h-98l40 282q2 12 2.5 22t0.5 21q0 48 -21 70t-62 22q-62 0 -100 -43.5t-52 -133.5l-33 -240h-99zM313 538l-122 159h69l62 -81l88 81h77
z" />
    <glyph glyph-name="napostrophe" unicode="&#x149;" horiz-adv-x="697" 
d="M28 416l120 281h115l-169 -281h-66zM160 0l70 493h96l-14 -107l-20 2q19 41 47 65.5t62.5 36.5t71.5 12q74 0 115 -38.5t41 -110.5q0 -11 -0.5 -20.5t-2.5 -19.5l-44 -313h-98l40 282q2 12 2.5 22t0.5 21q0 48 -21 70t-62 22q-62 0 -100 -43.5t-52 -133.5l-33 -240h-99z
" />
    <glyph glyph-name="Eng" unicode="&#x14a;" horiz-adv-x="680" 
d="M390 -178q-18 0 -35.5 2.5t-37.5 6.5l5 64q11 -2 22.5 -3.5t18.5 -1.5q48 0 75 23.5t30 54.5q0 3 0.5 5.5t0.5 5.5q0 14 -4 23l-265 553h20l-78 -555h-102l98 697h105l266 -553h-20l78 553h101l-99 -705q-7 -49 -28.5 -87.5t-58.5 -60.5t-92 -22z" />
    <glyph glyph-name="eng" unicode="&#x14b;" horiz-adv-x="608" 
d="M355 -213q-20 0 -37.5 4t-37.5 11l6 77q13 -4 23 -5.5t15 -1.5q21 0 35 12.5t17 40.5l53 373q1 8 1.5 16.5t0.5 14.5q0 24 -7.5 44t-26 32t-53.5 12q-62 0 -99.5 -44.5t-49.5 -135.5l-34 -237h-98l70 493h95l-15 -126l-17 18q19 43 47.5 68.5t62.5 37t69 11.5
q75 0 116.5 -38.5t41.5 -106.5v-15t-2 -16l-60 -420q-9 -63 -40 -91t-76 -28z" />
    <glyph glyph-name="Omacron" unicode="&#x14c;" horiz-adv-x="748" 
d="M341 -13q-88 0 -152 36.5t-98.5 104t-34.5 158.5q0 81 25.5 157t74 136.5t118.5 95.5t158 35q89 0 153 -36.5t99 -103.5t35 -159q0 -83 -26 -159t-75 -135.5t-119 -94.5t-158 -35zM346 84q65 0 115 26.5t85 72.5t53 103.5t18 120.5q0 95 -50 150.5t-139 55.5
q-66 0 -116.5 -27t-84.5 -73.5t-52 -104t-18 -118.5q0 -64 22 -110.5t64.5 -71t102.5 -24.5zM318 784l11 59h264l-11 -59h-264z" />
    <glyph glyph-name="omacron" unicode="&#x14d;" horiz-adv-x="575" 
d="M256 -9q-64 0 -112 28t-75 77t-27 114q0 58 20 110.5t57 93t87.5 64.5t111.5 24q65 0 112.5 -27.5t74 -76t26.5 -113.5q0 -59 -20.5 -112t-57.5 -94t-87 -64.5t-110 -23.5zM260 78q42 0 74 17.5t54.5 47t34.5 66.5t12 76q0 59 -31.5 95t-89.5 36q-43 0 -76 -18t-55 -48.5
t-33.5 -66.5t-11.5 -74q0 -59 32 -95t90 -36zM203 580l11 59h264l-11 -59h-264z" />
    <glyph glyph-name="Obreve" unicode="&#x14e;" horiz-adv-x="748" 
d="M341 -13q-88 0 -152 36.5t-98.5 104t-34.5 158.5q0 81 25.5 157t74 136.5t118.5 95.5t158 35q89 0 153 -36.5t99 -103.5t35 -159q0 -83 -26 -159t-75 -135.5t-119 -94.5t-158 -35zM346 84q65 0 115 26.5t85 72.5t53 103.5t18 120.5q0 95 -50 150.5t-139 55.5
q-66 0 -116.5 -27t-84.5 -73.5t-52 -104t-18 -118.5q0 -64 22 -110.5t64.5 -71t102.5 -24.5zM441 739q-39 0 -71.5 13.5t-50 42.5t-12.5 74h62q-4 -35 18 -54t66 -19q38 0 66 16.5t32 56.5h62q-12 -74 -57.5 -102t-114.5 -28z" />
    <glyph glyph-name="obreve" unicode="&#x14f;" horiz-adv-x="575" 
d="M256 -9q-64 0 -112 28t-75 77t-27 114q0 58 20 110.5t57 93t87.5 64.5t111.5 24q65 0 112.5 -27.5t74 -76t26.5 -113.5q0 -59 -20.5 -112t-57.5 -94t-87 -64.5t-110 -23.5zM260 78q42 0 74 17.5t54.5 47t34.5 66.5t12 76q0 59 -31.5 95t-89.5 36q-43 0 -76 -18t-55 -48.5
t-33.5 -66.5t-11.5 -74q0 -59 32 -95t90 -36zM330 553q-64 0 -106 28t-45 86q-1 3 -0.5 10t1.5 20h58q-1 -6 -1 -12t1 -11q3 -30 25.5 -47t67.5 -17q47 0 70 23.5t28 63.5h60q-9 -72 -50.5 -108t-108.5 -36z" />
    <glyph glyph-name="Ohungarumlaut" unicode="&#x150;" horiz-adv-x="748" 
d="M341 -13q-88 0 -152 36.5t-98.5 104t-34.5 158.5q0 81 25.5 157t74 136.5t118.5 95.5t158 35q89 0 153 -36.5t99 -103.5t35 -159q0 -83 -26 -159t-75 -135.5t-119 -94.5t-158 -35zM346 84q65 0 115 26.5t85 72.5t53 103.5t18 120.5q0 95 -50 150.5t-139 55.5
q-66 0 -116.5 -27t-84.5 -73.5t-52 -104t-18 -118.5q0 -64 22 -110.5t64.5 -71t102.5 -24.5zM498 760l107 141h106l-135 -141h-78zM317 760l106 141h90l-121 -141h-75z" />
    <glyph glyph-name="ohungarumlaut" unicode="&#x151;" horiz-adv-x="575" 
d="M256 -9q-64 0 -112 28t-75 77t-27 114q0 58 20 110.5t57 93t87.5 64.5t111.5 24q65 0 112.5 -27.5t74 -76t26.5 -113.5q0 -59 -20.5 -112t-57.5 -94t-87 -64.5t-110 -23.5zM260 78q42 0 74 17.5t54.5 47t34.5 66.5t12 76q0 59 -31.5 95t-89.5 36q-43 0 -76 -18t-55 -48.5
t-33.5 -66.5t-11.5 -74q0 -59 32 -95t90 -36zM383 556l107 141h106l-135 -141h-78zM202 556l106 141h90l-121 -141h-75z" />
    <glyph glyph-name="OE" unicode="&#x152;" horiz-adv-x="1009" 
d="M376 0q-155 0 -237.5 71.5t-82.5 206.5q0 91 26.5 167.5t79 133t129 87.5t176.5 31h558l-13 -91h-359l-28 -204h328l-13 -91h-328l-31 -220h359l-13 -91h-551zM393 94h87l71 509h-90q-87 0 -145.5 -27.5t-93 -74.5t-49.5 -104t-15 -116q0 -69 27.5 -110t80 -59t127.5 -18
z" />
    <glyph glyph-name="oe" unicode="&#x153;" horiz-adv-x="930" 
d="M639 -9q-72 0 -118 28.5t-68 76t-22 104.5q0 56 17 109.5t50.5 97t82.5 69.5t111 26q68 0 111 -27.5t63.5 -72.5t20.5 -100q0 -21 -3 -45.5t-8 -44.5h-349q-1 -6 -1 -12t1 -11q1 -53 31.5 -81.5t84.5 -28.5q42 0 76.5 14t66.5 42l57 -66q-46 -39 -95 -58.5t-109 -19.5z
M795 267q2 16 3 26t1 25q0 26 -11 49.5t-34 38.5t-61 15q-42 0 -74.5 -19.5t-53 -50t-29.5 -65.5h290zM256 -9q-64 0 -112 28t-75 77t-27 114q0 58 20 110.5t57 93t87.5 64.5t111.5 24q65 0 112.5 -27.5t74 -76t26.5 -113.5q0 -59 -20.5 -112t-57.5 -94t-87 -64.5
t-110 -23.5zM260 78q42 0 74 17.5t54.5 47t34.5 66.5t12 76q0 59 -31.5 95t-89.5 36q-43 0 -76 -18t-55 -48.5t-33.5 -66.5t-11.5 -74q0 -59 32 -95t90 -36z" />
    <glyph glyph-name="Racute" unicode="&#x154;" horiz-adv-x="603" 
d="M40 0l98 697h211q107 0 160 -43.5t53 -121.5q0 -58 -22.5 -108.5t-71 -83.5t-126.5 -42h-36h-38h-84l-42 -298h-102zM430 0l-138 310l102 13l148 -323h-112zM197 388h100q76 0 119.5 34.5t43.5 98.5q0 47 -34.5 66t-92.5 19h-106zM318 760l112 141h105l-146 -141h-71z
" />
    <glyph glyph-name="racute" unicode="&#x155;" horiz-adv-x="413" 
d="M33 0l70 493h96l-17 -133l-24 3q12 43 42 74.5t67.5 48t71.5 16.5q23 0 43.5 -6.5t42.5 -19.5l-56 -85q-11 6 -26.5 9.5t-29.5 3.5q-50 0 -80.5 -24.5t-46.5 -66.5t-24 -92l-31 -221h-98zM191 556l112 141h105l-146 -141h-71z" />
    <glyph glyph-name="uni0156" unicode="&#x156;" horiz-adv-x="603" 
d="M40 0l98 697h211q107 0 160 -43.5t53 -121.5q0 -58 -22.5 -108.5t-71 -83.5t-126.5 -42h-36h-38h-84l-42 -298h-102zM430 0l-138 310l102 13l148 -323h-112zM197 388h100q76 0 119.5 34.5t43.5 98.5q0 47 -34.5 66t-92.5 19h-106zM125 -224l77 170h103l-120 -170h-60z
" />
    <glyph glyph-name="uni0157" unicode="&#x157;" horiz-adv-x="413" 
d="M33 0l70 493h96l-17 -133l-24 3q12 43 42 74.5t67.5 48t71.5 16.5q23 0 43.5 -6.5t42.5 -19.5l-56 -85q-11 6 -26.5 9.5t-29.5 3.5q-50 0 -80.5 -24.5t-46.5 -66.5t-24 -92l-31 -221h-98zM27 -224l77 170h103l-120 -170h-60z" />
    <glyph glyph-name="Rcaron" unicode="&#x158;" horiz-adv-x="603" 
d="M40 0l98 697h211q107 0 160 -43.5t53 -121.5q0 -58 -22.5 -108.5t-71 -83.5t-126.5 -42h-36h-38h-84l-42 -298h-102zM430 0l-138 310l102 13l148 -323h-112zM197 388h100q76 0 119.5 34.5t43.5 98.5q0 47 -34.5 66t-92.5 19h-106zM360 742l-122 159h69l62 -81l88 81h77z
" />
    <glyph glyph-name="rcaron" unicode="&#x159;" horiz-adv-x="413" 
d="M33 0l70 493h96l-17 -133l-24 3q12 43 42 74.5t67.5 48t71.5 16.5q23 0 43.5 -6.5t42.5 -19.5l-56 -85q-11 6 -26.5 9.5t-29.5 3.5q-50 0 -80.5 -24.5t-46.5 -66.5t-24 -92l-31 -221h-98zM233 538l-122 159h69l62 -81l88 81h77z" />
    <glyph glyph-name="Sacute" unicode="&#x15a;" horiz-adv-x="568" 
d="M271 -12q-71 0 -125.5 26t-85.5 72.5t-33 108.5l102 20q2 -69 44.5 -102.5t104.5 -33.5q44 0 75.5 15.5t48 42t16.5 59.5t-16 54.5t-44.5 37.5t-67.5 32q-59 25 -97.5 52.5t-57 62t-18.5 76.5q0 54 27 99t76.5 72.5t115.5 27.5q71 0 126 -32.5t79 -92.5l-86 -44
q-16 40 -48 59.5t-72 19.5q-35 0 -61.5 -13.5t-41 -37t-14.5 -53.5q0 -28 13.5 -47t42.5 -34t71 -32q58 -23 97 -51.5t58.5 -64.5t19.5 -84q0 -63 -32 -112t-88 -76t-129 -27zM313 760l112 141h105l-146 -141h-71z" />
    <glyph glyph-name="sacute" unicode="&#x15b;" horiz-adv-x="476" 
d="M210 -9q-54 0 -93 16t-65 41t-40 51l73 53q15 -37 48 -59t79 -22q31 0 55.5 9.5t39 27.5t14.5 41q0 19 -12 31.5t-34 21.5t-55 17q-25 7 -51 16t-48 23t-35 35.5t-13 53.5q0 46 24.5 80.5t67.5 54.5t100 20q58 0 103 -25t66 -71l-66 -42q-15 33 -43 46.5t-63 13.5
q-39 0 -68 -17t-29 -48q0 -22 20.5 -33.5t66.5 -23.5q39 -9 77.5 -23t63.5 -40.5t25 -74.5q0 -52 -26.5 -90.5t-73.5 -60.5t-108 -22zM239 556l112 141h105l-146 -141h-71z" />
    <glyph glyph-name="Scircumflex" unicode="&#x15c;" horiz-adv-x="568" 
d="M271 -12q-71 0 -125.5 26t-85.5 72.5t-33 108.5l102 20q2 -69 44.5 -102.5t104.5 -33.5q44 0 75.5 15.5t48 42t16.5 59.5t-16 54.5t-44.5 37.5t-67.5 32q-59 25 -97.5 52.5t-57 62t-18.5 76.5q0 54 27 99t76.5 72.5t115.5 27.5q71 0 126 -32.5t79 -92.5l-86 -44
q-16 40 -48 59.5t-72 19.5q-35 0 -61.5 -13.5t-41 -37t-14.5 -53.5q0 -28 13.5 -47t42.5 -34t71 -32q58 -23 97 -51.5t58.5 -64.5t19.5 -84q0 -63 -32 -112t-88 -76t-129 -27zM199 749l176 166l131 -166h-78l-61 82l-85 -82h-83z" />
    <glyph glyph-name="scircumflex" unicode="&#x15d;" horiz-adv-x="476" 
d="M210 -9q-54 0 -93 16t-65 41t-40 51l73 53q15 -37 48 -59t79 -22q31 0 55.5 9.5t39 27.5t14.5 41q0 19 -12 31.5t-34 21.5t-55 17q-25 7 -51 16t-48 23t-35 35.5t-13 53.5q0 46 24.5 80.5t67.5 54.5t100 20q58 0 103 -25t66 -71l-66 -42q-15 33 -43 46.5t-63 13.5
q-39 0 -68 -17t-29 -48q0 -22 20.5 -33.5t66.5 -23.5q39 -9 77.5 -23t63.5 -40.5t25 -74.5q0 -52 -26.5 -90.5t-73.5 -60.5t-108 -22zM132 545l171 166l125 -166h-74l-60 82l-82 -82h-80z" />
    <glyph glyph-name="Scedilla" unicode="&#x15e;" horiz-adv-x="568" 
d="M271 -12q-71 0 -125.5 26t-85.5 72.5t-33 108.5l102 20q2 -69 44.5 -102.5t104.5 -33.5q44 0 75.5 15.5t48 42t16.5 59.5t-16 54.5t-44.5 37.5t-67.5 32q-59 25 -97.5 52.5t-57 62t-18.5 76.5q0 54 27 99t76.5 72.5t115.5 27.5q71 0 126 -32.5t79 -92.5l-86 -44
q-16 40 -48 59.5t-72 19.5q-35 0 -61.5 -13.5t-41 -37t-14.5 -53.5q0 -28 13.5 -47t42.5 -34t71 -32q58 -23 97 -51.5t58.5 -64.5t19.5 -84q0 -63 -32 -112t-88 -76t-129 -27zM220 -258q-19 0 -44 9.5t-42 29.5l34 47q9 -12 23.5 -20.5t30.5 -8.5q23 0 37 12t14 36
q0 19 -10 30.5t-27 17t-36.5 8t-37.5 2.5l63 104h60l-46 -65q25 -5 46.5 -16t34 -30.5t12.5 -47.5q0 -47 -31 -77.5t-81 -30.5z" />
    <glyph glyph-name="scedilla" unicode="&#x15f;" horiz-adv-x="476" 
d="M210 -9q-54 0 -93 16t-65 41t-40 51l73 53q15 -37 48 -59t79 -22q31 0 55.5 9.5t39 27.5t14.5 41q0 19 -12 31.5t-34 21.5t-55 17q-25 7 -51 16t-48 23t-35 35.5t-13 53.5q0 46 24.5 80.5t67.5 54.5t100 20q58 0 103 -25t66 -71l-66 -42q-15 33 -43 46.5t-63 13.5
q-39 0 -68 -17t-29 -48q0 -22 20.5 -33.5t66.5 -23.5q39 -9 77.5 -23t63.5 -40.5t25 -74.5q0 -52 -26.5 -90.5t-73.5 -60.5t-108 -22zM174 -258q-19 0 -44 9.5t-42 29.5l34 47q9 -12 23.5 -20.5t30.5 -8.5q23 0 37 12t14 36q0 19 -10 30.5t-27 17t-36.5 8t-37.5 2.5l63 104
h60l-46 -65q25 -5 46.5 -16t34 -30.5t12.5 -47.5q0 -47 -31 -77.5t-81 -30.5z" />
    <glyph glyph-name="Scaron" unicode="&#x160;" horiz-adv-x="568" 
d="M271 -12q-71 0 -125.5 26t-85.5 72.5t-33 108.5l102 20q2 -69 44.5 -102.5t104.5 -33.5q44 0 75.5 15.5t48 42t16.5 59.5t-16 54.5t-44.5 37.5t-67.5 32q-59 25 -97.5 52.5t-57 62t-18.5 76.5q0 54 27 99t76.5 72.5t115.5 27.5q71 0 126 -32.5t79 -92.5l-86 -44
q-16 40 -48 59.5t-72 19.5q-35 0 -61.5 -13.5t-41 -37t-14.5 -53.5q0 -28 13.5 -47t42.5 -34t71 -32q58 -23 97 -51.5t58.5 -64.5t19.5 -84q0 -63 -32 -112t-88 -76t-129 -27zM354 742l-122 159h69l62 -81l88 81h77z" />
    <glyph glyph-name="scaron" unicode="&#x161;" horiz-adv-x="476" 
d="M210 -9q-54 0 -93 16t-65 41t-40 51l73 53q15 -37 48 -59t79 -22q31 0 55.5 9.5t39 27.5t14.5 41q0 19 -12 31.5t-34 21.5t-55 17q-25 7 -51 16t-48 23t-35 35.5t-13 53.5q0 46 24.5 80.5t67.5 54.5t100 20q58 0 103 -25t66 -71l-66 -42q-15 33 -43 46.5t-63 13.5
q-39 0 -68 -17t-29 -48q0 -22 20.5 -33.5t66.5 -23.5q39 -9 77.5 -23t63.5 -40.5t25 -74.5q0 -52 -26.5 -90.5t-73.5 -60.5t-108 -22zM280 538l-122 159h69l62 -81l88 81h77z" />
    <glyph glyph-name="uni0162" unicode="&#x162;" horiz-adv-x="586" 
d="M207 0l85 606h-228l13 91h558l-13 -91h-227l-85 -606h-103zM229 -258q-19 0 -44 9.5t-42 29.5l34 47q9 -12 23.5 -20.5t30.5 -8.5q23 0 37 12t14 36q0 19 -10 30.5t-27 17t-36.5 8t-37.5 2.5l63 104h60l-46 -65q25 -5 46.5 -16t34 -30.5t12.5 -47.5q0 -47 -31 -77.5
t-81 -30.5z" />
    <glyph glyph-name="uni0163" unicode="&#x163;" horiz-adv-x="367" 
d="M209 -9q-34 0 -60.5 12t-42.5 37t-16 64q0 8 0.5 16.5t1.5 18.5l68 480l106 55l-72 -518l-2 -16t-1 -17q0 -25 10.5 -38t34.5 -13q13 0 28 2.5t32 8.5l-12 -80q-19 -6 -38.5 -9t-36.5 -3zM34 417l11 76h308l-10 -76h-309zM150 -258q-19 0 -44 9.5t-42 29.5l34 47
q9 -12 23.5 -20.5t30.5 -8.5q23 0 37 12t14 36q0 19 -10 30.5t-27 17t-36.5 8t-37.5 2.5l63 104h60l-46 -65q25 -5 46.5 -16t34 -30.5t12.5 -47.5q0 -47 -31 -77.5t-81 -30.5z" />
    <glyph glyph-name="Tcaron" unicode="&#x164;" horiz-adv-x="586" 
d="M207 0l85 606h-228l13 91h558l-13 -91h-227l-85 -606h-103zM363 742l-122 159h69l62 -81l88 81h77z" />
    <glyph glyph-name="tcaron" unicode="&#x165;" horiz-adv-x="418" 
d="M209 -9q-34 0 -60.5 12t-42.5 37t-16 64q0 8 0.5 16.5t1.5 18.5l68 480l106 55l-72 -518l-2 -16t-1 -17q0 -25 10.5 -38t34.5 -13q13 0 28 2.5t32 8.5l-12 -80q-19 -6 -38.5 -9t-36.5 -3zM34 417l11 76h308l-10 -76h-309zM290 535l63 217h104l-108 -217h-59z" />
    <glyph glyph-name="Tbar" unicode="&#x166;" horiz-adv-x="586" 
d="M207 0l85 606h-228l13 91h558l-13 -91h-227l-85 -606h-103zM156 317l9 66h288l-10 -66h-287z" />
    <glyph glyph-name="tbar" unicode="&#x167;" horiz-adv-x="373" 
d="M220 -9q-33 0 -60 12t-43 37t-16 64q0 7 0.5 15t1.5 16l68 484l107 55l-73 -518q-1 -10 -1.5 -17.5t-0.5 -14.5q0 -26 10 -39t34 -13q13 0 27.5 2.5t29.5 7.5l-5 -78q-21 -7 -41 -10t-38 -3zM17 215l9 66h309l-9 -66h-309zM45 417l11 76h309l-11 -76h-309z" />
    <glyph glyph-name="Utilde" unicode="&#x168;" horiz-adv-x="656" 
d="M296 -13q-114 0 -172.5 53t-58.5 156q0 12 1 27.5t3 30.5l62 443h102l-61 -437q-2 -15 -3 -30t-1 -26q0 -61 30 -92.5t100 -31.5q60 0 99 22t61 63.5t31 100.5l60 431h101l-62 -442q-19 -135 -92.5 -201.5t-199.5 -66.5zM468 743q-25 0 -40.5 7.5t-25.5 19t-18 23
t-16.5 19.5t-21.5 8q-20 0 -35 -19.5t-20 -54.5l-56 5q8 60 38.5 92t74.5 32q23 0 37 -8t24.5 -20t18.5 -23.5t17 -19.5t21 -8q18 0 33 21.5t20 55.5l59 -4q-8 -61 -38 -93.5t-72 -32.5z" />
    <glyph glyph-name="utilde" unicode="&#x169;" horiz-adv-x="553" 
d="M206 -9q-76 0 -115.5 39.5t-39.5 112.5q0 11 1 21t2 21l42 308h99l-40 -283q-1 -11 -2 -21t-1 -21q0 -47 20.5 -69t62.5 -22q44 0 74.5 21.5t50.5 64t28 104.5l32 226h98l-70 -493h-95l13 106l20 -6q-29 -57 -76.5 -83t-103.5 -26zM388 563q-35 0 -51 15t-29 33
q-9 13 -18 20.5t-20 7.5q-19 0 -34 -20.5t-21 -54.5l-55 7q11 64 41 97t73 33q30 0 45.5 -15t26.5 -31q9 -13 18 -22.5t23 -9.5q17 0 32.5 21.5t21.5 55.5l56 -6q-10 -64 -39.5 -97.5t-69.5 -33.5z" />
    <glyph glyph-name="Umacron" unicode="&#x16a;" horiz-adv-x="656" 
d="M296 -13q-114 0 -172.5 53t-58.5 156q0 12 1 27.5t3 30.5l62 443h102l-61 -437q-2 -15 -3 -30t-1 -26q0 -61 30 -92.5t100 -31.5q60 0 99 22t61 63.5t31 100.5l60 431h101l-62 -442q-19 -135 -92.5 -201.5t-199.5 -66.5zM273 784l11 59h264l-11 -59h-264z" />
    <glyph glyph-name="umacron" unicode="&#x16b;" horiz-adv-x="553" 
d="M206 -9q-76 0 -115.5 39.5t-39.5 112.5q0 11 1 21t2 21l42 308h99l-40 -283q-1 -11 -2 -21t-1 -21q0 -47 20.5 -69t62.5 -22q44 0 74.5 21.5t50.5 64t28 104.5l32 226h98l-70 -493h-95l13 106l20 -6q-29 -57 -76.5 -83t-103.5 -26zM188 580l11 59h264l-11 -59h-264z" />
    <glyph glyph-name="Ubreve" unicode="&#x16c;" horiz-adv-x="656" 
d="M296 -13q-114 0 -172.5 53t-58.5 156q0 12 1 27.5t3 30.5l62 443h102l-61 -437q-2 -15 -3 -30t-1 -26q0 -61 30 -92.5t100 -31.5q60 0 99 22t61 63.5t31 100.5l60 431h101l-62 -442q-19 -135 -92.5 -201.5t-199.5 -66.5zM397 739q-39 0 -71.5 13.5t-50 42.5t-12.5 74h62
q-4 -35 18 -54t66 -19q38 0 66 16.5t32 56.5h62q-12 -74 -57.5 -102t-114.5 -28z" />
    <glyph glyph-name="ubreve" unicode="&#x16d;" horiz-adv-x="553" 
d="M206 -9q-76 0 -115.5 39.5t-39.5 112.5q0 11 1 21t2 21l42 308h99l-40 -283q-1 -11 -2 -21t-1 -21q0 -47 20.5 -69t62.5 -22q44 0 74.5 21.5t50.5 64t28 104.5l32 226h98l-70 -493h-95l13 106l20 -6q-29 -57 -76.5 -83t-103.5 -26zM314 553q-64 0 -106 28t-45 86
q-1 3 -0.5 10t1.5 20h58q-1 -6 -1 -12t1 -11q3 -30 25.5 -47t67.5 -17q47 0 70 23.5t28 63.5h60q-9 -72 -50.5 -108t-108.5 -36z" />
    <glyph glyph-name="Uring" unicode="&#x16e;" horiz-adv-x="656" 
d="M296 -13q-114 0 -172.5 53t-58.5 156q0 12 1 27.5t3 30.5l62 443h102l-61 -437q-2 -15 -3 -30t-1 -26q0 -61 30 -92.5t100 -31.5q60 0 99 22t61 63.5t31 100.5l60 431h101l-62 -442q-19 -135 -92.5 -201.5t-199.5 -66.5zM394 679q-43 0 -70 28.5t-27 67.5q0 32 16.5 58
t43 42.5t57.5 16.5q40 0 68 -28t28 -69q0 -31 -16 -57.5t-42.5 -42.5t-57.5 -16zM398 732q25 0 41.5 17.5t16.5 42.5q0 20 -12 33t-33 13q-27 0 -43.5 -17t-16.5 -41q0 -21 13 -34.5t34 -13.5z" />
    <glyph glyph-name="uring" unicode="&#x16f;" horiz-adv-x="553" 
d="M206 -9q-76 0 -115.5 39.5t-39.5 112.5q0 11 1 21t2 21l42 308h99l-40 -283q-1 -11 -2 -21t-1 -21q0 -47 20.5 -69t62.5 -22q44 0 74.5 21.5t50.5 64t28 104.5l32 226h98l-70 -493h-95l13 106l20 -6q-29 -57 -76.5 -83t-103.5 -26zM319 535q-42 0 -69 26.5t-27 66.5
q0 32 16.5 58t43.5 42t59 16q39 0 67 -26.5t28 -67.5q0 -31 -16.5 -57.5t-43.5 -42t-58 -15.5zM325 587q24 0 41 18t17 40q0 20 -13.5 33.5t-33.5 13.5q-24 0 -41 -17.5t-17 -40.5q0 -19 12.5 -33t34.5 -14z" />
    <glyph glyph-name="Uhungarumlaut" unicode="&#x170;" horiz-adv-x="656" 
d="M296 -13q-114 0 -172.5 53t-58.5 156q0 12 1 27.5t3 30.5l62 443h102l-61 -437q-2 -15 -3 -30t-1 -26q0 -61 30 -92.5t100 -31.5q60 0 99 22t61 63.5t31 100.5l60 431h101l-62 -442q-19 -135 -92.5 -201.5t-199.5 -66.5zM453 760l107 141h106l-135 -141h-78zM272 760
l106 141h90l-121 -141h-75z" />
    <glyph glyph-name="uhungarumlaut" unicode="&#x171;" horiz-adv-x="553" 
d="M206 -9q-76 0 -115.5 39.5t-39.5 112.5q0 11 1 21t2 21l42 308h99l-40 -283q-1 -11 -2 -21t-1 -21q0 -47 20.5 -69t62.5 -22q44 0 74.5 21.5t50.5 64t28 104.5l32 226h98l-70 -493h-95l13 106l20 -6q-29 -57 -76.5 -83t-103.5 -26zM368 556l107 141h106l-135 -141h-78z
M187 556l106 141h90l-121 -141h-75z" />
    <glyph glyph-name="Uogonek" unicode="&#x172;" horiz-adv-x="656" 
d="M296 -13q-114 0 -172.5 53t-58.5 156q0 12 1 27.5t3 30.5l62 443h102l-61 -437q-2 -15 -3 -30t-1 -26q0 -61 30 -92.5t100 -31.5q60 0 99 22t61 63.5t31 100.5l60 431h101l-62 -442q-19 -135 -92.5 -201.5t-199.5 -66.5zM314 -218q-44 0 -74 25t-30 67q0 32 13.5 56
t33.5 42.5t39 29.5l77 -2q-14 -7 -31 -18.5t-34 -26.5t-28 -33t-11 -38q0 -22 13 -31.5t30 -9.5q13 0 26 4.5t24 13.5l35 -49q-17 -13 -37.5 -21.5t-45.5 -8.5z" />
    <glyph glyph-name="uogonek" unicode="&#x173;" horiz-adv-x="553" 
d="M206 -9q-76 0 -115.5 39.5t-39.5 112.5q0 11 1 21t2 21l42 308h99l-40 -283q-1 -11 -2 -21t-1 -21q0 -47 20.5 -69t62.5 -22q44 0 74.5 21.5t50.5 64t28 104.5l32 226h98l-70 -493h-95l13 106l20 -6q-29 -57 -76.5 -83t-103.5 -26zM389 -218q-44 0 -74 25t-30 67
q0 32 13.5 56t33.5 42.5t39 29.5l77 -2q-14 -7 -31 -18.5t-34 -26.5t-28 -33t-11 -38q0 -22 13 -31.5t30 -9.5q13 0 26 4.5t24 13.5l35 -49q-17 -13 -37.5 -21.5t-45.5 -8.5z" />
    <glyph glyph-name="Wcircumflex" unicode="&#x174;" horiz-adv-x="964" 
d="M191 0l-107 697h105l78 -542l222 503h101l78 -503l233 542h108l-304 -697h-101l-89 537h17l-241 -537h-100zM398 749l176 166l131 -166h-78l-61 82l-85 -82h-83z" />
    <glyph glyph-name="wcircumflex" unicode="&#x175;" horiz-adv-x="750" 
d="M139 0l-79 493h103l45 -344l158 344h85l60 -342l144 342h105l-218 -493h-87l-62 356l-163 -356h-91zM269 545l171 166l125 -166h-74l-60 82l-82 -82h-80z" />
    <glyph glyph-name="Ycircumflex" unicode="&#x176;" horiz-adv-x="610" 
d="M220 0l38 270l-185 427h114l131 -325l228 325h118l-304 -427l-38 -270h-102zM221 749l176 166l131 -166h-78l-61 82l-85 -82h-83z" />
    <glyph glyph-name="ycircumflex" unicode="&#x177;" horiz-adv-x="526" 
d="M50 -203l130 232l-124 464h106l82 -366l188 366h108l-381 -696h-109zM157 545l171 166l125 -166h-74l-60 82l-82 -82h-80z" />
    <glyph glyph-name="Ydieresis" unicode="&#x178;" horiz-adv-x="610" 
d="M220 0l38 270l-185 427h114l131 -325l228 325h118l-304 -427l-38 -270h-102zM418 782l18 119h108l-18 -119h-108zM236 782l17 119h107l-16 -119h-108z" />
    <glyph glyph-name="Zacute" unicode="&#x179;" horiz-adv-x="590" 
d="M-4 0l10 85l490 552l11 -31h-402l12 91h492l-11 -85l-479 -540l-12 19h429l-13 -91h-527zM326 760l112 141h105l-146 -141h-71z" />
    <glyph glyph-name="zacute" unicode="&#x17a;" horiz-adv-x="472" 
d="M1 0l9 68l347 367l7 -24h-291l11 82h382l-10 -72l-344 -369l-6 31h301l-12 -83h-394zM237 556l112 141h105l-146 -141h-71z" />
    <glyph glyph-name="Zdotaccent" unicode="&#x17b;" horiz-adv-x="590" 
d="M-4 0l10 85l490 552l11 -31h-402l12 91h492l-11 -85l-479 -540l-12 19h429l-13 -91h-527zM316 782l17 119h110l-16 -119h-111z" />
    <glyph glyph-name="zdotaccent" unicode="&#x17c;" horiz-adv-x="472" 
d="M1 0l9 68l347 367l7 -24h-291l11 82h382l-10 -72l-344 -369l-6 31h301l-12 -83h-394zM227 578l17 119h110l-16 -119h-111z" />
    <glyph glyph-name="Zcaron" unicode="&#x17d;" horiz-adv-x="590" 
d="M-4 0l10 85l490 552l11 -31h-402l12 91h492l-11 -85l-479 -540l-12 19h429l-13 -91h-527zM368 742l-122 159h69l62 -81l88 81h77z" />
    <glyph glyph-name="zcaron" unicode="&#x17e;" horiz-adv-x="472" 
d="M1 0l9 68l347 367l7 -24h-291l11 82h382l-10 -72l-344 -369l-6 31h301l-12 -83h-394zM278 538l-122 159h69l62 -81l88 81h77z" />
    <glyph glyph-name="uni018F" unicode="&#x18f;" horiz-adv-x="751" 
d="M343 -13q-90 0 -155 35t-99 100.5t-34 156.5q0 18 1.5 37t3.5 37l101 -4q-2 -17 -3.5 -33t-1.5 -30q0 -98 49.5 -150t141.5 -52q73 0 129.5 32t93 93t47.5 148q2 16 3.5 31.5t1.5 29.5q0 96 -49 146t-143 50q-77 0 -135.5 -35t-94.5 -106l-90 42q51 96 133 146t190 50
q92 0 157 -35t99 -100.5t34 -157.5q0 -16 -1.5 -35.5t-4.5 -39.5q-15 -110 -66 -190t-129.5 -123t-178.5 -43zM101 273l11 78h581l-11 -78h-581z" />
    <glyph glyph-name="florin" unicode="&#x192;" horiz-adv-x="560" 
d="M24 -219l5 75q50 0 81.5 14t50 45.5t25.5 84.5l58 419h-86l11 74h85l9 66q10 66 49.5 109.5t102.5 43.5q39 0 69 -13.5t51 -37.5l-59 -59q-12 14 -26 20.5t-26 6.5q-32 0 -53 -22.5t-26 -59.5l-7 -54h121l-10 -74h-121l-62 -432q-9 -71 -40 -117t-81.5 -67.5
t-120.5 -21.5z" />
    <glyph glyph-name="uni019D" unicode="&#x19d;" horiz-adv-x="680" 
d="M40 0l98 697h105l266 -553h-20l78 553h101l-98 -697h-107l-263 555h20l-78 -555h-102zM-65 -178l4 68q46 0 69.5 26.5t27.5 55.5q1 3 2.5 12.5t2.5 17.5l101 -2l-4 -29q-6 -42 -29 -75.5t-66 -53.5t-108 -20z" />
    <glyph glyph-name="Ohorn" unicode="&#x1a0;" horiz-adv-x="748" 
d="M341 -13q-88 0 -152 36.5t-98.5 104t-34.5 158.5q0 81 25.5 157t74 136.5t118.5 95.5t158 35q89 0 153 -36.5t99 -103.5t35 -159q0 -83 -26 -159t-75 -135.5t-119 -94.5t-158 -35zM346 84q65 0 115 26.5t85 72.5t53 103.5t18 120.5q0 95 -50 150.5t-139 55.5
q-66 0 -116.5 -27t-84.5 -73.5t-52 -104t-18 -118.5q0 -64 22 -110.5t64.5 -71t102.5 -24.5zM648 495l4 62q44 0 67 26.5t30 75.5l5 38h67l-7 -46q-9 -68 -48.5 -112t-117.5 -44z" />
    <glyph glyph-name="ohorn" unicode="&#x1a1;" horiz-adv-x="575" 
d="M256 -9q-64 0 -112 28t-75 77t-27 114q0 58 20 110.5t57 93t87.5 64.5t111.5 24q65 0 112.5 -27.5t74 -76t26.5 -113.5q0 -59 -20.5 -112t-57.5 -94t-87 -64.5t-110 -23.5zM260 78q42 0 74 17.5t54.5 47t34.5 66.5t12 76q0 59 -31.5 95t-89.5 36q-43 0 -76 -18t-55 -48.5
t-33.5 -66.5t-11.5 -74q0 -59 32 -95t90 -36zM459 291l4 62q44 0 67 26.5t30 75.5l5 38h67l-7 -46q-9 -68 -48.5 -112t-117.5 -44z" />
    <glyph glyph-name="Uhorn" unicode="&#x1af;" horiz-adv-x="719" 
d="M296 -13q-114 0 -172.5 53t-58.5 156q0 12 1 27.5t3 30.5l62 443h102l-61 -437q-2 -15 -3 -30t-1 -26q0 -61 30 -92.5t100 -31.5q60 0 99 22t61 63.5t31 100.5l60 431h101l-62 -442q-19 -135 -92.5 -201.5t-199.5 -66.5zM591 495l4 62q44 0 67 26.5t30 75.5l5 38h67
l-7 -46q-9 -68 -48.5 -112t-117.5 -44z" />
    <glyph glyph-name="uhorn" unicode="&#x1b0;" horiz-adv-x="553" 
d="M206 -9q-76 0 -115.5 39.5t-39.5 112.5q0 11 1 21t2 21l42 308h99l-40 -283q-1 -11 -2 -21t-1 -21q0 -47 20.5 -69t62.5 -22q44 0 74.5 21.5t50.5 64t28 104.5l32 226h98l-70 -493h-95l13 106l20 -6q-29 -57 -76.5 -83t-103.5 -26zM475 291l4 62q44 0 67 26.5t30 75.5
l5 38h67l-7 -46q-9 -68 -48.5 -112t-117.5 -44z" />
    <glyph glyph-name="uni01CD" unicode="&#x1cd;" horiz-adv-x="649" 
d="M-21 0l368 697h80l171 -697h-108l-121 549l-277 -549h-113zM160 155l45 91h237l21 -91h-303zM396 742l-122 159h69l62 -81l88 81h77z" />
    <glyph glyph-name="uni01CE" unicode="&#x1ce;" horiz-adv-x="584" 
d="M235 -9q-59 0 -102 27.5t-66 75.5t-23 110q0 58 18.5 111t52.5 95.5t80.5 67t102.5 24.5q46 0 80.5 -17.5t56 -48.5t24.5 -74l-26 -11l22 142h94l-69 -493h-95l17 142l27 -12q-19 -49 -48.5 -79t-66 -45t-79.5 -15zM258 81q40 0 72 18t54 47t33.5 65t11.5 74
q0 39 -13.5 67.5t-39 44t-62.5 15.5q-40 0 -72 -17.5t-54.5 -46.5t-34.5 -65t-12 -74q0 -39 14.5 -68t40.5 -44.5t62 -15.5zM335 538l-122 159h69l62 -81l88 81h77z" />
    <glyph glyph-name="uni01CF" unicode="&#x1cf;" horiz-adv-x="252" 
d="M40 0l98 697h102l-98 -697h-102zM197 742l-122 159h69l62 -81l88 81h77z" />
    <glyph glyph-name="uni01D0" unicode="&#x1d0;" horiz-adv-x="232" 
d="M32 0l69 493h99l-70 -493h-98zM158 538l-122 159h69l62 -81l88 81h77z" />
    <glyph glyph-name="uni01D1" unicode="&#x1d1;" horiz-adv-x="748" 
d="M341 -13q-88 0 -152 36.5t-98.5 104t-34.5 158.5q0 81 25.5 157t74 136.5t118.5 95.5t158 35q89 0 153 -36.5t99 -103.5t35 -159q0 -83 -26 -159t-75 -135.5t-119 -94.5t-158 -35zM346 84q65 0 115 26.5t85 72.5t53 103.5t18 120.5q0 95 -50 150.5t-139 55.5
q-66 0 -116.5 -27t-84.5 -73.5t-52 -104t-18 -118.5q0 -64 22 -110.5t64.5 -71t102.5 -24.5zM443 742l-122 159h69l62 -81l88 81h77z" />
    <glyph glyph-name="uni01D2" unicode="&#x1d2;" horiz-adv-x="575" 
d="M256 -9q-64 0 -112 28t-75 77t-27 114q0 58 20 110.5t57 93t87.5 64.5t111.5 24q65 0 112.5 -27.5t74 -76t26.5 -113.5q0 -59 -20.5 -112t-57.5 -94t-87 -64.5t-110 -23.5zM260 78q42 0 74 17.5t54.5 47t34.5 66.5t12 76q0 59 -31.5 95t-89.5 36q-43 0 -76 -18t-55 -48.5
t-33.5 -66.5t-11.5 -74q0 -59 32 -95t90 -36zM329 538l-122 159h69l62 -81l88 81h77z" />
    <glyph glyph-name="uni01D3" unicode="&#x1d3;" horiz-adv-x="656" 
d="M296 -13q-114 0 -172.5 53t-58.5 156q0 12 1 27.5t3 30.5l62 443h102l-61 -437q-2 -15 -3 -30t-1 -26q0 -61 30 -92.5t100 -31.5q60 0 99 22t61 63.5t31 100.5l60 431h101l-62 -442q-19 -135 -92.5 -201.5t-199.5 -66.5zM399 742l-122 159h69l62 -81l88 81h77z" />
    <glyph glyph-name="uni01D4" unicode="&#x1d4;" horiz-adv-x="553" 
d="M206 -9q-76 0 -115.5 39.5t-39.5 112.5q0 11 1 21t2 21l42 308h99l-40 -283q-1 -11 -2 -21t-1 -21q0 -47 20.5 -69t62.5 -22q44 0 74.5 21.5t50.5 64t28 104.5l32 226h98l-70 -493h-95l13 106l20 -6q-29 -57 -76.5 -83t-103.5 -26zM313 538l-122 159h69l62 -81l88 81h77z
" />
    <glyph glyph-name="Gcaron" unicode="&#x1e6;" horiz-adv-x="732" 
d="M334 -13q-85 0 -147.5 36.5t-96.5 103.5t-34 157q0 84 25.5 160t74.5 136t118.5 95t156.5 35q109 0 180.5 -54.5t93.5 -148.5l-98 -30q-15 66 -61.5 101t-117.5 35q-66 0 -116.5 -27.5t-85 -73.5t-52.5 -104t-18 -121q0 -95 49.5 -149t137.5 -54q39 0 78.5 11t73.5 36
t58 67.5t33 105.5l6 45l13 -70h-196l12 91h265l-52 -370h-89l3 128l16 -15q-24 -44 -60.5 -72.5t-80 -41t-89.5 -12.5zM442 742l-122 159h69l62 -81l88 81h77z" />
    <glyph glyph-name="gcaron" unicode="&#x1e7;" horiz-adv-x="585" 
d="M219 -213q-54 0 -94.5 16t-67.5 43t-44 61l81 55q15 -38 46 -64.5t80 -26.5q35 0 70 12t61.5 43.5t33.5 89.5l16 121l13 -13q-32 -61 -79.5 -89t-104.5 -28t-98.5 27t-64 74t-22.5 106q0 57 18.5 108t51.5 91.5t77.5 64.5t98.5 24q65 0 105 -33t51 -87l-11 -10l18 121h96
l-68 -483q-10 -76 -45 -125t-90 -73.5t-128 -24.5zM262 98q36 0 66.5 14.5t53.5 39.5t35.5 59t12.5 74q0 37 -14 66t-40.5 45t-62.5 16q-37 0 -68 -15.5t-54 -42t-35.5 -60.5t-12.5 -71t14.5 -65t41.5 -44t63 -16zM338 538l-122 159h69l62 -81l88 81h77z" />
    <glyph glyph-name="uni01EA" unicode="&#x1ea;" horiz-adv-x="748" 
d="M341 -13q-88 0 -152 36.5t-98.5 104t-34.5 158.5q0 81 25.5 157t74 136.5t118.5 95.5t158 35q89 0 153 -36.5t99 -103.5t35 -159q0 -83 -26 -159t-75 -135.5t-119 -94.5t-158 -35zM346 84q65 0 115 26.5t85 72.5t53 103.5t18 120.5q0 95 -50 150.5t-139 55.5
q-66 0 -116.5 -27t-84.5 -73.5t-52 -104t-18 -118.5q0 -64 22 -110.5t64.5 -71t102.5 -24.5zM357 -218q-44 0 -74 25t-30 67q0 32 13.5 56t33.5 42.5t39 29.5l77 -2q-14 -7 -31 -18.5t-34 -26.5t-28 -33t-11 -38q0 -22 13 -31.5t30 -9.5q13 0 26 4.5t24 13.5l35 -49
q-17 -13 -37.5 -21.5t-45.5 -8.5z" />
    <glyph glyph-name="uni01EB" unicode="&#x1eb;" horiz-adv-x="575" 
d="M256 -9q-64 0 -112 28t-75 77t-27 114q0 58 20 110.5t57 93t87.5 64.5t111.5 24q65 0 112.5 -27.5t74 -76t26.5 -113.5q0 -59 -20.5 -112t-57.5 -94t-87 -64.5t-110 -23.5zM260 78q42 0 74 17.5t54.5 47t34.5 66.5t12 76q0 59 -31.5 95t-89.5 36q-43 0 -76 -18t-55 -48.5
t-33.5 -66.5t-11.5 -74q0 -59 32 -95t90 -36zM259 -218q-44 0 -74 25t-30 67q0 32 13.5 56t33.5 42.5t39 29.5l77 -2q-14 -7 -31 -18.5t-34 -26.5t-28 -33t-11 -38q0 -22 13 -31.5t30 -9.5q13 0 26 4.5t24 13.5l35 -49q-17 -13 -37.5 -21.5t-45.5 -8.5z" />
    <glyph glyph-name="Aringacute" unicode="&#x1fa;" horiz-adv-x="649" 
d="M-21 0l368 697h80l171 -697h-108l-121 549l-277 -549h-113zM160 155l45 91h237l21 -91h-303zM383 646q-43 0 -70 28.5t-27 67.5q0 32 16.5 58t43 42.5t57.5 16.5q40 0 68 -28t28 -69q0 -31 -16 -57.5t-42.5 -42.5t-57.5 -16zM387 699q25 0 41.5 17.5t16.5 42.5
q0 20 -12 33t-33 13q-27 0 -43.5 -17t-16.5 -41q0 -21 13 -34.5t34 -13.5zM410 805l112 141h105l-146 -141h-71z" />
    <glyph glyph-name="aringacute" unicode="&#x1fb;" horiz-adv-x="584" 
d="M235 -9q-59 0 -102 27.5t-66 75.5t-23 110q0 58 18.5 111t52.5 95.5t80.5 67t102.5 24.5q46 0 80.5 -17.5t56 -48.5t24.5 -74l-26 -11l22 142h94l-69 -493h-95l17 142l27 -12q-19 -49 -48.5 -79t-66 -45t-79.5 -15zM258 81q40 0 72 18t54 47t33.5 65t11.5 74
q0 39 -13.5 67.5t-39 44t-62.5 15.5q-40 0 -72 -17.5t-54.5 -46.5t-34.5 -65t-12 -74q0 -39 14.5 -68t40.5 -44.5t62 -15.5zM340 535q-42 0 -69 26.5t-27 66.5q0 32 16.5 58t43.5 42t59 16q39 0 67 -26.5t28 -67.5q0 -31 -16.5 -57.5t-43.5 -42t-58 -15.5zM346 587
q24 0 41 18t17 40q0 20 -13.5 33.5t-33.5 13.5q-24 0 -41 -17.5t-17 -40.5q0 -19 12.5 -33t34.5 -14zM367 694l112 141h105l-146 -141h-71z" />
    <glyph glyph-name="AEacute" unicode="&#x1fc;" horiz-adv-x="907" 
d="M-21 0l368 697h576l-13 -91h-360l-29 -210h314l-13 -92h-315l-29 -213h360l-13 -91h-463l85 608h-49l-306 -608h-113zM150 155l46 93h226l-13 -93h-259zM484 760l112 141h105l-146 -141h-71z" />
    <glyph glyph-name="aeacute" unicode="&#x1fd;" horiz-adv-x="869" 
d="M201 -9q-48 0 -86.5 16.5t-60.5 48.5t-22 78q0 52 27 86.5t80 51.5t130 17h122l3 23q6 35 -4 58.5t-33 35t-57 11.5q-39 0 -77.5 -16t-72.5 -54l-67 63q55 52 110.5 72t114.5 20q67 0 106.5 -24t52.5 -67q34 44 77 66t98 22q65 0 106 -25.5t60.5 -68.5t19.5 -96
q0 -24 -3.5 -48.5t-9.5 -48.5h-342q-1 -7 -0.5 -9.5t0.5 -6.5q2 -57 27 -86t83 -29q39 0 72 13.5t63 42.5l67 -63q-46 -43 -93.5 -63t-107.5 -20q-73 0 -113.5 30.5t-57.5 89.5h-11q-27 -43 -58.5 -69.5t-67.5 -38.5t-75 -12zM217 73q37 0 71.5 15.5t59.5 47t33 77.5l7 43
l28 -37h-146q-47 0 -78 -9t-45.5 -27t-14.5 -44q0 -32 23 -49t62 -17zM736 277q2 8 2.5 16.5t0.5 16.5q0 28 -10.5 53t-33.5 40t-59 15q-44 0 -76 -19.5t-51.5 -49.5t-26.5 -64l269 4zM436 556l112 141h105l-146 -141h-71z" />
    <glyph glyph-name="Oslashacute" unicode="&#x1fe;" horiz-adv-x="748" 
d="M341 -13q-88 0 -152 36.5t-98.5 104t-34.5 158.5q0 81 25.5 157t74 136.5t118.5 95.5t158 35q89 0 153 -36.5t99 -103.5t35 -159q0 -83 -26 -159t-75 -135.5t-119 -94.5t-158 -35zM346 84q65 0 115 26.5t85 72.5t53 103.5t18 120.5q0 95 -50 150.5t-139 55.5
q-66 0 -116.5 -27t-84.5 -73.5t-52 -104t-18 -118.5q0 -64 22 -110.5t64.5 -71t102.5 -24.5zM49 0l605 697h70l-605 -697h-70zM402 760l112 141h105l-146 -141h-71z" />
    <glyph glyph-name="oslashacute" unicode="&#x1ff;" horiz-adv-x="575" 
d="M256 -9q-64 0 -112 28t-75 77t-27 114q0 58 20 110.5t57 93t87.5 64.5t111.5 24q65 0 112.5 -27.5t74 -76t26.5 -113.5q0 -59 -20.5 -112t-57.5 -94t-87 -64.5t-110 -23.5zM260 78q42 0 74 17.5t54.5 47t34.5 66.5t12 76q0 59 -31.5 95t-89.5 36q-43 0 -76 -18t-55 -48.5
t-33.5 -66.5t-11.5 -74q0 -59 32 -95t90 -36zM67 -46l390 585h50l-390 -585h-50zM287 556l112 141h105l-146 -141h-71z" />
    <glyph glyph-name="uni0218" unicode="&#x218;" horiz-adv-x="568" 
d="M271 -12q-71 0 -125.5 26t-85.5 72.5t-33 108.5l102 20q2 -69 44.5 -102.5t104.5 -33.5q44 0 75.5 15.5t48 42t16.5 59.5t-16 54.5t-44.5 37.5t-67.5 32q-59 25 -97.5 52.5t-57 62t-18.5 76.5q0 54 27 99t76.5 72.5t115.5 27.5q71 0 126 -32.5t79 -92.5l-86 -44
q-16 40 -48 59.5t-72 19.5q-35 0 -61.5 -13.5t-41 -37t-14.5 -53.5q0 -28 13.5 -47t42.5 -34t71 -32q58 -23 97 -51.5t58.5 -64.5t19.5 -84q0 -63 -32 -112t-88 -76t-129 -27zM120 -224l77 170h103l-120 -170h-60z" />
    <glyph glyph-name="uni0219" unicode="&#x219;" horiz-adv-x="476" 
d="M210 -9q-54 0 -93 16t-65 41t-40 51l73 53q15 -37 48 -59t79 -22q31 0 55.5 9.5t39 27.5t14.5 41q0 19 -12 31.5t-34 21.5t-55 17q-25 7 -51 16t-48 23t-35 35.5t-13 53.5q0 46 24.5 80.5t67.5 54.5t100 20q58 0 103 -25t66 -71l-66 -42q-15 33 -43 46.5t-63 13.5
q-39 0 -68 -17t-29 -48q0 -22 20.5 -33.5t66.5 -23.5q39 -9 77.5 -23t63.5 -40.5t25 -74.5q0 -52 -26.5 -90.5t-73.5 -60.5t-108 -22zM74 -224l77 170h103l-120 -170h-60z" />
    <glyph glyph-name="uni021A" unicode="&#x21a;" horiz-adv-x="586" 
d="M207 0l85 606h-228l13 91h558l-13 -91h-227l-85 -606h-103zM129 -224l77 170h103l-120 -170h-60z" />
    <glyph glyph-name="uni021B" unicode="&#x21b;" horiz-adv-x="367" 
d="M209 -9q-34 0 -60.5 12t-42.5 37t-16 64q0 8 0.5 16.5t1.5 18.5l68 480l106 55l-72 -518l-2 -16t-1 -17q0 -25 10.5 -38t34.5 -13q13 0 28 2.5t32 8.5l-12 -80q-19 -6 -38.5 -9t-36.5 -3zM34 417l11 76h308l-10 -76h-309zM51 -224l77 170h103l-120 -170h-60z" />
    <glyph glyph-name="uni0232" unicode="&#x232;" horiz-adv-x="610" 
d="M220 0l38 270l-185 427h114l131 -325l228 325h118l-304 -427l-38 -270h-102zM251 784l11 59h264l-11 -59h-264z" />
    <glyph glyph-name="uni0233" unicode="&#x233;" horiz-adv-x="526" 
d="M50 -203l130 232l-124 464h106l82 -366l188 366h108l-381 -696h-109zM179 580l11 59h264l-11 -59h-264z" />
    <glyph glyph-name="uni0237" unicode="&#x237;" horiz-adv-x="232" 
d="M-4 -213q-20 0 -40.5 4.5t-40.5 10.5l7 83q14 -3 25 -5t17 -2q24 0 40 13.5t20 45.5l77 556h99l-83 -587q-8 -63 -40.5 -91t-80.5 -28z" />
    <glyph glyph-name="uni0259" unicode="&#x259;" horiz-adv-x="542" 
d="M291 502q72 0 118 -28.5t68 -75.5t22 -105q0 -56 -17 -109.5t-51 -97t-82 -69.5t-111 -26q-68 0 -111 27.5t-64 73t-21 99.5q0 21 3 45.5t9 44.5h349v12v11q-1 53 -32 81.5t-84 28.5q-43 0 -77.5 -13.5t-66.5 -42.5l-56 66q45 40 94.5 59t109.5 19zM135 226
q-3 -15 -4 -25t-1 -26q0 -26 11 -49.5t35 -38.5t61 -15q43 0 75 19.5t53 50.5t28 65h-289z" />
    <glyph glyph-name="uni0272" unicode="&#x272;" horiz-adv-x="554" 
d="M36 0l69 493h96l-15 -122l-16 16q18 42 46 67t61.5 36.5t69.5 11.5q75 0 117 -37.5t42 -105.5q0 -7 -0.5 -15t-2.5 -18l-46 -326h-98l42 298q1 8 1.5 16t0.5 16q0 24 -7 43.5t-26 31.5t-53 12q-40 0 -66.5 -16t-43.5 -42t-26 -58t-14 -64l-34 -237h-97zM3 -213
q-19 0 -37 4t-37 11l6 77q13 -4 23 -5.5t14 -1.5q23 0 36 13.5t16 39.5l12 75h97l-13 -94q-9 -65 -41.5 -92t-75.5 -27z" />
    <glyph glyph-name="circumflex" unicode="&#x2c6;" horiz-adv-x="395" 
d="M85 545l171 166l125 -166h-74l-60 82l-82 -82h-80z" />
    <glyph glyph-name="caron" unicode="&#x2c7;" horiz-adv-x="395" 
d="M229 538l-122 159h69l62 -81l88 81h77z" />
    <glyph glyph-name="breve" unicode="&#x2d8;" horiz-adv-x="398" 
d="M257 553q-64 0 -106 28t-45 86q-1 3 -0.5 10t1.5 20h58q-1 -6 -1 -12t1 -11q3 -30 25.5 -47t67.5 -17q47 0 70 23.5t28 63.5h60q-9 -72 -50.5 -108t-108.5 -36z" />
    <glyph glyph-name="dotaccent" unicode="&#x2d9;" horiz-adv-x="200" 
d="M90 578l17 119h110l-16 -119h-111z" />
    <glyph glyph-name="ring" unicode="&#x2da;" horiz-adv-x="304" 
d="M195 535q-42 0 -69 26.5t-27 66.5q0 32 16.5 58t43.5 42t59 16q39 0 67 -26.5t28 -67.5q0 -31 -16.5 -57.5t-43.5 -42t-58 -15.5zM201 587q24 0 41 18t17 40q0 20 -13.5 33.5t-33.5 13.5q-24 0 -41 -17.5t-17 -40.5q0 -19 12.5 -33t34.5 -14z" />
    <glyph glyph-name="ogonek" unicode="&#x2db;" horiz-adv-x="302" 
d="M97 -218q-44 0 -74 25t-30 67q0 32 13.5 56t33.5 42.5t39 29.5l77 -2q-14 -7 -31 -18.5t-34 -26.5t-28 -33t-11 -38q0 -22 13 -31.5t30 -9.5q13 0 26 4.5t24 13.5l35 -49q-17 -13 -37.5 -21.5t-45.5 -8.5z" />
    <glyph glyph-name="tilde" unicode="&#x2dc;" horiz-adv-x="409" 
d="M317 563q-35 0 -51 15t-29 33q-9 13 -18 20.5t-20 7.5q-19 0 -34 -20.5t-21 -54.5l-55 7q11 64 41 97t73 33q30 0 45.5 -15t26.5 -31q9 -13 18 -22.5t23 -9.5q17 0 32.5 21.5t21.5 55.5l56 -6q-10 -64 -39.5 -97.5t-69.5 -33.5z" />
    <glyph glyph-name="hungarumlaut" unicode="&#x2dd;" horiz-adv-x="475" 
d="M268 556l107 141h106l-135 -141h-78zM87 556l106 141h90l-121 -141h-75z" />
    <glyph glyph-name="uni02F5" unicode="&#x2f5;" horiz-adv-x="532" 
d="M210 336l-122 157h104l89 -157h-71zM421 336l-121 157h102l89 -157h-70z" />
    <glyph glyph-name="uni02F6" unicode="&#x2f6;" horiz-adv-x="532" 
d="M63 336l134 157h107l-165 -157h-76zM275 336l133 157h106l-165 -157h-74z" />
    <glyph glyph-name="gravecomb" unicode="&#x300;" 
d="M233 556l-126 141h102l96 -141h-72z" />
    <glyph glyph-name="acutecomb" unicode="&#x301;" 
d="M87 556l112 141h105l-146 -141h-71z" />
    <glyph glyph-name="uni0302" unicode="&#x302;" 
d="M85 545l171 166l125 -166h-74l-60 82l-82 -82h-80z" />
    <glyph glyph-name="tildecomb" unicode="&#x303;" 
d="M317 563q-35 0 -51 15t-29 33q-9 13 -18 20.5t-20 7.5q-19 0 -34 -20.5t-21 -54.5l-55 7q11 64 41 97t73 33q30 0 45.5 -15t26.5 -31q9 -13 18 -22.5t23 -9.5q17 0 32.5 21.5t21.5 55.5l56 -6q-10 -64 -39.5 -97.5t-69.5 -33.5z" />
    <glyph glyph-name="uni0304" unicode="&#x304;" 
d="M90 580l11 59h264l-11 -59h-264z" />
    <glyph glyph-name="uni0306" unicode="&#x306;" 
d="M257 553q-64 0 -106 28t-45 86q-1 3 -0.5 10t1.5 20h58q-1 -6 -1 -12t1 -11q3 -30 25.5 -47t67.5 -17q47 0 70 23.5t28 63.5h60q-9 -72 -50.5 -108t-108.5 -36z" />
    <glyph glyph-name="uni0307" unicode="&#x307;" 
d="M90 578l17 119h110l-16 -119h-111z" />
    <glyph glyph-name="uni0308" unicode="&#x308;" 
d="M272 578l18 119h108l-18 -119h-108zM90 578l17 119h107l-16 -119h-108z" />
    <glyph glyph-name="hookabovecomb" unicode="&#x309;" 
d="M122 521l-7 35q18 4 35 9t29.5 14.5t14.5 24.5q3 22 -19.5 30t-56.5 8h-18l10 56h11q66 0 105 -25.5t35 -68.5q-4 -32 -25 -48.5t-51.5 -23t-62.5 -11.5z" />
    <glyph glyph-name="uni030A" unicode="&#x30a;" 
d="M195 535q-42 0 -69 26.5t-27 66.5q0 32 16.5 58t43.5 42t59 16q39 0 67 -26.5t28 -67.5q0 -31 -16.5 -57.5t-43.5 -42t-58 -15.5zM201 587q24 0 41 18t17 40q0 20 -13.5 33.5t-33.5 13.5q-24 0 -41 -17.5t-17 -40.5q0 -19 12.5 -33t34.5 -14z" />
    <glyph glyph-name="uni030B" unicode="&#x30b;" 
d="M268 556l107 141h106l-135 -141h-78zM87 556l106 141h90l-121 -141h-75z" />
    <glyph glyph-name="uni030C" unicode="&#x30c;" 
d="M229 538l-122 159h69l62 -81l88 81h77z" />
    <glyph glyph-name="uni030F" unicode="&#x30f;" 
d="M216 539l-109 158h98l79 -158h-68zM362 539l-95 158h84l79 -158h-68z" />
    <glyph glyph-name="uni0312" unicode="&#x312;" 
d="M87 553l128 152h61l-86 -152h-103z" />
    <glyph glyph-name="uni031B" unicode="&#x31b;" 
d="M83 495l4 62q44 0 67 26.5t30 75.5l5 38h67l-7 -46q-9 -68 -48.5 -112t-117.5 -44z" />
    <glyph glyph-name="dotbelowcomb" unicode="&#x323;" 
d="M-3 -174l6 108h111l-6 -108h-111z" />
    <glyph glyph-name="uni0326" unicode="&#x326;" 
d="M-23 -224l77 170h103l-120 -170h-60z" />
    <glyph glyph-name="uni0327" unicode="&#x327;" 
d="M66 -258q-19 0 -44 9.5t-42 29.5l34 47q9 -12 23.5 -20.5t30.5 -8.5q23 0 37 12t14 36q0 19 -10 30.5t-27 17t-36.5 8t-37.5 2.5l63 104h60l-46 -65q25 -5 46.5 -16t34 -30.5t12.5 -47.5q0 -47 -31 -77.5t-81 -30.5z" />
    <glyph glyph-name="uni0328" unicode="&#x328;" 
d="M97 -218q-44 0 -74 25t-30 67q0 32 13.5 56t33.5 42.5t39 29.5l77 -2q-14 -7 -31 -18.5t-34 -26.5t-28 -33t-11 -38q0 -22 13 -31.5t30 -9.5q13 0 26 4.5t24 13.5l35 -49q-17 -13 -37.5 -21.5t-45.5 -8.5z" />
    <glyph glyph-name="uni0335" unicode="&#x335;" 
d="M45 258l9 66h288l-10 -66h-287z" />
    <glyph glyph-name="uni0336" unicode="&#x336;" 
d="M51 252l5 58h647l-5 -58h-647z" />
    <glyph glyph-name="uni0337" unicode="&#x337;" 
d="M50 224l8 100l236 179l-8 -99z" />
    <glyph glyph-name="uni0338" unicode="&#x338;" 
d="M9 0l390 585h50l-390 -585h-50z" />
    <glyph glyph-name="uni0374" unicode="&#x374;" horiz-adv-x="307" 
d="M59 416l120 281h115l-169 -281h-66z" />
    <glyph glyph-name="uni0375" unicode="&#x375;" horiz-adv-x="306" 
d="M55 5l169 282h66l-120 -282h-115z" />
    <glyph glyph-name="uni037E" unicode="&#x37e;" horiz-adv-x="240" 
d="M-49 -152l125 282h111l-168 -282h-68zM94 349l18 122h111l-17 -122h-112z" />
    <glyph glyph-name="tonos" unicode="&#x384;" horiz-adv-x="246" 
d="M87 556l81 141h95l-103 -141h-73z" />
    <glyph glyph-name="dieresistonos" unicode="&#x385;" horiz-adv-x="457" 
d="M90 578l17 119h102l-16 -119h-103zM355 578l17 119h103l-17 -119h-103zM290 591l-49 11l74 208l75 -15z" />
    <glyph glyph-name="anoteleia" unicode="&#x387;" horiz-adv-x="352" 
d="M50 132l33 231h230l-32 -231h-231z" />
    <glyph glyph-name="uni0394" unicode="&#x394;" horiz-adv-x="722" 
d="M15 0l369 697h79l173 -697h-621zM176 94h328l-98 455z" />
    <glyph glyph-name="uni03A9" unicode="&#x3a9;" horiz-adv-x="822" 
d="M10 0l13 96h158l24 -11q-76 39 -116 104.5t-40 149.5q0 72 27 139t77 119t118 82.5t150 30.5q89 0 155 -35.5t102.5 -98t36.5 -144.5q0 -75 -28.5 -142t-81 -120t-125.5 -88l20 14h159l-13 -96h-266l11 94q69 34 117.5 85.5t73.5 114t25 130.5q0 88 -48.5 138.5
t-139.5 50.5q-65 0 -114.5 -24.5t-84 -67t-52 -95.5t-17.5 -111q0 -77 35.5 -133t100.5 -90l-11 -92h-266z" />
    <glyph glyph-name="uni03BC" unicode="&#x3bc;" horiz-adv-x="553" 
d="M4 -167l92 660h99l-42 -292l-2 -20t-1 -17q0 -39 19.5 -63t68.5 -24q46 0 76.5 25t49 69.5t26.5 104.5l30 217h98l-70 -493h-93l14 114l12 -15q-29 -56 -74 -82t-100 -26q-29 0 -48 11t-27 31l-30 -200h-98z" />
    <glyph glyph-name="pi" unicode="&#x3c0;" horiz-adv-x="584" 
d="M462 -9q-56 0 -85.5 26.5t-29.5 78.5q0 6 0.5 14.5t1.5 17.5l40 283h-162l-57 -411h-98l58 411h-63l11 82h498l-12 -82h-78l-35 -257q-1 -9 -2 -16t-1 -12q0 -24 10 -34t30 -10q10 0 19.5 3t16.5 7l10 -82q-21 -12 -37.5 -15.5t-34.5 -3.5z" />
    <glyph glyph-name="uni1E20" unicode="&#x1e20;" horiz-adv-x="732" 
d="M334 -13q-85 0 -147.5 36.5t-96.5 103.5t-34 157q0 84 25.5 160t74.5 136t118.5 95t156.5 35q109 0 180.5 -54.5t93.5 -148.5l-98 -30q-15 66 -61.5 101t-117.5 35q-66 0 -116.5 -27.5t-85 -73.5t-52.5 -104t-18 -121q0 -95 49.5 -149t137.5 -54q39 0 78.5 11t73.5 36
t58 67.5t33 105.5l6 45l13 -70h-196l12 91h265l-52 -370h-89l3 128l16 -15q-24 -44 -60.5 -72.5t-80 -41t-89.5 -12.5zM316 784l11 59h264l-11 -59h-264z" />
    <glyph glyph-name="uni1E21" unicode="&#x1e21;" horiz-adv-x="585" 
d="M219 -213q-54 0 -94.5 16t-67.5 43t-44 61l81 55q15 -38 46 -64.5t80 -26.5q35 0 70 12t61.5 43.5t33.5 89.5l16 121l13 -13q-32 -61 -79.5 -89t-104.5 -28t-98.5 27t-64 74t-22.5 106q0 57 18.5 108t51.5 91.5t77.5 64.5t98.5 24q65 0 105 -33t51 -87l-11 -10l18 121h96
l-68 -483q-10 -76 -45 -125t-90 -73.5t-128 -24.5zM262 98q36 0 66.5 14.5t53.5 39.5t35.5 59t12.5 74q0 37 -14 66t-40.5 45t-62.5 16q-37 0 -68 -15.5t-54 -42t-35.5 -60.5t-12.5 -71t14.5 -65t41.5 -44t63 -16zM213 580l11 59h264l-11 -59h-264z" />
    <glyph glyph-name="uni1E44" unicode="&#x1e44;" horiz-adv-x="680" 
d="M40 0l98 697h105l267 -565h-23l80 565h101l-98 -697h-107l-265 566h23l-79 -566h-102zM356 782l17 119h110l-16 -119h-111z" />
    <glyph glyph-name="uni1E45" unicode="&#x1e45;" horiz-adv-x="553" 
d="M33 0l70 493h96l-14 -107l-20 2q19 41 47 65.5t62.5 36.5t71.5 12q74 0 115 -38.5t41 -110.5q0 -11 -0.5 -20.5t-2.5 -19.5l-44 -313h-98l40 282q2 12 2.5 22t0.5 21q0 48 -21 70t-62 22q-62 0 -100 -43.5t-52 -133.5l-33 -240h-99zM262 578l17 119h110l-16 -119h-111z
" />
    <glyph glyph-name="Wgrave" unicode="&#x1e80;" horiz-adv-x="964" 
d="M191 0l-107 697h105l78 -542l222 503h101l78 -503l233 542h108l-304 -697h-101l-89 537h17l-241 -537h-100zM513 760l-126 141h102l96 -141h-72z" />
    <glyph glyph-name="wgrave" unicode="&#x1e81;" horiz-adv-x="750" 
d="M139 0l-79 493h103l45 -344l158 344h85l60 -342l144 342h105l-218 -493h-87l-62 356l-163 -356h-91zM377 556l-126 141h102l96 -141h-72z" />
    <glyph glyph-name="Wacute" unicode="&#x1e82;" horiz-adv-x="964" 
d="M191 0l-107 697h105l78 -542l222 503h101l78 -503l233 542h108l-304 -697h-101l-89 537h17l-241 -537h-100zM511 760l112 141h105l-146 -141h-71z" />
    <glyph glyph-name="wacute" unicode="&#x1e83;" horiz-adv-x="750" 
d="M139 0l-79 493h103l45 -344l158 344h85l60 -342l144 342h105l-218 -493h-87l-62 356l-163 -356h-91zM376 556l112 141h105l-146 -141h-71z" />
    <glyph glyph-name="Wdieresis" unicode="&#x1e84;" horiz-adv-x="964" 
d="M191 0l-107 697h105l78 -542l222 503h101l78 -503l233 542h108l-304 -697h-101l-89 537h17l-241 -537h-100zM594 782l18 119h108l-18 -119h-108zM412 782l17 119h107l-16 -119h-108z" />
    <glyph glyph-name="wdieresis" unicode="&#x1e85;" horiz-adv-x="750" 
d="M139 0l-79 493h103l45 -344l158 344h85l60 -342l144 342h105l-218 -493h-87l-62 356l-163 -356h-91zM459 578l18 119h108l-18 -119h-108zM277 578l17 119h107l-16 -119h-108z" />
    <glyph glyph-name="uni1E9E" unicode="&#x1e9e;" horiz-adv-x="771" 
d="M40 0l98 697h625l-13 -91h-523l-85 -606h-102zM465 -12q-69 0 -120.5 26.5t-80.5 73.5t-30 107l102 21q0 -68 37 -102.5t99 -34.5q41 0 76 16.5t55.5 45t20.5 65.5q0 28 -15 47.5t-44 36t-69 34.5q-57 24 -95 48.5t-57.5 56t-19.5 77.5q0 26 10 52t30.5 46.5t48.5 27.5
l102 -7q-25 -5 -45.5 -20.5t-32 -38t-11.5 -49.5t14 -45.5t42 -34t68 -34.5q53 -23 92.5 -47t61.5 -55.5t22 -79.5q0 -67 -35.5 -119.5t-95 -83t-130.5 -30.5z" />
    <glyph glyph-name="uni1EA0" unicode="&#x1ea0;" horiz-adv-x="649" 
d="M-21 0l368 697h80l171 -697h-108l-121 549l-277 -549h-113zM160 155l45 91h237l21 -91h-303zM225 -174l6 108h111l-6 -108h-111z" />
    <glyph glyph-name="uni1EA1" unicode="&#x1ea1;" horiz-adv-x="584" 
d="M235 -9q-59 0 -102 27.5t-66 75.5t-23 110q0 58 18.5 111t52.5 95.5t80.5 67t102.5 24.5q46 0 80.5 -17.5t56 -48.5t24.5 -74l-26 -11l22 142h94l-69 -493h-95l17 142l27 -12q-19 -49 -48.5 -79t-66 -45t-79.5 -15zM258 81q40 0 72 18t54 47t33.5 65t11.5 74
q0 39 -13.5 67.5t-39 44t-62.5 15.5q-40 0 -72 -17.5t-54.5 -46.5t-34.5 -65t-12 -74q0 -39 14.5 -68t40.5 -44.5t62 -15.5zM192 -174l6 108h111l-6 -108h-111z" />
    <glyph glyph-name="uni1EA2" unicode="&#x1ea2;" horiz-adv-x="649" 
d="M-21 0l368 697h80l171 -697h-108l-121 549l-277 -549h-113zM160 155l45 91h237l21 -91h-303zM356 725l-7 35q18 4 35 9t29.5 14.5t14.5 24.5q3 22 -19.5 30t-56.5 8h-18l10 56h11q66 0 105 -25.5t35 -68.5q-4 -32 -25 -48.5t-51.5 -23t-62.5 -11.5z" />
    <glyph glyph-name="uni1EA3" unicode="&#x1ea3;" horiz-adv-x="584" 
d="M235 -9q-59 0 -102 27.5t-66 75.5t-23 110q0 58 18.5 111t52.5 95.5t80.5 67t102.5 24.5q46 0 80.5 -17.5t56 -48.5t24.5 -74l-26 -11l22 142h94l-69 -493h-95l17 142l27 -12q-19 -49 -48.5 -79t-66 -45t-79.5 -15zM258 81q40 0 72 18t54 47t33.5 65t11.5 74
q0 39 -13.5 67.5t-39 44t-62.5 15.5q-40 0 -72 -17.5t-54.5 -46.5t-34.5 -65t-12 -74q0 -39 14.5 -68t40.5 -44.5t62 -15.5zM295 521l-7 35q18 4 35 9t29.5 14.5t14.5 24.5q3 22 -19.5 30t-56.5 8h-18l10 56h11q66 0 105 -25.5t35 -68.5q-4 -32 -25 -48.5t-51.5 -23
t-62.5 -11.5z" />
    <glyph glyph-name="uni1EA4" unicode="&#x1ea4;" horiz-adv-x="649" 
d="M-21 0l368 697h80l171 -697h-108l-121 549l-277 -549h-113zM160 155l45 91h237l21 -91h-303zM241 743l172 143l134 -143h-78l-62 71l-85 -71h-81zM483 849l88 134h82l-108 -134h-62z" />
    <glyph glyph-name="uni1EA5" unicode="&#x1ea5;" horiz-adv-x="584" 
d="M235 -9q-59 0 -102 27.5t-66 75.5t-23 110q0 58 18.5 111t52.5 95.5t80.5 67t102.5 24.5q46 0 80.5 -17.5t56 -48.5t24.5 -74l-26 -11l22 142h94l-69 -493h-95l17 142l27 -12q-19 -49 -48.5 -79t-66 -45t-79.5 -15zM258 81q40 0 72 18t54 47t33.5 65t11.5 74
q0 39 -13.5 67.5t-39 44t-62.5 15.5q-40 0 -72 -17.5t-54.5 -46.5t-34.5 -65t-12 -74q0 -39 14.5 -68t40.5 -44.5t62 -15.5zM180 545l174 154l132 -154h-78l-62 70l-84 -70h-82zM422 651l88 133h83l-109 -133h-62z" />
    <glyph glyph-name="uni1EA6" unicode="&#x1ea6;" horiz-adv-x="649" 
d="M-21 0l368 697h80l171 -697h-108l-121 549l-277 -549h-113zM160 155l45 91h237l21 -91h-303zM241 743l172 143l134 -143h-78l-62 71l-84 -71h-82zM528 849l-71 134h78l51 -134h-58z" />
    <glyph glyph-name="uni1EA7" unicode="&#x1ea7;" horiz-adv-x="584" 
d="M235 -9q-59 0 -102 27.5t-66 75.5t-23 110q0 58 18.5 111t52.5 95.5t80.5 67t102.5 24.5q46 0 80.5 -17.5t56 -48.5t24.5 -74l-26 -11l22 142h94l-69 -493h-95l17 142l27 -12q-19 -49 -48.5 -79t-66 -45t-79.5 -15zM258 81q40 0 72 18t54 47t33.5 65t11.5 74
q0 39 -13.5 67.5t-39 44t-62.5 15.5q-40 0 -72 -17.5t-54.5 -46.5t-34.5 -65t-12 -74q0 -39 14.5 -68t40.5 -44.5t62 -15.5zM180 545l174 154l132 -154h-78l-62 70l-84 -70h-82zM470 651l-72 133h79l50 -133h-57z" />
    <glyph glyph-name="uni1EA8" unicode="&#x1ea8;" horiz-adv-x="649" 
d="M-21 0l368 697h80l171 -697h-108l-121 549l-277 -549h-113zM160 155l45 91h237l21 -91h-303zM241 743l172 143l134 -143h-78l-62 71l-84 -71h-82zM513 811l-12 37q32 5 50.5 16.5t18.5 33.5q0 18 -20.5 25.5t-47.5 7.5h-18l7 52h13q64 0 95.5 -24t27.5 -65
q-4 -30 -20.5 -46t-41 -24t-52.5 -13z" />
    <glyph glyph-name="uni1EA9" unicode="&#x1ea9;" horiz-adv-x="584" 
d="M235 -9q-59 0 -102 27.5t-66 75.5t-23 110q0 58 18.5 111t52.5 95.5t80.5 67t102.5 24.5q46 0 80.5 -17.5t56 -48.5t24.5 -74l-26 -11l22 142h94l-69 -493h-95l17 142l27 -12q-19 -49 -48.5 -79t-66 -45t-79.5 -15zM258 81q40 0 72 18t54 47t33.5 65t11.5 74
q0 39 -13.5 67.5t-39 44t-62.5 15.5q-40 0 -72 -17.5t-54.5 -46.5t-34.5 -65t-12 -74q0 -39 14.5 -68t40.5 -44.5t62 -15.5zM180 545l174 154l132 -154h-78l-62 70l-84 -70h-82zM444 633l-12 37q19 2 34 7.5t25 15t11 23.5q3 22 -18.5 29t-50.5 7h-17l7 53h12q60 0 92 -21.5
t32 -60.5q0 -34 -16 -51.5t-42.5 -25.5t-56.5 -13z" />
    <glyph glyph-name="uni1EAA" unicode="&#x1eaa;" horiz-adv-x="649" 
d="M-21 0l368 697h80l171 -697h-108l-121 549l-277 -549h-113zM160 155l45 91h237l21 -91h-303zM241 743l172 143l134 -143h-78l-62 71l-85 -71h-81zM485 889q-26 0 -42.5 6t-28 15t-21.5 15.5t-24 6.5q-18 0 -29.5 -11t-17.5 -25h-59q13 43 40 65.5t64 22.5q25 0 41 -6
t28 -14.5t23 -15t24 -6.5q17 0 28 10t17 24h62q-13 -42 -39 -64.5t-66 -22.5z" />
    <glyph glyph-name="uni1EAB" unicode="&#x1eab;" horiz-adv-x="584" 
d="M235 -9q-59 0 -102 27.5t-66 75.5t-23 110q0 58 18.5 111t52.5 95.5t80.5 67t102.5 24.5q46 0 80.5 -17.5t56 -48.5t24.5 -74l-26 -11l22 142h94l-69 -493h-95l17 142l27 -12q-19 -49 -48.5 -79t-66 -45t-79.5 -15zM258 81q40 0 72 18t54 47t33.5 65t11.5 74
q0 39 -13.5 67.5t-39 44t-62.5 15.5q-40 0 -72 -17.5t-54.5 -46.5t-34.5 -65t-12 -74q0 -39 14.5 -68t40.5 -44.5t62 -15.5zM180 545l174 154l132 -154h-78l-62 70l-84 -70h-82zM428 704q-25 0 -40 6.5t-25.5 15t-21.5 15t-28 6.5q-24 0 -36 -11.5t-17 -27.5l-54 7
q9 39 34 62.5t63 23.5q25 0 42 -6t29 -14t22 -14t23 -6q18 0 29 8t16 26l57 -8q-9 -39 -32 -61t-61 -22z" />
    <glyph glyph-name="uni1EAC" unicode="&#x1eac;" horiz-adv-x="649" 
d="M-21 0l368 697h80l171 -697h-108l-121 549l-277 -549h-113zM160 155l45 91h237l21 -91h-303zM225 -174l6 108h111l-6 -108h-111zM247 749l171 166l125 -166h-74l-60 82l-82 -82h-80z" />
    <glyph glyph-name="uni1EAD" unicode="&#x1ead;" horiz-adv-x="584" 
d="M235 -9q-59 0 -102 27.5t-66 75.5t-23 110q0 58 18.5 111t52.5 95.5t80.5 67t102.5 24.5q46 0 80.5 -17.5t56 -48.5t24.5 -74l-26 -11l22 142h94l-69 -493h-95l17 142l27 -12q-19 -49 -48.5 -79t-66 -45t-79.5 -15zM258 81q40 0 72 18t54 47t33.5 65t11.5 74
q0 39 -13.5 67.5t-39 44t-62.5 15.5q-40 0 -72 -17.5t-54.5 -46.5t-34.5 -65t-12 -74q0 -39 14.5 -68t40.5 -44.5t62 -15.5zM192 -174l6 108h111l-6 -108h-111zM186 545l171 166l125 -166h-74l-60 82l-82 -82h-80z" />
    <glyph glyph-name="uni1EAE" unicode="&#x1eae;" horiz-adv-x="649" 
d="M-21 0l368 697h80l171 -697h-108l-121 549l-277 -549h-113zM160 155l45 91h237l21 -91h-303zM392 739q-39 0 -71.5 13.5t-50 42.5t-12.5 74h62q-4 -35 18 -54t68 -19q37 0 64.5 16.5t31.5 56.5h62q-12 -74 -57.5 -102t-114.5 -28zM370 872l79 110h80l-98 -110h-61z" />
    <glyph glyph-name="uni1EAF" unicode="&#x1eaf;" horiz-adv-x="584" 
d="M235 -9q-59 0 -102 27.5t-66 75.5t-23 110q0 58 18.5 111t52.5 95.5t80.5 67t102.5 24.5q46 0 80.5 -17.5t56 -48.5t24.5 -74l-26 -11l22 142h94l-69 -493h-95l17 142l27 -12q-19 -49 -48.5 -79t-66 -45t-79.5 -15zM258 81q40 0 72 18t54 47t33.5 65t11.5 74
q0 39 -13.5 67.5t-39 44t-62.5 15.5q-40 0 -72 -17.5t-54.5 -46.5t-34.5 -65t-12 -74q0 -39 14.5 -68t40.5 -44.5t62 -15.5zM340 553q-71 0 -106 29t-35 86q0 7 1 15l2 16l63 -4q-1 -7 -1.5 -11.5t-0.5 -8.5q0 -35 20 -49.5t55 -14.5q45 0 73 21.5t34 66.5l63 -4
q-10 -76 -51.5 -109t-116.5 -33zM317 698l85 128h80l-103 -128h-62z" />
    <glyph glyph-name="uni1EB0" unicode="&#x1eb0;" horiz-adv-x="649" 
d="M-21 0l368 697h80l171 -697h-108l-121 549l-277 -549h-113zM160 155l45 91h237l21 -91h-303zM397 739q-39 0 -71.5 13.5t-50 42.5t-12.5 74h62q-4 -35 18 -54t66 -19q38 0 66 16.5t32 56.5h62q-12 -74 -57.5 -102t-114.5 -28zM391 872l-73 110h75l56 -110h-58z" />
    <glyph glyph-name="uni1EB1" unicode="&#x1eb1;" horiz-adv-x="584" 
d="M235 -9q-59 0 -102 27.5t-66 75.5t-23 110q0 58 18.5 111t52.5 95.5t80.5 67t102.5 24.5q46 0 80.5 -17.5t56 -48.5t24.5 -74l-26 -11l22 142h94l-69 -493h-95l17 142l27 -12q-19 -49 -48.5 -79t-66 -45t-79.5 -15zM258 81q40 0 72 18t54 47t33.5 65t11.5 74
q0 39 -13.5 67.5t-39 44t-62.5 15.5q-40 0 -72 -17.5t-54.5 -46.5t-34.5 -65t-12 -74q0 -39 14.5 -68t40.5 -44.5t62 -15.5zM340 553q-71 0 -106 29t-35 86q0 7 1 15l2 16l63 -4q-1 -7 -1.5 -11.5t-0.5 -8.5q0 -35 20 -49.5t55 -14.5q45 0 73 21.5t34 66.5l63 -4
q-10 -76 -51.5 -109t-116.5 -33zM334 698l-67 128h78l47 -128h-58z" />
    <glyph glyph-name="uni1EB2" unicode="&#x1eb2;" horiz-adv-x="649" 
d="M-21 0l368 697h80l171 -697h-108l-121 549l-277 -549h-113zM160 155l45 91h237l21 -91h-303zM393 739q-39 0 -71.5 13.5t-50 42.5t-12.5 74h62q-4 -35 17 -54t59 -19q44 0 73 16.5t33 56.5h62q-12 -74 -57.5 -102t-114.5 -28zM372 845l-12 30q19 2 33.5 7t23.5 14.5
t9 24.5q0 17 -21 23.5t-48 6.5h-17l5 42h13q60 0 92.5 -18.5t32.5 -52.5q0 -25 -13.5 -40.5t-38 -23.5t-59.5 -13z" />
    <glyph glyph-name="uni1EB3" unicode="&#x1eb3;" horiz-adv-x="584" 
d="M235 -9q-59 0 -102 27.5t-66 75.5t-23 110q0 58 18.5 111t52.5 95.5t80.5 67t102.5 24.5q46 0 80.5 -17.5t56 -48.5t24.5 -74l-26 -11l22 142h94l-69 -493h-95l17 142l27 -12q-19 -49 -48.5 -79t-66 -45t-79.5 -15zM258 81q40 0 72 18t54 47t33.5 65t11.5 74
q0 39 -13.5 67.5t-39 44t-62.5 15.5q-40 0 -72 -17.5t-54.5 -46.5t-34.5 -65t-12 -74q0 -39 14.5 -68t40.5 -44.5t62 -15.5zM340 553q-71 0 -106 29t-35 86q0 7 1 15l2 16l63 -4q-1 -7 -1.5 -11.5t-0.5 -8.5q0 -35 20 -49.5t55 -14.5q45 0 73 21.5t34 66.5l63 -4
q-10 -76 -51.5 -109t-116.5 -33zM331 680l-11 37q32 3 50 15.5t19 34.5q0 19 -21 25.5t-48 6.5h-17l7 53h13q60 0 92.5 -22t31.5 -62q-1 -33 -18 -51t-43 -25.5t-55 -11.5z" />
    <glyph glyph-name="uni1EB4" unicode="&#x1eb4;" horiz-adv-x="649" 
d="M-21 0l368 697h80l171 -697h-108l-121 549l-277 -549h-113zM160 155l45 91h237l21 -91h-303zM397 739q-39 0 -71.5 13.5t-50 42.5t-12.5 74h62q-4 -35 18 -54t66 -19q38 0 66 16.5t32 56.5h62q-12 -74 -57.5 -102t-114.5 -28zM484 889q-26 0 -42.5 6t-28 15t-21.5 15.5
t-24 6.5q-18 0 -29.5 -11t-17.5 -25h-59q13 43 40 65.5t64 22.5q25 0 41 -6t28 -14.5t23 -15t24 -6.5q17 0 28 10t17 24h62q-13 -42 -39 -64.5t-66 -22.5z" />
    <glyph glyph-name="uni1EB5" unicode="&#x1eb5;" horiz-adv-x="584" 
d="M235 -9q-59 0 -102 27.5t-66 75.5t-23 110q0 58 18.5 111t52.5 95.5t80.5 67t102.5 24.5q46 0 80.5 -17.5t56 -48.5t24.5 -74l-26 -11l22 142h94l-69 -493h-95l17 142l27 -12q-19 -49 -48.5 -79t-66 -45t-79.5 -15zM258 81q40 0 72 18t54 47t33.5 65t11.5 74
q0 39 -13.5 67.5t-39 44t-62.5 15.5q-40 0 -72 -17.5t-54.5 -46.5t-34.5 -65t-12 -74q0 -39 14.5 -68t40.5 -44.5t62 -15.5zM340 553q-71 0 -106 29t-35 86q0 7 1 15l2 16l63 -4q-1 -7 -1.5 -11.5t-0.5 -8.5q0 -35 20 -49.5t55 -14.5q45 0 73 21.5t34 66.5l63 -4
q-10 -76 -51.5 -109t-116.5 -33zM432 729q-25 0 -40.5 6.5t-25.5 15t-21.5 15t-28.5 6.5q-21 0 -33.5 -11t-18.5 -28l-54 7q9 41 35 63t62 22q25 0 42 -5.5t29 -14t22.5 -14t23.5 -5.5q33 0 45 33l56 -6q-8 -37 -31.5 -60.5t-61.5 -23.5z" />
    <glyph glyph-name="uni1EB6" unicode="&#x1eb6;" horiz-adv-x="649" 
d="M-21 0l368 697h80l171 -697h-108l-121 549l-277 -549h-113zM160 155l45 91h237l21 -91h-303zM225 -174l6 108h111l-6 -108h-111zM393 739q-39 0 -71.5 13.5t-50 42.5t-12.5 74h62q-4 -35 18 -54t66 -19q38 0 66 16.5t32 56.5h62q-12 -74 -57.5 -102t-114.5 -28z" />
    <glyph glyph-name="uni1EB7" unicode="&#x1eb7;" horiz-adv-x="584" 
d="M235 -9q-59 0 -102 27.5t-66 75.5t-23 110q0 58 18.5 111t52.5 95.5t80.5 67t102.5 24.5q46 0 80.5 -17.5t56 -48.5t24.5 -74l-26 -11l22 142h94l-69 -493h-95l17 142l27 -12q-19 -49 -48.5 -79t-66 -45t-79.5 -15zM258 81q40 0 72 18t54 47t33.5 65t11.5 74
q0 39 -13.5 67.5t-39 44t-62.5 15.5q-40 0 -72 -17.5t-54.5 -46.5t-34.5 -65t-12 -74q0 -39 14.5 -68t40.5 -44.5t62 -15.5zM192 -174l6 108h111l-6 -108h-111zM336 553q-64 0 -106 28t-45 86q-1 3 -0.5 10t1.5 20h58q-1 -6 -1 -12t1 -11q3 -30 25.5 -47t67.5 -17
q47 0 70 23.5t28 63.5h60q-9 -72 -50.5 -108t-108.5 -36z" />
    <glyph glyph-name="uni1EB8" unicode="&#x1eb8;" horiz-adv-x="583" 
d="M40 0l98 697h461l-13 -91h-359l-28 -204h328l-13 -91h-328l-31 -220h359l-13 -91h-461zM206 -174l6 108h111l-6 -108h-111z" />
    <glyph glyph-name="uni1EB9" unicode="&#x1eb9;" horiz-adv-x="542" 
d="M251 -9q-72 0 -118 28.5t-68 76t-22 104.5q0 56 17 109.5t50.5 97t82.5 69.5t111 26q68 0 111 -27.5t63.5 -72.5t20.5 -100q0 -21 -3 -45.5t-8 -44.5h-349q-1 -6 -1 -12t1 -11q1 -53 31.5 -81.5t84.5 -28.5q42 0 76.5 14t66.5 42l57 -66q-46 -39 -95 -58.5t-109 -19.5z
M407 267q2 16 3 26t1 25q0 26 -11 49.5t-34 38.5t-61 15q-42 0 -74.5 -19.5t-53 -50t-29.5 -65.5h290zM182 -174l6 108h111l-6 -108h-111z" />
    <glyph glyph-name="uni1EBA" unicode="&#x1eba;" horiz-adv-x="583" 
d="M40 0l98 697h461l-13 -91h-359l-28 -204h328l-13 -91h-328l-31 -220h359l-13 -91h-461zM336 725l-7 35q18 4 35 9t29.5 14.5t14.5 24.5q3 22 -19.5 30t-56.5 8h-18l10 56h11q66 0 105 -25.5t35 -68.5q-4 -32 -25 -48.5t-51.5 -23t-62.5 -11.5z" />
    <glyph glyph-name="uni1EBB" unicode="&#x1ebb;" horiz-adv-x="542" 
d="M251 -9q-72 0 -118 28.5t-68 76t-22 104.5q0 56 17 109.5t50.5 97t82.5 69.5t111 26q68 0 111 -27.5t63.5 -72.5t20.5 -100q0 -21 -3 -45.5t-8 -44.5h-349q-1 -6 -1 -12t1 -11q1 -53 31.5 -81.5t84.5 -28.5q42 0 76.5 14t66.5 42l57 -66q-46 -39 -95 -58.5t-109 -19.5z
M407 267q2 16 3 26t1 25q0 26 -11 49.5t-34 38.5t-61 15q-42 0 -74.5 -19.5t-53 -50t-29.5 -65.5h290zM276 521l-7 35q18 4 35 9t29.5 14.5t14.5 24.5q3 22 -19.5 30t-56.5 8h-18l10 56h11q66 0 105 -25.5t35 -68.5q-4 -32 -25 -48.5t-51.5 -23t-62.5 -11.5z" />
    <glyph glyph-name="uni1EBC" unicode="&#x1ebc;" horiz-adv-x="583" 
d="M40 0l98 697h461l-13 -91h-359l-28 -204h328l-13 -91h-328l-31 -220h359l-13 -91h-461zM445 743q-25 0 -40.5 7.5t-25.5 19t-18 23t-16.5 19.5t-21.5 8q-20 0 -35 -19.5t-20 -54.5l-56 5q8 60 38.5 92t74.5 32q23 0 37 -8t24.5 -20t18.5 -23.5t17 -19.5t21 -8
q18 0 33 21.5t20 55.5l59 -4q-8 -61 -38 -93.5t-72 -32.5z" />
    <glyph glyph-name="uni1EBD" unicode="&#x1ebd;" horiz-adv-x="542" 
d="M251 -9q-72 0 -118 28.5t-68 76t-22 104.5q0 56 17 109.5t50.5 97t82.5 69.5t111 26q68 0 111 -27.5t63.5 -72.5t20.5 -100q0 -21 -3 -45.5t-8 -44.5h-349q-1 -6 -1 -12t1 -11q1 -53 31.5 -81.5t84.5 -28.5q42 0 76.5 14t66.5 42l57 -66q-46 -39 -95 -58.5t-109 -19.5z
M407 267q2 16 3 26t1 25q0 26 -11 49.5t-34 38.5t-61 15q-42 0 -74.5 -19.5t-53 -50t-29.5 -65.5h290zM391 563q-35 0 -51 15t-29 33q-9 13 -18 20.5t-20 7.5q-19 0 -34 -20.5t-21 -54.5l-55 7q11 64 41 97t73 33q30 0 45.5 -15t26.5 -31q9 -13 18 -22.5t23 -9.5
q17 0 32.5 21.5t21.5 55.5l56 -6q-10 -64 -39.5 -97.5t-69.5 -33.5z" />
    <glyph glyph-name="uni1EBE" unicode="&#x1ebe;" horiz-adv-x="583" 
d="M40 0l98 697h461l-13 -91h-359l-28 -204h328l-13 -91h-328l-31 -220h359l-13 -91h-461zM221 743l172 143l134 -143h-78l-62 71l-85 -71h-81zM463 849l88 134h82l-108 -134h-62z" />
    <glyph glyph-name="uni1EBF" unicode="&#x1ebf;" horiz-adv-x="542" 
d="M251 -9q-72 0 -118 28.5t-68 76t-22 104.5q0 56 17 109.5t50.5 97t82.5 69.5t111 26q68 0 111 -27.5t63.5 -72.5t20.5 -100q0 -21 -3 -45.5t-8 -44.5h-349q-1 -6 -1 -12t1 -11q1 -53 31.5 -81.5t84.5 -28.5q42 0 76.5 14t66.5 42l57 -66q-46 -39 -95 -58.5t-109 -19.5z
M407 267q2 16 3 26t1 25q0 26 -11 49.5t-34 38.5t-61 15q-42 0 -74.5 -19.5t-53 -50t-29.5 -65.5h290zM161 545l174 154l132 -154h-78l-62 70l-84 -70h-82zM403 651l88 133h83l-109 -133h-62z" />
    <glyph glyph-name="uni1EC0" unicode="&#x1ec0;" horiz-adv-x="583" 
d="M40 0l98 697h461l-13 -91h-359l-28 -204h328l-13 -91h-328l-31 -220h359l-13 -91h-461zM221 743l172 143l134 -143h-78l-62 71l-84 -71h-82zM508 849l-71 134h78l51 -134h-58z" />
    <glyph glyph-name="uni1EC1" unicode="&#x1ec1;" horiz-adv-x="542" 
d="M251 -9q-72 0 -118 28.5t-68 76t-22 104.5q0 56 17 109.5t50.5 97t82.5 69.5t111 26q68 0 111 -27.5t63.5 -72.5t20.5 -100q0 -21 -3 -45.5t-8 -44.5h-349q-1 -6 -1 -12t1 -11q1 -53 31.5 -81.5t84.5 -28.5q42 0 76.5 14t66.5 42l57 -66q-46 -39 -95 -58.5t-109 -19.5z
M407 267q2 16 3 26t1 25q0 26 -11 49.5t-34 38.5t-61 15q-42 0 -74.5 -19.5t-53 -50t-29.5 -65.5h290zM161 545l174 154l132 -154h-78l-62 70l-84 -70h-82zM451 651l-72 133h79l50 -133h-57z" />
    <glyph glyph-name="uni1EC2" unicode="&#x1ec2;" horiz-adv-x="583" 
d="M40 0l98 697h461l-13 -91h-359l-28 -204h328l-13 -91h-328l-31 -220h359l-13 -91h-461zM221 743l172 143l134 -143h-78l-62 71l-84 -71h-82zM493 811l-12 37q32 5 50.5 16.5t18.5 33.5q0 18 -20.5 25.5t-47.5 7.5h-18l7 52h13q64 0 95.5 -24t27.5 -65q-4 -30 -20.5 -46
t-41 -24t-52.5 -13z" />
    <glyph glyph-name="uni1EC3" unicode="&#x1ec3;" horiz-adv-x="542" 
d="M251 -9q-72 0 -118 28.5t-68 76t-22 104.5q0 56 17 109.5t50.5 97t82.5 69.5t111 26q68 0 111 -27.5t63.5 -72.5t20.5 -100q0 -21 -3 -45.5t-8 -44.5h-349q-1 -6 -1 -12t1 -11q1 -53 31.5 -81.5t84.5 -28.5q42 0 76.5 14t66.5 42l57 -66q-46 -39 -95 -58.5t-109 -19.5z
M407 267q2 16 3 26t1 25q0 26 -11 49.5t-34 38.5t-61 15q-42 0 -74.5 -19.5t-53 -50t-29.5 -65.5h290zM161 545l174 154l132 -154h-78l-62 70l-84 -70h-82zM425 633l-12 37q19 2 34 7.5t25 15t11 23.5q3 22 -18.5 29t-50.5 7h-17l7 53h12q60 0 92 -21.5t32 -60.5
q0 -34 -16 -51.5t-42.5 -25.5t-56.5 -13z" />
    <glyph glyph-name="uni1EC4" unicode="&#x1ec4;" horiz-adv-x="583" 
d="M40 0l98 697h461l-13 -91h-359l-28 -204h328l-13 -91h-328l-31 -220h359l-13 -91h-461zM221 743l172 143l134 -143h-78l-62 71l-85 -71h-81zM465 889q-26 0 -42.5 6t-28 15t-21.5 15.5t-24 6.5q-18 0 -29.5 -11t-17.5 -25h-59q13 43 40 65.5t64 22.5q25 0 41 -6t28 -14.5
t23 -15t24 -6.5q17 0 28 10t17 24h62q-13 -42 -39 -64.5t-66 -22.5z" />
    <glyph glyph-name="uni1EC5" unicode="&#x1ec5;" horiz-adv-x="542" 
d="M251 -9q-72 0 -118 28.5t-68 76t-22 104.5q0 56 17 109.5t50.5 97t82.5 69.5t111 26q68 0 111 -27.5t63.5 -72.5t20.5 -100q0 -21 -3 -45.5t-8 -44.5h-349q-1 -6 -1 -12t1 -11q1 -53 31.5 -81.5t84.5 -28.5q42 0 76.5 14t66.5 42l57 -66q-46 -39 -95 -58.5t-109 -19.5z
M407 267q2 16 3 26t1 25q0 26 -11 49.5t-34 38.5t-61 15q-42 0 -74.5 -19.5t-53 -50t-29.5 -65.5h290zM161 545l174 154l132 -154h-78l-62 70l-84 -70h-82zM409 704q-25 0 -40 6.5t-25.5 15t-21.5 15t-28 6.5q-24 0 -36 -11.5t-17 -27.5l-54 7q9 39 34 62.5t63 23.5
q25 0 42 -6t29 -14t22 -14t23 -6q18 0 29 8t16 26l57 -8q-9 -39 -32 -61t-61 -22z" />
    <glyph glyph-name="uni1EC6" unicode="&#x1ec6;" horiz-adv-x="583" 
d="M40 0l98 697h461l-13 -91h-359l-28 -204h328l-13 -91h-328l-31 -220h359l-13 -91h-461zM206 -174l6 108h111l-6 -108h-111zM228 749l171 166l125 -166h-74l-60 82l-82 -82h-80z" />
    <glyph glyph-name="uni1EC7" unicode="&#x1ec7;" horiz-adv-x="542" 
d="M251 -9q-72 0 -118 28.5t-68 76t-22 104.5q0 56 17 109.5t50.5 97t82.5 69.5t111 26q68 0 111 -27.5t63.5 -72.5t20.5 -100q0 -21 -3 -45.5t-8 -44.5h-349q-1 -6 -1 -12t1 -11q1 -53 31.5 -81.5t84.5 -28.5q42 0 76.5 14t66.5 42l57 -66q-46 -39 -95 -58.5t-109 -19.5z
M407 267q2 16 3 26t1 25q0 26 -11 49.5t-34 38.5t-61 15q-42 0 -74.5 -19.5t-53 -50t-29.5 -65.5h290zM182 -174l6 108h111l-6 -108h-111zM168 545l171 166l125 -166h-74l-60 82l-82 -82h-80z" />
    <glyph glyph-name="uni1EC8" unicode="&#x1ec8;" horiz-adv-x="252" 
d="M40 0l98 697h102l-98 -697h-102zM157 725l-7 35q18 4 35 9t29.5 14.5t14.5 24.5q3 22 -19.5 30t-56.5 8h-18l10 56h11q66 0 105 -25.5t35 -68.5q-4 -32 -25 -48.5t-51.5 -23t-62.5 -11.5z" />
    <glyph glyph-name="uni1EC9" unicode="&#x1ec9;" horiz-adv-x="232" 
d="M32 0l69 493h99l-70 -493h-98zM118 521l-7 35q18 4 35 9t29.5 14.5t14.5 24.5q3 22 -19.5 30t-56.5 8h-18l10 56h11q66 0 105 -25.5t35 -68.5q-4 -32 -25 -48.5t-51.5 -23t-62.5 -11.5z" />
    <glyph glyph-name="uni1ECA" unicode="&#x1eca;" horiz-adv-x="252" 
d="M40 0l98 697h102l-98 -697h-102zM27 -174l6 108h111l-6 -108h-111z" />
    <glyph glyph-name="uni1ECB" unicode="&#x1ecb;" horiz-adv-x="232" 
d="M32 0l69 493h99l-70 -493h-98zM107 578l17 119h110l-16 -119h-111zM16 -174l6 108h111l-6 -108h-111z" />
    <glyph glyph-name="uni1ECC" unicode="&#x1ecc;" horiz-adv-x="748" 
d="M341 -13q-88 0 -152 36.5t-98.5 104t-34.5 158.5q0 81 25.5 157t74 136.5t118.5 95.5t158 35q89 0 153 -36.5t99 -103.5t35 -159q0 -83 -26 -159t-75 -135.5t-119 -94.5t-158 -35zM346 84q65 0 115 26.5t85 72.5t53 103.5t18 120.5q0 95 -50 150.5t-139 55.5
q-66 0 -116.5 -27t-84.5 -73.5t-52 -104t-18 -118.5q0 -64 22 -110.5t64.5 -71t102.5 -24.5zM273 -174l6 108h111l-6 -108h-111z" />
    <glyph glyph-name="uni1ECD" unicode="&#x1ecd;" horiz-adv-x="575" 
d="M256 -9q-64 0 -112 28t-75 77t-27 114q0 58 20 110.5t57 93t87.5 64.5t111.5 24q65 0 112.5 -27.5t74 -76t26.5 -113.5q0 -59 -20.5 -112t-57.5 -94t-87 -64.5t-110 -23.5zM260 78q42 0 74 17.5t54.5 47t34.5 66.5t12 76q0 59 -31.5 95t-89.5 36q-43 0 -76 -18t-55 -48.5
t-33.5 -66.5t-11.5 -74q0 -59 32 -95t90 -36zM188 -174l6 108h111l-6 -108h-111z" />
    <glyph glyph-name="uni1ECE" unicode="&#x1ece;" horiz-adv-x="748" 
d="M341 -13q-88 0 -152 36.5t-98.5 104t-34.5 158.5q0 81 25.5 157t74 136.5t118.5 95.5t158 35q89 0 153 -36.5t99 -103.5t35 -159q0 -83 -26 -159t-75 -135.5t-119 -94.5t-158 -35zM346 84q65 0 115 26.5t85 72.5t53 103.5t18 120.5q0 95 -50 150.5t-139 55.5
q-66 0 -116.5 -27t-84.5 -73.5t-52 -104t-18 -118.5q0 -64 22 -110.5t64.5 -71t102.5 -24.5zM403 725l-7 35q18 4 35 9t29.5 14.5t14.5 24.5q3 22 -19.5 30t-56.5 8h-18l10 56h11q66 0 105 -25.5t35 -68.5q-4 -32 -25 -48.5t-51.5 -23t-62.5 -11.5z" />
    <glyph glyph-name="uni1ECF" unicode="&#x1ecf;" horiz-adv-x="575" 
d="M256 -9q-64 0 -112 28t-75 77t-27 114q0 58 20 110.5t57 93t87.5 64.5t111.5 24q65 0 112.5 -27.5t74 -76t26.5 -113.5q0 -59 -20.5 -112t-57.5 -94t-87 -64.5t-110 -23.5zM260 78q42 0 74 17.5t54.5 47t34.5 66.5t12 76q0 59 -31.5 95t-89.5 36q-43 0 -76 -18t-55 -48.5
t-33.5 -66.5t-11.5 -74q0 -59 32 -95t90 -36zM289 521l-7 35q18 4 35 9t29.5 14.5t14.5 24.5q3 22 -19.5 30t-56.5 8h-18l10 56h11q66 0 105 -25.5t35 -68.5q-4 -32 -25 -48.5t-51.5 -23t-62.5 -11.5z" />
    <glyph glyph-name="uni1ED0" unicode="&#x1ed0;" horiz-adv-x="748" 
d="M341 -13q-88 0 -152 36.5t-98.5 104t-34.5 158.5q0 81 25.5 157t74 136.5t118.5 95.5t158 35q89 0 153 -36.5t99 -103.5t35 -159q0 -83 -26 -159t-75 -135.5t-119 -94.5t-158 -35zM346 84q65 0 115 26.5t85 72.5t53 103.5t18 120.5q0 95 -50 150.5t-139 55.5
q-66 0 -116.5 -27t-84.5 -73.5t-52 -104t-18 -118.5q0 -64 22 -110.5t64.5 -71t102.5 -24.5zM289 743l172 143l134 -143h-78l-62 71l-85 -71h-81zM531 849l88 134h82l-108 -134h-62z" />
    <glyph glyph-name="uni1ED1" unicode="&#x1ed1;" horiz-adv-x="575" 
d="M256 -9q-64 0 -112 28t-75 77t-27 114q0 58 20 110.5t57 93t87.5 64.5t111.5 24q65 0 112.5 -27.5t74 -76t26.5 -113.5q0 -59 -20.5 -112t-57.5 -94t-87 -64.5t-110 -23.5zM260 78q42 0 74 17.5t54.5 47t34.5 66.5t12 76q0 59 -31.5 95t-89.5 36q-43 0 -76 -18t-55 -48.5
t-33.5 -66.5t-11.5 -74q0 -59 32 -95t90 -36zM174 545l174 154l132 -154h-78l-62 70l-84 -70h-82zM416 651l88 133h83l-109 -133h-62z" />
    <glyph glyph-name="uni1ED2" unicode="&#x1ed2;" horiz-adv-x="748" 
d="M341 -13q-88 0 -152 36.5t-98.5 104t-34.5 158.5q0 81 25.5 157t74 136.5t118.5 95.5t158 35q89 0 153 -36.5t99 -103.5t35 -159q0 -83 -26 -159t-75 -135.5t-119 -94.5t-158 -35zM346 84q65 0 115 26.5t85 72.5t53 103.5t18 120.5q0 95 -50 150.5t-139 55.5
q-66 0 -116.5 -27t-84.5 -73.5t-52 -104t-18 -118.5q0 -64 22 -110.5t64.5 -71t102.5 -24.5zM289 743l172 143l134 -143h-78l-62 71l-84 -71h-82zM576 849l-71 134h78l51 -134h-58z" />
    <glyph glyph-name="uni1ED3" unicode="&#x1ed3;" horiz-adv-x="575" 
d="M256 -9q-64 0 -112 28t-75 77t-27 114q0 58 20 110.5t57 93t87.5 64.5t111.5 24q65 0 112.5 -27.5t74 -76t26.5 -113.5q0 -59 -20.5 -112t-57.5 -94t-87 -64.5t-110 -23.5zM260 78q42 0 74 17.5t54.5 47t34.5 66.5t12 76q0 59 -31.5 95t-89.5 36q-43 0 -76 -18t-55 -48.5
t-33.5 -66.5t-11.5 -74q0 -59 32 -95t90 -36zM174 545l174 154l132 -154h-78l-62 70l-84 -70h-82zM464 651l-72 133h79l50 -133h-57z" />
    <glyph glyph-name="uni1ED4" unicode="&#x1ed4;" horiz-adv-x="748" 
d="M341 -13q-88 0 -152 36.5t-98.5 104t-34.5 158.5q0 81 25.5 157t74 136.5t118.5 95.5t158 35q89 0 153 -36.5t99 -103.5t35 -159q0 -83 -26 -159t-75 -135.5t-119 -94.5t-158 -35zM346 84q65 0 115 26.5t85 72.5t53 103.5t18 120.5q0 95 -50 150.5t-139 55.5
q-66 0 -116.5 -27t-84.5 -73.5t-52 -104t-18 -118.5q0 -64 22 -110.5t64.5 -71t102.5 -24.5zM289 743l172 143l134 -143h-78l-62 71l-84 -71h-82zM561 811l-12 37q32 5 50.5 16.5t18.5 33.5q0 18 -20.5 25.5t-47.5 7.5h-18l7 52h13q64 0 95.5 -24t27.5 -65q-4 -30 -20.5 -46
t-41 -24t-52.5 -13z" />
    <glyph glyph-name="uni1ED5" unicode="&#x1ed5;" horiz-adv-x="575" 
d="M256 -9q-64 0 -112 28t-75 77t-27 114q0 58 20 110.5t57 93t87.5 64.5t111.5 24q65 0 112.5 -27.5t74 -76t26.5 -113.5q0 -59 -20.5 -112t-57.5 -94t-87 -64.5t-110 -23.5zM260 78q42 0 74 17.5t54.5 47t34.5 66.5t12 76q0 59 -31.5 95t-89.5 36q-43 0 -76 -18t-55 -48.5
t-33.5 -66.5t-11.5 -74q0 -59 32 -95t90 -36zM174 545l174 154l132 -154h-78l-62 70l-84 -70h-82zM438 633l-12 37q19 2 34 7.5t25 15t11 23.5q3 22 -18.5 29t-50.5 7h-17l7 53h12q60 0 92 -21.5t32 -60.5q0 -34 -16 -51.5t-42.5 -25.5t-56.5 -13z" />
    <glyph glyph-name="uni1ED6" unicode="&#x1ed6;" horiz-adv-x="748" 
d="M341 -13q-88 0 -152 36.5t-98.5 104t-34.5 158.5q0 81 25.5 157t74 136.5t118.5 95.5t158 35q89 0 153 -36.5t99 -103.5t35 -159q0 -83 -26 -159t-75 -135.5t-119 -94.5t-158 -35zM346 84q65 0 115 26.5t85 72.5t53 103.5t18 120.5q0 95 -50 150.5t-139 55.5
q-66 0 -116.5 -27t-84.5 -73.5t-52 -104t-18 -118.5q0 -64 22 -110.5t64.5 -71t102.5 -24.5zM288 743l172 143l134 -143h-78l-62 71l-85 -71h-81zM532 889q-26 0 -42.5 6t-28 15t-21.5 15.5t-24 6.5q-18 0 -29.5 -11t-17.5 -25h-59q13 43 40 65.5t64 22.5q25 0 41 -6
t28 -14.5t23 -15t24 -6.5q17 0 28 10t17 24h62q-13 -42 -39 -64.5t-66 -22.5z" />
    <glyph glyph-name="uni1ED7" unicode="&#x1ed7;" horiz-adv-x="575" 
d="M256 -9q-64 0 -112 28t-75 77t-27 114q0 58 20 110.5t57 93t87.5 64.5t111.5 24q65 0 112.5 -27.5t74 -76t26.5 -113.5q0 -59 -20.5 -112t-57.5 -94t-87 -64.5t-110 -23.5zM260 78q42 0 74 17.5t54.5 47t34.5 66.5t12 76q0 59 -31.5 95t-89.5 36q-43 0 -76 -18t-55 -48.5
t-33.5 -66.5t-11.5 -74q0 -59 32 -95t90 -36zM174 545l174 154l132 -154h-78l-62 70l-84 -70h-82zM422 704q-25 0 -40 6.5t-25.5 15t-21.5 15t-28 6.5q-24 0 -36 -11.5t-17 -27.5l-54 7q9 39 34 62.5t63 23.5q25 0 42 -6t29 -14t22 -14t23 -6q18 0 29 8t16 26l57 -8
q-9 -39 -32 -61t-61 -22z" />
    <glyph glyph-name="uni1ED8" unicode="&#x1ed8;" horiz-adv-x="748" 
d="M341 -13q-88 0 -152 36.5t-98.5 104t-34.5 158.5q0 81 25.5 157t74 136.5t118.5 95.5t158 35q89 0 153 -36.5t99 -103.5t35 -159q0 -83 -26 -159t-75 -135.5t-119 -94.5t-158 -35zM346 84q65 0 115 26.5t85 72.5t53 103.5t18 120.5q0 95 -50 150.5t-139 55.5
q-66 0 -116.5 -27t-84.5 -73.5t-52 -104t-18 -118.5q0 -64 22 -110.5t64.5 -71t102.5 -24.5zM273 -174l6 108h111l-6 -108h-111zM289 749l176 166l131 -166h-78l-61 82l-85 -82h-83z" />
    <glyph glyph-name="uni1ED9" unicode="&#x1ed9;" horiz-adv-x="575" 
d="M256 -9q-64 0 -112 28t-75 77t-27 114q0 58 20 110.5t57 93t87.5 64.5t111.5 24q65 0 112.5 -27.5t74 -76t26.5 -113.5q0 -59 -20.5 -112t-57.5 -94t-87 -64.5t-110 -23.5zM260 78q42 0 74 17.5t54.5 47t34.5 66.5t12 76q0 59 -31.5 95t-89.5 36q-43 0 -76 -18t-55 -48.5
t-33.5 -66.5t-11.5 -74q0 -59 32 -95t90 -36zM188 -174l6 108h111l-6 -108h-111zM181 545l171 166l125 -166h-74l-60 82l-82 -82h-80z" />
    <glyph glyph-name="uni1EDA" unicode="&#x1eda;" horiz-adv-x="748" 
d="M341 -13q-88 0 -152 36.5t-98.5 104t-34.5 158.5q0 81 25.5 157t74 136.5t118.5 95.5t158 35q89 0 153 -36.5t99 -103.5t35 -159q0 -83 -26 -159t-75 -135.5t-119 -94.5t-158 -35zM346 84q65 0 115 26.5t85 72.5t53 103.5t18 120.5q0 95 -50 150.5t-139 55.5
q-66 0 -116.5 -27t-84.5 -73.5t-52 -104t-18 -118.5q0 -64 22 -110.5t64.5 -71t102.5 -24.5zM648 495l4 62q44 0 67 26.5t30 75.5l5 38h67l-7 -46q-9 -68 -48.5 -112t-117.5 -44zM402 760l112 141h105l-146 -141h-71z" />
    <glyph glyph-name="uni1EDB" unicode="&#x1edb;" horiz-adv-x="575" 
d="M256 -9q-64 0 -112 28t-75 77t-27 114q0 58 20 110.5t57 93t87.5 64.5t111.5 24q65 0 112.5 -27.5t74 -76t26.5 -113.5q0 -59 -20.5 -112t-57.5 -94t-87 -64.5t-110 -23.5zM260 78q42 0 74 17.5t54.5 47t34.5 66.5t12 76q0 59 -31.5 95t-89.5 36q-43 0 -76 -18t-55 -48.5
t-33.5 -66.5t-11.5 -74q0 -59 32 -95t90 -36zM459 291l4 62q44 0 67 26.5t30 75.5l5 38h67l-7 -46q-9 -68 -48.5 -112t-117.5 -44zM287 556l112 141h105l-146 -141h-71z" />
    <glyph glyph-name="uni1EDC" unicode="&#x1edc;" horiz-adv-x="748" 
d="M341 -13q-88 0 -152 36.5t-98.5 104t-34.5 158.5q0 81 25.5 157t74 136.5t118.5 95.5t158 35q89 0 153 -36.5t99 -103.5t35 -159q0 -83 -26 -159t-75 -135.5t-119 -94.5t-158 -35zM346 84q65 0 115 26.5t85 72.5t53 103.5t18 120.5q0 95 -50 150.5t-139 55.5
q-66 0 -116.5 -27t-84.5 -73.5t-52 -104t-18 -118.5q0 -64 22 -110.5t64.5 -71t102.5 -24.5zM648 495l4 62q44 0 67 26.5t30 75.5l5 38h67l-7 -46q-9 -68 -48.5 -112t-117.5 -44zM403 760l-126 141h102l96 -141h-72z" />
    <glyph glyph-name="uni1EDD" unicode="&#x1edd;" horiz-adv-x="575" 
d="M256 -9q-64 0 -112 28t-75 77t-27 114q0 58 20 110.5t57 93t87.5 64.5t111.5 24q65 0 112.5 -27.5t74 -76t26.5 -113.5q0 -59 -20.5 -112t-57.5 -94t-87 -64.5t-110 -23.5zM260 78q42 0 74 17.5t54.5 47t34.5 66.5t12 76q0 59 -31.5 95t-89.5 36q-43 0 -76 -18t-55 -48.5
t-33.5 -66.5t-11.5 -74q0 -59 32 -95t90 -36zM459 291l4 62q44 0 67 26.5t30 75.5l5 38h67l-7 -46q-9 -68 -48.5 -112t-117.5 -44zM288 556l-126 141h102l96 -141h-72z" />
    <glyph glyph-name="uni1EDE" unicode="&#x1ede;" horiz-adv-x="748" 
d="M341 -13q-88 0 -152 36.5t-98.5 104t-34.5 158.5q0 81 25.5 157t74 136.5t118.5 95.5t158 35q89 0 153 -36.5t99 -103.5t35 -159q0 -83 -26 -159t-75 -135.5t-119 -94.5t-158 -35zM346 84q65 0 115 26.5t85 72.5t53 103.5t18 120.5q0 95 -50 150.5t-139 55.5
q-66 0 -116.5 -27t-84.5 -73.5t-52 -104t-18 -118.5q0 -64 22 -110.5t64.5 -71t102.5 -24.5zM648 495l4 62q44 0 67 26.5t30 75.5l5 38h67l-7 -46q-9 -68 -48.5 -112t-117.5 -44zM403 725l-7 35q18 4 35 9t29.5 14.5t14.5 24.5q3 22 -19.5 30t-56.5 8h-18l10 56h11
q66 0 105 -25.5t35 -68.5q-4 -32 -25 -48.5t-51.5 -23t-62.5 -11.5z" />
    <glyph glyph-name="uni1EDF" unicode="&#x1edf;" horiz-adv-x="575" 
d="M256 -9q-64 0 -112 28t-75 77t-27 114q0 58 20 110.5t57 93t87.5 64.5t111.5 24q65 0 112.5 -27.5t74 -76t26.5 -113.5q0 -59 -20.5 -112t-57.5 -94t-87 -64.5t-110 -23.5zM260 78q42 0 74 17.5t54.5 47t34.5 66.5t12 76q0 59 -31.5 95t-89.5 36q-43 0 -76 -18t-55 -48.5
t-33.5 -66.5t-11.5 -74q0 -59 32 -95t90 -36zM459 291l4 62q44 0 67 26.5t30 75.5l5 38h67l-7 -46q-9 -68 -48.5 -112t-117.5 -44zM289 521l-7 35q18 4 35 9t29.5 14.5t14.5 24.5q3 22 -19.5 30t-56.5 8h-18l10 56h11q66 0 105 -25.5t35 -68.5q-4 -32 -25 -48.5t-51.5 -23
t-62.5 -11.5z" />
    <glyph glyph-name="uni1EE0" unicode="&#x1ee0;" horiz-adv-x="748" 
d="M341 -13q-88 0 -152 36.5t-98.5 104t-34.5 158.5q0 81 25.5 157t74 136.5t118.5 95.5t158 35q89 0 153 -36.5t99 -103.5t35 -159q0 -83 -26 -159t-75 -135.5t-119 -94.5t-158 -35zM346 84q65 0 115 26.5t85 72.5t53 103.5t18 120.5q0 95 -50 150.5t-139 55.5
q-66 0 -116.5 -27t-84.5 -73.5t-52 -104t-18 -118.5q0 -64 22 -110.5t64.5 -71t102.5 -24.5zM648 495l4 62q44 0 67 26.5t30 75.5l5 38h67l-7 -46q-9 -68 -48.5 -112t-117.5 -44zM512 743q-25 0 -40.5 7.5t-25.5 19t-18 23t-16.5 19.5t-21.5 8q-20 0 -35 -19.5t-20 -54.5
l-56 5q8 60 38.5 92t74.5 32q23 0 37 -8t24.5 -20t18.5 -23.5t17 -19.5t21 -8q18 0 33 21.5t20 55.5l59 -4q-8 -61 -38 -93.5t-72 -32.5z" />
    <glyph glyph-name="uni1EE1" unicode="&#x1ee1;" horiz-adv-x="575" 
d="M256 -9q-64 0 -112 28t-75 77t-27 114q0 58 20 110.5t57 93t87.5 64.5t111.5 24q65 0 112.5 -27.5t74 -76t26.5 -113.5q0 -59 -20.5 -112t-57.5 -94t-87 -64.5t-110 -23.5zM260 78q42 0 74 17.5t54.5 47t34.5 66.5t12 76q0 59 -31.5 95t-89.5 36q-43 0 -76 -18t-55 -48.5
t-33.5 -66.5t-11.5 -74q0 -59 32 -95t90 -36zM459 291l4 62q44 0 67 26.5t30 75.5l5 38h67l-7 -46q-9 -68 -48.5 -112t-117.5 -44zM404 563q-35 0 -51 15t-29 33q-9 13 -18 20.5t-20 7.5q-19 0 -34 -20.5t-21 -54.5l-55 7q11 64 41 97t73 33q30 0 45.5 -15t26.5 -31
q9 -13 18 -22.5t23 -9.5q17 0 32.5 21.5t21.5 55.5l56 -6q-10 -64 -39.5 -97.5t-69.5 -33.5z" />
    <glyph glyph-name="uni1EE2" unicode="&#x1ee2;" horiz-adv-x="748" 
d="M341 -13q-88 0 -152 36.5t-98.5 104t-34.5 158.5q0 81 25.5 157t74 136.5t118.5 95.5t158 35q89 0 153 -36.5t99 -103.5t35 -159q0 -83 -26 -159t-75 -135.5t-119 -94.5t-158 -35zM346 84q65 0 115 26.5t85 72.5t53 103.5t18 120.5q0 95 -50 150.5t-139 55.5
q-66 0 -116.5 -27t-84.5 -73.5t-52 -104t-18 -118.5q0 -64 22 -110.5t64.5 -71t102.5 -24.5zM648 495l4 62q44 0 67 26.5t30 75.5l5 38h67l-7 -46q-9 -68 -48.5 -112t-117.5 -44zM273 -174l6 108h111l-6 -108h-111z" />
    <glyph glyph-name="uni1EE3" unicode="&#x1ee3;" horiz-adv-x="575" 
d="M256 -9q-64 0 -112 28t-75 77t-27 114q0 58 20 110.5t57 93t87.5 64.5t111.5 24q65 0 112.5 -27.5t74 -76t26.5 -113.5q0 -59 -20.5 -112t-57.5 -94t-87 -64.5t-110 -23.5zM260 78q42 0 74 17.5t54.5 47t34.5 66.5t12 76q0 59 -31.5 95t-89.5 36q-43 0 -76 -18t-55 -48.5
t-33.5 -66.5t-11.5 -74q0 -59 32 -95t90 -36zM459 291l4 62q44 0 67 26.5t30 75.5l5 38h67l-7 -46q-9 -68 -48.5 -112t-117.5 -44zM188 -174l6 108h111l-6 -108h-111z" />
    <glyph glyph-name="uni1EE4" unicode="&#x1ee4;" horiz-adv-x="656" 
d="M296 -13q-114 0 -172.5 53t-58.5 156q0 12 1 27.5t3 30.5l62 443h102l-61 -437q-2 -15 -3 -30t-1 -26q0 -61 30 -92.5t100 -31.5q60 0 99 22t61 63.5t31 100.5l60 431h101l-62 -442q-19 -135 -92.5 -201.5t-199.5 -66.5zM229 -174l6 108h111l-6 -108h-111z" />
    <glyph glyph-name="uni1EE5" unicode="&#x1ee5;" horiz-adv-x="553" 
d="M206 -9q-76 0 -115.5 39.5t-39.5 112.5q0 11 1 21t2 21l42 308h99l-40 -283q-1 -11 -2 -21t-1 -21q0 -47 20.5 -69t62.5 -22q44 0 74.5 21.5t50.5 64t28 104.5l32 226h98l-70 -493h-95l13 106l20 -6q-29 -57 -76.5 -83t-103.5 -26zM178 -174l6 108h111l-6 -108h-111z" />
    <glyph glyph-name="uni1EE6" unicode="&#x1ee6;" horiz-adv-x="656" 
d="M296 -13q-114 0 -172.5 53t-58.5 156q0 12 1 27.5t3 30.5l62 443h102l-61 -437q-2 -15 -3 -30t-1 -26q0 -61 30 -92.5t100 -31.5q60 0 99 22t61 63.5t31 100.5l60 431h101l-62 -442q-19 -135 -92.5 -201.5t-199.5 -66.5zM359 725l-7 35q18 4 35 9t29.5 14.5t14.5 24.5
q3 22 -19.5 30t-56.5 8h-18l10 56h11q66 0 105 -25.5t35 -68.5q-4 -32 -25 -48.5t-51.5 -23t-62.5 -11.5z" />
    <glyph glyph-name="uni1EE7" unicode="&#x1ee7;" horiz-adv-x="553" 
d="M206 -9q-76 0 -115.5 39.5t-39.5 112.5q0 11 1 21t2 21l42 308h99l-40 -283q-1 -11 -2 -21t-1 -21q0 -47 20.5 -69t62.5 -22q44 0 74.5 21.5t50.5 64t28 104.5l32 226h98l-70 -493h-95l13 106l20 -6q-29 -57 -76.5 -83t-103.5 -26zM273 521l-7 35q18 4 35 9t29.5 14.5
t14.5 24.5q3 22 -19.5 30t-56.5 8h-18l10 56h11q66 0 105 -25.5t35 -68.5q-4 -32 -25 -48.5t-51.5 -23t-62.5 -11.5z" />
    <glyph glyph-name="uni1EE8" unicode="&#x1ee8;" horiz-adv-x="719" 
d="M296 -13q-114 0 -172.5 53t-58.5 156q0 12 1 27.5t3 30.5l62 443h102l-61 -437q-2 -15 -3 -30t-1 -26q0 -61 30 -92.5t100 -31.5q60 0 99 22t61 63.5t31 100.5l60 431h101l-62 -442q-19 -135 -92.5 -201.5t-199.5 -66.5zM591 495l4 62q44 0 67 26.5t30 75.5l5 38h67
l-7 -46q-9 -68 -48.5 -112t-117.5 -44zM357 760l112 141h105l-146 -141h-71z" />
    <glyph glyph-name="uni1EE9" unicode="&#x1ee9;" horiz-adv-x="553" 
d="M206 -9q-76 0 -115.5 39.5t-39.5 112.5q0 11 1 21t2 21l42 308h99l-40 -283q-1 -11 -2 -21t-1 -21q0 -47 20.5 -69t62.5 -22q44 0 74.5 21.5t50.5 64t28 104.5l32 226h98l-70 -493h-95l13 106l20 -6q-29 -57 -76.5 -83t-103.5 -26zM475 291l4 62q44 0 67 26.5t30 75.5
l5 38h67l-7 -46q-9 -68 -48.5 -112t-117.5 -44zM272 556l112 141h105l-146 -141h-71z" />
    <glyph glyph-name="uni1EEA" unicode="&#x1eea;" horiz-adv-x="719" 
d="M296 -13q-114 0 -172.5 53t-58.5 156q0 12 1 27.5t3 30.5l62 443h102l-61 -437q-2 -15 -3 -30t-1 -26q0 -61 30 -92.5t100 -31.5q60 0 99 22t61 63.5t31 100.5l60 431h101l-62 -442q-19 -135 -92.5 -201.5t-199.5 -66.5zM591 495l4 62q44 0 67 26.5t30 75.5l5 38h67
l-7 -46q-9 -68 -48.5 -112t-117.5 -44zM358 760l-126 141h102l96 -141h-72z" />
    <glyph glyph-name="uni1EEB" unicode="&#x1eeb;" horiz-adv-x="553" 
d="M206 -9q-76 0 -115.5 39.5t-39.5 112.5q0 11 1 21t2 21l42 308h99l-40 -283q-1 -11 -2 -21t-1 -21q0 -47 20.5 -69t62.5 -22q44 0 74.5 21.5t50.5 64t28 104.5l32 226h98l-70 -493h-95l13 106l20 -6q-29 -57 -76.5 -83t-103.5 -26zM475 291l4 62q44 0 67 26.5t30 75.5
l5 38h67l-7 -46q-9 -68 -48.5 -112t-117.5 -44zM273 556l-126 141h102l96 -141h-72z" />
    <glyph glyph-name="uni1EEC" unicode="&#x1eec;" horiz-adv-x="719" 
d="M296 -13q-114 0 -172.5 53t-58.5 156q0 12 1 27.5t3 30.5l62 443h102l-61 -437q-2 -15 -3 -30t-1 -26q0 -61 30 -92.5t100 -31.5q60 0 99 22t61 63.5t31 100.5l60 431h101l-62 -442q-19 -135 -92.5 -201.5t-199.5 -66.5zM591 495l4 62q44 0 67 26.5t30 75.5l5 38h67
l-7 -46q-9 -68 -48.5 -112t-117.5 -44zM359 725l-7 35q18 4 35 9t29.5 14.5t14.5 24.5q3 22 -19.5 30t-56.5 8h-18l10 56h11q66 0 105 -25.5t35 -68.5q-4 -32 -25 -48.5t-51.5 -23t-62.5 -11.5z" />
    <glyph glyph-name="uni1EED" unicode="&#x1eed;" horiz-adv-x="553" 
d="M206 -9q-76 0 -115.5 39.5t-39.5 112.5q0 11 1 21t2 21l42 308h99l-40 -283q-1 -11 -2 -21t-1 -21q0 -47 20.5 -69t62.5 -22q44 0 74.5 21.5t50.5 64t28 104.5l32 226h98l-70 -493h-95l13 106l20 -6q-29 -57 -76.5 -83t-103.5 -26zM475 291l4 62q44 0 67 26.5t30 75.5
l5 38h67l-7 -46q-9 -68 -48.5 -112t-117.5 -44zM273 521l-7 35q18 4 35 9t29.5 14.5t14.5 24.5q3 22 -19.5 30t-56.5 8h-18l10 56h11q66 0 105 -25.5t35 -68.5q-4 -32 -25 -48.5t-51.5 -23t-62.5 -11.5z" />
    <glyph glyph-name="uni1EEE" unicode="&#x1eee;" horiz-adv-x="719" 
d="M296 -13q-114 0 -172.5 53t-58.5 156q0 12 1 27.5t3 30.5l62 443h102l-61 -437q-2 -15 -3 -30t-1 -26q0 -61 30 -92.5t100 -31.5q60 0 99 22t61 63.5t31 100.5l60 431h101l-62 -442q-19 -135 -92.5 -201.5t-199.5 -66.5zM591 495l4 62q44 0 67 26.5t30 75.5l5 38h67
l-7 -46q-9 -68 -48.5 -112t-117.5 -44zM468 743q-25 0 -40.5 7.5t-25.5 19t-18 23t-16.5 19.5t-21.5 8q-20 0 -35 -19.5t-20 -54.5l-56 5q8 60 38.5 92t74.5 32q23 0 37 -8t24.5 -20t18.5 -23.5t17 -19.5t21 -8q18 0 33 21.5t20 55.5l59 -4q-8 -61 -38 -93.5t-72 -32.5z" />
    <glyph glyph-name="uni1EEF" unicode="&#x1eef;" horiz-adv-x="553" 
d="M206 -9q-76 0 -115.5 39.5t-39.5 112.5q0 11 1 21t2 21l42 308h99l-40 -283q-1 -11 -2 -21t-1 -21q0 -47 20.5 -69t62.5 -22q44 0 74.5 21.5t50.5 64t28 104.5l32 226h98l-70 -493h-95l13 106l20 -6q-29 -57 -76.5 -83t-103.5 -26zM475 291l4 62q44 0 67 26.5t30 75.5
l5 38h67l-7 -46q-9 -68 -48.5 -112t-117.5 -44zM388 563q-35 0 -51 15t-29 33q-9 13 -18 20.5t-20 7.5q-19 0 -34 -20.5t-21 -54.5l-55 7q11 64 41 97t73 33q30 0 45.5 -15t26.5 -31q9 -13 18 -22.5t23 -9.5q17 0 32.5 21.5t21.5 55.5l56 -6q-10 -64 -39.5 -97.5
t-69.5 -33.5z" />
    <glyph glyph-name="uni1EF0" unicode="&#x1ef0;" horiz-adv-x="719" 
d="M296 -13q-114 0 -172.5 53t-58.5 156q0 12 1 27.5t3 30.5l62 443h102l-61 -437q-2 -15 -3 -30t-1 -26q0 -61 30 -92.5t100 -31.5q60 0 99 22t61 63.5t31 100.5l60 431h101l-62 -442q-19 -135 -92.5 -201.5t-199.5 -66.5zM591 495l4 62q44 0 67 26.5t30 75.5l5 38h67
l-7 -46q-9 -68 -48.5 -112t-117.5 -44zM229 -174l6 108h111l-6 -108h-111z" />
    <glyph glyph-name="uni1EF1" unicode="&#x1ef1;" horiz-adv-x="553" 
d="M206 -9q-76 0 -115.5 39.5t-39.5 112.5q0 11 1 21t2 21l42 308h99l-40 -283q-1 -11 -2 -21t-1 -21q0 -47 20.5 -69t62.5 -22q44 0 74.5 21.5t50.5 64t28 104.5l32 226h98l-70 -493h-95l13 106l20 -6q-29 -57 -76.5 -83t-103.5 -26zM475 291l4 62q44 0 67 26.5t30 75.5
l5 38h67l-7 -46q-9 -68 -48.5 -112t-117.5 -44zM178 -174l6 108h111l-6 -108h-111z" />
    <glyph glyph-name="Ygrave" unicode="&#x1ef2;" horiz-adv-x="610" 
d="M220 0l38 270l-185 427h114l131 -325l228 325h118l-304 -427l-38 -270h-102zM336 760l-126 141h102l96 -141h-72z" />
    <glyph glyph-name="ygrave" unicode="&#x1ef3;" horiz-adv-x="526" 
d="M50 -203l130 232l-124 464h106l82 -366l188 366h108l-381 -696h-109zM265 556l-126 141h102l96 -141h-72z" />
    <glyph glyph-name="uni1EF4" unicode="&#x1ef4;" horiz-adv-x="610" 
d="M220 0l38 270l-185 427h114l131 -325l228 325h118l-304 -427l-38 -270h-102zM206 -174l6 108h111l-6 -108h-111z" />
    <glyph glyph-name="uni1EF5" unicode="&#x1ef5;" horiz-adv-x="526" 
d="M50 -203l130 232l-124 464h106l82 -366l188 366h108l-381 -696h-109zM318 -204l6 108h111l-6 -108h-111z" />
    <glyph glyph-name="uni1EF6" unicode="&#x1ef6;" horiz-adv-x="610" 
d="M220 0l38 270l-185 427h114l131 -325l228 325h118l-304 -427l-38 -270h-102zM336 725l-7 35q18 4 35 9t29.5 14.5t14.5 24.5q3 22 -19.5 30t-56.5 8h-18l10 56h11q66 0 105 -25.5t35 -68.5q-4 -32 -25 -48.5t-51.5 -23t-62.5 -11.5z" />
    <glyph glyph-name="uni1EF7" unicode="&#x1ef7;" horiz-adv-x="526" 
d="M50 -203l130 232l-124 464h106l82 -366l188 366h108l-381 -696h-109zM265 521l-7 35q18 4 35 9t29.5 14.5t14.5 24.5q3 22 -19.5 30t-56.5 8h-18l10 56h11q66 0 105 -25.5t35 -68.5q-4 -32 -25 -48.5t-51.5 -23t-62.5 -11.5z" />
    <glyph glyph-name="uni1EF8" unicode="&#x1ef8;" horiz-adv-x="610" 
d="M220 0l38 270l-185 427h114l131 -325l228 325h118l-304 -427l-38 -270h-102zM445 743q-25 0 -40.5 7.5t-25.5 19t-18 23t-16.5 19.5t-21.5 8q-20 0 -35 -19.5t-20 -54.5l-56 5q8 60 38.5 92t74.5 32q23 0 37 -8t24.5 -20t18.5 -23.5t17 -19.5t21 -8q18 0 33 21.5t20 55.5
l59 -4q-8 -61 -38 -93.5t-72 -32.5z" />
    <glyph glyph-name="uni1EF9" unicode="&#x1ef9;" horiz-adv-x="526" 
d="M50 -203l130 232l-124 464h106l82 -366l188 366h108l-381 -696h-109zM380 563q-35 0 -51 15t-29 33q-9 13 -18 20.5t-20 7.5q-19 0 -34 -20.5t-21 -54.5l-55 7q11 64 41 97t73 33q30 0 45.5 -15t26.5 -31q9 -13 18 -22.5t23 -9.5q17 0 32.5 21.5t21.5 55.5l56 -6
q-10 -64 -39.5 -97.5t-69.5 -33.5z" />
    <glyph glyph-name="endash" unicode="&#x2013;" horiz-adv-x="369" 
d="M3 264l9 73h370l-10 -73h-369z" />
    <glyph glyph-name="emdash" unicode="&#x2014;" horiz-adv-x="1010" 
d="M3 264l9 73h1010l-9 -73h-1010z" />
    <glyph glyph-name="uni2015" unicode="&#x2015;" horiz-adv-x="695" 
d="M44 264l10 73h612l-10 -73h-612z" />
    <glyph glyph-name="quoteleft" unicode="&#x2018;" horiz-adv-x="265" 
d="M55 415l169 282h66l-120 -282h-115z" />
    <glyph glyph-name="quoteright" unicode="&#x2019;" horiz-adv-x="265" 
d="M61 416l120 281h115l-169 -281h-66z" />
    <glyph glyph-name="quotesinglbase" unicode="&#x201a;" horiz-adv-x="287" 
d="M-9 -152l120 282h115l-168 -282h-67z" />
    <glyph glyph-name="quotedblleft" unicode="&#x201c;" horiz-adv-x="445" 
d="M236 415l168 282h67l-120 -282h-115zM55 415l168 282h66l-120 -282h-114z" />
    <glyph glyph-name="quotedblright" unicode="&#x201d;" horiz-adv-x="446" 
d="M242 416l121 281h114l-168 -281h-67zM61 416l120 281h115l-169 -281h-66z" />
    <glyph glyph-name="quotedblbase" unicode="&#x201e;" horiz-adv-x="404" 
d="M144 -152l121 282h114l-168 -282h-67zM-45 -152l120 282h115l-168 -282h-67z" />
    <glyph glyph-name="dagger" unicode="&#x2020;" horiz-adv-x="387" 
d="M107 -101l74 524h-123l11 73h122l28 201h74l-29 -201h124l-10 -73h-124l-73 -524h-74z" />
    <glyph glyph-name="daggerdbl" unicode="&#x2021;" horiz-adv-x="400" 
d="M115 -101l29 202h-123l10 73h123l35 249h-123l10 73h123l28 201h73l-28 -201h122l-10 -73h-123l-34 -249h122l-10 -73h-123l-28 -202h-73z" />
    <glyph glyph-name="bullet" unicode="&#x2022;" horiz-adv-x="363" 
d="M50 132l33 231h230l-32 -231h-231z" />
    <glyph glyph-name="uni2023" unicode="&#x2023;" horiz-adv-x="386" 
d="M44 83l49 349l276 -174z" />
    <glyph glyph-name="twodotenleader" unicode="&#x2025;" horiz-adv-x="444" 
d="M234 0l16 121h111l-17 -121h-110zM30 0l16 121h111l-17 -121h-110z" />
    <glyph glyph-name="ellipsis" unicode="&#x2026;" horiz-adv-x="676" 
d="M474 0l18 121h102l-18 -121h-102zM30 0l16 121h102l-17 -121h-101zM252 0l17 121h102l-17 -121h-102z" />
    <glyph glyph-name="perthousand" unicode="&#x2030;" horiz-adv-x="1080" 
d="M74 0l545 697h73l-545 -697h-73zM513 -9q-60 0 -98.5 38.5t-38.5 101.5q0 51 23 92.5t62 65.5t85 24q40 0 70.5 -18.5t48.5 -50.5t18 -72q0 -48 -23.5 -89t-62 -66.5t-84.5 -25.5zM519 58q28 0 50 14.5t35.5 38.5t13.5 53q0 36 -22.5 59.5t-55.5 23.5q-27 0 -49.5 -14
t-36 -38t-13.5 -55q0 -37 22.5 -59.5t55.5 -22.5zM226 384q-40 0 -71 17t-48.5 48.5t-17.5 73.5q0 51 23 92.5t62 66t85 24.5q40 0 70.5 -18.5t48.5 -51t18 -72.5q0 -48 -23.5 -89t-62 -66t-84.5 -25zM232 450q28 0 50 14.5t35.5 39t13.5 52.5q0 36 -22.5 59.5t-55.5 23.5
q-27 0 -49.5 -14t-36 -38t-13.5 -55q0 -37 22.5 -59.5t55.5 -22.5zM850 -9q-40 0 -71 17.5t-48.5 49t-17.5 73.5q0 51 23.5 92.5t62 65.5t85.5 24q40 0 70.5 -18.5t48.5 -50.5t18 -72q0 -48 -24 -89t-62.5 -66.5t-84.5 -25.5zM857 58q27 0 49 14.5t35.5 38.5t13.5 53
q0 36 -22 59.5t-56 23.5q-27 0 -49.5 -14t-36 -38t-13.5 -55q0 -37 22.5 -59.5t56.5 -22.5z" />
    <glyph glyph-name="uni2031" unicode="&#x2031;" horiz-adv-x="1418" 
d="M74 0l545 697h73l-545 -697h-73zM513 -9q-60 0 -98.5 38.5t-38.5 101.5q0 51 23 92.5t62 65.5t85 24q40 0 70.5 -18.5t48.5 -50.5t18 -72q0 -48 -23.5 -89t-62 -66.5t-84.5 -25.5zM519 58q28 0 50 14.5t35.5 38.5t13.5 53q0 36 -22.5 59.5t-55.5 23.5q-27 0 -49.5 -14
t-36 -38t-13.5 -55q0 -37 22.5 -59.5t55.5 -22.5zM226 384q-40 0 -71 17t-48.5 48.5t-17.5 73.5q0 51 23 92.5t62 66t85 24.5q40 0 70.5 -18.5t48.5 -51t18 -72.5q0 -48 -23.5 -89t-62 -66t-84.5 -25zM232 450q28 0 50 14.5t35.5 39t13.5 52.5q0 36 -22.5 59.5t-55.5 23.5
q-27 0 -49.5 -14t-36 -38t-13.5 -55q0 -37 22.5 -59.5t55.5 -22.5zM850 -9q-40 0 -71 17.5t-48.5 49t-17.5 73.5q0 51 23.5 92.5t62 65.5t85.5 24q40 0 70.5 -18.5t48.5 -50.5t18 -72q0 -48 -24 -89t-62.5 -66.5t-84.5 -25.5zM857 58q27 0 49 14.5t35.5 38.5t13.5 53
q0 36 -22 59.5t-56 23.5q-27 0 -49.5 -14t-36 -38t-13.5 -55q0 -37 22.5 -59.5t56.5 -22.5zM1188 -9q-40 0 -71 17.5t-48.5 49t-17.5 73.5q0 51 23 92.5t61.5 65.5t85.5 24q40 0 70.5 -18.5t48.5 -50.5t18 -72q0 -48 -23.5 -89t-62.5 -66.5t-84 -25.5zM1194 58
q27 0 49.5 14.5t36 38.5t13.5 53q0 36 -22.5 59.5t-56.5 23.5q-26 0 -48.5 -14t-36 -38t-13.5 -55q0 -37 22 -59.5t56 -22.5z" />
    <glyph glyph-name="guilsinglleft" unicode="&#x2039;" horiz-adv-x="258" 
d="M213 54l-209 199l263 197l-13 -104l-135 -93l107 -94z" />
    <glyph glyph-name="guilsinglright" unicode="&#x203a;" horiz-adv-x="258" 
d="M-9 54l13 105l134 94l-106 93l14 104l209 -197z" />
    <glyph glyph-name="fraction" unicode="&#x2044;" horiz-adv-x="215" 
d="M-167 0l506 697h72l-506 -697h-72z" />
    <glyph glyph-name="uni2074" unicode="&#x2074;" horiz-adv-x="336" 
d="M251 488l14 100h-195l6 45l238 273h54l-37 -264h66l-7 -54h-67l-13 -100h-59zM125 624l-2 18h149l29 203l6 -8z" />
    <glyph glyph-name="dong" unicode="&#x20ab;" horiz-adv-x="560" 
d="M227 138q-78 0 -120 49.5t-42 126.5q0 21 3 41q9 63 39.5 109t74 71t94.5 25q63 0 98.5 -34t42.5 -104l-32 16l39 284h85l-81 -577h-72l3 115l15 -3q-14 -53 -54 -86t-93 -33zM25 0l9 58h442l-9 -58h-442zM243 216q35 0 64 17.5t48 49t25 72.5q1 5 1.5 13t0.5 13
q0 46 -24.5 73.5t-66.5 27.5q-34 0 -63.5 -17.5t-49.5 -48.5t-26 -72q-1 -5 -1.5 -13t-0.5 -12q0 -46 25 -74.5t68 -28.5zM302 616l7 52h252l-7 -52h-252z" />
    <glyph glyph-name="Euro" unicode="&#x20ac;" horiz-adv-x="560" 
d="M311 -9q-81 0 -135.5 36.5t-82 101t-27.5 149.5q0 19 1.5 39.5t4.5 42.5q14 100 58.5 178t114.5 123t159 45q62 0 110 -16t82 -47l-61 -76q-24 23 -56.5 35t-77.5 12q-63 0 -111 -35t-78 -95.5t-41 -136.5q-3 -18 -4.5 -36.5t-1.5 -35.5q0 -85 36.5 -138.5t111.5 -53.5
q50 0 90 15.5t70 42.5l47 -86q-43 -32 -95 -48t-114 -16zM6 245l9 66h417l-12 -66h-414zM29 397l9 66h416l-11 -66h-414z" />
    <glyph glyph-name="uni20B1" unicode="&#x20b1;" horiz-adv-x="560" 
d="M37 0l98 697h188q74 0 121 -20.5t68.5 -58t21.5 -88.5q0 -9 -0.5 -19t-2.5 -21q-8 -57 -40.5 -101t-87.5 -68.5t-130 -24.5h-94l-41 -296h-101zM41 461l10 74h112l-11 -74h-111zM193 391h87q69 0 106.5 27.5t44.5 83.5q1 6 1.5 11t0.5 10q0 40 -28.5 59.5t-89.5 19.5h-93
zM496 461l11 74h83l-10 -74h-84z" />
    <glyph glyph-name="uni20B3" unicode="&#x20b3;" horiz-adv-x="560" 
d="M-21 0l325 697h78l129 -697h-112l-75 549l-231 -549h-114zM-13 146l12 66h553l-9 -66h-556zM10 298l9 66h554l-10 -66h-553z" />
    <glyph glyph-name="uni20B4" unicode="&#x20b4;" horiz-adv-x="560" 
d="M256 -12q-67 0 -114.5 23.5t-72.5 63.5t-25 91q0 30 9 60.5t31 55.5h117q-27 -24 -42 -51t-15 -61q0 -42 30.5 -66.5t80.5 -24.5q61 0 105.5 30.5t65.5 81.5l91 -45q-36 -75 -104 -116.5t-157 -41.5zM18 264l9 63h519l-9 -63h-519zM37 399l10 65h517l-8 -65h-519z
M345 436q39 22 63 46.5t24 61.5q0 34 -24.5 55t-62.5 21q-44 0 -79.5 -21.5t-64.5 -63.5l-77 55q42 62 96.5 91t122.5 29q60 0 102 -21t64.5 -57t22.5 -81q0 -40 -15.5 -67.5t-40.5 -47.5h-131z" />
    <glyph glyph-name="uni20B8" unicode="&#x20b8;" horiz-adv-x="560" 
d="M194 0l63 448h-198l11 83h498l-11 -83h-198l-63 -448h-102zM82 614l12 82h498l-12 -82h-498z" />
    <glyph glyph-name="uni20BD" unicode="&#x20bd;" horiz-adv-x="560" 
d="M72 0l20 138h-89l11 82h90l11 84h-89l13 87h89l42 306h209q102 0 157.5 -46.5t55.5 -127.5v-16t-2 -19q-13 -93 -82.5 -138.5t-179.5 -45.5h-112l-11 -84h162l-12 -82h-162l-20 -138h-101zM228 391h107q35 0 68.5 10t57.5 34t30 66q1 5 1 9v8q0 33 -17 51t-45 25.5
t-59 7.5h-113z" />
    <glyph glyph-name="uni2116" unicode="&#x2116;" horiz-adv-x="1128" 
d="M40 0l98 697h105l267 -565h-23l80 565h101l-98 -697h-107l-265 566h23l-79 -566h-102zM657 0l11 75h391l-10 -75h-392zM885 161q-56 0 -96 24.5t-62 66.5t-22 94q0 63 30 117.5t81.5 88t117.5 33.5q57 0 98 -24.5t63 -66.5t22 -93q0 -47 -17 -89.5t-48.5 -77t-73.5 -54
t-93 -19.5zM886 231q46 0 79 24.5t51.5 64.5t18.5 84q0 46 -25 78t-76 32q-46 0 -79 -25t-50 -65t-17 -84q0 -46 24 -77.5t74 -31.5z" />
    <glyph glyph-name="trademark" unicode="&#x2122;" horiz-adv-x="709" 
d="M357 379l45 318h81l46 -222l109 222h82l-44 -318h-52l38 263l-125 -240h-32l-59 244l-39 -267h-50zM144 379l38 271h-93l7 47h236l-7 -47h-92l-38 -271h-51z" />
    <glyph glyph-name="uni2126" unicode="&#x2126;" horiz-adv-x="784" 
d="M39 0l13 96h158l24 -11q-76 39 -116 104.5t-40 149.5q0 72 27 139t77 119t118 82.5t150 30.5q89 0 155 -35.5t102.5 -98t36.5 -144.5q0 -75 -28.5 -142t-81 -120t-125.5 -88l20 14h159l-13 -96h-266l11 94q69 34 117.5 85.5t73.5 114t25 130.5q0 88 -48.5 138.5
t-139.5 50.5q-65 0 -114.5 -24.5t-84 -67t-52 -95.5t-17.5 -111q0 -77 35.5 -133t100.5 -90l-11 -92h-266z" />
    <glyph glyph-name="oneeighth" unicode="&#x215b;" horiz-adv-x="781" 
d="M101 279l46 335l14 -30h-126l7 47h68q19 0 31 9t15 30l3 27h59l-58 -418h-59zM59 0l506 697h72l-506 -697h-72zM593 -5q-36 0 -66.5 12.5t-49.5 37.5t-19 63q0 24 9 47.5t27.5 42.5t47.5 31q-17 10 -26.5 28t-9.5 41q-1 36 19.5 64.5t53.5 44.5t70 16q30 0 55.5 -11.5
t41 -34t15.5 -55.5q1 -20 -6 -38.5t-20 -33.5t-33 -24q26 -12 40.5 -35t14.5 -56q0 -42 -22.5 -73.5t-59.5 -49t-82 -17.5zM596 50q30 0 53.5 12.5t36.5 32.5t13 45q0 30 -21 47t-57 17q-28 0 -51.5 -11t-38 -30t-14.5 -47q0 -22 10.5 -37t28 -22t40.5 -7zM623 245
q21 0 39.5 9t29.5 24.5t11 37.5q0 24 -15.5 38.5t-42.5 14.5q-21 0 -39.5 -9t-30 -25.5t-11.5 -37.5q0 -25 16 -38.5t43 -13.5z" />
    <glyph glyph-name="threeeighths" unicode="&#x215c;" horiz-adv-x="894" 
d="M150 274q-41 0 -72.5 14t-48.5 40t-17 61q0 5 0.5 10t1.5 10h58q0 -4 -0.5 -7.5t-0.5 -4.5q0 -32 22 -49.5t61 -17.5q31 0 54.5 10.5t36.5 29t13 42.5q0 19 -7.5 31.5t-21.5 19.5t-33.5 9.5t-42.5 2.5l4 47q25 -1 48.5 7t39 24t15.5 42q0 24 -15.5 37.5t-43.5 13.5
q-24 0 -42.5 -9t-30 -24.5t-14.5 -35.5l-57 6q5 36 25.5 63t52 41.5t69.5 14.5q35 0 61 -12.5t40 -35.5t14 -52q0 -28 -11.5 -49.5t-32.5 -36t-49 -20.5v12q22 -3 42.5 -14t34 -31t13.5 -51q0 -36 -20.5 -67.5t-57.5 -51t-88 -19.5zM172 0l506 697h72l-506 -697h-72zM706 -5
q-36 0 -67 12.5t-49.5 37.5t-18.5 63q0 24 8.5 47.5t27.5 42.5t48 31q-18 10 -27 28t-9 41q-1 36 19.5 64.5t53 44.5t69.5 16q31 0 56.5 -11.5t41 -34t15.5 -55.5q1 -20 -6 -38.5t-20 -33.5t-33 -24q26 -12 40.5 -35t14.5 -56q0 -42 -22.5 -73.5t-59.5 -49t-82 -17.5z
M708 50q31 0 54.5 12.5t36.5 32.5t13 45q0 30 -21 47t-57 17q-28 0 -51.5 -11t-38 -30t-14.5 -47q0 -22 10 -37t28 -22t40 -7zM736 245q21 0 39.5 9t29.5 24.5t11 37.5q0 24 -15.5 38.5t-42.5 14.5q-22 0 -40 -9t-29.5 -25.5t-11.5 -37.5q0 -25 16 -38.5t43 -13.5z" />
    <glyph glyph-name="fiveeighths" unicode="&#x215d;" horiz-adv-x="892" 
d="M149 274q-40 0 -70 16.5t-47 45t-18 63.5l58 6q1 -31 21.5 -53t57.5 -22q24 0 43 8.5t32 23.5t20.5 34t7.5 39q0 33 -19 53.5t-54 20.5q-26 0 -49 -12.5t-39 -33.5l-56 17l71 217h225l-8 -54h-204l36 24l-50 -155l-19 4q23 23 51 35.5t58 12.5q36 0 62.5 -17t40.5 -45.5
t14 -62.5q0 -32 -12 -61.5t-34 -53t-52 -37t-67 -13.5zM169 0l506 697h73l-506 -697h-73zM703 -5q-35 0 -66 12.5t-50 37.5t-19 63q0 24 9 47.5t27.5 42.5t47.5 31q-17 10 -26.5 28t-9.5 41q-1 36 19.5 64.5t53.5 44.5t70 16q30 0 55.5 -11.5t41 -34t15.5 -55.5
q1 -20 -6 -38.5t-20 -33.5t-33 -24q26 -12 40.5 -35t14.5 -56q0 -42 -22.5 -73.5t-59.5 -49t-82 -17.5zM706 50q30 0 54 12.5t36.5 32.5t12.5 45q0 30 -21 47t-56 17q-28 0 -52 -11t-38.5 -30t-14.5 -47q0 -22 10.5 -37t28 -22t40.5 -7zM733 245q21 0 39.5 9t29.5 24.5
t11 37.5q0 24 -15 38.5t-42 14.5q-22 0 -40.5 -9t-29.5 -25.5t-11 -37.5q0 -25 15.5 -38.5t42.5 -13.5z" />
    <glyph glyph-name="seveneighths" unicode="&#x215e;" horiz-adv-x="814" 
d="M34 279l253 385l14 -21h-258l8 54h301l-6 -44l-246 -374h-66zM91 0l506 697h73l-506 -697h-73zM625 -5q-35 0 -66 12.5t-50 37.5t-19 63q0 24 9 47.5t27.5 42.5t47.5 31q-17 10 -26.5 28t-9.5 41q-1 36 19.5 64.5t53.5 44.5t70 16q30 0 55.5 -11.5t41 -34t15.5 -55.5
q1 -20 -6 -38.5t-20 -33.5t-33 -24q26 -12 40.5 -35t14.5 -56q0 -42 -22.5 -73.5t-59.5 -49t-82 -17.5zM628 50q30 0 54 12.5t36.5 32.5t12.5 45q0 30 -21 47t-56 17q-28 0 -52 -11t-38.5 -30t-14.5 -47q0 -22 10.5 -37t28 -22t40.5 -7zM655 245q21 0 39.5 9t29.5 24.5
t11 37.5q0 24 -15 38.5t-42 14.5q-22 0 -40.5 -9t-29.5 -25.5t-11 -37.5q0 -25 15.5 -38.5t42.5 -13.5z" />
    <glyph glyph-name="arrowleft" unicode="&#x2190;" horiz-adv-x="1118" 
d="M622 589l28 -68l-394 -198l-1 14h875l-9 -73h-880l6 13l337 -203l-40 -61l-478 287z" />
    <glyph glyph-name="arrowright" unicode="&#x2192;" horiz-adv-x="1097" 
d="M512 13l-29 68l394 198l1 -15h-875l9 73h880l-6 -13l-337 204l40 61l478 -288z" />
    <glyph glyph-name="partialdiff" unicode="&#x2202;" horiz-adv-x="631" 
d="M245 -5q-94 0 -146 52.5t-52 136.5q0 61 23.5 117.5t65 101t97.5 70.5t121 26q36 0 62.5 -11.5t44 -30.5t27.5 -43q3 -5 6.5 -14.5t5.5 -18.5q5 20 5.5 35t0.5 35q0 94 -30.5 137.5t-94.5 43.5q-42 0 -84 -20t-69 -69l-70 29q33 63 92 97.5t134 34.5q101 0 153.5 -63.5
t52.5 -183.5q0 -66 -14 -133t-41.5 -126t-69 -104.5t-96.5 -72t-124 -26.5zM254 79q48 0 87.5 20t69 52t46.5 69q8 20 13 40.5t5 39.5q0 31 -11.5 58t-36 44t-65.5 17q-53 0 -94.5 -21.5t-70 -55.5t-43.5 -74t-15 -80q0 -52 32 -80.5t83 -28.5z" />
    <glyph glyph-name="emptyset" unicode="&#x2205;" horiz-adv-x="723" 
d="M104 36l62 81q-47 41 -75 101.5t-28 129.5q0 65 24 121.5t67 99.5t99.5 67t121.5 24q47 0 89.5 -13t79.5 -37l38 50h64l-63 -80q47 -41 75.5 -100.5t28.5 -131.5q0 -64 -24 -121t-67.5 -99.5t-99.5 -67t-121 -24.5q-47 0 -89.5 12.5t-79.5 36.5l-39 -49h-63zM204 165
l303 397q-30 18 -62 28t-70 10q-53 0 -98.5 -19.5t-80 -54t-54 -80t-19.5 -98.5t21.5 -101t59.5 -82zM375 97q52 0 97.5 19.5t80 54t54 80t19.5 97.5q0 54 -21 102t-59 82l-302 -398q28 -18 62 -27.5t69 -9.5z" />
    <glyph glyph-name="uni2206" unicode="&#x2206;" horiz-adv-x="659" 
d="M4 0l375 697h26l180 -697h-581zM138 83h340l-107 445z" />
    <glyph glyph-name="product" unicode="&#x220f;" horiz-adv-x="586" 
d="M52 0l86 615h-45l12 82h502l-12 -82h-45l-86 -615h-83l86 615h-246l-86 -615h-83z" />
    <glyph glyph-name="summation" unicode="&#x2211;" horiz-adv-x="622" 
d="M12 0l6 52l323 296l-238 297l7 52h531l-13 -93h-417l18 33l245 -289l-322 -287l-12 32h416l-13 -93h-531z" />
    <glyph glyph-name="minus" unicode="&#x2212;" horiz-adv-x="560" 
d="M84 209v77h392v-77h-392z" />
    <glyph glyph-name="uni2215" unicode="&#x2215;" horiz-adv-x="410" 
d="M-5 0l373 697h77l-374 -697h-76z" />
    <glyph glyph-name="radical" unicode="&#x221a;" horiz-adv-x="611" 
d="M201 -98l-84 368h-77l11 83h136l46 -239l314 583h90z" />
    <glyph glyph-name="infinity" unicode="&#x221e;" horiz-adv-x="863" 
d="M224 162q-60 0 -103 24t-67 66.5t-24 96.5t23.5 96t67 66t103.5 24q51 0 106 -29.5t101 -89.5q30 38 64.5 64.5t71.5 40.5t72 14q59 0 102.5 -24t67.5 -66t24 -96t-24 -96t-67.5 -66.5t-102.5 -24.5q-36 0 -73.5 14t-71.5 41t-63 64q-43 -56 -98 -87.5t-109 -31.5z
M235 242q36 0 77 26.5t74 80.5q-35 57 -76.5 82t-74.5 25q-35 0 -61.5 -13.5t-41 -37t-14.5 -56.5t14.5 -57t41 -37t61.5 -13zM626 242q35 0 62 13t42 37t15 57t-15 56.5t-42 37t-62 13.5q-34 0 -74.5 -26t-77.5 -81q36 -55 77 -81t75 -26z" />
    <glyph glyph-name="integral" unicode="&#x222b;" horiz-adv-x="476" 
d="M-29 -229l6 83q81 0 124 31.5t54 110.5l79 566q6 44 30 78t58.5 53t72.5 19q29 0 56 -11.5t49 -31.5l-56 -59q-14 11 -26.5 15t-23.5 4q-28 0 -50.5 -20t-27.5 -55l-80 -566q-10 -72 -45 -120.5t-91 -72.5t-129 -24z" />
    <glyph glyph-name="approxequal" unicode="&#x2248;" horiz-adv-x="560" 
d="M367 272q-34 0 -55.5 11.5t-35.5 29.5t-25.5 35t-25 29t-34.5 12q-24 0 -37.5 -25.5t-13.5 -64.5h-78q0 71 35.5 114.5t93.5 43.5q35 0 57.5 -11.5t37 -28.5t26 -34.5t24 -29t31.5 -11.5q24 0 38.5 28.5t14.5 71.5h78q0 -50 -16 -88.5t-45.5 -60t-69.5 -21.5zM367 36
q-34 0 -55.5 11.5t-35.5 28.5t-25.5 35t-25 29.5t-34.5 11.5q-24 0 -37.5 -24.5t-13.5 -64.5h-78q0 71 35.5 115t93.5 44q35 0 57.5 -11.5t37 -29t26 -34.5t24 -28.5t31.5 -11.5q24 0 38.5 28.5t14.5 72.5h78q0 -51 -16 -89.5t-45.5 -60.5t-69.5 -22z" />
    <glyph glyph-name="notequal" unicode="&#x2260;" horiz-adv-x="560" 
d="M158 0l200 493h45l-200 -493h-45zM79 315v78h403v-78h-403zM79 101v78h403v-78h-403z" />
    <glyph glyph-name="lessequal" unicode="&#x2264;" horiz-adv-x="560" 
d="M523 115l-499 160v90l499 159v-81l-453 -138v30l453 -137v-83zM24 -35v78h499v-78h-499z" />
    <glyph glyph-name="greaterequal" unicode="&#x2265;" horiz-adv-x="560" 
d="M37 115v83l453 137v-30l-453 138v81l499 -159v-90zM536 -35h-499v78h499v-78z" />
    <glyph glyph-name="lozenge" unicode="&#x25ca;" horiz-adv-x="592" 
d="M196 0l-140 348l236 349h132l140 -349l-235 -348h-133zM261 52h13l192 296l-107 297h-13l-193 -297z" />
    <glyph glyph-name="uni004A0301" horiz-adv-x="553" 
d="M225 -13q-93 0 -148 53t-57 146l101 6q2 -53 27.5 -82t81.5 -29q69 0 106 45.5t48 126.5l49 353h-271l13 91h373l-64 -455q-11 -80 -46 -137.5t-88.5 -87.5t-124.5 -30zM327 760l112 141h105l-146 -141h-71z" />
    <glyph glyph-name="uni013B.loclMAH" horiz-adv-x="498" 
d="M40 0l98 697h102l-85 -606h306l-12 -91h-409zM90 -224l77 170h103l-120 -170h-60z" />
    <glyph glyph-name="uni0145.loclMAH" horiz-adv-x="680" 
d="M40 0l98 697h105l267 -565h-23l80 565h101l-98 -697h-107l-265 566h23l-79 -566h-102zM173 -224l77 170h103l-120 -170h-60z" />
    <glyph glyph-name="uni1EB6.ss03" horiz-adv-x="649" 
d="M-21 0l368 697h80l171 -697h-108l-121 549l-277 -549h-113zM160 155l45 91h237l21 -91h-303zM269 -189q-25 0 -41 17t-16 42q0 26 18.5 44.5t44.5 18.5q25 0 41.5 -16t16.5 -40q0 -26 -19 -46t-45 -20zM393 739q-39 0 -71.5 13.5t-50 42.5t-12.5 74h62q-4 -35 18 -54
t66 -19q38 0 66 16.5t32 56.5h62q-12 -74 -57.5 -102t-114.5 -28z" />
    <glyph glyph-name="uni1EAC.ss03" horiz-adv-x="649" 
d="M-21 0l368 697h80l171 -697h-108l-121 549l-277 -549h-113zM160 155l45 91h237l21 -91h-303zM269 -189q-25 0 -41 17t-16 42q0 26 18.5 44.5t44.5 18.5q25 0 41.5 -16t16.5 -40q0 -26 -19 -46t-45 -20zM241 749l176 166l131 -166h-78l-61 82l-85 -82h-83z" />
    <glyph glyph-name="Adieresis.ss03" horiz-adv-x="649" 
d="M-21 0l368 697h80l171 -697h-108l-121 549l-277 -549h-113zM160 155l45 91h237l21 -91h-303zM507 788q-24 0 -40 16.5t-16 41.5q0 26 19 45t44 19t41 -16.5t16 -40.5q0 -27 -19 -46t-45 -19zM305 788q-24 0 -40.5 16.5t-16.5 40.5q0 27 18.5 46t45.5 19q25 0 41 -16.5
t16 -41.5q0 -26 -19.5 -45t-44.5 -19z" />
    <glyph glyph-name="uni1EA0.ss03" horiz-adv-x="649" 
d="M-21 0l368 697h80l171 -697h-108l-121 549l-277 -549h-113zM160 155l45 91h237l21 -91h-303zM269 -189q-25 0 -41 17t-16 42q0 26 18.5 44.5t44.5 18.5q25 0 41.5 -16t16.5 -40q0 -26 -19 -46t-45 -20z" />
    <glyph glyph-name="Cdotaccent.ss03" horiz-adv-x="705" 
d="M340 -13q-67 0 -120 21.5t-89.5 61.5t-55.5 95t-19 121q0 82 25.5 157.5t74 135.5t118 95.5t157.5 35.5q109 0 180.5 -54.5t93.5 -148.5l-98 -30q-15 66 -62.5 101t-118.5 35q-66 0 -116 -27.5t-84.5 -73t-52 -103t-17.5 -119.5q0 -96 49.5 -151t139.5 -55q76 0 133.5 38
t90.5 103l92 -41q-47 -92 -131 -144.5t-190 -52.5zM440 788q-24 0 -40.5 16.5t-16.5 40.5q0 27 18.5 46t45.5 19q25 0 41 -16.5t16 -41.5q0 -26 -19.5 -45t-44.5 -19z" />
    <glyph glyph-name="uni1EC6.ss03" horiz-adv-x="583" 
d="M40 0l98 697h461l-13 -91h-359l-28 -204h328l-13 -91h-328l-31 -220h359l-13 -91h-461zM250 -189q-25 0 -41 17t-16 42q0 26 18.5 44.5t44.5 18.5q25 0 41.5 -16t16.5 -40q0 -26 -19 -46t-45 -20zM221 749l176 166l131 -166h-78l-61 82l-85 -82h-83z" />
    <glyph glyph-name="Edieresis.ss03" horiz-adv-x="583" 
d="M40 0l98 697h461l-13 -91h-359l-28 -204h328l-13 -91h-328l-31 -220h359l-13 -91h-461zM488 788q-24 0 -40 16.5t-16 41.5q0 26 19 45t44 19t41 -16.5t16 -40.5q0 -27 -19 -46t-45 -19zM286 788q-24 0 -40.5 16.5t-16.5 40.5q0 27 18.5 46t45.5 19q25 0 41 -16.5
t16 -41.5q0 -26 -19.5 -45t-44.5 -19z" />
    <glyph glyph-name="Edotaccent.ss03" horiz-adv-x="583" 
d="M40 0l98 697h461l-13 -91h-359l-28 -204h328l-13 -91h-328l-31 -220h359l-13 -91h-461zM386 788q-24 0 -40.5 16.5t-16.5 40.5q0 27 18.5 46t45.5 19q25 0 41 -16.5t16 -41.5q0 -26 -19.5 -45t-44.5 -19z" />
    <glyph glyph-name="uni1EB8.ss03" horiz-adv-x="583" 
d="M40 0l98 697h461l-13 -91h-359l-28 -204h328l-13 -91h-328l-31 -220h359l-13 -91h-461zM250 -189q-25 0 -41 17t-16 42q0 26 18.5 44.5t44.5 18.5q25 0 41.5 -16t16.5 -40q0 -26 -19 -46t-45 -20z" />
    <glyph glyph-name="Gdotaccent.ss03" horiz-adv-x="732" 
d="M334 -13q-85 0 -147.5 36.5t-96.5 103.5t-34 157q0 84 25.5 160t74.5 136t118.5 95t156.5 35q109 0 180.5 -54.5t93.5 -148.5l-98 -30q-15 66 -61.5 101t-117.5 35q-66 0 -116.5 -27.5t-85 -73.5t-52.5 -104t-18 -121q0 -95 49.5 -149t137.5 -54q39 0 78.5 11t73.5 36
t58 67.5t33 105.5l6 45l13 -70h-196l12 91h265l-52 -370h-89l3 128l16 -15q-24 -44 -60.5 -72.5t-80 -41t-89.5 -12.5zM452 788q-24 0 -40.5 16.5t-16.5 40.5q0 27 18.5 46t45.5 19q25 0 41 -16.5t16 -41.5q0 -26 -19.5 -45t-44.5 -19z" />
    <glyph glyph-name="Idieresis.ss03" horiz-adv-x="252" 
d="M40 0l98 697h102l-98 -697h-102zM309 788q-24 0 -40 16.5t-16 41.5q0 26 19 45t44 19t41 -16.5t16 -40.5q0 -27 -19 -46t-45 -19zM107 788q-24 0 -40.5 16.5t-16.5 40.5q0 27 18.5 46t45.5 19q25 0 41 -16.5t16 -41.5q0 -26 -19.5 -45t-44.5 -19z" />
    <glyph glyph-name="uni1ECA.ss03" horiz-adv-x="252" 
d="M40 0l98 697h102l-98 -697h-102zM71 -189q-25 0 -41 17t-16 42q0 26 18.5 44.5t44.5 18.5q25 0 41.5 -16t16.5 -40q0 -26 -19 -46t-45 -20z" />
    <glyph glyph-name="Ldot.ss03" horiz-adv-x="498" 
d="M40 0l98 697h102l-85 -606h306l-12 -91h-409zM441 316q-25 0 -41 17t-16 41q0 26 19 45t44 19q26 0 41.5 -16t15.5 -42q0 -25 -18.5 -44.5t-44.5 -19.5z" />
    <glyph glyph-name="uni1E44.ss03" horiz-adv-x="680" 
d="M40 0l98 697h105l267 -565h-23l80 565h101l-98 -697h-107l-265 566h23l-79 -566h-102zM418 788q-24 0 -40.5 16.5t-16.5 40.5q0 27 18.5 46t45.5 19q25 0 41 -16.5t16 -41.5q0 -26 -19.5 -45t-44.5 -19z" />
    <glyph glyph-name="uni1ED8.ss03" horiz-adv-x="748" 
d="M341 -13q-88 0 -152 36.5t-98.5 104t-34.5 158.5q0 81 25.5 157t74 136.5t118.5 95.5t158 35q89 0 153 -36.5t99 -103.5t35 -159q0 -83 -26 -159t-75 -135.5t-119 -94.5t-158 -35zM346 84q65 0 115 26.5t85 72.5t53 103.5t18 120.5q0 95 -50 150.5t-139 55.5
q-66 0 -116.5 -27t-84.5 -73.5t-52 -104t-18 -118.5q0 -64 22 -110.5t64.5 -71t102.5 -24.5zM317 -189q-25 0 -41 17t-16 42q0 26 18.5 44.5t44.5 18.5q25 0 41.5 -16t16.5 -40q0 -26 -19 -46t-45 -20zM289 749l176 166l131 -166h-78l-61 82l-85 -82h-83z" />
    <glyph glyph-name="Odieresis.ss03" horiz-adv-x="748" 
d="M341 -13q-88 0 -152 36.5t-98.5 104t-34.5 158.5q0 81 25.5 157t74 136.5t118.5 95.5t158 35q89 0 153 -36.5t99 -103.5t35 -159q0 -83 -26 -159t-75 -135.5t-119 -94.5t-158 -35zM346 84q65 0 115 26.5t85 72.5t53 103.5t18 120.5q0 95 -50 150.5t-139 55.5
q-66 0 -116.5 -27t-84.5 -73.5t-52 -104t-18 -118.5q0 -64 22 -110.5t64.5 -71t102.5 -24.5zM555 788q-24 0 -40 16.5t-16 41.5q0 26 19 45t44 19t41 -16.5t16 -40.5q0 -27 -19 -46t-45 -19zM353 788q-24 0 -40.5 16.5t-16.5 40.5q0 27 18.5 46t45.5 19q25 0 41 -16.5
t16 -41.5q0 -26 -19.5 -45t-44.5 -19z" />
    <glyph glyph-name="uni1ECC.ss03" horiz-adv-x="748" 
d="M341 -13q-88 0 -152 36.5t-98.5 104t-34.5 158.5q0 81 25.5 157t74 136.5t118.5 95.5t158 35q89 0 153 -36.5t99 -103.5t35 -159q0 -83 -26 -159t-75 -135.5t-119 -94.5t-158 -35zM346 84q65 0 115 26.5t85 72.5t53 103.5t18 120.5q0 95 -50 150.5t-139 55.5
q-66 0 -116.5 -27t-84.5 -73.5t-52 -104t-18 -118.5q0 -64 22 -110.5t64.5 -71t102.5 -24.5zM317 -189q-25 0 -41 17t-16 42q0 26 18.5 44.5t44.5 18.5q25 0 41.5 -16t16.5 -40q0 -26 -19 -46t-45 -20z" />
    <glyph glyph-name="uni1EE2.ss03" horiz-adv-x="748" 
d="M341 -13q-88 0 -152 36.5t-98.5 104t-34.5 158.5q0 81 25.5 157t74 136.5t118.5 95.5t158 35q89 0 153 -36.5t99 -103.5t35 -159q0 -83 -26 -159t-75 -135.5t-119 -94.5t-158 -35zM346 84q65 0 115 26.5t85 72.5t53 103.5t18 120.5q0 95 -50 150.5t-139 55.5
q-66 0 -116.5 -27t-84.5 -73.5t-52 -104t-18 -118.5q0 -64 22 -110.5t64.5 -71t102.5 -24.5zM648 495l4 62q44 0 67 26.5t30 75.5l5 38h67l-7 -46q-9 -68 -48.5 -112t-117.5 -44zM317 -189q-25 0 -41 17t-16 42q0 26 18.5 44.5t44.5 18.5q25 0 41.5 -16t16.5 -40
q0 -26 -19 -46t-45 -20z" />
    <glyph glyph-name="Udieresis.ss03" horiz-adv-x="656" 
d="M296 -13q-114 0 -172.5 53t-58.5 156q0 12 1 27.5t3 30.5l62 443h102l-61 -437q-2 -15 -3 -30t-1 -26q0 -61 30 -92.5t100 -31.5q60 0 99 22t61 63.5t31 100.5l60 431h101l-62 -442q-19 -135 -92.5 -201.5t-199.5 -66.5zM510 788q-24 0 -40 16.5t-16 41.5q0 26 19 45
t44 19t41 -16.5t16 -40.5q0 -27 -19 -46t-45 -19zM308 788q-24 0 -40.5 16.5t-16.5 40.5q0 27 18.5 46t45.5 19q25 0 41 -16.5t16 -41.5q0 -26 -19.5 -45t-44.5 -19z" />
    <glyph glyph-name="uni1EE4.ss03" horiz-adv-x="656" 
d="M296 -13q-114 0 -172.5 53t-58.5 156q0 12 1 27.5t3 30.5l62 443h102l-61 -437q-2 -15 -3 -30t-1 -26q0 -61 30 -92.5t100 -31.5q60 0 99 22t61 63.5t31 100.5l60 431h101l-62 -442q-19 -135 -92.5 -201.5t-199.5 -66.5zM273 -189q-25 0 -41 17t-16 42q0 26 18.5 44.5
t44.5 18.5q25 0 41.5 -16t16.5 -40q0 -26 -19 -46t-45 -20z" />
    <glyph glyph-name="uni1EF0.ss03" horiz-adv-x="719" 
d="M296 -13q-114 0 -172.5 53t-58.5 156q0 12 1 27.5t3 30.5l62 443h102l-61 -437q-2 -15 -3 -30t-1 -26q0 -61 30 -92.5t100 -31.5q60 0 99 22t61 63.5t31 100.5l60 431h101l-62 -442q-19 -135 -92.5 -201.5t-199.5 -66.5zM591 495l4 62q44 0 67 26.5t30 75.5l5 38h67
l-7 -46q-9 -68 -48.5 -112t-117.5 -44zM273 -189q-25 0 -41 17t-16 42q0 26 18.5 44.5t44.5 18.5q25 0 41.5 -16t16.5 -40q0 -26 -19 -46t-45 -20z" />
    <glyph glyph-name="Wdieresis.ss03" horiz-adv-x="964" 
d="M191 0l-107 697h105l78 -542l222 503h101l78 -503l233 542h108l-304 -697h-101l-89 537h17l-241 -537h-100zM665 788q-24 0 -40 16.5t-16 41.5q0 26 19 45t44 19t41 -16.5t16 -40.5q0 -27 -19 -46t-45 -19zM463 788q-24 0 -40.5 16.5t-16.5 40.5q0 27 18.5 46t45.5 19
q25 0 41 -16.5t16 -41.5q0 -26 -19.5 -45t-44.5 -19z" />
    <glyph glyph-name="Ydieresis.ss03" horiz-adv-x="610" 
d="M220 0l38 270l-185 427h114l131 -325l228 325h118l-304 -427l-38 -270h-102zM488 788q-24 0 -40 16.5t-16 41.5q0 26 19 45t44 19t41 -16.5t16 -40.5q0 -27 -19 -46t-45 -19zM286 788q-24 0 -40.5 16.5t-16.5 40.5q0 27 18.5 46t45.5 19q25 0 41 -16.5t16 -41.5
q0 -26 -19.5 -45t-44.5 -19z" />
    <glyph glyph-name="uni1EF4.ss03" horiz-adv-x="610" 
d="M220 0l38 270l-185 427h114l131 -325l228 325h118l-304 -427l-38 -270h-102zM250 -189q-25 0 -41 17t-16 42q0 26 18.5 44.5t44.5 18.5q25 0 41.5 -16t16.5 -40q0 -26 -19 -46t-45 -20z" />
    <glyph glyph-name="Zdotaccent.ss03" horiz-adv-x="590" 
d="M-4 0l10 85l490 552l11 -31h-402l12 91h492l-11 -85l-479 -540l-12 19h429l-13 -91h-527zM378 788q-24 0 -40.5 16.5t-16.5 40.5q0 27 18.5 46t45.5 19q25 0 41 -16.5t16 -41.5q0 -26 -19.5 -45t-44.5 -19z" />
    <glyph glyph-name="T_h" horiz-adv-x="1030" 
d="M207 0l85 606h-228l13 91h558l-13 -91h-227l-85 -606h-103zM510 0l98 697h99l-45 -311l-20 2q19 41 47 65.5t62.5 36.5t71.5 12q74 0 115 -38.5t41 -110.5q0 -11 -0.5 -20.5t-2.5 -19.5l-44 -313h-98l40 282q2 12 2.5 22t0.5 21q0 48 -21 70t-62 22q-62 0 -100 -43.5
t-52 -133.5l-33 -240h-99z" />
    <glyph glyph-name="i.loclTRK" horiz-adv-x="232" 
d="M32 0l69 493h99l-70 -493h-98zM107 578l17 119h110l-16 -119h-111z" />
    <glyph glyph-name="uni006A0301" horiz-adv-x="232" 
d="M-4 -213q-20 0 -40.5 4.5t-40.5 10.5l7 83q14 -3 25 -5t17 -2q24 0 40 13.5t20 45.5l77 556h99l-83 -587q-8 -63 -40.5 -91t-80.5 -28zM117 556l112 141h105l-146 -141h-71z" />
    <glyph glyph-name="uni013C.loclMAH" horiz-adv-x="273" 
d="M141 -9q-43 0 -69 24t-26 72q0 6 0.5 13.5t1.5 14.5l81 582h97l-78 -564q-1 -5 -1 -9.5v-9.5q0 -18 8.5 -25.5t23.5 -7.5q10 0 20.5 2.5t22.5 5.5l-12 -86q-19 -7 -37 -9.5t-32 -2.5zM-25 -224l77 170h103l-120 -170h-60z" />
    <glyph glyph-name="uni0146.loclMAH" horiz-adv-x="553" 
d="M33 0l70 493h96l-14 -107l-20 2q19 41 47 65.5t62.5 36.5t71.5 12q74 0 115 -38.5t41 -110.5q0 -11 -0.5 -20.5t-2.5 -19.5l-44 -313h-98l40 282q2 12 2.5 22t0.5 21q0 48 -21 70t-62 22q-62 0 -100 -43.5t-52 -133.5l-33 -240h-99zM109 -224l77 170h103l-120 -170h-60z
" />
    <glyph glyph-name="g.ss01" horiz-adv-x="539" 
d="M214 -212q-47 0 -86 8t-67 25.5t-43 44t-15 62.5q0 13 2 26.5t6 26.5l105 65l43 -38l-65 -58v-11q0 -29 14.5 -46t42 -24.5t64.5 -7.5q77 0 115.5 24t38.5 67q0 13 -6 23.5t-20 16.5t-38 6h-156q-15 0 -35 6.5t-38.5 20.5t-29.5 35.5t-9 50.5q4 42 27.5 73.5t72.5 63.5
l42 -64q-21 -11 -37.5 -28t-16.5 -39q0 -15 13 -23.5t34 -11.5t48 -3h104q75 0 108 -30.5t33 -81.5q0 -59 -30 -99t-86 -60t-135 -20zM265 149q-83 0 -132 43t-49 111q0 59 30.5 103.5t80.5 70t106 25.5q50 0 89.5 -20t62.5 -56t23 -85q0 -57 -27.5 -100.5t-75.5 -67.5
t-108 -24zM263 226q36 0 62 16t40.5 43.5t14.5 59.5q0 34 -21 54.5t-59 20.5q-34 0 -60.5 -16t-42 -42.5t-15.5 -59.5q0 -32 21 -54t60 -22zM455 397l-65 47l118 87l43 -61z" />
    <glyph glyph-name="gbreve.ss01" horiz-adv-x="539" 
d="M214 -212q-47 0 -86 8t-67 25.5t-43 44t-15 62.5q0 13 2 26.5t6 26.5l105 65l43 -38l-65 -58v-11q0 -29 14.5 -46t42 -24.5t64.5 -7.5q77 0 115.5 24t38.5 67q0 13 -6 23.5t-20 16.5t-38 6h-156q-15 0 -35 6.5t-38.5 20.5t-29.5 35.5t-9 50.5q4 42 27.5 73.5t72.5 63.5
l42 -64q-21 -11 -37.5 -28t-16.5 -39q0 -15 13 -23.5t34 -11.5t48 -3h104q75 0 108 -30.5t33 -81.5q0 -59 -30 -99t-86 -60t-135 -20zM265 149q-83 0 -132 43t-49 111q0 59 30.5 103.5t80.5 70t106 25.5q50 0 89.5 -20t62.5 -56t23 -85q0 -57 -27.5 -100.5t-75.5 -67.5
t-108 -24zM263 226q36 0 62 16t40.5 43.5t14.5 59.5q0 34 -21 54.5t-59 20.5q-34 0 -60.5 -16t-42 -42.5t-15.5 -59.5q0 -32 21 -54t60 -22zM455 397l-65 47l118 87l43 -61zM320 553q-64 0 -106 28t-45 86q-1 3 -0.5 10t1.5 20h58q-1 -6 -1 -12t1 -11q3 -30 25.5 -47
t67.5 -17q47 0 70 23.5t28 63.5h60q-9 -72 -50.5 -108t-108.5 -36z" />
    <glyph glyph-name="gcaron.ss01" horiz-adv-x="539" 
d="M214 -212q-47 0 -86 8t-67 25.5t-43 44t-15 62.5q0 13 2 26.5t6 26.5l105 65l43 -38l-65 -58v-11q0 -29 14.5 -46t42 -24.5t64.5 -7.5q77 0 115.5 24t38.5 67q0 13 -6 23.5t-20 16.5t-38 6h-156q-15 0 -35 6.5t-38.5 20.5t-29.5 35.5t-9 50.5q4 42 27.5 73.5t72.5 63.5
l42 -64q-21 -11 -37.5 -28t-16.5 -39q0 -15 13 -23.5t34 -11.5t48 -3h104q75 0 108 -30.5t33 -81.5q0 -59 -30 -99t-86 -60t-135 -20zM265 149q-83 0 -132 43t-49 111q0 59 30.5 103.5t80.5 70t106 25.5q50 0 89.5 -20t62.5 -56t23 -85q0 -57 -27.5 -100.5t-75.5 -67.5
t-108 -24zM263 226q36 0 62 16t40.5 43.5t14.5 59.5q0 34 -21 54.5t-59 20.5q-34 0 -60.5 -16t-42 -42.5t-15.5 -59.5q0 -32 21 -54t60 -22zM455 397l-65 47l118 87l43 -61zM319 538l-122 159h69l62 -81l88 81h77z" />
    <glyph glyph-name="gcircumflex.ss01" horiz-adv-x="539" 
d="M214 -212q-47 0 -86 8t-67 25.5t-43 44t-15 62.5q0 13 2 26.5t6 26.5l105 65l43 -38l-65 -58v-11q0 -29 14.5 -46t42 -24.5t64.5 -7.5q77 0 115.5 24t38.5 67q0 13 -6 23.5t-20 16.5t-38 6h-156q-15 0 -35 6.5t-38.5 20.5t-29.5 35.5t-9 50.5q4 42 27.5 73.5t72.5 63.5
l42 -64q-21 -11 -37.5 -28t-16.5 -39q0 -15 13 -23.5t34 -11.5t48 -3h104q75 0 108 -30.5t33 -81.5q0 -59 -30 -99t-86 -60t-135 -20zM265 149q-83 0 -132 43t-49 111q0 59 30.5 103.5t80.5 70t106 25.5q50 0 89.5 -20t62.5 -56t23 -85q0 -57 -27.5 -100.5t-75.5 -67.5
t-108 -24zM263 226q36 0 62 16t40.5 43.5t14.5 59.5q0 34 -21 54.5t-59 20.5q-34 0 -60.5 -16t-42 -42.5t-15.5 -59.5q0 -32 21 -54t60 -22zM455 397l-65 47l118 87l43 -61zM171 545l171 166l125 -166h-74l-60 82l-82 -82h-80z" />
    <glyph glyph-name="uni0123.ss01" horiz-adv-x="539" 
d="M214 -212q-47 0 -86 8t-67 25.5t-43 44t-15 62.5q0 13 2 26.5t6 26.5l105 65l43 -38l-65 -58v-11q0 -29 14.5 -46t42 -24.5t64.5 -7.5q77 0 115.5 24t38.5 67q0 13 -6 23.5t-20 16.5t-38 6h-156q-15 0 -35 6.5t-38.5 20.5t-29.5 35.5t-9 50.5q4 42 27.5 73.5t72.5 63.5
l42 -64q-21 -11 -37.5 -28t-16.5 -39q0 -15 13 -23.5t34 -11.5t48 -3h104q75 0 108 -30.5t33 -81.5q0 -59 -30 -99t-86 -60t-135 -20zM265 149q-83 0 -132 43t-49 111q0 59 30.5 103.5t80.5 70t106 25.5q50 0 89.5 -20t62.5 -56t23 -85q0 -57 -27.5 -100.5t-75.5 -67.5
t-108 -24zM263 226q36 0 62 16t40.5 43.5t14.5 59.5q0 34 -21 54.5t-59 20.5q-34 0 -60.5 -16t-42 -42.5t-15.5 -59.5q0 -32 21 -54t60 -22zM455 397l-65 47l118 87l43 -61zM225 553l128 152h61l-86 -152h-103z" />
    <glyph glyph-name="gdotaccent.ss01" horiz-adv-x="539" 
d="M214 -212q-47 0 -86 8t-67 25.5t-43 44t-15 62.5q0 13 2 26.5t6 26.5l105 65l43 -38l-65 -58v-11q0 -29 14.5 -46t42 -24.5t64.5 -7.5q77 0 115.5 24t38.5 67q0 13 -6 23.5t-20 16.5t-38 6h-156q-15 0 -35 6.5t-38.5 20.5t-29.5 35.5t-9 50.5q4 42 27.5 73.5t72.5 63.5
l42 -64q-21 -11 -37.5 -28t-16.5 -39q0 -15 13 -23.5t34 -11.5t48 -3h104q75 0 108 -30.5t33 -81.5q0 -59 -30 -99t-86 -60t-135 -20zM265 149q-83 0 -132 43t-49 111q0 59 30.5 103.5t80.5 70t106 25.5q50 0 89.5 -20t62.5 -56t23 -85q0 -57 -27.5 -100.5t-75.5 -67.5
t-108 -24zM263 226q36 0 62 16t40.5 43.5t14.5 59.5q0 34 -21 54.5t-59 20.5q-34 0 -60.5 -16t-42 -42.5t-15.5 -59.5q0 -32 21 -54t60 -22zM455 397l-65 47l118 87l43 -61zM268 578l17 119h110l-16 -119h-111z" />
    </font>
</defs>
</svg>
