<?xml version="1.0" standalone="no"?>
<!DOCTYPE svg PUBLIC "-//W3C//DTD SVG 1.1//EN" "http://www.w3.org/Graphics/SVG/1.1/DTD/svg11.dtd" >
<svg xmlns="http://www.w3.org/2000/svg" xmlns:xlink="http://www.w3.org/1999/xlink" version="1.1">
<metadata>
Created by FontForge 20170731 at Wed Nov 16 23:15:30 2022
 By Aleksey,,,
Copyright 2021 The Hanken Grotesk Project Authors (https://github.com/marcologous/hanken-grotesk)
</metadata>
<defs>
<font id="HankenGrotesk-BoldItalic" horiz-adv-x="0" >
  <font-face 
    font-family="Hanken Grotesk"
    font-weight="700"
    font-style="italic"
    font-stretch="normal"
    units-per-em="1000"
    panose-1="0 0 0 0 0 0 0 0 0 0"
    ascent="800"
    descent="-200"
    x-height="493"
    cap-height="697"
    bbox="-180 -259 1350 994"
    underline-thickness="40"
    underline-position="-181"
    slope="-8"
    unicode-range="U+0020-FB02"
  />
<missing-glyph horiz-adv-x="506" 
d="M50 0v472h406v-472h-406zM92 43h321v386h-321v-386z" />
    <glyph glyph-name="fi" unicode="fi" horiz-adv-x="553" 
d="M59 0l55 396h-83l14 97h83l6 38q8 56 41.5 95.5t83 60t103.5 20.5q67 0 111 -14t81 -39l-66 -84q-24 19 -54 28t-66 9q-50 0 -78.5 -25t-34.5 -68l-3 -21h200l-14 -97h-200l-56 -396h-123zM337 0l69 493h124l-70 -493h-123z" />
    <glyph glyph-name="fl" unicode="fl" horiz-adv-x="599" 
d="M462 -10q-46 0 -75.5 26t-29.5 79q0 6 0.5 13.5t1.5 13.5l69 472q-17 8 -32 10.5t-29 2.5q-50 0 -78.5 -24.5t-33.5 -60.5l-3 -29h89l-14 -97h-90l-55 -396h-125l56 396h-82l14 97h82l6 38q8 57 42 96t83.5 59.5t103.5 20.5q65 0 108 -14.5t85 -41.5l-69 -514
q-1 -3 -1 -5.5v-5.5q0 -12 5.5 -17t17.5 -5q11 0 20.5 2.5t20.5 5.5l-8 -109q-24 -8 -45.5 -10.5t-33.5 -2.5z" />
    <glyph glyph-name="f_f" unicode="ff" horiz-adv-x="633" 
d="M59 0l55 396h-83l14 97h83l5 37q7 57 41 96.5t83.5 60t103.5 20.5q36 0 68 -8t56 -23q27 19 55.5 25t57.5 6q32 0 54 -6.5t43 -16.5l-48 -91q-10 5 -19.5 7.5t-17.5 2.5q-30 0 -45 -18.5t-18 -43.5l-6 -48h115l-14 -97h-116l-55 -396h-125l56 396h-164l-56 -396h-123z
M252 493h165l9 68q3 20 11 31q-14 6 -31.5 10.5t-39.5 4.5q-52 0 -78.5 -25.5t-31.5 -60.5z" />
    <glyph glyph-name="f_f_i" unicode="ffi" horiz-adv-x="849" 
d="M59 0l55 396h-83l14 97h83l5 37q8 57 41.5 96.5t83 60t103.5 20.5q39 0 77 -10.5t65 -32.5q34 23 71.5 33t74.5 10q65 0 109 -13.5t83 -39.5l-66 -84q-24 18 -54 27.5t-67 9.5q-50 0 -78 -25t-33 -60l-3 -29h287l-70 -493h-124l56 396h-164l-55 -396h-124l56 396h-164
l-56 -396h-123zM252 493h164l5 38q2 14 7 33.5t12 25.5q-13 8 -32 12.5t-42 4.5q-52 0 -78.5 -25.5t-31.5 -60.5z" />
    <glyph glyph-name="f_f_l" unicode="ffl" horiz-adv-x="890" 
d="M754 -10q-45 0 -75 26t-30 79q0 6 0.5 13.5t1.5 13.5l70 473q-19 7 -34.5 9.5t-32.5 2.5q-50 0 -78 -25t-33 -60l-3 -29h91l-13 -97h-93l-55 -396h-124l56 396h-164l-56 -396h-123l55 396h-83l14 97h83l5 37q8 57 41.5 96.5t83 60t103.5 20.5q41 0 78 -11.5t63 -30.5
q34 22 72 32t75 10q68 0 112 -14.5t85 -41.5l-69 -507q-1 -4 -1 -7v-8q0 -14 6 -19.5t17 -5.5t20.5 2.5t20.5 5.5l-8 -109q-21 -7 -42.5 -10t-35.5 -3zM252 493h164l5 38q2 14 6.5 29t13.5 31q-14 6 -33 11t-42 5q-49 0 -77.5 -25t-34.5 -69z" />
    <glyph glyph-name="hyphen_greater.liga" unicode="&#x2d;&#x3e;" horiz-adv-x="1126" 
d="M515 -6l-33 86l384 193v-24h-866l13 93h874l-8 -25l-333 202l50 78l500 -301z" />
    <glyph glyph-name="less_hyphen.liga" unicode="&#x3c;&#x2d;" horiz-adv-x="1150" 
d="M649 597l33 -86l-385 -193l1 24h865l-13 -93h-874l8 25l334 -202l-50 -78l-501 301z" />
    <glyph glyph-name=".notdef" horiz-adv-x="506" 
d="M50 0v472h406v-472h-406zM92 43h321v386h-321v-386z" />
    <glyph glyph-name=".null" 
 />
    <glyph glyph-name="nonmarkingreturn" horiz-adv-x="333" 
 />
    <glyph glyph-name="space" unicode=" " horiz-adv-x="260" 
 />
    <glyph glyph-name="exclam" unicode="!" horiz-adv-x="252" 
d="M74 212l54 485h123l-82 -485h-95zM24 0l19 132h134l-19 -132h-134z" />
    <glyph glyph-name="quotedbl" unicode="&#x22;" horiz-adv-x="366" 
d="M67 410l40 287h104l-40 -287h-104zM240 410l40 287h105l-40 -287h-105z" />
    <glyph glyph-name="numbersign" unicode="#" horiz-adv-x="694" 
d="M79 0l73 204h-114l13 88h132l43 124h-118l14 92h136l71 189h100l-71 -193h117l69 193h101l-73 -193h114l-12 -88h-133l-45 -124h120l-13 -88h-137l-73 -204h-99l73 204h-118l-71 -204h-99zM283 292h117l42 124h-117z" />
    <glyph glyph-name="dollar" unicode="$" horiz-adv-x="560" 
d="M188 -116l20 149h92l-21 -149h-91zM297 660l21 148h91l-21 -148h-91zM271 -13q-74 0 -131.5 27t-90 75.5t-34.5 112.5l129 25q2 -64 40 -94.5t94 -30.5q37 0 64 12t41.5 34t14.5 50q0 26 -13 44.5t-38.5 33.5t-64.5 31q-60 25 -99.5 54t-58.5 65t-19 81q0 58 29 104.5
t80 74t118 27.5q76 0 133.5 -35.5t80.5 -97.5l-109 -56q-15 38 -42 56t-63 18q-31 0 -52.5 -11.5t-33 -30.5t-11.5 -43q0 -22 11.5 -39t37.5 -31t68 -31q58 -23 96.5 -51.5t59 -65.5t20.5 -87q0 -65 -33 -115.5t-90.5 -78t-133.5 -27.5z" />
    <glyph glyph-name="percent" unicode="%" horiz-adv-x="735" 
d="M63 0l539 697h91l-539 -697h-91zM514 -10q-59 0 -98 37.5t-39 102.5q0 50 22 92t60 67t86 25q40 0 70.5 -18.5t48.5 -50.5t18 -74q0 -48 -23 -89t-61 -66.5t-84 -25.5zM522 71q22 0 39 12.5t28 32.5t11 45q0 33 -18 52.5t-45 19.5q-22 0 -40 -11.5t-28 -32.5t-10 -47
q0 -34 18 -52.5t45 -18.5zM219 383q-39 0 -70 17t-49 48.5t-18 73.5q0 51 22 92.5t60 67t86 25.5q40 0 70.5 -18.5t48.5 -51t18 -73.5q0 -48 -23 -89.5t-61 -66.5t-84 -25zM227 464q22 0 39 12t28 32.5t11 45.5q0 33 -18 52.5t-45 19.5q-22 0 -40 -12t-28 -32.5t-10 -46.5
q0 -35 18 -53t45 -18z" />
    <glyph glyph-name="ampersand" unicode="&#x26;" horiz-adv-x="700" 
d="M247 -12q-61 0 -110 18t-77 54t-28 88t23 91.5t60 69.5t77.5 53t76.5 42q51 27 87.5 51t56 48.5t19.5 53.5q0 22 -15 36.5t-44 14.5q-23 0 -43.5 -10.5t-32.5 -29.5t-12 -45q0 -30 15.5 -57t29.5 -45l-100 -46q-12 16 -27 37t-26 48.5t-11 61.5q0 57 30 98t79 63t105 22
q76 0 121.5 -37t45.5 -102q0 -61 -32.5 -107t-83.5 -82t-107 -67q-29 -16 -57.5 -32t-52.5 -33.5t-38.5 -38.5t-14.5 -47q0 -31 25.5 -48t70.5 -17q67 0 125 34t102 97t69 152l108 -24q-40 -124 -102.5 -204.5t-142 -120.5t-169.5 -40zM537 -38l-260 352l106 60l250 -333z
" />
    <glyph glyph-name="quotesingle" unicode="'" horiz-adv-x="193" 
d="M67 410l40 287h105l-40 -287h-105z" />
    <glyph glyph-name="parenleft" unicode="(" horiz-adv-x="327" 
d="M118 -204q-36 62 -53 145.5t-17 173.5q0 65 11 142t34 156.5t60 152.5t88 131h115q-56 -63 -96 -137t-65.5 -151t-37.5 -152t-12 -141q0 -59 9 -117t26.5 -109.5t45.5 -93.5h-108z" />
    <glyph glyph-name="parenright" unicode=")" horiz-adv-x="327" 
d="M-30 -204q77 85 124 178.5t68.5 191t21.5 193.5q0 65 -9 127.5t-26.5 117t-42.5 93.5h105q21 -38 36 -90t22.5 -112t7.5 -123q0 -100 -20 -204t-63 -200t-112 -172h-112z" />
    <glyph glyph-name="asterisk" unicode="*" horiz-adv-x="399" 
d="M155 382l-55 45l102 96l-125 26l32 74l113 -56l3 130h76l-34 -130l127 56l12 -74l-133 -26l77 -96l-64 -45l-49 116z" />
    <glyph glyph-name="plus" unicode="+" horiz-adv-x="560" 
d="M231 4v194h-195v98h195v195h99v-195h194v-98h-194v-194h-99z" />
    <glyph glyph-name="comma" unicode="," horiz-adv-x="240" 
d="M-31 -149l111 305h141l-169 -305h-83z" />
    <glyph glyph-name="hyphen" unicode="-" horiz-adv-x="327" 
d="M40 249l13 93h248l-13 -93h-248z" />
    <glyph glyph-name="period" unicode="." horiz-adv-x="240" 
d="M19 0l18 132h133l-19 -132h-132z" />
    <glyph glyph-name="slash" unicode="/" horiz-adv-x="420" 
d="M-124 -212l489 909h97l-490 -909h-96z" />
    <glyph glyph-name="zero" unicode="0" horiz-adv-x="560" 
d="M251 -9q-63 0 -103.5 21t-63 56.5t-31.5 81t-9 92.5q0 30 2.5 60t6.5 57q6 42 17 89.5t30 93t50 83t77 60.5t111 23q63 0 103 -21t63 -56.5t32 -80t9 -91.5q0 -29 -2 -58.5t-7 -56.5q-6 -45 -17.5 -93.5t-31.5 -95t-51 -83.5t-76.5 -59t-108.5 -22zM255 110q49 0 80 33.5
t49 89.5t27 122q4 29 7 56t3 51q0 57 -19.5 91.5t-66.5 34.5q-51 0 -81.5 -33.5t-48.5 -89.5t-27 -124q-4 -28 -6.5 -54.5t-2.5 -50.5q0 -36 7.5 -65t26.5 -45t52 -16z" />
    <glyph glyph-name="one" unicode="1" horiz-adv-x="560" 
d="M236 0l76 551l28 -61h-213l14 98h104q36 0 57.5 17.5t26.5 54.5l5 37h125l-98 -697h-125z" />
    <glyph glyph-name="two" unicode="2" horiz-adv-x="560" 
d="M6 0l11 96q36 21 79 47.5t87 59t83.5 68t71.5 75t50 80.5t18 82q0 34 -19.5 55t-60.5 21q-43 0 -72.5 -22t-46.5 -55.5t-23 -68.5l-120 16q7 48 28 92.5t55.5 80t81.5 57t104 21.5q60 0 104 -23.5t68.5 -66.5t24.5 -101q0 -51 -17 -97.5t-46 -89t-68 -80.5t-84.5 -71.5
t-94 -61.5t-96.5 -50l29 52h350l-16 -116h-481z" />
    <glyph glyph-name="three" unicode="3" horiz-adv-x="560" 
d="M245 -9q-71 0 -124.5 25t-82.5 69.5t-29 103.5q0 9 1 17.5t2 17.5l123 1q-1 -6 -1 -10v-5q0 -50 32 -75t88 -25q46 0 80.5 14.5t53.5 41t19 61.5q0 26 -9.5 43t-29.5 27t-49 14.5t-67 4.5l7 97q40 0 74 10.5t54.5 33.5t20.5 58q0 33 -21.5 52.5t-61.5 19.5
q-32 0 -58.5 -12.5t-43 -35t-21.5 -51.5l-120 14q8 60 43 106t89.5 72t119.5 26q61 0 105.5 -23t69 -62.5t24.5 -91.5q0 -40 -16.5 -74t-48 -57.5t-77.5 -36.5v25q38 -7 70 -26t50.5 -51t18.5 -79q0 -65 -36.5 -119.5t-100.5 -87t-148 -32.5z" />
    <glyph glyph-name="four" unicode="4" horiz-adv-x="560" 
d="M281 0l23 164h-307l12 96l385 437h110l-59 -417h111l-16 -116h-111l-23 -164h-125zM114 249l-6 31h216l41 300l10 -23z" />
    <glyph glyph-name="five" unicode="5" horiz-adv-x="560" 
d="M251 -10q-69 0 -121.5 29t-81.5 77.5t-30 108.5l123 14q0 -47 31.5 -78.5t86.5 -31.5q33 0 60 12t45.5 32.5t28.5 47.5t10 56q0 51 -28.5 79t-77.5 28q-41 0 -73 -19t-54 -48l-115 33l120 367h390l-16 -116h-345l74 53l-76 -234l-44 3q39 39 84.5 58.5t92.5 19.5
q58 0 102.5 -26t70.5 -73t26 -109q0 -55 -20 -105t-57.5 -90.5t-89.5 -64t-116 -23.5z" />
    <glyph glyph-name="six" unicode="6" horiz-adv-x="560" 
d="M479 697l-207 -263l-19 21q18 6 36 10t34 4q63 0 111 -27t74.5 -73.5t26.5 -106.5q0 -56 -22.5 -105.5t-62 -87t-90.5 -58.5t-109 -21q-65 0 -117.5 27t-82.5 76t-30 111q0 44 15.5 85.5t41.5 77.5l256 330h145zM303 359q-32 0 -60 -12t-49.5 -32.5t-33.5 -48.5t-12 -60
q0 -29 13.5 -51.5t38 -34t55.5 -11.5q32 0 60.5 11.5t49.5 32.5t33.5 48t12.5 58t-14 53t-38 34.5t-56 12.5z" />
    <glyph glyph-name="seven" unicode="7" horiz-adv-x="560" 
d="M51 0l407 629l30 -48h-413l16 116h503l-11 -91l-391 -606h-141z" />
    <glyph glyph-name="eight" unicode="8" horiz-adv-x="560" 
d="M253 -10q-65 0 -119.5 23t-87 67t-32.5 109q0 36 12 71.5t39.5 67.5t72.5 55q-21 15 -34.5 43t-14.5 66q0 63 35.5 111t93.5 76t122 28q55 0 101 -21t73.5 -61t28.5 -97q0 -30 -9 -58t-27.5 -52t-47.5 -43q36 -22 56.5 -58.5t20.5 -86.5q0 -72 -38.5 -126t-103 -84
t-141.5 -30zM259 106q46 0 80.5 17.5t54.5 46.5t20 65q0 45 -32 69.5t-87 24.5q-43 0 -78.5 -15t-56.5 -43t-21 -66q0 -32 15 -54.5t42 -33.5t63 -11zM302 416q32 0 58.5 13t43 36t16.5 52q0 35 -23.5 55.5t-65.5 20.5q-32 0 -59 -12.5t-43 -35.5t-16 -52q0 -34 24 -55.5
t65 -21.5z" />
    <glyph glyph-name="nine" unicode="9" horiz-adv-x="560" 
d="M109 0l208 263l19 -21q-18 -6 -36.5 -10t-33.5 -4q-62 0 -110.5 27t-75.5 74t-27 106q0 57 23 106t62 86.5t90.5 58.5t108.5 21q66 0 118 -27t82.5 -75.5t30.5 -111.5q0 -44 -15.5 -85t-41.5 -78l-256 -330h-146zM285 338q32 0 60.5 12t49.5 32.5t33.5 48.5t12.5 60
q0 30 -14 52t-38 33.5t-55 11.5q-33 0 -61 -11.5t-49.5 -32.5t-33.5 -48t-12 -58t13.5 -53t38 -34.5t55.5 -12.5z" />
    <glyph glyph-name="colon" unicode=":" horiz-adv-x="240" 
d="M66 338l19 133h134l-20 -133h-133zM18 0l19 132h134l-19 -132h-134z" />
    <glyph glyph-name="semicolon" unicode=";" horiz-adv-x="240" 
d="M-50 -149l109 280h141l-165 -280h-85zM81 338l19 133h134l-19 -133h-134z" />
    <glyph glyph-name="less" unicode="&#x3c;" horiz-adv-x="560" 
d="M530 -15l-502 197v130l502 197v-105l-462 -176v39l462 -177v-105z" />
    <glyph glyph-name="equal" unicode="=" horiz-adv-x="560" 
d="M73 312v98h414v-98h-414zM73 84v98h414v-98h-414z" />
    <glyph glyph-name="greater" unicode="&#x3e;" horiz-adv-x="560" 
d="M30 -15v105l462 177v-39l-462 176v105l502 -197v-130z" />
    <glyph glyph-name="question" unicode="?" horiz-adv-x="515" 
d="M196 210l6 42q7 48 25.5 79t43.5 52.5t50 39.5q23 17 42.5 31.5t31 32.5t11.5 45q0 31 -23.5 51t-66.5 20q-60 0 -96 -31t-44 -88l-109 7q16 105 83.5 160.5t166.5 55.5q54 0 99 -19t71.5 -57t26.5 -95q0 -46 -13.5 -78t-40.5 -57.5t-67 -52.5q-34 -23 -58 -47.5
t-30 -64.5l-4 -26h-105zM154 0l19 132h133l-19 -132h-133z" />
    <glyph glyph-name="at" unicode="@" horiz-adv-x="873" 
d="M394 -112q-100 0 -178 43t-122 117.5t-44 170.5q0 88 33 167.5t93 142t140 98.5t174 36q103 0 180.5 -41.5t120.5 -114.5t43 -168q0 -42 -9.5 -87.5t-30 -84t-56 -63t-89.5 -24.5q-38 0 -67.5 13.5t-45.5 35.5t-16 48q0 2 0.5 5t0.5 6l3 24l23 -42q-24 -47 -68.5 -70
t-93.5 -23q-73 0 -117.5 45t-44.5 118q0 57 24.5 107.5t70.5 82t107 31.5q47 0 79 -21.5t49 -62.5l-15 15l24 62h94l-30 -220q-1 -7 -1.5 -13.5t-0.5 -12.5q0 -18 8 -25.5t27 -7.5q24 0 40.5 18.5t26.5 46.5t14.5 55.5t4.5 43.5q0 70 -31.5 122.5t-88 81.5t-134.5 29
q-76 0 -140.5 -29.5t-111.5 -79t-73 -112.5t-26 -131q0 -70 33 -124.5t90 -86t131 -31.5q46 0 90.5 13.5t84.5 37.5l37 -83q-49 -29 -104 -43.5t-108 -14.5zM411 174q33 0 57.5 17t38 44t13.5 57q0 34 -18.5 53t-50.5 19q-34 0 -59 -18t-38.5 -45.5t-13.5 -55.5
q0 -33 19 -52t52 -19z" />
    <glyph glyph-name="A" unicode="A" horiz-adv-x="674" 
d="M-28 0l378 697h98l181 -697h-138l-115 506l-260 -506h-144zM175 136l57 116h209l27 -116h-293z" />
    <glyph glyph-name="B" unicode="B" horiz-adv-x="611" 
d="M32 0l98 697h242q95 0 148.5 -41t53.5 -113q0 -55 -25 -99.5t-73 -70.5q44 -17 67.5 -51.5t23.5 -87.5q0 -73 -32 -125.5t-88.5 -80.5t-133.5 -28h-281zM179 119h134q61 0 94 29t33 82q0 33 -22 52.5t-66 19.5h-148zM221 417h118q30 0 53.5 12t37 34t13.5 52t-20.5 46.5
t-60.5 16.5h-119z" />
    <glyph glyph-name="C" unicode="C" horiz-adv-x="710" 
d="M342 -16q-72 0 -127 23.5t-92 65.5t-55.5 98t-18.5 120q0 78 25.5 152.5t75 135.5t120 97.5t161.5 36.5q114 0 187.5 -57.5t95.5 -154.5l-124 -37q-14 60 -59 92.5t-110 32.5q-60 0 -105.5 -25t-76.5 -66.5t-47 -93t-16 -105.5q0 -88 45.5 -139.5t130.5 -51.5
q70 0 121.5 35.5t82.5 96.5l116 -51q-47 -96 -134 -150.5t-196 -54.5z" />
    <glyph glyph-name="D" unicode="D" horiz-adv-x="674" 
d="M32 0l98 697h200q154 0 237.5 -75.5t83.5 -213.5q0 -88 -25 -162.5t-76 -130t-128.5 -85.5t-183.5 -30h-206zM179 119h56q91 0 147.5 26.5t87 69.5t42 94.5t11.5 100.5q0 63 -24.5 100t-70 52.5t-110.5 15.5h-75z" />
    <glyph glyph-name="E" unicode="E" horiz-adv-x="578" 
d="M32 0l98 697h464l-15 -116h-335l-24 -166h312l-16 -115h-312l-26 -184h335l-17 -116h-464z" />
    <glyph glyph-name="F" unicode="F" horiz-adv-x="558" 
d="M32 0l98 697h466l-16 -116h-336l-24 -166h293l-17 -115h-292l-43 -300h-129z" />
    <glyph glyph-name="G" unicode="G" horiz-adv-x="735" 
d="M333 -16q-85 0 -149.5 37.5t-99.5 105.5t-35 160q0 84 26.5 160t76.5 136t120.5 95t157.5 35q114 0 188 -57.5t96 -154.5l-125 -37q-14 60 -55.5 92.5t-106.5 32.5q-60 0 -106.5 -25t-78.5 -67t-48.5 -95.5t-16.5 -111.5q0 -85 44.5 -133.5t124.5 -48.5q35 0 71.5 10
t69 33.5t55.5 64t31 100.5l6 37l15 -90h-198l16 116h285l-52 -379h-113l-4 113l21 -21q-24 -36 -57.5 -60.5t-73.5 -36t-85 -11.5z" />
    <glyph glyph-name="H" unicode="H" horiz-adv-x="693" 
d="M32 0l98 697h129l-39 -279h301l39 279h129l-98 -697h-129l42 299h-300l-43 -299h-129z" />
    <glyph glyph-name="I" unicode="I" horiz-adv-x="263" 
d="M32 0l98 697h129l-98 -697h-129z" />
    <glyph glyph-name="J" unicode="J" horiz-adv-x="556" 
d="M228 -16q-97 0 -154 56t-57 153l128 6q1 -49 24.5 -72t69.5 -23q60 0 88.5 40t37.5 108l47 329h-261l15 116h391l-64 -459q-11 -79 -47 -136t-91.5 -87.5t-126.5 -30.5z" />
    <glyph glyph-name="K" unicode="K" horiz-adv-x="663" 
d="M166 210l21 164l351 323h177zM32 0l98 697h129l-98 -697h-129zM466 0l-172 351l106 90l216 -441h-150z" />
    <glyph glyph-name="L" unicode="L" horiz-adv-x="504" 
d="M32 0l98 697h129l-81 -581h296l-16 -116h-426z" />
    <glyph glyph-name="M" unicode="M" horiz-adv-x="856" 
d="M32 0l98 697h188l113 -506h-23l254 506h190l-98 -697h-129l77 546l12 -2l-248 -483h-126l-113 483l11 2l-77 -546h-129z" />
    <glyph glyph-name="N" unicode="N" horiz-adv-x="689" 
d="M32 0l98 697h132l251 -528h-31l74 528h129l-98 -697h-133l-249 529h31l-75 -529h-129z" />
    <glyph glyph-name="O" unicode="O" horiz-adv-x="748" 
d="M342 -16q-90 0 -156 37.5t-101.5 106t-35.5 162.5q0 82 26.5 157.5t76 135.5t120.5 95t160 35q90 0 156 -37.5t102 -106t36 -163.5q0 -82 -27 -157.5t-77 -135t-121 -94.5t-159 -35zM351 108q58 0 103.5 23.5t77 64.5t48 92.5t16.5 108.5q0 88 -45 140t-128 52
q-59 0 -105 -24.5t-77 -66t-47 -93t-16 -106.5q0 -59 20 -102t58.5 -66t94.5 -23z" />
    <glyph glyph-name="P" unicode="P" horiz-adv-x="562" 
d="M32 0l98 697h221q105 0 163 -42.5t58 -126.5q0 -76 -31.5 -130t-91 -82t-143.5 -28h-105l-41 -288h-128zM217 403h85q68 0 104.5 26.5t36.5 81.5q0 39 -29 54.5t-80 15.5h-91z" />
    <glyph glyph-name="Q" unicode="Q" horiz-adv-x="784" 
d="M342 -16q-90 0 -156 37.5t-101.5 106.5t-35.5 162q0 82 26 157.5t76 135.5t121 95t160 35q90 0 156 -37.5t102 -106t36 -163.5q0 -82 -27 -157.5t-77 -135t-121 -94.5t-159 -35zM628 -56l-249 276l88 74l245 -277zM351 108q58 0 103.5 23.5t77 64.5t48 92.5t16.5 108.5
q0 88 -45 140t-128 52q-59 0 -105 -24.5t-77 -66t-47 -93t-16 -106.5q0 -89 45 -140t128 -51z" />
    <glyph glyph-name="R" unicode="R" horiz-adv-x="612" 
d="M32 0l98 697h221q108 0 164.5 -43t56.5 -125q0 -63 -23 -114t-71.5 -84t-124.5 -42h-31.5h-32.5h-87l-41 -289h-129zM416 0l-137 302l132 16l148 -318h-143zM218 403h84q68 0 104.5 26.5t36.5 80.5q0 40 -29.5 55.5t-79.5 15.5h-91z" />
    <glyph glyph-name="S" unicode="S" horiz-adv-x="575" 
d="M278 -13q-75 0 -132.5 27t-90 75.5t-33.5 112.5l128 25q2 -64 40.5 -94.5t93.5 -30.5q37 0 64 12t41.5 34t14.5 50q0 26 -12.5 44.5t-38 33.5t-64.5 31q-61 25 -100.5 54t-58 65t-18.5 81q0 58 28.5 104.5t79.5 74t119 27.5q75 0 133 -35.5t80 -97.5l-108 -56
q-16 38 -43 56t-63 18q-31 0 -52.5 -11.5t-33 -30.5t-11.5 -43q0 -22 11.5 -39t37.5 -31t68 -31q58 -23 97 -51.5t59 -65.5t20 -87q0 -65 -32.5 -115.5t-90.5 -78t-133 -27.5z" />
    <glyph glyph-name="T" unicode="T" horiz-adv-x="584" 
d="M192 0l81 581h-216l17 116h562l-17 -116h-215l-81 -581h-131z" />
    <glyph glyph-name="U" unicode="U" horiz-adv-x="657" 
d="M298 -16q-119 0 -179.5 54t-60.5 159q0 12 1 27.5t3 30.5l62 442h129l-60 -434q-2 -16 -3.5 -30.5t-1.5 -27.5q0 -51 25.5 -76.5t87.5 -25.5q56 0 90.5 19.5t53 56.5t25.5 90l60 428h129l-62 -443q-19 -137 -94 -203.5t-205 -66.5z" />
    <glyph glyph-name="V" unicode="V" horiz-adv-x="672" 
d="M255 0l-182 697h140l131 -538h-41l279 538h146l-377 -697h-96z" />
    <glyph glyph-name="W" unicode="W" horiz-adv-x="979" 
d="M188 0l-111 697h134l73 -499l198 459h128l67 -459l216 499h137l-308 -697h-125l-81 502h21l-223 -502h-126z" />
    <glyph glyph-name="X" unicode="X" horiz-adv-x="670" 
d="M-23 0l282 348l-181 349h153l128 -259l204 259h156l-281 -349l182 -348h-152l-130 254l-204 -254h-157z" />
    <glyph glyph-name="Y" unicode="Y" horiz-adv-x="625" 
d="M214 0l39 273l-185 424h145l116 -296l206 296h150l-302 -424l-40 -273h-129z" />
    <glyph glyph-name="Z" unicode="Z" horiz-adv-x="605" 
d="M-7 0l13 106l477 516l15 -41h-400l16 116h512l-13 -106l-463 -501l-16 26h424l-16 -116h-549z" />
    <glyph glyph-name="bracketleft" unicode="[" horiz-adv-x="309" 
d="M4 -248l139 989h215l-11 -83h-114l-117 -823h114l-11 -83h-215z" />
    <glyph glyph-name="backslash" unicode="\" horiz-adv-x="467" 
d="M590 -212h-95l-490 909h96z" />
    <glyph glyph-name="bracketright" unicode="]" horiz-adv-x="310" 
d="M-50 -248l13 83h114l120 823h-115l12 83h214l-144 -989h-214z" />
    <glyph glyph-name="asciicircum" unicode="^" horiz-adv-x="627" 
d="M23 206l274 491h156l137 -491h-129l-110 432h36l-230 -432h-134z" />
    <glyph glyph-name="underscore" unicode="_" horiz-adv-x="493" 
d="M-12 -94l13 94h421l-14 -94h-420z" />
    <glyph glyph-name="grave" unicode="`" horiz-adv-x="305" 
d="M220 555l-120 142h128l80 -142h-88z" />
    <glyph glyph-name="a" unicode="a" horiz-adv-x="577" 
d="M222 -10q-59 0 -100 27t-62.5 74.5t-21.5 109.5q0 58 18 112t51 97t78.5 68t100.5 25q41 0 74.5 -16.5t53.5 -49.5t19 -84l-25 7l25 133h117l-69 -493h-118l12 132l31 7q-21 -59 -50.5 -91t-64 -45t-69.5 -13zM258 104q36 0 63.5 16t46.5 42t28.5 58t9.5 64
q0 33 -11 56.5t-32 36t-52 12.5q-36 0 -64 -15.5t-46.5 -41.5t-28.5 -58t-10 -64q0 -33 11.5 -57t33 -36.5t51.5 -12.5z" />
    <glyph glyph-name="b" unicode="b" horiz-adv-x="577" 
d="M297 -10q-39 0 -72.5 14.5t-56 48.5t-27.5 93l26 -14l-23 -132h-118l98 697h124l-46 -337l-28 -1q17 51 45 82.5t63.5 46.5t72.5 15q54 0 95 -24.5t65 -71.5t24 -113q0 -56 -16 -110t-47 -98t-76 -70t-103 -26zM271 104q32 0 58.5 13.5t45.5 37t29 54.5t10 67t-12 61
t-34 38.5t-54 13.5q-33 0 -59 -13t-45 -36.5t-29 -54.5t-10 -68q0 -34 12 -59.5t34.5 -39.5t53.5 -14z" />
    <glyph glyph-name="c" unicode="c" horiz-adv-x="523" 
d="M255 -10q-75 0 -123.5 30t-72 80t-23.5 109q0 57 19 109.5t54.5 94t86 66t112.5 24.5q77 0 128.5 -37.5t68.5 -111.5l-112 -36q-7 35 -27 56t-60 21q-36 0 -63.5 -16.5t-46 -44.5t-28 -61t-9.5 -65q0 -30 10.5 -54.5t32 -40t54.5 -15.5q45 0 72.5 23.5t43.5 60.5l103 -50
q-36 -73 -94 -107.5t-126 -34.5z" />
    <glyph glyph-name="d" unicode="d" horiz-adv-x="577" 
d="M222 -10q-59 0 -100 27t-62.5 74.5t-21.5 109.5q0 58 18 112t51 97t78.5 68t100.5 25q41 0 74.5 -16.5t53.5 -49.5t19 -84l-25 7l47 337h124l-98 -697h-118l12 132l31 7q-21 -59 -50.5 -91t-64 -45t-69.5 -13zM263 104q33 0 59 13.5t45 37t29 54.5t10 67q0 35 -12 60
t-34 39t-54 14q-33 0 -59 -13.5t-45 -36.5t-29 -54.5t-10 -67.5q0 -35 12 -60.5t34.5 -39t53.5 -13.5z" />
    <glyph glyph-name="e" unicode="e" horiz-adv-x="543" 
d="M253 -10q-77 0 -125 29.5t-70 78t-22 105.5q0 56 17.5 109t51.5 96t84 69t115 26q69 0 113.5 -27.5t66.5 -74.5t22 -106q0 -25 -3 -48t-9 -46h-337v-11t1 -10q4 -41 32 -61.5t71 -20.5q37 0 71.5 12t66.5 34l59 -84q-42 -32 -93 -51t-112 -19zM389 270q3 13 4 23t1 22
q0 22 -9 42t-28.5 32.5t-52.5 12.5q-38 0 -66 -16.5t-45 -41.5t-24 -51h261z" />
    <glyph glyph-name="f" unicode="f" horiz-adv-x="348" 
d="M64 0l56 396h-89l14 97h90l8 55q9 63 33 97.5t59.5 48t76.5 13.5q33 0 55.5 -6.5t42.5 -16.5l-48 -91q-9 5 -19 7.5t-19 2.5q-27 0 -41 -18t-18 -44l-6 -48h104l-13 -97h-105l-56 -396h-125z" />
    <glyph glyph-name="g" unicode="g" horiz-adv-x="578" 
d="M218 -214q-58 0 -99.5 16t-68.5 42t-44 56l103 70q14 -30 39.5 -54t70.5 -24q29 0 59 10t52.5 37.5t29.5 77.5l13 105l16 -15q-32 -55 -74 -77t-93 -22q-57 0 -98 27t-62.5 74t-21.5 106q0 55 17.5 106t50.5 92t77.5 65.5t98.5 24.5q61 0 97 -28t45 -75l-13 -13l20 106
h118l-68 -482q-11 -78 -46.5 -127.5t-91.5 -73.5t-127 -24zM269 120q30 0 55.5 12.5t43.5 34t28 50.5t10 63q0 33 -11.5 57t-34 38t-54.5 14q-31 0 -57 -12.5t-45 -34.5t-29 -51t-10 -62q0 -32 12.5 -56.5t36 -38.5t55.5 -14z" />
    <glyph glyph-name="h" unicode="h" horiz-adv-x="564" 
d="M26 0l98 697h125l-45 -316l-20 4q19 45 47 70.5t61.5 36.5t66.5 11q78 0 120 -39.5t42 -109.5q0 -9 -0.5 -17.5t-2.5 -18.5l-44 -318h-125l39 279q2 12 2.5 21t0.5 18q0 40 -17 58.5t-54 18.5q-56 0 -90 -40t-46 -122l-33 -233h-125z" />
    <glyph glyph-name="i" unicode="i" horiz-adv-x="245" 
d="M25 0l69 493h125l-70 -493h-124zM102 569l18 128h132l-18 -128h-132z" />
    <glyph glyph-name="j" unicode="j" horiz-adv-x="245" 
d="M5 -214q-22 0 -45 4.5t-44 11.5l8 106q13 -3 23 -4.5t16 -1.5q22 0 37 11t19 39l75 541h125l-82 -581q-9 -66 -44.5 -96t-87.5 -30zM102 569l18 128h132l-18 -128h-132z" />
    <glyph glyph-name="k" unicode="k" horiz-adv-x="559" 
d="M368 0l-116 226l-91 -87l19 154l209 200h168l-214 -187l163 -306h-138zM26 0l98 697h124l-98 -697h-124z" />
    <glyph glyph-name="l" unicode="l" horiz-adv-x="279" 
d="M146 -10q-47 0 -77 26t-30 78q0 6 0.5 13.5t1.5 14.5l81 575h123l-74 -541q-1 -7 -2 -13t-1 -10q0 -17 8.5 -23t21.5 -6q9 0 19 1.5t19 4.5l-15 -107q-22 -8 -41.5 -10.5t-33.5 -2.5z" />
    <glyph glyph-name="m" unicode="m" horiz-adv-x="842" 
d="M26 0l70 493h118l-11 -128l-31 -15q19 63 50 96t65.5 45t64.5 12q40 0 74.5 -15.5t56.5 -51.5t24 -97l-78 -16q25 70 58.5 109t72.5 55t78 16q57 0 92.5 -22.5t51.5 -59t16 -78.5q0 -9 -0.5 -17.5t-2.5 -17.5l-43 -308h-124l40 284q2 9 2 17.5v18.5q0 38 -15 56.5
t-48 18.5q-48 0 -79.5 -37.5t-41.5 -111.5l-35 -246h-124l41 287q2 11 2.5 18.5t0.5 16.5q0 34 -14 53.5t-47 19.5q-50 0 -82 -38t-43 -111l-34 -246h-125z" />
    <glyph glyph-name="n" unicode="n" horiz-adv-x="564" 
d="M26 0l70 493h118l-10 -112l-20 4q19 45 47 70.5t61.5 36.5t66.5 11q78 0 120 -39.5t42 -109.5q0 -9 -0.5 -17.5t-2.5 -18.5l-44 -318h-125l39 279q2 12 2.5 21t0.5 18q0 40 -17 58.5t-54 18.5q-56 0 -90 -40t-46 -122l-33 -233h-125z" />
    <glyph glyph-name="o" unicode="o" horiz-adv-x="572" 
d="M255 -10q-66 0 -115 28t-77 78.5t-28 116.5q0 58 21 110.5t59 93t89 63.5t112 23q66 0 115.5 -28t76.5 -77.5t27 -115.5q0 -59 -21 -112t-59 -93t-89 -63.5t-111 -23.5zM264 99q35 0 62.5 15.5t46.5 41t29 57t10 63.5q0 51 -26 84.5t-79 33.5q-36 0 -64 -15.5t-46.5 -41
t-28 -56.5t-9.5 -63q0 -50 26.5 -84.5t78.5 -34.5z" />
    <glyph glyph-name="p" unicode="p" horiz-adv-x="577" 
d="M-2 -204l98 697h118l-12 -132l-32 -7q21 59 51 91t64.5 45t69.5 13q59 0 100 -27t62.5 -74.5t21.5 -109.5q0 -58 -17 -112t-49 -97t-76.5 -68t-99.5 -25q-41 0 -74.5 16.5t-54.5 50t-24 83.5l24 -7l-46 -337h-124zM271 104q32 0 58 13t45.5 36.5t29.5 54.5t10 67
t-12 61.5t-34.5 39t-54.5 13.5t-58 -13.5t-45 -37t-29 -54.5t-10 -67q0 -34 12 -59.5t34.5 -39.5t53.5 -14z" />
    <glyph glyph-name="q" unicode="q" horiz-adv-x="577" 
d="M329 -204l46 337l28 1q-16 -50 -44.5 -82t-63.5 -47t-73 -15q-53 0 -94.5 24.5t-65.5 71.5t-24 113q0 56 16 110t47 98t76 70t103 26q38 0 72 -14.5t56.5 -48t27.5 -93.5l-27 14l24 132h118l-98 -697h-124zM263 104q32 0 58.5 13t45.5 36.5t29 55t10 67.5q0 35 -12 60
t-34 39t-54 14q-33 0 -59 -13.5t-45 -37t-29 -54.5t-10 -67q0 -35 12 -60.5t34.5 -39t53.5 -13.5z" />
    <glyph glyph-name="r" unicode="r" horiz-adv-x="426" 
d="M26 0l70 493h119l-13 -134l-21 3q10 43 37 74.5t62 49t68 17.5q27 0 48.5 -7.5t45.5 -22.5l-71 -109q-10 7 -26 11t-31 4q-44 0 -71.5 -23.5t-41.5 -62.5t-21 -85l-30 -208h-124z" />
    <glyph glyph-name="s" unicode="s" horiz-adv-x="477" 
d="M211 -10q-56 0 -97 17t-67.5 41t-41.5 46l90 67q18 -33 50 -53t71 -20q27 0 46 7.5t30 20.5t11 30q0 16 -10.5 26.5t-29.5 18t-44 13.5q-25 7 -51.5 17t-50 25t-38.5 38.5t-15 59.5q0 46 25.5 82t70.5 56.5t104 20.5q62 0 108 -25t69 -69l-84 -55q-15 28 -40 40t-56 12
t-55 -12.5t-24 -36.5q0 -17 17.5 -26.5t57.5 -19.5q41 -10 79.5 -25.5t64.5 -43t26 -77.5q0 -52 -27.5 -91.5t-75.5 -61.5t-113 -22z" />
    <glyph glyph-name="t" unicode="t" horiz-adv-x="368" 
d="M219 -10q-37 0 -67.5 13t-49.5 40t-19 72q0 9 1 19t3 26l63 448l135 67l-70 -499q-1 -9 -2 -19t-1 -20q0 -22 9.5 -33.5t33.5 -11.5q13 0 27 3t31 7l-14 -100q-21 -6 -41.5 -9t-38.5 -3zM31 396l14 97h323l-14 -97h-323z" />
    <glyph glyph-name="u" unicode="u" horiz-adv-x="564" 
d="M205 -10q-82 0 -121.5 42.5t-39.5 113.5q0 11 1 21t2 21l42 305h125l-40 -280q-1 -11 -2 -21t-1 -19q0 -36 16.5 -55.5t56.5 -19.5q46 0 73.5 25.5t43.5 71t24 105.5l27 193h125l-70 -493h-117l7 107l18 -14q-31 -57 -75.5 -80t-94.5 -23z" />
    <glyph glyph-name="v" unicode="v" horiz-adv-x="535" 
d="M183 0l-132 493h134l68 -331l166 331h136l-270 -493h-102z" />
    <glyph glyph-name="w" unicode="w" horiz-adv-x="755" 
d="M137 0l-83 493h130l40 -303l133 303h106l47 -301l126 301h135l-222 -493h-111l-49 317l-139 -317h-113z" />
    <glyph glyph-name="x" unicode="x" horiz-adv-x="542" 
d="M-16 0l204 249l-132 244h143l81 -163l126 163h151l-205 -244l134 -249h-143l-81 166l-127 -166h-151z" />
    <glyph glyph-name="y" unicode="y" horiz-adv-x="535" 
d="M37 -204l135 242l-121 455h134l68 -331l166 331h136l-381 -697h-137z" />
    <glyph glyph-name="z" unicode="z" horiz-adv-x="471" 
d="M0 0l11 83l318 339l8 -33h-271l15 104h386l-12 -89l-314 -340l-8 40h279l-15 -104h-397z" />
    <glyph glyph-name="braceleft" unicode="{" horiz-adv-x="309" 
d="M145 -248q-46 0 -71.5 29.5t-25.5 80.5q0 7 1 15.5t2 17.5l32 230q1 5 1.5 11t0.5 10q0 34 -16.5 45.5t-35.5 13.5l5 83q15 2 32 10.5t31 27t18 48.5l32 230q10 66 41.5 101.5t84.5 35.5h83l-11 -79h-34q-27 0 -41.5 -19.5t-18.5 -47.5l-32 -230q-7 -50 -29 -75.5
t-59 -41.5l-3 -6q26 -14 42.5 -35.5t16.5 -58.5q0 -7 -0.5 -13.5t-1.5 -13.5l-33 -230q-1 -6 -1.5 -11.5t-0.5 -10.5q0 -17 8 -27.5t29 -10.5h41l-11 -79h-76z" />
    <glyph glyph-name="bar" unicode="|" horiz-adv-x="271" 
d="M19 -254l140 1000h93l-140 -1000h-93z" />
    <glyph glyph-name="braceright" unicode="}" horiz-adv-x="310" 
d="M-52 -248l12 79h33q28 0 43 18.5t19 48.5l33 231q5 29 12.5 50t25.5 36.5t50 29.5v6q-31 18 -42 41t-11 49q0 7 0.5 15t1.5 16l33 231q2 7 2 11.5v9.5q0 16 -8 27t-31 11h-40l12 79h75q33 0 53.5 -14t30 -38t9.5 -55q0 -8 -0.5 -17t-2.5 -20l-33 -230q-1 -4 -1 -8v-9
q0 -22 11.5 -40.5t41.5 -21.5l-5 -83q-22 -2 -40 -15t-29 -32t-14 -40l-33 -230q-5 -32 -17.5 -63.5t-38 -52t-70.5 -20.5h-82z" />
    <glyph glyph-name="asciitilde" unicode="~" horiz-adv-x="560" 
d="M368 147q-37 0 -59.5 11.5t-37 28t-25 33t-23 27.5t-31.5 11t-29.5 -22.5t-10.5 -58.5h-99q0 75 37.5 122.5t101.5 47.5q37 0 60.5 -11.5t38 -28t25.5 -33.5t22.5 -28.5t29.5 -11.5t30 27t12 66h99q0 -79 -38.5 -129.5t-102.5 -50.5z" />
    <glyph glyph-name="uni00A0" unicode="&#xa0;" horiz-adv-x="260" 
 />
    <glyph glyph-name="exclamdown" unicode="&#xa1;" horiz-adv-x="252" 
d="M178 281l-54 -485h-123l82 485h95zM228 493l-19 -132h-134l19 132h134z" />
    <glyph glyph-name="cent" unicode="&#xa2;" horiz-adv-x="560" 
d="M192 -113l22 149h91l-21 -149h-92zM273 455l20 146h92l-21 -146h-91zM274 -10q-75 0 -123.5 30t-71.5 80t-23 109q0 57 18.5 109.5t54 94t86 66t112.5 24.5q77 0 128.5 -37.5t68.5 -111.5l-112 -36q-7 35 -27 56t-60 21q-36 0 -63.5 -16.5t-46 -44.5t-28 -61t-9.5 -65
q0 -30 10.5 -54.5t32 -40t54.5 -15.5q45 0 72.5 23.5t43.5 60.5l104 -50q-37 -73 -95 -107.5t-126 -34.5z" />
    <glyph glyph-name="sterling" unicode="&#xa3;" horiz-adv-x="560" 
d="M5 0l16 107q46 19 77 41.5t48 48t19 53.5q0 13 -1 27t-2 26h-109l12 89h86q-2 18 -2.5 35t-0.5 35q0 76 29.5 133t81.5 87.5t119 30.5q84 0 135.5 -42.5t62.5 -111.5l-99 -32q-8 43 -35.5 62.5t-62.5 19.5q-44 0 -72.5 -19.5t-42.5 -53.5t-14 -78q0 -16 1 -31t2 -35h212
l-12 -89h-191q2 -14 2.5 -32.5t-0.5 -37.5q-2 -23 -9.5 -44t-21.5 -39.5t-33.5 -32t-44.5 -22.5v9h350l-14 -104h-486z" />
    <glyph glyph-name="currency" unicode="&#xa4;" horiz-adv-x="611" 
d="M96 58l-58 69l66 59q-11 23 -17 48.5t-6 51.5q0 42 15 82.5t42 73.5l-48 52l74 70l48 -58q32 20 66 30t66 10q36 0 67.5 -11t55.5 -31l67 59l60 -67l-66 -59q12 -23 18 -48.5t6 -52.5q0 -42 -15 -83t-43 -75l48 -51l-74 -69l-49 56q-31 -20 -64.5 -29t-64.5 -9
q-38 0 -70 11t-58 30zM298 170q38 0 67.5 14t50 37.5t30.5 52t10 56.5q0 32 -13 60t-39.5 45t-67.5 17q-38 0 -67 -14t-49 -38t-30.5 -52.5t-10.5 -56.5q0 -32 13 -59.5t39 -44.5t67 -17z" />
    <glyph glyph-name="yen" unicode="&#xa5;" horiz-adv-x="560" 
d="M183 0l15 104h-158l14 100h158l9 63h-158l15 101h103l-115 329h138l94 -304l187 304h140l-205 -329h98l-14 -101h-154l-9 -63h154l-14 -100h-154l-14 -104h-130z" />
    <glyph glyph-name="brokenbar" unicode="&#xa6;" horiz-adv-x="271" 
d="M101 330l58 416h93l-58 -416h-93zM19 -254l57 409h93l-57 -409h-93z" />
    <glyph glyph-name="section" unicode="&#xa7;" horiz-adv-x="606" 
d="M244 -216q-44 0 -85 14t-72.5 42t-49.5 70l113 60q14 -36 42.5 -53.5t58.5 -17.5q28 0 49.5 12t34.5 31t13 42q0 25 -15.5 41t-41 28t-56.5 24t-63 26.5t-58.5 35t-42.5 52t-16 76.5q0 48 20.5 91.5t60.5 79.5q-4 11 -6.5 24.5t-2.5 30.5q0 61 32 109.5t86.5 76.5
t122.5 28q71 0 123 -32.5t78 -93.5l-114 -59q-11 32 -36 51t-61 19q-28 0 -50.5 -11t-36 -30t-13.5 -42q0 -25 16.5 -42t43 -29.5t56.5 -25.5q31 -12 62 -27t57 -35.5t42.5 -51t16.5 -73.5q0 -48 -21.5 -93t-59.5 -79q4 -13 5.5 -26.5t1.5 -27.5q0 -62 -30.5 -111
t-83.5 -76.5t-120 -27.5zM396 136q15 14 23.5 30.5t8.5 36.5q0 25 -14 41t-39 28t-58 25q-24 10 -53.5 23t-53.5 30q-15 -14 -23.5 -32t-8.5 -36q0 -28 17.5 -46.5t46 -31.5t60.5 -25q24 -8 38 -14t22 -9.5t16 -8.5t18 -11z" />
    <glyph glyph-name="dieresis" unicode="&#xa8;" horiz-adv-x="424" 
d="M275 569l18 128h132l-18 -128h-132zM82 569l18 128h131l-18 -128h-131z" />
    <glyph glyph-name="copyright" unicode="&#xa9;" horiz-adv-x="804" 
d="M403 -5q-73 0 -137.5 27.5t-113 76t-76 113t-27.5 137.5t27.5 137t76 112.5t113 76t137.5 27.5t137 -27.5t112.5 -76t76 -112.5t27.5 -137t-27.5 -137.5t-76 -113t-112.5 -76t-137 -27.5zM404 138q-66 0 -109 30.5t-64.5 78t-21.5 100.5q0 54 21 102t64.5 78.5
t108.5 30.5q62 0 107.5 -30t68.5 -90l-96 -38q-8 27 -28.5 46t-51.5 19q-32 0 -52.5 -17.5t-29.5 -44.5t-9 -56t9 -55.5t29.5 -43t52.5 -16.5q30 0 51 18t28 45l92 -35q-19 -57 -63.5 -89.5t-106.5 -32.5zM403 54q61 0 114.5 23t93.5 63.5t63 94t23 114.5t-23 114.5
t-63.5 94t-93.5 63.5t-114 23t-115 -23t-94.5 -63.5t-63.5 -94t-23 -114.5t23 -114.5t63.5 -94t94.5 -63.5t115 -23z" />
    <glyph glyph-name="ordfeminine" unicode="&#xaa;" horiz-adv-x="473" 
d="M199 349q-54 0 -90 30t-36 81q0 55 39.5 80t94.5 25h100q0 6 -0.5 13t-1.5 12q-6 25 -23.5 38.5t-48.5 13.5q-36 0 -57.5 -16.5t-35.5 -36.5l-56 38q31 43 66 61.5t80 18.5q70 0 108.5 -38.5t38.5 -101.5v-210h-64l-2 43q-46 -51 -112 -51zM215 415q27 0 47 10t33 31
q5 11 8 22t4 23h-95q-30 0 -45.5 -12t-15.5 -31q0 -18 16 -30.5t48 -12.5z" />
    <glyph glyph-name="guillemotleft" unicode="&#xab;" horiz-adv-x="541" 
d="M487 43l-225 209l281 209l-16 -132l-119 -77l96 -76zM228 43l-225 209l281 209l-16 -132l-119 -77l96 -76z" />
    <glyph glyph-name="logicalnot" unicode="&#xac;" horiz-adv-x="560" 
d="M388 22v176h-360v98h458v-274h-98z" />
    <glyph glyph-name="uni00AD" unicode="&#xad;" horiz-adv-x="327" 
d="M40 249l13 93h248l-13 -93h-248z" />
    <glyph glyph-name="registered" unicode="&#xae;" horiz-adv-x="610" 
d="M305 189q-71 0 -130 32t-94 90.5t-35 136.5t35 136t94 90.5t130 32.5q72 0 130.5 -32.5t93.5 -90.5t35 -136t-35 -136.5t-93.5 -90.5t-130.5 -32zM305 245q57 0 102.5 25t72.5 71t27 107q0 62 -27 107.5t-72.5 70.5t-102.5 25q-56 0 -102 -25t-73 -70.5t-27 -107.5
q0 -61 27 -107t73 -71t102 -25zM222 305v287h96q52 0 75 -22.5t23 -60.5q0 -31 -14.5 -50.5t-40.5 -28.5l64 -125h-59l-57 119h-33v-119h-54zM277 472h35q20 0 35 7t15 30q0 22 -15 28.5t-35 6.5h-35v-72z" />
    <glyph glyph-name="macron" unicode="&#xaf;" horiz-adv-x="363" 
d="M81 563l18 73h271l-17 -73h-272z" />
    <glyph glyph-name="degree" unicode="&#xb0;" horiz-adv-x="422" 
d="M241 418q-37 0 -67 17.5t-47 47t-17 66.5q0 42 22 78t58.5 58t77.5 22q38 0 68 -17t47.5 -46.5t17.5 -66.5q0 -42 -22.5 -78.5t-59 -58.5t-78.5 -22zM249 500q18 0 34 9.5t25.5 25.5t9.5 34q0 24 -16 40t-41 16q-18 0 -33.5 -9.5t-25 -25t-9.5 -33.5q0 -25 15.5 -41
t40.5 -16z" />
    <glyph glyph-name="plusminus" unicode="&#xb1;" horiz-adv-x="560" 
d="M231 129v156h-198v98h198v154h99v-154h197v-98h-197v-156h-99zM33 -46v98h494v-98h-494z" />
    <glyph glyph-name="uni00B2" unicode="&#xb2;" horiz-adv-x="365" 
d="M73 488l6 58q22 12 47.5 28t52 35t50 41t42.5 45.5t30.5 48t11.5 49.5q0 20 -12 32.5t-37 12.5q-26 0 -43.5 -13t-27.5 -33t-14 -41l-72 10q4 28 17 55t33.5 48.5t48.5 34t62 12.5q36 0 62.5 -14t41.5 -40t15 -61q0 -30 -10 -58t-28 -53.5t-41.5 -48.5t-50.5 -43t-56 -37
t-58 -30l17 31h211l-10 -69h-288z" />
    <glyph glyph-name="uni00B3" unicode="&#xb3;" horiz-adv-x="351" 
d="M207 482q-43 0 -75 15t-49.5 42t-17.5 62q0 5 0.5 10.5t1.5 11.5h74q0 -4 -0.5 -6.5l-0.5 -2.5q0 -30 19.5 -45t53.5 -15q27 0 48 8.5t32 24.5t11 37q0 15 -5.5 25.5t-17.5 16.5t-29.5 8.5t-40.5 2.5l5 59q24 -1 44 6t32.5 20.5t12.5 34.5q0 20 -12.5 31.5t-36.5 11.5
q-20 0 -36 -7.5t-26 -21t-13 -30.5l-72 8q5 36 26 64t54 43.5t72 15.5q36 0 63 -13.5t41.5 -38t14.5 -54.5q0 -25 -9.5 -45t-28.5 -34.5t-48 -22.5v16q24 -5 43 -16t30 -30.5t11 -47.5q0 -40 -22 -72.5t-60 -52t-89 -19.5z" />
    <glyph glyph-name="acute" unicode="&#xb4;" horiz-adv-x="329" 
d="M80 555l120 142h131l-162 -142h-89z" />
    <glyph glyph-name="uni00B5" unicode="&#xb5;" horiz-adv-x="564" 
d="M-3 -162l92 655h125l-40 -285l-2 -20t-1 -17q0 -32 15.5 -52.5t58.5 -20.5q47 0 75 27t43 74t23 106l26 188h125l-70 -493h-112l9 114l16 -19q-32 -57 -77.5 -81t-96.5 -24q-21 0 -35 6t-22 16l-27 -174h-125z" />
    <glyph glyph-name="paragraph" unicode="&#xb6;" horiz-adv-x="615" 
d="M217 -121l64 428q-53 0 -99 20.5t-74 59.5t-28 93q0 52 21 92t56.5 68t80 42.5t90.5 14.5h73l-115 -818h-69zM395 -121l115 818h71l-115 -818h-71z" />
    <glyph glyph-name="periodcentered" unicode="&#xb7;" horiz-adv-x="308" 
d="M94 283l18 132h124l-18 -132h-124z" />
    <glyph glyph-name="cedilla" unicode="&#xb8;" horiz-adv-x="274" 
d="M61 -259q-15 0 -40 7t-44 24l40 60q10 -9 22 -14.5t24 -5.5q19 0 30.5 10t11.5 30q0 17 -9.5 27.5t-25.5 16t-35.5 7t-39.5 1.5l68 107l75 -1l-47 -58q26 -5 45.5 -17.5t31 -32t11.5 -47.5q0 -49 -33 -81.5t-85 -32.5z" />
    <glyph glyph-name="uni00B9" unicode="&#xb9;" horiz-adv-x="439" 
d="M234 488l45 330l17 -36h-128l8 59h63q22 0 35 10.5t15 32.5l4 22h74l-59 -418h-74z" />
    <glyph glyph-name="ordmasculine" unicode="&#xba;" horiz-adv-x="497" 
d="M248 351q-52 0 -91.5 24.5t-62 65t-22.5 88.5q0 49 22.5 89t62.5 64.5t91 24.5t91 -24t62 -64.5t22 -89.5t-22 -89.5t-61.5 -64.5t-91.5 -24zM248 420q34 0 54.5 14.5t30.5 39.5t10 55q0 31 -10 56t-30.5 39.5t-54.5 14.5q-33 0 -54 -14.5t-31 -39.5t-10 -56
q0 -30 9.5 -55t30.5 -39.5t55 -14.5z" />
    <glyph glyph-name="guillemotright" unicode="&#xbb;" horiz-adv-x="459" 
d="M-29 43l-16 133l95 76l-119 77l-16 132l281 -209zM230 43l-16 133l95 76l-119 77l-16 132l281 -209z" />
    <glyph glyph-name="onequarter" unicode="&#xbc;" horiz-adv-x="817" 
d="M100 279l45 330l17 -36h-128l8 59h63q21 0 34 10.5t16 32.5l3 22h75l-59 -418h-74zM60 0l520 697h90l-520 -697h-90zM641 0l14 99h-185l7 57l231 262h66l-35 -250h66l-10 -69h-66l-13 -99h-75zM540 149l-3 19h129l25 180l6 -14z" />
    <glyph glyph-name="onehalf" unicode="&#xbd;" horiz-adv-x="795" 
d="M100 279l45 330l17 -36h-128l8 59h63q21 0 34 10.5t16 32.5l3 22h75l-59 -418h-74zM60 0l520 697h90l-520 -697h-90zM465 0l7 58q22 12 47.5 28t52 35t50 41t42.5 45.5t30 48t11 49.5q0 20 -11.5 32.5t-36.5 12.5q-26 0 -43.5 -13t-27.5 -33t-14 -41l-72 10q4 28 16.5 55
t33.5 48.5t49 34t62 12.5q36 0 62.5 -14t41 -40t14.5 -61q0 -30 -9.5 -58t-27.5 -53.5t-41.5 -48.5t-50.5 -43t-56 -37t-58 -30l17 31h211l-10 -69h-289z" />
    <glyph glyph-name="threequarters" unicode="&#xbe;" horiz-adv-x="923" 
d="M153 273q-43 0 -74.5 15t-49.5 42t-18 62q0 5 0.5 10.5t1.5 11.5h74q0 -4 -0.5 -6.5l-0.5 -2.5q0 -30 19.5 -45t53.5 -15q27 0 48 8.5t32.5 24.5t11.5 37q0 15 -6 25.5t-17.5 16.5t-29 8.5t-40.5 2.5l4 59q24 -1 44 6t32.5 20.5t12.5 34.5q0 20 -12.5 31.5t-36.5 11.5
q-20 0 -35.5 -7.5t-26 -21t-13.5 -30.5l-71 8q5 36 25.5 64t53.5 43.5t72 15.5q37 0 63.5 -13.5t41 -38t14.5 -54.5q0 -25 -9.5 -45t-28.5 -34.5t-47 -22.5v16q23 -5 42 -16t30.5 -30.5t11.5 -47.5q0 -40 -22.5 -72.5t-60.5 -52t-89 -19.5zM166 0l520 697h91l-520 -697h-91z
M747 0l14 99h-185l8 57l230 262h66l-35 -250h66l-9 -69h-67l-13 -99h-75zM646 149l-3 19h129l25 180l6 -14z" />
    <glyph glyph-name="questiondown" unicode="&#xbf;" horiz-adv-x="414" 
d="M294 283l-6 -42q-7 -48 -26 -79t-43.5 -52.5t-49.5 -39.5q-24 -17 -43 -31.5t-30.5 -32.5t-11.5 -45q0 -31 23.5 -51t66.5 -20q60 0 96 31.5t43 87.5l110 -7q-16 -105 -84 -160.5t-166 -55.5q-54 0 -99 19t-71.5 57.5t-26.5 94.5q0 46 13.5 78t40.5 57.5t66 52.5
q34 24 58 48.5t31 63.5l4 26h105zM335 493l-18 -132h-133l18 132h133z" />
    <glyph glyph-name="Agrave" unicode="&#xc0;" horiz-adv-x="674" 
d="M-28 0l378 697h98l181 -697h-138l-115 506l-260 -506h-144zM175 136l57 116h209l27 -116h-293zM367 759l-120 142h128l80 -142h-88z" />
    <glyph glyph-name="Aacute" unicode="&#xc1;" horiz-adv-x="674" 
d="M-28 0l378 697h98l181 -697h-138l-115 506l-260 -506h-144zM175 136l57 116h209l27 -116h-293zM361 759l120 142h131l-162 -142h-89z" />
    <glyph glyph-name="Acircumflex" unicode="&#xc2;" horiz-adv-x="674" 
d="M-28 0l378 697h98l181 -697h-138l-115 506l-260 -506h-144zM175 136l57 116h209l27 -116h-293zM249 745l180 175l133 -175h-96l-47 69l-67 -69h-103z" />
    <glyph glyph-name="Atilde" unicode="&#xc3;" horiz-adv-x="674" 
d="M-28 0l378 697h98l181 -697h-138l-115 506l-260 -506h-144zM175 136l57 116h209l27 -116h-293zM475 742q-24 0 -40 6.5t-27 16t-19 19t-15.5 16t-17.5 6.5q-17 0 -29 -17t-17 -48l-70 7q8 62 40 94t79 32q21 0 36 -7t26 -16.5t19.5 -19t16 -16t16.5 -6.5q14 0 27 17.5
t18 47.5l73 -6q-8 -63 -39 -94.5t-77 -31.5z" />
    <glyph glyph-name="Adieresis" unicode="&#xc4;" horiz-adv-x="674" 
d="M-28 0l378 697h98l181 -697h-138l-115 506l-260 -506h-144zM175 136l57 116h209l27 -116h-293zM442 773l18 128h132l-18 -128h-132zM249 773l18 128h131l-18 -128h-131z" />
    <glyph glyph-name="Aring" unicode="&#xc5;" horiz-adv-x="674" 
d="M-28 0l378 697h98l181 -697h-138l-115 506l-260 -506h-144zM175 136l57 116h209l27 -116h-293zM396 632q-47 0 -76.5 31.5t-29.5 74.5q0 34 17.5 62t46 45.5t61.5 17.5q44 0 75 -30t31 -75q0 -34 -17.5 -62.5t-46 -46t-61.5 -17.5zM401 699q25 0 39.5 17t14.5 39
q0 17 -11 29t-31 12q-26 0 -40.5 -16.5t-14.5 -36.5q0 -18 11.5 -31t31.5 -13z" />
    <glyph glyph-name="AE" unicode="&#xc6;" horiz-adv-x="928" 
d="M-28 0l378 697h594l-15 -116h-346l-25 -174h304l-17 -116h-304l-24 -175h346l-17 -116h-476l82 583h-38l-298 -583h-144zM163 136l57 119h217l-17 -119h-257z" />
    <glyph glyph-name="Ccedilla" unicode="&#xc7;" horiz-adv-x="710" 
d="M342 -16q-72 0 -127 23.5t-92 65.5t-55.5 98t-18.5 120q0 78 25.5 152.5t75 135.5t120 97.5t161.5 36.5q114 0 187.5 -57.5t95.5 -154.5l-124 -37q-14 60 -59 92.5t-110 32.5q-60 0 -105.5 -25t-76.5 -66.5t-47 -93t-16 -105.5q0 -88 45.5 -139.5t130.5 -51.5
q70 0 121.5 35.5t82.5 96.5l116 -51q-47 -96 -134 -150.5t-196 -54.5zM291 -259q-15 0 -40 7t-44 24l40 60q10 -9 22 -14.5t24 -5.5q19 0 30.5 10t11.5 30q0 17 -9.5 27.5t-25.5 16t-35.5 7t-39.5 1.5l68 107l75 -1l-47 -58q26 -5 45.5 -17.5t31 -32t11.5 -47.5
q0 -49 -33 -81.5t-85 -32.5z" />
    <glyph glyph-name="Egrave" unicode="&#xc8;" horiz-adv-x="578" 
d="M32 0l98 697h464l-15 -116h-335l-24 -166h312l-16 -115h-312l-26 -184h335l-17 -116h-464zM328 759l-120 142h128l80 -142h-88z" />
    <glyph glyph-name="Eacute" unicode="&#xc9;" horiz-adv-x="578" 
d="M32 0l98 697h464l-15 -116h-335l-24 -166h312l-16 -115h-312l-26 -184h335l-17 -116h-464zM323 759l120 142h131l-162 -142h-89z" />
    <glyph glyph-name="Ecircumflex" unicode="&#xca;" horiz-adv-x="578" 
d="M32 0l98 697h464l-15 -116h-335l-24 -166h312l-16 -115h-312l-26 -184h335l-17 -116h-464zM211 745l180 175l133 -175h-96l-47 69l-67 -69h-103z" />
    <glyph glyph-name="Edieresis" unicode="&#xcb;" horiz-adv-x="578" 
d="M32 0l98 697h464l-15 -116h-335l-24 -166h312l-16 -115h-312l-26 -184h335l-17 -116h-464zM404 773l18 128h132l-18 -128h-132zM211 773l18 128h131l-18 -128h-131z" />
    <glyph glyph-name="Igrave" unicode="&#xcc;" horiz-adv-x="263" 
d="M32 0l98 697h129l-98 -697h-129zM161 759l-120 142h128l80 -142h-88z" />
    <glyph glyph-name="Iacute" unicode="&#xcd;" horiz-adv-x="263" 
d="M32 0l98 697h129l-98 -697h-129zM156 759l120 142h131l-162 -142h-89z" />
    <glyph glyph-name="Icircumflex" unicode="&#xce;" horiz-adv-x="263" 
d="M32 0l98 697h129l-98 -697h-129zM48 745l177 175l131 -175h-94l-48 69l-66 -69h-100z" />
    <glyph glyph-name="Idieresis" unicode="&#xcf;" horiz-adv-x="263" 
d="M32 0l98 697h129l-98 -697h-129zM237 773l18 128h132l-18 -128h-132zM44 773l18 128h131l-18 -128h-131z" />
    <glyph glyph-name="Eth" unicode="&#xd0;" horiz-adv-x="674" 
d="M32 0l98 697h200q154 0 237.5 -75.5t83.5 -213.5q0 -88 -25 -162.5t-76 -130t-128.5 -85.5t-183.5 -30h-206zM179 119h56q91 0 147.5 26.5t87 69.5t42 94.5t11.5 100.5q0 63 -24.5 100t-70 52.5t-110.5 15.5h-75zM1 308l12 83h314l-12 -83h-314z" />
    <glyph glyph-name="Ntilde" unicode="&#xd1;" horiz-adv-x="689" 
d="M32 0l98 697h132l251 -528h-31l74 528h129l-98 -697h-133l-249 529h31l-75 -529h-129zM481 742q-24 0 -40 6.5t-27 16t-19 19t-15.5 16t-17.5 6.5q-17 0 -29 -17t-17 -48l-70 7q8 62 40 94t79 32q21 0 36 -7t26 -16.5t19.5 -19t16 -16t16.5 -6.5q14 0 27 17.5t18 47.5
l73 -6q-8 -63 -39 -94.5t-77 -31.5z" />
    <glyph glyph-name="Ograve" unicode="&#xd2;" horiz-adv-x="748" 
d="M342 -16q-90 0 -156 37.5t-101.5 106t-35.5 162.5q0 82 26.5 157.5t76 135.5t120.5 95t160 35q90 0 156 -37.5t102 -106t36 -163.5q0 -82 -27 -157.5t-77 -135t-121 -94.5t-159 -35zM351 108q58 0 103.5 23.5t77 64.5t48 92.5t16.5 108.5q0 88 -45 140t-128 52
q-59 0 -105 -24.5t-77 -66t-47 -93t-16 -106.5q0 -59 20 -102t58.5 -66t94.5 -23zM402 759l-120 142h128l80 -142h-88z" />
    <glyph glyph-name="Oacute" unicode="&#xd3;" horiz-adv-x="748" 
d="M342 -16q-90 0 -156 37.5t-101.5 106t-35.5 162.5q0 82 26.5 157.5t76 135.5t120.5 95t160 35q90 0 156 -37.5t102 -106t36 -163.5q0 -82 -27 -157.5t-77 -135t-121 -94.5t-159 -35zM351 108q58 0 103.5 23.5t77 64.5t48 92.5t16.5 108.5q0 88 -45 140t-128 52
q-59 0 -105 -24.5t-77 -66t-47 -93t-16 -106.5q0 -59 20 -102t58.5 -66t94.5 -23zM396 759l120 142h131l-162 -142h-89z" />
    <glyph glyph-name="Ocircumflex" unicode="&#xd4;" horiz-adv-x="748" 
d="M342 -16q-90 0 -156 37.5t-101.5 106t-35.5 162.5q0 82 26.5 157.5t76 135.5t120.5 95t160 35q90 0 156 -37.5t102 -106t36 -163.5q0 -82 -27 -157.5t-77 -135t-121 -94.5t-159 -35zM351 108q58 0 103.5 23.5t77 64.5t48 92.5t16.5 108.5q0 88 -45 140t-128 52
q-59 0 -105 -24.5t-77 -66t-47 -93t-16 -106.5q0 -59 20 -102t58.5 -66t94.5 -23zM285 745l180 175l133 -175h-96l-47 69l-67 -69h-103z" />
    <glyph glyph-name="Otilde" unicode="&#xd5;" horiz-adv-x="748" 
d="M342 -16q-90 0 -156 37.5t-101.5 106t-35.5 162.5q0 82 26.5 157.5t76 135.5t120.5 95t160 35q90 0 156 -37.5t102 -106t36 -163.5q0 -82 -27 -157.5t-77 -135t-121 -94.5t-159 -35zM351 108q58 0 103.5 23.5t77 64.5t48 92.5t16.5 108.5q0 88 -45 140t-128 52
q-59 0 -105 -24.5t-77 -66t-47 -93t-16 -106.5q0 -59 20 -102t58.5 -66t94.5 -23zM510 742q-24 0 -40 6.5t-27 16t-19 19t-15.5 16t-17.5 6.5q-17 0 -29 -17t-17 -48l-70 7q8 62 40 94t79 32q21 0 36 -7t26 -16.5t19.5 -19t16 -16t16.5 -6.5q14 0 27 17.5t18 47.5l73 -6
q-8 -63 -39 -94.5t-77 -31.5z" />
    <glyph glyph-name="Odieresis" unicode="&#xd6;" horiz-adv-x="748" 
d="M342 -16q-90 0 -156 37.5t-101.5 106t-35.5 162.5q0 82 26.5 157.5t76 135.5t120.5 95t160 35q90 0 156 -37.5t102 -106t36 -163.5q0 -82 -27 -157.5t-77 -135t-121 -94.5t-159 -35zM351 108q58 0 103.5 23.5t77 64.5t48 92.5t16.5 108.5q0 88 -45 140t-128 52
q-59 0 -105 -24.5t-77 -66t-47 -93t-16 -106.5q0 -59 20 -102t58.5 -66t94.5 -23zM477 773l18 128h132l-18 -128h-132zM284 773l18 128h131l-18 -128h-131z" />
    <glyph glyph-name="multiply" unicode="&#xd7;" horiz-adv-x="560" 
d="M136 27l-76 76l143 144l-143 143l76 77l143 -144l144 144l76 -77l-142 -143l142 -144l-76 -76l-144 142z" />
    <glyph glyph-name="Oslash" unicode="&#xd8;" horiz-adv-x="748" 
d="M342 -16q-90 0 -156 37.5t-101.5 106t-35.5 162.5q0 82 26.5 157.5t76 135.5t120.5 95t160 35q90 0 156 -37.5t102 -106t36 -163.5q0 -82 -27 -157.5t-77 -135t-121 -94.5t-159 -35zM351 108q58 0 103.5 23.5t77 64.5t48 92.5t16.5 108.5q0 88 -45 140t-128 52
q-59 0 -105 -24.5t-77 -66t-47 -93t-16 -106.5q0 -59 20 -102t58.5 -66t94.5 -23zM31 0l625 697h87l-624 -697h-88z" />
    <glyph glyph-name="Ugrave" unicode="&#xd9;" horiz-adv-x="657" 
d="M298 -16q-119 0 -179.5 54t-60.5 159q0 12 1 27.5t3 30.5l62 442h129l-60 -434q-2 -16 -3.5 -30.5t-1.5 -27.5q0 -51 25.5 -76.5t87.5 -25.5q56 0 90.5 19.5t53 56.5t25.5 90l60 428h129l-62 -443q-19 -137 -94 -203.5t-205 -66.5zM358 759l-120 142h128l80 -142h-88z
" />
    <glyph glyph-name="Uacute" unicode="&#xda;" horiz-adv-x="657" 
d="M298 -16q-119 0 -179.5 54t-60.5 159q0 12 1 27.5t3 30.5l62 442h129l-60 -434q-2 -16 -3.5 -30.5t-1.5 -27.5q0 -51 25.5 -76.5t87.5 -25.5q56 0 90.5 19.5t53 56.5t25.5 90l60 428h129l-62 -443q-19 -137 -94 -203.5t-205 -66.5zM353 759l120 142h131l-162 -142h-89z
" />
    <glyph glyph-name="Ucircumflex" unicode="&#xdb;" horiz-adv-x="657" 
d="M298 -16q-119 0 -179.5 54t-60.5 159q0 12 1 27.5t3 30.5l62 442h129l-60 -434q-2 -16 -3.5 -30.5t-1.5 -27.5q0 -51 25.5 -76.5t87.5 -25.5q56 0 90.5 19.5t53 56.5t25.5 90l60 428h129l-62 -443q-19 -137 -94 -203.5t-205 -66.5zM241 745l180 175l133 -175h-96l-47 69
l-67 -69h-103z" />
    <glyph glyph-name="Udieresis" unicode="&#xdc;" horiz-adv-x="657" 
d="M298 -16q-119 0 -179.5 54t-60.5 159q0 12 1 27.5t3 30.5l62 442h129l-60 -434q-2 -16 -3.5 -30.5t-1.5 -27.5q0 -51 25.5 -76.5t87.5 -25.5q56 0 90.5 19.5t53 56.5t25.5 90l60 428h129l-62 -443q-19 -137 -94 -203.5t-205 -66.5zM434 773l18 128h132l-18 -128h-132z
M241 773l18 128h131l-18 -128h-131z" />
    <glyph glyph-name="Yacute" unicode="&#xdd;" horiz-adv-x="625" 
d="M214 0l39 273l-185 424h145l116 -296l206 296h150l-302 -424l-40 -273h-129zM337 759l120 142h131l-162 -142h-89z" />
    <glyph glyph-name="Thorn" unicode="&#xde;" horiz-adv-x="616" 
d="M75 0l98 697h119l-14 -96h122q90 0 140.5 -44t50.5 -124q0 -8 -0.5 -17.5t-2.5 -19.5q-13 -95 -83 -147.5t-184 -52.5h-100l-27 -196h-119zM236 303h93q58 0 96.5 25t46.5 79q1 5 1 9.5v8.5q0 40 -28 57.5t-81 17.5h-100z" />
    <glyph glyph-name="germandbls" unicode="&#xdf;" horiz-adv-x="651" 
d="M403 -10q-56 0 -98.5 20t-68 52t-32.5 70l102 37q5 -17 15.5 -35t30.5 -29t53 -11q36 0 58 17.5t22 41.5q0 16 -11 26t-29 17t-39 13q-31 9 -63.5 22t-54 38t-21.5 69q0 55 37 90t109 60q25 9 41.5 17t25 17t8.5 21q0 25 -28 36t-61 11q-60 0 -95 -16t-53 -41t-24.5 -51
t-9.5 -46l-61 -436h-130l63 443q7 51 24.5 98t51.5 84.5t89.5 59t137.5 21.5q99 0 159 -35.5t60 -106.5q0 -42 -15 -71t-39 -48.5t-51 -32t-50 -21.5q-21 -8 -36.5 -14.5t-23.5 -13.5t-8 -18t7.5 -17t21.5 -9.5t33 -8.5q23 -5 50 -14t52 -24.5t40.5 -41.5t15.5 -65
q0 -57 -29.5 -96t-76.5 -59t-99 -20z" />
    <glyph glyph-name="agrave" unicode="&#xe0;" horiz-adv-x="577" 
d="M222 -10q-59 0 -100 27t-62.5 74.5t-21.5 109.5q0 58 18 112t51 97t78.5 68t100.5 25q41 0 74.5 -16.5t53.5 -49.5t19 -84l-25 7l25 133h117l-69 -493h-118l12 132l31 7q-21 -59 -50.5 -91t-64 -45t-69.5 -13zM258 104q36 0 63.5 16t46.5 42t28.5 58t9.5 64
q0 33 -11 56.5t-32 36t-52 12.5q-36 0 -64 -15.5t-46.5 -41.5t-28.5 -58t-10 -64q0 -33 11.5 -57t33 -36.5t51.5 -12.5zM290 555l-120 142h128l80 -142h-88z" />
    <glyph glyph-name="aacute" unicode="&#xe1;" horiz-adv-x="577" 
d="M222 -10q-59 0 -100 27t-62.5 74.5t-21.5 109.5q0 58 18 112t51 97t78.5 68t100.5 25q41 0 74.5 -16.5t53.5 -49.5t19 -84l-25 7l25 133h117l-69 -493h-118l12 132l31 7q-21 -59 -50.5 -91t-64 -45t-69.5 -13zM258 104q36 0 63.5 16t46.5 42t28.5 58t9.5 64
q0 33 -11 56.5t-32 36t-52 12.5q-36 0 -64 -15.5t-46.5 -41.5t-28.5 -58t-10 -64q0 -33 11.5 -57t33 -36.5t51.5 -12.5zM284 555l120 142h131l-162 -142h-89z" />
    <glyph glyph-name="acircumflex" unicode="&#xe2;" horiz-adv-x="577" 
d="M222 -10q-59 0 -100 27t-62.5 74.5t-21.5 109.5q0 58 18 112t51 97t78.5 68t100.5 25q41 0 74.5 -16.5t53.5 -49.5t19 -84l-25 7l25 133h117l-69 -493h-118l12 132l31 7q-21 -59 -50.5 -91t-64 -45t-69.5 -13zM258 104q36 0 63.5 16t46.5 42t28.5 58t9.5 64
q0 33 -11 56.5t-32 36t-52 12.5q-36 0 -64 -15.5t-46.5 -41.5t-28.5 -58t-10 -64q0 -33 11.5 -57t33 -36.5t51.5 -12.5zM176 541l177 175l131 -175h-94l-48 69l-66 -69h-100z" />
    <glyph glyph-name="atilde" unicode="&#xe3;" horiz-adv-x="577" 
d="M222 -10q-59 0 -100 27t-62.5 74.5t-21.5 109.5q0 58 18 112t51 97t78.5 68t100.5 25q41 0 74.5 -16.5t53.5 -49.5t19 -84l-25 7l25 133h117l-69 -493h-118l12 132l31 7q-21 -59 -50.5 -91t-64 -45t-69.5 -13zM258 104q36 0 63.5 16t46.5 42t28.5 58t9.5 64
q0 33 -11 56.5t-32 36t-52 12.5q-36 0 -64 -15.5t-46.5 -41.5t-28.5 -58t-10 -64q0 -33 11.5 -57t33 -36.5t51.5 -12.5zM410 556q-37 0 -54 14t-29 30q-8 11 -15 17t-17 6q-18 0 -32 -20t-20 -52l-70 13q16 68 49 102t78 34q31 0 47 -14t26 -28q8 -11 16 -19t21 -8
q16 0 30 20t21 52l72 -12q-16 -68 -48 -101.5t-75 -33.5z" />
    <glyph glyph-name="adieresis" unicode="&#xe4;" horiz-adv-x="577" 
d="M222 -10q-59 0 -100 27t-62.5 74.5t-21.5 109.5q0 58 18 112t51 97t78.5 68t100.5 25q41 0 74.5 -16.5t53.5 -49.5t19 -84l-25 7l25 133h117l-69 -493h-118l12 132l31 7q-21 -59 -50.5 -91t-64 -45t-69.5 -13zM258 104q36 0 63.5 16t46.5 42t28.5 58t9.5 64
q0 33 -11 56.5t-32 36t-52 12.5q-36 0 -64 -15.5t-46.5 -41.5t-28.5 -58t-10 -64q0 -33 11.5 -57t33 -36.5t51.5 -12.5zM365 569l18 128h132l-18 -128h-132zM172 569l18 128h131l-18 -128h-131z" />
    <glyph glyph-name="aring" unicode="&#xe5;" horiz-adv-x="577" 
d="M222 -10q-59 0 -100 27t-62.5 74.5t-21.5 109.5q0 58 18 112t51 97t78.5 68t100.5 25q41 0 74.5 -16.5t53.5 -49.5t19 -84l-25 7l25 133h117l-69 -493h-118l12 132l31 7q-21 -59 -50.5 -91t-64 -45t-69.5 -13zM258 104q36 0 63.5 16t46.5 42t28.5 58t9.5 64
q0 33 -11 56.5t-32 36t-52 12.5q-36 0 -64 -15.5t-46.5 -41.5t-28.5 -58t-10 -64q0 -33 11.5 -57t33 -36.5t51.5 -12.5zM343 532q-43 0 -73 26.5t-30 70.5q0 34 18.5 61.5t48.5 44t64 16.5q41 0 72 -25.5t31 -70.5q0 -34 -18.5 -62t-48.5 -44.5t-64 -16.5zM351 592
q25 0 40 18t15 38q0 18 -11.5 30.5t-31.5 12.5q-24 0 -39.5 -17.5t-15.5 -38.5q0 -17 11 -30t32 -13z" />
    <glyph glyph-name="ae" unicode="&#xe6;" horiz-adv-x="868" 
d="M204 -10q-48 0 -88.5 16.5t-64.5 49t-24 79.5q0 54 27 89.5t78 52.5t122 17h123l2 21q2 27 -6.5 44.5t-27 26.5t-46.5 9q-33 0 -69.5 -14t-70.5 -49l-84 80q58 51 116.5 71t121.5 20q56 0 95 -18t59 -55q31 36 75 54t92 18q68 0 111 -26.5t64.5 -72.5t21.5 -105
q0 -26 -3.5 -49.5t-9.5 -47.5h-333q0 -7 0.5 -12t2.5 -10q4 -37 26 -56.5t68 -19.5q33 0 63 11.5t56 35.5l87 -75q-46 -43 -96.5 -64t-110.5 -21q-64 0 -105.5 25t-63.5 73h-11q-29 -37 -60.5 -58.5t-65.5 -30.5t-71 -9zM230 90q33 0 61.5 13.5t48 38t24.5 58.5l7 37l18 -32
h-137q-34 0 -56 -7.5t-32.5 -21t-10.5 -32.5q0 -24 20 -39t57 -15zM715 282q2 8 3.5 15.5t1.5 16.5q0 23 -10 42t-29.5 31t-49.5 12q-39 0 -67 -16.5t-44.5 -40.5t-22.5 -49l237 2z" />
    <glyph glyph-name="ccedilla" unicode="&#xe7;" horiz-adv-x="523" 
d="M255 -10q-75 0 -123.5 30t-72 80t-23.5 109q0 57 19 109.5t54.5 94t86 66t112.5 24.5q77 0 128.5 -37.5t68.5 -111.5l-112 -36q-7 35 -27 56t-60 21q-36 0 -63.5 -16.5t-46 -44.5t-28 -61t-9.5 -65q0 -30 10.5 -54.5t32 -40t54.5 -15.5q45 0 72.5 23.5t43.5 60.5l103 -50
q-36 -73 -94 -107.5t-126 -34.5zM222 -259q-15 0 -40 7t-44 24l40 60q10 -9 22 -14.5t24 -5.5q19 0 30.5 10t11.5 30q0 17 -9.5 27.5t-25.5 16t-35.5 7t-39.5 1.5l68 107l75 -1l-47 -58q26 -5 45.5 -17.5t31 -32t11.5 -47.5q0 -49 -33 -81.5t-85 -32.5z" />
    <glyph glyph-name="egrave" unicode="&#xe8;" horiz-adv-x="543" 
d="M253 -10q-77 0 -125 29.5t-70 78t-22 105.5q0 56 17.5 109t51.5 96t84 69t115 26q69 0 113.5 -27.5t66.5 -74.5t22 -106q0 -25 -3 -48t-9 -46h-337v-11t1 -10q4 -41 32 -61.5t71 -20.5q37 0 71.5 12t66.5 34l59 -84q-42 -32 -93 -51t-112 -19zM389 270q3 13 4 23t1 22
q0 22 -9 42t-28.5 32.5t-52.5 12.5q-38 0 -66 -16.5t-45 -41.5t-24 -51h261zM276 555l-120 142h128l80 -142h-88z" />
    <glyph glyph-name="eacute" unicode="&#xe9;" horiz-adv-x="543" 
d="M253 -10q-77 0 -125 29.5t-70 78t-22 105.5q0 56 17.5 109t51.5 96t84 69t115 26q69 0 113.5 -27.5t66.5 -74.5t22 -106q0 -25 -3 -48t-9 -46h-337v-11t1 -10q4 -41 32 -61.5t71 -20.5q37 0 71.5 12t66.5 34l59 -84q-42 -32 -93 -51t-112 -19zM389 270q3 13 4 23t1 22
q0 22 -9 42t-28.5 32.5t-52.5 12.5q-38 0 -66 -16.5t-45 -41.5t-24 -51h261zM270 555l120 142h131l-162 -142h-89z" />
    <glyph glyph-name="ecircumflex" unicode="&#xea;" horiz-adv-x="543" 
d="M253 -10q-77 0 -125 29.5t-70 78t-22 105.5q0 56 17.5 109t51.5 96t84 69t115 26q69 0 113.5 -27.5t66.5 -74.5t22 -106q0 -25 -3 -48t-9 -46h-337v-11t1 -10q4 -41 32 -61.5t71 -20.5q37 0 71.5 12t66.5 34l59 -84q-42 -32 -93 -51t-112 -19zM389 270q3 13 4 23t1 22
q0 22 -9 42t-28.5 32.5t-52.5 12.5q-38 0 -66 -16.5t-45 -41.5t-24 -51h261zM162 541l177 175l131 -175h-94l-48 69l-66 -69h-100z" />
    <glyph glyph-name="edieresis" unicode="&#xeb;" horiz-adv-x="543" 
d="M253 -10q-77 0 -125 29.5t-70 78t-22 105.5q0 56 17.5 109t51.5 96t84 69t115 26q69 0 113.5 -27.5t66.5 -74.5t22 -106q0 -25 -3 -48t-9 -46h-337v-11t1 -10q4 -41 32 -61.5t71 -20.5q37 0 71.5 12t66.5 34l59 -84q-42 -32 -93 -51t-112 -19zM389 270q3 13 4 23t1 22
q0 22 -9 42t-28.5 32.5t-52.5 12.5q-38 0 -66 -16.5t-45 -41.5t-24 -51h261zM351 569l18 128h132l-18 -128h-132zM158 569l18 128h131l-18 -128h-131z" />
    <glyph glyph-name="igrave" unicode="&#xec;" horiz-adv-x="245" 
d="M25 0l69 493h125l-70 -493h-124zM123 555l-120 142h128l80 -142h-88z" />
    <glyph glyph-name="iacute" unicode="&#xed;" horiz-adv-x="245" 
d="M25 0l69 493h125l-70 -493h-124zM117 555l120 142h131l-162 -142h-89z" />
    <glyph glyph-name="icircumflex" unicode="&#xee;" horiz-adv-x="245" 
d="M25 0l69 493h125l-70 -493h-124zM10 541l177 175l131 -175h-94l-48 69l-66 -69h-100z" />
    <glyph glyph-name="idieresis" unicode="&#xef;" horiz-adv-x="245" 
d="M25 0l69 493h125l-70 -493h-124zM198 569l18 128h132l-18 -128h-132zM5 569l18 128h131l-18 -128h-131z" />
    <glyph glyph-name="eth" unicode="&#xf0;" horiz-adv-x="602" 
d="M248 -10q-100 0 -154 54.5t-54 139.5q0 61 24 116.5t66 98.5t96.5 67.5t116.5 24.5q26 0 49 -6t42 -17.5t32 -28.5q8 -9 12.5 -18.5t7.5 -19.5q3 17 4.5 34t1.5 31q0 54 -21 94t-66 63.5t-119 25.5l15 83q107 -8 171.5 -43t93 -94t28.5 -140q0 -83 -21 -165t-64 -150
t-108 -109t-153 -41zM257 97q41 0 77 18t63 47t42.5 64t16.5 70q0 24 -10 45.5t-32.5 35t-58.5 13.5q-49 0 -86 -19.5t-62 -49.5t-38 -64.5t-13 -66.5q0 -47 29.5 -70t71.5 -23zM273 529l-6 50l363 91l6 -51z" />
    <glyph glyph-name="ntilde" unicode="&#xf1;" horiz-adv-x="564" 
d="M26 0l70 493h118l-10 -112l-20 4q19 45 47 70.5t61.5 36.5t66.5 11q78 0 120 -39.5t42 -109.5q0 -9 -0.5 -17.5t-2.5 -18.5l-44 -318h-125l39 279q2 12 2.5 21t0.5 18q0 40 -17 58.5t-54 18.5q-56 0 -90 -40t-46 -122l-33 -233h-125zM396 556q-37 0 -54 14t-29 30
q-8 11 -15 17t-17 6q-18 0 -32 -20t-20 -52l-70 13q16 68 49 102t78 34q31 0 47 -14t26 -28q8 -11 16 -19t21 -8q16 0 30 20t21 52l72 -12q-16 -68 -48 -101.5t-75 -33.5z" />
    <glyph glyph-name="ograve" unicode="&#xf2;" horiz-adv-x="572" 
d="M255 -10q-66 0 -115 28t-77 78.5t-28 116.5q0 58 21 110.5t59 93t89 63.5t112 23q66 0 115.5 -28t76.5 -77.5t27 -115.5q0 -59 -21 -112t-59 -93t-89 -63.5t-111 -23.5zM264 99q35 0 62.5 15.5t46.5 41t29 57t10 63.5q0 51 -26 84.5t-79 33.5q-36 0 -64 -15.5t-46.5 -41
t-28 -56.5t-9.5 -63q0 -50 26.5 -84.5t78.5 -34.5zM286 555l-120 142h128l80 -142h-88z" />
    <glyph glyph-name="oacute" unicode="&#xf3;" horiz-adv-x="572" 
d="M255 -10q-66 0 -115 28t-77 78.5t-28 116.5q0 58 21 110.5t59 93t89 63.5t112 23q66 0 115.5 -28t76.5 -77.5t27 -115.5q0 -59 -21 -112t-59 -93t-89 -63.5t-111 -23.5zM264 99q35 0 62.5 15.5t46.5 41t29 57t10 63.5q0 51 -26 84.5t-79 33.5q-36 0 -64 -15.5t-46.5 -41
t-28 -56.5t-9.5 -63q0 -50 26.5 -84.5t78.5 -34.5zM281 555l120 142h131l-162 -142h-89z" />
    <glyph glyph-name="ocircumflex" unicode="&#xf4;" horiz-adv-x="572" 
d="M255 -10q-66 0 -115 28t-77 78.5t-28 116.5q0 58 21 110.5t59 93t89 63.5t112 23q66 0 115.5 -28t76.5 -77.5t27 -115.5q0 -59 -21 -112t-59 -93t-89 -63.5t-111 -23.5zM264 99q35 0 62.5 15.5t46.5 41t29 57t10 63.5q0 51 -26 84.5t-79 33.5q-36 0 -64 -15.5t-46.5 -41
t-28 -56.5t-9.5 -63q0 -50 26.5 -84.5t78.5 -34.5zM173 541l177 175l131 -175h-94l-48 69l-66 -69h-100z" />
    <glyph glyph-name="otilde" unicode="&#xf5;" horiz-adv-x="572" 
d="M255 -10q-66 0 -115 28t-77 78.5t-28 116.5q0 58 21 110.5t59 93t89 63.5t112 23q66 0 115.5 -28t76.5 -77.5t27 -115.5q0 -59 -21 -112t-59 -93t-89 -63.5t-111 -23.5zM264 99q35 0 62.5 15.5t46.5 41t29 57t10 63.5q0 51 -26 84.5t-79 33.5q-36 0 -64 -15.5t-46.5 -41
t-28 -56.5t-9.5 -63q0 -50 26.5 -84.5t78.5 -34.5zM406 556q-37 0 -54 14t-29 30q-8 11 -15 17t-17 6q-18 0 -32 -20t-20 -52l-70 13q16 68 49 102t78 34q31 0 47 -14t26 -28q8 -11 16 -19t21 -8q16 0 30 20t21 52l72 -12q-16 -68 -48 -101.5t-75 -33.5z" />
    <glyph glyph-name="odieresis" unicode="&#xf6;" horiz-adv-x="572" 
d="M255 -10q-66 0 -115 28t-77 78.5t-28 116.5q0 58 21 110.5t59 93t89 63.5t112 23q66 0 115.5 -28t76.5 -77.5t27 -115.5q0 -59 -21 -112t-59 -93t-89 -63.5t-111 -23.5zM264 99q35 0 62.5 15.5t46.5 41t29 57t10 63.5q0 51 -26 84.5t-79 33.5q-36 0 -64 -15.5t-46.5 -41
t-28 -56.5t-9.5 -63q0 -50 26.5 -84.5t78.5 -34.5zM362 569l18 128h132l-18 -128h-132zM169 569l18 128h131l-18 -128h-131z" />
    <glyph glyph-name="divide" unicode="&#xf7;" horiz-adv-x="560" 
d="M56 198v98h448v-98h-448zM208 12v135h144v-135h-144zM208 348v134h144v-134h-144z" />
    <glyph glyph-name="oslash" unicode="&#xf8;" horiz-adv-x="572" 
d="M255 -10q-66 0 -115 28t-77 78.5t-28 116.5q0 58 21 110.5t59 93t89 63.5t112 23q66 0 115.5 -28t76.5 -77.5t27 -115.5q0 -59 -21 -112t-59 -93t-89 -63.5t-111 -23.5zM264 99q35 0 62.5 15.5t46.5 41t29 57t10 63.5q0 51 -26 84.5t-79 33.5q-36 0 -64 -15.5t-46.5 -41
t-28 -56.5t-9.5 -63q0 -50 26.5 -84.5t78.5 -34.5zM31 -43l446 578h64l-446 -578h-64z" />
    <glyph glyph-name="ugrave" unicode="&#xf9;" horiz-adv-x="564" 
d="M205 -10q-82 0 -121.5 42.5t-39.5 113.5q0 11 1 21t2 21l42 305h125l-40 -280q-1 -11 -2 -21t-1 -19q0 -36 16.5 -55.5t56.5 -19.5q46 0 73.5 25.5t43.5 71t24 105.5l27 193h125l-70 -493h-117l7 107l18 -14q-31 -57 -75.5 -80t-94.5 -23zM278 555l-120 142h128l80 -142
h-88z" />
    <glyph glyph-name="uacute" unicode="&#xfa;" horiz-adv-x="564" 
d="M205 -10q-82 0 -121.5 42.5t-39.5 113.5q0 11 1 21t2 21l42 305h125l-40 -280q-1 -11 -2 -21t-1 -19q0 -36 16.5 -55.5t56.5 -19.5q46 0 73.5 25.5t43.5 71t24 105.5l27 193h125l-70 -493h-117l7 107l18 -14q-31 -57 -75.5 -80t-94.5 -23zM272 555l120 142h131l-162 -142
h-89z" />
    <glyph glyph-name="ucircumflex" unicode="&#xfb;" horiz-adv-x="564" 
d="M205 -10q-82 0 -121.5 42.5t-39.5 113.5q0 11 1 21t2 21l42 305h125l-40 -280q-1 -11 -2 -21t-1 -19q0 -36 16.5 -55.5t56.5 -19.5q46 0 73.5 25.5t43.5 71t24 105.5l27 193h125l-70 -493h-117l7 107l18 -14q-31 -57 -75.5 -80t-94.5 -23zM165 541l177 175l131 -175h-94
l-48 69l-66 -69h-100z" />
    <glyph glyph-name="udieresis" unicode="&#xfc;" horiz-adv-x="564" 
d="M205 -10q-82 0 -121.5 42.5t-39.5 113.5q0 11 1 21t2 21l42 305h125l-40 -280q-1 -11 -2 -21t-1 -19q0 -36 16.5 -55.5t56.5 -19.5q46 0 73.5 25.5t43.5 71t24 105.5l27 193h125l-70 -493h-117l7 107l18 -14q-31 -57 -75.5 -80t-94.5 -23zM353 569l18 128h132l-18 -128
h-132zM160 569l18 128h131l-18 -128h-131z" />
    <glyph glyph-name="yacute" unicode="&#xfd;" horiz-adv-x="535" 
d="M37 -204l135 242l-121 455h134l68 -331l166 331h136l-381 -697h-137zM263 555l120 142h131l-162 -142h-89z" />
    <glyph glyph-name="thorn" unicode="&#xfe;" horiz-adv-x="611" 
d="M26 -204l126 901h125l-46 -336l-23 32q18 39 47.5 63.5t64.5 35.5t68 11q58 0 97 -27t58.5 -74t19.5 -107q0 -58 -16 -112t-46 -97.5t-73.5 -69.5t-98.5 -26q-38 0 -72 14.5t-57 40t-29 57.5l25 31l-46 -337h-124zM297 98q40 0 67.5 18.5t44.5 48t24.5 62t7.5 59.5
q0 51 -21.5 79.5t-68.5 28.5q-37 0 -65.5 -16t-48 -43.5t-29 -61t-9.5 -68.5q0 -30 10 -54.5t32 -38.5t56 -14z" />
    <glyph glyph-name="ydieresis" unicode="&#xff;" horiz-adv-x="535" 
d="M37 -204l135 242l-121 455h134l68 -331l166 331h136l-381 -697h-137zM344 569l18 128h132l-18 -128h-132zM151 569l18 128h131l-18 -128h-131z" />
    <glyph glyph-name="Amacron" unicode="&#x100;" horiz-adv-x="674" 
d="M-28 0l378 697h98l181 -697h-138l-115 506l-260 -506h-144zM175 136l57 116h209l27 -116h-293zM279 767l18 73h271l-17 -73h-272z" />
    <glyph glyph-name="amacron" unicode="&#x101;" horiz-adv-x="577" 
d="M222 -10q-59 0 -100 27t-62.5 74.5t-21.5 109.5q0 58 18 112t51 97t78.5 68t100.5 25q41 0 74.5 -16.5t53.5 -49.5t19 -84l-25 7l25 133h117l-69 -493h-118l12 132l31 7q-21 -59 -50.5 -91t-64 -45t-69.5 -13zM258 104q36 0 63.5 16t46.5 42t28.5 58t9.5 64
q0 33 -11 56.5t-32 36t-52 12.5q-36 0 -64 -15.5t-46.5 -41.5t-28.5 -58t-10 -64q0 -33 11.5 -57t33 -36.5t51.5 -12.5zM202 563l18 73h271l-17 -73h-272z" />
    <glyph glyph-name="Abreve" unicode="&#x102;" horiz-adv-x="674" 
d="M-28 0l378 697h98l181 -697h-138l-115 506l-260 -506h-144zM175 136l57 116h209l27 -116h-293zM405 738q-45 0 -77.5 14.5t-49 43t-13.5 69.5h78q-2 -30 17.5 -45t52.5 -15q36 0 58.5 15t25.5 45h79q-11 -69 -54.5 -98t-116.5 -29z" />
    <glyph glyph-name="abreve" unicode="&#x103;" horiz-adv-x="577" 
d="M222 -10q-59 0 -100 27t-62.5 74.5t-21.5 109.5q0 58 18 112t51 97t78.5 68t100.5 25q41 0 74.5 -16.5t53.5 -49.5t19 -84l-25 7l25 133h117l-69 -493h-118l12 132l31 7q-21 -59 -50.5 -91t-64 -45t-69.5 -13zM258 104q36 0 63.5 16t46.5 42t28.5 58t9.5 64
q0 33 -11 56.5t-32 36t-52 12.5q-36 0 -64 -15.5t-46.5 -41.5t-28.5 -58t-10 -64q0 -33 11.5 -57t33 -36.5t51.5 -12.5zM331 548q-61 0 -102.5 29t-45.5 90q-1 2 -0.5 10t1.5 20h74q-1 -6 -1 -12t1 -11q3 -27 21.5 -41.5t53.5 -14.5q39 0 59.5 20t24.5 59h76
q-7 -73 -50.5 -111t-111.5 -38z" />
    <glyph glyph-name="Aogonek" unicode="&#x104;" horiz-adv-x="674" 
d="M-28 0l378 697h98l181 -697h-138l-115 506l-260 -506h-144zM175 136l57 116h209l27 -116h-293zM550 -223q-50 0 -83 28t-33 74q0 33 14 56.5t33 40t35 25.5l97 -1q-10 -4 -27 -14t-35 -24.5t-30 -32t-12 -37.5q0 -19 12 -28.5t28 -9.5q14 0 28.5 5.5t28.5 16.5l33 -67
q-17 -13 -39 -22.5t-50 -9.5z" />
    <glyph glyph-name="aogonek" unicode="&#x105;" horiz-adv-x="577" 
d="M222 -10q-59 0 -100 27t-62.5 74.5t-21.5 109.5q0 58 18 112t51 97t78.5 68t100.5 25q41 0 74.5 -16.5t53.5 -49.5t19 -84l-25 7l25 133h117l-69 -493h-118l12 132l31 7q-21 -59 -50.5 -91t-64 -45t-69.5 -13zM258 104q36 0 63.5 16t46.5 42t28.5 58t9.5 64
q0 33 -11 56.5t-32 36t-52 12.5q-36 0 -64 -15.5t-46.5 -41.5t-28.5 -58t-10 -64q0 -33 11.5 -57t33 -36.5t51.5 -12.5zM417 -223q-50 0 -83 28t-33 74q0 33 14 56.5t33 40t35 25.5l97 -1q-10 -4 -27 -14t-35 -24.5t-30 -32t-12 -37.5q0 -19 12 -28.5t28 -9.5q14 0 28.5 5.5
t28.5 16.5l33 -67q-17 -13 -39 -22.5t-50 -9.5z" />
    <glyph glyph-name="Cacute" unicode="&#x106;" horiz-adv-x="710" 
d="M342 -16q-72 0 -127 23.5t-92 65.5t-55.5 98t-18.5 120q0 78 25.5 152.5t75 135.5t120 97.5t161.5 36.5q114 0 187.5 -57.5t95.5 -154.5l-124 -37q-14 60 -59 92.5t-110 32.5q-60 0 -105.5 -25t-76.5 -66.5t-47 -93t-16 -105.5q0 -88 45.5 -139.5t130.5 -51.5
q70 0 121.5 35.5t82.5 96.5l116 -51q-47 -96 -134 -150.5t-196 -54.5zM382 759l120 142h131l-162 -142h-89z" />
    <glyph glyph-name="cacute" unicode="&#x107;" horiz-adv-x="523" 
d="M255 -10q-75 0 -123.5 30t-72 80t-23.5 109q0 57 19 109.5t54.5 94t86 66t112.5 24.5q77 0 128.5 -37.5t68.5 -111.5l-112 -36q-7 35 -27 56t-60 21q-36 0 -63.5 -16.5t-46 -44.5t-28 -61t-9.5 -65q0 -30 10.5 -54.5t32 -40t54.5 -15.5q45 0 72.5 23.5t43.5 60.5l103 -50
q-36 -73 -94 -107.5t-126 -34.5zM259 555l120 142h131l-162 -142h-89z" />
    <glyph glyph-name="Ccircumflex" unicode="&#x108;" horiz-adv-x="710" 
d="M342 -16q-72 0 -127 23.5t-92 65.5t-55.5 98t-18.5 120q0 78 25.5 152.5t75 135.5t120 97.5t161.5 36.5q114 0 187.5 -57.5t95.5 -154.5l-124 -37q-14 60 -59 92.5t-110 32.5q-60 0 -105.5 -25t-76.5 -66.5t-47 -93t-16 -105.5q0 -88 45.5 -139.5t130.5 -51.5
q70 0 121.5 35.5t82.5 96.5l116 -51q-47 -96 -134 -150.5t-196 -54.5zM270 745l180 175l133 -175h-96l-47 69l-67 -69h-103z" />
    <glyph glyph-name="ccircumflex" unicode="&#x109;" horiz-adv-x="523" 
d="M255 -10q-75 0 -123.5 30t-72 80t-23.5 109q0 57 19 109.5t54.5 94t86 66t112.5 24.5q77 0 128.5 -37.5t68.5 -111.5l-112 -36q-7 35 -27 56t-60 21q-36 0 -63.5 -16.5t-46 -44.5t-28 -61t-9.5 -65q0 -30 10.5 -54.5t32 -40t54.5 -15.5q45 0 72.5 23.5t43.5 60.5l103 -50
q-36 -73 -94 -107.5t-126 -34.5zM151 541l177 175l131 -175h-94l-48 69l-66 -69h-100z" />
    <glyph glyph-name="Cdotaccent" unicode="&#x10a;" horiz-adv-x="710" 
d="M342 -16q-72 0 -127 23.5t-92 65.5t-55.5 98t-18.5 120q0 78 25.5 152.5t75 135.5t120 97.5t161.5 36.5q114 0 187.5 -57.5t95.5 -154.5l-124 -37q-14 60 -59 92.5t-110 32.5q-60 0 -105.5 -25t-76.5 -66.5t-47 -93t-16 -105.5q0 -88 45.5 -139.5t130.5 -51.5
q70 0 121.5 35.5t82.5 96.5l116 -51q-47 -96 -134 -150.5t-196 -54.5zM366 773l18 128h132l-18 -128h-132z" />
    <glyph glyph-name="cdotaccent" unicode="&#x10b;" horiz-adv-x="523" 
d="M255 -10q-75 0 -123.5 30t-72 80t-23.5 109q0 57 19 109.5t54.5 94t86 66t112.5 24.5q77 0 128.5 -37.5t68.5 -111.5l-112 -36q-7 35 -27 56t-60 21q-36 0 -63.5 -16.5t-46 -44.5t-28 -61t-9.5 -65q0 -30 10.5 -54.5t32 -40t54.5 -15.5q45 0 72.5 23.5t43.5 60.5l103 -50
q-36 -73 -94 -107.5t-126 -34.5zM243 569l18 128h132l-18 -128h-132z" />
    <glyph glyph-name="Ccaron" unicode="&#x10c;" horiz-adv-x="710" 
d="M342 -16q-72 0 -127 23.5t-92 65.5t-55.5 98t-18.5 120q0 78 25.5 152.5t75 135.5t120 97.5t161.5 36.5q114 0 187.5 -57.5t95.5 -154.5l-124 -37q-14 60 -59 92.5t-110 32.5q-60 0 -105.5 -25t-76.5 -66.5t-47 -93t-16 -105.5q0 -88 45.5 -139.5t130.5 -51.5
q70 0 121.5 35.5t82.5 96.5l116 -51q-47 -96 -134 -150.5t-196 -54.5zM426 736l-118 165h84l50 -70l75 70h99z" />
    <glyph glyph-name="ccaron" unicode="&#x10d;" horiz-adv-x="523" 
d="M255 -10q-75 0 -123.5 30t-72 80t-23.5 109q0 57 19 109.5t54.5 94t86 66t112.5 24.5q77 0 128.5 -37.5t68.5 -111.5l-112 -36q-7 35 -27 56t-60 21q-36 0 -63.5 -16.5t-46 -44.5t-28 -61t-9.5 -65q0 -30 10.5 -54.5t32 -40t54.5 -15.5q45 0 72.5 23.5t43.5 60.5l103 -50
q-36 -73 -94 -107.5t-126 -34.5zM304 532l-118 165h84l50 -70l75 70h99z" />
    <glyph glyph-name="Dcaron" unicode="&#x10e;" horiz-adv-x="674" 
d="M32 0l98 697h200q154 0 237.5 -75.5t83.5 -213.5q0 -88 -25 -162.5t-76 -130t-128.5 -85.5t-183.5 -30h-206zM179 119h56q91 0 147.5 26.5t87 69.5t42 94.5t11.5 100.5q0 63 -24.5 100t-70 52.5t-110.5 15.5h-75zM394 736l-118 165h84l50 -70l75 70h99z" />
    <glyph glyph-name="dcaron" unicode="&#x10f;" horiz-adv-x="757" 
d="M222 -10q-59 0 -100 27t-62.5 74.5t-21.5 109.5q0 58 18 112t51 97t78.5 68t100.5 25q41 0 74.5 -16.5t53.5 -49.5t19 -84l-25 7l47 337h124l-98 -697h-118l12 132l31 7q-21 -59 -50.5 -91t-64 -45t-69.5 -13zM263 104q33 0 59 13.5t45 37t29 54.5t10 67q0 35 -12 60
t-34 39t-54 14q-33 0 -59 -13.5t-45 -36.5t-29 -54.5t-10 -67.5q0 -35 12 -60.5t34.5 -39t53.5 -13.5zM584 471l76 226h134l-134 -226h-76z" />
    <glyph glyph-name="Dcroat" unicode="&#x110;" horiz-adv-x="674" 
d="M32 0l98 697h200q154 0 237.5 -75.5t83.5 -213.5q0 -88 -25 -162.5t-76 -130t-128.5 -85.5t-183.5 -30h-206zM179 119h56q91 0 147.5 26.5t87 69.5t42 94.5t11.5 100.5q0 63 -24.5 100t-70 52.5t-110.5 15.5h-75zM1 308l12 83h314l-12 -83h-314z" />
    <glyph glyph-name="dcroat" unicode="&#x111;" horiz-adv-x="577" 
d="M222 -10q-59 0 -100 27t-62.5 74.5t-21.5 109.5q0 58 18 112t51 97t78.5 68t100.5 25q41 0 74.5 -16.5t53.5 -49.5t19 -84l-25 7l47 337h124l-98 -697h-118l12 132l31 7q-21 -59 -50.5 -91t-64 -45t-69.5 -13zM263 104q33 0 59 13.5t45 37t29 54.5t10 67q0 35 -12 60
t-34 39t-54 14q-33 0 -59 -13.5t-45 -36.5t-29 -54.5t-10 -67.5q0 -35 12 -60.5t34.5 -39t53.5 -13.5zM309 555l12 83h314l-12 -83h-314z" />
    <glyph glyph-name="Emacron" unicode="&#x112;" horiz-adv-x="578" 
d="M32 0l98 697h464l-15 -116h-335l-24 -166h312l-16 -115h-312l-26 -184h335l-17 -116h-464zM241 767l18 73h271l-17 -73h-272z" />
    <glyph glyph-name="emacron" unicode="&#x113;" horiz-adv-x="543" 
d="M253 -10q-77 0 -125 29.5t-70 78t-22 105.5q0 56 17.5 109t51.5 96t84 69t115 26q69 0 113.5 -27.5t66.5 -74.5t22 -106q0 -25 -3 -48t-9 -46h-337v-11t1 -10q4 -41 32 -61.5t71 -20.5q37 0 71.5 12t66.5 34l59 -84q-42 -32 -93 -51t-112 -19zM389 270q3 13 4 23t1 22
q0 22 -9 42t-28.5 32.5t-52.5 12.5q-38 0 -66 -16.5t-45 -41.5t-24 -51h261zM188 563l18 73h271l-17 -73h-272z" />
    <glyph glyph-name="Ebreve" unicode="&#x114;" horiz-adv-x="578" 
d="M32 0l98 697h464l-15 -116h-335l-24 -166h312l-16 -115h-312l-26 -184h335l-17 -116h-464zM367 738q-45 0 -77.5 14.5t-49 43t-13.5 69.5h78q-2 -30 17.5 -45t52.5 -15q36 0 58.5 15t25.5 45h79q-11 -69 -54.5 -98t-116.5 -29z" />
    <glyph glyph-name="ebreve" unicode="&#x115;" horiz-adv-x="543" 
d="M253 -10q-77 0 -125 29.5t-70 78t-22 105.5q0 56 17.5 109t51.5 96t84 69t115 26q69 0 113.5 -27.5t66.5 -74.5t22 -106q0 -25 -3 -48t-9 -46h-337v-11t1 -10q4 -41 32 -61.5t71 -20.5q37 0 71.5 12t66.5 34l59 -84q-42 -32 -93 -51t-112 -19zM389 270q3 13 4 23t1 22
q0 22 -9 42t-28.5 32.5t-52.5 12.5q-38 0 -66 -16.5t-45 -41.5t-24 -51h261zM317 548q-61 0 -102.5 29t-45.5 90q-1 2 -0.5 10t1.5 20h74q-1 -6 -1 -12t1 -11q3 -27 21.5 -41.5t53.5 -14.5q39 0 59.5 20t24.5 59h76q-7 -73 -50.5 -111t-111.5 -38z" />
    <glyph glyph-name="Edotaccent" unicode="&#x116;" horiz-adv-x="578" 
d="M32 0l98 697h464l-15 -116h-335l-24 -166h312l-16 -115h-312l-26 -184h335l-17 -116h-464zM307 773l18 128h132l-18 -128h-132z" />
    <glyph glyph-name="edotaccent" unicode="&#x117;" horiz-adv-x="543" 
d="M253 -10q-77 0 -125 29.5t-70 78t-22 105.5q0 56 17.5 109t51.5 96t84 69t115 26q69 0 113.5 -27.5t66.5 -74.5t22 -106q0 -25 -3 -48t-9 -46h-337v-11t1 -10q4 -41 32 -61.5t71 -20.5q37 0 71.5 12t66.5 34l59 -84q-42 -32 -93 -51t-112 -19zM389 270q3 13 4 23t1 22
q0 22 -9 42t-28.5 32.5t-52.5 12.5q-38 0 -66 -16.5t-45 -41.5t-24 -51h261zM254 569l18 128h132l-18 -128h-132z" />
    <glyph glyph-name="Eogonek" unicode="&#x118;" horiz-adv-x="578" 
d="M32 0l98 697h464l-15 -116h-335l-24 -166h312l-16 -115h-312l-26 -184h335l-17 -116h-464zM433 -223q-50 0 -83 28t-33 74q0 33 14 56.5t33 40t35 25.5l97 -1q-10 -4 -27 -14t-35 -24.5t-30 -32t-12 -37.5q0 -19 12 -28.5t28 -9.5q14 0 28.5 5.5t28.5 16.5l33 -67
q-17 -13 -39 -22.5t-50 -9.5z" />
    <glyph glyph-name="eogonek" unicode="&#x119;" horiz-adv-x="543" 
d="M253 -10q-77 0 -125 29.5t-70 78t-22 105.5q0 56 17.5 109t51.5 96t84 69t115 26q69 0 113.5 -27.5t66.5 -74.5t22 -106q0 -25 -3 -48t-9 -46h-337v-11t1 -10q4 -41 32 -61.5t71 -20.5q37 0 71.5 12t66.5 34l59 -84q-42 -32 -93 -51t-112 -19zM389 270q3 13 4 23t1 22
q0 22 -9 42t-28.5 32.5t-52.5 12.5q-38 0 -66 -16.5t-45 -41.5t-24 -51h261zM259 -223q-50 0 -83 28t-33 74q0 33 14 56.5t33 40t35 25.5l97 -1q-10 -4 -27 -14t-35 -24.5t-30 -32t-12 -37.5q0 -19 12 -28.5t28 -9.5q14 0 28.5 5.5t28.5 16.5l33 -67q-17 -13 -39 -22.5
t-50 -9.5z" />
    <glyph glyph-name="Ecaron" unicode="&#x11a;" horiz-adv-x="578" 
d="M32 0l98 697h464l-15 -116h-335l-24 -166h312l-16 -115h-312l-26 -184h335l-17 -116h-464zM368 736l-118 165h84l50 -70l75 70h99z" />
    <glyph glyph-name="ecaron" unicode="&#x11b;" horiz-adv-x="543" 
d="M253 -10q-77 0 -125 29.5t-70 78t-22 105.5q0 56 17.5 109t51.5 96t84 69t115 26q69 0 113.5 -27.5t66.5 -74.5t22 -106q0 -25 -3 -48t-9 -46h-337v-11t1 -10q4 -41 32 -61.5t71 -20.5q37 0 71.5 12t66.5 34l59 -84q-42 -32 -93 -51t-112 -19zM389 270q3 13 4 23t1 22
q0 22 -9 42t-28.5 32.5t-52.5 12.5q-38 0 -66 -16.5t-45 -41.5t-24 -51h261zM315 532l-118 165h84l50 -70l75 70h99z" />
    <glyph glyph-name="Gcircumflex" unicode="&#x11c;" horiz-adv-x="735" 
d="M333 -16q-85 0 -149.5 37.5t-99.5 105.5t-35 160q0 84 26.5 160t76.5 136t120.5 95t157.5 35q114 0 188 -57.5t96 -154.5l-125 -37q-14 60 -55.5 92.5t-106.5 32.5q-60 0 -106.5 -25t-78.5 -67t-48.5 -95.5t-16.5 -111.5q0 -85 44.5 -133.5t124.5 -48.5q35 0 71.5 10
t69 33.5t55.5 64t31 100.5l6 37l15 -90h-198l16 116h285l-52 -379h-113l-4 113l21 -21q-24 -36 -57.5 -60.5t-73.5 -36t-85 -11.5zM288 745l177 175l131 -175h-94l-48 69l-66 -69h-100z" />
    <glyph glyph-name="gcircumflex" unicode="&#x11d;" horiz-adv-x="578" 
d="M218 -214q-58 0 -99.5 16t-68.5 42t-44 56l103 70q14 -30 39.5 -54t70.5 -24q29 0 59 10t52.5 37.5t29.5 77.5l13 105l16 -15q-32 -55 -74 -77t-93 -22q-57 0 -98 27t-62.5 74t-21.5 106q0 55 17.5 106t50.5 92t77.5 65.5t98.5 24.5q61 0 97 -28t45 -75l-13 -13l20 106
h118l-68 -482q-11 -78 -46.5 -127.5t-91.5 -73.5t-127 -24zM269 120q30 0 55.5 12.5t43.5 34t28 50.5t10 63q0 33 -11.5 57t-34 38t-54.5 14q-31 0 -57 -12.5t-45 -34.5t-29 -51t-10 -62q0 -32 12.5 -56.5t36 -38.5t55.5 -14zM179 541l177 175l131 -175h-94l-48 69l-66 -69
h-100z" />
    <glyph glyph-name="Gbreve" unicode="&#x11e;" horiz-adv-x="735" 
d="M333 -16q-85 0 -149.5 37.5t-99.5 105.5t-35 160q0 84 26.5 160t76.5 136t120.5 95t157.5 35q114 0 188 -57.5t96 -154.5l-125 -37q-14 60 -55.5 92.5t-106.5 32.5q-60 0 -106.5 -25t-78.5 -67t-48.5 -95.5t-16.5 -111.5q0 -85 44.5 -133.5t124.5 -48.5q35 0 71.5 10
t69 33.5t55.5 64t31 100.5l6 37l15 -90h-198l16 116h285l-52 -379h-113l-4 113l21 -21q-24 -36 -57.5 -60.5t-73.5 -36t-85 -11.5zM440 738q-45 0 -77.5 14.5t-49 43t-13.5 69.5h78q-2 -30 17.5 -45t52.5 -15q36 0 58.5 15t25.5 45h79q-11 -69 -54.5 -98t-116.5 -29z" />
    <glyph glyph-name="gbreve" unicode="&#x11f;" horiz-adv-x="578" 
d="M218 -214q-58 0 -99.5 16t-68.5 42t-44 56l103 70q14 -30 39.5 -54t70.5 -24q29 0 59 10t52.5 37.5t29.5 77.5l13 105l16 -15q-32 -55 -74 -77t-93 -22q-57 0 -98 27t-62.5 74t-21.5 106q0 55 17.5 106t50.5 92t77.5 65.5t98.5 24.5q61 0 97 -28t45 -75l-13 -13l20 106
h118l-68 -482q-11 -78 -46.5 -127.5t-91.5 -73.5t-127 -24zM269 120q30 0 55.5 12.5t43.5 34t28 50.5t10 63q0 33 -11.5 57t-34 38t-54.5 14q-31 0 -57 -12.5t-45 -34.5t-29 -51t-10 -62q0 -32 12.5 -56.5t36 -38.5t55.5 -14zM334 548q-61 0 -102.5 29t-45.5 90
q-1 2 -0.5 10t1.5 20h74q-1 -6 -1 -12t1 -11q3 -27 21.5 -41.5t53.5 -14.5q39 0 59.5 20t24.5 59h76q-7 -73 -50.5 -111t-111.5 -38z" />
    <glyph glyph-name="Gdotaccent" unicode="&#x120;" horiz-adv-x="735" 
d="M333 -16q-85 0 -149.5 37.5t-99.5 105.5t-35 160q0 84 26.5 160t76.5 136t120.5 95t157.5 35q114 0 188 -57.5t96 -154.5l-125 -37q-14 60 -55.5 92.5t-106.5 32.5q-60 0 -106.5 -25t-78.5 -67t-48.5 -95.5t-16.5 -111.5q0 -85 44.5 -133.5t124.5 -48.5q35 0 71.5 10
t69 33.5t55.5 64t31 100.5l6 37l15 -90h-198l16 116h285l-52 -379h-113l-4 113l21 -21q-24 -36 -57.5 -60.5t-73.5 -36t-85 -11.5zM380 773l18 128h132l-18 -128h-132z" />
    <glyph glyph-name="gdotaccent" unicode="&#x121;" horiz-adv-x="578" 
d="M218 -214q-58 0 -99.5 16t-68.5 42t-44 56l103 70q14 -30 39.5 -54t70.5 -24q29 0 59 10t52.5 37.5t29.5 77.5l13 105l16 -15q-32 -55 -74 -77t-93 -22q-57 0 -98 27t-62.5 74t-21.5 106q0 55 17.5 106t50.5 92t77.5 65.5t98.5 24.5q61 0 97 -28t45 -75l-13 -13l20 106
h118l-68 -482q-11 -78 -46.5 -127.5t-91.5 -73.5t-127 -24zM269 120q30 0 55.5 12.5t43.5 34t28 50.5t10 63q0 33 -11.5 57t-34 38t-54.5 14q-31 0 -57 -12.5t-45 -34.5t-29 -51t-10 -62q0 -32 12.5 -56.5t36 -38.5t55.5 -14zM271 569l18 128h132l-18 -128h-132z" />
    <glyph glyph-name="uni0122" unicode="&#x122;" horiz-adv-x="735" 
d="M333 -16q-85 0 -149.5 37.5t-99.5 105.5t-35 160q0 84 26.5 160t76.5 136t120.5 95t157.5 35q114 0 188 -57.5t96 -154.5l-125 -37q-14 60 -55.5 92.5t-106.5 32.5q-60 0 -106.5 -25t-78.5 -67t-48.5 -95.5t-16.5 -111.5q0 -85 44.5 -133.5t124.5 -48.5q35 0 71.5 10
t69 33.5t55.5 64t31 100.5l6 37l15 -90h-198l16 116h285l-52 -379h-113l-4 113l21 -21q-24 -36 -57.5 -60.5t-73.5 -36t-85 -11.5zM206 -227l66 174h130l-122 -174h-74z" />
    <glyph glyph-name="uni0123" unicode="&#x123;" horiz-adv-x="578" 
d="M218 -214q-58 0 -99.5 16t-68.5 42t-44 56l103 70q14 -30 39.5 -54t70.5 -24q29 0 59 10t52.5 37.5t29.5 77.5l13 105l16 -15q-32 -55 -74 -77t-93 -22q-57 0 -98 27t-62.5 74t-21.5 106q0 55 17.5 106t50.5 92t77.5 65.5t98.5 24.5q61 0 97 -28t45 -75l-13 -13l20 106
h118l-68 -482q-11 -78 -46.5 -127.5t-91.5 -73.5t-127 -24zM269 120q30 0 55.5 12.5t43.5 34t28 50.5t10 63q0 33 -11.5 57t-34 38t-54.5 14q-31 0 -57 -12.5t-45 -34.5t-29 -51t-10 -62q0 -32 12.5 -56.5t36 -38.5t55.5 -14zM237 552l149 156h76l-93 -156h-132z" />
    <glyph glyph-name="Hcircumflex" unicode="&#x124;" horiz-adv-x="693" 
d="M32 0l98 697h129l-39 -279h301l39 279h129l-98 -697h-129l42 299h-300l-43 -299h-129zM262 745l177 175l131 -175h-94l-48 69l-66 -69h-100z" />
    <glyph glyph-name="hcircumflex" unicode="&#x125;" horiz-adv-x="564" 
d="M26 0l98 697h125l-45 -316l-20 4q19 45 47 70.5t61.5 36.5t66.5 11q78 0 120 -39.5t42 -109.5q0 -9 -0.5 -17.5t-2.5 -18.5l-44 -318h-125l39 279q2 12 2.5 21t0.5 18q0 40 -17 58.5t-54 18.5q-56 0 -90 -40t-46 -122l-33 -233h-125zM36 745l180 175l133 -175h-96l-47 69
l-67 -69h-103z" />
    <glyph glyph-name="Hbar" unicode="&#x126;" horiz-adv-x="693" 
d="M32 0l98 697h129l-39 -279h301l39 279h129l-98 -697h-129l42 299h-300l-43 -299h-129zM54 515l15 73h659l-15 -73h-659z" />
    <glyph glyph-name="hbar" unicode="&#x127;" horiz-adv-x="564" 
d="M26 0l98 697h125l-45 -316l-20 4q19 45 47 70.5t61.5 36.5t66.5 11q78 0 120 -39.5t42 -109.5q0 -9 -0.5 -17.5t-2.5 -18.5l-44 -318h-125l39 279q2 12 2.5 21t0.5 18q0 40 -17 58.5t-54 18.5q-56 0 -90 -40t-46 -122l-33 -233h-125zM59 551l12 83h314l-12 -83h-314z" />
    <glyph glyph-name="Itilde" unicode="&#x128;" horiz-adv-x="263" 
d="M32 0l98 697h129l-98 -697h-129zM270 742q-24 0 -40 6.5t-27 16t-19 19t-15.5 16t-17.5 6.5q-17 0 -29 -17t-17 -48l-70 7q8 62 40 94t79 32q21 0 36 -7t26 -16.5t19.5 -19t16 -16t16.5 -6.5q14 0 27 17.5t18 47.5l73 -6q-8 -63 -39 -94.5t-77 -31.5z" />
    <glyph glyph-name="itilde" unicode="&#x129;" horiz-adv-x="245" 
d="M25 0l69 493h125l-70 -493h-124zM243 556q-37 0 -54 14t-29 30q-8 11 -15 17t-17 6q-18 0 -32 -20t-20 -52l-70 13q16 68 49 102t78 34q31 0 47 -14t26 -28q8 -11 16 -19t21 -8q16 0 30 20t21 52l72 -12q-16 -68 -48 -101.5t-75 -33.5z" />
    <glyph glyph-name="Imacron" unicode="&#x12a;" horiz-adv-x="263" 
d="M32 0l98 697h129l-98 -697h-129zM74 767l18 73h271l-17 -73h-272z" />
    <glyph glyph-name="imacron" unicode="&#x12b;" horiz-adv-x="245" 
d="M25 0l69 493h125l-70 -493h-124zM35 563l18 73h271l-17 -73h-272z" />
    <glyph glyph-name="Ibreve" unicode="&#x12c;" horiz-adv-x="263" 
d="M32 0l98 697h129l-98 -697h-129zM200 738q-45 0 -77.5 14.5t-49 43t-13.5 69.5h78q-2 -30 17.5 -45t52.5 -15q36 0 58.5 15t25.5 45h79q-11 -69 -54.5 -98t-116.5 -29z" />
    <glyph glyph-name="ibreve" unicode="&#x12d;" horiz-adv-x="245" 
d="M25 0l69 493h125l-70 -493h-124zM164 548q-61 0 -102.5 29t-45.5 90q-1 2 -0.5 10t1.5 20h74q-1 -6 -1 -12t1 -11q3 -27 21.5 -41.5t53.5 -14.5q39 0 59.5 20t24.5 59h76q-7 -73 -50.5 -111t-111.5 -38z" />
    <glyph glyph-name="Iogonek" unicode="&#x12e;" horiz-adv-x="263" 
d="M32 0l98 697h129l-98 -697h-129zM98 -223q-50 0 -83 28t-33 74q0 33 14 56.5t33 40t35 25.5l97 -1q-10 -4 -27 -14t-35 -24.5t-30 -32t-12 -37.5q0 -19 12 -28.5t28 -9.5q14 0 28.5 5.5t28.5 16.5l33 -67q-17 -13 -39 -22.5t-50 -9.5z" />
    <glyph glyph-name="iogonek" unicode="&#x12f;" horiz-adv-x="245" 
d="M25 0l69 493h125l-70 -493h-124zM102 569l18 128h132l-18 -128h-132zM86 -223q-50 0 -83 28t-33 74q0 33 14 56.5t33 40t35 25.5l97 -1q-10 -4 -27 -14t-35 -24.5t-30 -32t-12 -37.5q0 -19 12 -28.5t28 -9.5q14 0 28.5 5.5t28.5 16.5l33 -67q-17 -13 -39 -22.5t-50 -9.5z
" />
    <glyph glyph-name="Idotaccent" unicode="&#x130;" horiz-adv-x="263" 
d="M32 0l98 697h129l-98 -697h-129zM140 773l18 128h132l-18 -128h-132z" />
    <glyph glyph-name="dotlessi" unicode="&#x131;" horiz-adv-x="245" 
d="M25 0l69 493h125l-70 -493h-124z" />
    <glyph glyph-name="IJ" unicode="&#x132;" horiz-adv-x="819" 
d="M32 0l98 697h129l-98 -697h-129zM491 -16q-97 0 -154 56t-57 153l128 6q1 -49 24.5 -72t69.5 -23q60 0 88.5 40t37.5 108l47 329h-261l15 116h391l-64 -459q-11 -79 -47 -136t-91.5 -87.5t-126.5 -30.5z" />
    <glyph glyph-name="ij" unicode="&#x133;" horiz-adv-x="490" 
d="M25 0l69 493h125l-70 -493h-124zM102 569l18 128h132l-18 -128h-132zM250 -214q-22 0 -45 4.5t-44 11.5l8 106q13 -3 23 -4.5t16 -1.5q22 0 37 11t19 39l75 541h125l-82 -581q-9 -66 -44.5 -96t-87.5 -30zM347 569l18 128h132l-18 -128h-132z" />
    <glyph glyph-name="Jcircumflex" unicode="&#x134;" horiz-adv-x="556" 
d="M228 -16q-97 0 -154 56t-57 153l128 6q1 -49 24.5 -72t69.5 -23q60 0 88.5 40t37.5 108l47 329h-261l15 116h391l-64 -459q-11 -79 -47 -136t-91.5 -87.5t-126.5 -30.5zM215 745l177 175l131 -175h-94l-48 69l-66 -69h-100z" />
    <glyph glyph-name="jcircumflex" unicode="&#x135;" horiz-adv-x="245" 
d="M5 -214q-22 0 -45 4.5t-44 11.5l8 106q13 -3 23 -4.5t16 -1.5q22 0 37 11t19 39l75 541h125l-82 -581q-9 -66 -44.5 -96t-87.5 -30zM10 541l177 175l131 -175h-94l-48 69l-66 -69h-100z" />
    <glyph glyph-name="uni0136" unicode="&#x136;" horiz-adv-x="663" 
d="M166 210l21 164l351 323h177zM32 0l98 697h129l-98 -697h-129zM466 0l-172 351l106 90l216 -441h-150zM165 -227l66 174h130l-122 -174h-74z" />
    <glyph glyph-name="uni0137" unicode="&#x137;" horiz-adv-x="559" 
d="M368 0l-116 226l-91 -87l19 154l209 200h168l-214 -187l163 -306h-138zM26 0l98 697h124l-98 -697h-124zM119 -227l66 174h130l-122 -174h-74z" />
    <glyph glyph-name="kgreenlandic" unicode="&#x138;" horiz-adv-x="561" 
d="M162 139l20 154l208 200h169l-215 -187l164 -306h-139l-116 226zM27 0l69 493h125l-69 -493h-125z" />
    <glyph glyph-name="Lacute" unicode="&#x139;" horiz-adv-x="504" 
d="M32 0l98 697h129l-81 -581h296l-16 -116h-426zM156 759l120 142h131l-162 -142h-89z" />
    <glyph glyph-name="lacute" unicode="&#x13a;" horiz-adv-x="282" 
d="M146 -10q-47 0 -77 26t-30 78q0 6 0.5 13.5t1.5 14.5l81 575h123l-74 -541q-1 -7 -2 -13t-1 -10q0 -17 8.5 -23t21.5 -6q9 0 19 1.5t19 4.5l-15 -107q-22 -8 -41.5 -10.5t-33.5 -2.5zM144 759l120 142h131l-162 -142h-89z" />
    <glyph glyph-name="uni013B" unicode="&#x13b;" horiz-adv-x="504" 
d="M32 0l98 697h129l-81 -581h296l-16 -116h-426zM101 -227l66 174h130l-122 -174h-74z" />
    <glyph glyph-name="uni013C" unicode="&#x13c;" horiz-adv-x="282" 
d="M146 -10q-47 0 -77 26t-30 78q0 6 0.5 13.5t1.5 14.5l81 575h123l-74 -541q-1 -7 -2 -13t-1 -10q0 -17 8.5 -23t21.5 -6q9 0 19 1.5t19 4.5l-15 -107q-22 -8 -41.5 -10.5t-33.5 -2.5zM-27 -227l66 174h130l-122 -174h-74z" />
    <glyph glyph-name="Lcaron" unicode="&#x13d;" horiz-adv-x="504" 
d="M32 0l98 697h129l-81 -581h296l-16 -116h-426zM368 471l76 226h134l-134 -226h-76z" />
    <glyph glyph-name="lcaron" unicode="&#x13e;" horiz-adv-x="391" 
d="M146 -10q-47 0 -77 26t-30 78q0 6 0.5 13.5t1.5 14.5l81 575h123l-74 -541q-1 -7 -2 -13t-1 -10q0 -17 8.5 -23t21.5 -6q9 0 19 1.5t19 4.5l-15 -107q-22 -8 -41.5 -10.5t-33.5 -2.5zM258 471l76 226h134l-134 -226h-76z" />
    <glyph glyph-name="Ldot" unicode="&#x13f;" horiz-adv-x="574" 
d="M32 0l98 697h129l-81 -581h296l-16 -116h-426zM420 282l18 132h124l-18 -132h-124z" />
    <glyph glyph-name="ldot" unicode="&#x140;" horiz-adv-x="408" 
d="M146 -10q-47 0 -77 26t-30 78q0 6 0.5 13.5t1.5 14.5l81 575h123l-74 -541q-1 -7 -2 -13t-1 -10q0 -17 8.5 -23t21.5 -6q9 0 19 1.5t19 4.5l-15 -107q-22 -8 -41.5 -10.5t-33.5 -2.5zM275 283l18 132h124l-18 -132h-124z" />
    <glyph glyph-name="Lslash" unicode="&#x141;" horiz-adv-x="504" 
d="M32 0l98 697h129l-81 -581h296l-16 -116h-426zM0 154l15 128l326 232l-16 -127z" />
    <glyph glyph-name="lslash" unicode="&#x142;" horiz-adv-x="282" 
d="M146 -10q-47 0 -77 26t-30 78q0 6 0.5 13.5t1.5 14.5l81 575h123l-74 -541q-1 -7 -2 -13t-1 -10q0 -17 8.5 -23t21.5 -6q9 0 19 1.5t19 4.5l-15 -107q-22 -8 -41.5 -10.5t-33.5 -2.5zM1 201l23 128l266 184l-24 -126z" />
    <glyph glyph-name="Nacute" unicode="&#x143;" horiz-adv-x="689" 
d="M32 0l98 697h132l251 -528h-31l74 528h129l-98 -697h-133l-249 529h31l-75 -529h-129zM367 759l120 142h131l-162 -142h-89z" />
    <glyph glyph-name="nacute" unicode="&#x144;" horiz-adv-x="564" 
d="M26 0l70 493h118l-10 -112l-20 4q19 45 47 70.5t61.5 36.5t66.5 11q78 0 120 -39.5t42 -109.5q0 -9 -0.5 -17.5t-2.5 -18.5l-44 -318h-125l39 279q2 12 2.5 21t0.5 18q0 40 -17 58.5t-54 18.5q-56 0 -90 -40t-46 -122l-33 -233h-125zM271 555l120 142h131l-162 -142h-89z
" />
    <glyph glyph-name="uni0145" unicode="&#x145;" horiz-adv-x="689" 
d="M32 0l98 697h132l251 -528h-31l74 528h129l-98 -697h-133l-249 529h31l-75 -529h-129zM177 -227l66 174h130l-122 -174h-74z" />
    <glyph glyph-name="uni0146" unicode="&#x146;" horiz-adv-x="564" 
d="M26 0l70 493h118l-10 -112l-20 4q19 45 47 70.5t61.5 36.5t66.5 11q78 0 120 -39.5t42 -109.5q0 -9 -0.5 -17.5t-2.5 -18.5l-44 -318h-125l39 279q2 12 2.5 21t0.5 18q0 40 -17 58.5t-54 18.5q-56 0 -90 -40t-46 -122l-33 -233h-125zM110 -227l66 174h130l-122 -174h-74z
" />
    <glyph glyph-name="Ncaron" unicode="&#x147;" horiz-adv-x="689" 
d="M32 0l98 697h132l251 -528h-31l74 528h129l-98 -697h-133l-249 529h31l-75 -529h-129zM412 736l-118 165h84l50 -70l75 70h99z" />
    <glyph glyph-name="ncaron" unicode="&#x148;" horiz-adv-x="564" 
d="M26 0l70 493h118l-10 -112l-20 4q19 45 47 70.5t61.5 36.5t66.5 11q78 0 120 -39.5t42 -109.5q0 -9 -0.5 -17.5t-2.5 -18.5l-44 -318h-125l39 279q2 12 2.5 21t0.5 18q0 40 -17 58.5t-54 18.5q-56 0 -90 -40t-46 -122l-33 -233h-125zM315 532l-118 165h84l50 -70l75 70
h99z" />
    <glyph glyph-name="napostrophe" unicode="&#x149;" horiz-adv-x="690" 
d="M20 419l102 278h147l-166 -278h-83zM148 0l70 493h118l-10 -112l-20 4q19 45 47 70.5t61.5 36.5t66.5 11q78 0 120 -39.5t42 -109.5q0 -9 -0.5 -17.5t-2.5 -18.5l-44 -318h-125l39 279q2 12 2.5 21t0.5 18q0 40 -17 58.5t-54 18.5q-56 0 -90 -40t-46 -122l-33 -233h-125z
" />
    <glyph glyph-name="Eng" unicode="&#x14a;" horiz-adv-x="689" 
d="M395 -183q-18 0 -35.5 1.5t-37.5 3.5l5 82q9 -1 17.5 -2t14.5 -1q45 0 71 20.5t29 47.5q0 1 0.5 4.5t0.5 6.5q0 13 -4 23l-249 512h27l-73 -515h-129l98 697h132l249 -512h-27l72 512h129l-98 -699q-7 -48 -29 -89.5t-62 -66.5t-101 -25z" />
    <glyph glyph-name="eng" unicode="&#x14b;" horiz-adv-x="613" 
d="M361 -214q-21 0 -40.5 4.5t-39.5 12.5l6 97q13 -4 21.5 -5t12.5 -1q19 0 31 9.5t15 32.5l49 351q2 9 2.5 18t0.5 15q0 23 -7 39.5t-22.5 26t-43.5 9.5q-57 0 -90.5 -40.5t-45.5 -122.5l-32 -232h-125l70 493h118l-11 -131l-21 14q19 49 47.5 76.5t62.5 39t67 11.5
q77 0 119.5 -39.5t42.5 -107.5v-15t-2 -16l-58 -413q-9 -67 -44 -96.5t-83 -29.5z" />
    <glyph glyph-name="Omacron" unicode="&#x14c;" horiz-adv-x="748" 
d="M342 -16q-90 0 -156 37.5t-101.5 106t-35.5 162.5q0 82 26.5 157.5t76 135.5t120.5 95t160 35q90 0 156 -37.5t102 -106t36 -163.5q0 -82 -27 -157.5t-77 -135t-121 -94.5t-159 -35zM351 108q58 0 103.5 23.5t77 64.5t48 92.5t16.5 108.5q0 88 -45 140t-128 52
q-59 0 -105 -24.5t-77 -66t-47 -93t-16 -106.5q0 -59 20 -102t58.5 -66t94.5 -23zM314 767l18 73h271l-17 -73h-272z" />
    <glyph glyph-name="omacron" unicode="&#x14d;" horiz-adv-x="572" 
d="M255 -10q-66 0 -115 28t-77 78.5t-28 116.5q0 58 21 110.5t59 93t89 63.5t112 23q66 0 115.5 -28t76.5 -77.5t27 -115.5q0 -59 -21 -112t-59 -93t-89 -63.5t-111 -23.5zM264 99q35 0 62.5 15.5t46.5 41t29 57t10 63.5q0 51 -26 84.5t-79 33.5q-36 0 -64 -15.5t-46.5 -41
t-28 -56.5t-9.5 -63q0 -50 26.5 -84.5t78.5 -34.5zM199 563l18 73h271l-17 -73h-272z" />
    <glyph glyph-name="Obreve" unicode="&#x14e;" horiz-adv-x="748" 
d="M342 -16q-90 0 -156 37.5t-101.5 106t-35.5 162.5q0 82 26.5 157.5t76 135.5t120.5 95t160 35q90 0 156 -37.5t102 -106t36 -163.5q0 -82 -27 -157.5t-77 -135t-121 -94.5t-159 -35zM351 108q58 0 103.5 23.5t77 64.5t48 92.5t16.5 108.5q0 88 -45 140t-128 52
q-59 0 -105 -24.5t-77 -66t-47 -93t-16 -106.5q0 -59 20 -102t58.5 -66t94.5 -23zM441 738q-45 0 -77.5 14.5t-49 43t-13.5 69.5h78q-2 -30 17.5 -45t52.5 -15q36 0 58.5 15t25.5 45h79q-11 -69 -54.5 -98t-116.5 -29z" />
    <glyph glyph-name="obreve" unicode="&#x14f;" horiz-adv-x="572" 
d="M255 -10q-66 0 -115 28t-77 78.5t-28 116.5q0 58 21 110.5t59 93t89 63.5t112 23q66 0 115.5 -28t76.5 -77.5t27 -115.5q0 -59 -21 -112t-59 -93t-89 -63.5t-111 -23.5zM264 99q35 0 62.5 15.5t46.5 41t29 57t10 63.5q0 51 -26 84.5t-79 33.5q-36 0 -64 -15.5t-46.5 -41
t-28 -56.5t-9.5 -63q0 -50 26.5 -84.5t78.5 -34.5zM327 548q-61 0 -102.5 29t-45.5 90q-1 2 -0.5 10t1.5 20h74q-1 -6 -1 -12t1 -11q3 -27 21.5 -41.5t53.5 -14.5q39 0 59.5 20t24.5 59h76q-7 -73 -50.5 -111t-111.5 -38z" />
    <glyph glyph-name="Ohungarumlaut" unicode="&#x150;" horiz-adv-x="748" 
d="M342 -16q-90 0 -156 37.5t-101.5 106t-35.5 162.5q0 82 26.5 157.5t76 135.5t120.5 95t160 35q90 0 156 -37.5t102 -106t36 -163.5q0 -82 -27 -157.5t-77 -135t-121 -94.5t-159 -35zM351 108q58 0 103.5 23.5t77 64.5t48 92.5t16.5 108.5q0 88 -45 140t-128 52
q-59 0 -105 -24.5t-77 -66t-47 -93t-16 -106.5q0 -59 20 -102t58.5 -66t94.5 -23zM493 759l121 142h136l-157 -142h-100zM300 759l120 142h116l-139 -142h-97z" />
    <glyph glyph-name="ohungarumlaut" unicode="&#x151;" horiz-adv-x="572" 
d="M255 -10q-66 0 -115 28t-77 78.5t-28 116.5q0 58 21 110.5t59 93t89 63.5t112 23q66 0 115.5 -28t76.5 -77.5t27 -115.5q0 -59 -21 -112t-59 -93t-89 -63.5t-111 -23.5zM264 99q35 0 62.5 15.5t46.5 41t29 57t10 63.5q0 51 -26 84.5t-79 33.5q-36 0 -64 -15.5t-46.5 -41
t-28 -56.5t-9.5 -63q0 -50 26.5 -84.5t78.5 -34.5zM377 555l121 142h136l-157 -142h-100zM184 555l120 142h116l-139 -142h-97z" />
    <glyph glyph-name="OE" unicode="&#x152;" horiz-adv-x="988" 
d="M373 0q-157 0 -240.5 72t-83.5 208q0 92 27 168t80 132t130 86.5t177 30.5h541l-16 -116h-335l-23 -166h312l-17 -115h-312l-25 -184h335l-17 -116h-533zM396 119h63l65 459h-68q-83 0 -136.5 -25.5t-84.5 -68.5t-43.5 -95t-12.5 -105q0 -63 25.5 -99t74 -51t117.5 -15z
" />
    <glyph glyph-name="oe" unicode="&#x153;" horiz-adv-x="915" 
d="M626 -10q-77 0 -125 29.5t-70 78t-22 105.5q0 56 17.5 109t51.5 96t84 69t115 26q69 0 113.5 -27.5t66.5 -74.5t22 -106q0 -25 -3 -48t-9 -46h-337v-11t1 -10q4 -41 32 -61.5t71 -20.5q37 0 71.5 12t66.5 34l59 -84q-42 -32 -93 -51t-112 -19zM762 270q3 13 4 23t1 22
q0 22 -9 42t-28.5 32.5t-52.5 12.5q-38 0 -66 -16.5t-45 -41.5t-24 -51h261zM255 -10q-66 0 -115 28t-77 78.5t-28 116.5q0 58 21 110.5t59 93t89 63.5t112 23q66 0 115.5 -28t76.5 -77.5t27 -115.5q0 -59 -21 -112t-59 -93t-89 -63.5t-111 -23.5zM264 99q35 0 62.5 15.5
t46.5 41t29 57t10 63.5q0 51 -26 84.5t-79 33.5q-36 0 -64 -15.5t-46.5 -41t-28 -56.5t-9.5 -63q0 -50 26.5 -84.5t78.5 -34.5z" />
    <glyph glyph-name="Racute" unicode="&#x154;" horiz-adv-x="612" 
d="M32 0l98 697h221q108 0 164.5 -43t56.5 -125q0 -63 -23 -114t-71.5 -84t-124.5 -42h-31.5h-32.5h-87l-41 -289h-129zM416 0l-137 302l132 16l148 -318h-143zM218 403h84q68 0 104.5 26.5t36.5 80.5q0 40 -29.5 55.5t-79.5 15.5h-91zM315 759l120 142h131l-162 -142h-89z
" />
    <glyph glyph-name="racute" unicode="&#x155;" horiz-adv-x="426" 
d="M26 0l70 493h119l-13 -134l-21 3q10 43 37 74.5t62 49t68 17.5q27 0 48.5 -7.5t45.5 -22.5l-71 -109q-10 7 -26 11t-31 4q-44 0 -71.5 -23.5t-41.5 -62.5t-21 -85l-30 -208h-124zM191 555l120 142h131l-162 -142h-89z" />
    <glyph glyph-name="uni0156" unicode="&#x156;" horiz-adv-x="612" 
d="M32 0l98 697h221q108 0 164.5 -43t56.5 -125q0 -63 -23 -114t-71.5 -84t-124.5 -42h-31.5h-32.5h-87l-41 -289h-129zM416 0l-137 302l132 16l148 -318h-143zM218 403h84q68 0 104.5 26.5t36.5 80.5q0 40 -29.5 55.5t-79.5 15.5h-91zM125 -227l66 174h130l-122 -174h-74z
" />
    <glyph glyph-name="uni0157" unicode="&#x157;" horiz-adv-x="426" 
d="M26 0l70 493h119l-13 -134l-21 3q10 43 37 74.5t62 49t68 17.5q27 0 48.5 -7.5t45.5 -22.5l-71 -109q-10 7 -26 11t-31 4q-44 0 -71.5 -23.5t-41.5 -62.5t-21 -85l-30 -208h-124zM29 -227l66 174h130l-122 -174h-74z" />
    <glyph glyph-name="Rcaron" unicode="&#x158;" horiz-adv-x="612" 
d="M32 0l98 697h221q108 0 164.5 -43t56.5 -125q0 -63 -23 -114t-71.5 -84t-124.5 -42h-31.5h-32.5h-87l-41 -289h-129zM416 0l-137 302l132 16l148 -318h-143zM218 403h84q68 0 104.5 26.5t36.5 80.5q0 40 -29.5 55.5t-79.5 15.5h-91zM360 736l-118 165h84l50 -70l75 70h99
z" />
    <glyph glyph-name="rcaron" unicode="&#x159;" horiz-adv-x="426" 
d="M26 0l70 493h119l-13 -134l-21 3q10 43 37 74.5t62 49t68 17.5q27 0 48.5 -7.5t45.5 -22.5l-71 -109q-10 7 -26 11t-31 4q-44 0 -71.5 -23.5t-41.5 -62.5t-21 -85l-30 -208h-124zM235 532l-118 165h84l50 -70l75 70h99z" />
    <glyph glyph-name="Sacute" unicode="&#x15a;" horiz-adv-x="575" 
d="M278 -13q-75 0 -132.5 27t-90 75.5t-33.5 112.5l128 25q2 -64 40.5 -94.5t93.5 -30.5q37 0 64 12t41.5 34t14.5 50q0 26 -12.5 44.5t-38 33.5t-64.5 31q-61 25 -100.5 54t-58 65t-18.5 81q0 58 28.5 104.5t79.5 74t119 27.5q75 0 133 -35.5t80 -97.5l-108 -56
q-16 38 -43 56t-63 18q-31 0 -52.5 -11.5t-33 -30.5t-11.5 -43q0 -22 11.5 -39t37.5 -31t68 -31q58 -23 97 -51.5t59 -65.5t20 -87q0 -65 -32.5 -115.5t-90.5 -78t-133 -27.5zM311 759l120 142h131l-162 -142h-89z" />
    <glyph glyph-name="sacute" unicode="&#x15b;" horiz-adv-x="477" 
d="M211 -10q-56 0 -97 17t-67.5 41t-41.5 46l90 67q18 -33 50 -53t71 -20q27 0 46 7.5t30 20.5t11 30q0 16 -10.5 26.5t-29.5 18t-44 13.5q-25 7 -51.5 17t-50 25t-38.5 38.5t-15 59.5q0 46 25.5 82t70.5 56.5t104 20.5q62 0 108 -25t69 -69l-84 -55q-15 28 -40 40t-56 12
t-55 -12.5t-24 -36.5q0 -17 17.5 -26.5t57.5 -19.5q41 -10 79.5 -25.5t64.5 -43t26 -77.5q0 -52 -27.5 -91.5t-75.5 -61.5t-113 -22zM235 555l120 142h131l-162 -142h-89z" />
    <glyph glyph-name="Scircumflex" unicode="&#x15c;" horiz-adv-x="575" 
d="M278 -13q-75 0 -132.5 27t-90 75.5t-33.5 112.5l128 25q2 -64 40.5 -94.5t93.5 -30.5q37 0 64 12t41.5 34t14.5 50q0 26 -12.5 44.5t-38 33.5t-64.5 31q-61 25 -100.5 54t-58 65t-18.5 81q0 58 28.5 104.5t79.5 74t119 27.5q75 0 133 -35.5t80 -97.5l-108 -56
q-16 38 -43 56t-63 18q-31 0 -52.5 -11.5t-33 -30.5t-11.5 -43q0 -22 11.5 -39t37.5 -31t68 -31q58 -23 97 -51.5t59 -65.5t20 -87q0 -65 -32.5 -115.5t-90.5 -78t-133 -27.5zM199 745l180 175l133 -175h-96l-47 69l-67 -69h-103z" />
    <glyph glyph-name="scircumflex" unicode="&#x15d;" horiz-adv-x="477" 
d="M211 -10q-56 0 -97 17t-67.5 41t-41.5 46l90 67q18 -33 50 -53t71 -20q27 0 46 7.5t30 20.5t11 30q0 16 -10.5 26.5t-29.5 18t-44 13.5q-25 7 -51.5 17t-50 25t-38.5 38.5t-15 59.5q0 46 25.5 82t70.5 56.5t104 20.5q62 0 108 -25t69 -69l-84 -55q-15 28 -40 40t-56 12
t-55 -12.5t-24 -36.5q0 -17 17.5 -26.5t57.5 -19.5q41 -10 79.5 -25.5t64.5 -43t26 -77.5q0 -52 -27.5 -91.5t-75.5 -61.5t-113 -22zM128 541l177 175l131 -175h-94l-48 69l-66 -69h-100z" />
    <glyph glyph-name="Scedilla" unicode="&#x15e;" horiz-adv-x="575" 
d="M278 -13q-75 0 -132.5 27t-90 75.5t-33.5 112.5l128 25q2 -64 40.5 -94.5t93.5 -30.5q37 0 64 12t41.5 34t14.5 50q0 26 -12.5 44.5t-38 33.5t-64.5 31q-61 25 -100.5 54t-58 65t-18.5 81q0 58 28.5 104.5t79.5 74t119 27.5q75 0 133 -35.5t80 -97.5l-108 -56
q-16 38 -43 56t-63 18q-31 0 -52.5 -11.5t-33 -30.5t-11.5 -43q0 -22 11.5 -39t37.5 -31t68 -31q58 -23 97 -51.5t59 -65.5t20 -87q0 -65 -32.5 -115.5t-90.5 -78t-133 -27.5zM220 -259q-15 0 -40 7t-44 24l40 60q10 -9 22 -14.5t24 -5.5q19 0 30.5 10t11.5 30
q0 17 -9.5 27.5t-25.5 16t-35.5 7t-39.5 1.5l68 107l75 -1l-47 -58q26 -5 45.5 -17.5t31 -32t11.5 -47.5q0 -49 -33 -81.5t-85 -32.5z" />
    <glyph glyph-name="scedilla" unicode="&#x15f;" horiz-adv-x="477" 
d="M211 -10q-56 0 -97 17t-67.5 41t-41.5 46l90 67q18 -33 50 -53t71 -20q27 0 46 7.5t30 20.5t11 30q0 16 -10.5 26.5t-29.5 18t-44 13.5q-25 7 -51.5 17t-50 25t-38.5 38.5t-15 59.5q0 46 25.5 82t70.5 56.5t104 20.5q62 0 108 -25t69 -69l-84 -55q-15 28 -40 40t-56 12
t-55 -12.5t-24 -36.5q0 -17 17.5 -26.5t57.5 -19.5q41 -10 79.5 -25.5t64.5 -43t26 -77.5q0 -52 -27.5 -91.5t-75.5 -61.5t-113 -22zM173 -259q-15 0 -40 7t-44 24l40 60q10 -9 22 -14.5t24 -5.5q19 0 30.5 10t11.5 30q0 17 -9.5 27.5t-25.5 16t-35.5 7t-39.5 1.5l68 107
l75 -1l-47 -58q26 -5 45.5 -17.5t31 -32t11.5 -47.5q0 -49 -33 -81.5t-85 -32.5z" />
    <glyph glyph-name="Scaron" unicode="&#x160;" horiz-adv-x="575" 
d="M278 -13q-75 0 -132.5 27t-90 75.5t-33.5 112.5l128 25q2 -64 40.5 -94.5t93.5 -30.5q37 0 64 12t41.5 34t14.5 50q0 26 -12.5 44.5t-38 33.5t-64.5 31q-61 25 -100.5 54t-58 65t-18.5 81q0 58 28.5 104.5t79.5 74t119 27.5q75 0 133 -35.5t80 -97.5l-108 -56
q-16 38 -43 56t-63 18q-31 0 -52.5 -11.5t-33 -30.5t-11.5 -43q0 -22 11.5 -39t37.5 -31t68 -31q58 -23 97 -51.5t59 -65.5t20 -87q0 -65 -32.5 -115.5t-90.5 -78t-133 -27.5zM356 736l-118 165h84l50 -70l75 70h99z" />
    <glyph glyph-name="scaron" unicode="&#x161;" horiz-adv-x="477" 
d="M211 -10q-56 0 -97 17t-67.5 41t-41.5 46l90 67q18 -33 50 -53t71 -20q27 0 46 7.5t30 20.5t11 30q0 16 -10.5 26.5t-29.5 18t-44 13.5q-25 7 -51.5 17t-50 25t-38.5 38.5t-15 59.5q0 46 25.5 82t70.5 56.5t104 20.5q62 0 108 -25t69 -69l-84 -55q-15 28 -40 40t-56 12
t-55 -12.5t-24 -36.5q0 -17 17.5 -26.5t57.5 -19.5q41 -10 79.5 -25.5t64.5 -43t26 -77.5q0 -52 -27.5 -91.5t-75.5 -61.5t-113 -22zM280 532l-118 165h84l50 -70l75 70h99z" />
    <glyph glyph-name="uni0162" unicode="&#x162;" horiz-adv-x="584" 
d="M192 0l81 581h-216l17 116h562l-17 -116h-215l-81 -581h-131zM225 -259q-15 0 -40 7t-44 24l40 60q10 -9 22 -14.5t24 -5.5q19 0 30.5 10t11.5 30q0 17 -9.5 27.5t-25.5 16t-35.5 7t-39.5 1.5l68 107l75 -1l-47 -58q26 -5 45.5 -17.5t31 -32t11.5 -47.5q0 -49 -33 -81.5
t-85 -32.5z" />
    <glyph glyph-name="uni0163" unicode="&#x163;" horiz-adv-x="374" 
d="M219 -10q-37 0 -67.5 13t-49.5 40t-19 72q0 9 1 19t3 26l63 448l135 67l-70 -499q-1 -9 -2 -19t-1 -20q0 -22 9.5 -33.5t33.5 -11.5q13 0 27 3t31 7l-14 -100q-21 -6 -41.5 -9t-38.5 -3zM31 396l14 97h323l-14 -97h-323zM158 -259q-15 0 -40 7t-44 24l40 60
q10 -9 22 -14.5t24 -5.5q19 0 30.5 10t11.5 30q0 17 -9.5 27.5t-25.5 16t-35.5 7t-39.5 1.5l68 107l75 -1l-47 -58q26 -5 45.5 -17.5t31 -32t11.5 -47.5q0 -49 -33 -81.5t-85 -32.5z" />
    <glyph glyph-name="Tcaron" unicode="&#x164;" horiz-adv-x="584" 
d="M192 0l81 581h-216l17 116h562l-17 -116h-215l-81 -581h-131zM360 736l-118 165h84l50 -70l75 70h99z" />
    <glyph glyph-name="tcaron" unicode="&#x165;" horiz-adv-x="472" 
d="M219 -10q-37 0 -67.5 13t-49.5 40t-19 72q0 9 1 19t3 26l63 448l135 67l-70 -499q-1 -9 -2 -19t-1 -20q0 -22 9.5 -33.5t33.5 -11.5q13 0 27 3t31 7l-14 -100q-21 -6 -41.5 -9t-38.5 -3zM31 396l14 97h323l-14 -97h-323zM309 543l76 226h134l-134 -226h-76z" />
    <glyph glyph-name="Tbar" unicode="&#x166;" horiz-adv-x="584" 
d="M192 0l81 581h-216l17 116h562l-17 -116h-215l-81 -581h-131zM141 308l12 83h314l-12 -83h-314z" />
    <glyph glyph-name="tbar" unicode="&#x167;" horiz-adv-x="384" 
d="M231 -10q-37 0 -67.5 13t-49 40t-18.5 72q0 7 0.5 15.5t1.5 17.5l64 460l135 67l-69 -499q-2 -13 -3 -21.5t-1 -15.5q0 -24 9.5 -35.5t32.5 -11.5q13 0 26.5 2.5t28.5 6.5l-7 -98q-21 -7 -42 -10t-41 -3zM16 206l12 84h323l-12 -84h-323zM43 396l14 97h323l-14 -97h-323z
" />
    <glyph glyph-name="Utilde" unicode="&#x168;" horiz-adv-x="657" 
d="M298 -16q-119 0 -179.5 54t-60.5 159q0 12 1 27.5t3 30.5l62 442h129l-60 -434q-2 -16 -3.5 -30.5t-1.5 -27.5q0 -51 25.5 -76.5t87.5 -25.5q56 0 90.5 19.5t53 56.5t25.5 90l60 428h129l-62 -443q-19 -137 -94 -203.5t-205 -66.5zM466 742q-24 0 -40 6.5t-27 16t-19 19
t-15.5 16t-17.5 6.5q-17 0 -29 -17t-17 -48l-70 7q8 62 40 94t79 32q21 0 36 -7t26 -16.5t19.5 -19t16 -16t16.5 -6.5q14 0 27 17.5t18 47.5l73 -6q-8 -63 -39 -94.5t-77 -31.5z" />
    <glyph glyph-name="utilde" unicode="&#x169;" horiz-adv-x="564" 
d="M205 -10q-82 0 -121.5 42.5t-39.5 113.5q0 11 1 21t2 21l42 305h125l-40 -280q-1 -11 -2 -21t-1 -19q0 -36 16.5 -55.5t56.5 -19.5q46 0 73.5 25.5t43.5 71t24 105.5l27 193h125l-70 -493h-117l7 107l18 -14q-31 -57 -75.5 -80t-94.5 -23zM398 556q-37 0 -54 14t-29 30
q-8 11 -15 17t-17 6q-18 0 -32 -20t-20 -52l-70 13q16 68 49 102t78 34q31 0 47 -14t26 -28q8 -11 16 -19t21 -8q16 0 30 20t21 52l72 -12q-16 -68 -48 -101.5t-75 -33.5z" />
    <glyph glyph-name="Umacron" unicode="&#x16a;" horiz-adv-x="657" 
d="M298 -16q-119 0 -179.5 54t-60.5 159q0 12 1 27.5t3 30.5l62 442h129l-60 -434q-2 -16 -3.5 -30.5t-1.5 -27.5q0 -51 25.5 -76.5t87.5 -25.5q56 0 90.5 19.5t53 56.5t25.5 90l60 428h129l-62 -443q-19 -137 -94 -203.5t-205 -66.5zM271 767l18 73h271l-17 -73h-272z" />
    <glyph glyph-name="umacron" unicode="&#x16b;" horiz-adv-x="564" 
d="M205 -10q-82 0 -121.5 42.5t-39.5 113.5q0 11 1 21t2 21l42 305h125l-40 -280q-1 -11 -2 -21t-1 -19q0 -36 16.5 -55.5t56.5 -19.5q46 0 73.5 25.5t43.5 71t24 105.5l27 193h125l-70 -493h-117l7 107l18 -14q-31 -57 -75.5 -80t-94.5 -23zM190 563l18 73h271l-17 -73
h-272z" />
    <glyph glyph-name="Ubreve" unicode="&#x16c;" horiz-adv-x="657" 
d="M298 -16q-119 0 -179.5 54t-60.5 159q0 12 1 27.5t3 30.5l62 442h129l-60 -434q-2 -16 -3.5 -30.5t-1.5 -27.5q0 -51 25.5 -76.5t87.5 -25.5q56 0 90.5 19.5t53 56.5t25.5 90l60 428h129l-62 -443q-19 -137 -94 -203.5t-205 -66.5zM397 738q-45 0 -77.5 14.5t-49 43
t-13.5 69.5h78q-2 -30 17.5 -45t52.5 -15q36 0 58.5 15t25.5 45h79q-11 -69 -54.5 -98t-116.5 -29z" />
    <glyph glyph-name="ubreve" unicode="&#x16d;" horiz-adv-x="564" 
d="M205 -10q-82 0 -121.5 42.5t-39.5 113.5q0 11 1 21t2 21l42 305h125l-40 -280q-1 -11 -2 -21t-1 -19q0 -36 16.5 -55.5t56.5 -19.5q46 0 73.5 25.5t43.5 71t24 105.5l27 193h125l-70 -493h-117l7 107l18 -14q-31 -57 -75.5 -80t-94.5 -23zM319 548q-61 0 -102.5 29
t-45.5 90q-1 2 -0.5 10t1.5 20h74q-1 -6 -1 -12t1 -11q3 -27 21.5 -41.5t53.5 -14.5q39 0 59.5 20t24.5 59h76q-7 -73 -50.5 -111t-111.5 -38z" />
    <glyph glyph-name="Uring" unicode="&#x16e;" horiz-adv-x="657" 
d="M298 -16q-119 0 -179.5 54t-60.5 159q0 12 1 27.5t3 30.5l62 442h129l-60 -434q-2 -16 -3.5 -30.5t-1.5 -27.5q0 -51 25.5 -76.5t87.5 -25.5q56 0 90.5 19.5t53 56.5t25.5 90l60 428h129l-62 -443q-19 -137 -94 -203.5t-205 -66.5zM396 676q-47 0 -76.5 31.5t-29.5 74.5
q0 34 17.5 62t46 45.5t61.5 17.5q44 0 75 -30t31 -75q0 -34 -17.5 -62.5t-46 -46t-61.5 -17.5zM401 743q25 0 39.5 17t14.5 39q0 17 -11 29t-31 12q-26 0 -40.5 -16.5t-14.5 -36.5q0 -18 11.5 -31t31.5 -13z" />
    <glyph glyph-name="uring" unicode="&#x16f;" horiz-adv-x="564" 
d="M205 -10q-82 0 -121.5 42.5t-39.5 113.5q0 11 1 21t2 21l42 305h125l-40 -280q-1 -11 -2 -21t-1 -19q0 -36 16.5 -55.5t56.5 -19.5q46 0 73.5 25.5t43.5 71t24 105.5l27 193h125l-70 -493h-117l7 107l18 -14q-31 -57 -75.5 -80t-94.5 -23zM332 532q-43 0 -73 26.5
t-30 70.5q0 34 18.5 61.5t48.5 44t64 16.5q41 0 72 -25.5t31 -70.5q0 -34 -18.5 -62t-48.5 -44.5t-64 -16.5zM340 592q25 0 40 18t15 38q0 18 -11.5 30.5t-31.5 12.5q-24 0 -39.5 -17.5t-15.5 -38.5q0 -17 11 -30t32 -13z" />
    <glyph glyph-name="Uhungarumlaut" unicode="&#x170;" horiz-adv-x="657" 
d="M298 -16q-119 0 -179.5 54t-60.5 159q0 12 1 27.5t3 30.5l62 442h129l-60 -434q-2 -16 -3.5 -30.5t-1.5 -27.5q0 -51 25.5 -76.5t87.5 -25.5q56 0 90.5 19.5t53 56.5t25.5 90l60 428h129l-62 -443q-19 -137 -94 -203.5t-205 -66.5zM449 759l121 142h136l-157 -142h-100z
M256 759l120 142h116l-139 -142h-97z" />
    <glyph glyph-name="uhungarumlaut" unicode="&#x171;" horiz-adv-x="564" 
d="M205 -10q-82 0 -121.5 42.5t-39.5 113.5q0 11 1 21t2 21l42 305h125l-40 -280q-1 -11 -2 -21t-1 -19q0 -36 16.5 -55.5t56.5 -19.5q46 0 73.5 25.5t43.5 71t24 105.5l27 193h125l-70 -493h-117l7 107l18 -14q-31 -57 -75.5 -80t-94.5 -23zM369 555l121 142h136l-157 -142
h-100zM176 555l120 142h116l-139 -142h-97z" />
    <glyph glyph-name="Uogonek" unicode="&#x172;" horiz-adv-x="657" 
d="M298 -16q-119 0 -179.5 54t-60.5 159q0 12 1 27.5t3 30.5l62 442h129l-60 -434q-2 -16 -3.5 -30.5t-1.5 -27.5q0 -51 25.5 -76.5t87.5 -25.5q56 0 90.5 19.5t53 56.5t25.5 90l60 428h129l-62 -443q-19 -137 -94 -203.5t-205 -66.5zM318 -223q-50 0 -83 28t-33 74
q0 33 14 56.5t33 40t35 25.5l97 -1q-10 -4 -27 -14t-35 -24.5t-30 -32t-12 -37.5q0 -19 12 -28.5t28 -9.5q14 0 28.5 5.5t28.5 16.5l33 -67q-17 -13 -39 -22.5t-50 -9.5z" />
    <glyph glyph-name="uogonek" unicode="&#x173;" horiz-adv-x="564" 
d="M205 -10q-82 0 -121.5 42.5t-39.5 113.5q0 11 1 21t2 21l42 305h125l-40 -280q-1 -11 -2 -21t-1 -19q0 -36 16.5 -55.5t56.5 -19.5q46 0 73.5 25.5t43.5 71t24 105.5l27 193h125l-70 -493h-117l7 107l18 -14q-31 -57 -75.5 -80t-94.5 -23zM403 -223q-50 0 -83 28t-33 74
q0 33 14 56.5t33 40t35 25.5l97 -1q-10 -4 -27 -14t-35 -24.5t-30 -32t-12 -37.5q0 -19 12 -28.5t28 -9.5q14 0 28.5 5.5t28.5 16.5l33 -67q-17 -13 -39 -22.5t-50 -9.5z" />
    <glyph glyph-name="Wcircumflex" unicode="&#x174;" horiz-adv-x="979" 
d="M188 0l-111 697h134l73 -499l198 459h128l67 -459l216 499h137l-308 -697h-125l-81 502h21l-223 -502h-126zM402 745l180 175l133 -175h-96l-47 69l-67 -69h-103z" />
    <glyph glyph-name="wcircumflex" unicode="&#x175;" horiz-adv-x="755" 
d="M137 0l-83 493h130l40 -303l133 303h106l47 -301l126 301h135l-222 -493h-111l-49 317l-139 -317h-113zM265 541l177 175l131 -175h-94l-48 69l-66 -69h-100z" />
    <glyph glyph-name="Ycircumflex" unicode="&#x176;" horiz-adv-x="625" 
d="M214 0l39 273l-185 424h145l116 -296l206 296h150l-302 -424l-40 -273h-129zM225 745l180 175l133 -175h-96l-47 69l-67 -69h-103z" />
    <glyph glyph-name="ycircumflex" unicode="&#x177;" horiz-adv-x="535" 
d="M37 -204l135 242l-121 455h134l68 -331l166 331h136l-381 -697h-137zM155 541l177 175l131 -175h-94l-48 69l-66 -69h-100z" />
    <glyph glyph-name="Ydieresis" unicode="&#x178;" horiz-adv-x="625" 
d="M214 0l39 273l-185 424h145l116 -296l206 296h150l-302 -424l-40 -273h-129zM418 773l18 128h132l-18 -128h-132zM225 773l18 128h131l-18 -128h-131z" />
    <glyph glyph-name="Zacute" unicode="&#x179;" horiz-adv-x="605" 
d="M-7 0l13 106l477 516l15 -41h-400l16 116h512l-13 -106l-463 -501l-16 26h424l-16 -116h-549zM329 759l120 142h131l-162 -142h-89z" />
    <glyph glyph-name="zacute" unicode="&#x17a;" horiz-adv-x="471" 
d="M0 0l11 83l318 339l8 -33h-271l15 104h386l-12 -89l-314 -340l-8 40h279l-15 -104h-397zM231 555l120 142h131l-162 -142h-89z" />
    <glyph glyph-name="Zdotaccent" unicode="&#x17b;" horiz-adv-x="605" 
d="M-7 0l13 106l477 516l15 -41h-400l16 116h512l-13 -106l-463 -501l-16 26h424l-16 -116h-549zM313 773l18 128h132l-18 -128h-132z" />
    <glyph glyph-name="zdotaccent" unicode="&#x17c;" horiz-adv-x="471" 
d="M0 0l11 83l318 339l8 -33h-271l15 104h386l-12 -89l-314 -340l-8 40h279l-15 -104h-397zM216 569l18 128h132l-18 -128h-132z" />
    <glyph glyph-name="Zcaron" unicode="&#x17d;" horiz-adv-x="605" 
d="M-7 0l13 106l477 516l15 -41h-400l16 116h512l-13 -106l-463 -501l-16 26h424l-16 -116h-549zM374 736l-118 165h84l50 -70l75 70h99z" />
    <glyph glyph-name="zcaron" unicode="&#x17e;" horiz-adv-x="471" 
d="M0 0l11 83l318 339l8 -33h-271l15 104h386l-12 -89l-314 -340l-8 40h279l-15 -104h-397zM276 532l-118 165h84l50 -70l75 70h99z" />
    <glyph glyph-name="uni018F" unicode="&#x18f;" horiz-adv-x="758" 
d="M348 -16q-94 0 -161 36.5t-103 103.5t-36 159q0 17 1.5 35t3.5 36l129 -6q-2 -15 -3.5 -29.5t-1.5 -27.5q0 -89 45.5 -136t129.5 -47q68 0 121 29.5t86.5 85.5t44.5 135q2 14 3.5 28t1.5 27q0 86 -45 132t-130 46q-72 0 -127.5 -34t-87.5 -99l-115 54q52 98 137.5 150
t196.5 52q94 0 161 -36.5t102.5 -103.5t35.5 -161q0 -16 -1.5 -34.5t-3.5 -37.5q-15 -109 -68 -189t-133.5 -124t-182.5 -44zM104 252l15 99h581l-15 -99h-581z" />
    <glyph glyph-name="florin" unicode="&#x192;" horiz-adv-x="560" 
d="M24 -214l6 94q49 0 78.5 13.5t46.5 44t24 83.5l53 379h-87l13 93h87l9 65q10 68 50.5 112.5t106.5 44.5q44 0 76 -15t53 -41l-74 -74q-11 14 -22.5 19.5t-20.5 5.5q-26 0 -44 -17.5t-22 -48.5l-6 -51h111l-14 -93h-111l-56 -396q-11 -78 -44.5 -126.5t-87 -70
t-125.5 -21.5z" />
    <glyph glyph-name="uni019D" unicode="&#x19d;" horiz-adv-x="689" 
d="M32 0l98 697h132l249 -512h-27l72 512h129l-98 -697h-133l-247 515h27l-73 -515h-129zM-66 -183l6 84q42 0 63.5 24.5t25.5 49.5q1 5 2 12t2 16l128 -3l-4 -30q-5 -40 -29.5 -75.5t-71.5 -56.5t-122 -21z" />
    <glyph glyph-name="Ohorn" unicode="&#x1a0;" horiz-adv-x="748" 
d="M342 -16q-90 0 -156 37.5t-101.5 106t-35.5 162.5q0 82 26.5 157.5t76 135.5t120.5 95t160 35q90 0 156 -37.5t102 -106t36 -163.5q0 -82 -27 -157.5t-77 -135t-121 -94.5t-159 -35zM351 108q58 0 103.5 23.5t77 64.5t48 92.5t16.5 108.5q0 88 -45 140t-128 52
q-59 0 -105 -24.5t-77 -66t-47 -93t-16 -106.5q0 -59 20 -102t58.5 -66t94.5 -23zM640 493l8 75q44 0 66 23t29 69l5 37h84l-6 -45q-9 -71 -55.5 -115t-130.5 -44z" />
    <glyph glyph-name="ohorn" unicode="&#x1a1;" horiz-adv-x="572" 
d="M255 -10q-66 0 -115 28t-77 78.5t-28 116.5q0 58 21 110.5t59 93t89 63.5t112 23q66 0 115.5 -28t76.5 -77.5t27 -115.5q0 -59 -21 -112t-59 -93t-89 -63.5t-111 -23.5zM264 99q35 0 62.5 15.5t46.5 41t29 57t10 63.5q0 51 -26 84.5t-79 33.5q-36 0 -64 -15.5t-46.5 -41
t-28 -56.5t-9.5 -63q0 -50 26.5 -84.5t78.5 -34.5zM459 289l8 75q44 0 66 23t29 69l5 37h84l-6 -45q-9 -71 -55.5 -115t-130.5 -44z" />
    <glyph glyph-name="Uhorn" unicode="&#x1af;" horiz-adv-x="718" 
d="M298 -16q-119 0 -179.5 54t-60.5 159q0 12 1 27.5t3 30.5l62 442h129l-60 -434q-2 -16 -3.5 -30.5t-1.5 -27.5q0 -51 25.5 -76.5t87.5 -25.5q56 0 90.5 19.5t53 56.5t25.5 90l60 428h129l-62 -443q-19 -137 -94 -203.5t-205 -66.5zM595 493l8 75q44 0 66 23t29 69l5 37
h84l-6 -45q-9 -71 -55.5 -115t-130.5 -44z" />
    <glyph glyph-name="uhorn" unicode="&#x1b0;" horiz-adv-x="564" 
d="M205 -10q-82 0 -121.5 42.5t-39.5 113.5q0 11 1 21t2 21l42 305h125l-40 -280q-1 -11 -2 -21t-1 -19q0 -36 16.5 -55.5t56.5 -19.5q46 0 73.5 25.5t43.5 71t24 105.5l27 193h125l-70 -493h-117l7 107l18 -14q-31 -57 -75.5 -80t-94.5 -23zM497 289l8 75q44 0 66 23t29 69
l5 37h84l-6 -45q-9 -71 -55.5 -115t-130.5 -44z" />
    <glyph glyph-name="uni01CD" unicode="&#x1cd;" horiz-adv-x="674" 
d="M-28 0l378 697h98l181 -697h-138l-115 506l-260 -506h-144zM175 136l57 116h209l27 -116h-293zM406 736l-118 165h84l50 -70l75 70h99z" />
    <glyph glyph-name="uni01CE" unicode="&#x1ce;" horiz-adv-x="577" 
d="M222 -10q-59 0 -100 27t-62.5 74.5t-21.5 109.5q0 58 18 112t51 97t78.5 68t100.5 25q41 0 74.5 -16.5t53.5 -49.5t19 -84l-25 7l25 133h117l-69 -493h-118l12 132l31 7q-21 -59 -50.5 -91t-64 -45t-69.5 -13zM258 104q36 0 63.5 16t46.5 42t28.5 58t9.5 64
q0 33 -11 56.5t-32 36t-52 12.5q-36 0 -64 -15.5t-46.5 -41.5t-28.5 -58t-10 -64q0 -33 11.5 -57t33 -36.5t51.5 -12.5zM329 532l-118 165h84l50 -70l75 70h99z" />
    <glyph glyph-name="uni01CF" unicode="&#x1cf;" horiz-adv-x="263" 
d="M32 0l98 697h129l-98 -697h-129zM201 736l-118 165h84l50 -70l75 70h99z" />
    <glyph glyph-name="uni01D0" unicode="&#x1d0;" horiz-adv-x="245" 
d="M25 0l69 493h125l-70 -493h-124zM162 532l-118 165h84l50 -70l75 70h99z" />
    <glyph glyph-name="uni01D1" unicode="&#x1d1;" horiz-adv-x="748" 
d="M342 -16q-90 0 -156 37.5t-101.5 106t-35.5 162.5q0 82 26.5 157.5t76 135.5t120.5 95t160 35q90 0 156 -37.5t102 -106t36 -163.5q0 -82 -27 -157.5t-77 -135t-121 -94.5t-159 -35zM351 108q58 0 103.5 23.5t77 64.5t48 92.5t16.5 108.5q0 88 -45 140t-128 52
q-59 0 -105 -24.5t-77 -66t-47 -93t-16 -106.5q0 -59 20 -102t58.5 -66t94.5 -23zM441 736l-118 165h84l50 -70l75 70h99z" />
    <glyph glyph-name="uni01D2" unicode="&#x1d2;" horiz-adv-x="572" 
d="M255 -10q-66 0 -115 28t-77 78.5t-28 116.5q0 58 21 110.5t59 93t89 63.5t112 23q66 0 115.5 -28t76.5 -77.5t27 -115.5q0 -59 -21 -112t-59 -93t-89 -63.5t-111 -23.5zM264 99q35 0 62.5 15.5t46.5 41t29 57t10 63.5q0 51 -26 84.5t-79 33.5q-36 0 -64 -15.5t-46.5 -41
t-28 -56.5t-9.5 -63q0 -50 26.5 -84.5t78.5 -34.5zM325 532l-118 165h84l50 -70l75 70h99z" />
    <glyph glyph-name="uni01D3" unicode="&#x1d3;" horiz-adv-x="657" 
d="M298 -16q-119 0 -179.5 54t-60.5 159q0 12 1 27.5t3 30.5l62 442h129l-60 -434q-2 -16 -3.5 -30.5t-1.5 -27.5q0 -51 25.5 -76.5t87.5 -25.5q56 0 90.5 19.5t53 56.5t25.5 90l60 428h129l-62 -443q-19 -137 -94 -203.5t-205 -66.5zM397 736l-118 165h84l50 -70l75 70h99z
" />
    <glyph glyph-name="uni01D4" unicode="&#x1d4;" horiz-adv-x="564" 
d="M205 -10q-82 0 -121.5 42.5t-39.5 113.5q0 11 1 21t2 21l42 305h125l-40 -280q-1 -11 -2 -21t-1 -19q0 -36 16.5 -55.5t56.5 -19.5q46 0 73.5 25.5t43.5 71t24 105.5l27 193h125l-70 -493h-117l7 107l18 -14q-31 -57 -75.5 -80t-94.5 -23zM317 532l-118 165h84l50 -70
l75 70h99z" />
    <glyph glyph-name="Gcaron" unicode="&#x1e6;" horiz-adv-x="735" 
d="M333 -16q-85 0 -149.5 37.5t-99.5 105.5t-35 160q0 84 26.5 160t76.5 136t120.5 95t157.5 35q114 0 188 -57.5t96 -154.5l-125 -37q-14 60 -55.5 92.5t-106.5 32.5q-60 0 -106.5 -25t-78.5 -67t-48.5 -95.5t-16.5 -111.5q0 -85 44.5 -133.5t124.5 -48.5q35 0 71.5 10
t69 33.5t55.5 64t31 100.5l6 37l15 -90h-198l16 116h285l-52 -379h-113l-4 113l21 -21q-24 -36 -57.5 -60.5t-73.5 -36t-85 -11.5zM440 736l-118 165h84l50 -70l75 70h99z" />
    <glyph glyph-name="gcaron" unicode="&#x1e7;" horiz-adv-x="578" 
d="M218 -214q-58 0 -99.5 16t-68.5 42t-44 56l103 70q14 -30 39.5 -54t70.5 -24q29 0 59 10t52.5 37.5t29.5 77.5l13 105l16 -15q-32 -55 -74 -77t-93 -22q-57 0 -98 27t-62.5 74t-21.5 106q0 55 17.5 106t50.5 92t77.5 65.5t98.5 24.5q61 0 97 -28t45 -75l-13 -13l20 106
h118l-68 -482q-11 -78 -46.5 -127.5t-91.5 -73.5t-127 -24zM269 120q30 0 55.5 12.5t43.5 34t28 50.5t10 63q0 33 -11.5 57t-34 38t-54.5 14q-31 0 -57 -12.5t-45 -34.5t-29 -51t-10 -62q0 -32 12.5 -56.5t36 -38.5t55.5 -14zM332 532l-118 165h84l50 -70l75 70h99z" />
    <glyph glyph-name="uni01EA" unicode="&#x1ea;" horiz-adv-x="748" 
d="M342 -16q-90 0 -156 37.5t-101.5 106t-35.5 162.5q0 82 26.5 157.5t76 135.5t120.5 95t160 35q90 0 156 -37.5t102 -106t36 -163.5q0 -82 -27 -157.5t-77 -135t-121 -94.5t-159 -35zM351 108q58 0 103.5 23.5t77 64.5t48 92.5t16.5 108.5q0 88 -45 140t-128 52
q-59 0 -105 -24.5t-77 -66t-47 -93t-16 -106.5q0 -59 20 -102t58.5 -66t94.5 -23zM357 -223q-50 0 -83 28t-33 74q0 33 14 56.5t33 40t35 25.5l97 -1q-10 -4 -27 -14t-35 -24.5t-30 -32t-12 -37.5q0 -19 12 -28.5t28 -9.5q14 0 28.5 5.5t28.5 16.5l33 -67q-17 -13 -39 -22.5
t-50 -9.5z" />
    <glyph glyph-name="uni01EB" unicode="&#x1eb;" horiz-adv-x="572" 
d="M255 -10q-66 0 -115 28t-77 78.5t-28 116.5q0 58 21 110.5t59 93t89 63.5t112 23q66 0 115.5 -28t76.5 -77.5t27 -115.5q0 -59 -21 -112t-59 -93t-89 -63.5t-111 -23.5zM264 99q35 0 62.5 15.5t46.5 41t29 57t10 63.5q0 51 -26 84.5t-79 33.5q-36 0 -64 -15.5t-46.5 -41
t-28 -56.5t-9.5 -63q0 -50 26.5 -84.5t78.5 -34.5zM259 -223q-50 0 -83 28t-33 74q0 33 14 56.5t33 40t35 25.5l97 -1q-10 -4 -27 -14t-35 -24.5t-30 -32t-12 -37.5q0 -19 12 -28.5t28 -9.5q14 0 28.5 5.5t28.5 16.5l33 -67q-17 -13 -39 -22.5t-50 -9.5z" />
    <glyph glyph-name="Aringacute" unicode="&#x1fa;" horiz-adv-x="674" 
d="M-28 0l378 697h98l181 -697h-138l-115 506l-260 -506h-144zM175 136l57 116h209l27 -116h-293zM396 632q-47 0 -76.5 31.5t-29.5 74.5q0 34 17.5 62t46 45.5t61.5 17.5q44 0 75 -30t31 -75q0 -34 -17.5 -62.5t-46 -46t-61.5 -17.5zM401 699q25 0 39.5 17t14.5 39
q0 17 -11 29t-31 12q-26 0 -40.5 -16.5t-14.5 -36.5q0 -18 11.5 -31t31.5 -13zM410 797l120 142h131l-162 -142h-89z" />
    <glyph glyph-name="aringacute" unicode="&#x1fb;" horiz-adv-x="577" 
d="M222 -10q-59 0 -100 27t-62.5 74.5t-21.5 109.5q0 58 18 112t51 97t78.5 68t100.5 25q41 0 74.5 -16.5t53.5 -49.5t19 -84l-25 7l25 133h117l-69 -493h-118l12 132l31 7q-21 -59 -50.5 -91t-64 -45t-69.5 -13zM258 104q36 0 63.5 16t46.5 42t28.5 58t9.5 64
q0 33 -11 56.5t-32 36t-52 12.5q-36 0 -64 -15.5t-46.5 -41.5t-28.5 -58t-10 -64q0 -33 11.5 -57t33 -36.5t51.5 -12.5zM343 532q-43 0 -73 26.5t-30 70.5q0 34 18.5 61.5t48.5 44t64 16.5q41 0 72 -25.5t31 -70.5q0 -34 -18.5 -62t-48.5 -44.5t-64 -16.5zM351 592
q25 0 40 18t15 38q0 18 -11.5 30.5t-31.5 12.5q-24 0 -39.5 -17.5t-15.5 -38.5q0 -17 11 -30t32 -13zM367 696l120 142h131l-162 -142h-89z" />
    <glyph glyph-name="AEacute" unicode="&#x1fc;" horiz-adv-x="928" 
d="M-28 0l378 697h594l-15 -116h-346l-25 -174h304l-17 -116h-304l-24 -175h346l-17 -116h-476l82 583h-38l-298 -583h-144zM163 136l57 119h217l-17 -119h-257zM492 759l120 142h131l-162 -142h-89z" />
    <glyph glyph-name="aeacute" unicode="&#x1fd;" horiz-adv-x="868" 
d="M204 -10q-48 0 -88.5 16.5t-64.5 49t-24 79.5q0 54 27 89.5t78 52.5t122 17h123l2 21q2 27 -6.5 44.5t-27 26.5t-46.5 9q-33 0 -69.5 -14t-70.5 -49l-84 80q58 51 116.5 71t121.5 20q56 0 95 -18t59 -55q31 36 75 54t92 18q68 0 111 -26.5t64.5 -72.5t21.5 -105
q0 -26 -3.5 -49.5t-9.5 -47.5h-333q0 -7 0.5 -12t2.5 -10q4 -37 26 -56.5t68 -19.5q33 0 63 11.5t56 35.5l87 -75q-46 -43 -96.5 -64t-110.5 -21q-64 0 -105.5 25t-63.5 73h-11q-29 -37 -60.5 -58.5t-65.5 -30.5t-71 -9zM230 90q33 0 61.5 13.5t48 38t24.5 58.5l7 37l18 -32
h-137q-34 0 -56 -7.5t-32.5 -21t-10.5 -32.5q0 -24 20 -39t57 -15zM715 282q2 8 3.5 15.5t1.5 16.5q0 23 -10 42t-29.5 31t-49.5 12q-39 0 -67 -16.5t-44.5 -40.5t-22.5 -49l237 2zM430 555l120 142h131l-162 -142h-89z" />
    <glyph glyph-name="Oslashacute" unicode="&#x1fe;" horiz-adv-x="748" 
d="M342 -16q-90 0 -156 37.5t-101.5 106t-35.5 162.5q0 82 26.5 157.5t76 135.5t120.5 95t160 35q90 0 156 -37.5t102 -106t36 -163.5q0 -82 -27 -157.5t-77 -135t-121 -94.5t-159 -35zM351 108q58 0 103.5 23.5t77 64.5t48 92.5t16.5 108.5q0 88 -45 140t-128 52
q-59 0 -105 -24.5t-77 -66t-47 -93t-16 -106.5q0 -59 20 -102t58.5 -66t94.5 -23zM31 0l625 697h87l-624 -697h-88zM396 759l120 142h131l-162 -142h-89z" />
    <glyph glyph-name="oslashacute" unicode="&#x1ff;" horiz-adv-x="572" 
d="M255 -10q-66 0 -115 28t-77 78.5t-28 116.5q0 58 21 110.5t59 93t89 63.5t112 23q66 0 115.5 -28t76.5 -77.5t27 -115.5q0 -59 -21 -112t-59 -93t-89 -63.5t-111 -23.5zM264 99q35 0 62.5 15.5t46.5 41t29 57t10 63.5q0 51 -26 84.5t-79 33.5q-36 0 -64 -15.5t-46.5 -41
t-28 -56.5t-9.5 -63q0 -50 26.5 -84.5t78.5 -34.5zM31 -43l446 578h64l-446 -578h-64zM281 555l120 142h131l-162 -142h-89z" />
    <glyph glyph-name="uni0218" unicode="&#x218;" horiz-adv-x="575" 
d="M278 -13q-75 0 -132.5 27t-90 75.5t-33.5 112.5l128 25q2 -64 40.5 -94.5t93.5 -30.5q37 0 64 12t41.5 34t14.5 50q0 26 -12.5 44.5t-38 33.5t-64.5 31q-61 25 -100.5 54t-58 65t-18.5 81q0 58 28.5 104.5t79.5 74t119 27.5q75 0 133 -35.5t80 -97.5l-108 -56
q-16 38 -43 56t-63 18q-31 0 -52.5 -11.5t-33 -30.5t-11.5 -43q0 -22 11.5 -39t37.5 -31t68 -31q58 -23 97 -51.5t59 -65.5t20 -87q0 -65 -32.5 -115.5t-90.5 -78t-133 -27.5zM121 -227l66 174h130l-122 -174h-74z" />
    <glyph glyph-name="uni0219" unicode="&#x219;" horiz-adv-x="477" 
d="M211 -10q-56 0 -97 17t-67.5 41t-41.5 46l90 67q18 -33 50 -53t71 -20q27 0 46 7.5t30 20.5t11 30q0 16 -10.5 26.5t-29.5 18t-44 13.5q-25 7 -51.5 17t-50 25t-38.5 38.5t-15 59.5q0 46 25.5 82t70.5 56.5t104 20.5q62 0 108 -25t69 -69l-84 -55q-15 28 -40 40t-56 12
t-55 -12.5t-24 -36.5q0 -17 17.5 -26.5t57.5 -19.5q41 -10 79.5 -25.5t64.5 -43t26 -77.5q0 -52 -27.5 -91.5t-75.5 -61.5t-113 -22zM74 -227l66 174h130l-122 -174h-74z" />
    <glyph glyph-name="uni021A" unicode="&#x21a;" horiz-adv-x="584" 
d="M192 0l81 581h-216l17 116h562l-17 -116h-215l-81 -581h-131zM125 -227l66 174h130l-122 -174h-74z" />
    <glyph glyph-name="uni021B" unicode="&#x21b;" horiz-adv-x="374" 
d="M219 -10q-37 0 -67.5 13t-49.5 40t-19 72q0 9 1 19t3 26l63 448l135 67l-70 -499q-1 -9 -2 -19t-1 -20q0 -22 9.5 -33.5t33.5 -11.5q13 0 27 3t31 7l-14 -100q-21 -6 -41.5 -9t-38.5 -3zM31 396l14 97h323l-14 -97h-323zM59 -227l66 174h130l-122 -174h-74z" />
    <glyph glyph-name="uni0232" unicode="&#x232;" horiz-adv-x="625" 
d="M214 0l39 273l-185 424h145l116 -296l206 296h150l-302 -424l-40 -273h-129zM255 767l18 73h271l-17 -73h-272z" />
    <glyph glyph-name="uni0233" unicode="&#x233;" horiz-adv-x="535" 
d="M37 -204l135 242l-121 455h134l68 -331l166 331h136l-381 -697h-137zM181 563l18 73h271l-17 -73h-272z" />
    <glyph glyph-name="uni0237" unicode="&#x237;" horiz-adv-x="245" 
d="M5 -214q-22 0 -45 4.5t-44 11.5l8 106q13 -3 23 -4.5t16 -1.5q22 0 37 11t19 39l75 541h125l-82 -581q-9 -66 -44.5 -96t-87.5 -30z" />
    <glyph glyph-name="uni0259" unicode="&#x259;" horiz-adv-x="543" 
d="M290 503q77 0 124.5 -29.5t69.5 -77.5t22 -106q0 -56 -17 -109t-51 -96t-84 -69t-115 -26q-68 0 -113 27.5t-67 74.5t-22 106q0 25 3 48t9 46h337v11t-1 10q-4 41 -32 61.5t-71 20.5q-37 0 -71.5 -11.5t-66.5 -34.5l-60 84q43 32 94.5 51t111.5 19zM154 223
q-3 -13 -4 -23t-1 -22q0 -22 9 -42t29 -32.5t52 -12.5q39 0 66.5 16.5t44.5 41.5t24 51h-261z" />
    <glyph glyph-name="uni0272" unicode="&#x272;" horiz-adv-x="565" 
d="M27 0l70 493h119l-11 -119l-18 10q18 46 46 72t61.5 36.5t65.5 10.5q77 0 120 -39t43 -107q0 -7 -0.5 -15t-2.5 -17l-46 -325h-124l40 287q2 10 2.5 18t0.5 16q0 22 -6.5 38.5t-22.5 26t-44 9.5q-32 0 -55.5 -12.5t-39.5 -34.5t-26 -52t-15 -64l-32 -232h-125zM12 -214
q-21 0 -41 4.5t-39 12.5l6 97q13 -4 21.5 -5t11.5 -1q21 0 32 10t14 32l10 64h125l-13 -88q-9 -68 -44.5 -97t-82.5 -29z" />
    <glyph glyph-name="circumflex" unicode="&#x2c6;" horiz-adv-x="389" 
d="M78 541l177 175l131 -175h-94l-48 69l-66 -69h-100z" />
    <glyph glyph-name="caron" unicode="&#x2c7;" horiz-adv-x="389" 
d="M218 532l-118 165h84l50 -70l75 70h99z" />
    <glyph glyph-name="breve" unicode="&#x2d8;" horiz-adv-x="391" 
d="M247 548q-61 0 -102.5 29t-45.5 90q-1 2 -0.5 10t1.5 20h74q-1 -6 -1 -12t1 -11q3 -27 21.5 -41.5t53.5 -14.5q39 0 59.5 20t24.5 59h76q-7 -73 -50.5 -111t-111.5 -38z" />
    <glyph glyph-name="dotaccent" unicode="&#x2d9;" horiz-adv-x="209" 
d="M82 569l18 128h132l-18 -128h-132z" />
    <glyph glyph-name="ring" unicode="&#x2da;" horiz-adv-x="309" 
d="M195 532q-43 0 -73 26.5t-30 70.5q0 34 18.5 61.5t48.5 44t64 16.5q41 0 72 -25.5t31 -70.5q0 -34 -18.5 -62t-48.5 -44.5t-64 -16.5zM203 592q25 0 40 18t15 38q0 18 -11.5 30.5t-31.5 12.5q-24 0 -39.5 -17.5t-15.5 -38.5q0 -17 11 -30t32 -13z" />
    <glyph glyph-name="ogonek" unicode="&#x2db;" horiz-adv-x="307" 
d="M102 -223q-50 0 -83 28t-33 74q0 33 14 56.5t33 40t35 25.5l97 -1q-10 -4 -27 -14t-35 -24.5t-30 -32t-12 -37.5q0 -19 12 -28.5t28 -9.5q14 0 28.5 5.5t28.5 16.5l33 -67q-17 -13 -39 -22.5t-50 -9.5z" />
    <glyph glyph-name="tilde" unicode="&#x2dc;" horiz-adv-x="418" 
d="M318 556q-37 0 -54 14t-29 30q-8 11 -15 17t-17 6q-18 0 -32 -20t-20 -52l-70 13q16 68 49 102t78 34q31 0 47 -14t26 -28q8 -11 16 -19t21 -8q16 0 30 20t21 52l72 -12q-16 -68 -48 -101.5t-75 -33.5z" />
    <glyph glyph-name="hungarumlaut" unicode="&#x2dd;" horiz-adv-x="523" 
d="M273 555l121 142h136l-157 -142h-100zM80 555l120 142h116l-139 -142h-97z" />
    <glyph glyph-name="uni02F5" unicode="&#x2f5;" horiz-adv-x="560" 
d="M219 329l-132 164h132l88 -164h-88zM430 329l-129 164h130l87 -164h-88z" />
    <glyph glyph-name="uni02F6" unicode="&#x2f6;" horiz-adv-x="560" 
d="M62 329l134 164h135l-175 -164h-94zM274 329l135 164h135l-176 -164h-94z" />
    <glyph glyph-name="gravecomb" unicode="&#x300;" 
d="M220 555l-120 142h128l80 -142h-88z" />
    <glyph glyph-name="acutecomb" unicode="&#x301;" 
d="M80 555l120 142h131l-162 -142h-89z" />
    <glyph glyph-name="uni0302" unicode="&#x302;" 
d="M78 541l177 175l131 -175h-94l-48 69l-66 -69h-100z" />
    <glyph glyph-name="tildecomb" unicode="&#x303;" 
d="M318 556q-37 0 -54 14t-29 30q-8 11 -15 17t-17 6q-18 0 -32 -20t-20 -52l-70 13q16 68 49 102t78 34q31 0 47 -14t26 -28q8 -11 16 -19t21 -8q16 0 30 20t21 52l72 -12q-16 -68 -48 -101.5t-75 -33.5z" />
    <glyph glyph-name="uni0304" unicode="&#x304;" 
d="M81 563l18 73h271l-17 -73h-272z" />
    <glyph glyph-name="uni0306" unicode="&#x306;" 
d="M247 548q-61 0 -102.5 29t-45.5 90q-1 2 -0.5 10t1.5 20h74q-1 -6 -1 -12t1 -11q3 -27 21.5 -41.5t53.5 -14.5q39 0 59.5 20t24.5 59h76q-7 -73 -50.5 -111t-111.5 -38z" />
    <glyph glyph-name="uni0307" unicode="&#x307;" 
d="M82 569l18 128h132l-18 -128h-132z" />
    <glyph glyph-name="uni0308" unicode="&#x308;" 
d="M275 569l18 128h132l-18 -128h-132zM82 569l18 128h131l-18 -128h-131z" />
    <glyph glyph-name="hookabovecomb" unicode="&#x309;" 
d="M114 518l-10 41q20 4 37 10t28 13.5t12 18.5q1 14 -17.5 20.5t-50.5 6.5h-22l17 69h10q68 0 109 -24.5t39 -67.5q-2 -35 -25 -53t-56.5 -24.5t-70.5 -9.5z" />
    <glyph glyph-name="uni030A" unicode="&#x30a;" 
d="M195 532q-43 0 -73 26.5t-30 70.5q0 34 18.5 61.5t48.5 44t64 16.5q41 0 72 -25.5t31 -70.5q0 -34 -18.5 -62t-48.5 -44.5t-64 -16.5zM203 592q25 0 40 18t15 38q0 18 -11.5 30.5t-31.5 12.5q-24 0 -39.5 -17.5t-15.5 -38.5q0 -17 11 -30t32 -13z" />
    <glyph glyph-name="uni030B" unicode="&#x30b;" 
d="M273 555l121 142h136l-157 -142h-100zM80 555l120 142h116l-139 -142h-97z" />
    <glyph glyph-name="uni030C" unicode="&#x30c;" 
d="M218 532l-118 165h84l50 -70l75 70h99z" />
    <glyph glyph-name="uni030F" unicode="&#x30f;" 
d="M213 533l-113 164h126l72 -164h-85zM368 533l-92 164h106l71 -164h-85z" />
    <glyph glyph-name="uni0312" unicode="&#x312;" 
d="M80 552l149 156h76l-93 -156h-132z" />
    <glyph glyph-name="uni031B" unicode="&#x31b;" 
d="M74 493l8 75q44 0 66 23t29 69l5 37h84l-6 -45q-9 -71 -55.5 -115t-130.5 -44z" />
    <glyph glyph-name="dotbelowcomb" unicode="&#x323;" 
d="M-16 -173l20 112h133l-20 -112h-133z" />
    <glyph glyph-name="uni0326" unicode="&#x326;" 
d="M-30 -227l66 174h130l-122 -174h-74z" />
    <glyph glyph-name="uni0327" unicode="&#x327;" 
d="M61 -259q-15 0 -40 7t-44 24l40 60q10 -9 22 -14.5t24 -5.5q19 0 30.5 10t11.5 30q0 17 -9.5 27.5t-25.5 16t-35.5 7t-39.5 1.5l68 107l75 -1l-47 -58q26 -5 45.5 -17.5t31 -32t11.5 -47.5q0 -49 -33 -81.5t-85 -32.5z" />
    <glyph glyph-name="uni0328" unicode="&#x328;" 
d="M102 -223q-50 0 -83 28t-33 74q0 33 14 56.5t33 40t35 25.5l97 -1q-10 -4 -27 -14t-35 -24.5t-30 -32t-12 -37.5q0 -19 12 -28.5t28 -9.5q14 0 28.5 5.5t28.5 16.5l33 -67q-17 -13 -39 -22.5t-50 -9.5z" />
    <glyph glyph-name="uni0335" unicode="&#x335;" 
d="M37 250l12 83h314l-12 -83h-314z" />
    <glyph glyph-name="uni0336" unicode="&#x336;" 
d="M40 244l15 73h659l-15 -73h-659z" />
    <glyph glyph-name="uni0337" unicode="&#x337;" 
d="M34 191l23 128l266 184l-24 -126z" />
    <glyph glyph-name="uni0338" unicode="&#x338;" 
d="M2 0l446 578h64l-446 -578h-64z" />
    <glyph glyph-name="uni0374" unicode="&#x374;" horiz-adv-x="292" 
d="M51 419l102 278h147l-166 -278h-83z" />
    <glyph glyph-name="uni0375" unicode="&#x375;" horiz-adv-x="299" 
d="M49 3l165 279h84l-103 -279h-146z" />
    <glyph glyph-name="uni037E" unicode="&#x37e;" horiz-adv-x="240" 
d="M-50 -149l109 280h141l-165 -280h-85zM81 338l19 133h134l-19 -133h-134z" />
    <glyph glyph-name="tonos" unicode="&#x384;" horiz-adv-x="263" 
d="M80 555l87 142h120l-114 -142h-93z" />
    <glyph glyph-name="dieresistonos" unicode="&#x385;" horiz-adv-x="474" 
d="M82 569l18 128h108l-18 -128h-108zM372 569l17 128h109l-18 -128h-108zM301 580l-61 13l70 218l95 -19z" />
    <glyph glyph-name="anoteleia" unicode="&#x387;" horiz-adv-x="349" 
d="M48 121l35 253h252l-36 -253h-251z" />
    <glyph glyph-name="uni0394" unicode="&#x394;" horiz-adv-x="727" 
d="M0 0l377 697h98l182 -697h-657zM204 119h285l-86 387z" />
    <glyph glyph-name="uni03A9" unicode="&#x3a9;" horiz-adv-x="821" 
d="M14 0l17 122h143l28 -31q-72 32 -112 97.5t-40 149.5q0 74 28.5 141t80 119.5t121.5 83.5t152 31q91 0 160 -37.5t107 -102t38 -148.5q0 -73 -28 -139t-79 -117t-121 -81l28 34h147l-17 -122h-282l11 102q67 31 112.5 80.5t68.5 110t23 122.5q0 81 -44 127.5t-127 46.5
q-60 0 -106.5 -23.5t-78 -63.5t-48 -90.5t-16.5 -105.5q0 -71 32.5 -125t93.5 -82l-11 -99h-281z" />
    <glyph glyph-name="uni03BC" unicode="&#x3bc;" horiz-adv-x="564" 
d="M-3 -162l92 655h125l-40 -285l-2 -20t-1 -17q0 -32 15.5 -52.5t58.5 -20.5q47 0 75 27t43 74t23 106l26 188h125l-70 -493h-112l9 114l16 -19q-32 -57 -77.5 -81t-96.5 -24q-21 0 -35 6t-22 16l-27 -174h-125z" />
    <glyph glyph-name="pi" unicode="&#x3c0;" horiz-adv-x="591" 
d="M460 -10q-59 0 -90.5 26.5t-31.5 76.5q0 6 0.5 12.5t1.5 13.5l38 270h-135l-54 -389h-124l54 389h-63l15 104h514l-15 -104h-69l-33 -235q-1 -7 -1 -11.5v-7.5q0 -17 7 -23.5t20 -6.5q11 0 21.5 4t17.5 8l11 -104q-24 -14 -43 -18.5t-41 -4.5z" />
    <glyph glyph-name="uni1E20" unicode="&#x1e20;" horiz-adv-x="735" 
d="M333 -16q-85 0 -149.5 37.5t-99.5 105.5t-35 160q0 84 26.5 160t76.5 136t120.5 95t157.5 35q114 0 188 -57.5t96 -154.5l-125 -37q-14 60 -55.5 92.5t-106.5 32.5q-60 0 -106.5 -25t-78.5 -67t-48.5 -95.5t-16.5 -111.5q0 -85 44.5 -133.5t124.5 -48.5q35 0 71.5 10
t69 33.5t55.5 64t31 100.5l6 37l15 -90h-198l16 116h285l-52 -379h-113l-4 113l21 -21q-24 -36 -57.5 -60.5t-73.5 -36t-85 -11.5zM314 767l18 73h271l-17 -73h-272z" />
    <glyph glyph-name="uni1E21" unicode="&#x1e21;" horiz-adv-x="578" 
d="M218 -214q-58 0 -99.5 16t-68.5 42t-44 56l103 70q14 -30 39.5 -54t70.5 -24q29 0 59 10t52.5 37.5t29.5 77.5l13 105l16 -15q-32 -55 -74 -77t-93 -22q-57 0 -98 27t-62.5 74t-21.5 106q0 55 17.5 106t50.5 92t77.5 65.5t98.5 24.5q61 0 97 -28t45 -75l-13 -13l20 106
h118l-68 -482q-11 -78 -46.5 -127.5t-91.5 -73.5t-127 -24zM269 120q30 0 55.5 12.5t43.5 34t28 50.5t10 63q0 33 -11.5 57t-34 38t-54.5 14q-31 0 -57 -12.5t-45 -34.5t-29 -51t-10 -62q0 -32 12.5 -56.5t36 -38.5t55.5 -14zM205 563l18 73h271l-17 -73h-272z" />
    <glyph glyph-name="uni1E44" unicode="&#x1e44;" horiz-adv-x="689" 
d="M32 0l98 697h132l251 -528h-31l74 528h129l-98 -697h-133l-249 529h31l-75 -529h-129zM351 773l18 128h132l-18 -128h-132z" />
    <glyph glyph-name="uni1E45" unicode="&#x1e45;" horiz-adv-x="564" 
d="M26 0l70 493h118l-10 -112l-20 4q19 45 47 70.5t61.5 36.5t66.5 11q78 0 120 -39.5t42 -109.5q0 -9 -0.5 -17.5t-2.5 -18.5l-44 -318h-125l39 279q2 12 2.5 21t0.5 18q0 40 -17 58.5t-54 18.5q-56 0 -90 -40t-46 -122l-33 -233h-125zM255 569l18 128h132l-18 -128h-132z
" />
    <glyph glyph-name="Wgrave" unicode="&#x1e80;" horiz-adv-x="979" 
d="M188 0l-111 697h134l73 -499l198 459h128l67 -459l216 499h137l-308 -697h-125l-81 502h21l-223 -502h-126zM519 759l-120 142h128l80 -142h-88z" />
    <glyph glyph-name="wgrave" unicode="&#x1e81;" horiz-adv-x="755" 
d="M137 0l-83 493h130l40 -303l133 303h106l47 -301l126 301h135l-222 -493h-111l-49 317l-139 -317h-113zM378 555l-120 142h128l80 -142h-88z" />
    <glyph glyph-name="Wacute" unicode="&#x1e82;" horiz-adv-x="979" 
d="M188 0l-111 697h134l73 -499l198 459h128l67 -459l216 499h137l-308 -697h-125l-81 502h21l-223 -502h-126zM513 759l120 142h131l-162 -142h-89z" />
    <glyph glyph-name="wacute" unicode="&#x1e83;" horiz-adv-x="755" 
d="M137 0l-83 493h130l40 -303l133 303h106l47 -301l126 301h135l-222 -493h-111l-49 317l-139 -317h-113zM372 555l120 142h131l-162 -142h-89z" />
    <glyph glyph-name="Wdieresis" unicode="&#x1e84;" horiz-adv-x="979" 
d="M188 0l-111 697h134l73 -499l198 459h128l67 -459l216 499h137l-308 -697h-125l-81 502h21l-223 -502h-126zM594 773l18 128h132l-18 -128h-132zM401 773l18 128h131l-18 -128h-131z" />
    <glyph glyph-name="wdieresis" unicode="&#x1e85;" horiz-adv-x="755" 
d="M137 0l-83 493h130l40 -303l133 303h106l47 -301l126 301h135l-222 -493h-111l-49 317l-139 -317h-113zM453 569l18 128h132l-18 -128h-132zM260 569l18 128h131l-18 -128h-131z" />
    <glyph glyph-name="uni1E9E" unicode="&#x1e9e;" horiz-adv-x="797" 
d="M32 0l98 697h663l-16 -116h-533l-83 -581h-129zM490 -13q-72 0 -126.5 27.5t-85 76t-32.5 111.5l131 26q-2 -65 33.5 -95.5t90.5 -30.5q35 0 64 12.5t46.5 35.5t17.5 53q0 23 -12 40t-37 33.5t-67 34.5q-59 26 -98 51.5t-58 58t-19 78.5q0 24 7.5 46t22 40t34.5 28
l134 -8q-23 -6 -38.5 -19.5t-23 -31t-7.5 -38.5q0 -23 12.5 -39.5t38 -31t65.5 -33.5q53 -25 92.5 -50t61 -57t21.5 -79q0 -71 -37 -124.5t-98.5 -84t-132.5 -30.5z" />
    <glyph glyph-name="uni1EA0" unicode="&#x1ea0;" horiz-adv-x="674" 
d="M-28 0l378 697h98l181 -697h-138l-115 506l-260 -506h-144zM175 136l57 116h209l27 -116h-293zM207 -173l20 112h133l-20 -112h-133z" />
    <glyph glyph-name="uni1EA1" unicode="&#x1ea1;" horiz-adv-x="577" 
d="M222 -10q-59 0 -100 27t-62.5 74.5t-21.5 109.5q0 58 18 112t51 97t78.5 68t100.5 25q41 0 74.5 -16.5t53.5 -49.5t19 -84l-25 7l25 133h117l-69 -493h-118l12 132l31 7q-21 -59 -50.5 -91t-64 -45t-69.5 -13zM258 104q36 0 63.5 16t46.5 42t28.5 58t9.5 64
q0 33 -11 56.5t-32 36t-52 12.5q-36 0 -64 -15.5t-46.5 -41.5t-28.5 -58t-10 -64q0 -33 11.5 -57t33 -36.5t51.5 -12.5zM158 -173l20 112h133l-20 -112h-133z" />
    <glyph glyph-name="uni1EA2" unicode="&#x1ea2;" horiz-adv-x="674" 
d="M-28 0l378 697h98l181 -697h-138l-115 506l-260 -506h-144zM175 136l57 116h209l27 -116h-293zM375 722l-10 41q20 4 37 10t28 13.5t12 18.5q1 14 -17.5 20.5t-50.5 6.5h-22l17 69h10q68 0 109 -24.5t39 -67.5q-2 -35 -25 -53t-56.5 -24.5t-70.5 -9.5z" />
    <glyph glyph-name="uni1EA3" unicode="&#x1ea3;" horiz-adv-x="577" 
d="M222 -10q-59 0 -100 27t-62.5 74.5t-21.5 109.5q0 58 18 112t51 97t78.5 68t100.5 25q41 0 74.5 -16.5t53.5 -49.5t19 -84l-25 7l25 133h117l-69 -493h-118l12 132l31 7q-21 -59 -50.5 -91t-64 -45t-69.5 -13zM258 104q36 0 63.5 16t46.5 42t28.5 58t9.5 64
q0 33 -11 56.5t-32 36t-52 12.5q-36 0 -64 -15.5t-46.5 -41.5t-28.5 -58t-10 -64q0 -33 11.5 -57t33 -36.5t51.5 -12.5zM298 518l-10 41q20 4 37 10t28 13.5t12 18.5q1 14 -17.5 20.5t-50.5 6.5h-22l17 69h10q68 0 109 -24.5t39 -67.5q-2 -35 -25 -53t-56.5 -24.5
t-70.5 -9.5z" />
    <glyph glyph-name="uni1EA4" unicode="&#x1ea4;" horiz-adv-x="674" 
d="M-28 0l378 697h98l181 -697h-138l-115 506l-260 -506h-144zM175 136l57 116h209l27 -116h-293zM249 742l175 143l138 -143h-97l-48 53l-67 -53h-101zM491 853l82 133h104l-110 -133h-76z" />
    <glyph glyph-name="uni1EA5" unicode="&#x1ea5;" horiz-adv-x="577" 
d="M222 -10q-59 0 -100 27t-62.5 74.5t-21.5 109.5q0 58 18 112t51 97t78.5 68t100.5 25q41 0 74.5 -16.5t53.5 -49.5t19 -84l-25 7l25 133h117l-69 -493h-118l12 132l31 7q-21 -59 -50.5 -91t-64 -45t-69.5 -13zM258 104q36 0 63.5 16t46.5 42t28.5 58t9.5 64
q0 33 -11 56.5t-32 36t-52 12.5q-36 0 -64 -15.5t-46.5 -41.5t-28.5 -58t-10 -64q0 -33 11.5 -57t33 -36.5t51.5 -12.5zM172 541l178 159l135 -159h-97l-48 53l-66 -53h-102zM414 652l83 132h104l-111 -132h-76z" />
    <glyph glyph-name="uni1EA6" unicode="&#x1ea6;" horiz-adv-x="674" 
d="M-28 0l378 697h98l181 -697h-138l-115 506l-260 -506h-144zM175 136l57 116h209l27 -116h-293zM249 742l175 143l138 -143h-97l-48 53l-66 -53h-102zM526 853l-73 133h99l46 -133h-72z" />
    <glyph glyph-name="uni1EA7" unicode="&#x1ea7;" horiz-adv-x="577" 
d="M222 -10q-59 0 -100 27t-62.5 74.5t-21.5 109.5q0 58 18 112t51 97t78.5 68t100.5 25q41 0 74.5 -16.5t53.5 -49.5t19 -84l-25 7l25 133h117l-69 -493h-118l12 132l31 7q-21 -59 -50.5 -91t-64 -45t-69.5 -13zM258 104q36 0 63.5 16t46.5 42t28.5 58t9.5 64
q0 33 -11 56.5t-32 36t-52 12.5q-36 0 -64 -15.5t-46.5 -41.5t-28.5 -58t-10 -64q0 -33 11.5 -57t33 -36.5t51.5 -12.5zM172 541l178 159l135 -159h-97l-48 53l-66 -53h-102zM456 652l-73 132h99l45 -132h-71z" />
    <glyph glyph-name="uni1EA8" unicode="&#x1ea8;" horiz-adv-x="674" 
d="M-28 0l378 697h98l181 -697h-138l-115 506l-260 -506h-144zM175 136l57 116h209l27 -116h-293zM249 742l175 143l138 -143h-97l-48 53l-66 -53h-102zM523 816l-14 45q24 3 40.5 12.5t16.5 25.5q0 14 -17.5 20t-40.5 6h-18l9 65h12q67 0 97.5 -23.5t28.5 -60.5
q-2 -33 -18.5 -51t-42 -26t-53.5 -13z" />
    <glyph glyph-name="uni1EA9" unicode="&#x1ea9;" horiz-adv-x="577" 
d="M222 -10q-59 0 -100 27t-62.5 74.5t-21.5 109.5q0 58 18 112t51 97t78.5 68t100.5 25q41 0 74.5 -16.5t53.5 -49.5t19 -84l-25 7l25 133h117l-69 -493h-118l12 132l31 7q-21 -59 -50.5 -91t-64 -45t-69.5 -13zM258 104q36 0 63.5 16t46.5 42t28.5 58t9.5 64
q0 33 -11 56.5t-32 36t-52 12.5q-36 0 -64 -15.5t-46.5 -41.5t-28.5 -58t-10 -64q0 -33 11.5 -57t33 -36.5t51.5 -12.5zM172 541l178 159l135 -159h-97l-48 53l-66 -53h-102zM443 632l-15 45q15 2 27.5 6.5t21 12.5t9.5 21q3 16 -15.5 20t-42.5 4h-18l9 65h12q62 0 94 -21.5
t32 -60.5q0 -36 -16 -54.5t-42.5 -25.5t-55.5 -12z" />
    <glyph glyph-name="uni1EAA" unicode="&#x1eaa;" horiz-adv-x="674" 
d="M-28 0l378 697h98l181 -697h-138l-115 506l-260 -506h-144zM175 136l57 116h209l27 -116h-293zM249 742l175 143l138 -143h-97l-48 53l-67 -53h-101zM493 884q-26 0 -42.5 6t-27 14.5t-20.5 14.5t-23 6q-17 0 -26.5 -10t-13.5 -23h-69q10 48 38.5 73.5t71.5 25.5
q24 0 39.5 -6t27 -14t22 -14t23.5 -6t22 9t13 22h73q-10 -48 -37 -73t-71 -25z" />
    <glyph glyph-name="uni1EAB" unicode="&#x1eab;" horiz-adv-x="577" 
d="M222 -10q-59 0 -100 27t-62.5 74.5t-21.5 109.5q0 58 18 112t51 97t78.5 68t100.5 25q41 0 74.5 -16.5t53.5 -49.5t19 -84l-25 7l25 133h117l-69 -493h-118l12 132l31 7q-21 -59 -50.5 -91t-64 -45t-69.5 -13zM258 104q36 0 63.5 16t46.5 42t28.5 58t9.5 64
q0 33 -11 56.5t-32 36t-52 12.5q-36 0 -64 -15.5t-46.5 -41.5t-28.5 -58t-10 -64q0 -33 11.5 -57t33 -36.5t51.5 -12.5zM172 541l178 159l135 -159h-97l-48 53l-66 -53h-102zM426 696q-27 0 -42 6t-25.5 14.5t-20.5 15t-27 6.5q-21 0 -32.5 -11.5t-14.5 -25.5l-67 7
q8 45 35 70.5t67 25.5q26 0 43.5 -5.5t30 -13t22 -13t18.5 -5.5q15 0 25 7.5t13 23.5l70 -8q-7 -45 -32 -69.5t-63 -24.5z" />
    <glyph glyph-name="uni1EAC" unicode="&#x1eac;" horiz-adv-x="674" 
d="M-28 0l378 697h98l181 -697h-138l-115 506l-260 -506h-144zM175 136l57 116h209l27 -116h-293zM207 -173l20 112h133l-20 -112h-133zM253 745l177 175l131 -175h-94l-48 69l-66 -69h-100z" />
    <glyph glyph-name="uni1EAD" unicode="&#x1ead;" horiz-adv-x="577" 
d="M222 -10q-59 0 -100 27t-62.5 74.5t-21.5 109.5q0 58 18 112t51 97t78.5 68t100.5 25q41 0 74.5 -16.5t53.5 -49.5t19 -84l-25 7l25 133h117l-69 -493h-118l12 132l31 7q-21 -59 -50.5 -91t-64 -45t-69.5 -13zM258 104q36 0 63.5 16t46.5 42t28.5 58t9.5 64
q0 33 -11 56.5t-32 36t-52 12.5q-36 0 -64 -15.5t-46.5 -41.5t-28.5 -58t-10 -64q0 -33 11.5 -57t33 -36.5t51.5 -12.5zM158 -173l20 112h133l-20 -112h-133zM176 541l177 175l131 -175h-94l-48 69l-66 -69h-100z" />
    <glyph glyph-name="uni1EAE" unicode="&#x1eae;" horiz-adv-x="674" 
d="M-28 0l378 697h98l181 -697h-138l-115 506l-260 -506h-144zM175 136l57 116h209l27 -116h-293zM406 738q-45 0 -77.5 14.5t-49 43t-13.5 69.5h78q-2 -30 18 -45t58 -15q32 0 53.5 15t24.5 45h79q-11 -69 -54.5 -98t-116.5 -29zM380 881l73 104h99l-96 -104h-76z" />
    <glyph glyph-name="uni1EAF" unicode="&#x1eaf;" horiz-adv-x="577" 
d="M222 -10q-59 0 -100 27t-62.5 74.5t-21.5 109.5q0 58 18 112t51 97t78.5 68t100.5 25q41 0 74.5 -16.5t53.5 -49.5t19 -84l-25 7l25 133h117l-69 -493h-118l12 132l31 7q-21 -59 -50.5 -91t-64 -45t-69.5 -13zM258 104q36 0 63.5 16t46.5 42t28.5 58t9.5 64
q0 33 -11 56.5t-32 36t-52 12.5q-36 0 -64 -15.5t-46.5 -41.5t-28.5 -58t-10 -64q0 -33 11.5 -57t33 -36.5t51.5 -12.5zM338 548q-74 0 -109.5 30t-35.5 89q0 7 1 15.5t2 17.5l79 -6q-1 -6 -1.5 -10.5t-0.5 -9.5q0 -31 17 -42.5t44 -11.5q39 0 64 19.5t31 60.5l79 -6
q-12 -80 -53.5 -113t-116.5 -33zM311 707l79 124h102l-103 -124h-78z" />
    <glyph glyph-name="uni1EB0" unicode="&#x1eb0;" horiz-adv-x="674" 
d="M-28 0l378 697h98l181 -697h-138l-115 506l-260 -506h-144zM175 136l57 116h209l27 -116h-293zM411 738q-45 0 -77.5 14.5t-49 43t-13.5 69.5h78q-2 -30 17.5 -45t52.5 -15q36 0 58.5 15t25.5 45h79q-11 -69 -54.5 -98t-116.5 -29zM394 881l-72 104h94l51 -104h-73z" />
    <glyph glyph-name="uni1EB1" unicode="&#x1eb1;" horiz-adv-x="577" 
d="M222 -10q-59 0 -100 27t-62.5 74.5t-21.5 109.5q0 58 18 112t51 97t78.5 68t100.5 25q41 0 74.5 -16.5t53.5 -49.5t19 -84l-25 7l25 133h117l-69 -493h-118l12 132l31 7q-21 -59 -50.5 -91t-64 -45t-69.5 -13zM258 104q36 0 63.5 16t46.5 42t28.5 58t9.5 64
q0 33 -11 56.5t-32 36t-52 12.5q-36 0 -64 -15.5t-46.5 -41.5t-28.5 -58t-10 -64q0 -33 11.5 -57t33 -36.5t51.5 -12.5zM338 548q-74 0 -109.5 30t-35.5 89q0 7 1 15.5t2 17.5l79 -6q-1 -6 -1.5 -10.5t-0.5 -9.5q0 -31 17 -42.5t44 -11.5q39 0 64 19.5t31 60.5l79 -6
q-12 -80 -53.5 -113t-116.5 -33zM322 707l-69 124h98l43 -124h-72z" />
    <glyph glyph-name="uni1EB2" unicode="&#x1eb2;" horiz-adv-x="674" 
d="M-28 0l378 697h98l181 -697h-138l-115 506l-260 -506h-144zM175 136l57 116h209l27 -116h-293zM409 738q-45 0 -77.5 14.5t-49 43t-13.5 69.5h78q-2 -30 17 -45t49 -15q39 0 62 15t26 45h79q-11 -69 -54.5 -98t-116.5 -29zM388 851l-10 36q13 1 23.5 5t16.5 10.5t6 17.5
q0 14 -17.5 18t-40.5 4h-18l7 52h12q63 0 95.5 -18.5t32.5 -50.5q0 -27 -13.5 -41.5t-38 -21.5t-55.5 -11z" />
    <glyph glyph-name="uni1EB3" unicode="&#x1eb3;" horiz-adv-x="577" 
d="M222 -10q-59 0 -100 27t-62.5 74.5t-21.5 109.5q0 58 18 112t51 97t78.5 68t100.5 25q41 0 74.5 -16.5t53.5 -49.5t19 -84l-25 7l25 133h117l-69 -493h-118l12 132l31 7q-21 -59 -50.5 -91t-64 -45t-69.5 -13zM258 104q36 0 63.5 16t46.5 42t28.5 58t9.5 64
q0 33 -11 56.5t-32 36t-52 12.5q-36 0 -64 -15.5t-46.5 -41.5t-28.5 -58t-10 -64q0 -33 11.5 -57t33 -36.5t51.5 -12.5zM338 548q-74 0 -109.5 30t-35.5 89q0 7 1 15.5t2 17.5l79 -6q-1 -6 -1.5 -10.5t-0.5 -9.5q0 -31 17 -42.5t44 -11.5q39 0 64 19.5t31 60.5l79 -6
q-12 -80 -53.5 -113t-116.5 -33zM329 685l-15 45q25 3 40.5 12.5t16.5 29.5q2 15 -16 18.5t-41 3.5h-18l9 65h12q66 0 97.5 -24t28.5 -67q-3 -32 -19 -48.5t-41 -23.5t-54 -11z" />
    <glyph glyph-name="uni1EB4" unicode="&#x1eb4;" horiz-adv-x="674" 
d="M-28 0l378 697h98l181 -697h-138l-115 506l-260 -506h-144zM175 136l57 116h209l27 -116h-293zM411 738q-45 0 -77.5 14.5t-49 43t-13.5 69.5h78q-2 -30 17.5 -45t52.5 -15q36 0 58.5 15t25.5 45h79q-11 -69 -54.5 -98t-116.5 -29zM494 884q-26 0 -42.5 6t-27 14.5
t-20.5 14.5t-23 6q-17 0 -26.5 -10t-13.5 -23h-69q10 48 38.5 73.5t71.5 25.5q24 0 39.5 -6t27 -14t22 -14t23.5 -6t22 9t13 22h73q-10 -48 -37 -73t-71 -25z" />
    <glyph glyph-name="uni1EB5" unicode="&#x1eb5;" horiz-adv-x="577" 
d="M222 -10q-59 0 -100 27t-62.5 74.5t-21.5 109.5q0 58 18 112t51 97t78.5 68t100.5 25q41 0 74.5 -16.5t53.5 -49.5t19 -84l-25 7l25 133h117l-69 -493h-118l12 132l31 7q-21 -59 -50.5 -91t-64 -45t-69.5 -13zM258 104q36 0 63.5 16t46.5 42t28.5 58t9.5 64
q0 33 -11 56.5t-32 36t-52 12.5q-36 0 -64 -15.5t-46.5 -41.5t-28.5 -58t-10 -64q0 -33 11.5 -57t33 -36.5t51.5 -12.5zM338 548q-74 0 -109.5 30t-35.5 89q0 7 1 15.5t2 17.5l79 -6q-1 -6 -1.5 -10.5t-0.5 -9.5q0 -31 17 -42.5t44 -11.5q39 0 64 19.5t31 60.5l79 -6
q-12 -80 -53.5 -113t-116.5 -33zM431 728q-26 0 -41.5 6.5t-25.5 15t-20.5 14.5t-26.5 6q-20 0 -31.5 -10.5t-15.5 -26.5l-67 8q8 45 36 70t66 25q26 0 43.5 -5.5t30 -13t22 -13t19.5 -5.5q29 0 37 31l70 -7q-7 -44 -32 -69.5t-64 -25.5z" />
    <glyph glyph-name="uni1EB6" unicode="&#x1eb6;" horiz-adv-x="674" 
d="M-28 0l378 697h98l181 -697h-138l-115 506l-260 -506h-144zM175 136l57 116h209l27 -116h-293zM207 -173l20 112h133l-20 -112h-133zM405 738q-45 0 -77.5 14.5t-49 43t-13.5 69.5h78q-2 -30 17.5 -45t52.5 -15q36 0 58.5 15t25.5 45h79q-11 -69 -54.5 -98t-116.5 -29z
" />
    <glyph glyph-name="uni1EB7" unicode="&#x1eb7;" horiz-adv-x="577" 
d="M222 -10q-59 0 -100 27t-62.5 74.5t-21.5 109.5q0 58 18 112t51 97t78.5 68t100.5 25q41 0 74.5 -16.5t53.5 -49.5t19 -84l-25 7l25 133h117l-69 -493h-118l12 132l31 7q-21 -59 -50.5 -91t-64 -45t-69.5 -13zM258 104q36 0 63.5 16t46.5 42t28.5 58t9.5 64
q0 33 -11 56.5t-32 36t-52 12.5q-36 0 -64 -15.5t-46.5 -41.5t-28.5 -58t-10 -64q0 -33 11.5 -57t33 -36.5t51.5 -12.5zM158 -173l20 112h133l-20 -112h-133zM331 548q-61 0 -102.5 29t-45.5 90q-1 2 -0.5 10t1.5 20h74q-1 -6 -1 -12t1 -11q3 -27 21.5 -41.5t53.5 -14.5
q39 0 59.5 20t24.5 59h76q-7 -73 -50.5 -111t-111.5 -38z" />
    <glyph glyph-name="uni1EB8" unicode="&#x1eb8;" horiz-adv-x="578" 
d="M32 0l98 697h464l-15 -116h-335l-24 -166h312l-16 -115h-312l-26 -184h335l-17 -116h-464zM169 -173l20 112h133l-20 -112h-133z" />
    <glyph glyph-name="uni1EB9" unicode="&#x1eb9;" horiz-adv-x="543" 
d="M253 -10q-77 0 -125 29.5t-70 78t-22 105.5q0 56 17.5 109t51.5 96t84 69t115 26q69 0 113.5 -27.5t66.5 -74.5t22 -106q0 -25 -3 -48t-9 -46h-337v-11t1 -10q4 -41 32 -61.5t71 -20.5q37 0 71.5 12t66.5 34l59 -84q-42 -32 -93 -51t-112 -19zM389 270q3 13 4 23t1 22
q0 22 -9 42t-28.5 32.5t-52.5 12.5q-38 0 -66 -16.5t-45 -41.5t-24 -51h261zM152 -173l20 112h133l-20 -112h-133z" />
    <glyph glyph-name="uni1EBA" unicode="&#x1eba;" horiz-adv-x="578" 
d="M32 0l98 697h464l-15 -116h-335l-24 -166h312l-16 -115h-312l-26 -184h335l-17 -116h-464zM337 722l-10 41q20 4 37 10t28 13.5t12 18.5q1 14 -17.5 20.5t-50.5 6.5h-22l17 69h10q68 0 109 -24.5t39 -67.5q-2 -35 -25 -53t-56.5 -24.5t-70.5 -9.5z" />
    <glyph glyph-name="uni1EBB" unicode="&#x1ebb;" horiz-adv-x="543" 
d="M253 -10q-77 0 -125 29.5t-70 78t-22 105.5q0 56 17.5 109t51.5 96t84 69t115 26q69 0 113.5 -27.5t66.5 -74.5t22 -106q0 -25 -3 -48t-9 -46h-337v-11t1 -10q4 -41 32 -61.5t71 -20.5q37 0 71.5 12t66.5 34l59 -84q-42 -32 -93 -51t-112 -19zM389 270q3 13 4 23t1 22
q0 22 -9 42t-28.5 32.5t-52.5 12.5q-38 0 -66 -16.5t-45 -41.5t-24 -51h261zM284 518l-10 41q20 4 37 10t28 13.5t12 18.5q1 14 -17.5 20.5t-50.5 6.5h-22l17 69h10q68 0 109 -24.5t39 -67.5q-2 -35 -25 -53t-56.5 -24.5t-70.5 -9.5z" />
    <glyph glyph-name="uni1EBC" unicode="&#x1ebc;" horiz-adv-x="578" 
d="M32 0l98 697h464l-15 -116h-335l-24 -166h312l-16 -115h-312l-26 -184h335l-17 -116h-464zM437 742q-24 0 -40 6.5t-27 16t-19 19t-15.5 16t-17.5 6.5q-17 0 -29 -17t-17 -48l-70 7q8 62 40 94t79 32q21 0 36 -7t26 -16.5t19.5 -19t16 -16t16.5 -6.5q14 0 27 17.5
t18 47.5l73 -6q-8 -63 -39 -94.5t-77 -31.5z" />
    <glyph glyph-name="uni1EBD" unicode="&#x1ebd;" horiz-adv-x="543" 
d="M253 -10q-77 0 -125 29.5t-70 78t-22 105.5q0 56 17.5 109t51.5 96t84 69t115 26q69 0 113.5 -27.5t66.5 -74.5t22 -106q0 -25 -3 -48t-9 -46h-337v-11t1 -10q4 -41 32 -61.5t71 -20.5q37 0 71.5 12t66.5 34l59 -84q-42 -32 -93 -51t-112 -19zM389 270q3 13 4 23t1 22
q0 22 -9 42t-28.5 32.5t-52.5 12.5q-38 0 -66 -16.5t-45 -41.5t-24 -51h261zM396 556q-37 0 -54 14t-29 30q-8 11 -15 17t-17 6q-18 0 -32 -20t-20 -52l-70 13q16 68 49 102t78 34q31 0 47 -14t26 -28q8 -11 16 -19t21 -8q16 0 30 20t21 52l72 -12q-16 -68 -48 -101.5
t-75 -33.5z" />
    <glyph glyph-name="uni1EBE" unicode="&#x1ebe;" horiz-adv-x="578" 
d="M32 0l98 697h464l-15 -116h-335l-24 -166h312l-16 -115h-312l-26 -184h335l-17 -116h-464zM211 742l175 143l138 -143h-97l-48 53l-67 -53h-101zM453 853l82 133h104l-110 -133h-76z" />
    <glyph glyph-name="uni1EBF" unicode="&#x1ebf;" horiz-adv-x="543" 
d="M253 -10q-77 0 -125 29.5t-70 78t-22 105.5q0 56 17.5 109t51.5 96t84 69t115 26q69 0 113.5 -27.5t66.5 -74.5t22 -106q0 -25 -3 -48t-9 -46h-337v-11t1 -10q4 -41 32 -61.5t71 -20.5q37 0 71.5 12t66.5 34l59 -84q-42 -32 -93 -51t-112 -19zM389 270q3 13 4 23t1 22
q0 22 -9 42t-28.5 32.5t-52.5 12.5q-38 0 -66 -16.5t-45 -41.5t-24 -51h261zM159 541l178 159l135 -159h-97l-48 53l-66 -53h-102zM401 652l83 132h104l-111 -132h-76z" />
    <glyph glyph-name="uni1EC0" unicode="&#x1ec0;" horiz-adv-x="578" 
d="M32 0l98 697h464l-15 -116h-335l-24 -166h312l-16 -115h-312l-26 -184h335l-17 -116h-464zM211 742l175 143l138 -143h-97l-48 53l-66 -53h-102zM488 853l-73 133h99l46 -133h-72z" />
    <glyph glyph-name="uni1EC1" unicode="&#x1ec1;" horiz-adv-x="543" 
d="M253 -10q-77 0 -125 29.5t-70 78t-22 105.5q0 56 17.5 109t51.5 96t84 69t115 26q69 0 113.5 -27.5t66.5 -74.5t22 -106q0 -25 -3 -48t-9 -46h-337v-11t1 -10q4 -41 32 -61.5t71 -20.5q37 0 71.5 12t66.5 34l59 -84q-42 -32 -93 -51t-112 -19zM389 270q3 13 4 23t1 22
q0 22 -9 42t-28.5 32.5t-52.5 12.5q-38 0 -66 -16.5t-45 -41.5t-24 -51h261zM159 541l178 159l135 -159h-97l-48 53l-66 -53h-102zM443 652l-73 132h99l45 -132h-71z" />
    <glyph glyph-name="uni1EC2" unicode="&#x1ec2;" horiz-adv-x="578" 
d="M32 0l98 697h464l-15 -116h-335l-24 -166h312l-16 -115h-312l-26 -184h335l-17 -116h-464zM211 742l175 143l138 -143h-97l-48 53l-66 -53h-102zM485 816l-14 45q24 3 40.5 12.5t16.5 25.5q0 14 -17.5 20t-40.5 6h-18l9 65h12q67 0 97.5 -23.5t28.5 -60.5
q-2 -33 -18.5 -51t-42 -26t-53.5 -13z" />
    <glyph glyph-name="uni1EC3" unicode="&#x1ec3;" horiz-adv-x="543" 
d="M253 -10q-77 0 -125 29.5t-70 78t-22 105.5q0 56 17.5 109t51.5 96t84 69t115 26q69 0 113.5 -27.5t66.5 -74.5t22 -106q0 -25 -3 -48t-9 -46h-337v-11t1 -10q4 -41 32 -61.5t71 -20.5q37 0 71.5 12t66.5 34l59 -84q-42 -32 -93 -51t-112 -19zM389 270q3 13 4 23t1 22
q0 22 -9 42t-28.5 32.5t-52.5 12.5q-38 0 -66 -16.5t-45 -41.5t-24 -51h261zM159 541l178 159l135 -159h-97l-48 53l-66 -53h-102zM430 632l-15 45q15 2 27.5 6.5t21 12.5t9.5 21q3 16 -15.5 20t-42.5 4h-18l9 65h12q62 0 94 -21.5t32 -60.5q0 -36 -16 -54.5t-42.5 -25.5
t-55.5 -12z" />
    <glyph glyph-name="uni1EC4" unicode="&#x1ec4;" horiz-adv-x="578" 
d="M32 0l98 697h464l-15 -116h-335l-24 -166h312l-16 -115h-312l-26 -184h335l-17 -116h-464zM211 742l175 143l138 -143h-97l-48 53l-67 -53h-101zM455 884q-26 0 -42.5 6t-27 14.5t-20.5 14.5t-23 6q-17 0 -26.5 -10t-13.5 -23h-69q10 48 38.5 73.5t71.5 25.5
q24 0 39.5 -6t27 -14t22 -14t23.5 -6t22 9t13 22h73q-10 -48 -37 -73t-71 -25z" />
    <glyph glyph-name="uni1EC5" unicode="&#x1ec5;" horiz-adv-x="543" 
d="M253 -10q-77 0 -125 29.5t-70 78t-22 105.5q0 56 17.5 109t51.5 96t84 69t115 26q69 0 113.5 -27.5t66.5 -74.5t22 -106q0 -25 -3 -48t-9 -46h-337v-11t1 -10q4 -41 32 -61.5t71 -20.5q37 0 71.5 12t66.5 34l59 -84q-42 -32 -93 -51t-112 -19zM389 270q3 13 4 23t1 22
q0 22 -9 42t-28.5 32.5t-52.5 12.5q-38 0 -66 -16.5t-45 -41.5t-24 -51h261zM158 541l178 159l135 -159h-97l-48 53l-66 -53h-102zM412 696q-27 0 -42 6t-25.5 14.5t-20.5 15t-27 6.5q-21 0 -32.5 -11.5t-14.5 -25.5l-67 7q8 45 35 70.5t67 25.5q26 0 43.5 -5.5t30 -13
t22 -13t18.5 -5.5q15 0 25 7.5t13 23.5l70 -8q-7 -45 -32 -69.5t-63 -24.5z" />
    <glyph glyph-name="uni1EC6" unicode="&#x1ec6;" horiz-adv-x="578" 
d="M32 0l98 697h464l-15 -116h-335l-24 -166h312l-16 -115h-312l-26 -184h335l-17 -116h-464zM169 -173l20 112h133l-20 -112h-133zM215 745l177 175l131 -175h-94l-48 69l-66 -69h-100z" />
    <glyph glyph-name="uni1EC7" unicode="&#x1ec7;" horiz-adv-x="543" 
d="M253 -10q-77 0 -125 29.5t-70 78t-22 105.5q0 56 17.5 109t51.5 96t84 69t115 26q69 0 113.5 -27.5t66.5 -74.5t22 -106q0 -25 -3 -48t-9 -46h-337v-11t1 -10q4 -41 32 -61.5t71 -20.5q37 0 71.5 12t66.5 34l59 -84q-42 -32 -93 -51t-112 -19zM389 270q3 13 4 23t1 22
q0 22 -9 42t-28.5 32.5t-52.5 12.5q-38 0 -66 -16.5t-45 -41.5t-24 -51h261zM152 -173l20 112h133l-20 -112h-133zM162 541l177 175l131 -175h-94l-48 69l-66 -69h-100z" />
    <glyph glyph-name="uni1EC8" unicode="&#x1ec8;" horiz-adv-x="263" 
d="M32 0l98 697h129l-98 -697h-129zM170 722l-10 41q20 4 37 10t28 13.5t12 18.5q1 14 -17.5 20.5t-50.5 6.5h-22l17 69h10q68 0 109 -24.5t39 -67.5q-2 -35 -25 -53t-56.5 -24.5t-70.5 -9.5z" />
    <glyph glyph-name="uni1EC9" unicode="&#x1ec9;" horiz-adv-x="245" 
d="M25 0l69 493h125l-70 -493h-124zM131 518l-10 41q20 4 37 10t28 13.5t12 18.5q1 14 -17.5 20.5t-50.5 6.5h-22l17 69h10q68 0 109 -24.5t39 -67.5q-2 -35 -25 -53t-56.5 -24.5t-70.5 -9.5z" />
    <glyph glyph-name="uni1ECA" unicode="&#x1eca;" horiz-adv-x="263" 
d="M32 0l98 697h129l-98 -697h-129zM2 -173l20 112h133l-20 -112h-133z" />
    <glyph glyph-name="uni1ECB" unicode="&#x1ecb;" horiz-adv-x="245" 
d="M25 0l69 493h125l-70 -493h-124zM102 569l18 128h132l-18 -128h-132zM-8 -173l20 112h133l-20 -112h-133z" />
    <glyph glyph-name="uni1ECC" unicode="&#x1ecc;" horiz-adv-x="748" 
d="M342 -16q-90 0 -156 37.5t-101.5 106t-35.5 162.5q0 82 26.5 157.5t76 135.5t120.5 95t160 35q90 0 156 -37.5t102 -106t36 -163.5q0 -82 -27 -157.5t-77 -135t-121 -94.5t-159 -35zM351 108q58 0 103.5 23.5t77 64.5t48 92.5t16.5 108.5q0 88 -45 140t-128 52
q-59 0 -105 -24.5t-77 -66t-47 -93t-16 -106.5q0 -59 20 -102t58.5 -66t94.5 -23zM243 -173l20 112h133l-20 -112h-133z" />
    <glyph glyph-name="uni1ECD" unicode="&#x1ecd;" horiz-adv-x="572" 
d="M255 -10q-66 0 -115 28t-77 78.5t-28 116.5q0 58 21 110.5t59 93t89 63.5t112 23q66 0 115.5 -28t76.5 -77.5t27 -115.5q0 -59 -21 -112t-59 -93t-89 -63.5t-111 -23.5zM264 99q35 0 62.5 15.5t46.5 41t29 57t10 63.5q0 51 -26 84.5t-79 33.5q-36 0 -64 -15.5t-46.5 -41
t-28 -56.5t-9.5 -63q0 -50 26.5 -84.5t78.5 -34.5zM156 -173l20 112h133l-20 -112h-133z" />
    <glyph glyph-name="uni1ECE" unicode="&#x1ece;" horiz-adv-x="748" 
d="M342 -16q-90 0 -156 37.5t-101.5 106t-35.5 162.5q0 82 26.5 157.5t76 135.5t120.5 95t160 35q90 0 156 -37.5t102 -106t36 -163.5q0 -82 -27 -157.5t-77 -135t-121 -94.5t-159 -35zM351 108q58 0 103.5 23.5t77 64.5t48 92.5t16.5 108.5q0 88 -45 140t-128 52
q-59 0 -105 -24.5t-77 -66t-47 -93t-16 -106.5q0 -59 20 -102t58.5 -66t94.5 -23zM410 722l-10 41q20 4 37 10t28 13.5t12 18.5q1 14 -17.5 20.5t-50.5 6.5h-22l17 69h10q68 0 109 -24.5t39 -67.5q-2 -35 -25 -53t-56.5 -24.5t-70.5 -9.5z" />
    <glyph glyph-name="uni1ECF" unicode="&#x1ecf;" horiz-adv-x="572" 
d="M255 -10q-66 0 -115 28t-77 78.5t-28 116.5q0 58 21 110.5t59 93t89 63.5t112 23q66 0 115.5 -28t76.5 -77.5t27 -115.5q0 -59 -21 -112t-59 -93t-89 -63.5t-111 -23.5zM264 99q35 0 62.5 15.5t46.5 41t29 57t10 63.5q0 51 -26 84.5t-79 33.5q-36 0 -64 -15.5t-46.5 -41
t-28 -56.5t-9.5 -63q0 -50 26.5 -84.5t78.5 -34.5zM294 518l-10 41q20 4 37 10t28 13.5t12 18.5q1 14 -17.5 20.5t-50.5 6.5h-22l17 69h10q68 0 109 -24.5t39 -67.5q-2 -35 -25 -53t-56.5 -24.5t-70.5 -9.5z" />
    <glyph glyph-name="uni1ED0" unicode="&#x1ed0;" horiz-adv-x="748" 
d="M342 -16q-90 0 -156 37.5t-101.5 106t-35.5 162.5q0 82 26.5 157.5t76 135.5t120.5 95t160 35q90 0 156 -37.5t102 -106t36 -163.5q0 -82 -27 -157.5t-77 -135t-121 -94.5t-159 -35zM351 108q58 0 103.5 23.5t77 64.5t48 92.5t16.5 108.5q0 88 -45 140t-128 52
q-59 0 -105 -24.5t-77 -66t-47 -93t-16 -106.5q0 -59 20 -102t58.5 -66t94.5 -23zM285 742l175 143l138 -143h-97l-48 53l-67 -53h-101zM527 853l82 133h104l-110 -133h-76z" />
    <glyph glyph-name="uni1ED1" unicode="&#x1ed1;" horiz-adv-x="572" 
d="M255 -10q-66 0 -115 28t-77 78.5t-28 116.5q0 58 21 110.5t59 93t89 63.5t112 23q66 0 115.5 -28t76.5 -77.5t27 -115.5q0 -59 -21 -112t-59 -93t-89 -63.5t-111 -23.5zM264 99q35 0 62.5 15.5t46.5 41t29 57t10 63.5q0 51 -26 84.5t-79 33.5q-36 0 -64 -15.5t-46.5 -41
t-28 -56.5t-9.5 -63q0 -50 26.5 -84.5t78.5 -34.5zM169 541l178 159l135 -159h-97l-48 53l-66 -53h-102zM411 652l83 132h104l-111 -132h-76z" />
    <glyph glyph-name="uni1ED2" unicode="&#x1ed2;" horiz-adv-x="748" 
d="M342 -16q-90 0 -156 37.5t-101.5 106t-35.5 162.5q0 82 26.5 157.5t76 135.5t120.5 95t160 35q90 0 156 -37.5t102 -106t36 -163.5q0 -82 -27 -157.5t-77 -135t-121 -94.5t-159 -35zM351 108q58 0 103.5 23.5t77 64.5t48 92.5t16.5 108.5q0 88 -45 140t-128 52
q-59 0 -105 -24.5t-77 -66t-47 -93t-16 -106.5q0 -59 20 -102t58.5 -66t94.5 -23zM285 742l175 143l138 -143h-97l-48 53l-66 -53h-102zM562 853l-73 133h99l46 -133h-72z" />
    <glyph glyph-name="uni1ED3" unicode="&#x1ed3;" horiz-adv-x="572" 
d="M255 -10q-66 0 -115 28t-77 78.5t-28 116.5q0 58 21 110.5t59 93t89 63.5t112 23q66 0 115.5 -28t76.5 -77.5t27 -115.5q0 -59 -21 -112t-59 -93t-89 -63.5t-111 -23.5zM264 99q35 0 62.5 15.5t46.5 41t29 57t10 63.5q0 51 -26 84.5t-79 33.5q-36 0 -64 -15.5t-46.5 -41
t-28 -56.5t-9.5 -63q0 -50 26.5 -84.5t78.5 -34.5zM169 541l178 159l135 -159h-97l-48 53l-66 -53h-102zM453 652l-73 132h99l45 -132h-71z" />
    <glyph glyph-name="uni1ED4" unicode="&#x1ed4;" horiz-adv-x="748" 
d="M342 -16q-90 0 -156 37.5t-101.5 106t-35.5 162.5q0 82 26.5 157.5t76 135.5t120.5 95t160 35q90 0 156 -37.5t102 -106t36 -163.5q0 -82 -27 -157.5t-77 -135t-121 -94.5t-159 -35zM351 108q58 0 103.5 23.5t77 64.5t48 92.5t16.5 108.5q0 88 -45 140t-128 52
q-59 0 -105 -24.5t-77 -66t-47 -93t-16 -106.5q0 -59 20 -102t58.5 -66t94.5 -23zM285 742l175 143l138 -143h-97l-48 53l-66 -53h-102zM559 816l-14 45q24 3 40.5 12.5t16.5 25.5q0 14 -17.5 20t-40.5 6h-18l9 65h12q67 0 97.5 -23.5t28.5 -60.5q-2 -33 -18.5 -51t-42 -26
t-53.5 -13z" />
    <glyph glyph-name="uni1ED5" unicode="&#x1ed5;" horiz-adv-x="572" 
d="M255 -10q-66 0 -115 28t-77 78.5t-28 116.5q0 58 21 110.5t59 93t89 63.5t112 23q66 0 115.5 -28t76.5 -77.5t27 -115.5q0 -59 -21 -112t-59 -93t-89 -63.5t-111 -23.5zM264 99q35 0 62.5 15.5t46.5 41t29 57t10 63.5q0 51 -26 84.5t-79 33.5q-36 0 -64 -15.5t-46.5 -41
t-28 -56.5t-9.5 -63q0 -50 26.5 -84.5t78.5 -34.5zM169 541l178 159l135 -159h-97l-48 53l-66 -53h-102zM440 632l-15 45q15 2 27.5 6.5t21 12.5t9.5 21q3 16 -15.5 20t-42.5 4h-18l9 65h12q62 0 94 -21.5t32 -60.5q0 -36 -16 -54.5t-42.5 -25.5t-55.5 -12z" />
    <glyph glyph-name="uni1ED6" unicode="&#x1ed6;" horiz-adv-x="748" 
d="M342 -16q-90 0 -156 37.5t-101.5 106t-35.5 162.5q0 82 26.5 157.5t76 135.5t120.5 95t160 35q90 0 156 -37.5t102 -106t36 -163.5q0 -82 -27 -157.5t-77 -135t-121 -94.5t-159 -35zM351 108q58 0 103.5 23.5t77 64.5t48 92.5t16.5 108.5q0 88 -45 140t-128 52
q-59 0 -105 -24.5t-77 -66t-47 -93t-16 -106.5q0 -59 20 -102t58.5 -66t94.5 -23zM284 742l175 143l138 -143h-97l-48 53l-67 -53h-101zM528 884q-26 0 -42.5 6t-27 14.5t-20.5 14.5t-23 6q-17 0 -26.5 -10t-13.5 -23h-69q10 48 38.5 73.5t71.5 25.5q24 0 39.5 -6t27 -14
t22 -14t23.5 -6t22 9t13 22h73q-10 -48 -37 -73t-71 -25z" />
    <glyph glyph-name="uni1ED7" unicode="&#x1ed7;" horiz-adv-x="572" 
d="M255 -10q-66 0 -115 28t-77 78.5t-28 116.5q0 58 21 110.5t59 93t89 63.5t112 23q66 0 115.5 -28t76.5 -77.5t27 -115.5q0 -59 -21 -112t-59 -93t-89 -63.5t-111 -23.5zM264 99q35 0 62.5 15.5t46.5 41t29 57t10 63.5q0 51 -26 84.5t-79 33.5q-36 0 -64 -15.5t-46.5 -41
t-28 -56.5t-9.5 -63q0 -50 26.5 -84.5t78.5 -34.5zM168 541l178 159l135 -159h-97l-48 53l-66 -53h-102zM422 696q-27 0 -42 6t-25.5 14.5t-20.5 15t-27 6.5q-21 0 -32.5 -11.5t-14.5 -25.5l-67 7q8 45 35 70.5t67 25.5q26 0 43.5 -5.5t30 -13t22 -13t18.5 -5.5q15 0 25 7.5
t13 23.5l70 -8q-7 -45 -32 -69.5t-63 -24.5z" />
    <glyph glyph-name="uni1ED8" unicode="&#x1ed8;" horiz-adv-x="748" 
d="M342 -16q-90 0 -156 37.5t-101.5 106t-35.5 162.5q0 82 26.5 157.5t76 135.5t120.5 95t160 35q90 0 156 -37.5t102 -106t36 -163.5q0 -82 -27 -157.5t-77 -135t-121 -94.5t-159 -35zM351 108q58 0 103.5 23.5t77 64.5t48 92.5t16.5 108.5q0 88 -45 140t-128 52
q-59 0 -105 -24.5t-77 -66t-47 -93t-16 -106.5q0 -59 20 -102t58.5 -66t94.5 -23zM243 -173l20 112h133l-20 -112h-133zM285 745l180 175l133 -175h-96l-47 69l-67 -69h-103z" />
    <glyph glyph-name="uni1ED9" unicode="&#x1ed9;" horiz-adv-x="572" 
d="M255 -10q-66 0 -115 28t-77 78.5t-28 116.5q0 58 21 110.5t59 93t89 63.5t112 23q66 0 115.5 -28t76.5 -77.5t27 -115.5q0 -59 -21 -112t-59 -93t-89 -63.5t-111 -23.5zM264 99q35 0 62.5 15.5t46.5 41t29 57t10 63.5q0 51 -26 84.5t-79 33.5q-36 0 -64 -15.5t-46.5 -41
t-28 -56.5t-9.5 -63q0 -50 26.5 -84.5t78.5 -34.5zM156 -173l20 112h133l-20 -112h-133zM173 541l177 175l131 -175h-94l-48 69l-66 -69h-100z" />
    <glyph glyph-name="uni1EDA" unicode="&#x1eda;" horiz-adv-x="748" 
d="M342 -16q-90 0 -156 37.5t-101.5 106t-35.5 162.5q0 82 26.5 157.5t76 135.5t120.5 95t160 35q90 0 156 -37.5t102 -106t36 -163.5q0 -82 -27 -157.5t-77 -135t-121 -94.5t-159 -35zM351 108q58 0 103.5 23.5t77 64.5t48 92.5t16.5 108.5q0 88 -45 140t-128 52
q-59 0 -105 -24.5t-77 -66t-47 -93t-16 -106.5q0 -59 20 -102t58.5 -66t94.5 -23zM640 493l8 75q44 0 66 23t29 69l5 37h84l-6 -45q-9 -71 -55.5 -115t-130.5 -44zM396 759l120 142h131l-162 -142h-89z" />
    <glyph glyph-name="uni1EDB" unicode="&#x1edb;" horiz-adv-x="572" 
d="M255 -10q-66 0 -115 28t-77 78.5t-28 116.5q0 58 21 110.5t59 93t89 63.5t112 23q66 0 115.5 -28t76.5 -77.5t27 -115.5q0 -59 -21 -112t-59 -93t-89 -63.5t-111 -23.5zM264 99q35 0 62.5 15.5t46.5 41t29 57t10 63.5q0 51 -26 84.5t-79 33.5q-36 0 -64 -15.5t-46.5 -41
t-28 -56.5t-9.5 -63q0 -50 26.5 -84.5t78.5 -34.5zM459 289l8 75q44 0 66 23t29 69l5 37h84l-6 -45q-9 -71 -55.5 -115t-130.5 -44zM281 555l120 142h131l-162 -142h-89z" />
    <glyph glyph-name="uni1EDC" unicode="&#x1edc;" horiz-adv-x="748" 
d="M342 -16q-90 0 -156 37.5t-101.5 106t-35.5 162.5q0 82 26.5 157.5t76 135.5t120.5 95t160 35q90 0 156 -37.5t102 -106t36 -163.5q0 -82 -27 -157.5t-77 -135t-121 -94.5t-159 -35zM351 108q58 0 103.5 23.5t77 64.5t48 92.5t16.5 108.5q0 88 -45 140t-128 52
q-59 0 -105 -24.5t-77 -66t-47 -93t-16 -106.5q0 -59 20 -102t58.5 -66t94.5 -23zM640 493l8 75q44 0 66 23t29 69l5 37h84l-6 -45q-9 -71 -55.5 -115t-130.5 -44zM402 759l-120 142h128l80 -142h-88z" />
    <glyph glyph-name="uni1EDD" unicode="&#x1edd;" horiz-adv-x="572" 
d="M255 -10q-66 0 -115 28t-77 78.5t-28 116.5q0 58 21 110.5t59 93t89 63.5t112 23q66 0 115.5 -28t76.5 -77.5t27 -115.5q0 -59 -21 -112t-59 -93t-89 -63.5t-111 -23.5zM264 99q35 0 62.5 15.5t46.5 41t29 57t10 63.5q0 51 -26 84.5t-79 33.5q-36 0 -64 -15.5t-46.5 -41
t-28 -56.5t-9.5 -63q0 -50 26.5 -84.5t78.5 -34.5zM459 289l8 75q44 0 66 23t29 69l5 37h84l-6 -45q-9 -71 -55.5 -115t-130.5 -44zM286 555l-120 142h128l80 -142h-88z" />
    <glyph glyph-name="uni1EDE" unicode="&#x1ede;" horiz-adv-x="748" 
d="M342 -16q-90 0 -156 37.5t-101.5 106t-35.5 162.5q0 82 26.5 157.5t76 135.5t120.5 95t160 35q90 0 156 -37.5t102 -106t36 -163.5q0 -82 -27 -157.5t-77 -135t-121 -94.5t-159 -35zM351 108q58 0 103.5 23.5t77 64.5t48 92.5t16.5 108.5q0 88 -45 140t-128 52
q-59 0 -105 -24.5t-77 -66t-47 -93t-16 -106.5q0 -59 20 -102t58.5 -66t94.5 -23zM640 493l8 75q44 0 66 23t29 69l5 37h84l-6 -45q-9 -71 -55.5 -115t-130.5 -44zM410 722l-10 41q20 4 37 10t28 13.5t12 18.5q1 14 -17.5 20.5t-50.5 6.5h-22l17 69h10q68 0 109 -24.5
t39 -67.5q-2 -35 -25 -53t-56.5 -24.5t-70.5 -9.5z" />
    <glyph glyph-name="uni1EDF" unicode="&#x1edf;" horiz-adv-x="572" 
d="M255 -10q-66 0 -115 28t-77 78.5t-28 116.5q0 58 21 110.5t59 93t89 63.5t112 23q66 0 115.5 -28t76.5 -77.5t27 -115.5q0 -59 -21 -112t-59 -93t-89 -63.5t-111 -23.5zM264 99q35 0 62.5 15.5t46.5 41t29 57t10 63.5q0 51 -26 84.5t-79 33.5q-36 0 -64 -15.5t-46.5 -41
t-28 -56.5t-9.5 -63q0 -50 26.5 -84.5t78.5 -34.5zM459 289l8 75q44 0 66 23t29 69l5 37h84l-6 -45q-9 -71 -55.5 -115t-130.5 -44zM294 518l-10 41q20 4 37 10t28 13.5t12 18.5q1 14 -17.5 20.5t-50.5 6.5h-22l17 69h10q68 0 109 -24.5t39 -67.5q-2 -35 -25 -53
t-56.5 -24.5t-70.5 -9.5z" />
    <glyph glyph-name="uni1EE0" unicode="&#x1ee0;" horiz-adv-x="748" 
d="M342 -16q-90 0 -156 37.5t-101.5 106t-35.5 162.5q0 82 26.5 157.5t76 135.5t120.5 95t160 35q90 0 156 -37.5t102 -106t36 -163.5q0 -82 -27 -157.5t-77 -135t-121 -94.5t-159 -35zM351 108q58 0 103.5 23.5t77 64.5t48 92.5t16.5 108.5q0 88 -45 140t-128 52
q-59 0 -105 -24.5t-77 -66t-47 -93t-16 -106.5q0 -59 20 -102t58.5 -66t94.5 -23zM640 493l8 75q44 0 66 23t29 69l5 37h84l-6 -45q-9 -71 -55.5 -115t-130.5 -44zM510 742q-24 0 -40 6.5t-27 16t-19 19t-15.5 16t-17.5 6.5q-17 0 -29 -17t-17 -48l-70 7q8 62 40 94t79 32
q21 0 36 -7t26 -16.5t19.5 -19t16 -16t16.5 -6.5q14 0 27 17.5t18 47.5l73 -6q-8 -63 -39 -94.5t-77 -31.5z" />
    <glyph glyph-name="uni1EE1" unicode="&#x1ee1;" horiz-adv-x="572" 
d="M255 -10q-66 0 -115 28t-77 78.5t-28 116.5q0 58 21 110.5t59 93t89 63.5t112 23q66 0 115.5 -28t76.5 -77.5t27 -115.5q0 -59 -21 -112t-59 -93t-89 -63.5t-111 -23.5zM264 99q35 0 62.5 15.5t46.5 41t29 57t10 63.5q0 51 -26 84.5t-79 33.5q-36 0 -64 -15.5t-46.5 -41
t-28 -56.5t-9.5 -63q0 -50 26.5 -84.5t78.5 -34.5zM459 289l8 75q44 0 66 23t29 69l5 37h84l-6 -45q-9 -71 -55.5 -115t-130.5 -44zM406 556q-37 0 -54 14t-29 30q-8 11 -15 17t-17 6q-18 0 -32 -20t-20 -52l-70 13q16 68 49 102t78 34q31 0 47 -14t26 -28q8 -11 16 -19
t21 -8q16 0 30 20t21 52l72 -12q-16 -68 -48 -101.5t-75 -33.5z" />
    <glyph glyph-name="uni1EE2" unicode="&#x1ee2;" horiz-adv-x="748" 
d="M342 -16q-90 0 -156 37.5t-101.5 106t-35.5 162.5q0 82 26.5 157.5t76 135.5t120.5 95t160 35q90 0 156 -37.5t102 -106t36 -163.5q0 -82 -27 -157.5t-77 -135t-121 -94.5t-159 -35zM351 108q58 0 103.5 23.5t77 64.5t48 92.5t16.5 108.5q0 88 -45 140t-128 52
q-59 0 -105 -24.5t-77 -66t-47 -93t-16 -106.5q0 -59 20 -102t58.5 -66t94.5 -23zM640 493l8 75q44 0 66 23t29 69l5 37h84l-6 -45q-9 -71 -55.5 -115t-130.5 -44zM243 -173l20 112h133l-20 -112h-133z" />
    <glyph glyph-name="uni1EE3" unicode="&#x1ee3;" horiz-adv-x="572" 
d="M255 -10q-66 0 -115 28t-77 78.5t-28 116.5q0 58 21 110.5t59 93t89 63.5t112 23q66 0 115.5 -28t76.5 -77.5t27 -115.5q0 -59 -21 -112t-59 -93t-89 -63.5t-111 -23.5zM264 99q35 0 62.5 15.5t46.5 41t29 57t10 63.5q0 51 -26 84.5t-79 33.5q-36 0 -64 -15.5t-46.5 -41
t-28 -56.5t-9.5 -63q0 -50 26.5 -84.5t78.5 -34.5zM459 289l8 75q44 0 66 23t29 69l5 37h84l-6 -45q-9 -71 -55.5 -115t-130.5 -44zM156 -173l20 112h133l-20 -112h-133z" />
    <glyph glyph-name="uni1EE4" unicode="&#x1ee4;" horiz-adv-x="657" 
d="M298 -16q-119 0 -179.5 54t-60.5 159q0 12 1 27.5t3 30.5l62 442h129l-60 -434q-2 -16 -3.5 -30.5t-1.5 -27.5q0 -51 25.5 -76.5t87.5 -25.5q56 0 90.5 19.5t53 56.5t25.5 90l60 428h129l-62 -443q-19 -137 -94 -203.5t-205 -66.5zM199 -173l20 112h133l-20 -112h-133z
" />
    <glyph glyph-name="uni1EE5" unicode="&#x1ee5;" horiz-adv-x="564" 
d="M205 -10q-82 0 -121.5 42.5t-39.5 113.5q0 11 1 21t2 21l42 305h125l-40 -280q-1 -11 -2 -21t-1 -19q0 -36 16.5 -55.5t56.5 -19.5q46 0 73.5 25.5t43.5 71t24 105.5l27 193h125l-70 -493h-117l7 107l18 -14q-31 -57 -75.5 -80t-94.5 -23zM154 -173l20 112h133l-20 -112
h-133z" />
    <glyph glyph-name="uni1EE6" unicode="&#x1ee6;" horiz-adv-x="657" 
d="M298 -16q-119 0 -179.5 54t-60.5 159q0 12 1 27.5t3 30.5l62 442h129l-60 -434q-2 -16 -3.5 -30.5t-1.5 -27.5q0 -51 25.5 -76.5t87.5 -25.5q56 0 90.5 19.5t53 56.5t25.5 90l60 428h129l-62 -443q-19 -137 -94 -203.5t-205 -66.5zM366 722l-10 41q20 4 37 10t28 13.5
t12 18.5q1 14 -17.5 20.5t-50.5 6.5h-22l17 69h10q68 0 109 -24.5t39 -67.5q-2 -35 -25 -53t-56.5 -24.5t-70.5 -9.5z" />
    <glyph glyph-name="uni1EE7" unicode="&#x1ee7;" horiz-adv-x="564" 
d="M205 -10q-82 0 -121.5 42.5t-39.5 113.5q0 11 1 21t2 21l42 305h125l-40 -280q-1 -11 -2 -21t-1 -19q0 -36 16.5 -55.5t56.5 -19.5q46 0 73.5 25.5t43.5 71t24 105.5l27 193h125l-70 -493h-117l7 107l18 -14q-31 -57 -75.5 -80t-94.5 -23zM286 518l-10 41q20 4 37 10
t28 13.5t12 18.5q1 14 -17.5 20.5t-50.5 6.5h-22l17 69h10q68 0 109 -24.5t39 -67.5q-2 -35 -25 -53t-56.5 -24.5t-70.5 -9.5z" />
    <glyph glyph-name="uni1EE8" unicode="&#x1ee8;" horiz-adv-x="718" 
d="M298 -16q-119 0 -179.5 54t-60.5 159q0 12 1 27.5t3 30.5l62 442h129l-60 -434q-2 -16 -3.5 -30.5t-1.5 -27.5q0 -51 25.5 -76.5t87.5 -25.5q56 0 90.5 19.5t53 56.5t25.5 90l60 428h129l-62 -443q-19 -137 -94 -203.5t-205 -66.5zM595 493l8 75q44 0 66 23t29 69l5 37
h84l-6 -45q-9 -71 -55.5 -115t-130.5 -44zM353 759l120 142h131l-162 -142h-89z" />
    <glyph glyph-name="uni1EE9" unicode="&#x1ee9;" horiz-adv-x="564" 
d="M205 -10q-82 0 -121.5 42.5t-39.5 113.5q0 11 1 21t2 21l42 305h125l-40 -280q-1 -11 -2 -21t-1 -19q0 -36 16.5 -55.5t56.5 -19.5q46 0 73.5 25.5t43.5 71t24 105.5l27 193h125l-70 -493h-117l7 107l18 -14q-31 -57 -75.5 -80t-94.5 -23zM497 289l8 75q44 0 66 23t29 69
l5 37h84l-6 -45q-9 -71 -55.5 -115t-130.5 -44zM272 555l120 142h131l-162 -142h-89z" />
    <glyph glyph-name="uni1EEA" unicode="&#x1eea;" horiz-adv-x="718" 
d="M298 -16q-119 0 -179.5 54t-60.5 159q0 12 1 27.5t3 30.5l62 442h129l-60 -434q-2 -16 -3.5 -30.5t-1.5 -27.5q0 -51 25.5 -76.5t87.5 -25.5q56 0 90.5 19.5t53 56.5t25.5 90l60 428h129l-62 -443q-19 -137 -94 -203.5t-205 -66.5zM595 493l8 75q44 0 66 23t29 69l5 37
h84l-6 -45q-9 -71 -55.5 -115t-130.5 -44zM358 759l-120 142h128l80 -142h-88z" />
    <glyph glyph-name="uni1EEB" unicode="&#x1eeb;" horiz-adv-x="564" 
d="M205 -10q-82 0 -121.5 42.5t-39.5 113.5q0 11 1 21t2 21l42 305h125l-40 -280q-1 -11 -2 -21t-1 -19q0 -36 16.5 -55.5t56.5 -19.5q46 0 73.5 25.5t43.5 71t24 105.5l27 193h125l-70 -493h-117l7 107l18 -14q-31 -57 -75.5 -80t-94.5 -23zM497 289l8 75q44 0 66 23t29 69
l5 37h84l-6 -45q-9 -71 -55.5 -115t-130.5 -44zM278 555l-120 142h128l80 -142h-88z" />
    <glyph glyph-name="uni1EEC" unicode="&#x1eec;" horiz-adv-x="718" 
d="M298 -16q-119 0 -179.5 54t-60.5 159q0 12 1 27.5t3 30.5l62 442h129l-60 -434q-2 -16 -3.5 -30.5t-1.5 -27.5q0 -51 25.5 -76.5t87.5 -25.5q56 0 90.5 19.5t53 56.5t25.5 90l60 428h129l-62 -443q-19 -137 -94 -203.5t-205 -66.5zM595 493l8 75q44 0 66 23t29 69l5 37
h84l-6 -45q-9 -71 -55.5 -115t-130.5 -44zM366 722l-10 41q20 4 37 10t28 13.5t12 18.5q1 14 -17.5 20.5t-50.5 6.5h-22l17 69h10q68 0 109 -24.5t39 -67.5q-2 -35 -25 -53t-56.5 -24.5t-70.5 -9.5z" />
    <glyph glyph-name="uni1EED" unicode="&#x1eed;" horiz-adv-x="564" 
d="M205 -10q-82 0 -121.5 42.5t-39.5 113.5q0 11 1 21t2 21l42 305h125l-40 -280q-1 -11 -2 -21t-1 -19q0 -36 16.5 -55.5t56.5 -19.5q46 0 73.5 25.5t43.5 71t24 105.5l27 193h125l-70 -493h-117l7 107l18 -14q-31 -57 -75.5 -80t-94.5 -23zM497 289l8 75q44 0 66 23t29 69
l5 37h84l-6 -45q-9 -71 -55.5 -115t-130.5 -44zM286 518l-10 41q20 4 37 10t28 13.5t12 18.5q1 14 -17.5 20.5t-50.5 6.5h-22l17 69h10q68 0 109 -24.5t39 -67.5q-2 -35 -25 -53t-56.5 -24.5t-70.5 -9.5z" />
    <glyph glyph-name="uni1EEE" unicode="&#x1eee;" horiz-adv-x="718" 
d="M298 -16q-119 0 -179.5 54t-60.5 159q0 12 1 27.5t3 30.5l62 442h129l-60 -434q-2 -16 -3.5 -30.5t-1.5 -27.5q0 -51 25.5 -76.5t87.5 -25.5q56 0 90.5 19.5t53 56.5t25.5 90l60 428h129l-62 -443q-19 -137 -94 -203.5t-205 -66.5zM595 493l8 75q44 0 66 23t29 69l5 37
h84l-6 -45q-9 -71 -55.5 -115t-130.5 -44zM466 742q-24 0 -40 6.5t-27 16t-19 19t-15.5 16t-17.5 6.5q-17 0 -29 -17t-17 -48l-70 7q8 62 40 94t79 32q21 0 36 -7t26 -16.5t19.5 -19t16 -16t16.5 -6.5q14 0 27 17.5t18 47.5l73 -6q-8 -63 -39 -94.5t-77 -31.5z" />
    <glyph glyph-name="uni1EEF" unicode="&#x1eef;" horiz-adv-x="564" 
d="M205 -10q-82 0 -121.5 42.5t-39.5 113.5q0 11 1 21t2 21l42 305h125l-40 -280q-1 -11 -2 -21t-1 -19q0 -36 16.5 -55.5t56.5 -19.5q46 0 73.5 25.5t43.5 71t24 105.5l27 193h125l-70 -493h-117l7 107l18 -14q-31 -57 -75.5 -80t-94.5 -23zM497 289l8 75q44 0 66 23t29 69
l5 37h84l-6 -45q-9 -71 -55.5 -115t-130.5 -44zM398 556q-37 0 -54 14t-29 30q-8 11 -15 17t-17 6q-18 0 -32 -20t-20 -52l-70 13q16 68 49 102t78 34q31 0 47 -14t26 -28q8 -11 16 -19t21 -8q16 0 30 20t21 52l72 -12q-16 -68 -48 -101.5t-75 -33.5z" />
    <glyph glyph-name="uni1EF0" unicode="&#x1ef0;" horiz-adv-x="718" 
d="M298 -16q-119 0 -179.5 54t-60.5 159q0 12 1 27.5t3 30.5l62 442h129l-60 -434q-2 -16 -3.5 -30.5t-1.5 -27.5q0 -51 25.5 -76.5t87.5 -25.5q56 0 90.5 19.5t53 56.5t25.5 90l60 428h129l-62 -443q-19 -137 -94 -203.5t-205 -66.5zM595 493l8 75q44 0 66 23t29 69l5 37
h84l-6 -45q-9 -71 -55.5 -115t-130.5 -44zM199 -173l20 112h133l-20 -112h-133z" />
    <glyph glyph-name="uni1EF1" unicode="&#x1ef1;" horiz-adv-x="564" 
d="M205 -10q-82 0 -121.5 42.5t-39.5 113.5q0 11 1 21t2 21l42 305h125l-40 -280q-1 -11 -2 -21t-1 -19q0 -36 16.5 -55.5t56.5 -19.5q46 0 73.5 25.5t43.5 71t24 105.5l27 193h125l-70 -493h-117l7 107l18 -14q-31 -57 -75.5 -80t-94.5 -23zM497 289l8 75q44 0 66 23t29 69
l5 37h84l-6 -45q-9 -71 -55.5 -115t-130.5 -44zM154 -173l20 112h133l-20 -112h-133z" />
    <glyph glyph-name="Ygrave" unicode="&#x1ef2;" horiz-adv-x="625" 
d="M214 0l39 273l-185 424h145l116 -296l206 296h150l-302 -424l-40 -273h-129zM342 759l-120 142h128l80 -142h-88z" />
    <glyph glyph-name="ygrave" unicode="&#x1ef3;" horiz-adv-x="535" 
d="M37 -204l135 242l-121 455h134l68 -331l166 331h136l-381 -697h-137zM269 555l-120 142h128l80 -142h-88z" />
    <glyph glyph-name="uni1EF4" unicode="&#x1ef4;" horiz-adv-x="625" 
d="M214 0l39 273l-185 424h145l116 -296l206 296h150l-302 -424l-40 -273h-129zM183 -173l20 112h133l-20 -112h-133z" />
    <glyph glyph-name="uni1EF5" unicode="&#x1ef5;" horiz-adv-x="535" 
d="M37 -204l135 242l-121 455h134l68 -331l166 331h136l-381 -697h-137zM295 -204l20 112h133l-20 -112h-133z" />
    <glyph glyph-name="uni1EF6" unicode="&#x1ef6;" horiz-adv-x="625" 
d="M214 0l39 273l-185 424h145l116 -296l206 296h150l-302 -424l-40 -273h-129zM351 722l-10 41q20 4 37 10t28 13.5t12 18.5q1 14 -17.5 20.5t-50.5 6.5h-22l17 69h10q68 0 109 -24.5t39 -67.5q-2 -35 -25 -53t-56.5 -24.5t-70.5 -9.5z" />
    <glyph glyph-name="uni1EF7" unicode="&#x1ef7;" horiz-adv-x="535" 
d="M37 -204l135 242l-121 455h134l68 -331l166 331h136l-381 -697h-137zM277 518l-10 41q20 4 37 10t28 13.5t12 18.5q1 14 -17.5 20.5t-50.5 6.5h-22l17 69h10q68 0 109 -24.5t39 -67.5q-2 -35 -25 -53t-56.5 -24.5t-70.5 -9.5z" />
    <glyph glyph-name="uni1EF8" unicode="&#x1ef8;" horiz-adv-x="625" 
d="M214 0l39 273l-185 424h145l116 -296l206 296h150l-302 -424l-40 -273h-129zM451 742q-24 0 -40 6.5t-27 16t-19 19t-15.5 16t-17.5 6.5q-17 0 -29 -17t-17 -48l-70 7q8 62 40 94t79 32q21 0 36 -7t26 -16.5t19.5 -19t16 -16t16.5 -6.5q14 0 27 17.5t18 47.5l73 -6
q-8 -63 -39 -94.5t-77 -31.5z" />
    <glyph glyph-name="uni1EF9" unicode="&#x1ef9;" horiz-adv-x="535" 
d="M37 -204l135 242l-121 455h134l68 -331l166 331h136l-381 -697h-137zM389 556q-37 0 -54 14t-29 30q-8 11 -15 17t-17 6q-18 0 -32 -20t-20 -52l-70 13q16 68 49 102t78 34q31 0 47 -14t26 -28q8 -11 16 -19t21 -8q16 0 30 20t21 52l72 -12q-16 -68 -48 -101.5t-75 -33.5
z" />
    <glyph glyph-name="endash" unicode="&#x2013;" horiz-adv-x="380" 
d="M0 249l13 93h380l-13 -93h-380z" />
    <glyph glyph-name="emdash" unicode="&#x2014;" horiz-adv-x="1010" 
d="M0 249l13 93h1010l-13 -93h-1010z" />
    <glyph glyph-name="uni2015" unicode="&#x2015;" horiz-adv-x="708" 
d="M43 249l12 93h623l-13 -93h-622z" />
    <glyph glyph-name="quoteleft" unicode="&#x2018;" horiz-adv-x="270" 
d="M50 418l165 279h84l-103 -279h-146z" />
    <glyph glyph-name="quoteright" unicode="&#x2019;" horiz-adv-x="270" 
d="M58 419l102 278h147l-166 -278h-83z" />
    <glyph glyph-name="quotesinglbase" unicode="&#x201a;" horiz-adv-x="285" 
d="M-14 -149l103 280h146l-165 -280h-84z" />
    <glyph glyph-name="quotedblleft" unicode="&#x201c;" horiz-adv-x="462" 
d="M243 418l164 279h85l-102 -279h-147zM50 418l164 279h84l-102 -279h-146z" />
    <glyph glyph-name="quotedblright" unicode="&#x201d;" horiz-adv-x="463" 
d="M251 419l103 278h146l-164 -278h-85zM58 419l102 278h147l-166 -278h-83z" />
    <glyph glyph-name="quotedblbase" unicode="&#x201e;" horiz-adv-x="437" 
d="M165 -149l102 280h145l-164 -280h-83zM-40 -149l103 280h146l-165 -280h-84z" />
    <glyph glyph-name="dagger" unicode="&#x2020;" horiz-adv-x="391" 
d="M100 -101l71 507h-118l13 93h118l28 198h92l-27 -198h119l-13 -93h-120l-71 -507h-92z" />
    <glyph glyph-name="daggerdbl" unicode="&#x2021;" horiz-adv-x="407" 
d="M108 -101l29 199h-119l13 93h118l31 215h-119l14 93h118l27 198h93l-28 -198h118l-13 -93h-118l-30 -215h118l-13 -93h-118l-28 -199h-93z" />
    <glyph glyph-name="bullet" unicode="&#x2022;" horiz-adv-x="384" 
d="M49 121l35 253h252l-36 -253h-251z" />
    <glyph glyph-name="uni2023" unicode="&#x2023;" horiz-adv-x="417" 
d="M43 69l53 390l306 -194z" />
    <glyph glyph-name="twodotenleader" unicode="&#x2025;" horiz-adv-x="443" 
d="M223 0l18 132h131l-18 -132h-131zM19 0l18 132h131l-18 -132h-131z" />
    <glyph glyph-name="ellipsis" unicode="&#x2026;" horiz-adv-x="692" 
d="M475 0l19 132h128l-19 -132h-128zM19 0l18 132h128l-19 -132h-127zM247 0l19 132h128l-19 -132h-128z" />
    <glyph glyph-name="perthousand" unicode="&#x2030;" horiz-adv-x="1069" 
d="M63 0l539 697h91l-539 -697h-91zM514 -10q-59 0 -98 37.5t-39 102.5q0 50 22 92t60 67t86 25q40 0 70.5 -18.5t48.5 -50.5t18 -74q0 -48 -23 -89t-61 -66.5t-84 -25.5zM522 71q22 0 39 12.5t28 32.5t11 45q0 33 -18 52.5t-45 19.5q-22 0 -40 -11.5t-28 -32.5t-10 -47
q0 -34 18 -52.5t45 -18.5zM219 383q-39 0 -70 17t-49 48.5t-18 73.5q0 51 22 92.5t60 67t86 25.5q40 0 70.5 -18.5t48.5 -51t18 -73.5q0 -48 -23 -89.5t-61 -66.5t-84 -25zM227 464q22 0 39 12t28 32.5t11 45.5q0 33 -18 52.5t-45 19.5q-22 0 -40 -12t-28 -32.5t-10 -46.5
q0 -35 18 -53t45 -18zM849 -10q-40 0 -71 17t-48.5 48.5t-17.5 74.5q0 50 21.5 92t59.5 67t86 25q40 0 70.5 -18.5t48.5 -50.5t18 -74q0 -48 -23 -89t-61 -66.5t-83 -25.5zM856 71q22 0 39.5 12.5t28 32.5t10.5 45q0 33 -18 52.5t-45 19.5q-22 0 -39.5 -11.5t-28 -32.5
t-10.5 -47q0 -34 18 -52.5t45 -18.5z" />
    <glyph glyph-name="uni2031" unicode="&#x2031;" horiz-adv-x="1403" 
d="M63 0l539 697h91l-539 -697h-91zM514 -10q-59 0 -98 37.5t-39 102.5q0 50 22 92t60 67t86 25q40 0 70.5 -18.5t48.5 -50.5t18 -74q0 -48 -23 -89t-61 -66.5t-84 -25.5zM522 71q22 0 39 12.5t28 32.5t11 45q0 33 -18 52.5t-45 19.5q-22 0 -40 -11.5t-28 -32.5t-10 -47
q0 -34 18 -52.5t45 -18.5zM219 383q-39 0 -70 17t-49 48.5t-18 73.5q0 51 22 92.5t60 67t86 25.5q40 0 70.5 -18.5t48.5 -51t18 -73.5q0 -48 -23 -89.5t-61 -66.5t-84 -25zM227 464q22 0 39 12t28 32.5t11 45.5q0 33 -18 52.5t-45 19.5q-22 0 -40 -12t-28 -32.5t-10 -46.5
q0 -35 18 -53t45 -18zM849 -10q-40 0 -71 17t-48.5 48.5t-17.5 74.5q0 50 21.5 92t59.5 67t86 25q40 0 70.5 -18.5t48.5 -50.5t18 -74q0 -48 -23 -89t-61 -66.5t-83 -25.5zM856 71q22 0 39.5 12.5t28 32.5t10.5 45q0 33 -18 52.5t-45 19.5q-22 0 -39.5 -11.5t-28 -32.5
t-10.5 -47q0 -34 18 -52.5t45 -18.5zM1183 -10q-40 0 -71 17t-48.5 48.5t-17.5 74.5q0 50 22 92t59.5 67t85.5 25q41 0 71.5 -18.5t48 -50.5t17.5 -74q0 -48 -23 -89t-61 -66.5t-83 -25.5zM1191 71q21 0 38.5 12.5t28 32.5t10.5 45q0 33 -17.5 52.5t-45.5 19.5
q-22 0 -39.5 -11.5t-28 -32.5t-10.5 -47q0 -34 18 -52.5t46 -18.5z" />
    <glyph glyph-name="guilsinglleft" unicode="&#x2039;" horiz-adv-x="282" 
d="M228 43l-225 209l281 209l-16 -132l-119 -77l96 -76z" />
    <glyph glyph-name="guilsinglright" unicode="&#x203a;" horiz-adv-x="283" 
d="M-2 43l17 133l118 76l-95 77l17 132l225 -209z" />
    <glyph glyph-name="fraction" unicode="&#x2044;" horiz-adv-x="222" 
d="M-180 0l520 697h90l-520 -697h-90z" />
    <glyph glyph-name="uni2074" unicode="&#x2074;" horiz-adv-x="336" 
d="M238 488l14 99h-185l8 57l230 262h66l-35 -250h66l-9 -69h-67l-13 -99h-75zM137 637l-3 19h129l25 180l6 -14z" />
    <glyph glyph-name="dong" unicode="&#x20ab;" horiz-adv-x="560" 
d="M224 129q-82 0 -124 51.5t-42 130.5q0 22 3 44q9 66 39.5 113t75 72t95.5 25q63 0 98.5 -33t42.5 -107l-42 20l39 284h108l-83 -591h-91l-1 111l18 -4q-11 -50 -47 -83t-89 -33zM16 0l11 73h462l-11 -73h-462zM244 229q32 0 57.5 15.5t42.5 44t23 66.5q1 6 1.5 13t0.5 12
q0 40 -20.5 62.5t-57.5 22.5q-31 0 -57.5 -15.5t-43.5 -43.5t-23 -65q-1 -7 -1.5 -14t-0.5 -11q0 -40 21 -63.5t58 -23.5zM284 613l9 64h280l-9 -64h-280z" />
    <glyph glyph-name="Euro" unicode="&#x20ac;" horiz-adv-x="560" 
d="M310 -10q-81 0 -136.5 36.5t-84 102t-28.5 150.5q0 19 1.5 39t4.5 41q14 101 58.5 179.5t114.5 123.5t159 45q66 0 115.5 -17t84.5 -49l-79 -97q-21 22 -51 34.5t-73 12.5q-55 0 -97 -32.5t-69 -88.5t-36 -126q-3 -18 -4.5 -35.5t-1.5 -32.5q0 -75 30.5 -122.5
t95.5 -47.5q48 0 85 15.5t63 40.5l59 -108q-43 -32 -95 -48t-116 -16zM5 236l12 84h408l-14 -84h-406zM28 386l12 83h407l-13 -83h-406z" />
    <glyph glyph-name="uni20B1" unicode="&#x20b1;" horiz-adv-x="560" 
d="M28 0l98 697h194q77 0 124.5 -21t69 -59t21.5 -90q0 -9 -0.5 -20t-2.5 -22q-8 -57 -41 -102t-88.5 -70t-132.5 -25h-74l-40 -288h-128zM33 448l13 92h122l-13 -92h-122zM214 409h65q59 0 89 22t36 69q1 5 1.5 9t0.5 9q0 30 -22.5 44t-73.5 14h-73zM487 448l13 92h91
l-13 -92h-91z" />
    <glyph glyph-name="uni20B3" unicode="&#x20b3;" horiz-adv-x="560" 
d="M-26 0l321 697h96l125 -697h-142l-55 506l-201 -506h-144zM-16 129l14 84h556l-12 -84h-558zM6 279l12 83h556l-12 -83h-556z" />
    <glyph glyph-name="uni20B4" unicode="&#x20b4;" horiz-adv-x="560" 
d="M259 -13q-75 0 -124.5 24.5t-73.5 64.5t-24 87q0 32 11 63t34 54h138q-25 -23 -41 -48t-16 -57q0 -36 26 -54.5t68 -18.5q52 0 91.5 25t60.5 69l115 -58q-38 -72 -107 -111.5t-158 -39.5zM12 257l12 81h529l-11 -81h-530zM32 398l12 82h529l-11 -82h-530zM333 445
q33 18 55.5 40.5t22.5 53.5q0 27 -19.5 43t-49.5 16q-38 0 -70.5 -21t-59.5 -59l-97 69q42 65 99 95.5t126 30.5q66 0 110 -22t66.5 -58t22.5 -79q0 -34 -13.5 -61.5t-38.5 -47.5h-154z" />
    <glyph glyph-name="uni20B8" unicode="&#x20b8;" horiz-adv-x="560" 
d="M180 0l59 417h-186l14 105h502l-15 -105h-186l-59 -417h-129zM77 592l15 105h501l-14 -105h-502z" />
    <glyph glyph-name="uni20BD" unicode="&#x20bd;" horiz-adv-x="560" 
d="M65 0l18 125h-88l14 104h88l10 70h-88l16 110h88l40 288h221q104 0 161.5 -47t57.5 -131q0 -8 -0.5 -17t-2.5 -19q-13 -95 -83 -139.5t-182 -44.5h-100l-9 -70h164l-14 -104h-164l-18 -125h-129zM251 409h93q24 0 52 6.5t50.5 25.5t27.5 58q1 5 1 7.5v6.5
q0 28 -15.5 41.5t-39 17.5t-46.5 4h-99z" />
    <glyph glyph-name="uni2116" unicode="&#x2116;" horiz-adv-x="1149" 
d="M32 0l98 697h132l251 -528h-31l74 528h129l-98 -697h-133l-249 529h31l-75 -529h-129zM664 0l13 94h411l-13 -94h-411zM902 165q-58 0 -99 25t-63 67t-22 94q0 63 30 116.5t82.5 86t117.5 32.5q59 0 100.5 -24.5t64 -66.5t22.5 -93q0 -47 -17.5 -89.5t-49 -76
t-73.5 -52.5t-93 -19zM905 253q40 0 68 22t43.5 56t15.5 70q0 40 -21 68t-65 28q-39 0 -67 -22t-42 -56t-14 -70q0 -40 20 -68t62 -28z" />
    <glyph glyph-name="trademark" unicode="&#x2122;" horiz-adv-x="724" 
d="M360 379l44 318h101l37 -211l97 211h102l-44 -318h-64l36 252l-117 -236h-40l-53 238l-37 -254h-62zM139 379l36 260h-91l8 58h244l-8 -58h-90l-36 -260h-63z" />
    <glyph glyph-name="uni2126" unicode="&#x2126;" horiz-adv-x="808" 
d="M43 0l17 122h143l28 -31q-72 32 -112 97.5t-40 149.5q0 74 28.5 141t80 119.5t121.5 83.5t152 31q91 0 160 -37.5t107 -102t38 -148.5q0 -73 -28 -139t-79 -117t-121 -81l28 34h147l-17 -122h-282l11 102q67 31 112.5 80.5t68.5 110t23 122.5q0 81 -44 127.5t-127 46.5
q-60 0 -106.5 -23.5t-78 -63.5t-48 -90.5t-16.5 -105.5q0 -71 32.5 -125t93.5 -82l-11 -99h-281z" />
    <glyph glyph-name="oneeighth" unicode="&#x215b;" horiz-adv-x="814" 
d="M100 279l45 330l17 -36h-128l8 59h63q21 0 34 10.5t16 32.5l3 22h75l-59 -418h-74zM60 0l520 697h90l-520 -697h-90zM621 -6q-39 0 -71.5 13.5t-52 40t-19.5 65.5q0 22 7.5 43.5t24 40.5t43.5 33q-13 9 -21.5 25.5t-8.5 39.5q0 38 21.5 67t56 45.5t73.5 16.5
q32 0 59.5 -12.5t44.5 -36.5t17 -58q0 -18 -5 -35t-16.5 -31.5t-28.5 -25.5q22 -13 34 -35t12 -52q0 -44 -23 -76t-62 -50t-85 -18zM625 63q27 0 48 10.5t33 28t12 39.5q0 27 -19 41.5t-53 14.5q-26 0 -47 -9t-33.5 -25.5t-12.5 -39.5q0 -20 9 -33t25 -20t38 -7zM650 250
q20 0 36 8t26 21.5t10 31.5q0 20 -14.5 32.5t-39.5 12.5q-19 0 -35.5 -8t-26 -21.5t-9.5 -30.5q0 -21 14.5 -33.5t38.5 -12.5z" />
    <glyph glyph-name="threeeighths" unicode="&#x215c;" horiz-adv-x="921" 
d="M153 273q-43 0 -74.5 15t-49.5 42t-18 62q0 5 0.5 10.5t1.5 11.5h74q0 -4 -0.5 -6.5l-0.5 -2.5q0 -30 19.5 -45t53.5 -15q27 0 48 8.5t32.5 24.5t11.5 37q0 15 -6 25.5t-17.5 16.5t-29 8.5t-40.5 2.5l4 59q24 -1 44 6t32.5 20.5t12.5 34.5q0 20 -12.5 31.5t-36.5 11.5
q-20 0 -35.5 -7.5t-26 -21t-13.5 -30.5l-71 8q5 36 25.5 64t53.5 43.5t72 15.5q37 0 63.5 -13.5t41 -38t14.5 -54.5q0 -25 -9.5 -45t-28.5 -34.5t-47 -22.5v16q23 -5 42 -16t30.5 -30.5t11.5 -47.5q0 -40 -22.5 -72.5t-60.5 -52t-89 -19.5zM166 0l520 697h91l-520 -697h-91z
M727 -6q-38 0 -71 13.5t-52.5 40t-19.5 65.5q0 22 7.5 43.5t24 40.5t43.5 33q-13 9 -21 25.5t-8 39.5q-1 38 20.5 67t56 45.5t73.5 16.5q33 0 60.5 -12.5t44 -36.5t16.5 -58q1 -18 -4.5 -35t-17 -31.5t-28.5 -25.5q22 -13 34 -35t12 -52q0 -44 -23 -76t-61.5 -50t-85.5 -18z
M731 63q27 0 48.5 10.5t33 28t11.5 39.5q0 27 -19 41.5t-52 14.5q-26 0 -47.5 -9t-34 -25.5t-12.5 -39.5q0 -20 9 -33t25 -20t38 -7zM757 250q19 0 35.5 8t26 21.5t9.5 31.5q0 20 -14 32.5t-39 12.5q-20 0 -36 -8t-25.5 -21.5t-9.5 -30.5q0 -21 14 -33.5t39 -12.5z" />
    <glyph glyph-name="fiveeighths" unicode="&#x215d;" horiz-adv-x="919" 
d="M154 273q-42 0 -73.5 17.5t-49 46.5t-18.5 65l74 8q1 -28 19.5 -46.5t51.5 -18.5q20 0 36 7t27 19.5t17.5 28.5t6.5 33q0 30 -17.5 47.5t-47.5 17.5q-24 0 -43 -11.5t-33 -28.5l-68 19l71 220h235l-10 -69h-207l45 31l-46 -140l-27 2q23 23 51 34.5t56 11.5
q34 0 60.5 -15.5t42.5 -43.5t16 -66q0 -32 -12 -62.5t-35 -54t-54 -38t-68 -14.5zM164 0l520 697h91l-520 -697h-91zM726 -6q-39 0 -72 13.5t-52 40t-19 65.5q0 22 7 43.5t23.5 40.5t43.5 33q-13 9 -21 25.5t-8 39.5q0 38 21.5 67t55.5 45.5t73 16.5q33 0 60.5 -12.5
t44.5 -36.5t17 -58q0 -18 -5.5 -35t-16.5 -31.5t-29 -25.5q22 -13 34.5 -35t12.5 -52q0 -44 -23.5 -76t-62 -50t-84.5 -18zM729 63q28 0 49 10.5t32.5 28t11.5 39.5q0 27 -19 41.5t-52 14.5q-26 0 -47 -9t-33.5 -25.5t-12.5 -39.5q0 -20 8.5 -33t25 -20t37.5 -7zM755 250
q20 0 36 8t25.5 21.5t9.5 31.5q0 20 -14 32.5t-39 12.5q-20 0 -36 -8t-25.5 -21.5t-9.5 -30.5q0 -21 14.5 -33.5t38.5 -12.5z" />
    <glyph glyph-name="seveneighths" unicode="&#x215e;" horiz-adv-x="835" 
d="M27 279l245 378l18 -29h-248l10 69h301l-6 -55l-236 -363h-84zM80 0l520 697h91l-520 -697h-91zM642 -6q-39 0 -72 13.5t-52 40t-19 65.5q0 22 7 43.5t23.5 40.5t43.5 33q-13 9 -21 25.5t-8 39.5q0 38 21.5 67t55.5 45.5t73 16.5q33 0 60.5 -12.5t44.5 -36.5t17 -58
q0 -18 -5.5 -35t-16.5 -31.5t-29 -25.5q22 -13 34.5 -35t12.5 -52q0 -44 -23.5 -76t-62 -50t-84.5 -18zM645 63q28 0 49 10.5t32.5 28t11.5 39.5q0 27 -19 41.5t-52 14.5q-26 0 -47 -9t-33.5 -25.5t-12.5 -39.5q0 -20 8.5 -33t25 -20t37.5 -7zM671 250q20 0 36 8t25.5 21.5
t9.5 31.5q0 20 -14 32.5t-39 12.5q-20 0 -36 -8t-25.5 -21.5t-9.5 -30.5q0 -21 14.5 -33.5t38.5 -12.5z" />
    <glyph glyph-name="arrowleft" unicode="&#x2190;" horiz-adv-x="1150" 
d="M649 597l33 -86l-385 -193l1 24h865l-13 -93h-874l8 25l334 -202l-50 -78l-501 301z" />
    <glyph glyph-name="arrowright" unicode="&#x2192;" horiz-adv-x="1126" 
d="M515 -6l-33 86l384 193v-24h-866l13 93h874l-8 -25l-333 202l50 78l500 -301z" />
    <glyph glyph-name="partialdiff" unicode="&#x2202;" horiz-adv-x="640" 
d="M252 -6q-98 0 -151 54.5t-53 140.5q0 61 23.5 116.5t65.5 98t96.5 67.5t115.5 25q31 0 55 -8.5t41.5 -21.5t29.5 -31q3 -3 8 -10.5t10 -16.5q3 16 3.5 28.5t0.5 27.5q0 72 -26.5 111t-86.5 39q-34 0 -73 -16.5t-65 -63.5l-89 36q35 66 95.5 100.5t134.5 34.5
q103 0 158 -65t55 -186q0 -66 -14 -132t-42 -125t-69.5 -104.5t-97.5 -72t-125 -26.5zM265 101q42 0 77.5 17.5t62 46.5t41.5 62q7 17 11.5 35t4.5 34q1 28 -10 50t-33.5 35t-57.5 13q-49 0 -85.5 -19.5t-61.5 -49.5t-37.5 -65t-12.5 -67q0 -45 28 -68.5t73 -23.5z" />
    <glyph glyph-name="emptyset" unicode="&#x2205;" horiz-adv-x="713" 
d="M87 34l68 86q-45 42 -72 101t-27 128q0 65 24 121.5t67.5 100t100.5 68t122 24.5q47 0 88.5 -13t78.5 -35l38 48h78l-67 -86q45 -42 71.5 -101t26.5 -127q0 -66 -24 -123t-67.5 -100t-100.5 -67.5t-122 -24.5q-46 0 -88 12t-79 35l-37 -47h-79zM202 180l289 374
q-27 16 -57 24.5t-64 8.5q-49 0 -92.5 -18.5t-76 -51t-51 -76t-18.5 -92.5t18.5 -93t51.5 -76zM370 110q50 0 93.5 18.5t76 51t51 76t18.5 93.5q0 48 -18 92t-52 76l-288 -375q26 -15 57 -23.5t62 -8.5z" />
    <glyph glyph-name="uni2206" unicode="&#x2206;" horiz-adv-x="671" 
d="M3 0l379 697h31l183 -697h-593zM173 104h288l-91 379z" />
    <glyph glyph-name="product" unicode="&#x220f;" horiz-adv-x="611" 
d="M53 0l83 593h-39l15 104h512l-14 -104h-40l-83 -593h-105l83 593h-224l-83 -593h-105z" />
    <glyph glyph-name="summation" unicode="&#x2211;" horiz-adv-x="639" 
d="M13 0l6 57l321 291l-236 292l7 57h542l-16 -118h-397l24 49l245 -280l-318 -278l-14 48h394l-16 -118h-542z" />
    <glyph glyph-name="minus" unicode="&#x2212;" horiz-adv-x="560" 
d="M69 198v98h422v-98h-422z" />
    <glyph glyph-name="uni2215" unicode="&#x2215;" horiz-adv-x="431" 
d="M-6 0l375 697h97l-376 -697h-96z" />
    <glyph glyph-name="radical" unicode="&#x221a;" horiz-adv-x="624" 
d="M205 -123l-85 389h-79l15 105h154l35 -226l292 552h113z" />
    <glyph glyph-name="infinity" unicode="&#x221e;" horiz-adv-x="850" 
d="M227 160q-62 0 -106 24t-67.5 67t-23.5 97q0 56 23 98.5t67.5 66.5t106.5 24q47 0 101 -25t98 -79q28 35 61.5 58t68.5 34.5t67 11.5q62 0 106.5 -24t67.5 -66.5t23 -98.5q0 -54 -23 -97t-67.5 -67t-106.5 -24q-33 0 -68.5 11.5t-68.5 34.5t-60 58q-43 -52 -96 -78
t-103 -26zM242 261q28 0 64 21.5t63 65.5q-28 47 -64 68t-63 21q-31 0 -53.5 -10.5t-35 -30t-12.5 -48.5q0 -28 12.5 -47.5t35 -29.5t53.5 -10zM607 261q31 0 54 10t36 29.5t13 47.5q0 29 -13 48.5t-36 30t-54 10.5q-26 0 -61.5 -21t-64.5 -68q29 -47 64.5 -67t61.5 -20z
" />
    <glyph glyph-name="integral" unicode="&#x222b;" horiz-adv-x="481" 
d="M-26 -224l8 105q81 0 122 30t52 106l77 547q6 45 30 79t59.5 53t73.5 19q31 0 59 -12t50 -33l-72 -75q-12 9 -20.5 12t-16.5 3q-23 0 -39.5 -14.5t-20.5 -42.5l-77 -546q-11 -76 -49.5 -127.5t-98.5 -77.5t-137 -26z" />
    <glyph glyph-name="approxequal" unicode="&#x2248;" horiz-adv-x="560" 
d="M367 271q-37 0 -59.5 11.5t-36.5 28.5t-24.5 33.5t-23 28t-32.5 11.5q-19 0 -29.5 -23.5t-10.5 -58.5h-99q0 75 38 121.5t101 46.5q38 0 61.5 -11t38 -27.5t25 -33t22 -27.5t29.5 -11q19 0 30.5 27t11.5 65h99q0 -53 -17.5 -93.5t-49 -64t-74.5 -23.5zM367 23
q-37 0 -59.5 11t-36.5 27.5t-24.5 33.5t-23 28t-32.5 11q-19 0 -29.5 -22.5t-10.5 -59.5h-99q0 76 38 123t101 47q38 0 61.5 -11t38 -27.5t25 -33t22 -27.5t29.5 -11q19 0 30.5 26.5t11.5 66.5h99q0 -53 -17.5 -94t-49 -64.5t-74.5 -23.5z" />
    <glyph glyph-name="notequal" unicode="&#x2260;" horiz-adv-x="560" 
d="M155 0l200 493h51l-200 -493h-51zM73 312v98h414v-98h-414zM73 84v98h414v-98h-414z" />
    <glyph glyph-name="lessequal" unicode="&#x2264;" horiz-adv-x="560" 
d="M530 108l-504 154v122l504 153v-103l-461 -130v38l461 -130v-104zM26 -46v98h504v-98h-504z" />
    <glyph glyph-name="greaterequal" unicode="&#x2265;" horiz-adv-x="560" 
d="M30 108v104l461 130v-38l-461 130v103l504 -153v-122zM534 -46h-504v98h504v-98z" />
    <glyph glyph-name="lozenge" unicode="&#x25ca;" horiz-adv-x="626" 
d="M197 0l-141 348l237 349h164l141 -349l-236 -348h-165zM280 65h12l183 283l-101 284h-11l-185 -284z" />
    <glyph glyph-name="uni004A0301" horiz-adv-x="556" 
d="M228 -16q-97 0 -154 56t-57 153l128 6q1 -49 24.5 -72t69.5 -23q60 0 88.5 40t37.5 108l47 329h-261l15 116h391l-64 -459q-11 -79 -47 -136t-91.5 -87.5t-126.5 -30.5zM323 759l120 142h131l-162 -142h-89z" />
    <glyph glyph-name="uni013B.loclMAH" horiz-adv-x="504" 
d="M32 0l98 697h129l-81 -581h296l-16 -116h-426zM101 -227l66 174h130l-122 -174h-74z" />
    <glyph glyph-name="uni0145.loclMAH" horiz-adv-x="689" 
d="M32 0l98 697h132l251 -528h-31l74 528h129l-98 -697h-133l-249 529h31l-75 -529h-129zM177 -227l66 174h130l-122 -174h-74z" />
    <glyph glyph-name="uni1EB6.ss03" horiz-adv-x="674" 
d="M-28 0l378 697h98l181 -697h-138l-115 506l-260 -506h-144zM175 136l57 116h209l27 -116h-293zM281 -199q-29 0 -49 20.5t-20 49.5q0 32 22.5 54.5t53.5 22.5q30 0 49.5 -19.5t19.5 -48.5q0 -32 -22 -55.5t-54 -23.5zM405 738q-45 0 -77.5 14.5t-49 43t-13.5 69.5h78
q-2 -30 17.5 -45t52.5 -15q36 0 58.5 15t25.5 45h79q-11 -69 -54.5 -98t-116.5 -29z" />
    <glyph glyph-name="uni1EAC.ss03" horiz-adv-x="674" 
d="M-28 0l378 697h98l181 -697h-138l-115 506l-260 -506h-144zM175 136l57 116h209l27 -116h-293zM281 -199q-29 0 -49 20.5t-20 49.5q0 32 22.5 54.5t53.5 22.5q30 0 49.5 -19.5t19.5 -48.5q0 -32 -22 -55.5t-54 -23.5zM249 745l180 175l133 -175h-96l-47 69l-67 -69h-103z
" />
    <glyph glyph-name="Adieresis.ss03" horiz-adv-x="674" 
d="M-28 0l378 697h98l181 -697h-138l-115 506l-260 -506h-144zM175 136l57 116h209l27 -116h-293zM519 765q-29 0 -48.5 19.5t-19.5 48.5q0 32 22 55t53 23t50 -19.5t19 -48.5q0 -32 -22 -55t-54 -23zM315 765q-29 0 -49 19.5t-20 48.5q0 32 22.5 55t53.5 23t50 -19.5
t19 -48.5q0 -32 -22.5 -55t-53.5 -23z" />
    <glyph glyph-name="uni1EA0.ss03" horiz-adv-x="674" 
d="M-28 0l378 697h98l181 -697h-138l-115 506l-260 -506h-144zM175 136l57 116h209l27 -116h-293zM281 -199q-29 0 -49 20.5t-20 49.5q0 32 22.5 54.5t53.5 22.5q30 0 49.5 -19.5t19.5 -48.5q0 -32 -22 -55.5t-54 -23.5z" />
    <glyph glyph-name="Cdotaccent.ss03" horiz-adv-x="710" 
d="M342 -16q-72 0 -127 23.5t-92 65.5t-55.5 98t-18.5 120q0 78 25.5 152.5t75 135.5t120 97.5t161.5 36.5q114 0 187.5 -57.5t95.5 -154.5l-124 -37q-14 60 -59 92.5t-110 32.5q-60 0 -105.5 -25t-76.5 -66.5t-47 -93t-16 -105.5q0 -88 45.5 -139.5t130.5 -51.5
q70 0 121.5 35.5t82.5 96.5l116 -51q-47 -96 -134 -150.5t-196 -54.5zM437 765q-29 0 -49 19.5t-20 48.5q0 32 22.5 55t53.5 23t50 -19.5t19 -48.5q0 -32 -22.5 -55t-53.5 -23z" />
    <glyph glyph-name="uni1EC6.ss03" horiz-adv-x="578" 
d="M32 0l98 697h464l-15 -116h-335l-24 -166h312l-16 -115h-312l-26 -184h335l-17 -116h-464zM243 -199q-29 0 -49 20.5t-20 49.5q0 32 22.5 54.5t53.5 22.5q30 0 49.5 -19.5t19.5 -48.5q0 -32 -22 -55.5t-54 -23.5zM211 745l180 175l133 -175h-96l-47 69l-67 -69h-103z" />
    <glyph glyph-name="Edieresis.ss03" horiz-adv-x="578" 
d="M32 0l98 697h464l-15 -116h-335l-24 -166h312l-16 -115h-312l-26 -184h335l-17 -116h-464zM480 765q-29 0 -48.5 19.5t-19.5 48.5q0 32 22 55t53 23t50 -19.5t19 -48.5q0 -32 -22 -55t-54 -23zM276 765q-29 0 -49 19.5t-20 48.5q0 32 22.5 55t53.5 23t50 -19.5t19 -48.5
q0 -32 -22.5 -55t-53.5 -23z" />
    <glyph glyph-name="Edotaccent.ss03" horiz-adv-x="578" 
d="M32 0l98 697h464l-15 -116h-335l-24 -166h312l-16 -115h-312l-26 -184h335l-17 -116h-464zM378 765q-29 0 -49 19.5t-20 48.5q0 32 22.5 55t53.5 23t50 -19.5t19 -48.5q0 -32 -22.5 -55t-53.5 -23z" />
    <glyph glyph-name="uni1EB8.ss03" horiz-adv-x="578" 
d="M32 0l98 697h464l-15 -116h-335l-24 -166h312l-16 -115h-312l-26 -184h335l-17 -116h-464zM243 -199q-29 0 -49 20.5t-20 49.5q0 32 22.5 54.5t53.5 22.5q30 0 49.5 -19.5t19.5 -48.5q0 -32 -22 -55.5t-54 -23.5z" />
    <glyph glyph-name="Gdotaccent.ss03" horiz-adv-x="735" 
d="M333 -16q-85 0 -149.5 37.5t-99.5 105.5t-35 160q0 84 26.5 160t76.5 136t120.5 95t157.5 35q114 0 188 -57.5t96 -154.5l-125 -37q-14 60 -55.5 92.5t-106.5 32.5q-60 0 -106.5 -25t-78.5 -67t-48.5 -95.5t-16.5 -111.5q0 -85 44.5 -133.5t124.5 -48.5q35 0 71.5 10
t69 33.5t55.5 64t31 100.5l6 37l15 -90h-198l16 116h285l-52 -379h-113l-4 113l21 -21q-24 -36 -57.5 -60.5t-73.5 -36t-85 -11.5zM451 765q-29 0 -49 19.5t-20 48.5q0 32 22.5 55t53.5 23t50 -19.5t19 -48.5q0 -32 -22.5 -55t-53.5 -23z" />
    <glyph glyph-name="Idieresis.ss03" horiz-adv-x="263" 
d="M32 0l98 697h129l-98 -697h-129zM313 765q-29 0 -48.5 19.5t-19.5 48.5q0 32 22 55t53 23t50 -19.5t19 -48.5q0 -32 -22 -55t-54 -23zM109 765q-29 0 -49 19.5t-20 48.5q0 32 22.5 55t53.5 23t50 -19.5t19 -48.5q0 -32 -22.5 -55t-53.5 -23z" />
    <glyph glyph-name="uni1ECA.ss03" horiz-adv-x="263" 
d="M32 0l98 697h129l-98 -697h-129zM76 -199q-29 0 -49 20.5t-20 49.5q0 32 22.5 54.5t53.5 22.5q30 0 49.5 -19.5t19.5 -48.5q0 -32 -22 -55.5t-54 -23.5z" />
    <glyph glyph-name="Ldot.ss03" horiz-adv-x="504" 
d="M32 0l98 697h129l-81 -581h296l-16 -116h-426zM431 290q-29 0 -48.5 20t-19.5 49q0 32 22.5 54.5t53.5 22.5q30 0 49.5 -19t19.5 -49q0 -31 -22.5 -54.5t-54.5 -23.5z" />
    <glyph glyph-name="uni1E44.ss03" horiz-adv-x="689" 
d="M32 0l98 697h132l251 -528h-31l74 528h129l-98 -697h-133l-249 529h31l-75 -529h-129zM422 765q-29 0 -49 19.5t-20 48.5q0 32 22.5 55t53.5 23t50 -19.5t19 -48.5q0 -32 -22.5 -55t-53.5 -23z" />
    <glyph glyph-name="uni1ED8.ss03" horiz-adv-x="748" 
d="M342 -16q-90 0 -156 37.5t-101.5 106t-35.5 162.5q0 82 26.5 157.5t76 135.5t120.5 95t160 35q90 0 156 -37.5t102 -106t36 -163.5q0 -82 -27 -157.5t-77 -135t-121 -94.5t-159 -35zM351 108q58 0 103.5 23.5t77 64.5t48 92.5t16.5 108.5q0 88 -45 140t-128 52
q-59 0 -105 -24.5t-77 -66t-47 -93t-16 -106.5q0 -59 20 -102t58.5 -66t94.5 -23zM317 -199q-29 0 -49 20.5t-20 49.5q0 32 22.5 54.5t53.5 22.5q30 0 49.5 -19.5t19.5 -48.5q0 -32 -22 -55.5t-54 -23.5zM285 745l180 175l133 -175h-96l-47 69l-67 -69h-103z" />
    <glyph glyph-name="Odieresis.ss03" horiz-adv-x="748" 
d="M342 -16q-90 0 -156 37.5t-101.5 106t-35.5 162.5q0 82 26.5 157.5t76 135.5t120.5 95t160 35q90 0 156 -37.5t102 -106t36 -163.5q0 -82 -27 -157.5t-77 -135t-121 -94.5t-159 -35zM351 108q58 0 103.5 23.5t77 64.5t48 92.5t16.5 108.5q0 88 -45 140t-128 52
q-59 0 -105 -24.5t-77 -66t-47 -93t-16 -106.5q0 -59 20 -102t58.5 -66t94.5 -23zM554 765q-29 0 -48.5 19.5t-19.5 48.5q0 32 22 55t53 23t50 -19.5t19 -48.5q0 -32 -22 -55t-54 -23zM350 765q-29 0 -49 19.5t-20 48.5q0 32 22.5 55t53.5 23t50 -19.5t19 -48.5
q0 -32 -22.5 -55t-53.5 -23z" />
    <glyph glyph-name="uni1ECC.ss03" horiz-adv-x="748" 
d="M342 -16q-90 0 -156 37.5t-101.5 106t-35.5 162.5q0 82 26.5 157.5t76 135.5t120.5 95t160 35q90 0 156 -37.5t102 -106t36 -163.5q0 -82 -27 -157.5t-77 -135t-121 -94.5t-159 -35zM351 108q58 0 103.5 23.5t77 64.5t48 92.5t16.5 108.5q0 88 -45 140t-128 52
q-59 0 -105 -24.5t-77 -66t-47 -93t-16 -106.5q0 -59 20 -102t58.5 -66t94.5 -23zM317 -199q-29 0 -49 20.5t-20 49.5q0 32 22.5 54.5t53.5 22.5q30 0 49.5 -19.5t19.5 -48.5q0 -32 -22 -55.5t-54 -23.5z" />
    <glyph glyph-name="uni1EE2.ss03" horiz-adv-x="748" 
d="M342 -16q-90 0 -156 37.5t-101.5 106t-35.5 162.5q0 82 26.5 157.5t76 135.5t120.5 95t160 35q90 0 156 -37.5t102 -106t36 -163.5q0 -82 -27 -157.5t-77 -135t-121 -94.5t-159 -35zM351 108q58 0 103.5 23.5t77 64.5t48 92.5t16.5 108.5q0 88 -45 140t-128 52
q-59 0 -105 -24.5t-77 -66t-47 -93t-16 -106.5q0 -59 20 -102t58.5 -66t94.5 -23zM640 493l8 75q44 0 66 23t29 69l5 37h84l-6 -45q-9 -71 -55.5 -115t-130.5 -44zM317 -199q-29 0 -49 20.5t-20 49.5q0 32 22.5 54.5t53.5 22.5q30 0 49.5 -19.5t19.5 -48.5q0 -32 -22 -55.5
t-54 -23.5z" />
    <glyph glyph-name="Udieresis.ss03" horiz-adv-x="657" 
d="M298 -16q-119 0 -179.5 54t-60.5 159q0 12 1 27.5t3 30.5l62 442h129l-60 -434q-2 -16 -3.5 -30.5t-1.5 -27.5q0 -51 25.5 -76.5t87.5 -25.5q56 0 90.5 19.5t53 56.5t25.5 90l60 428h129l-62 -443q-19 -137 -94 -203.5t-205 -66.5zM510 765q-29 0 -48.5 19.5t-19.5 48.5
q0 32 22 55t53 23t50 -19.5t19 -48.5q0 -32 -22 -55t-54 -23zM306 765q-29 0 -49 19.5t-20 48.5q0 32 22.5 55t53.5 23t50 -19.5t19 -48.5q0 -32 -22.5 -55t-53.5 -23z" />
    <glyph glyph-name="uni1EE4.ss03" horiz-adv-x="657" 
d="M298 -16q-119 0 -179.5 54t-60.5 159q0 12 1 27.5t3 30.5l62 442h129l-60 -434q-2 -16 -3.5 -30.5t-1.5 -27.5q0 -51 25.5 -76.5t87.5 -25.5q56 0 90.5 19.5t53 56.5t25.5 90l60 428h129l-62 -443q-19 -137 -94 -203.5t-205 -66.5zM273 -199q-29 0 -49 20.5t-20 49.5
q0 32 22.5 54.5t53.5 22.5q30 0 49.5 -19.5t19.5 -48.5q0 -32 -22 -55.5t-54 -23.5z" />
    <glyph glyph-name="uni1EF0.ss03" horiz-adv-x="718" 
d="M298 -16q-119 0 -179.5 54t-60.5 159q0 12 1 27.5t3 30.5l62 442h129l-60 -434q-2 -16 -3.5 -30.5t-1.5 -27.5q0 -51 25.5 -76.5t87.5 -25.5q56 0 90.5 19.5t53 56.5t25.5 90l60 428h129l-62 -443q-19 -137 -94 -203.5t-205 -66.5zM595 493l8 75q44 0 66 23t29 69l5 37
h84l-6 -45q-9 -71 -55.5 -115t-130.5 -44zM273 -199q-29 0 -49 20.5t-20 49.5q0 32 22.5 54.5t53.5 22.5q30 0 49.5 -19.5t19.5 -48.5q0 -32 -22 -55.5t-54 -23.5z" />
    <glyph glyph-name="Wdieresis.ss03" horiz-adv-x="979" 
d="M188 0l-111 697h134l73 -499l198 459h128l67 -459l216 499h137l-308 -697h-125l-81 502h21l-223 -502h-126zM671 765q-29 0 -48.5 19.5t-19.5 48.5q0 32 22 55t53 23t50 -19.5t19 -48.5q0 -32 -22 -55t-54 -23zM467 765q-29 0 -49 19.5t-20 48.5q0 32 22.5 55t53.5 23
t50 -19.5t19 -48.5q0 -32 -22.5 -55t-53.5 -23z" />
    <glyph glyph-name="Ydieresis.ss03" horiz-adv-x="625" 
d="M214 0l39 273l-185 424h145l116 -296l206 296h150l-302 -424l-40 -273h-129zM494 765q-29 0 -48.5 19.5t-19.5 48.5q0 32 22 55t53 23t50 -19.5t19 -48.5q0 -32 -22 -55t-54 -23zM290 765q-29 0 -49 19.5t-20 48.5q0 32 22.5 55t53.5 23t50 -19.5t19 -48.5
q0 -32 -22.5 -55t-53.5 -23z" />
    <glyph glyph-name="uni1EF4.ss03" horiz-adv-x="625" 
d="M214 0l39 273l-185 424h145l116 -296l206 296h150l-302 -424l-40 -273h-129zM257 -199q-29 0 -49 20.5t-20 49.5q0 32 22.5 54.5t53.5 22.5q30 0 49.5 -19.5t19.5 -48.5q0 -32 -22 -55.5t-54 -23.5z" />
    <glyph glyph-name="Zdotaccent.ss03" horiz-adv-x="605" 
d="M-7 0l13 106l477 516l15 -41h-400l16 116h512l-13 -106l-463 -501l-16 26h424l-16 -116h-549zM384 765q-29 0 -49 19.5t-20 48.5q0 32 22.5 55t53.5 23t50 -19.5t19 -48.5q0 -32 -22.5 -55t-53.5 -23z" />
    <glyph glyph-name="T_h" horiz-adv-x="1053" 
d="M192 0l81 581h-216l17 116h562l-17 -116h-215l-81 -581h-131zM515 0l98 697h125l-45 -316l-20 4q19 45 47 70.5t61.5 36.5t66.5 11q78 0 120 -39.5t42 -109.5q0 -9 -0.5 -17.5t-2.5 -18.5l-44 -318h-125l39 279q2 12 2.5 21t0.5 18q0 40 -17 58.5t-54 18.5q-56 0 -90 -40
t-46 -122l-33 -233h-125z" />
    <glyph glyph-name="i.loclTRK" horiz-adv-x="245" 
d="M25 0l69 493h125l-70 -493h-124zM102 569l18 128h132l-18 -128h-132z" />
    <glyph glyph-name="uni006A0301" horiz-adv-x="245" 
d="M5 -214q-22 0 -45 4.5t-44 11.5l8 106q13 -3 23 -4.5t16 -1.5q22 0 37 11t19 39l75 541h125l-82 -581q-9 -66 -44.5 -96t-87.5 -30zM117 555l120 142h131l-162 -142h-89z" />
    <glyph glyph-name="uni013C.loclMAH" horiz-adv-x="282" 
d="M146 -10q-47 0 -77 26t-30 78q0 6 0.5 13.5t1.5 14.5l81 575h123l-74 -541q-1 -7 -2 -13t-1 -10q0 -17 8.5 -23t21.5 -6q9 0 19 1.5t19 4.5l-15 -107q-22 -8 -41.5 -10.5t-33.5 -2.5zM-27 -227l66 174h130l-122 -174h-74z" />
    <glyph glyph-name="uni0146.loclMAH" horiz-adv-x="564" 
d="M26 0l70 493h118l-10 -112l-20 4q19 45 47 70.5t61.5 36.5t66.5 11q78 0 120 -39.5t42 -109.5q0 -9 -0.5 -17.5t-2.5 -18.5l-44 -318h-125l39 279q2 12 2.5 21t0.5 18q0 40 -17 58.5t-54 18.5q-56 0 -90 -40t-46 -122l-33 -233h-125zM110 -227l66 174h130l-122 -174h-74z
" />
    <glyph glyph-name="g.ss01" horiz-adv-x="556" 
d="M221 -213q-45 0 -85.5 7t-72 23.5t-49 42.5t-17.5 64q0 15 2.5 30t8.5 30l107 57l51 -45l-53 -51v-9q0 -21 11.5 -34t36 -19t61.5 -6q68 0 101 19.5t33 52.5q0 11 -5 18.5t-16 11.5t-29 4h-166q-10 0 -28.5 6.5t-38 21t-32.5 37.5t-12 54q2 44 29 80.5t82 70.5l52 -74
q-25 -11 -40.5 -25.5t-15.5 -33.5q0 -16 13 -23t34 -9t47 -2h101q75 0 111 -30.5t36 -85.5q0 -63 -32 -103.5t-89.5 -60t-135.5 -19.5zM272 138q-87 0 -138 45t-51 115q0 62 31.5 108t82.5 71.5t109 25.5q52 0 93.5 -20.5t66.5 -58t25 -89.5q0 -59 -28.5 -103.5t-78.5 -69
t-112 -24.5zM272 235q30 0 52 15t33.5 38.5t11.5 48.5q0 27 -16 44.5t-48 17.5q-30 0 -52 -14t-34.5 -37t-12.5 -49t16.5 -45t49.5 -19zM470 389l-84 58l125 91l55 -77z" />
    <glyph glyph-name="gbreve.ss01" horiz-adv-x="556" 
d="M221 -213q-45 0 -85.5 7t-72 23.5t-49 42.5t-17.5 64q0 15 2.5 30t8.5 30l107 57l51 -45l-53 -51v-9q0 -21 11.5 -34t36 -19t61.5 -6q68 0 101 19.5t33 52.5q0 11 -5 18.5t-16 11.5t-29 4h-166q-10 0 -28.5 6.5t-38 21t-32.5 37.5t-12 54q2 44 29 80.5t82 70.5l52 -74
q-25 -11 -40.5 -25.5t-15.5 -33.5q0 -16 13 -23t34 -9t47 -2h101q75 0 111 -30.5t36 -85.5q0 -63 -32 -103.5t-89.5 -60t-135.5 -19.5zM272 138q-87 0 -138 45t-51 115q0 62 31.5 108t82.5 71.5t109 25.5q52 0 93.5 -20.5t66.5 -58t25 -89.5q0 -59 -28.5 -103.5t-78.5 -69
t-112 -24.5zM272 235q30 0 52 15t33.5 38.5t11.5 48.5q0 27 -16 44.5t-48 17.5q-30 0 -52 -14t-34.5 -37t-12.5 -49t16.5 -45t49.5 -19zM470 389l-84 58l125 91l55 -77zM325 548q-61 0 -102.5 29t-45.5 90q-1 2 -0.5 10t1.5 20h74q-1 -6 -1 -12t1 -11q3 -27 21.5 -41.5
t53.5 -14.5q39 0 59.5 20t24.5 59h76q-7 -73 -50.5 -111t-111.5 -38z" />
    <glyph glyph-name="gcaron.ss01" horiz-adv-x="556" 
d="M221 -213q-45 0 -85.5 7t-72 23.5t-49 42.5t-17.5 64q0 15 2.5 30t8.5 30l107 57l51 -45l-53 -51v-9q0 -21 11.5 -34t36 -19t61.5 -6q68 0 101 19.5t33 52.5q0 11 -5 18.5t-16 11.5t-29 4h-166q-10 0 -28.5 6.5t-38 21t-32.5 37.5t-12 54q2 44 29 80.5t82 70.5l52 -74
q-25 -11 -40.5 -25.5t-15.5 -33.5q0 -16 13 -23t34 -9t47 -2h101q75 0 111 -30.5t36 -85.5q0 -63 -32 -103.5t-89.5 -60t-135.5 -19.5zM272 138q-87 0 -138 45t-51 115q0 62 31.5 108t82.5 71.5t109 25.5q52 0 93.5 -20.5t66.5 -58t25 -89.5q0 -59 -28.5 -103.5t-78.5 -69
t-112 -24.5zM272 235q30 0 52 15t33.5 38.5t11.5 48.5q0 27 -16 44.5t-48 17.5q-30 0 -52 -14t-34.5 -37t-12.5 -49t16.5 -45t49.5 -19zM470 389l-84 58l125 91l55 -77zM323 532l-118 165h84l50 -70l75 70h99z" />
    <glyph glyph-name="gcircumflex.ss01" horiz-adv-x="556" 
d="M221 -213q-45 0 -85.5 7t-72 23.5t-49 42.5t-17.5 64q0 15 2.5 30t8.5 30l107 57l51 -45l-53 -51v-9q0 -21 11.5 -34t36 -19t61.5 -6q68 0 101 19.5t33 52.5q0 11 -5 18.5t-16 11.5t-29 4h-166q-10 0 -28.5 6.5t-38 21t-32.5 37.5t-12 54q2 44 29 80.5t82 70.5l52 -74
q-25 -11 -40.5 -25.5t-15.5 -33.5q0 -16 13 -23t34 -9t47 -2h101q75 0 111 -30.5t36 -85.5q0 -63 -32 -103.5t-89.5 -60t-135.5 -19.5zM272 138q-87 0 -138 45t-51 115q0 62 31.5 108t82.5 71.5t109 25.5q52 0 93.5 -20.5t66.5 -58t25 -89.5q0 -59 -28.5 -103.5t-78.5 -69
t-112 -24.5zM272 235q30 0 52 15t33.5 38.5t11.5 48.5q0 27 -16 44.5t-48 17.5q-30 0 -52 -14t-34.5 -37t-12.5 -49t16.5 -45t49.5 -19zM470 389l-84 58l125 91l55 -77zM171 541l177 175l131 -175h-94l-48 69l-66 -69h-100z" />
    <glyph glyph-name="uni0123.ss01" horiz-adv-x="556" 
d="M221 -213q-45 0 -85.5 7t-72 23.5t-49 42.5t-17.5 64q0 15 2.5 30t8.5 30l107 57l51 -45l-53 -51v-9q0 -21 11.5 -34t36 -19t61.5 -6q68 0 101 19.5t33 52.5q0 11 -5 18.5t-16 11.5t-29 4h-166q-10 0 -28.5 6.5t-38 21t-32.5 37.5t-12 54q2 44 29 80.5t82 70.5l52 -74
q-25 -11 -40.5 -25.5t-15.5 -33.5q0 -16 13 -23t34 -9t47 -2h101q75 0 111 -30.5t36 -85.5q0 -63 -32 -103.5t-89.5 -60t-135.5 -19.5zM272 138q-87 0 -138 45t-51 115q0 62 31.5 108t82.5 71.5t109 25.5q52 0 93.5 -20.5t66.5 -58t25 -89.5q0 -59 -28.5 -103.5t-78.5 -69
t-112 -24.5zM272 235q30 0 52 15t33.5 38.5t11.5 48.5q0 27 -16 44.5t-48 17.5q-30 0 -52 -14t-34.5 -37t-12.5 -49t16.5 -45t49.5 -19zM470 389l-84 58l125 91l55 -77zM229 552l149 156h76l-93 -156h-132z" />
    <glyph glyph-name="gdotaccent.ss01" horiz-adv-x="556" 
d="M221 -213q-45 0 -85.5 7t-72 23.5t-49 42.5t-17.5 64q0 15 2.5 30t8.5 30l107 57l51 -45l-53 -51v-9q0 -21 11.5 -34t36 -19t61.5 -6q68 0 101 19.5t33 52.5q0 11 -5 18.5t-16 11.5t-29 4h-166q-10 0 -28.5 6.5t-38 21t-32.5 37.5t-12 54q2 44 29 80.5t82 70.5l52 -74
q-25 -11 -40.5 -25.5t-15.5 -33.5q0 -16 13 -23t34 -9t47 -2h101q75 0 111 -30.5t36 -85.5q0 -63 -32 -103.5t-89.5 -60t-135.5 -19.5zM272 138q-87 0 -138 45t-51 115q0 62 31.5 108t82.5 71.5t109 25.5q52 0 93.5 -20.5t66.5 -58t25 -89.5q0 -59 -28.5 -103.5t-78.5 -69
t-112 -24.5zM272 235q30 0 52 15t33.5 38.5t11.5 48.5q0 27 -16 44.5t-48 17.5q-30 0 -52 -14t-34.5 -37t-12.5 -49t16.5 -45t49.5 -19zM470 389l-84 58l125 91l55 -77zM263 569l18 128h132l-18 -128h-132z" />
    </font>
</defs>
</svg>
