<?xml version="1.0" standalone="no"?>
<!DOCTYPE svg PUBLIC "-//W3C//DTD SVG 1.1//EN" "http://www.w3.org/Graphics/SVG/1.1/DTD/svg11.dtd" >
<svg xmlns="http://www.w3.org/2000/svg" xmlns:xlink="http://www.w3.org/1999/xlink" version="1.1">
<metadata>
Created by FontForge 20170731 at Wed Nov 16 23:15:30 2022
 By Aleksey,,,
Copyright 2021 The Hanken Grotesk Project Authors (https://github.com/marcologous/hanken-grotesk)
</metadata>
<defs>
<font id="HankenGrotesk-Medium" horiz-adv-x="0" >
  <font-face 
    font-family="Hanken Grotesk Medium"
    font-weight="500"
    font-stretch="normal"
    units-per-em="1000"
    panose-1="0 0 0 0 0 0 0 0 0 0"
    ascent="800"
    descent="-200"
    x-height="493"
    cap-height="697"
    bbox="-175 -258 1301 994"
    underline-thickness="40"
    underline-position="-181"
    unicode-range="U+0020-FB02"
  />
<missing-glyph horiz-adv-x="508" 
d="M50 0v473h408v-473h-408zM85 36h338v402h-338v-402z" />
    <glyph glyph-name="fi" unicode="fi" horiz-adv-x="524" 
d="M95 0v417h-85v76h85v38q0 57 27 96t71.5 59t95.5 20q56 0 97.5 -12.5t76.5 -36.5l-46 -69q-25 19 -56 28.5t-67 9.5q-51 0 -76.5 -25.5t-25.5 -78.5v-29h208v-76h-208v-417h-97zM365 0v493h97v-493h-97z" />
    <glyph glyph-name="fl" unicode="fl" horiz-adv-x="565" 
d="M466 -9q-45 0 -75 29t-30 92v496q-18 10 -35.5 14t-36.5 4q-49 0 -74 -25t-25 -72v-36h97v-76h-97v-417h-97v417h-83v76h83v38q0 57 26.5 95.5t70 59t94.5 20.5q55 0 95.5 -13t80.5 -39v-525q0 -48 40 -48q8 0 18 2t23 6v-84q-22 -7 -41.5 -10.5t-33.5 -3.5z" />
    <glyph glyph-name="f_f" unicode="ff" horiz-adv-x="609" 
d="M95 0v417h-85v76h85v39q0 55 27 93.5t73 59.5t99 21q33 0 63.5 -7.5t59.5 -24.5q20 18 48 25t60 7q25 0 45.5 -5t42.5 -16l-32 -74q-13 7 -24.5 10t-21.5 3q-35 0 -50.5 -19t-15.5 -52v-60h133v-76h-133v-417h-98v417h-179v-417h-97zM192 493h180v70q0 13 2.5 24t7.5 19
q-18 10 -38.5 15t-44.5 5q-53 0 -80 -26t-27 -70v-37z" />
    <glyph glyph-name="f_f_i" unicode="ffi" horiz-adv-x="806" 
d="M95 0v417h-85v76h85v39q0 55 27 93.5t73 59.5t99 21q35 0 71.5 -9.5t67.5 -31.5q27 21 61.5 31t69.5 10q57 0 97.5 -12.5t76.5 -36.5l-46 -69q-24 18 -55.5 28t-67.5 10q-51 0 -76 -25t-25 -72v-36h277v-493h-98v417h-179v-417h-97v417h-179v-417h-97zM192 493h179v38
q0 20 4.5 42t10.5 30q-18 11 -39.5 17t-47.5 6q-53 0 -80 -26t-27 -70v-37z" />
    <glyph glyph-name="f_f_l" unicode="ffl" horiz-adv-x="850" 
d="M752 -9q-46 0 -75.5 29.5t-29.5 91.5v497q-18 9 -37 13t-41 4q-51 0 -76 -25t-25 -72v-36h102v-76h-102v-417h-97v417h-179v-417h-97v417h-85v76h85v39q0 55 27 93.5t73 59.5t99 21q38 0 73.5 -9.5t65.5 -30.5q26 21 60.5 30.5t70.5 9.5q57 0 98.5 -13t82.5 -39v-519
q0 -29 9.5 -41.5t30.5 -12.5q17 0 41 8v-84q-18 -7 -38 -10.5t-36 -3.5zM192 493h179v38q0 22 4.5 39.5t10.5 32.5q-16 11 -38.5 17t-48.5 6q-53 0 -80 -27t-27 -75v-31z" />
    <glyph glyph-name="hyphen_greater.liga" unicode="&#x2d;&#x3e;" horiz-adv-x="1121" 
d="M567 13l-33 65l357 200l4 -14h-871v73h871l-4 -14l-357 200l33 66l517 -288z" />
    <glyph glyph-name="less_hyphen.liga" unicode="&#x3c;&#x2d;" horiz-adv-x="1121" 
d="M554 13l-517 288l517 288l33 -66l-358 -200l-3 14h871v-73h-871l3 14l358 -200z" />
    <glyph glyph-name=".notdef" horiz-adv-x="508" 
d="M50 0v473h408v-473h-408zM85 36h338v402h-338v-402z" />
    <glyph glyph-name=".null" 
 />
    <glyph glyph-name="nonmarkingreturn" horiz-adv-x="333" 
 />
    <glyph glyph-name="space" unicode=" " horiz-adv-x="260" 
 />
    <glyph glyph-name="exclam" unicode="!" horiz-adv-x="244" 
d="M85 205l-11 492h97l-11 -492h-75zM66 0v121h112v-121h-112z" />
    <glyph glyph-name="quotedbl" unicode="&#x22;" horiz-adv-x="347" 
d="M49 413v284h82v-284h-82zM215 413v284h83v-284h-83z" />
    <glyph glyph-name="numbersign" unicode="#" horiz-adv-x="697" 
d="M124 0l44 207h-118v70h133l32 154h-124v74h139l44 192h78l-44 -196h144l42 196h78l-43 -196h118v-70h-133l-34 -154h127v-70h-141l-45 -207h-77l45 207h-145l-43 -207h-77zM261 277h144l31 154h-144z" />
    <glyph glyph-name="dollar" unicode="$" horiz-adv-x="560" 
d="M248 -113v124h71v-124h-71zM248 685v123h71v-123h-71zM292 -12q-107 0 -175.5 56t-83.5 149l99 24q11 -68 55 -103t108 -35q37 0 65.5 13.5t45.5 39t17 57.5q0 34 -18.5 56t-52 39.5t-80.5 35.5q-61 23 -104.5 50t-67 64.5t-23.5 90.5q0 54 26.5 95.5t74.5 65.5t111 24
q67 0 119.5 -30.5t83.5 -91.5l-81 -50q-22 40 -53.5 61t-71.5 21q-31 0 -55.5 -12t-38 -32.5t-13.5 -48.5q0 -29 16.5 -50t49 -37.5t81.5 -34.5q62 -24 106 -51.5t68 -65.5t24 -93q0 -60 -29.5 -106.5t-81.5 -73.5t-121 -27z" />
    <glyph glyph-name="percent" unicode="%" horiz-adv-x="743" 
d="M111 0l446 697h71l-447 -697h-70zM543 -9q-42 0 -76.5 20.5t-55.5 57t-21 84.5t20.5 84t54.5 56t77 20t78 -21.5t55 -57.5t20 -81q0 -44 -20 -81t-54.5 -59t-77.5 -22zM543 58q25 0 44 12.5t30.5 34t11.5 48.5q0 28 -12 49t-31.5 33t-43.5 12q-23 0 -42.5 -11.5
t-31 -32.5t-11.5 -50t12 -51t32 -33t42 -11zM202 384q-43 0 -77.5 20.5t-55.5 56.5t-21 83q0 49 20.5 85t55 56.5t76.5 20.5q43 0 78 -21.5t55 -58.5t20 -82q0 -43 -20 -79.5t-54 -58.5t-77 -22zM202 451q24 0 42.5 12.5t30 33.5t11.5 47q0 29 -12 50t-31 33t-43 12
q-23 0 -42.5 -11t-31.5 -32.5t-12 -51.5q0 -28 12 -49.5t32 -32.5t44 -11z" />
    <glyph glyph-name="ampersand" unicode="&#x26;" horiz-adv-x="691" 
d="M277 -11q-65 0 -116 20t-80.5 59.5t-29.5 95.5q0 45 19 80t49 61.5t66.5 48.5t72.5 42q41 23 74.5 46t53.5 49.5t20 60.5q0 30 -19.5 52.5t-62.5 22.5q-41 0 -67.5 -24t-26.5 -64q0 -24 11 -47t26.5 -43.5t30.5 -38.5l-78 -40q-18 21 -37.5 46.5t-33 56.5t-13.5 69
q0 50 25.5 86t68 56t93.5 20q81 0 127.5 -41t46.5 -109q0 -57 -29 -98t-73.5 -72t-91.5 -58q-39 -23 -73.5 -45.5t-56 -49t-21.5 -62.5q0 -44 34 -70t91 -26q106 0 173.5 76.5t93.5 215.5l87 -14q-19 -119 -68.5 -200t-122.5 -121.5t-163 -40.5zM575 -35l-309 360l78 47
l301 -346z" />
    <glyph glyph-name="quotesingle" unicode="'" horiz-adv-x="180" 
d="M49 413v284h83v-284h-83z" />
    <glyph glyph-name="parenleft" unicode="(" horiz-adv-x="240" 
d="M147 -204q-29 41 -51.5 95t-37.5 114t-22.5 121.5t-7.5 118.5q0 83 13.5 165.5t40.5 156t66 130.5h89q-45 -60 -74 -135.5t-43 -156.5t-14 -159q0 -57 8 -118t25 -121t41.5 -114.5t56.5 -96.5h-90z" />
    <glyph glyph-name="parenright" unicode=")" horiz-adv-x="240" 
d="M93 -204h-89q32 42 56.5 96.5t41 114.5t24.5 121t8 118q0 78 -13.5 159t-43 156.5t-73.5 135.5h88q41 -57 67 -130.5t39.5 -156t13.5 -165.5q0 -57 -7.5 -118.5t-22.5 -121.5t-37 -114t-52 -95z" />
    <glyph glyph-name="asterisk" unicode="*" horiz-adv-x="398" 
d="M129 391l-47 35l88 102l-131 31l18 58l124 -53l-12 133h60l-11 -133l124 53l17 -58l-130 -31l88 -102l-47 -35l-71 116z" />
    <glyph glyph-name="plus" unicode="+" horiz-adv-x="560" 
d="M241 7v202h-202v77h202v202h78v-202h202v-77h-202v-202h-78z" />
    <glyph glyph-name="comma" unicode="," horiz-adv-x="240" 
d="M24 -152l85 302h109l-128 -302h-66z" />
    <glyph glyph-name="hyphen" unicode="-" horiz-adv-x="327" 
d="M40 264v73h248v-73h-248z" />
    <glyph glyph-name="period" unicode="." horiz-adv-x="240" 
d="M65 0v121h110v-121h-110z" />
    <glyph glyph-name="slash" unicode="/" horiz-adv-x="419" 
d="M-47 -211l358 908h75l-359 -908h-74z" />
    <glyph glyph-name="zero" unicode="0" horiz-adv-x="560" 
d="M282 -8q-61 0 -102.5 22t-68 59.5t-40 84t-18.5 97t-5 96.5t4.5 95.5t18 96t39.5 83.5t67.5 59t101.5 22q59 0 100 -21.5t67.5 -57.5t40.5 -82t19.5 -96.5t5.5 -98.5q0 -50 -5.5 -101t-20 -97t-40.5 -82.5t-66 -57.5t-98 -21zM282 86q50 0 78.5 35t40.5 94t12 132
q0 77 -12.5 136.5t-41.5 94.5t-80 35q-40 0 -65.5 -21t-39.5 -58t-20 -84.5t-6 -101.5q0 -52 6 -99t20.5 -83.5t40.5 -58t67 -21.5z" />
    <glyph glyph-name="one" unicode="1" horiz-adv-x="560" 
d="M284 0v558l30 -49h-210v78h116q32 0 48 13.5t16 47.5v49h99v-697h-99z" />
    <glyph glyph-name="two" unicode="2" horiz-adv-x="560" 
d="M46 0v78q34 27 79 60t91.5 72t86.5 83t64.5 92.5t24.5 99.5q0 55 -30 89.5t-90 34.5q-45 0 -74.5 -21t-43.5 -57t-15 -80l-96 7q0 49 15 93t44.5 78.5t73 54.5t99.5 20q64 0 111.5 -27t74.5 -75t27 -113q0 -55 -19.5 -106t-54.5 -97.5t-81 -87.5t-99 -77.5t-110 -66.5
l26 37h366v-91h-470z" />
    <glyph glyph-name="three" unicode="3" horiz-adv-x="560" 
d="M275 -8q-76 0 -133 27.5t-88.5 78t-31.5 117.5l97 6q0 -62 43.5 -98.5t115.5 -36.5q47 0 81 15t52 42.5t18 65.5q0 34 -14.5 56.5t-40 36.5t-61 19.5t-76.5 5.5v77q30 0 58 5.5t49.5 17.5t33.5 32.5t12 50.5q0 31 -14.5 54t-40.5 35.5t-61 12.5q-58 0 -90.5 -31.5
t-33.5 -81.5l-96 6q0 59 28.5 104t79 70.5t115.5 25.5q62 0 109.5 -23.5t74.5 -65t27 -96.5q0 -28 -8 -50.5t-23 -40.5t-34.5 -30.5t-42.5 -21.5q29 -8 55.5 -21.5t47 -34.5t32.5 -49t12 -64q0 -64 -32 -113t-88.5 -76t-131.5 -27z" />
    <glyph glyph-name="four" unicode="4" horiz-adv-x="560" 
d="M337 0v165h-324v77l334 455h89v-440h111v-92h-111v-165h-99zM93 222l-5 35h249v336l13 -11z" />
    <glyph glyph-name="five" unicode="5" horiz-adv-x="560" 
d="M278 -9q-63 0 -115.5 27t-86.5 73.5t-44 105.5l96 17q6 -34 24.5 -64t50 -47.5t73.5 -17.5q48 0 80.5 22.5t49.5 58t17 75.5q0 38 -16 70t-47.5 51.5t-78.5 19.5q-43 0 -76.5 -19.5t-56.5 -53.5l-95 25l66 363h376v-91h-340l52 41l-47 -258l-29 7q39 45 81.5 61.5
t82.5 16.5q68 0 120.5 -32t81.5 -85t29 -116q0 -50 -18 -95t-51.5 -80t-79 -55t-99.5 -20z" />
    <glyph glyph-name="six" unicode="6" horiz-adv-x="560" 
d="M376 697l-176 -278l-12 15q21 13 44 19.5t45 6.5q66 0 119 -31t83.5 -83.5t30.5 -117.5q0 -68 -33.5 -121.5t-89 -84.5t-123.5 -31q-67 0 -123.5 31t-90 84.5t-33.5 120.5q0 35 10.5 67.5t27.5 61.5l209 341h112zM264 374q-40 0 -73 -18.5t-53.5 -51.5t-20.5 -76
q0 -41 20 -74t53.5 -51.5t73.5 -18.5q41 0 74 18.5t53 51.5t20 75t-19.5 75t-52.5 51.5t-75 18.5z" />
    <glyph glyph-name="seven" unicode="7" horiz-adv-x="560" 
d="M98 0l334 642l27 -36h-431v91h501v-74l-322 -623h-109z" />
    <glyph glyph-name="eight" unicode="8" horiz-adv-x="560" 
d="M280 -9q-64 0 -120.5 24t-92 71t-35.5 117q0 60 29.5 106t84.5 70q-36 20 -57 55t-21 82q0 60 30.5 102t79.5 65t103 23q57 0 105 -23.5t77 -66.5t29 -102q0 -48 -21 -81.5t-57 -53.5q55 -24 84.5 -70t29.5 -106q0 -70 -35.5 -117t-91.5 -71t-121 -24zM280 84
q42 0 75.5 14.5t54 43t20.5 70.5q0 40 -19.5 68.5t-53 44t-77.5 15.5t-77.5 -15.5t-53 -44t-19.5 -68.5q0 -42 20.5 -70.5t54.5 -43t75 -14.5zM282 407q49 0 81 27.5t32 72.5q0 47 -31 76.5t-83 29.5q-32 0 -58 -12.5t-41.5 -35t-15.5 -55.5q0 -47 32 -75t84 -28z" />
    <glyph glyph-name="nine" unicode="9" horiz-adv-x="560" 
d="M167 0l176 278l12 -15q-20 -13 -43 -19.5t-46 -6.5q-66 0 -119 31t-83.5 83.5t-30.5 117.5q0 68 33.5 121.5t89.5 84.5t123 31q68 0 124 -31t89.5 -84t33.5 -121q0 -34 -10 -66.5t-28 -62.5l-209 -341h-112zM279 323q41 0 74 18.5t53 51.5t20 76q0 42 -20 74.5t-53 51
t-74 18.5q-40 0 -73.5 -18.5t-53.5 -51t-20 -75.5q0 -42 20 -75t53 -51.5t74 -18.5z" />
    <glyph glyph-name="colon" unicode=":" horiz-adv-x="240" 
d="M64 349v122h112v-122h-112zM64 0v121h112v-121h-112z" />
    <glyph glyph-name="semicolon" unicode=";" horiz-adv-x="240" 
d="M7 -152l86 282h109l-128 -282h-67zM80 349v122h112v-122h-112z" />
    <glyph glyph-name="less" unicode="&#x3c;" horiz-adv-x="560" 
d="M524 0l-499 201v92l499 201v-83l-453 -179v30l453 -180v-82z" />
    <glyph glyph-name="equal" unicode="=" horiz-adv-x="560" 
d="M79 315v78h403v-78h-403zM79 101v78h403v-78h-403z" />
    <glyph glyph-name="greater" unicode="&#x3e;" horiz-adv-x="560" 
d="M36 0v82l453 180v-30l-453 179v83l499 -201v-92z" />
    <glyph glyph-name="question" unicode="?" horiz-adv-x="516" 
d="M212 203v51q0 41 12.5 68.5t31.5 47.5t41.5 35.5t41.5 31.5t31.5 36.5t12.5 50.5q0 49 -33.5 74.5t-91.5 25.5q-63 0 -97.5 -33t-34.5 -93h-86q0 67 28 113t78 70.5t113 24.5q59 0 106.5 -19.5t75 -60t27.5 -104.5q0 -43 -12.5 -72t-32 -49.5t-41.5 -35.5t-41.5 -30.5
t-32 -36t-12.5 -51.5v-44h-84zM200 0v121h111v-121h-111z" />
    <glyph glyph-name="at" unicode="@" horiz-adv-x="874" 
d="M438 -109q-79 0 -148 28.5t-121 79.5t-82 119t-30 149q0 83 29 153.5t80.5 122.5t121 80.5t150.5 28.5q82 0 151 -28t120.5 -78.5t80 -119t28.5 -147.5q0 -62 -16 -107.5t-49 -71t-84 -25.5q-37 0 -64.5 14t-42.5 36.5t-15 49.5v30l20 -30q-20 -52 -63.5 -77.5
t-93.5 -25.5q-51 0 -92 24.5t-65 68t-24 100.5q0 59 24 103t65 68t92 24q47 0 83.5 -22.5t56.5 -67.5l-12 9l11 74h75v-237q0 -35 12 -50.5t41 -15.5q37 0 53 33t16 95q0 66 -22.5 121t-64 96t-98 63t-123.5 22q-65 0 -121.5 -23t-98.5 -65t-65 -99t-23 -126
q0 -65 24 -120.5t66 -96.5t98 -64t120 -23q87 0 165 47l34 -63q-43 -28 -95 -42t-104 -14zM429 149q32 0 55.5 15t37 41t13.5 60q0 36 -14 62.5t-37 41t-55 14.5q-30 0 -54.5 -15t-38 -41.5t-13.5 -61.5q0 -34 13.5 -60t38 -41t54.5 -15z" />
    <glyph glyph-name="A" unicode="A" horiz-adv-x="649" 
d="M14 0l271 697h79l270 -697h-111l-198 549l-199 -549h-112zM174 155l31 91h238l34 -91h-303z" />
    <glyph glyph-name="B" unicode="B" horiz-adv-x="604" 
d="M75 0v697h230q101 0 158.5 -46t57.5 -129q0 -50 -22 -88.5t-62 -59.5q60 -18 90 -62.5t30 -112.5q0 -94 -59 -146.5t-166 -52.5h-257zM177 94h148q131 0 131 110q0 53 -30.5 82t-85.5 29h-163v-221zM177 406h140q46 0 74.5 27t28.5 74q0 46 -30 71t-85 25h-128v-197z" />
    <glyph glyph-name="C" unicode="C" horiz-adv-x="706" 
d="M372 -13q-97 0 -170.5 45t-114.5 127t-41 190t41 189.5t114.5 126.5t170.5 45q107 0 185.5 -53t112.5 -147l-95 -35q-25 65 -77 101.5t-126 36.5q-68 0 -118.5 -32.5t-78 -91t-27.5 -140.5t27.5 -141t78 -91.5t118.5 -32.5q74 0 126 36.5t77 101.5l95 -34
q-34 -93 -112.5 -147t-185.5 -54z" />
    <glyph glyph-name="D" unicode="D" horiz-adv-x="679" 
d="M75 0v697h196q172 0 266.5 -92.5t94.5 -261.5q0 -166 -93.5 -254.5t-268.5 -88.5h-195zM177 94h84q85 0 145 24t91.5 80t31.5 149q0 92 -31 148.5t-89 82t-139 25.5h-93v-509z" />
    <glyph glyph-name="E" unicode="E" horiz-adv-x="583" 
d="M75 0v697h461v-91h-359v-204h329v-91h-329v-220h359v-91h-461z" />
    <glyph glyph-name="F" unicode="F" horiz-adv-x="563" 
d="M75 0v697h460v-91h-358v-204h311v-91h-311v-311h-102z" />
    <glyph glyph-name="G" unicode="G" horiz-adv-x="732" 
d="M366 -13q-94 0 -166 45t-113 127t-41 190t41 189.5t114.5 126.5t170.5 45q107 0 185.5 -53t112.5 -147l-95 -35q-25 65 -77 101.5t-126 36.5q-68 0 -118.5 -32.5t-78 -91t-27.5 -140.5t27.5 -141t78 -91.5t118.5 -32.5q35 0 71.5 9.5t67.5 34t50 66.5t19 108v47l23 -70
h-198v91h265v-370h-90l-14 128l17 -13q-18 -44 -51 -72.5t-75.5 -42t-90.5 -13.5z" />
    <glyph glyph-name="H" unicode="H" horiz-adv-x="683" 
d="M75 0v697h102v-292h329v292h102v-697h-102v310h-329v-310h-102z" />
    <glyph glyph-name="I" unicode="I" horiz-adv-x="252" 
d="M75 0v697h102v-697h-102z" />
    <glyph glyph-name="J" unicode="J" horiz-adv-x="553" 
d="M257 -13q-99 0 -161.5 60t-69.5 165l100 11q5 -74 39 -108t92 -34q67 0 96.5 44.5t29.5 125.5v355h-271v91h373v-452q0 -80 -27.5 -138t-78.5 -89t-122 -31z" />
    <glyph glyph-name="K" unicode="K" horiz-adv-x="644" 
d="M155 218v129l334 350h136zM75 0v697h102v-697h-102zM508 0l-232 367l76 71l275 -438h-119z" />
    <glyph glyph-name="L" unicode="L" horiz-adv-x="498" 
d="M75 0v697h102v-606h307v-91h-409z" />
    <glyph glyph-name="M" unicode="M" horiz-adv-x="845" 
d="M75 0v697h150l207 -536h-18l207 536h149v-697h-102v579l9 -2l-205 -517h-99l-205 517l9 2v-579h-102z" />
    <glyph glyph-name="N" unicode="N" horiz-adv-x="680" 
d="M75 0v697h106l347 -565h-24v565h101v-697h-108l-344 566h24v-566h-102z" />
    <glyph glyph-name="O" unicode="O" horiz-adv-x="748" 
d="M372 -13q-97 0 -170.5 45t-114.5 126.5t-41 189.5q0 109 41 190.5t114.5 126.5t170.5 45q99 0 173 -45t115 -126.5t41 -190.5q0 -108 -41.5 -189.5t-115.5 -126.5t-172 -45zM372 84q70 0 120 32.5t78 92t28 139.5q0 81 -28 140.5t-78 92t-120 32.5q-68 0 -118.5 -32
t-78 -91.5t-27.5 -141.5q0 -81 27.5 -140.5t78 -91.5t118.5 -32z" />
    <glyph glyph-name="P" unicode="P" horiz-adv-x="557" 
d="M75 0v697h215q115 0 174.5 -50t59.5 -149q0 -98 -60 -150t-174 -52h-114v-296h-101zM176 386h104q67 0 105 26.5t38 84.5q0 57 -36.5 83t-106.5 26h-104v-220z" />
    <glyph glyph-name="Q" unicode="Q" horiz-adv-x="778" 
d="M372 -13q-97 0 -170 45t-114.5 126.5t-41.5 189.5q0 109 41 190.5t114.5 126.5t170.5 45q99 0 173 -45t115 -126.5t41 -190.5q0 -108 -41.5 -189.5t-115.5 -126.5t-172 -45zM669 -49l-275 268l60 63l277 -271zM372 84q70 0 120 32.5t78 92t28 139.5q0 81 -28 140.5
t-78 92t-120 32.5q-68 0 -118.5 -32t-78 -91.5t-27.5 -141.5q0 -81 27.5 -140.5t78 -91.5t118.5 -32z" />
    <glyph glyph-name="R" unicode="R" horiz-adv-x="603" 
d="M75 0v697h215q82 0 133.5 -24t76 -68.5t24.5 -105.5q0 -90 -51.5 -141t-148.5 -59q-17 -1 -39 -1h-41h-67v-298h-102zM461 0l-179 310l104 13l192 -323h-117zM177 388h103q42 0 73.5 10.5t50.5 34.5t19 65t-19 64.5t-51 33.5t-73 10h-103v-218z" />
    <glyph glyph-name="S" unicode="S" horiz-adv-x="568" 
d="M294 -12q-107 0 -175.5 56t-83.5 149l99 24q11 -68 55 -103t108 -35q37 0 65.5 13.5t45.5 39t17 57.5q0 34 -18.5 56t-52 39.5t-80.5 35.5q-61 23 -104.5 50t-67 64.5t-23.5 90.5q0 54 26.5 95.5t74.5 65.5t111 24q67 0 119.5 -30.5t83.5 -91.5l-81 -50q-22 40 -53.5 61
t-71.5 21q-31 0 -55.5 -12t-38 -32.5t-13.5 -48.5q0 -29 16.5 -50t49 -37.5t81.5 -34.5q62 -24 106 -51.5t68 -65.5t24 -93q0 -60 -29.5 -106.5t-81.5 -73.5t-121 -27z" />
    <glyph glyph-name="T" unicode="T" horiz-adv-x="586" 
d="M242 0v606h-228v91h558v-91h-227v-606h-103z" />
    <glyph glyph-name="U" unicode="U" horiz-adv-x="656" 
d="M327 -13q-126 0 -192.5 67t-66.5 198v445h102v-433q0 -60 15 -101t49.5 -62t92.5 -21t93.5 21.5t50.5 62t15 100.5v433h101v-440q0 -133 -66 -201.5t-194 -68.5z" />
    <glyph glyph-name="V" unicode="V" horiz-adv-x="661" 
d="M293 0l-279 697h112l221 -573h-30l218 573h112l-277 -697h-77z" />
    <glyph glyph-name="W" unicode="W" horiz-adv-x="964" 
d="M226 0l-206 697h106l156 -542l150 503h101l150 -503l155 542h107l-206 -697h-100l-165 537h17l-165 -537h-100z" />
    <glyph glyph-name="X" unicode="X" horiz-adv-x="651" 
d="M19 0l236 349l-234 348h121l184 -276l182 276h122l-235 -348l238 -349h-122l-186 275l-186 -275h-120z" />
    <glyph glyph-name="Y" unicode="Y" horiz-adv-x="610" 
d="M255 0v270l-246 427h116l178 -325l182 325h115l-243 -427v-270h-102z" />
    <glyph glyph-name="Z" unicode="Z" horiz-adv-x="590" 
d="M31 0v85l413 552l14 -31h-404v91h492v-85l-405 -540l-13 19h430v-91h-527z" />
    <glyph glyph-name="bracketleft" unicode="[" horiz-adv-x="272" 
d="M61 -247v987h202v-65h-122v-857h122v-65h-202z" />
    <glyph glyph-name="backslash" unicode="\" horiz-adv-x="454" 
d="M502 -211h-75l-359 908h75z" />
    <glyph glyph-name="bracketright" unicode="]" horiz-adv-x="272" 
d="M211 -247h-202v65h121v857h-121v65h202v-987z" />
    <glyph glyph-name="asciicircum" unicode="^" horiz-adv-x="577" 
d="M30 215l197 482h123l197 -482h-104l-169 435h28l-168 -435h-104z" />
    <glyph glyph-name="underscore" unicode="_" horiz-adv-x="434" 
d="M12 -75v75h410v-75h-410z" />
    <glyph glyph-name="grave" unicode="`" horiz-adv-x="299" 
d="M180 556l-135 141h104l104 -141h-73z" />
    <glyph glyph-name="a" unicode="a" horiz-adv-x="542" 
d="M390 0l-8 91v219q0 52 -30 80t-87 28q-40 0 -76.5 -16t-69.5 -52l-61 63q44 46 97.5 67.5t116.5 21.5q99 0 153.5 -50.5t54.5 -141.5v-310h-90zM231 -9q-55 0 -97 20t-65 55.5t-23 82.5q0 41 17 70.5t44 45.5q25 16 57.5 22.5t69.5 6.5h157v-74h-143q-20 0 -41.5 -3.5
t-36.5 -14.5q-12 -9 -19 -22.5t-7 -31.5q0 -35 27 -56t72 -21q38 0 69.5 17.5t50.5 48t19 69.5l35 -46q-9 -52 -35 -90.5t-64.5 -58.5t-86.5 -20z" />
    <glyph glyph-name="b" unicode="b" horiz-adv-x="583" 
d="M318 -9q-44 0 -80.5 17.5t-62 51t-38.5 81.5l29 1v-142h-98v697h98v-346l-25 6q10 43 35 75.5t61.5 51t80.5 18.5q61 0 111 -31t79 -88t29 -136q0 -72 -27 -130.5t-76.5 -92t-115.5 -33.5zM297 81q43 0 74.5 21t49.5 58.5t18 86.5t-18 86.5t-49.5 58t-74.5 20.5
q-42 0 -73.5 -20.5t-49 -58t-17.5 -86.5t17.5 -86.5t49 -58.5t73.5 -21z" />
    <glyph glyph-name="c" unicode="c" horiz-adv-x="519" 
d="M277 -9q-56 0 -99.5 20.5t-73 56.5t-44.5 82t-15 97q0 50 15 96t44.5 82t73 56.5t99.5 20.5q72 0 125.5 -35t78.5 -106l-86 -33q-13 39 -42 64t-76 25q-46 0 -76 -24.5t-44 -63t-14 -82.5t14 -83t44 -63t76 -24q47 0 76 24.5t42 64.5l86 -33q-25 -72 -78.5 -107
t-125.5 -35z" />
    <glyph glyph-name="d" unicode="d" horiz-adv-x="583" 
d="M265 -9q-67 0 -116 33.5t-76.5 92t-27.5 130.5q0 79 29.5 136t79.5 88t111 31q44 0 80.5 -18t61.5 -50t35 -75l-25 -8v346h97v-697h-97v142l29 -1q-13 -48 -39 -81.5t-62.5 -51t-79.5 -17.5zM285 81q43 0 74.5 21t49 58.5t17.5 86.5t-17.5 86.5t-49 58t-74.5 20.5
q-42 0 -74 -20.5t-49.5 -58t-17.5 -86.5t17.5 -86.5t49.5 -58.5t74 -21z" />
    <glyph glyph-name="e" unicode="e" horiz-adv-x="540" 
d="M280 -9q-60 0 -104 20t-73 55.5t-43.5 81t-14.5 95.5t14 96.5t42 83t70.5 58t100.5 21.5t100 -19.5t69 -54t40.5 -77.5t13.5 -91q0 -5 -0.5 -18.5t-2.5 -25.5h-349q3 -66 40.5 -101.5t99.5 -35.5q42 0 75 13.5t61 42.5l60 -62q-29 -29 -59.5 -47t-64 -26.5t-75.5 -8.5z
M398 265q2 8 2.5 16t0.5 16q0 23 -8 45t-24 39.5t-39.5 28t-54.5 10.5q-41 0 -70 -18.5t-44.5 -48.5t-18.5 -65h288z" />
    <glyph glyph-name="f" unicode="f" horiz-adv-x="339" 
d="M108 0v417h-98v76h99v60q0 59 19 92t51.5 47t72.5 14q28 0 49.5 -5.5t41.5 -15.5l-32 -74q-11 6 -23 9.5t-25 3.5q-30 0 -43.5 -19t-13.5 -52v-60h112v-76h-112v-417h-98z" />
    <glyph glyph-name="g" unicode="g" horiz-adv-x="517" 
d="M270 -213q-107 0 -169.5 39t-62.5 108q0 5 0.5 13t2.5 16l128 88l30 -25l-68 -84q-1 -4 -1 -6.5v-5.5q0 -36 40 -54t100 -18q53 0 86 14.5t33 46.5q0 17 -10 28t-30 17.5t-47.5 11t-63.5 9.5q-46 7 -89 20t-71 38.5t-28 67.5q0 36 25.5 66.5t66.5 49.5l56 -39
q-31 -7 -45 -22.5t-14 -37.5q0 -18 13.5 -29t38.5 -17t60 -11q49 -7 91.5 -15t75 -22.5t50 -39t17.5 -63.5q0 -70 -56.5 -107t-158.5 -37zM259 149q-59 0 -103.5 22.5t-69.5 62t-25 90.5q0 53 26 93t70.5 62.5t98.5 22.5q52 0 96.5 -22.5t71 -63.5t26.5 -96
q0 -52 -24.5 -90.5t-67.5 -59.5t-99 -21zM257 227q46 0 71 28.5t25 69.5q0 44 -26.5 70.5t-69.5 26.5q-45 0 -72 -27t-27 -69t26 -70.5t73 -28.5zM418 397l-71 47l108 87l49 -61z" />
    <glyph glyph-name="h" unicode="h" horiz-adv-x="553" 
d="M68 0v697h99v-311l-21 -7q13 41 38.5 68t59 41t71.5 14q82 0 128.5 -47.5t46.5 -138.5v-316h-98v280q0 71 -25.5 104t-78.5 33q-59 0 -90 -41.5t-31 -132.5v-243h-99z" />
    <glyph glyph-name="i" unicode="i" horiz-adv-x="232" 
d="M67 0v493h98v-493h-98zM60 578v119h111v-119h-111z" />
    <glyph glyph-name="j" unicode="j" horiz-adv-x="232" 
d="M56 -213q-18 0 -39 4t-42 10v85q15 -4 26.5 -6t19.5 -2q22 0 34 12t12 44v559h98v-585q0 -62 -30 -91.5t-79 -29.5zM61 578v119h111v-119h-111z" />
    <glyph glyph-name="k" unicode="k" horiz-adv-x="541" 
d="M404 0l-157 244l-91 -98v125l215 222h125l-178 -183l202 -310h-116zM68 0v697h99v-697h-99z" />
    <glyph glyph-name="l" unicode="l" horiz-adv-x="269" 
d="M173 -9q-47 0 -77 29t-30 92v585h97v-566q0 -26 11.5 -37.5t30.5 -11.5q8 0 18.5 1.5t21.5 5.5v-83q-18 -8 -37.5 -11.5t-34.5 -3.5z" />
    <glyph glyph-name="m" unicode="m" horiz-adv-x="833" 
d="M68 0v493h99v-127l-21 -7q9 39 25 66t37.5 44t46.5 25t51 8q43 0 77.5 -16.5t58 -51t31.5 -90.5l-56 -11q15 58 39.5 95t60 55.5t81.5 18.5q62 0 99.5 -28t55 -72.5t17.5 -97.5v-304h-97v280q0 43 -10 73.5t-31 47t-56 16.5q-34 0 -58 -17.5t-36.5 -52.5t-12.5 -87v-260
h-98v286q0 66 -24.5 98.5t-70.5 32.5q-34 0 -58.5 -17.5t-37.5 -52.5t-13 -87v-260h-99z" />
    <glyph glyph-name="n" unicode="n" horiz-adv-x="553" 
d="M68 0v493h99v-107l-20 -6q13 41 37.5 67.5t58 40.5t72.5 14q82 0 128.5 -47.5t46.5 -138.5v-316h-98v280q0 71 -25.5 104t-78.5 33q-40 0 -66.5 -18t-40.5 -57t-14 -99v-243h-99z" />
    <glyph glyph-name="o" unicode="o" horiz-adv-x="575" 
d="M288 -9q-70 0 -125 33t-86.5 91t-31.5 132t31 131.5t86.5 90.5t125.5 33q71 0 125 -33t85.5 -90.5t31.5 -131.5t-31.5 -131.5t-86 -91t-124.5 -33.5zM288 78q44 0 76.5 21t50 59t17.5 89q0 52 -17.5 90t-50 58.5t-76.5 20.5q-45 0 -77.5 -21t-50 -58.5t-17.5 -89.5
q0 -51 17.5 -89t50 -59t77.5 -21z" />
    <glyph glyph-name="p" unicode="p" horiz-adv-x="583" 
d="M68 -204v697h98v-142l-28 9q13 49 38.5 80t61.5 46.5t80 15.5q66 0 115.5 -33.5t76.5 -91.5t27 -131q0 -78 -29 -135.5t-79 -88.5t-111 -31q-44 0 -80.5 17t-61.5 47.5t-35 72.5l25 14v-346h-98zM297 81q43 0 74.5 20.5t49.5 58t18 86.5t-18 86.5t-49.5 58.5t-74.5 21
q-42 0 -73.5 -21t-49 -58.5t-17.5 -86.5t17.5 -86.5t49 -58t73.5 -20.5z" />
    <glyph glyph-name="q" unicode="q" horiz-adv-x="583" 
d="M417 -204v346l25 -14q-10 -42 -35 -72.5t-61.5 -47.5t-80.5 -17q-61 0 -111 31t-79.5 88.5t-29.5 135.5q0 73 27.5 131t76.5 91.5t116 33.5q43 0 79.5 -15.5t62 -46.5t38.5 -80l-28 -9v142h97v-697h-97zM285 81q43 0 74.5 20.5t49 58t17.5 86.5t-17.5 86.5t-49 58.5
t-74.5 21q-42 0 -74 -21t-49.5 -58.5t-17.5 -86.5t17.5 -86.5t49.5 -58t74 -20.5z" />
    <glyph glyph-name="r" unicode="r" horiz-adv-x="413" 
d="M68 0v493h99v-133l-21 -4q5 44 30.5 76.5t60.5 51t69 18.5q24 0 45.5 -5.5t43.5 -18.5l-48 -88q-11 6 -28 10t-32 4q-23 0 -45 -8t-39.5 -26t-26.5 -47q-4 -14 -6.5 -36.5t-2.5 -61.5v-225h-99z" />
    <glyph glyph-name="s" unicode="s" horiz-adv-x="471" 
d="M234 -9q-52 0 -92 15.5t-68.5 40t-45.5 50.5l67 58q19 -34 54.5 -58.5t85.5 -24.5q44 0 69.5 18.5t25.5 48.5q0 24 -16 38.5t-42 24t-57 16.5q-28 8 -57 18t-52.5 25.5t-38 40t-14.5 60.5q0 63 48.5 101.5t128.5 38.5q57 0 104 -23.5t73 -69.5l-61 -47q-20 33 -51.5 48
t-68.5 15q-35 0 -58.5 -14.5t-23.5 -39.5q0 -18 10.5 -29.5t33 -20t55.5 -16.5q31 -7 63 -17t59 -26t44 -43t17 -70q0 -47 -24 -82.5t-67 -55.5t-101 -20z" />
    <glyph glyph-name="t" unicode="t" horiz-adv-x="353" 
d="M240 -9q-36 0 -66.5 14t-48 45.5t-17.5 81.5v487l99 55v-516q0 -41 12.5 -63.5t46.5 -22.5q10 0 23.5 2.5t29.5 6.5v-76q-20 -7 -40 -10.5t-39 -3.5zM10 417v76h309v-76h-309z" />
    <glyph glyph-name="u" unicode="u" horiz-adv-x="553" 
d="M237 -9q-55 0 -94.5 22.5t-60 65t-20.5 103.5v311h98v-280q0 -44 11 -74.5t34.5 -46t59.5 -15.5q42 0 68.5 21t39.5 62.5t13 103.5v229h97v-493h-97v106l20 -4q-22 -55 -67 -83t-102 -28z" />
    <glyph glyph-name="v" unicode="v" horiz-adv-x="526" 
d="M222 0l-202 493h108l134 -366l136 366h106l-200 -493h-82z" />
    <glyph glyph-name="w" unicode="w" horiz-adv-x="750" 
d="M173 0l-148 493h104l94 -344l109 344h85l109 -342l95 342h104l-149 -493h-89l-112 356l-112 -356h-90z" />
    <glyph glyph-name="x" unicode="x" horiz-adv-x="527" 
d="M25 0l174 248l-174 245h118l121 -179l122 179h117l-176 -245l176 -248h-119l-120 181l-123 -181h-116z" />
    <glyph glyph-name="y" unicode="y" horiz-adv-x="526" 
d="M114 -203l96 232l-190 464h108l134 -366l136 366h106l-283 -696h-107z" />
    <glyph glyph-name="z" unicode="z" horiz-adv-x="472" 
d="M36 0v68l299 369l6 -24h-292v80h382v-72l-296 -371l-6 30h301v-80h-394z" />
    <glyph glyph-name="braceleft" unicode="{" horiz-adv-x="254" 
d="M178 -247q-53 0 -81 34.5t-28 97.5v246q0 28 -8.5 45t-22.5 26t-32 10v69q18 3 32 11.5t22.5 25.5t8.5 44v246q0 64 28 98t81 34h68v-63h-36q-32 0 -44.5 -20t-12.5 -50v-247q0 -47 -18 -71.5t-49 -38.5v-7q31 -13 49 -38t18 -71v-248q0 -30 12.5 -50t44.5 -20h36v-63
h-68z" />
    <glyph glyph-name="bar" unicode="|" horiz-adv-x="262" 
d="M94 -254v1000h74v-1000h-74z" />
    <glyph glyph-name="braceright" unicode="}" horiz-adv-x="254" 
d="M75 -247h-67v63h35q33 0 45.5 20t12.5 50v248q0 46 17.5 71t49.5 38v7q-32 14 -49.5 38.5t-17.5 71.5v247q0 30 -12.5 50t-45.5 20h-35v63h67q53 0 81.5 -34t28.5 -98v-246q0 -27 8.5 -44t22.5 -25.5t31 -11.5v-69q-17 -1 -31 -10t-22.5 -26t-8.5 -45v-246
q0 -63 -28.5 -97.5t-81.5 -34.5z" />
    <glyph glyph-name="asciitilde" unicode="~" horiz-adv-x="560" 
d="M367 154q-34 0 -55.5 11.5t-35.5 29t-25.5 34.5t-25 28.5t-34.5 11.5q-23 0 -36.5 -24.5t-13.5 -63.5h-78q0 70 35 114.5t93 44.5q35 0 57.5 -11.5t37 -29t26 -35.5t24 -29.5t31.5 -11.5q24 0 39 29t15 72h77q0 -75 -35.5 -122.5t-95.5 -47.5z" />
    <glyph glyph-name="uni00A0" unicode="&#xa0;" horiz-adv-x="260" 
 />
    <glyph glyph-name="exclamdown" unicode="&#xa1;" horiz-adv-x="244" 
d="M159 288l11 -492h-97l11 492h75zM178 493v-121h-112v121h112z" />
    <glyph glyph-name="cent" unicode="&#xa2;" horiz-adv-x="560" 
d="M258 -113v125h70v-125h-70zM258 480v121h70v-121h-70zM298 -9q-57 0 -100 20.5t-72.5 56.5t-44.5 82t-15 97q0 50 15 96t44.5 82t72.5 56.5t100 20.5q71 0 124.5 -35t79.5 -106l-86 -33q-14 39 -42.5 64t-75.5 25q-46 0 -76 -24.5t-44.5 -63t-14.5 -82.5t14.5 -83
t44.5 -63t76 -24q47 0 75.5 24.5t42.5 64.5l86 -33q-26 -72 -79.5 -107t-124.5 -35z" />
    <glyph glyph-name="sterling" unicode="&#xa3;" horiz-adv-x="560" 
d="M48 0v87q35 12 63.5 34t46 49.5t17.5 56.5q0 20 -8 43t-14 42h-102v83h85q-7 23 -13.5 52.5t-6.5 58.5q0 57 24.5 103.5t70.5 73.5t109 27q76 0 129.5 -40.5t71.5 -110.5l-76 -28q-11 47 -46 71.5t-77 24.5q-37 0 -65 -15.5t-43.5 -43t-15.5 -64.5q0 -28 6.5 -58
t15.5 -51h202v-83h-187q6 -17 13.5 -39t7.5 -47q0 -36 -11.5 -64t-32 -47t-45.5 -30t-54 -14l19 12h387v-83h-471z" />
    <glyph glyph-name="currency" unicode="&#xa4;" horiz-adv-x="612" 
d="M113 65l-51 55l59 58q-22 31 -32.5 65.5t-10.5 68.5q0 36 11 71t32 63l-59 57l53 56l59 -61q60 45 136 45q34 0 68 -11t64 -33l59 59l53 -53l-59 -59q22 -29 33 -64.5t11 -69.5t-11 -69t-33 -66l59 -57l-52 -55l-60 60q-30 -22 -64 -33t-70 -11t-70.5 11.5t-64.5 32.5z
M308 155q44 0 79 22t56.5 58t21.5 78t-21.5 77.5t-57.5 57t-79 21.5q-42 0 -77.5 -21.5t-57 -57.5t-21.5 -80t21.5 -79t57.5 -55.5t78 -20.5z" />
    <glyph glyph-name="yen" unicode="&#xa5;" horiz-adv-x="560" 
d="M231 0v107h-167v79h167v79h-167v80h124l-185 352h109l168 -332l170 332h110l-184 -352h122v-80h-165v-79h165v-79h-165v-107h-102z" />
    <glyph glyph-name="brokenbar" unicode="&#xa6;" horiz-adv-x="262" 
d="M94 330v416h74v-416h-74zM94 -254v409h74v-409h-74z" />
    <glyph glyph-name="section" unicode="&#xa7;" horiz-adv-x="587" 
d="M288 -205q-63 0 -117 28t-89 90l85 52q21 -40 53.5 -59.5t70.5 -19.5q31 0 54 11.5t37 32t14 46.5q0 34 -22 55.5t-55.5 37t-69.5 28.5q-34 13 -69 29t-64.5 39t-47.5 56.5t-18 81.5q0 43 15.5 78.5t41.5 61.5q-8 15 -13 34.5t-5 41.5q0 60 29 101t76.5 63.5t103.5 22.5
q67 0 120 -29t86 -89l-84 -52q-20 38 -51.5 58.5t-73.5 20.5q-29 0 -53 -11.5t-37 -32t-13 -47.5q0 -32 21.5 -54t55 -37t69.5 -28q34 -13 69 -29.5t64.5 -39.5t47.5 -56t18 -81q0 -41 -15 -77.5t-42 -63.5q8 -16 13 -35t5 -42q0 -58 -29 -100t-76.5 -64t-104.5 -22z
M412 126q23 26 23 64q0 36 -20 59t-54 40t-77 33q-18 8 -36.5 15t-36.5 16t-36 23q-12 -13 -17.5 -30t-5.5 -33q0 -28 12.5 -48t33.5 -35t48 -27.5t57 -23.5q23 -9 53 -21t56 -32z" />
    <glyph glyph-name="dieresis" unicode="&#xa8;" horiz-adv-x="390" 
d="M234 578v119h111v-119h-111zM45 578v119h111v-119h-111z" />
    <glyph glyph-name="copyright" unicode="&#xa9;" horiz-adv-x="819" 
d="M410 -5q-73 0 -137.5 27.5t-113 76t-76 113t-27.5 137.5t27.5 137t76 112.5t113 76t137.5 27.5t137 -27.5t112.5 -76t76 -112.5t27.5 -137t-27.5 -137.5t-76 -113t-112.5 -76t-137 -27.5zM411 129q-64 0 -108 30.5t-66.5 80t-22.5 107.5q0 57 22 107t65.5 82t108.5 32
q62 0 108.5 -31t69.5 -90l-76 -30q-12 33 -38.5 55t-63.5 22q-39 0 -65 -21.5t-38 -55t-12 -70.5t12 -70t38 -53.5t65 -20.5q38 0 64 21t36 55l73 -28q-19 -57 -64.5 -89.5t-107.5 -32.5zM410 43q64 0 119.5 24t97 65.5t65.5 97.5t24 119q0 64 -24 119.5t-65.5 97t-97 65.5
t-119.5 24q-63 0 -119 -24t-97.5 -65.5t-65.5 -97t-24 -119.5q0 -63 24 -119t65.5 -97.5t97.5 -65.5t119 -24z" />
    <glyph glyph-name="ordfeminine" unicode="&#xaa;" horiz-adv-x="490" 
d="M209 348q-53 0 -88 29.5t-35 79.5q0 53 38.5 78t95.5 25h106q0 4 -0.5 11t-1.5 13q-4 34 -24.5 51.5t-58.5 17.5q-37 0 -60 -15.5t-39 -39.5l-45 31q30 42 63.5 59.5t78.5 17.5q68 0 105.5 -37.5t37.5 -102.5v-210h-52l-1 54q-47 -62 -120 -62zM222 402q31 0 55 14t39 41
q4 13 6.5 25.5t3.5 25.5h-103q-36 0 -55.5 -14t-19.5 -39q0 -24 19 -38.5t55 -14.5z" />
    <glyph glyph-name="guillemotleft" unicode="&#xab;" horiz-adv-x="493" 
d="M474 54l-236 199l236 197v-104l-120 -93l120 -94v-105zM239 54l-236 199l236 197v-104l-121 -93l121 -94v-105z" />
    <glyph glyph-name="logicalnot" unicode="&#xac;" horiz-adv-x="560" 
d="M401 17v192h-372v77h450v-269h-78z" />
    <glyph glyph-name="uni00AD" unicode="&#xad;" horiz-adv-x="327" 
d="M40 264v73h248v-73h-248z" />
    <glyph glyph-name="registered" unicode="&#xae;" horiz-adv-x="621" 
d="M310 190q-71 0 -129.5 33t-93 91t-34.5 134t34.5 134t93 91t129.5 33q72 0 130 -33t92.5 -91t34.5 -134t-34.5 -134t-92.5 -91t-130 -33zM310 236q59 0 107 27t76.5 75t28.5 110q0 63 -28.5 111t-76.5 75t-107 27q-58 0 -106.5 -27t-77 -75t-28.5 -111q0 -62 28.5 -110
t77 -75t106.5 -27zM231 304v289h90q50 0 73.5 -22.5t23.5 -60.5q0 -31 -16.5 -50.5t-45.5 -26.5l72 -129h-48l-66 123h-39v-123h-44zM276 467h40q25 0 41.5 9t16.5 34t-16.5 34t-41.5 9h-40v-86z" />
    <glyph glyph-name="macron" unicode="&#xaf;" horiz-adv-x="363" 
d="M45 580v59h273v-59h-273z" />
    <glyph glyph-name="degree" unicode="&#xb0;" horiz-adv-x="419" 
d="M209 419q-39 0 -71.5 19.5t-52 52.5t-19.5 72t19.5 71.5t52 52t71.5 19.5q40 0 72.5 -19.5t52 -52t19.5 -71.5t-19.5 -72t-52 -52.5t-72.5 -19.5zM209 486q22 0 39.5 10.5t28 28t10.5 38.5q0 22 -10.5 39t-28 27t-39.5 10q-20 0 -38 -10t-28 -27t-10 -39q0 -21 10 -38.5
t28 -28t38 -10.5z" />
    <glyph glyph-name="plusminus" unicode="&#xb1;" horiz-adv-x="560" 
d="M241 123v164h-209v78h209v162h78v-162h209v-78h-209v-164h-78zM32 -35v78h496v-78h-496z" />
    <glyph glyph-name="uni00B2" unicode="&#xb2;" horiz-adv-x="414" 
d="M55 488v45q33 21 72 47.5t75 58.5t59 68t23 76q0 33 -18.5 54t-56.5 21q-27 0 -45.5 -13.5t-28 -35.5t-10.5 -51l-52 4q0 39 16 72t46.5 53t73.5 20q57 0 93 -32.5t36 -92.5q0 -39 -18.5 -75.5t-48.5 -68t-66 -58t-71 -45.5l-13 2h238v-49h-304z" />
    <glyph glyph-name="uni00B3" unicode="&#xb3;" horiz-adv-x="409" 
d="M202 482q-41 0 -75 15t-54 44t-20 71l51 5q0 -42 28.5 -64t70.5 -22q38 0 67 20t29 60q0 32 -19 48.5t-46 21.5t-52 5v37q31 0 52 6.5t31.5 20.5t10.5 35q0 35 -21.5 52.5t-51.5 17.5q-34 0 -56.5 -19t-23.5 -52l-51 4q0 55 38 86t91 31q34 0 63 -13t46.5 -37.5
t17.5 -58.5q0 -21 -8 -38t-23 -29t-34 -20q26 -5 45.5 -19.5t30.5 -35.5t11 -48q0 -40 -20 -67.5t-54 -42t-74 -14.5z" />
    <glyph glyph-name="acute" unicode="&#xb4;" horiz-adv-x="306" 
d="M45 556l110 141h105l-142 -141h-73z" />
    <glyph glyph-name="uni00B5" unicode="&#xb5;" horiz-adv-x="553" 
d="M62 -167v660h98v-288q0 -36 9.5 -65t33 -46t65.5 -17q47 0 72.5 26t35.5 70.5t10 99.5v220h97v-493h-97v71q-23 -39 -61 -59.5t-86 -20.5q-28 0 -48 10.5t-31 30.5v-199h-98z" />
    <glyph glyph-name="paragraph" unicode="&#xb6;" horiz-adv-x="587" 
d="M268 -121v428q-57 0 -108 23t-83 67t-32 105q0 62 32 105.5t83 66.5t108 23h57v-818h-57zM434 -121v818h56v-818h-56z" />
    <glyph glyph-name="periodcentered" unicode="&#xb7;" horiz-adv-x="325" 
d="M102 288v122h108v-122h-108z" />
    <glyph glyph-name="cedilla" unicode="&#xb8;" horiz-adv-x="295" 
d="M141 -258q-30 0 -57 18t-39 46l55 24q5 -13 17.5 -22t26.5 -9q22 0 34.5 13t12.5 33q0 27 -23.5 42.5t-61.5 16.5q-5 1 -17 1h-20l57 95h60l-40 -56q3 -1 12 -2t19 -4q36 -10 54.5 -32.5t18.5 -55.5q0 -31 -14 -55t-38.5 -38.5t-56.5 -14.5z" />
    <glyph glyph-name="uni00B9" unicode="&#xb9;" horiz-adv-x="267" 
d="M138 488v333l16 -26h-117v41h64q39 0 39 35v31h50v-414h-52z" />
    <glyph glyph-name="ordmasculine" unicode="&#xba;" horiz-adv-x="516" 
d="M258 352q-51 0 -89.5 24.5t-61 64.5t-22.5 88q0 49 22.5 88.5t61.5 64t89 24.5t89 -24t61 -64t22 -89t-22 -89t-60.5 -64t-89.5 -24zM258 407q36 0 60 16.5t36 44.5t12 61q0 34 -12 62t-36 44.5t-60 16.5t-60 -16.5t-36 -44.5t-12 -62q0 -33 11.5 -61t36 -44.5
t60.5 -16.5z" />
    <glyph glyph-name="guillemotright" unicode="&#xbb;" horiz-adv-x="464" 
d="M-11 54v105l121 94l-121 93v104l237 -197zM224 54v105l121 94l-121 93v104l237 -197z" />
    <glyph glyph-name="onequarter" unicode="&#xbc;" horiz-adv-x="731" 
d="M127 279v333l20 -34h-127v54h66q20 0 30.5 8t10.5 31v26h67v-418h-67zM115 0l409 697h70l-409 -697h-70zM573 0v100h-190v52l195 266h61v-260h67v-58h-67v-100h-66zM435 138l-7 20h146v191l8 -5z" />
    <glyph glyph-name="onehalf" unicode="&#xbd;" horiz-adv-x="769" 
d="M127 279v333l20 -34h-127v54h66q20 0 30.5 8t10.5 31v26h67v-418h-67zM115 0l409 697h70l-409 -697h-70zM452 0v52q25 19 59 44t67 56t54.5 65.5t21.5 71.5q0 30 -16 49t-48 19q-26 0 -42.5 -12.5t-24 -32.5t-8.5 -44l-65 5q0 38 16.5 72t48 55.5t77.5 21.5
q56 0 92.5 -35.5t36.5 -95.5q0 -40 -17 -77t-47 -69.5t-69 -59.5t-83 -49l18 26h214v-62h-285z" />
    <glyph glyph-name="threequarters" unicode="&#xbe;" horiz-adv-x="811" 
d="M184 274q-69 0 -111.5 37.5t-42.5 98.5l67 3q0 -34 24.5 -55t63.5 -21q41 0 63 18.5t22 50.5q0 37 -29.5 51t-78.5 14v54q23 0 42.5 5t31 18t11.5 35q0 25 -17.5 40.5t-46.5 15.5q-32 0 -49.5 -17.5t-18.5 -45.5l-66 4q0 54 38.5 88t97.5 34q56 0 92.5 -31t36.5 -81
q0 -32 -17.5 -53t-41.5 -31q23 -7 41.5 -20.5t29 -33t10.5 -46.5q0 -59 -42 -95.5t-110 -36.5zM195 0l409 697h70l-409 -697h-70zM653 0v100h-190v52l195 266h61v-260h67v-58h-67v-100h-66zM515 138l-7 20h146v191l8 -5z" />
    <glyph glyph-name="questiondown" unicode="&#xbf;" horiz-adv-x="365" 
d="M281 290v-51q0 -41 -12.5 -68.5t-31.5 -47.5t-41 -35.5t-41.5 -31.5t-31.5 -36t-12 -51q0 -49 33 -74.5t91 -25.5q64 0 98 33t34 93h87q0 -67 -28.5 -113t-77.5 -70.5t-114 -24.5q-58 0 -105.5 19.5t-75.5 60t-28 104.5q0 44 12.5 72.5t32 49t41.5 35.5t41.5 30.5t32 36
t12.5 51.5v44h84zM293 493v-121h-111v121h111z" />
    <glyph glyph-name="Agrave" unicode="&#xc0;" horiz-adv-x="649" 
d="M14 0l271 697h79l270 -697h-111l-198 549l-199 -549h-112zM174 155l31 91h238l34 -91h-303zM288 760l-135 141h104l104 -141h-73z" />
    <glyph glyph-name="Aacute" unicode="&#xc1;" horiz-adv-x="649" 
d="M14 0l271 697h79l270 -697h-111l-198 549l-199 -549h-112zM174 155l31 91h238l34 -91h-303zM288 760l110 141h105l-142 -141h-73z" />
    <glyph glyph-name="Acircumflex" unicode="&#xc2;" horiz-adv-x="649" 
d="M14 0l271 697h79l270 -697h-111l-198 549l-199 -549h-112zM174 155l31 91h238l34 -91h-303zM172 749l153 166l153 -166h-80l-73 82l-72 -82h-81z" />
    <glyph glyph-name="Atilde" unicode="&#xc3;" horiz-adv-x="649" 
d="M14 0l271 697h79l270 -697h-111l-198 549l-199 -549h-112zM174 155l31 91h238l34 -91h-303zM390 743q-24 0 -40.5 7.5t-28 19t-21 23t-19.5 19.5t-24 8q-17 0 -27.5 -18.5t-10.5 -52.5h-58q0 60 27 93t74 33q21 0 36.5 -8t27 -20t21.5 -23.5t20.5 -19.5t23.5 -8
q15 0 26 20t11 55h60q0 -61 -26.5 -94.5t-71.5 -33.5z" />
    <glyph glyph-name="Adieresis" unicode="&#xc4;" horiz-adv-x="649" 
d="M14 0l271 697h79l270 -697h-111l-198 549l-199 -549h-112zM174 155l31 91h238l34 -91h-303zM364 782v119h111v-119h-111zM175 782v119h111v-119h-111z" />
    <glyph glyph-name="Aring" unicode="&#xc5;" horiz-adv-x="649" 
d="M14 0l271 697h79l270 -697h-111l-198 549l-199 -549h-112zM174 155l31 91h238l34 -91h-303zM326 646q-30 0 -54 14.5t-38.5 39t-14.5 52.5q0 29 14.5 53t39 39t53.5 15t53 -14.5t38.5 -38.5t14.5 -54q0 -29 -14.5 -53.5t-38.5 -38.5t-53 -14zM326 699q22 0 37.5 15.5
t15.5 38.5t-15 37.5t-38 14.5q-24 0 -38.5 -15t-14.5 -37q0 -23 15.5 -38.5t37.5 -15.5z" />
    <glyph glyph-name="AE" unicode="&#xc6;" horiz-adv-x="907" 
d="M14 0l271 697h575v-91h-360v-210h314v-92h-314v-213h360v-91h-463v608h-50l-221 -608h-112zM164 155l33 93h225v-93h-258z" />
    <glyph glyph-name="Ccedilla" unicode="&#xc7;" horiz-adv-x="706" 
d="M372 -13q-97 0 -170.5 45t-114.5 127t-41 190t41 189.5t114.5 126.5t170.5 45q107 0 185.5 -53t112.5 -147l-95 -35q-25 65 -77 101.5t-126 36.5q-68 0 -118.5 -32.5t-78 -91t-27.5 -140.5t27.5 -141t78 -91.5t118.5 -32.5q74 0 126 36.5t77 101.5l95 -34
q-34 -93 -112.5 -147t-185.5 -54zM340 -204q-14 0 -31.5 3t-34 10.5t-28.5 17.5l30 39q14 -10 30.5 -15.5t31.5 -5.5q19 0 33 8.5t14 26.5q0 14 -10.5 22.5t-27.5 12.5t-36.5 6t-37.5 2l63 86h55l-43 -52q40 -6 67.5 -24t27.5 -52q0 -40 -30 -62.5t-73 -22.5z" />
    <glyph glyph-name="Egrave" unicode="&#xc8;" horiz-adv-x="583" 
d="M75 0v697h461v-91h-359v-204h329v-91h-329v-220h359v-91h-461zM269 760l-135 141h104l104 -141h-73z" />
    <glyph glyph-name="Eacute" unicode="&#xc9;" horiz-adv-x="583" 
d="M75 0v697h461v-91h-359v-204h329v-91h-329v-220h359v-91h-461zM269 760l110 141h105l-142 -141h-73z" />
    <glyph glyph-name="Ecircumflex" unicode="&#xca;" horiz-adv-x="583" 
d="M75 0v697h461v-91h-359v-204h329v-91h-329v-220h359v-91h-461zM153 749l153 166l153 -166h-80l-73 82l-72 -82h-81z" />
    <glyph glyph-name="Edieresis" unicode="&#xcb;" horiz-adv-x="583" 
d="M75 0v697h461v-91h-359v-204h329v-91h-329v-220h359v-91h-461zM345 782v119h111v-119h-111zM156 782v119h111v-119h-111z" />
    <glyph glyph-name="Igrave" unicode="&#xcc;" horiz-adv-x="252" 
d="M75 0v697h102v-697h-102zM90 760l-135 141h104l104 -141h-73z" />
    <glyph glyph-name="Iacute" unicode="&#xcd;" horiz-adv-x="252" 
d="M75 0v697h102v-697h-102zM90 760l110 141h105l-142 -141h-73z" />
    <glyph glyph-name="Icircumflex" unicode="&#xce;" horiz-adv-x="252" 
d="M75 0v697h102v-697h-102zM-26 749l153 166l153 -166h-79l-74 82l-73 -82h-80z" />
    <glyph glyph-name="Idieresis" unicode="&#xcf;" horiz-adv-x="252" 
d="M75 0v697h102v-697h-102zM166 782v119h111v-119h-111zM-23 782v119h111v-119h-111z" />
    <glyph glyph-name="Eth" unicode="&#xd0;" horiz-adv-x="679" 
d="M75 0v697h196q172 0 266.5 -92.5t94.5 -261.5q0 -166 -93.5 -254.5t-268.5 -88.5h-195zM177 94h84q85 0 145 24t91.5 80t31.5 149q0 92 -31 148.5t-89 82t-139 25.5h-93v-509zM4 317v66h300v-66h-300z" />
    <glyph glyph-name="Ntilde" unicode="&#xd1;" horiz-adv-x="680" 
d="M75 0v697h106l347 -565h-24v565h101v-697h-108l-344 566h24v-566h-102zM402 743q-24 0 -40.5 7.5t-28 19t-21 23t-19.5 19.5t-24 8q-17 0 -27.5 -18.5t-10.5 -52.5h-58q0 60 27 93t74 33q21 0 36.5 -8t27 -20t21.5 -23.5t20.5 -19.5t23.5 -8q15 0 26 20t11 55h60
q0 -61 -26.5 -94.5t-71.5 -33.5z" />
    <glyph glyph-name="Ograve" unicode="&#xd2;" horiz-adv-x="748" 
d="M372 -13q-97 0 -170.5 45t-114.5 126.5t-41 189.5q0 109 41 190.5t114.5 126.5t170.5 45q99 0 173 -45t115 -126.5t41 -190.5q0 -108 -41.5 -189.5t-115.5 -126.5t-172 -45zM372 84q70 0 120 32.5t78 92t28 139.5q0 81 -28 140.5t-78 92t-120 32.5q-68 0 -118.5 -32
t-78 -91.5t-27.5 -141.5q0 -81 27.5 -140.5t78 -91.5t118.5 -32zM336 760l-135 141h104l104 -141h-73z" />
    <glyph glyph-name="Oacute" unicode="&#xd3;" horiz-adv-x="748" 
d="M372 -13q-97 0 -170.5 45t-114.5 126.5t-41 189.5q0 109 41 190.5t114.5 126.5t170.5 45q99 0 173 -45t115 -126.5t41 -190.5q0 -108 -41.5 -189.5t-115.5 -126.5t-172 -45zM372 84q70 0 120 32.5t78 92t28 139.5q0 81 -28 140.5t-78 92t-120 32.5q-68 0 -118.5 -32
t-78 -91.5t-27.5 -141.5q0 -81 27.5 -140.5t78 -91.5t118.5 -32zM336 760l110 141h105l-142 -141h-73z" />
    <glyph glyph-name="Ocircumflex" unicode="&#xd4;" horiz-adv-x="748" 
d="M372 -13q-97 0 -170.5 45t-114.5 126.5t-41 189.5q0 109 41 190.5t114.5 126.5t170.5 45q99 0 173 -45t115 -126.5t41 -190.5q0 -108 -41.5 -189.5t-115.5 -126.5t-172 -45zM372 84q70 0 120 32.5t78 92t28 139.5q0 81 -28 140.5t-78 92t-120 32.5q-68 0 -118.5 -32
t-78 -91.5t-27.5 -141.5q0 -81 27.5 -140.5t78 -91.5t118.5 -32zM220 749l153 166l153 -166h-80l-73 82l-72 -82h-81z" />
    <glyph glyph-name="Otilde" unicode="&#xd5;" horiz-adv-x="748" 
d="M372 -13q-97 0 -170.5 45t-114.5 126.5t-41 189.5q0 109 41 190.5t114.5 126.5t170.5 45q99 0 173 -45t115 -126.5t41 -190.5q0 -108 -41.5 -189.5t-115.5 -126.5t-172 -45zM372 84q70 0 120 32.5t78 92t28 139.5q0 81 -28 140.5t-78 92t-120 32.5q-68 0 -118.5 -32
t-78 -91.5t-27.5 -141.5q0 -81 27.5 -140.5t78 -91.5t118.5 -32zM438 743q-24 0 -40.5 7.5t-28 19t-21 23t-19.5 19.5t-24 8q-17 0 -27.5 -18.5t-10.5 -52.5h-58q0 60 27 93t74 33q21 0 36.5 -8t27 -20t21.5 -23.5t20.5 -19.5t23.5 -8q15 0 26 20t11 55h60
q0 -61 -26.5 -94.5t-71.5 -33.5z" />
    <glyph glyph-name="Odieresis" unicode="&#xd6;" horiz-adv-x="748" 
d="M372 -13q-97 0 -170.5 45t-114.5 126.5t-41 189.5q0 109 41 190.5t114.5 126.5t170.5 45q99 0 173 -45t115 -126.5t41 -190.5q0 -108 -41.5 -189.5t-115.5 -126.5t-172 -45zM372 84q70 0 120 32.5t78 92t28 139.5q0 81 -28 140.5t-78 92t-120 32.5q-68 0 -118.5 -32
t-78 -91.5t-27.5 -141.5q0 -81 27.5 -140.5t78 -91.5t118.5 -32zM412 782v119h111v-119h-111zM223 782v119h111v-119h-111z" />
    <glyph glyph-name="multiply" unicode="&#xd7;" horiz-adv-x="560" 
d="M129 36l-60 60l150 150l-150 151l60 61l149 -151l152 151l60 -61l-150 -151l150 -150l-60 -60l-152 150z" />
    <glyph glyph-name="Oslash" unicode="&#xd8;" horiz-adv-x="748" 
d="M372 -13q-97 0 -170.5 45t-114.5 126.5t-41 189.5q0 109 41 190.5t114.5 126.5t170.5 45q99 0 173 -45t115 -126.5t41 -190.5q0 -108 -41.5 -189.5t-115.5 -126.5t-172 -45zM372 84q70 0 120 32.5t78 92t28 139.5q0 81 -28 140.5t-78 92t-120 32.5q-68 0 -118.5 -32
t-78 -91.5t-27.5 -141.5q0 -81 27.5 -140.5t78 -91.5t118.5 -32zM85 0l508 697h68l-507 -697h-69z" />
    <glyph glyph-name="Ugrave" unicode="&#xd9;" horiz-adv-x="656" 
d="M327 -13q-126 0 -192.5 67t-66.5 198v445h102v-433q0 -60 15 -101t49.5 -62t92.5 -21t93.5 21.5t50.5 62t15 100.5v433h101v-440q0 -133 -66 -201.5t-194 -68.5zM292 760l-135 141h104l104 -141h-73z" />
    <glyph glyph-name="Uacute" unicode="&#xda;" horiz-adv-x="656" 
d="M327 -13q-126 0 -192.5 67t-66.5 198v445h102v-433q0 -60 15 -101t49.5 -62t92.5 -21t93.5 21.5t50.5 62t15 100.5v433h101v-440q0 -133 -66 -201.5t-194 -68.5zM291 760l110 141h105l-142 -141h-73z" />
    <glyph glyph-name="Ucircumflex" unicode="&#xdb;" horiz-adv-x="656" 
d="M327 -13q-126 0 -192.5 67t-66.5 198v445h102v-433q0 -60 15 -101t49.5 -62t92.5 -21t93.5 21.5t50.5 62t15 100.5v433h101v-440q0 -133 -66 -201.5t-194 -68.5zM175 749l153 166l153 -166h-80l-73 82l-72 -82h-81z" />
    <glyph glyph-name="Udieresis" unicode="&#xdc;" horiz-adv-x="656" 
d="M327 -13q-126 0 -192.5 67t-66.5 198v445h102v-433q0 -60 15 -101t49.5 -62t92.5 -21t93.5 21.5t50.5 62t15 100.5v433h101v-440q0 -133 -66 -201.5t-194 -68.5zM368 782v119h111v-119h-111zM179 782v119h111v-119h-111z" />
    <glyph glyph-name="Yacute" unicode="&#xdd;" horiz-adv-x="610" 
d="M255 0v270l-246 427h116l178 -325l182 325h115l-243 -427v-270h-102zM269 760l110 141h105l-142 -141h-73z" />
    <glyph glyph-name="Thorn" unicode="&#xde;" horiz-adv-x="626" 
d="M123 0v697h93v-98h132q101 0 158.5 -51.5t57.5 -144.5q0 -95 -63 -148.5t-175 -53.5h-110v-201h-93zM216 285h110q68 0 106 28.5t38 87.5q0 60 -38 89t-106 29h-110v-234z" />
    <glyph glyph-name="germandbls" unicode="&#xdf;" horiz-adv-x="640" 
d="M419 -9q-50 0 -92 18t-71 48.5t-42 68.5l79 35q9 -23 24.5 -43t40.5 -32.5t60 -12.5q44 0 67 19.5t23 47.5q0 23 -14.5 37.5t-37.5 23t-51 16t-56.5 17t-52 24.5t-38 39.5t-14.5 60.5q0 40 15 64.5t38 39t48.5 24t48.5 17.5t37.5 19.5t14.5 30.5q0 20 -17 33.5t-43 20.5
t-54 7q-49 0 -79.5 -11t-47.5 -29.5t-24.5 -40t-9 -43t-1.5 -37.5v-453h-102v453q0 47 10.5 92t38 81.5t78 57.5t130.5 21q64 0 112.5 -17t76.5 -50.5t28 -81.5q0 -37 -14.5 -61t-37.5 -39t-48.5 -25t-48.5 -19.5t-38 -21.5t-15 -32q0 -18 14.5 -28t38 -17t52 -14
t56.5 -16.5t51 -25.5t37.5 -42t14.5 -66t-15.5 -70t-42 -49t-59.5 -29t-68 -10z" />
    <glyph glyph-name="agrave" unicode="&#xe0;" horiz-adv-x="542" 
d="M390 0l-8 91v219q0 52 -30 80t-87 28q-40 0 -76.5 -16t-69.5 -52l-61 63q44 46 97.5 67.5t116.5 21.5q99 0 153.5 -50.5t54.5 -141.5v-310h-90zM231 -9q-55 0 -97 20t-65 55.5t-23 82.5q0 41 17 70.5t44 45.5q25 16 57.5 22.5t69.5 6.5h157v-74h-143q-20 0 -41.5 -3.5
t-36.5 -14.5q-12 -9 -19 -22.5t-7 -31.5q0 -35 27 -56t72 -21q38 0 69.5 17.5t50.5 48t19 69.5l35 -46q-9 -52 -35 -90.5t-64.5 -58.5t-86.5 -20zM238 556l-135 141h104l104 -141h-73z" />
    <glyph glyph-name="aacute" unicode="&#xe1;" horiz-adv-x="542" 
d="M390 0l-8 91v219q0 52 -30 80t-87 28q-40 0 -76.5 -16t-69.5 -52l-61 63q44 46 97.5 67.5t116.5 21.5q99 0 153.5 -50.5t54.5 -141.5v-310h-90zM231 -9q-55 0 -97 20t-65 55.5t-23 82.5q0 41 17 70.5t44 45.5q25 16 57.5 22.5t69.5 6.5h157v-74h-143q-20 0 -41.5 -3.5
t-36.5 -14.5q-12 -9 -19 -22.5t-7 -31.5q0 -35 27 -56t72 -21q38 0 69.5 17.5t50.5 48t19 69.5l35 -46q-9 -52 -35 -90.5t-64.5 -58.5t-86.5 -20zM237 556l110 141h105l-142 -141h-73z" />
    <glyph glyph-name="acircumflex" unicode="&#xe2;" horiz-adv-x="542" 
d="M390 0l-8 91v219q0 52 -30 80t-87 28q-40 0 -76.5 -16t-69.5 -52l-61 63q44 46 97.5 67.5t116.5 21.5q99 0 153.5 -50.5t54.5 -141.5v-310h-90zM231 -9q-55 0 -97 20t-65 55.5t-23 82.5q0 41 17 70.5t44 45.5q25 16 57.5 22.5t69.5 6.5h157v-74h-143q-20 0 -41.5 -3.5
t-36.5 -14.5q-12 -9 -19 -22.5t-7 -31.5q0 -35 27 -56t72 -21q38 0 69.5 17.5t50.5 48t19 69.5l35 -46q-9 -52 -35 -90.5t-64.5 -58.5t-86.5 -20zM121 545l153 166l153 -166h-79l-74 82l-73 -82h-80z" />
    <glyph glyph-name="atilde" unicode="&#xe3;" horiz-adv-x="542" 
d="M390 0l-8 91v219q0 52 -30 80t-87 28q-40 0 -76.5 -16t-69.5 -52l-61 63q44 46 97.5 67.5t116.5 21.5q99 0 153.5 -50.5t54.5 -141.5v-310h-90zM231 -9q-55 0 -97 20t-65 55.5t-23 82.5q0 41 17 70.5t44 45.5q25 16 57.5 22.5t69.5 6.5h157v-74h-143q-20 0 -41.5 -3.5
t-36.5 -14.5q-12 -9 -19 -22.5t-7 -31.5q0 -35 27 -56t72 -21q38 0 69.5 17.5t50.5 48t19 69.5l35 -46q-9 -52 -35 -90.5t-64.5 -58.5t-86.5 -20zM339 563q-30 0 -48.5 11.5t-31 26.5t-24.5 26.5t-29 11.5t-27.5 -18.5t-10.5 -52.5h-58q0 63 27 98t74 35q26 0 44 -12t31 -27
t25.5 -27t28.5 -12q15 0 26 19.5t11 54.5h60q0 -63 -26.5 -98.5t-71.5 -35.5z" />
    <glyph glyph-name="adieresis" unicode="&#xe4;" horiz-adv-x="542" 
d="M390 0l-8 91v219q0 52 -30 80t-87 28q-40 0 -76.5 -16t-69.5 -52l-61 63q44 46 97.5 67.5t116.5 21.5q99 0 153.5 -50.5t54.5 -141.5v-310h-90zM231 -9q-55 0 -97 20t-65 55.5t-23 82.5q0 41 17 70.5t44 45.5q25 16 57.5 22.5t69.5 6.5h157v-74h-143q-20 0 -41.5 -3.5
t-36.5 -14.5q-12 -9 -19 -22.5t-7 -31.5q0 -35 27 -56t72 -21q38 0 69.5 17.5t50.5 48t19 69.5l35 -46q-9 -52 -35 -90.5t-64.5 -58.5t-86.5 -20zM314 578v119h111v-119h-111zM125 578v119h111v-119h-111z" />
    <glyph glyph-name="aring" unicode="&#xe5;" horiz-adv-x="542" 
d="M390 0l-8 91v219q0 52 -30 80t-87 28q-40 0 -76.5 -16t-69.5 -52l-61 63q44 46 97.5 67.5t116.5 21.5q99 0 153.5 -50.5t54.5 -141.5v-310h-90zM231 -9q-55 0 -97 20t-65 55.5t-23 82.5q0 41 17 70.5t44 45.5q25 16 57.5 22.5t69.5 6.5h157v-74h-143q-20 0 -41.5 -3.5
t-36.5 -14.5q-12 -9 -19 -22.5t-7 -31.5q0 -35 27 -56t72 -21q38 0 69.5 17.5t50.5 48t19 69.5l35 -46q-9 -52 -35 -90.5t-64.5 -58.5t-86.5 -20zM275 533q-30 0 -54 14.5t-38.5 39t-14.5 52.5q0 29 14.5 53t39 39t53.5 15t53 -14.5t38.5 -38.5t14.5 -54q0 -29 -14.5 -53.5
t-38.5 -38.5t-53 -14zM275 586q22 0 37.5 15.5t15.5 38.5t-15 37.5t-38 14.5q-24 0 -38.5 -15t-14.5 -37q0 -23 15.5 -38.5t37.5 -15.5z" />
    <glyph glyph-name="ae" unicode="&#xe6;" horiz-adv-x="864" 
d="M226 -9q-87 0 -133.5 44t-46.5 112q0 43 18 70t46.5 42t59.5 21.5t58 7.5t42 1h114v21q0 51 -30 79t-85 28q-37 0 -72 -15t-65 -53l-72 60q49 51 102 72t117 21t106 -23t60 -67q25 40 64.5 63.5t91.5 23.5q59 0 100.5 -18.5t67 -51t37.5 -74.5t12 -89q0 -12 -0.5 -25.5
t-2.5 -24.5h-341q4 -64 38 -100t95 -36q42 0 75 13t61 42l61 -62q-32 -32 -62 -50t-63.5 -25t-75.5 -7q-68 0 -114.5 31.5t-68.5 86.5h-11q-31 -61 -76.5 -89.5t-106.5 -28.5zM238 75q38 0 69.5 15t51.5 45.5t25 76.5v7h-109q-71 0 -100 -21t-29 -53q0 -31 24 -50.5
t68 -19.5zM473 287h254q1 14 -5.5 36t-21 43.5t-38.5 36.5t-60 15q-43 0 -71 -18.5t-42.5 -48.5t-15.5 -64z" />
    <glyph glyph-name="ccedilla" unicode="&#xe7;" horiz-adv-x="519" 
d="M277 -9q-56 0 -99.5 20.5t-73 56.5t-44.5 82t-15 97q0 50 15 96t44.5 82t73 56.5t99.5 20.5q72 0 125.5 -35t78.5 -106l-86 -33q-13 39 -42 64t-76 25q-46 0 -76 -24.5t-44 -63t-14 -82.5t14 -83t44 -63t76 -24q47 0 76 24.5t42 64.5l86 -33q-25 -72 -78.5 -107
t-125.5 -35zM267 -204q-14 0 -31.5 3t-34 10.5t-28.5 17.5l30 39q14 -10 30.5 -15.5t31.5 -5.5q19 0 33 8.5t14 26.5q0 14 -10.5 22.5t-27.5 12.5t-36.5 6t-37.5 2l63 86h55l-43 -52q40 -6 67.5 -24t27.5 -52q0 -40 -30 -62.5t-73 -22.5z" />
    <glyph glyph-name="egrave" unicode="&#xe8;" horiz-adv-x="540" 
d="M280 -9q-60 0 -104 20t-73 55.5t-43.5 81t-14.5 95.5t14 96.5t42 83t70.5 58t100.5 21.5t100 -19.5t69 -54t40.5 -77.5t13.5 -91q0 -5 -0.5 -18.5t-2.5 -25.5h-349q3 -66 40.5 -101.5t99.5 -35.5q42 0 75 13.5t61 42.5l60 -62q-29 -29 -59.5 -47t-64 -26.5t-75.5 -8.5z
M398 265q2 8 2.5 16t0.5 16q0 23 -8 45t-24 39.5t-39.5 28t-54.5 10.5q-41 0 -70 -18.5t-44.5 -48.5t-18.5 -65h288zM237 556l-135 141h104l104 -141h-73z" />
    <glyph glyph-name="eacute" unicode="&#xe9;" horiz-adv-x="540" 
d="M280 -9q-60 0 -104 20t-73 55.5t-43.5 81t-14.5 95.5t14 96.5t42 83t70.5 58t100.5 21.5t100 -19.5t69 -54t40.5 -77.5t13.5 -91q0 -5 -0.5 -18.5t-2.5 -25.5h-349q3 -66 40.5 -101.5t99.5 -35.5q42 0 75 13.5t61 42.5l60 -62q-29 -29 -59.5 -47t-64 -26.5t-75.5 -8.5z
M398 265q2 8 2.5 16t0.5 16q0 23 -8 45t-24 39.5t-39.5 28t-54.5 10.5q-41 0 -70 -18.5t-44.5 -48.5t-18.5 -65h288zM236 556l110 141h105l-142 -141h-73z" />
    <glyph glyph-name="ecircumflex" unicode="&#xea;" horiz-adv-x="540" 
d="M280 -9q-60 0 -104 20t-73 55.5t-43.5 81t-14.5 95.5t14 96.5t42 83t70.5 58t100.5 21.5t100 -19.5t69 -54t40.5 -77.5t13.5 -91q0 -5 -0.5 -18.5t-2.5 -25.5h-349q3 -66 40.5 -101.5t99.5 -35.5q42 0 75 13.5t61 42.5l60 -62q-29 -29 -59.5 -47t-64 -26.5t-75.5 -8.5z
M398 265q2 8 2.5 16t0.5 16q0 23 -8 45t-24 39.5t-39.5 28t-54.5 10.5q-41 0 -70 -18.5t-44.5 -48.5t-18.5 -65h288zM120 545l153 166l153 -166h-79l-74 82l-73 -82h-80z" />
    <glyph glyph-name="edieresis" unicode="&#xeb;" horiz-adv-x="540" 
d="M280 -9q-60 0 -104 20t-73 55.5t-43.5 81t-14.5 95.5t14 96.5t42 83t70.5 58t100.5 21.5t100 -19.5t69 -54t40.5 -77.5t13.5 -91q0 -5 -0.5 -18.5t-2.5 -25.5h-349q3 -66 40.5 -101.5t99.5 -35.5q42 0 75 13.5t61 42.5l60 -62q-29 -29 -59.5 -47t-64 -26.5t-75.5 -8.5z
M398 265q2 8 2.5 16t0.5 16q0 23 -8 45t-24 39.5t-39.5 28t-54.5 10.5q-41 0 -70 -18.5t-44.5 -48.5t-18.5 -65h288zM313 578v119h111v-119h-111zM124 578v119h111v-119h-111z" />
    <glyph glyph-name="igrave" unicode="&#xec;" horiz-adv-x="232" 
d="M67 0v493h98v-493h-98zM79 556l-135 141h104l104 -141h-73z" />
    <glyph glyph-name="iacute" unicode="&#xed;" horiz-adv-x="232" 
d="M67 0v493h98v-493h-98zM79 556l110 141h105l-142 -141h-73z" />
    <glyph glyph-name="icircumflex" unicode="&#xee;" horiz-adv-x="232" 
d="M67 0v493h98v-493h-98zM-37 545l153 166l153 -166h-79l-74 82l-73 -82h-80z" />
    <glyph glyph-name="idieresis" unicode="&#xef;" horiz-adv-x="232" 
d="M67 0v493h98v-493h-98zM155 578v119h111v-119h-111zM-34 578v119h111v-119h-111z" />
    <glyph glyph-name="eth" unicode="&#xf0;" horiz-adv-x="613" 
d="M283 -9q-70 0 -120.5 29t-77.5 80t-27 116q0 62 21.5 113.5t59 88.5t86 57.5t104.5 20.5q30 0 56 -9.5t46.5 -26t34.5 -38.5t22 -47q5 89 -21 152t-87.5 97t-163.5 36l7 67q101 -6 168.5 -32.5t107 -72t56.5 -109t17 -144.5q0 -83 -19 -152t-55.5 -120t-90.5 -78.5
t-124 -27.5zM288 76q54 0 94 25.5t64 68.5t27 94q1 24 -5.5 50.5t-22.5 49.5t-42.5 37t-63.5 14q-63 0 -105 -28.5t-63 -74t-21 -95.5q0 -45 18.5 -76.5t49.5 -48t70 -16.5zM255 537l-10 41l340 95l10 -41z" />
    <glyph glyph-name="ntilde" unicode="&#xf1;" horiz-adv-x="553" 
d="M68 0v493h99v-107l-20 -6q13 41 37.5 67.5t58 40.5t72.5 14q82 0 128.5 -47.5t46.5 -138.5v-316h-98v280q0 71 -25.5 104t-78.5 33q-40 0 -66.5 -18t-40.5 -57t-14 -99v-243h-99zM335 563q-30 0 -48.5 11.5t-31 26.5t-24.5 26.5t-29 11.5t-27.5 -18.5t-10.5 -52.5h-58
q0 63 27 98t74 35q26 0 44 -12t31 -27t25.5 -27t28.5 -12q15 0 26 19.5t11 54.5h60q0 -63 -26.5 -98.5t-71.5 -35.5z" />
    <glyph glyph-name="ograve" unicode="&#xf2;" horiz-adv-x="575" 
d="M288 -9q-70 0 -125 33t-86.5 91t-31.5 132t31 131.5t86.5 90.5t125.5 33q71 0 125 -33t85.5 -90.5t31.5 -131.5t-31.5 -131.5t-86 -91t-124.5 -33.5zM288 78q44 0 76.5 21t50 59t17.5 89q0 52 -17.5 90t-50 58.5t-76.5 20.5q-45 0 -77.5 -21t-50 -58.5t-17.5 -89.5
q0 -51 17.5 -89t50 -59t77.5 -21zM251 556l-135 141h104l104 -141h-73z" />
    <glyph glyph-name="oacute" unicode="&#xf3;" horiz-adv-x="575" 
d="M288 -9q-70 0 -125 33t-86.5 91t-31.5 132t31 131.5t86.5 90.5t125.5 33q71 0 125 -33t85.5 -90.5t31.5 -131.5t-31.5 -131.5t-86 -91t-124.5 -33.5zM288 78q44 0 76.5 21t50 59t17.5 89q0 52 -17.5 90t-50 58.5t-76.5 20.5q-45 0 -77.5 -21t-50 -58.5t-17.5 -89.5
q0 -51 17.5 -89t50 -59t77.5 -21zM251 556l110 141h105l-142 -141h-73z" />
    <glyph glyph-name="ocircumflex" unicode="&#xf4;" horiz-adv-x="575" 
d="M288 -9q-70 0 -125 33t-86.5 91t-31.5 132t31 131.5t86.5 90.5t125.5 33q71 0 125 -33t85.5 -90.5t31.5 -131.5t-31.5 -131.5t-86 -91t-124.5 -33.5zM288 78q44 0 76.5 21t50 59t17.5 89q0 52 -17.5 90t-50 58.5t-76.5 20.5q-45 0 -77.5 -21t-50 -58.5t-17.5 -89.5
q0 -51 17.5 -89t50 -59t77.5 -21zM135 545l153 166l153 -166h-79l-74 82l-73 -82h-80z" />
    <glyph glyph-name="otilde" unicode="&#xf5;" horiz-adv-x="575" 
d="M288 -9q-70 0 -125 33t-86.5 91t-31.5 132t31 131.5t86.5 90.5t125.5 33q71 0 125 -33t85.5 -90.5t31.5 -131.5t-31.5 -131.5t-86 -91t-124.5 -33.5zM288 78q44 0 76.5 21t50 59t17.5 89q0 52 -17.5 90t-50 58.5t-76.5 20.5q-45 0 -77.5 -21t-50 -58.5t-17.5 -89.5
q0 -51 17.5 -89t50 -59t77.5 -21zM353 563q-30 0 -48.5 11.5t-31 26.5t-24.5 26.5t-29 11.5t-27.5 -18.5t-10.5 -52.5h-58q0 63 27 98t74 35q26 0 44 -12t31 -27t25.5 -27t28.5 -12q15 0 26 19.5t11 54.5h60q0 -63 -26.5 -98.5t-71.5 -35.5z" />
    <glyph glyph-name="odieresis" unicode="&#xf6;" horiz-adv-x="575" 
d="M288 -9q-70 0 -125 33t-86.5 91t-31.5 132t31 131.5t86.5 90.5t125.5 33q71 0 125 -33t85.5 -90.5t31.5 -131.5t-31.5 -131.5t-86 -91t-124.5 -33.5zM288 78q44 0 76.5 21t50 59t17.5 89q0 52 -17.5 90t-50 58.5t-76.5 20.5q-45 0 -77.5 -21t-50 -58.5t-17.5 -89.5
q0 -51 17.5 -89t50 -59t77.5 -21zM327 578v119h111v-119h-111zM138 578v119h111v-119h-111z" />
    <glyph glyph-name="divide" unicode="&#xf7;" horiz-adv-x="560" 
d="M62 209v77h436v-77h-436zM223 25v123h114v-123h-114zM223 347v122h114v-122h-114z" />
    <glyph glyph-name="oslash" unicode="&#xf8;" horiz-adv-x="575" 
d="M288 -9q-70 0 -125 33t-86.5 91t-31.5 132t31 131.5t86.5 90.5t125.5 33q71 0 125 -33t85.5 -90.5t31.5 -131.5t-31.5 -131.5t-86 -91t-124.5 -33.5zM288 78q44 0 76.5 21t50 59t17.5 89q0 52 -17.5 90t-50 58.5t-76.5 20.5q-45 0 -77.5 -21t-50 -58.5t-17.5 -89.5
q0 -51 17.5 -89t50 -59t77.5 -21zM84 -46l358 585h49l-358 -585h-49z" />
    <glyph glyph-name="ugrave" unicode="&#xf9;" horiz-adv-x="553" 
d="M237 -9q-55 0 -94.5 22.5t-60 65t-20.5 103.5v311h98v-280q0 -44 11 -74.5t34.5 -46t59.5 -15.5q42 0 68.5 21t39.5 62.5t13 103.5v229h97v-493h-97v106l20 -4q-22 -55 -67 -83t-102 -28zM235 556l-135 141h104l104 -141h-73z" />
    <glyph glyph-name="uacute" unicode="&#xfa;" horiz-adv-x="553" 
d="M237 -9q-55 0 -94.5 22.5t-60 65t-20.5 103.5v311h98v-280q0 -44 11 -74.5t34.5 -46t59.5 -15.5q42 0 68.5 21t39.5 62.5t13 103.5v229h97v-493h-97v106l20 -4q-22 -55 -67 -83t-102 -28zM235 556l110 141h105l-142 -141h-73z" />
    <glyph glyph-name="ucircumflex" unicode="&#xfb;" horiz-adv-x="553" 
d="M237 -9q-55 0 -94.5 22.5t-60 65t-20.5 103.5v311h98v-280q0 -44 11 -74.5t34.5 -46t59.5 -15.5q42 0 68.5 21t39.5 62.5t13 103.5v229h97v-493h-97v106l20 -4q-22 -55 -67 -83t-102 -28zM119 545l153 166l153 -166h-79l-74 82l-73 -82h-80z" />
    <glyph glyph-name="udieresis" unicode="&#xfc;" horiz-adv-x="553" 
d="M237 -9q-55 0 -94.5 22.5t-60 65t-20.5 103.5v311h98v-280q0 -44 11 -74.5t34.5 -46t59.5 -15.5q42 0 68.5 21t39.5 62.5t13 103.5v229h97v-493h-97v106l20 -4q-22 -55 -67 -83t-102 -28zM311 578v119h111v-119h-111zM122 578v119h111v-119h-111z" />
    <glyph glyph-name="yacute" unicode="&#xfd;" horiz-adv-x="526" 
d="M114 -203l96 232l-190 464h108l134 -366l136 366h106l-283 -696h-107zM226 556l110 141h105l-142 -141h-73z" />
    <glyph glyph-name="thorn" unicode="&#xfe;" horiz-adv-x="622" 
d="M99 -204v901h98v-345l-20 22q13 42 41 70.5t64.5 43t75.5 14.5q65 0 110.5 -34.5t69 -92t23.5 -130.5q0 -79 -27 -136t-72.5 -87.5t-103.5 -30.5q-40 0 -77 16t-64 44t-36 65l16 26v-346h-98zM331 77q45 0 74 20.5t44 58.5t15 90q0 53 -14.5 91t-43.5 58.5t-73 20.5
q-48 0 -80.5 -22.5t-48.5 -61t-16 -86.5q0 -47 16.5 -85.5t49 -61t77.5 -22.5z" />
    <glyph glyph-name="ydieresis" unicode="&#xff;" horiz-adv-x="526" 
d="M114 -203l96 232l-190 464h108l134 -366l136 366h106l-283 -696h-107zM303 578v119h111v-119h-111zM114 578v119h111v-119h-111z" />
    <glyph glyph-name="Amacron" unicode="&#x100;" horiz-adv-x="649" 
d="M14 0l271 697h79l270 -697h-111l-198 549l-199 -549h-112zM174 155l31 91h238l34 -91h-303zM188 784v59h273v-59h-273z" />
    <glyph glyph-name="amacron" unicode="&#x101;" horiz-adv-x="542" 
d="M390 0l-8 91v219q0 52 -30 80t-87 28q-40 0 -76.5 -16t-69.5 -52l-61 63q44 46 97.5 67.5t116.5 21.5q99 0 153.5 -50.5t54.5 -141.5v-310h-90zM231 -9q-55 0 -97 20t-65 55.5t-23 82.5q0 41 17 70.5t44 45.5q25 16 57.5 22.5t69.5 6.5h157v-74h-143q-20 0 -41.5 -3.5
t-36.5 -14.5q-12 -9 -19 -22.5t-7 -31.5q0 -35 27 -56t72 -21q38 0 69.5 17.5t50.5 48t19 69.5l35 -46q-9 -52 -35 -90.5t-64.5 -58.5t-86.5 -20zM137 580v59h273v-59h-273z" />
    <glyph glyph-name="Abreve" unicode="&#x102;" horiz-adv-x="649" 
d="M14 0l271 697h79l270 -697h-111l-198 549l-199 -549h-112zM174 155l31 91h238l34 -91h-303zM325 739q-79 0 -116.5 34.5t-37.5 97.5h70q0 -37 23.5 -55t60.5 -18q38 0 61 18.5t23 54.5h69q0 -66 -38.5 -99t-114.5 -33z" />
    <glyph glyph-name="abreve" unicode="&#x103;" horiz-adv-x="542" 
d="M390 0l-8 91v219q0 52 -30 80t-87 28q-40 0 -76.5 -16t-69.5 -52l-61 63q44 46 97.5 67.5t116.5 21.5q99 0 153.5 -50.5t54.5 -141.5v-310h-90zM231 -9q-55 0 -97 20t-65 55.5t-23 82.5q0 41 17 70.5t44 45.5q25 16 57.5 22.5t69.5 6.5h157v-74h-143q-20 0 -41.5 -3.5
t-36.5 -14.5q-12 -9 -19 -22.5t-7 -31.5q0 -35 27 -56t72 -21q38 0 69.5 17.5t50.5 48t19 69.5l35 -46q-9 -52 -35 -90.5t-64.5 -58.5t-86.5 -20zM275 553q-79 0 -116.5 35.5t-37.5 108.5h64q0 -46 24 -66t66 -20q43 0 66.5 20.5t23.5 65.5h63q0 -75 -38.5 -109.5
t-114.5 -34.5z" />
    <glyph glyph-name="Aogonek" unicode="&#x104;" horiz-adv-x="649" 
d="M14 0l271 697h79l270 -697h-111l-198 549l-199 -549h-112zM174 155l31 91h238l34 -91h-303zM557 -204q-40 0 -69 22.5t-29 63.5q0 30 13.5 53t33.5 40t38 27l77 -2q-13 -7 -30.5 -17.5t-34.5 -24.5t-27.5 -31t-10.5 -36t11.5 -29.5t28.5 -10.5q16 0 34 8.5t35 24.5
l32 -41q-21 -23 -47 -35t-55 -12z" />
    <glyph glyph-name="aogonek" unicode="&#x105;" horiz-adv-x="542" 
d="M390 0l-8 91v219q0 52 -30 80t-87 28q-40 0 -76.5 -16t-69.5 -52l-61 63q44 46 97.5 67.5t116.5 21.5q99 0 153.5 -50.5t54.5 -141.5v-310h-90zM231 -9q-55 0 -97 20t-65 55.5t-23 82.5q0 41 17 70.5t44 45.5q25 16 57.5 22.5t69.5 6.5h157v-74h-143q-20 0 -41.5 -3.5
t-36.5 -14.5q-12 -9 -19 -22.5t-7 -31.5q0 -35 27 -56t72 -21q38 0 69.5 17.5t50.5 48t19 69.5l35 -46q-9 -52 -35 -90.5t-64.5 -58.5t-86.5 -20zM415 -204q-40 0 -69 22.5t-29 63.5q0 30 13.5 53t33.5 40t38 27l77 -2q-13 -7 -30.5 -17.5t-34.5 -24.5t-27.5 -31t-10.5 -36
t11.5 -29.5t28.5 -10.5q16 0 34 8.5t35 24.5l32 -41q-21 -23 -47 -35t-55 -12z" />
    <glyph glyph-name="Cacute" unicode="&#x106;" horiz-adv-x="706" 
d="M372 -13q-97 0 -170.5 45t-114.5 127t-41 190t41 189.5t114.5 126.5t170.5 45q107 0 185.5 -53t112.5 -147l-95 -35q-25 65 -77 101.5t-126 36.5q-68 0 -118.5 -32.5t-78 -91t-27.5 -140.5t27.5 -141t78 -91.5t118.5 -32.5q74 0 126 36.5t77 101.5l95 -34
q-34 -93 -112.5 -147t-185.5 -54zM323 760l110 141h105l-142 -141h-73z" />
    <glyph glyph-name="cacute" unicode="&#x107;" horiz-adv-x="519" 
d="M277 -9q-56 0 -99.5 20.5t-73 56.5t-44.5 82t-15 97q0 50 15 96t44.5 82t73 56.5t99.5 20.5q72 0 125.5 -35t78.5 -106l-86 -33q-13 39 -42 64t-76 25q-46 0 -76 -24.5t-44 -63t-14 -82.5t14 -83t44 -63t76 -24q47 0 76 24.5t42 64.5l86 -33q-25 -72 -78.5 -107
t-125.5 -35zM230 556l110 141h105l-142 -141h-73z" />
    <glyph glyph-name="Ccircumflex" unicode="&#x108;" horiz-adv-x="706" 
d="M372 -13q-97 0 -170.5 45t-114.5 127t-41 190t41 189.5t114.5 126.5t170.5 45q107 0 185.5 -53t112.5 -147l-95 -35q-25 65 -77 101.5t-126 36.5q-68 0 -118.5 -32.5t-78 -91t-27.5 -140.5t27.5 -141t78 -91.5t118.5 -32.5q74 0 126 36.5t77 101.5l95 -34
q-34 -93 -112.5 -147t-185.5 -54zM207 749l153 166l153 -166h-80l-73 82l-72 -82h-81z" />
    <glyph glyph-name="ccircumflex" unicode="&#x109;" horiz-adv-x="519" 
d="M277 -9q-56 0 -99.5 20.5t-73 56.5t-44.5 82t-15 97q0 50 15 96t44.5 82t73 56.5t99.5 20.5q72 0 125.5 -35t78.5 -106l-86 -33q-13 39 -42 64t-76 25q-46 0 -76 -24.5t-44 -63t-14 -82.5t14 -83t44 -63t76 -24q47 0 76 24.5t42 64.5l86 -33q-25 -72 -78.5 -107
t-125.5 -35zM113 545l153 166l153 -166h-79l-74 82l-73 -82h-80z" />
    <glyph glyph-name="Cdotaccent" unicode="&#x10a;" horiz-adv-x="706" 
d="M372 -13q-97 0 -170.5 45t-114.5 127t-41 190t41 189.5t114.5 126.5t170.5 45q107 0 185.5 -53t112.5 -147l-95 -35q-25 65 -77 101.5t-126 36.5q-68 0 -118.5 -32.5t-78 -91t-27.5 -140.5t27.5 -141t78 -91.5t118.5 -32.5q74 0 126 36.5t77 101.5l95 -34
q-34 -93 -112.5 -147t-185.5 -54zM304 782v119h111v-119h-111z" />
    <glyph glyph-name="cdotaccent" unicode="&#x10b;" horiz-adv-x="519" 
d="M277 -9q-56 0 -99.5 20.5t-73 56.5t-44.5 82t-15 97q0 50 15 96t44.5 82t73 56.5t99.5 20.5q72 0 125.5 -35t78.5 -106l-86 -33q-13 39 -42 64t-76 25q-46 0 -76 -24.5t-44 -63t-14 -82.5t14 -83t44 -63t76 -24q47 0 76 24.5t42 64.5l86 -33q-25 -72 -78.5 -107
t-125.5 -35zM211 578v119h111v-119h-111z" />
    <glyph glyph-name="Ccaron" unicode="&#x10c;" horiz-adv-x="706" 
d="M372 -13q-97 0 -170.5 45t-114.5 127t-41 190t41 189.5t114.5 126.5t170.5 45q107 0 185.5 -53t112.5 -147l-95 -35q-25 65 -77 101.5t-126 36.5q-68 0 -118.5 -32.5t-78 -91t-27.5 -140.5t27.5 -141t78 -91.5t118.5 -32.5q74 0 126 36.5t77 101.5l95 -34
q-34 -93 -112.5 -147t-185.5 -54zM360 742l-153 159h77l76 -81l77 81h76z" />
    <glyph glyph-name="ccaron" unicode="&#x10d;" horiz-adv-x="519" 
d="M277 -9q-56 0 -99.5 20.5t-73 56.5t-44.5 82t-15 97q0 50 15 96t44.5 82t73 56.5t99.5 20.5q72 0 125.5 -35t78.5 -106l-86 -33q-13 39 -42 64t-76 25q-46 0 -76 -24.5t-44 -63t-14 -82.5t14 -83t44 -63t76 -24q47 0 76 24.5t42 64.5l86 -33q-25 -72 -78.5 -107
t-125.5 -35zM266 538l-153 159h77l76 -81l77 81h76z" />
    <glyph glyph-name="Dcaron" unicode="&#x10e;" horiz-adv-x="679" 
d="M75 0v697h196q172 0 266.5 -92.5t94.5 -261.5q0 -166 -93.5 -254.5t-268.5 -88.5h-195zM177 94h84q85 0 145 24t91.5 80t31.5 149q0 92 -31 148.5t-89 82t-139 25.5h-93v-509zM329 742l-153 159h77l76 -81l77 81h76z" />
    <glyph glyph-name="dcaron" unicode="&#x10f;" horiz-adv-x="756" 
d="M265 -9q-67 0 -116 33.5t-76.5 92t-27.5 130.5q0 79 29.5 136t79.5 88t111 31q44 0 80.5 -18t61.5 -50t35 -75l-25 -8v346h97v-697h-97v142l29 -1q-13 -48 -39 -81.5t-62.5 -51t-79.5 -17.5zM285 81q43 0 74.5 21t49 58.5t17.5 86.5t-17.5 86.5t-49 58t-74.5 20.5
q-42 0 -74 -20.5t-49.5 -58t-17.5 -86.5t17.5 -86.5t49.5 -58.5t74 -21zM562 480l57 217h103l-101 -217h-59z" />
    <glyph glyph-name="Dcroat" unicode="&#x110;" horiz-adv-x="679" 
d="M75 0v697h196q172 0 266.5 -92.5t94.5 -261.5q0 -166 -93.5 -254.5t-268.5 -88.5h-195zM177 94h84q85 0 145 24t91.5 80t31.5 149q0 92 -31 148.5t-89 82t-139 25.5h-93v-509zM4 317v66h300v-66h-300z" />
    <glyph glyph-name="dcroat" unicode="&#x111;" horiz-adv-x="583" 
d="M265 -9q-67 0 -116 33.5t-76.5 92t-27.5 130.5q0 79 29.5 136t79.5 88t111 31q44 0 80.5 -18t61.5 -50t35 -75l-25 -8v346h97v-697h-97v142l29 -1q-13 -48 -39 -81.5t-62.5 -51t-79.5 -17.5zM285 81q43 0 74.5 21t49 58.5t17.5 86.5t-17.5 86.5t-49 58t-74.5 20.5
q-42 0 -74 -20.5t-49.5 -58t-17.5 -86.5t17.5 -86.5t49.5 -58.5t74 -21zM282 572v66h300v-66h-300z" />
    <glyph glyph-name="Emacron" unicode="&#x112;" horiz-adv-x="583" 
d="M75 0v697h461v-91h-359v-204h329v-91h-329v-220h359v-91h-461zM169 784v59h273v-59h-273z" />
    <glyph glyph-name="emacron" unicode="&#x113;" horiz-adv-x="540" 
d="M280 -9q-60 0 -104 20t-73 55.5t-43.5 81t-14.5 95.5t14 96.5t42 83t70.5 58t100.5 21.5t100 -19.5t69 -54t40.5 -77.5t13.5 -91q0 -5 -0.5 -18.5t-2.5 -25.5h-349q3 -66 40.5 -101.5t99.5 -35.5q42 0 75 13.5t61 42.5l60 -62q-29 -29 -59.5 -47t-64 -26.5t-75.5 -8.5z
M398 265q2 8 2.5 16t0.5 16q0 23 -8 45t-24 39.5t-39.5 28t-54.5 10.5q-41 0 -70 -18.5t-44.5 -48.5t-18.5 -65h288zM136 580v59h273v-59h-273z" />
    <glyph glyph-name="Ebreve" unicode="&#x114;" horiz-adv-x="583" 
d="M75 0v697h461v-91h-359v-204h329v-91h-329v-220h359v-91h-461zM306 739q-79 0 -116.5 34.5t-37.5 97.5h70q0 -37 23.5 -55t60.5 -18q38 0 61 18.5t23 54.5h69q0 -66 -38.5 -99t-114.5 -33z" />
    <glyph glyph-name="ebreve" unicode="&#x115;" horiz-adv-x="540" 
d="M280 -9q-60 0 -104 20t-73 55.5t-43.5 81t-14.5 95.5t14 96.5t42 83t70.5 58t100.5 21.5t100 -19.5t69 -54t40.5 -77.5t13.5 -91q0 -5 -0.5 -18.5t-2.5 -25.5h-349q3 -66 40.5 -101.5t99.5 -35.5q42 0 75 13.5t61 42.5l60 -62q-29 -29 -59.5 -47t-64 -26.5t-75.5 -8.5z
M398 265q2 8 2.5 16t0.5 16q0 23 -8 45t-24 39.5t-39.5 28t-54.5 10.5q-41 0 -70 -18.5t-44.5 -48.5t-18.5 -65h288zM274 553q-79 0 -116.5 35.5t-37.5 108.5h64q0 -46 24 -66t66 -20q43 0 66.5 20.5t23.5 65.5h63q0 -75 -38.5 -109.5t-114.5 -34.5z" />
    <glyph glyph-name="Edotaccent" unicode="&#x116;" horiz-adv-x="583" 
d="M75 0v697h461v-91h-359v-204h329v-91h-329v-220h359v-91h-461zM250 782v119h111v-119h-111z" />
    <glyph glyph-name="edotaccent" unicode="&#x117;" horiz-adv-x="540" 
d="M280 -9q-60 0 -104 20t-73 55.5t-43.5 81t-14.5 95.5t14 96.5t42 83t70.5 58t100.5 21.5t100 -19.5t69 -54t40.5 -77.5t13.5 -91q0 -5 -0.5 -18.5t-2.5 -25.5h-349q3 -66 40.5 -101.5t99.5 -35.5q42 0 75 13.5t61 42.5l60 -62q-29 -29 -59.5 -47t-64 -26.5t-75.5 -8.5z
M398 265q2 8 2.5 16t0.5 16q0 23 -8 45t-24 39.5t-39.5 28t-54.5 10.5q-41 0 -70 -18.5t-44.5 -48.5t-18.5 -65h288zM218 578v119h111v-119h-111z" />
    <glyph glyph-name="Eogonek" unicode="&#x118;" horiz-adv-x="583" 
d="M75 0v697h461v-91h-359v-204h329v-91h-329v-220h359v-91h-461zM471 -204q-40 0 -69 22.5t-29 63.5q0 30 13.5 53t33.5 40t38 27l77 -2q-13 -7 -30.5 -17.5t-34.5 -24.5t-27.5 -31t-10.5 -36t11.5 -29.5t28.5 -10.5q16 0 34 8.5t35 24.5l32 -41q-21 -23 -47 -35t-55 -12z
" />
    <glyph glyph-name="eogonek" unicode="&#x119;" horiz-adv-x="540" 
d="M280 -9q-60 0 -104 20t-73 55.5t-43.5 81t-14.5 95.5t14 96.5t42 83t70.5 58t100.5 21.5t100 -19.5t69 -54t40.5 -77.5t13.5 -91q0 -5 -0.5 -18.5t-2.5 -25.5h-349q3 -66 40.5 -101.5t99.5 -35.5q42 0 75 13.5t61 42.5l60 -62q-29 -29 -59.5 -47t-64 -26.5t-75.5 -8.5z
M398 265q2 8 2.5 16t0.5 16q0 23 -8 45t-24 39.5t-39.5 28t-54.5 10.5q-41 0 -70 -18.5t-44.5 -48.5t-18.5 -65h288zM286 -204q-40 0 -69 22.5t-29 63.5q0 30 13.5 53t33.5 40t38 27l77 -2q-13 -7 -30.5 -17.5t-34.5 -24.5t-27.5 -31t-10.5 -36t11.5 -29.5t28.5 -10.5
q16 0 34 8.5t35 24.5l32 -41q-21 -23 -47 -35t-55 -12z" />
    <glyph glyph-name="Ecaron" unicode="&#x11a;" horiz-adv-x="583" 
d="M75 0v697h461v-91h-359v-204h329v-91h-329v-220h359v-91h-461zM306 742l-153 159h77l76 -81l77 81h76z" />
    <glyph glyph-name="ecaron" unicode="&#x11b;" horiz-adv-x="540" 
d="M280 -9q-60 0 -104 20t-73 55.5t-43.5 81t-14.5 95.5t14 96.5t42 83t70.5 58t100.5 21.5t100 -19.5t69 -54t40.5 -77.5t13.5 -91q0 -5 -0.5 -18.5t-2.5 -25.5h-349q3 -66 40.5 -101.5t99.5 -35.5q42 0 75 13.5t61 42.5l60 -62q-29 -29 -59.5 -47t-64 -26.5t-75.5 -8.5z
M398 265q2 8 2.5 16t0.5 16q0 23 -8 45t-24 39.5t-39.5 28t-54.5 10.5q-41 0 -70 -18.5t-44.5 -48.5t-18.5 -65h288zM273 538l-153 159h77l76 -81l77 81h76z" />
    <glyph glyph-name="Gcircumflex" unicode="&#x11c;" horiz-adv-x="732" 
d="M366 -13q-94 0 -166 45t-113 127t-41 190t41 189.5t114.5 126.5t170.5 45q107 0 185.5 -53t112.5 -147l-95 -35q-25 65 -77 101.5t-126 36.5q-68 0 -118.5 -32.5t-78 -91t-27.5 -140.5t27.5 -141t78 -91.5t118.5 -32.5q35 0 71.5 9.5t67.5 34t50 66.5t19 108v47l23 -70
h-198v91h265v-370h-90l-14 128l17 -13q-18 -44 -51 -72.5t-75.5 -42t-90.5 -13.5zM219 749l153 166l153 -166h-79l-74 82l-73 -82h-80z" />
    <glyph glyph-name="gcircumflex" unicode="&#x11d;" horiz-adv-x="517" 
d="M270 -213q-107 0 -169.5 39t-62.5 108q0 5 0.5 13t2.5 16l128 88l30 -25l-68 -84q-1 -4 -1 -6.5v-5.5q0 -36 40 -54t100 -18q53 0 86 14.5t33 46.5q0 17 -10 28t-30 17.5t-47.5 11t-63.5 9.5q-46 7 -89 20t-71 38.5t-28 67.5q0 36 25.5 66.5t66.5 49.5l56 -39
q-31 -7 -45 -22.5t-14 -37.5q0 -18 13.5 -29t38.5 -17t60 -11q49 -7 91.5 -15t75 -22.5t50 -39t17.5 -63.5q0 -70 -56.5 -107t-158.5 -37zM259 149q-59 0 -103.5 22.5t-69.5 62t-25 90.5q0 53 26 93t70.5 62.5t98.5 22.5q52 0 96.5 -22.5t71 -63.5t26.5 -96
q0 -52 -24.5 -90.5t-67.5 -59.5t-99 -21zM257 227q46 0 71 28.5t25 69.5q0 44 -26.5 70.5t-69.5 26.5q-45 0 -72 -27t-27 -69t26 -70.5t73 -28.5zM418 397l-71 47l108 87l49 -61zM107 545l153 166l153 -166h-79l-74 82l-73 -82h-80z" />
    <glyph glyph-name="Gbreve" unicode="&#x11e;" horiz-adv-x="732" 
d="M366 -13q-94 0 -166 45t-113 127t-41 190t41 189.5t114.5 126.5t170.5 45q107 0 185.5 -53t112.5 -147l-95 -35q-25 65 -77 101.5t-126 36.5q-68 0 -118.5 -32.5t-78 -91t-27.5 -140.5t27.5 -141t78 -91.5t118.5 -32.5q35 0 71.5 9.5t67.5 34t50 66.5t19 108v47l23 -70
h-198v91h265v-370h-90l-14 128l17 -13q-18 -44 -51 -72.5t-75.5 -42t-90.5 -13.5zM372 739q-79 0 -116.5 34.5t-37.5 97.5h70q0 -37 23.5 -55t60.5 -18q38 0 61 18.5t23 54.5h69q0 -66 -38.5 -99t-114.5 -33z" />
    <glyph glyph-name="gbreve" unicode="&#x11f;" horiz-adv-x="517" 
d="M270 -213q-107 0 -169.5 39t-62.5 108q0 5 0.5 13t2.5 16l128 88l30 -25l-68 -84q-1 -4 -1 -6.5v-5.5q0 -36 40 -54t100 -18q53 0 86 14.5t33 46.5q0 17 -10 28t-30 17.5t-47.5 11t-63.5 9.5q-46 7 -89 20t-71 38.5t-28 67.5q0 36 25.5 66.5t66.5 49.5l56 -39
q-31 -7 -45 -22.5t-14 -37.5q0 -18 13.5 -29t38.5 -17t60 -11q49 -7 91.5 -15t75 -22.5t50 -39t17.5 -63.5q0 -70 -56.5 -107t-158.5 -37zM259 149q-59 0 -103.5 22.5t-69.5 62t-25 90.5q0 53 26 93t70.5 62.5t98.5 22.5q52 0 96.5 -22.5t71 -63.5t26.5 -96
q0 -52 -24.5 -90.5t-67.5 -59.5t-99 -21zM257 227q46 0 71 28.5t25 69.5q0 44 -26.5 70.5t-69.5 26.5q-45 0 -72 -27t-27 -69t26 -70.5t73 -28.5zM418 397l-71 47l108 87l49 -61zM260 553q-79 0 -116.5 35.5t-37.5 108.5h64q0 -46 24 -66t66 -20q43 0 66.5 20.5t23.5 65.5
h63q0 -75 -38.5 -109.5t-114.5 -34.5z" />
    <glyph glyph-name="Gdotaccent" unicode="&#x120;" horiz-adv-x="732" 
d="M366 -13q-94 0 -166 45t-113 127t-41 190t41 189.5t114.5 126.5t170.5 45q107 0 185.5 -53t112.5 -147l-95 -35q-25 65 -77 101.5t-126 36.5q-68 0 -118.5 -32.5t-78 -91t-27.5 -140.5t27.5 -141t78 -91.5t118.5 -32.5q35 0 71.5 9.5t67.5 34t50 66.5t19 108v47l23 -70
h-198v91h265v-370h-90l-14 128l17 -13q-18 -44 -51 -72.5t-75.5 -42t-90.5 -13.5zM316 782v119h111v-119h-111z" />
    <glyph glyph-name="gdotaccent" unicode="&#x121;" horiz-adv-x="517" 
d="M270 -213q-107 0 -169.5 39t-62.5 108q0 5 0.5 13t2.5 16l128 88l30 -25l-68 -84q-1 -4 -1 -6.5v-5.5q0 -36 40 -54t100 -18q53 0 86 14.5t33 46.5q0 17 -10 28t-30 17.5t-47.5 11t-63.5 9.5q-46 7 -89 20t-71 38.5t-28 67.5q0 36 25.5 66.5t66.5 49.5l56 -39
q-31 -7 -45 -22.5t-14 -37.5q0 -18 13.5 -29t38.5 -17t60 -11q49 -7 91.5 -15t75 -22.5t50 -39t17.5 -63.5q0 -70 -56.5 -107t-158.5 -37zM259 149q-59 0 -103.5 22.5t-69.5 62t-25 90.5q0 53 26 93t70.5 62.5t98.5 22.5q52 0 96.5 -22.5t71 -63.5t26.5 -96
q0 -52 -24.5 -90.5t-67.5 -59.5t-99 -21zM257 227q46 0 71 28.5t25 69.5q0 44 -26.5 70.5t-69.5 26.5q-45 0 -72 -27t-27 -69t26 -70.5t73 -28.5zM418 397l-71 47l108 87l49 -61zM204 578v119h111v-119h-111z" />
    <glyph glyph-name="uni0122" unicode="&#x122;" horiz-adv-x="732" 
d="M366 -13q-94 0 -166 45t-113 127t-41 190t41 189.5t114.5 126.5t170.5 45q107 0 185.5 -53t112.5 -147l-95 -35q-25 65 -77 101.5t-126 36.5q-68 0 -118.5 -32.5t-78 -91t-27.5 -140.5t27.5 -141t78 -91.5t118.5 -32.5q35 0 71.5 9.5t67.5 34t50 66.5t19 108v47l23 -70
h-198v91h265v-370h-90l-14 128l17 -13q-18 -44 -51 -72.5t-75.5 -42t-90.5 -13.5zM244 -204l76 150h103l-120 -150h-59z" />
    <glyph glyph-name="uni0123" unicode="&#x123;" horiz-adv-x="517" 
d="M270 -213q-107 0 -169.5 39t-62.5 108q0 5 0.5 13t2.5 16l128 88l30 -25l-68 -84q-1 -4 -1 -6.5v-5.5q0 -36 40 -54t100 -18q53 0 86 14.5t33 46.5q0 17 -10 28t-30 17.5t-47.5 11t-63.5 9.5q-46 7 -89 20t-71 38.5t-28 67.5q0 36 25.5 66.5t66.5 49.5l56 -39
q-31 -7 -45 -22.5t-14 -37.5q0 -18 13.5 -29t38.5 -17t60 -11q49 -7 91.5 -15t75 -22.5t50 -39t17.5 -63.5q0 -70 -56.5 -107t-158.5 -37zM259 149q-59 0 -103.5 22.5t-69.5 62t-25 90.5q0 53 26 93t70.5 62.5t98.5 22.5q52 0 96.5 -22.5t71 -63.5t26.5 -96
q0 -52 -24.5 -90.5t-67.5 -59.5t-99 -21zM257 227q46 0 71 28.5t25 69.5q0 44 -26.5 70.5t-69.5 26.5q-45 0 -72 -27t-27 -69t26 -70.5t73 -28.5zM418 397l-71 47l108 87l49 -61zM171 553l120 152h59l-76 -152h-103z" />
    <glyph glyph-name="Hcircumflex" unicode="&#x124;" horiz-adv-x="683" 
d="M75 0v697h102v-292h329v292h102v-697h-102v310h-329v-310h-102zM188 749l153 166l153 -166h-79l-74 82l-73 -82h-80z" />
    <glyph glyph-name="hcircumflex" unicode="&#x125;" horiz-adv-x="553" 
d="M68 0v697h99v-311l-21 -7q13 41 38.5 68t59 41t71.5 14q82 0 128.5 -47.5t46.5 -138.5v-316h-98v280q0 71 -25.5 104t-78.5 33q-59 0 -90 -41.5t-31 -132.5v-243h-99zM-35 749l153 166l153 -166h-80l-73 82l-72 -82h-81z" />
    <glyph glyph-name="Hbar" unicode="&#x126;" horiz-adv-x="683" 
d="M75 0v697h102v-292h329v292h102v-697h-102v310h-329v-310h-102zM18 518v58h648v-58h-648z" />
    <glyph glyph-name="hbar" unicode="&#x127;" horiz-adv-x="553" 
d="M68 0v697h99v-311l-21 -7q13 41 38.5 68t59 41t71.5 14q82 0 128.5 -47.5t46.5 -138.5v-316h-98v280q0 71 -25.5 104t-78.5 33q-59 0 -90 -41.5t-31 -132.5v-243h-99zM16 564v66h300v-66h-300z" />
    <glyph glyph-name="Itilde" unicode="&#x128;" horiz-adv-x="252" 
d="M75 0v697h102v-697h-102zM191 743q-24 0 -40.5 7.5t-28 19t-21 23t-19.5 19.5t-24 8q-17 0 -27.5 -18.5t-10.5 -52.5h-58q0 60 27 93t74 33q21 0 36.5 -8t27 -20t21.5 -23.5t20.5 -19.5t23.5 -8q15 0 26 20t11 55h60q0 -61 -26.5 -94.5t-71.5 -33.5z" />
    <glyph glyph-name="itilde" unicode="&#x129;" horiz-adv-x="232" 
d="M67 0v493h98v-493h-98zM181 563q-30 0 -48.5 11.5t-31 26.5t-24.5 26.5t-29 11.5t-27.5 -18.5t-10.5 -52.5h-58q0 63 27 98t74 35q26 0 44 -12t31 -27t25.5 -27t28.5 -12q15 0 26 19.5t11 54.5h60q0 -63 -26.5 -98.5t-71.5 -35.5z" />
    <glyph glyph-name="Imacron" unicode="&#x12a;" horiz-adv-x="252" 
d="M75 0v697h102v-697h-102zM-10 784v59h273v-59h-273z" />
    <glyph glyph-name="imacron" unicode="&#x12b;" horiz-adv-x="232" 
d="M67 0v493h98v-493h-98zM-21 580v59h273v-59h-273z" />
    <glyph glyph-name="Ibreve" unicode="&#x12c;" horiz-adv-x="252" 
d="M75 0v697h102v-697h-102zM127 739q-79 0 -116.5 34.5t-37.5 97.5h70q0 -37 23.5 -55t60.5 -18q38 0 61 18.5t23 54.5h69q0 -66 -38.5 -99t-114.5 -33z" />
    <glyph glyph-name="ibreve" unicode="&#x12d;" horiz-adv-x="232" 
d="M67 0v493h98v-493h-98zM116 553q-79 0 -116.5 35.5t-37.5 108.5h64q0 -46 24 -66t66 -20q43 0 66.5 20.5t23.5 65.5h63q0 -75 -38.5 -109.5t-114.5 -34.5z" />
    <glyph glyph-name="Iogonek" unicode="&#x12e;" horiz-adv-x="252" 
d="M75 0v697h102v-697h-102zM112 -204q-40 0 -69 22.5t-29 63.5q0 30 13.5 53t33.5 40t38 27l77 -2q-13 -7 -30.5 -17.5t-34.5 -24.5t-27.5 -31t-10.5 -36t11.5 -29.5t28.5 -10.5q16 0 34 8.5t35 24.5l32 -41q-21 -23 -47 -35t-55 -12z" />
    <glyph glyph-name="iogonek" unicode="&#x12f;" horiz-adv-x="232" 
d="M67 0v493h98v-493h-98zM60 578v119h111v-119h-111zM100 -204q-40 0 -69 22.5t-29 63.5q0 30 13.5 53t33.5 40t38 27l77 -2q-13 -7 -30.5 -17.5t-34.5 -24.5t-27.5 -31t-10.5 -36t11.5 -29.5t28.5 -10.5q16 0 34 8.5t35 24.5l32 -41q-21 -23 -47 -35t-55 -12z" />
    <glyph glyph-name="Idotaccent" unicode="&#x130;" horiz-adv-x="252" 
d="M75 0v697h102v-697h-102zM71 782v119h111v-119h-111z" />
    <glyph glyph-name="dotlessi" unicode="&#x131;" horiz-adv-x="232" 
d="M67 0v493h98v-493h-98z" />
    <glyph glyph-name="IJ" unicode="&#x132;" horiz-adv-x="805" 
d="M75 0v697h102v-697h-102zM509 -13q-99 0 -161.5 60t-69.5 165l100 11q5 -74 39 -108t92 -34q67 0 96.5 44.5t29.5 125.5v355h-271v91h373v-452q0 -80 -27.5 -138t-78.5 -89t-122 -31z" />
    <glyph glyph-name="ij" unicode="&#x133;" horiz-adv-x="465" 
d="M67 0v493h98v-493h-98zM60 578v119h111v-119h-111zM288 -213q-18 0 -39 4t-42 10v85q15 -4 26.5 -6t19.5 -2q22 0 34 12t12 44v559h98v-585q0 -62 -30 -91.5t-79 -29.5zM294 578v119h111v-119h-111z" />
    <glyph glyph-name="Jcircumflex" unicode="&#x134;" horiz-adv-x="553" 
d="M257 -13q-99 0 -161.5 60t-69.5 165l100 11q5 -74 39 -108t92 -34q67 0 96.5 44.5t29.5 125.5v355h-271v91h373v-452q0 -80 -27.5 -138t-78.5 -89t-122 -31zM145 749l153 166l153 -166h-79l-74 82l-73 -82h-80z" />
    <glyph glyph-name="jcircumflex" unicode="&#x135;" horiz-adv-x="232" 
d="M56 -213q-18 0 -39 4t-42 10v85q15 -4 26.5 -6t19.5 -2q22 0 34 12t12 44v559h98v-585q0 -62 -30 -91.5t-79 -29.5zM-36 545l153 166l153 -166h-79l-74 82l-73 -82h-80z" />
    <glyph glyph-name="uni0136" unicode="&#x136;" horiz-adv-x="644" 
d="M155 218v129l334 350h136zM75 0v697h102v-697h-102zM508 0l-232 367l76 71l275 -438h-119zM195 -204l76 150h103l-120 -150h-59z" />
    <glyph glyph-name="uni0137" unicode="&#x137;" horiz-adv-x="541" 
d="M404 0l-157 244l-91 -98v125l215 222h125l-178 -183l202 -310h-116zM68 0v697h99v-697h-99zM148 -204l76 150h103l-120 -150h-59z" />
    <glyph glyph-name="kgreenlandic" unicode="&#x138;" horiz-adv-x="555" 
d="M403 0l-157 244l-90 -98v125l214 222h125l-177 -183l201 -310h-116zM68 0v493h99v-493h-99z" />
    <glyph glyph-name="Lacute" unicode="&#x139;" horiz-adv-x="498" 
d="M75 0v697h102v-606h307v-91h-409zM90 760l110 141h105l-142 -141h-73z" />
    <glyph glyph-name="lacute" unicode="&#x13a;" horiz-adv-x="256" 
d="M173 -9q-47 0 -77 29t-30 92v585h97v-566q0 -26 11.5 -37.5t30.5 -11.5q8 0 18.5 1.5t21.5 5.5v-83q-18 -8 -37.5 -11.5t-34.5 -3.5zM78 760l110 141h105l-142 -141h-73z" />
    <glyph glyph-name="uni013B" unicode="&#x13b;" horiz-adv-x="498" 
d="M75 0v697h102v-606h307v-91h-409zM126 -204l76 150h103l-120 -150h-59z" />
    <glyph glyph-name="uni013C" unicode="&#x13c;" horiz-adv-x="256" 
d="M173 -9q-47 0 -77 29t-30 92v585h97v-566q0 -26 11.5 -37.5t30.5 -11.5q8 0 18.5 1.5t21.5 5.5v-83q-18 -8 -37.5 -11.5t-34.5 -3.5zM11 -204l76 150h103l-120 -150h-59z" />
    <glyph glyph-name="Lcaron" unicode="&#x13d;" horiz-adv-x="498" 
d="M75 0v697h102v-606h307v-91h-409zM335 480l57 217h103l-101 -217h-59z" />
    <glyph glyph-name="lcaron" unicode="&#x13e;" horiz-adv-x="307" 
d="M173 -9q-47 0 -77 29t-30 92v585h97v-566q0 -26 11.5 -37.5t30.5 -11.5q8 0 18.5 1.5t21.5 5.5v-83q-18 -8 -37.5 -11.5t-34.5 -3.5zM215 480l57 217h103l-101 -217h-59z" />
    <glyph glyph-name="Ldot" unicode="&#x13f;" horiz-adv-x="600" 
d="M75 0v697h102v-606h307v-91h-409zM429 288v122h108v-122h-108z" />
    <glyph glyph-name="ldot" unicode="&#x140;" horiz-adv-x="419" 
d="M173 -9q-47 0 -77 29t-30 92v585h97v-566q0 -26 11.5 -37.5t30.5 -11.5q8 0 18.5 1.5t21.5 5.5v-83q-18 -8 -37.5 -11.5t-34.5 -3.5zM254 288v122h108v-122h-108z" />
    <glyph glyph-name="Lslash" unicode="&#x141;" horiz-adv-x="498" 
d="M75 0v697h102v-606h307v-91h-409zM13 178l-1 101l294 232v-100z" />
    <glyph glyph-name="lslash" unicode="&#x142;" horiz-adv-x="256" 
d="M173 -9q-47 0 -77 29t-30 92v585h97v-566q0 -26 11.5 -37.5t30.5 -11.5q8 0 18.5 1.5t21.5 5.5v-83q-18 -8 -37.5 -11.5t-34.5 -3.5zM14 235v96l232 179v-95z" />
    <glyph glyph-name="Nacute" unicode="&#x143;" horiz-adv-x="680" 
d="M75 0v697h106l347 -565h-24v565h101v-697h-108l-344 566h24v-566h-102zM300 760l110 141h105l-142 -141h-73z" />
    <glyph glyph-name="nacute" unicode="&#x144;" horiz-adv-x="553" 
d="M68 0v493h99v-107l-20 -6q13 41 37.5 67.5t58 40.5t72.5 14q82 0 128.5 -47.5t46.5 -138.5v-316h-98v280q0 71 -25.5 104t-78.5 33q-40 0 -66.5 -18t-40.5 -57t-14 -99v-243h-99zM233 556l110 141h105l-142 -141h-73z" />
    <glyph glyph-name="uni0145" unicode="&#x145;" horiz-adv-x="680" 
d="M75 0v697h106l347 -565h-24v565h101v-697h-108l-344 566h24v-566h-102zM209 -204l76 150h103l-120 -150h-59z" />
    <glyph glyph-name="uni0146" unicode="&#x146;" horiz-adv-x="553" 
d="M68 0v493h99v-107l-20 -6q13 41 37.5 67.5t58 40.5t72.5 14q82 0 128.5 -47.5t46.5 -138.5v-316h-98v280q0 71 -25.5 104t-78.5 33q-40 0 -66.5 -18t-40.5 -57t-14 -99v-243h-99zM145 -204l76 150h103l-120 -150h-59z" />
    <glyph glyph-name="Ncaron" unicode="&#x147;" horiz-adv-x="680" 
d="M75 0v697h106l347 -565h-24v565h101v-697h-108l-344 566h24v-566h-102zM337 742l-153 159h77l76 -81l77 81h76z" />
    <glyph glyph-name="ncaron" unicode="&#x148;" horiz-adv-x="553" 
d="M68 0v493h99v-107l-20 -6q13 41 37.5 67.5t58 40.5t72.5 14q82 0 128.5 -47.5t46.5 -138.5v-316h-98v280q0 71 -25.5 104t-78.5 33q-40 0 -66.5 -18t-40.5 -57t-14 -99v-243h-99zM270 538l-153 159h77l76 -81l77 81h76z" />
    <glyph glyph-name="napostrophe" unicode="&#x149;" horiz-adv-x="697" 
d="M4 416l82 281h113l-129 -281h-66zM195 0v493h99v-107l-20 -6q13 41 37.5 67.5t58 40.5t72.5 14q82 0 128.5 -47.5t46.5 -138.5v-316h-98v280q0 71 -25.5 104t-78.5 33q-40 0 -66.5 -18t-40.5 -57t-14 -99v-243h-99z" />
    <glyph glyph-name="Eng" unicode="&#x14a;" horiz-adv-x="680" 
d="M445 -178q-16 0 -33.5 2t-38.5 6l2 66q10 -3 22 -4.5t21 -1.5q47 0 68 22t21 51q0 11 -2 20t-8 17l-342 555h22v-555h-102v697h106l343 -553h-20v553h101v-703q0 -44 -15.5 -83.5t-50.5 -64t-94 -24.5z" />
    <glyph glyph-name="eng" unicode="&#x14b;" horiz-adv-x="608" 
d="M414 -213q-17 0 -35 3.5t-38 10.5v79q13 -4 23.5 -6t17.5 -2q19 0 29.5 11t10.5 38v378q0 17 -4 37t-15 39t-32 30.5t-57 11.5q-41 0 -65.5 -18t-35.5 -46t-14 -60.5t-3 -63.5v-229h-98v493h98v-126l-20 21q21 60 66 87t103 27q81 0 128 -45t47 -129v-420
q0 -62 -29.5 -91.5t-76.5 -29.5z" />
    <glyph glyph-name="Omacron" unicode="&#x14c;" horiz-adv-x="748" 
d="M372 -13q-97 0 -170.5 45t-114.5 126.5t-41 189.5q0 109 41 190.5t114.5 126.5t170.5 45q99 0 173 -45t115 -126.5t41 -190.5q0 -108 -41.5 -189.5t-115.5 -126.5t-172 -45zM372 84q70 0 120 32.5t78 92t28 139.5q0 81 -28 140.5t-78 92t-120 32.5q-68 0 -118.5 -32
t-78 -91.5t-27.5 -141.5q0 -81 27.5 -140.5t78 -91.5t118.5 -32zM236 784v59h273v-59h-273z" />
    <glyph glyph-name="omacron" unicode="&#x14d;" horiz-adv-x="575" 
d="M288 -9q-70 0 -125 33t-86.5 91t-31.5 132t31 131.5t86.5 90.5t125.5 33q71 0 125 -33t85.5 -90.5t31.5 -131.5t-31.5 -131.5t-86 -91t-124.5 -33.5zM288 78q44 0 76.5 21t50 59t17.5 89q0 52 -17.5 90t-50 58.5t-76.5 20.5q-45 0 -77.5 -21t-50 -58.5t-17.5 -89.5
q0 -51 17.5 -89t50 -59t77.5 -21zM151 580v59h273v-59h-273z" />
    <glyph glyph-name="Obreve" unicode="&#x14e;" horiz-adv-x="748" 
d="M372 -13q-97 0 -170.5 45t-114.5 126.5t-41 189.5q0 109 41 190.5t114.5 126.5t170.5 45q99 0 173 -45t115 -126.5t41 -190.5q0 -108 -41.5 -189.5t-115.5 -126.5t-172 -45zM372 84q70 0 120 32.5t78 92t28 139.5q0 81 -28 140.5t-78 92t-120 32.5q-68 0 -118.5 -32
t-78 -91.5t-27.5 -141.5q0 -81 27.5 -140.5t78 -91.5t118.5 -32zM373 739q-79 0 -116.5 34.5t-37.5 97.5h70q0 -37 23.5 -55t60.5 -18q38 0 61 18.5t23 54.5h69q0 -66 -38.5 -99t-114.5 -33z" />
    <glyph glyph-name="obreve" unicode="&#x14f;" horiz-adv-x="575" 
d="M288 -9q-70 0 -125 33t-86.5 91t-31.5 132t31 131.5t86.5 90.5t125.5 33q71 0 125 -33t85.5 -90.5t31.5 -131.5t-31.5 -131.5t-86 -91t-124.5 -33.5zM288 78q44 0 76.5 21t50 59t17.5 89q0 52 -17.5 90t-50 58.5t-76.5 20.5q-45 0 -77.5 -21t-50 -58.5t-17.5 -89.5
q0 -51 17.5 -89t50 -59t77.5 -21zM288 553q-79 0 -116.5 35.5t-37.5 108.5h64q0 -46 24 -66t66 -20q43 0 66.5 20.5t23.5 65.5h63q0 -75 -38.5 -109.5t-114.5 -34.5z" />
    <glyph glyph-name="Ohungarumlaut" unicode="&#x150;" horiz-adv-x="748" 
d="M372 -13q-97 0 -170.5 45t-114.5 126.5t-41 189.5q0 109 41 190.5t114.5 126.5t170.5 45q99 0 173 -45t115 -126.5t41 -190.5q0 -108 -41.5 -189.5t-115.5 -126.5t-172 -45zM372 84q70 0 120 32.5t78 92t28 139.5q0 81 -28 140.5t-78 92t-120 32.5q-68 0 -118.5 -32
t-78 -91.5t-27.5 -141.5q0 -81 27.5 -140.5t78 -91.5t118.5 -32zM427 743l111 158h104l-142 -158h-73zM245 743l110 158h89l-126 -158h-73z" />
    <glyph glyph-name="ohungarumlaut" unicode="&#x151;" horiz-adv-x="575" 
d="M288 -9q-70 0 -125 33t-86.5 91t-31.5 132t31 131.5t86.5 90.5t125.5 33q71 0 125 -33t85.5 -90.5t31.5 -131.5t-31.5 -131.5t-86 -91t-124.5 -33.5zM288 78q44 0 76.5 21t50 59t17.5 89q0 52 -17.5 90t-50 58.5t-76.5 20.5q-45 0 -77.5 -21t-50 -58.5t-17.5 -89.5
q0 -51 17.5 -89t50 -59t77.5 -21zM342 539l111 158h104l-142 -158h-73zM160 539l110 158h89l-126 -158h-73z" />
    <glyph glyph-name="OE" unicode="&#x152;" horiz-adv-x="1008" 
d="M407 0q-175 0 -268 88.5t-93 254.5q0 169 94 261.5t266 92.5h556v-91h-359v-204h328v-91h-328v-220h359v-91h-555zM418 94h83v509h-93q-81 0 -139 -25.5t-89 -82t-31 -148.5q0 -93 31.5 -149t91.5 -80t146 -24z" />
    <glyph glyph-name="oe" unicode="&#x153;" horiz-adv-x="926" 
d="M665 -9q-60 0 -104 20t-73 55.5t-43.5 81t-14.5 95.5t14 96.5t42 83t70.5 58t100.5 21.5t100 -19.5t69 -54t40.5 -77.5t13.5 -91q0 -5 -0.5 -18.5t-2.5 -25.5h-349q3 -66 40.5 -101.5t99.5 -35.5q42 0 75 13.5t61 42.5l60 -62q-29 -29 -59.5 -47t-64 -26.5t-75.5 -8.5z
M783 265q2 8 2.5 16t0.5 16q0 23 -8 45t-24 39.5t-39.5 28t-54.5 10.5q-41 0 -70 -18.5t-44.5 -48.5t-18.5 -65h288zM288 -9q-70 0 -125 33t-86.5 91t-31.5 132t31 131.5t86.5 90.5t125.5 33q71 0 125 -33t85.5 -90.5t31.5 -131.5t-31.5 -131.5t-86 -91t-124.5 -33.5z
M288 78q44 0 76.5 21t50 59t17.5 89q0 52 -17.5 90t-50 58.5t-76.5 20.5q-45 0 -77.5 -21t-50 -58.5t-17.5 -89.5q0 -51 17.5 -89t50 -59t77.5 -21z" />
    <glyph glyph-name="Racute" unicode="&#x154;" horiz-adv-x="603" 
d="M75 0v697h215q82 0 133.5 -24t76 -68.5t24.5 -105.5q0 -90 -51.5 -141t-148.5 -59q-17 -1 -39 -1h-41h-67v-298h-102zM461 0l-179 310l104 13l192 -323h-117zM177 388h103q42 0 73.5 10.5t50.5 34.5t19 65t-19 64.5t-51 33.5t-73 10h-103v-218zM252 760l110 141h105
l-142 -141h-73z" />
    <glyph glyph-name="racute" unicode="&#x155;" horiz-adv-x="413" 
d="M68 0v493h99v-133l-21 -4q5 44 30.5 76.5t60.5 51t69 18.5q24 0 45.5 -5.5t43.5 -18.5l-48 -88q-11 6 -28 10t-32 4q-23 0 -45 -8t-39.5 -26t-26.5 -47q-4 -14 -6.5 -36.5t-2.5 -61.5v-225h-99zM155 556l110 141h105l-142 -141h-73z" />
    <glyph glyph-name="uni0156" unicode="&#x156;" horiz-adv-x="603" 
d="M75 0v697h215q82 0 133.5 -24t76 -68.5t24.5 -105.5q0 -90 -51.5 -141t-148.5 -59q-17 -1 -39 -1h-41h-67v-298h-102zM461 0l-179 310l104 13l192 -323h-117zM177 388h103q42 0 73.5 10.5t50.5 34.5t19 65t-19 64.5t-51 33.5t-73 10h-103v-218zM161 -204l76 150h103
l-120 -150h-59z" />
    <glyph glyph-name="uni0157" unicode="&#x157;" horiz-adv-x="413" 
d="M68 0v493h99v-133l-21 -4q5 44 30.5 76.5t60.5 51t69 18.5q24 0 45.5 -5.5t43.5 -18.5l-48 -88q-11 6 -28 10t-32 4q-23 0 -45 -8t-39.5 -26t-26.5 -47q-4 -14 -6.5 -36.5t-2.5 -61.5v-225h-99zM64 -204l76 150h103l-120 -150h-59z" />
    <glyph glyph-name="Rcaron" unicode="&#x158;" horiz-adv-x="603" 
d="M75 0v697h215q82 0 133.5 -24t76 -68.5t24.5 -105.5q0 -90 -51.5 -141t-148.5 -59q-17 -1 -39 -1h-41h-67v-298h-102zM461 0l-179 310l104 13l192 -323h-117zM177 388h103q42 0 73.5 10.5t50.5 34.5t19 65t-19 64.5t-51 33.5t-73 10h-103v-218zM289 742l-153 159h77
l76 -81l77 81h76z" />
    <glyph glyph-name="rcaron" unicode="&#x159;" horiz-adv-x="413" 
d="M68 0v493h99v-133l-21 -4q5 44 30.5 76.5t60.5 51t69 18.5q24 0 45.5 -5.5t43.5 -18.5l-48 -88q-11 6 -28 10t-32 4q-23 0 -45 -8t-39.5 -26t-26.5 -47q-4 -14 -6.5 -36.5t-2.5 -61.5v-225h-99zM192 538l-153 159h77l76 -81l77 81h76z" />
    <glyph glyph-name="Sacute" unicode="&#x15a;" horiz-adv-x="568" 
d="M294 -12q-107 0 -175.5 56t-83.5 149l99 24q11 -68 55 -103t108 -35q37 0 65.5 13.5t45.5 39t17 57.5q0 34 -18.5 56t-52 39.5t-80.5 35.5q-61 23 -104.5 50t-67 64.5t-23.5 90.5q0 54 26.5 95.5t74.5 65.5t111 24q67 0 119.5 -30.5t83.5 -91.5l-81 -50q-22 40 -53.5 61
t-71.5 21q-31 0 -55.5 -12t-38 -32.5t-13.5 -48.5q0 -29 16.5 -50t49 -37.5t81.5 -34.5q62 -24 106 -51.5t68 -65.5t24 -93q0 -60 -29.5 -106.5t-81.5 -73.5t-121 -27zM247 760l110 141h105l-142 -141h-73z" />
    <glyph glyph-name="sacute" unicode="&#x15b;" horiz-adv-x="471" 
d="M234 -9q-52 0 -92 15.5t-68.5 40t-45.5 50.5l67 58q19 -34 54.5 -58.5t85.5 -24.5q44 0 69.5 18.5t25.5 48.5q0 24 -16 38.5t-42 24t-57 16.5q-28 8 -57 18t-52.5 25.5t-38 40t-14.5 60.5q0 63 48.5 101.5t128.5 38.5q57 0 104 -23.5t73 -69.5l-61 -47q-20 33 -51.5 48
t-68.5 15q-35 0 -58.5 -14.5t-23.5 -39.5q0 -18 10.5 -29.5t33 -20t55.5 -16.5q31 -7 63 -17t59 -26t44 -43t17 -70q0 -47 -24 -82.5t-67 -55.5t-101 -20zM196 556l110 141h105l-142 -141h-73z" />
    <glyph glyph-name="Scircumflex" unicode="&#x15c;" horiz-adv-x="568" 
d="M294 -12q-107 0 -175.5 56t-83.5 149l99 24q11 -68 55 -103t108 -35q37 0 65.5 13.5t45.5 39t17 57.5q0 34 -18.5 56t-52 39.5t-80.5 35.5q-61 23 -104.5 50t-67 64.5t-23.5 90.5q0 54 26.5 95.5t74.5 65.5t111 24q67 0 119.5 -30.5t83.5 -91.5l-81 -50q-22 40 -53.5 61
t-71.5 21q-31 0 -55.5 -12t-38 -32.5t-13.5 -48.5q0 -29 16.5 -50t49 -37.5t81.5 -34.5q62 -24 106 -51.5t68 -65.5t24 -93q0 -60 -29.5 -106.5t-81.5 -73.5t-121 -27zM131 749l153 166l153 -166h-80l-73 82l-72 -82h-81z" />
    <glyph glyph-name="scircumflex" unicode="&#x15d;" horiz-adv-x="471" 
d="M234 -9q-52 0 -92 15.5t-68.5 40t-45.5 50.5l67 58q19 -34 54.5 -58.5t85.5 -24.5q44 0 69.5 18.5t25.5 48.5q0 24 -16 38.5t-42 24t-57 16.5q-28 8 -57 18t-52.5 25.5t-38 40t-14.5 60.5q0 63 48.5 101.5t128.5 38.5q57 0 104 -23.5t73 -69.5l-61 -47q-20 33 -51.5 48
t-68.5 15q-35 0 -58.5 -14.5t-23.5 -39.5q0 -18 10.5 -29.5t33 -20t55.5 -16.5q31 -7 63 -17t59 -26t44 -43t17 -70q0 -47 -24 -82.5t-67 -55.5t-101 -20zM80 545l153 166l153 -166h-79l-74 82l-73 -82h-80z" />
    <glyph glyph-name="Scedilla" unicode="&#x15e;" horiz-adv-x="568" 
d="M294 -12q-107 0 -175.5 56t-83.5 149l99 24q11 -68 55 -103t108 -35q37 0 65.5 13.5t45.5 39t17 57.5q0 34 -18.5 56t-52 39.5t-80.5 35.5q-61 23 -104.5 50t-67 64.5t-23.5 90.5q0 54 26.5 95.5t74.5 65.5t111 24q67 0 119.5 -30.5t83.5 -91.5l-81 -50q-22 40 -53.5 61
t-71.5 21q-31 0 -55.5 -12t-38 -32.5t-13.5 -48.5q0 -29 16.5 -50t49 -37.5t81.5 -34.5q62 -24 106 -51.5t68 -65.5t24 -93q0 -60 -29.5 -106.5t-81.5 -73.5t-121 -27zM264 -204q-14 0 -31.5 3t-34 10.5t-28.5 17.5l30 39q14 -10 30.5 -15.5t31.5 -5.5q19 0 33 8.5t14 26.5
q0 14 -10.5 22.5t-27.5 12.5t-36.5 6t-37.5 2l63 86h55l-43 -52q40 -6 67.5 -24t27.5 -52q0 -40 -30 -62.5t-73 -22.5z" />
    <glyph glyph-name="scedilla" unicode="&#x15f;" horiz-adv-x="471" 
d="M234 -9q-52 0 -92 15.5t-68.5 40t-45.5 50.5l67 58q19 -34 54.5 -58.5t85.5 -24.5q44 0 69.5 18.5t25.5 48.5q0 24 -16 38.5t-42 24t-57 16.5q-28 8 -57 18t-52.5 25.5t-38 40t-14.5 60.5q0 63 48.5 101.5t128.5 38.5q57 0 104 -23.5t73 -69.5l-61 -47q-20 33 -51.5 48
t-68.5 15q-35 0 -58.5 -14.5t-23.5 -39.5q0 -18 10.5 -29.5t33 -20t55.5 -16.5q31 -7 63 -17t59 -26t44 -43t17 -70q0 -47 -24 -82.5t-67 -55.5t-101 -20zM213 -204q-14 0 -31.5 3t-34 10.5t-28.5 17.5l30 39q14 -10 30.5 -15.5t31.5 -5.5q19 0 33 8.5t14 26.5
q0 14 -10.5 22.5t-27.5 12.5t-36.5 6t-37.5 2l63 86h55l-43 -52q40 -6 67.5 -24t27.5 -52q0 -40 -30 -62.5t-73 -22.5z" />
    <glyph glyph-name="Scaron" unicode="&#x160;" horiz-adv-x="568" 
d="M294 -12q-107 0 -175.5 56t-83.5 149l99 24q11 -68 55 -103t108 -35q37 0 65.5 13.5t45.5 39t17 57.5q0 34 -18.5 56t-52 39.5t-80.5 35.5q-61 23 -104.5 50t-67 64.5t-23.5 90.5q0 54 26.5 95.5t74.5 65.5t111 24q67 0 119.5 -30.5t83.5 -91.5l-81 -50q-22 40 -53.5 61
t-71.5 21q-31 0 -55.5 -12t-38 -32.5t-13.5 -48.5q0 -29 16.5 -50t49 -37.5t81.5 -34.5q62 -24 106 -51.5t68 -65.5t24 -93q0 -60 -29.5 -106.5t-81.5 -73.5t-121 -27zM284 742l-153 159h77l76 -81l77 81h76z" />
    <glyph glyph-name="scaron" unicode="&#x161;" horiz-adv-x="471" 
d="M234 -9q-52 0 -92 15.5t-68.5 40t-45.5 50.5l67 58q19 -34 54.5 -58.5t85.5 -24.5q44 0 69.5 18.5t25.5 48.5q0 24 -16 38.5t-42 24t-57 16.5q-28 8 -57 18t-52.5 25.5t-38 40t-14.5 60.5q0 63 48.5 101.5t128.5 38.5q57 0 104 -23.5t73 -69.5l-61 -47q-20 33 -51.5 48
t-68.5 15q-35 0 -58.5 -14.5t-23.5 -39.5q0 -18 10.5 -29.5t33 -20t55.5 -16.5q31 -7 63 -17t59 -26t44 -43t17 -70q0 -47 -24 -82.5t-67 -55.5t-101 -20zM233 538l-153 159h77l76 -81l77 81h76z" />
    <glyph glyph-name="uni0162" unicode="&#x162;" horiz-adv-x="586" 
d="M242 0v606h-228v91h558v-91h-227v-606h-103zM273 -204q-14 0 -31.5 3t-34 10.5t-28.5 17.5l30 39q14 -10 30.5 -15.5t31.5 -5.5q19 0 33 8.5t14 26.5q0 14 -10.5 22.5t-27.5 12.5t-36.5 6t-37.5 2l63 86h55l-43 -52q40 -6 67.5 -24t27.5 -52q0 -40 -30 -62.5t-73 -22.5z
" />
    <glyph glyph-name="uni0163" unicode="&#x163;" horiz-adv-x="336" 
d="M240 -9q-36 0 -66.5 14t-48 45.5t-17.5 81.5v487l99 55v-516q0 -41 12.5 -63.5t46.5 -22.5q10 0 23.5 2.5t29.5 6.5v-76q-20 -7 -40 -10.5t-39 -3.5zM10 417v76h309v-76h-309zM184 -204q-14 0 -31.5 3t-34 10.5t-28.5 17.5l30 39q14 -10 30.5 -15.5t31.5 -5.5
q19 0 33 8.5t14 26.5q0 14 -10.5 22.5t-27.5 12.5t-36.5 6t-37.5 2l63 86h55l-43 -52q40 -6 67.5 -24t27.5 -52q0 -40 -30 -62.5t-73 -22.5z" />
    <glyph glyph-name="Tcaron" unicode="&#x164;" horiz-adv-x="586" 
d="M242 0v606h-228v91h558v-91h-227v-606h-103zM292 742l-153 159h77l76 -81l77 81h76z" />
    <glyph glyph-name="tcaron" unicode="&#x165;" horiz-adv-x="452" 
d="M240 -9q-36 0 -66.5 14t-48 45.5t-17.5 81.5v487l99 55v-516q0 -41 12.5 -63.5t46.5 -22.5q10 0 23.5 2.5t29.5 6.5v-76q-20 -7 -40 -10.5t-39 -3.5zM10 417v76h309v-76h-309zM259 535l57 217h103l-101 -217h-59z" />
    <glyph glyph-name="Tbar" unicode="&#x166;" horiz-adv-x="586" 
d="M242 0v606h-228v91h558v-91h-227v-606h-103zM142 317v66h300v-66h-300z" />
    <glyph glyph-name="tbar" unicode="&#x167;" horiz-adv-x="373" 
d="M252 -9q-37 0 -67.5 14t-48 45.5t-17.5 81.5v487l100 55v-516q0 -41 12.5 -63.5t46.5 -22.5q10 0 23.5 2.5t28.5 6.5v-76q-19 -7 -39 -10.5t-39 -3.5zM21 215v66h309v-66h-309zM21 417v76h309v-76h-309z" />
    <glyph glyph-name="Utilde" unicode="&#x168;" horiz-adv-x="656" 
d="M327 -13q-126 0 -192.5 67t-66.5 198v445h102v-433q0 -60 15 -101t49.5 -62t92.5 -21t93.5 21.5t50.5 62t15 100.5v433h101v-440q0 -133 -66 -201.5t-194 -68.5zM393 743q-24 0 -40.5 7.5t-28 19t-21 23t-19.5 19.5t-24 8q-17 0 -27.5 -18.5t-10.5 -52.5h-58q0 60 27 93
t74 33q21 0 36.5 -8t27 -20t21.5 -23.5t20.5 -19.5t23.5 -8q15 0 26 20t11 55h60q0 -61 -26.5 -94.5t-71.5 -33.5z" />
    <glyph glyph-name="utilde" unicode="&#x169;" horiz-adv-x="553" 
d="M237 -9q-55 0 -94.5 22.5t-60 65t-20.5 103.5v311h98v-280q0 -44 11 -74.5t34.5 -46t59.5 -15.5q42 0 68.5 21t39.5 62.5t13 103.5v229h97v-493h-97v106l20 -4q-22 -55 -67 -83t-102 -28zM337 563q-30 0 -48.5 11.5t-31 26.5t-24.5 26.5t-29 11.5t-27.5 -18.5
t-10.5 -52.5h-58q0 63 27 98t74 35q26 0 44 -12t31 -27t25.5 -27t28.5 -12q15 0 26 19.5t11 54.5h60q0 -63 -26.5 -98.5t-71.5 -35.5z" />
    <glyph glyph-name="Umacron" unicode="&#x16a;" horiz-adv-x="656" 
d="M327 -13q-126 0 -192.5 67t-66.5 198v445h102v-433q0 -60 15 -101t49.5 -62t92.5 -21t93.5 21.5t50.5 62t15 100.5v433h101v-440q0 -133 -66 -201.5t-194 -68.5zM191 784v59h273v-59h-273z" />
    <glyph glyph-name="umacron" unicode="&#x16b;" horiz-adv-x="553" 
d="M237 -9q-55 0 -94.5 22.5t-60 65t-20.5 103.5v311h98v-280q0 -44 11 -74.5t34.5 -46t59.5 -15.5q42 0 68.5 21t39.5 62.5t13 103.5v229h97v-493h-97v106l20 -4q-22 -55 -67 -83t-102 -28zM135 580v59h273v-59h-273z" />
    <glyph glyph-name="Ubreve" unicode="&#x16c;" horiz-adv-x="656" 
d="M327 -13q-126 0 -192.5 67t-66.5 198v445h102v-433q0 -60 15 -101t49.5 -62t92.5 -21t93.5 21.5t50.5 62t15 100.5v433h101v-440q0 -133 -66 -201.5t-194 -68.5zM329 739q-79 0 -116.5 34.5t-37.5 97.5h70q0 -37 23.5 -55t60.5 -18q38 0 61 18.5t23 54.5h69
q0 -66 -38.5 -99t-114.5 -33z" />
    <glyph glyph-name="ubreve" unicode="&#x16d;" horiz-adv-x="553" 
d="M237 -9q-55 0 -94.5 22.5t-60 65t-20.5 103.5v311h98v-280q0 -44 11 -74.5t34.5 -46t59.5 -15.5q42 0 68.5 21t39.5 62.5t13 103.5v229h97v-493h-97v106l20 -4q-22 -55 -67 -83t-102 -28zM272 553q-79 0 -116.5 35.5t-37.5 108.5h64q0 -46 24 -66t66 -20q43 0 66.5 20.5
t23.5 65.5h63q0 -75 -38.5 -109.5t-114.5 -34.5z" />
    <glyph glyph-name="Uring" unicode="&#x16e;" horiz-adv-x="656" 
d="M327 -13q-126 0 -192.5 67t-66.5 198v445h102v-433q0 -60 15 -101t49.5 -62t92.5 -21t93.5 21.5t50.5 62t15 100.5v433h101v-440q0 -133 -66 -201.5t-194 -68.5zM329 679q-30 0 -54 14.5t-38.5 39t-14.5 52.5q0 29 14.5 53t39 39t53.5 15t53 -14.5t38.5 -38.5t14.5 -54
q0 -29 -14.5 -53.5t-38.5 -38.5t-53 -14zM329 732q22 0 37.5 15.5t15.5 38.5t-15 37.5t-38 14.5q-24 0 -38.5 -15t-14.5 -37q0 -23 15.5 -38.5t37.5 -15.5z" />
    <glyph glyph-name="uring" unicode="&#x16f;" horiz-adv-x="553" 
d="M237 -9q-55 0 -94.5 22.5t-60 65t-20.5 103.5v311h98v-280q0 -44 11 -74.5t34.5 -46t59.5 -15.5q42 0 68.5 21t39.5 62.5t13 103.5v229h97v-493h-97v106l20 -4q-22 -55 -67 -83t-102 -28zM272 533q-30 0 -54 14.5t-38.5 39t-14.5 52.5q0 29 14.5 53t39 39t53.5 15
t53 -14.5t38.5 -38.5t14.5 -54q0 -29 -14.5 -53.5t-38.5 -38.5t-53 -14zM272 586q22 0 37.5 15.5t15.5 38.5t-15 37.5t-38 14.5q-24 0 -38.5 -15t-14.5 -37q0 -23 15.5 -38.5t37.5 -15.5z" />
    <glyph glyph-name="Uhungarumlaut" unicode="&#x170;" horiz-adv-x="656" 
d="M327 -13q-126 0 -192.5 67t-66.5 198v445h102v-433q0 -60 15 -101t49.5 -62t92.5 -21t93.5 21.5t50.5 62t15 100.5v433h101v-440q0 -133 -66 -201.5t-194 -68.5zM383 743l111 158h104l-142 -158h-73zM201 743l110 158h89l-126 -158h-73z" />
    <glyph glyph-name="uhungarumlaut" unicode="&#x171;" horiz-adv-x="553" 
d="M237 -9q-55 0 -94.5 22.5t-60 65t-20.5 103.5v311h98v-280q0 -44 11 -74.5t34.5 -46t59.5 -15.5q42 0 68.5 21t39.5 62.5t13 103.5v229h97v-493h-97v106l20 -4q-22 -55 -67 -83t-102 -28zM326 539l111 158h104l-142 -158h-73zM144 539l110 158h89l-126 -158h-73z" />
    <glyph glyph-name="Uogonek" unicode="&#x172;" horiz-adv-x="656" 
d="M327 -13q-126 0 -192.5 67t-66.5 198v445h102v-433q0 -60 15 -101t49.5 -62t92.5 -21t93.5 21.5t50.5 62t15 100.5v433h101v-440q0 -133 -66 -201.5t-194 -68.5zM343 -204q-40 0 -69 22.5t-29 63.5q0 30 13.5 53t33.5 40t38 27l77 -2q-13 -7 -30.5 -17.5t-34.5 -24.5
t-27.5 -31t-10.5 -36t11.5 -29.5t28.5 -10.5q16 0 34 8.5t35 24.5l32 -41q-21 -23 -47 -35t-55 -12z" />
    <glyph glyph-name="uogonek" unicode="&#x173;" horiz-adv-x="553" 
d="M237 -9q-55 0 -94.5 22.5t-60 65t-20.5 103.5v311h98v-280q0 -44 11 -74.5t34.5 -46t59.5 -15.5q42 0 68.5 21t39.5 62.5t13 103.5v229h97v-493h-97v106l20 -4q-22 -55 -67 -83t-102 -28zM418 -204q-40 0 -69 22.5t-29 63.5q0 30 13.5 53t33.5 40t38 27l77 -2
q-13 -7 -30.5 -17.5t-34.5 -24.5t-27.5 -31t-10.5 -36t11.5 -29.5t28.5 -10.5q16 0 34 8.5t35 24.5l32 -41q-21 -23 -47 -35t-55 -12z" />
    <glyph glyph-name="Wcircumflex" unicode="&#x174;" horiz-adv-x="964" 
d="M226 0l-206 697h106l156 -542l150 503h101l150 -503l155 542h107l-206 -697h-100l-165 537h17l-165 -537h-100zM329 749l153 166l153 -166h-80l-73 82l-72 -82h-81z" />
    <glyph glyph-name="wcircumflex" unicode="&#x175;" horiz-adv-x="750" 
d="M173 0l-148 493h104l94 -344l109 344h85l109 -342l95 342h104l-149 -493h-89l-112 356l-112 -356h-90zM222 545l153 166l153 -166h-79l-74 82l-73 -82h-80z" />
    <glyph glyph-name="Ycircumflex" unicode="&#x176;" horiz-adv-x="610" 
d="M255 0v270l-246 427h116l178 -325l182 325h115l-243 -427v-270h-102zM153 749l153 166l153 -166h-80l-73 82l-72 -82h-81z" />
    <glyph glyph-name="ycircumflex" unicode="&#x177;" horiz-adv-x="526" 
d="M114 -203l96 232l-190 464h108l134 -366l136 366h106l-283 -696h-107zM110 545l153 166l153 -166h-79l-74 82l-73 -82h-80z" />
    <glyph glyph-name="Ydieresis" unicode="&#x178;" horiz-adv-x="610" 
d="M255 0v270l-246 427h116l178 -325l182 325h115l-243 -427v-270h-102zM345 782v119h111v-119h-111zM156 782v119h111v-119h-111z" />
    <glyph glyph-name="Zacute" unicode="&#x179;" horiz-adv-x="590" 
d="M31 0v85l413 552l14 -31h-404v91h492v-85l-405 -540l-13 19h430v-91h-527zM260 760l110 141h105l-142 -141h-73z" />
    <glyph glyph-name="zacute" unicode="&#x17a;" horiz-adv-x="472" 
d="M36 0v68l299 369l6 -24h-292v80h382v-72l-296 -371l-6 30h301v-80h-394zM200 556l110 141h105l-142 -141h-73z" />
    <glyph glyph-name="Zdotaccent" unicode="&#x17b;" horiz-adv-x="590" 
d="M31 0v85l413 552l14 -31h-404v91h492v-85l-405 -540l-13 19h430v-91h-527zM241 782v119h111v-119h-111z" />
    <glyph glyph-name="zdotaccent" unicode="&#x17c;" horiz-adv-x="472" 
d="M36 0v68l299 369l6 -24h-292v80h382v-72l-296 -371l-6 30h301v-80h-394zM181 578v119h111v-119h-111z" />
    <glyph glyph-name="Zcaron" unicode="&#x17d;" horiz-adv-x="590" 
d="M31 0v85l413 552l14 -31h-404v91h492v-85l-405 -540l-13 19h430v-91h-527zM297 742l-153 159h77l76 -81l77 81h76z" />
    <glyph glyph-name="zcaron" unicode="&#x17e;" horiz-adv-x="472" 
d="M36 0v68l299 369l6 -24h-292v80h382v-72l-296 -371l-6 30h301v-80h-394zM237 538l-153 159h77l76 -81l77 81h76z" />
    <glyph glyph-name="uni018F" unicode="&#x18f;" horiz-adv-x="752" 
d="M376 -13q-101 0 -175 44t-114.5 126t-40.5 194h102q0 -127 60 -197t168 -70t167.5 70t59.5 197t-59.5 195t-168.5 68q-75 0 -128 -33.5t-79 -104.5l-94 37q38 96 114 147t187 51q102 0 176 -44t114 -124.5t40 -192.5t-40.5 -193.5t-114 -125.5t-174.5 -44zM98 273v78h581
v-78h-581z" />
    <glyph glyph-name="florin" unicode="&#x192;" horiz-adv-x="560" 
d="M86 -219v75q51 0 80 13t41.5 44.5t12.5 84.5v421h-86v74h86v63q0 68 35.5 112t99.5 44q37 0 68 -12.5t55 -36.5l-53 -63q-15 15 -30.5 22t-29.5 7q-29 0 -45.5 -20.5t-16.5 -58.5v-57h122v-74h-122v-429q0 -109 -56 -159t-161 -50z" />
    <glyph glyph-name="uni019D" unicode="&#x19d;" horiz-adv-x="680" 
d="M75 0v697h106l343 -553h-20v553h101v-697h-108l-342 555h22v-555h-102zM-8 -178v68q31 0 49.5 11.5t26 29.5t7.5 36v16.5v16.5h102v-27q0 -40 -18.5 -74.5t-59 -55.5t-107.5 -21z" />
    <glyph glyph-name="Ohorn" unicode="&#x1a0;" horiz-adv-x="748" 
d="M372 -13q-97 0 -170.5 45t-114.5 126.5t-41 189.5q0 109 41 190.5t114.5 126.5t170.5 45q99 0 173 -45t115 -126.5t41 -190.5q0 -108 -41.5 -189.5t-115.5 -126.5t-172 -45zM372 84q70 0 120 32.5t78 92t28 139.5q0 81 -28 140.5t-78 92t-120 32.5q-68 0 -118.5 -32
t-78 -91.5t-27.5 -141.5q0 -81 27.5 -140.5t78 -91.5t118.5 -32zM587 495v64q44 0 62 26t18 75v37h69v-43q0 -45 -15.5 -81t-48 -57t-85.5 -21z" />
    <glyph glyph-name="ohorn" unicode="&#x1a1;" horiz-adv-x="575" 
d="M288 -9q-70 0 -125 33t-86.5 91t-31.5 132t31 131.5t86.5 90.5t125.5 33q71 0 125 -33t85.5 -90.5t31.5 -131.5t-31.5 -131.5t-86 -91t-124.5 -33.5zM288 78q44 0 76.5 21t50 59t17.5 89q0 52 -17.5 90t-50 58.5t-76.5 20.5q-45 0 -77.5 -21t-50 -58.5t-17.5 -89.5
q0 -51 17.5 -89t50 -59t77.5 -21zM439 353v64q44 0 62 26t18 75v37h69v-43q0 -45 -15.5 -81t-48 -57t-85.5 -21z" />
    <glyph glyph-name="Uhorn" unicode="&#x1af;" horiz-adv-x="751" 
d="M327 -13q-126 0 -192.5 67t-66.5 198v445h102v-433q0 -60 15 -101t49.5 -62t92.5 -21t93.5 21.5t50.5 62t15 100.5v433h101v-440q0 -133 -66 -201.5t-194 -68.5zM571 495v64q44 0 62 26t18 75v37h69v-43q0 -45 -15.5 -81t-48 -57t-85.5 -21z" />
    <glyph glyph-name="uhorn" unicode="&#x1b0;" horiz-adv-x="553" 
d="M237 -9q-55 0 -94.5 22.5t-60 65t-20.5 103.5v311h98v-280q0 -44 11 -74.5t34.5 -46t59.5 -15.5q42 0 68.5 21t39.5 62.5t13 103.5v229h97v-493h-97v106l20 -4q-22 -55 -67 -83t-102 -28zM417 428v64q44 0 62 26t18 75v37h69v-43q0 -45 -15.5 -81t-48 -57t-85.5 -21z" />
    <glyph glyph-name="uni01CD" unicode="&#x1cd;" horiz-adv-x="649" 
d="M14 0l271 697h79l270 -697h-111l-198 549l-199 -549h-112zM174 155l31 91h238l34 -91h-303zM325 742l-153 159h77l76 -81l77 81h76z" />
    <glyph glyph-name="uni01CE" unicode="&#x1ce;" horiz-adv-x="542" 
d="M390 0l-8 91v219q0 52 -30 80t-87 28q-40 0 -76.5 -16t-69.5 -52l-61 63q44 46 97.5 67.5t116.5 21.5q99 0 153.5 -50.5t54.5 -141.5v-310h-90zM231 -9q-55 0 -97 20t-65 55.5t-23 82.5q0 41 17 70.5t44 45.5q25 16 57.5 22.5t69.5 6.5h157v-74h-143q-20 0 -41.5 -3.5
t-36.5 -14.5q-12 -9 -19 -22.5t-7 -31.5q0 -35 27 -56t72 -21q38 0 69.5 17.5t50.5 48t19 69.5l35 -46q-9 -52 -35 -90.5t-64.5 -58.5t-86.5 -20zM274 538l-153 159h77l76 -81l77 81h76z" />
    <glyph glyph-name="uni01CF" unicode="&#x1cf;" horiz-adv-x="252" 
d="M75 0v697h102v-697h-102zM127 742l-153 159h77l76 -81l77 81h76z" />
    <glyph glyph-name="uni01D0" unicode="&#x1d0;" horiz-adv-x="232" 
d="M67 0v493h98v-493h-98zM116 538l-153 159h77l76 -81l77 81h76z" />
    <glyph glyph-name="uni01D1" unicode="&#x1d1;" horiz-adv-x="748" 
d="M372 -13q-97 0 -170.5 45t-114.5 126.5t-41 189.5q0 109 41 190.5t114.5 126.5t170.5 45q99 0 173 -45t115 -126.5t41 -190.5q0 -108 -41.5 -189.5t-115.5 -126.5t-172 -45zM372 84q70 0 120 32.5t78 92t28 139.5q0 81 -28 140.5t-78 92t-120 32.5q-68 0 -118.5 -32
t-78 -91.5t-27.5 -141.5q0 -81 27.5 -140.5t78 -91.5t118.5 -32zM373 742l-153 159h77l76 -81l77 81h76z" />
    <glyph glyph-name="uni01D2" unicode="&#x1d2;" horiz-adv-x="575" 
d="M288 -9q-70 0 -125 33t-86.5 91t-31.5 132t31 131.5t86.5 90.5t125.5 33q71 0 125 -33t85.5 -90.5t31.5 -131.5t-31.5 -131.5t-86 -91t-124.5 -33.5zM288 78q44 0 76.5 21t50 59t17.5 89q0 52 -17.5 90t-50 58.5t-76.5 20.5q-45 0 -77.5 -21t-50 -58.5t-17.5 -89.5
q0 -51 17.5 -89t50 -59t77.5 -21zM288 538l-153 159h77l76 -81l77 81h76z" />
    <glyph glyph-name="uni01D3" unicode="&#x1d3;" horiz-adv-x="656" 
d="M327 -13q-126 0 -192.5 67t-66.5 198v445h102v-433q0 -60 15 -101t49.5 -62t92.5 -21t93.5 21.5t50.5 62t15 100.5v433h101v-440q0 -133 -66 -201.5t-194 -68.5zM328 742l-153 159h77l76 -81l77 81h76z" />
    <glyph glyph-name="uni01D4" unicode="&#x1d4;" horiz-adv-x="553" 
d="M237 -9q-55 0 -94.5 22.5t-60 65t-20.5 103.5v311h98v-280q0 -44 11 -74.5t34.5 -46t59.5 -15.5q42 0 68.5 21t39.5 62.5t13 103.5v229h97v-493h-97v106l20 -4q-22 -55 -67 -83t-102 -28zM272 538l-153 159h77l76 -81l77 81h76z" />
    <glyph glyph-name="Gcaron" unicode="&#x1e6;" horiz-adv-x="732" 
d="M366 -13q-94 0 -166 45t-113 127t-41 190t41 189.5t114.5 126.5t170.5 45q107 0 185.5 -53t112.5 -147l-95 -35q-25 65 -77 101.5t-126 36.5q-68 0 -118.5 -32.5t-78 -91t-27.5 -140.5t27.5 -141t78 -91.5t118.5 -32.5q35 0 71.5 9.5t67.5 34t50 66.5t19 108v47l23 -70
h-198v91h265v-370h-90l-14 128l17 -13q-18 -44 -51 -72.5t-75.5 -42t-90.5 -13.5zM372 742l-153 159h77l76 -81l77 81h76z" />
    <glyph glyph-name="gcaron" unicode="&#x1e7;" horiz-adv-x="517" 
d="M270 -213q-107 0 -169.5 39t-62.5 108q0 5 0.5 13t2.5 16l128 88l30 -25l-68 -84q-1 -4 -1 -6.5v-5.5q0 -36 40 -54t100 -18q53 0 86 14.5t33 46.5q0 17 -10 28t-30 17.5t-47.5 11t-63.5 9.5q-46 7 -89 20t-71 38.5t-28 67.5q0 36 25.5 66.5t66.5 49.5l56 -39
q-31 -7 -45 -22.5t-14 -37.5q0 -18 13.5 -29t38.5 -17t60 -11q49 -7 91.5 -15t75 -22.5t50 -39t17.5 -63.5q0 -70 -56.5 -107t-158.5 -37zM259 149q-59 0 -103.5 22.5t-69.5 62t-25 90.5q0 53 26 93t70.5 62.5t98.5 22.5q52 0 96.5 -22.5t71 -63.5t26.5 -96
q0 -52 -24.5 -90.5t-67.5 -59.5t-99 -21zM257 227q46 0 71 28.5t25 69.5q0 44 -26.5 70.5t-69.5 26.5q-45 0 -72 -27t-27 -69t26 -70.5t73 -28.5zM418 397l-71 47l108 87l49 -61zM260 538l-153 159h77l76 -81l77 81h76z" />
    <glyph glyph-name="uni01EA" unicode="&#x1ea;" horiz-adv-x="748" 
d="M372 -13q-97 0 -170.5 45t-114.5 126.5t-41 189.5q0 109 41 190.5t114.5 126.5t170.5 45q99 0 173 -45t115 -126.5t41 -190.5q0 -108 -41.5 -189.5t-115.5 -126.5t-172 -45zM372 84q70 0 120 32.5t78 92t28 139.5q0 81 -28 140.5t-78 92t-120 32.5q-68 0 -118.5 -32
t-78 -91.5t-27.5 -141.5q0 -81 27.5 -140.5t78 -91.5t118.5 -32zM386 -204q-40 0 -69 22.5t-29 63.5q0 30 13.5 53t33.5 40t38 27l77 -2q-13 -7 -30.5 -17.5t-34.5 -24.5t-27.5 -31t-10.5 -36t11.5 -29.5t28.5 -10.5q16 0 34 8.5t35 24.5l32 -41q-21 -23 -47 -35t-55 -12z
" />
    <glyph glyph-name="uni01EB" unicode="&#x1eb;" horiz-adv-x="575" 
d="M288 -9q-70 0 -125 33t-86.5 91t-31.5 132t31 131.5t86.5 90.5t125.5 33q71 0 125 -33t85.5 -90.5t31.5 -131.5t-31.5 -131.5t-86 -91t-124.5 -33.5zM288 78q44 0 76.5 21t50 59t17.5 89q0 52 -17.5 90t-50 58.5t-76.5 20.5q-45 0 -77.5 -21t-50 -58.5t-17.5 -89.5
q0 -51 17.5 -89t50 -59t77.5 -21zM289 -204q-40 0 -69 22.5t-29 63.5q0 30 13.5 53t33.5 40t38 27l77 -2q-13 -7 -30.5 -17.5t-34.5 -24.5t-27.5 -31t-10.5 -36t11.5 -29.5t28.5 -10.5q16 0 34 8.5t35 24.5l32 -41q-21 -23 -47 -35t-55 -12z" />
    <glyph glyph-name="Aringacute" unicode="&#x1fa;" horiz-adv-x="649" 
d="M14 0l271 697h79l270 -697h-111l-198 549l-199 -549h-112zM174 155l31 91h238l34 -91h-303zM326 646q-30 0 -54 14.5t-38.5 39t-14.5 52.5q0 29 14.5 53t39 39t53.5 15t53 -14.5t38.5 -38.5t14.5 -54q0 -29 -14.5 -53.5t-38.5 -38.5t-53 -14zM326 699q22 0 37.5 15.5
t15.5 38.5t-15 37.5t-38 14.5q-24 0 -38.5 -15t-14.5 -37q0 -23 15.5 -38.5t37.5 -15.5zM343 801l110 141h105l-142 -141h-73z" />
    <glyph glyph-name="aringacute" unicode="&#x1fb;" horiz-adv-x="542" 
d="M390 0l-8 91v219q0 52 -30 80t-87 28q-40 0 -76.5 -16t-69.5 -52l-61 63q44 46 97.5 67.5t116.5 21.5q99 0 153.5 -50.5t54.5 -141.5v-310h-90zM231 -9q-55 0 -97 20t-65 55.5t-23 82.5q0 41 17 70.5t44 45.5q25 16 57.5 22.5t69.5 6.5h157v-74h-143q-20 0 -41.5 -3.5
t-36.5 -14.5q-12 -9 -19 -22.5t-7 -31.5q0 -35 27 -56t72 -21q38 0 69.5 17.5t50.5 48t19 69.5l35 -46q-9 -52 -35 -90.5t-64.5 -58.5t-86.5 -20zM275 533q-30 0 -54 14.5t-38.5 39t-14.5 52.5q0 29 14.5 53t39 39t53.5 15t53 -14.5t38.5 -38.5t14.5 -54q0 -29 -14.5 -53.5
t-38.5 -38.5t-53 -14zM275 586q22 0 37.5 15.5t15.5 38.5t-15 37.5t-38 14.5q-24 0 -38.5 -15t-14.5 -37q0 -23 15.5 -38.5t37.5 -15.5zM288 694l110 141h105l-142 -141h-73z" />
    <glyph glyph-name="AEacute" unicode="&#x1fc;" horiz-adv-x="907" 
d="M14 0l271 697h575v-91h-360v-210h314v-92h-314v-213h360v-91h-463v608h-50l-221 -608h-112zM164 155l33 93h225v-93h-258zM419 760l110 141h105l-142 -141h-73z" />
    <glyph glyph-name="aeacute" unicode="&#x1fd;" horiz-adv-x="864" 
d="M226 -9q-87 0 -133.5 44t-46.5 112q0 43 18 70t46.5 42t59.5 21.5t58 7.5t42 1h114v21q0 51 -30 79t-85 28q-37 0 -72 -15t-65 -53l-72 60q49 51 102 72t117 21t106 -23t60 -67q25 40 64.5 63.5t91.5 23.5q59 0 100.5 -18.5t67 -51t37.5 -74.5t12 -89q0 -12 -0.5 -25.5
t-2.5 -24.5h-341q4 -64 38 -100t95 -36q42 0 75 13t61 42l61 -62q-32 -32 -62 -50t-63.5 -25t-75.5 -7q-68 0 -114.5 31.5t-68.5 86.5h-11q-31 -61 -76.5 -89.5t-106.5 -28.5zM238 75q38 0 69.5 15t51.5 45.5t25 76.5v7h-109q-71 0 -100 -21t-29 -53q0 -31 24 -50.5
t68 -19.5zM473 287h254q1 14 -5.5 36t-21 43.5t-38.5 36.5t-60 15q-43 0 -71 -18.5t-42.5 -48.5t-15.5 -64zM397 556l110 141h105l-142 -141h-73z" />
    <glyph glyph-name="Oslashacute" unicode="&#x1fe;" horiz-adv-x="748" 
d="M372 -13q-97 0 -170.5 45t-114.5 126.5t-41 189.5q0 109 41 190.5t114.5 126.5t170.5 45q99 0 173 -45t115 -126.5t41 -190.5q0 -108 -41.5 -189.5t-115.5 -126.5t-172 -45zM372 84q70 0 120 32.5t78 92t28 139.5q0 81 -28 140.5t-78 92t-120 32.5q-68 0 -118.5 -32
t-78 -91.5t-27.5 -141.5q0 -81 27.5 -140.5t78 -91.5t118.5 -32zM85 0l508 697h68l-507 -697h-69zM336 760l110 141h105l-142 -141h-73z" />
    <glyph glyph-name="oslashacute" unicode="&#x1ff;" horiz-adv-x="575" 
d="M288 -9q-70 0 -125 33t-86.5 91t-31.5 132t31 131.5t86.5 90.5t125.5 33q71 0 125 -33t85.5 -90.5t31.5 -131.5t-31.5 -131.5t-86 -91t-124.5 -33.5zM288 78q44 0 76.5 21t50 59t17.5 89q0 52 -17.5 90t-50 58.5t-76.5 20.5q-45 0 -77.5 -21t-50 -58.5t-17.5 -89.5
q0 -51 17.5 -89t50 -59t77.5 -21zM84 -46l358 585h49l-358 -585h-49zM251 556l110 141h105l-142 -141h-73z" />
    <glyph glyph-name="uni0218" unicode="&#x218;" horiz-adv-x="568" 
d="M294 -12q-107 0 -175.5 56t-83.5 149l99 24q11 -68 55 -103t108 -35q37 0 65.5 13.5t45.5 39t17 57.5q0 34 -18.5 56t-52 39.5t-80.5 35.5q-61 23 -104.5 50t-67 64.5t-23.5 90.5q0 54 26.5 95.5t74.5 65.5t111 24q67 0 119.5 -30.5t83.5 -91.5l-81 -50q-22 40 -53.5 61
t-71.5 21q-31 0 -55.5 -12t-38 -32.5t-13.5 -48.5q0 -29 16.5 -50t49 -37.5t81.5 -34.5q62 -24 106 -51.5t68 -65.5t24 -93q0 -60 -29.5 -106.5t-81.5 -73.5t-121 -27zM156 -204l76 150h103l-120 -150h-59z" />
    <glyph glyph-name="uni0219" unicode="&#x219;" horiz-adv-x="471" 
d="M234 -9q-52 0 -92 15.5t-68.5 40t-45.5 50.5l67 58q19 -34 54.5 -58.5t85.5 -24.5q44 0 69.5 18.5t25.5 48.5q0 24 -16 38.5t-42 24t-57 16.5q-28 8 -57 18t-52.5 25.5t-38 40t-14.5 60.5q0 63 48.5 101.5t128.5 38.5q57 0 104 -23.5t73 -69.5l-61 -47q-20 33 -51.5 48
t-68.5 15q-35 0 -58.5 -14.5t-23.5 -39.5q0 -18 10.5 -29.5t33 -20t55.5 -16.5q31 -7 63 -17t59 -26t44 -43t17 -70q0 -47 -24 -82.5t-67 -55.5t-101 -20zM105 -204l76 150h103l-120 -150h-59z" />
    <glyph glyph-name="uni021A" unicode="&#x21a;" horiz-adv-x="586" 
d="M242 0v606h-228v91h558v-91h-227v-606h-103zM165 -204l76 150h103l-120 -150h-59z" />
    <glyph glyph-name="uni021B" unicode="&#x21b;" horiz-adv-x="336" 
d="M240 -9q-36 0 -66.5 14t-48 45.5t-17.5 81.5v487l99 55v-516q0 -41 12.5 -63.5t46.5 -22.5q10 0 23.5 2.5t29.5 6.5v-76q-20 -7 -40 -10.5t-39 -3.5zM10 417v76h309v-76h-309zM76 -204l76 150h103l-120 -150h-59z" />
    <glyph glyph-name="uni0232" unicode="&#x232;" horiz-adv-x="610" 
d="M255 0v270l-246 427h116l178 -325l182 325h115l-243 -427v-270h-102zM169 784v59h273v-59h-273z" />
    <glyph glyph-name="uni0233" unicode="&#x233;" horiz-adv-x="526" 
d="M114 -203l96 232l-190 464h108l134 -366l136 366h106l-283 -696h-107zM126 580v59h273v-59h-273z" />
    <glyph glyph-name="uni0237" unicode="&#x237;" horiz-adv-x="232" 
d="M56 -213q-18 0 -39 4t-42 10v85q15 -4 26.5 -6t19.5 -2q22 0 34 12t12 44v559h98v-585q0 -62 -30 -91.5t-79 -29.5z" />
    <glyph glyph-name="uni0259" unicode="&#x259;" horiz-adv-x="540" 
d="M260 502q60 0 104.5 -20t73 -55.5t43 -81t14.5 -95.5t-14 -96.5t-41.5 -83t-70.5 -58t-101 -21.5q-57 0 -99 19.5t-69 54t-40.5 77.5t-13.5 91q0 6 1 19.5t2 24.5h349q-4 66 -41 101.5t-100 35.5q-41 0 -74 -13.5t-62 -42.5l-60 62q30 29 60 47t64 26.5t75 8.5zM143 228
q-2 -7 -3 -15.5t-1 -16.5q0 -23 8.5 -45t24 -39.5t39.5 -28t55 -10.5q42 0 70.5 18.5t44 48.5t18.5 65h-289z" />
    <glyph glyph-name="uni0272" unicode="&#x272;" horiz-adv-x="554" 
d="M71 0v493h97v-126l-19 21q20 60 65 87t103 27q80 0 127.5 -45.5t47.5 -128.5v-328h-99v299q0 28 -8.5 55t-32 45t-65.5 18q-41 0 -64.5 -16.5t-35 -43.5t-15.5 -58.5t-4 -61.5v-237h-97zM63 -213q-35 0 -74 14v79q13 -4 23.5 -6t17.5 -2q20 0 30.5 11t10.5 38v79h97v-92
q0 -62 -29 -91.5t-76 -29.5z" />
    <glyph glyph-name="circumflex" unicode="&#x2c6;" horiz-adv-x="396" 
d="M45 545l153 166l153 -166h-77l-76 82l-75 -82h-78z" />
    <glyph glyph-name="caron" unicode="&#x2c7;" horiz-adv-x="396" 
d="M198 538l-153 159h78l75 -79l76 79h77z" />
    <glyph glyph-name="breve" unicode="&#x2d8;" horiz-adv-x="398" 
d="M199 565q-79 0 -116.5 34.5t-37.5 97.5h70q0 -37 23.5 -55t60.5 -18q38 0 61 18.5t23 54.5h69q0 -66 -38.5 -99t-114.5 -33z" />
    <glyph glyph-name="dotaccent" unicode="&#x2d9;" horiz-adv-x="202" 
d="M45 578v119h111v-119h-111z" />
    <glyph glyph-name="ring" unicode="&#x2da;" horiz-adv-x="304" 
d="M152 533q-30 0 -54 14.5t-38.5 39t-14.5 52.5q0 29 14.5 53t39 39t53.5 15t53 -14.5t38.5 -38.5t14.5 -54q0 -29 -14.5 -53.5t-38.5 -38.5t-53 -14zM152 586q22 0 37.5 15.5t15.5 38.5t-15 37.5t-38 14.5q-24 0 -38.5 -15t-14.5 -37q0 -23 15.5 -38.5t37.5 -15.5z" />
    <glyph glyph-name="ogonek" unicode="&#x2db;" horiz-adv-x="290" 
d="M143 -204q-40 0 -69 22.5t-29 63.5q0 30 13.5 53t33.5 40t38 27l77 -2q-13 -7 -30.5 -17.5t-34.5 -24.5t-27.5 -31t-10.5 -36t11.5 -29.5t28.5 -10.5q16 0 34 8.5t35 24.5l32 -41q-21 -23 -47 -35t-55 -12z" />
    <glyph glyph-name="tilde" unicode="&#x2dc;" horiz-adv-x="417" 
d="M274 563q-24 0 -40.5 7.5t-28 19t-21 23t-19.5 19t-24 7.5q-19 1 -28.5 -18.5t-9.5 -52.5h-58q0 63 27 98t74 35q26 0 44 -12t31 -27t25.5 -27t28.5 -12q15 0 26 19.5t11 54.5h60q0 -63 -26.5 -98.5t-71.5 -35.5z" />
    <glyph glyph-name="hungarumlaut" unicode="&#x2dd;" horiz-adv-x="487" 
d="M227 539l111 158h104l-142 -158h-73zM45 539l110 158h89l-126 -158h-73z" />
    <glyph glyph-name="uni02F5" unicode="&#x2f5;" horiz-adv-x="532" 
d="M197 336l-144 157h105l112 -157h-73zM408 336l-144 157h104l112 -157h-72z" />
    <glyph glyph-name="uni02F6" unicode="&#x2f6;" horiz-adv-x="532" 
d="M52 336l112 157h104l-143 -157h-73zM263 336l112 157h104l-143 -157h-73z" />
    <glyph glyph-name="gravecomb" unicode="&#x300;" 
d="M180 556l-135 141h104l104 -141h-73z" />
    <glyph glyph-name="acutecomb" unicode="&#x301;" 
d="M45 556l110 141h105l-142 -141h-73z" />
    <glyph glyph-name="uni0302" unicode="&#x302;" 
d="M45 545l153 166l153 -166h-79l-74 82l-73 -82h-80z" />
    <glyph glyph-name="tildecomb" unicode="&#x303;" 
d="M274 563q-30 0 -48.5 11.5t-31 26.5t-24.5 26.5t-29 11.5t-27.5 -18.5t-10.5 -52.5h-58q0 63 27 98t74 35q26 0 44 -12t31 -27t25.5 -27t28.5 -12q15 0 26 19.5t11 54.5h60q0 -63 -26.5 -98.5t-71.5 -35.5z" />
    <glyph glyph-name="uni0304" unicode="&#x304;" 
d="M45 580v59h273v-59h-273z" />
    <glyph glyph-name="uni0306" unicode="&#x306;" 
d="M199 553q-79 0 -116.5 35.5t-37.5 108.5h64q0 -46 24 -66t66 -20q43 0 66.5 20.5t23.5 65.5h63q0 -75 -38.5 -109.5t-114.5 -34.5z" />
    <glyph glyph-name="uni0307" unicode="&#x307;" 
d="M45 578v119h111v-119h-111z" />
    <glyph glyph-name="uni0308" unicode="&#x308;" 
d="M234 578v119h111v-119h-111zM45 578v119h111v-119h-111z" />
    <glyph glyph-name="hookabovecomb" unicode="&#x309;" 
d="M84 521l-7 36q25 4 48 11.5t23 30.5q0 25 -27 34t-60 9h-16v56h16q69 0 112.5 -24t43.5 -68q0 -32 -21 -49.5t-51.5 -24.5t-60.5 -11z" />
    <glyph glyph-name="uni030A" unicode="&#x30a;" 
d="M152 533q-30 0 -54 14.5t-38.5 39t-14.5 52.5q0 29 14.5 53t39 39t53.5 15t53 -14.5t38.5 -38.5t14.5 -54q0 -29 -14.5 -53.5t-38.5 -38.5t-53 -14zM152 586q22 0 37.5 15.5t15.5 38.5t-15 37.5t-38 14.5q-24 0 -38.5 -15t-14.5 -37q0 -23 15.5 -38.5t37.5 -15.5z" />
    <glyph glyph-name="uni030B" unicode="&#x30b;" 
d="M227 539l111 158h104l-142 -158h-73zM45 539l110 158h89l-126 -158h-73z" />
    <glyph glyph-name="uni030C" unicode="&#x30c;" 
d="M198 538l-153 159h77l76 -81l77 81h76z" />
    <glyph glyph-name="uni030F" unicode="&#x30f;" 
d="M186 539l-141 158h104l110 -158h-73zM369 539l-125 158h88l110 -158h-73z" />
    <glyph glyph-name="uni0312" unicode="&#x312;" 
d="M45 553l120 152h59l-76 -152h-103z" />
    <glyph glyph-name="uni031B" unicode="&#x31b;" 
d="M45 495v64q44 0 62 26t18 75v37h69v-43q0 -45 -15.5 -81t-48 -57t-85.5 -21z" />
    <glyph glyph-name="dotbelowcomb" unicode="&#x323;" 
d="M45 -174v108h111v-108h-111z" />
    <glyph glyph-name="uni0326" unicode="&#x326;" 
d="M45 -204l76 150h103l-120 -150h-59z" />
    <glyph glyph-name="uni0327" unicode="&#x327;" 
d="M139 -204q-14 0 -31.5 3t-34 10.5t-28.5 17.5l30 39q14 -10 30.5 -15.5t31.5 -5.5q19 0 33 8.5t14 26.5q0 14 -10.5 22.5t-27.5 12.5t-36.5 6t-37.5 2l63 86h55l-43 -52q40 -6 67.5 -24t27.5 -52q0 -40 -30 -62.5t-73 -22.5z" />
    <glyph glyph-name="uni0328" unicode="&#x328;" 
d="M143 -204q-40 0 -69 22.5t-29 63.5q0 30 13.5 53t33.5 40t38 27l77 -2q-13 -7 -30.5 -17.5t-34.5 -24.5t-27.5 -31t-10.5 -36t11.5 -29.5t28.5 -10.5q16 0 34 8.5t35 24.5l32 -41q-21 -23 -47 -35t-55 -12z" />
    <glyph glyph-name="uni0335" unicode="&#x335;" 
d="M45 258v66h300v-66h-300z" />
    <glyph glyph-name="uni0336" unicode="&#x336;" 
d="M45 252v58h648v-58h-648z" />
    <glyph glyph-name="uni0337" unicode="&#x337;" 
d="M45 228v96l232 179v-95z" />
    <glyph glyph-name="uni0338" unicode="&#x338;" 
d="M45 0l358 585h49l-358 -585h-49z" />
    <glyph glyph-name="uni0374" unicode="&#x374;" horiz-adv-x="307" 
d="M35 416l82 281h113l-129 -281h-66z" />
    <glyph glyph-name="uni0375" unicode="&#x375;" horiz-adv-x="306" 
d="M32 5l130 282h65l-81 -282h-114z" />
    <glyph glyph-name="uni037E" unicode="&#x37e;" horiz-adv-x="240" 
d="M7 -152l86 282h109l-128 -282h-67zM80 349v122h112v-122h-112z" />
    <glyph glyph-name="tonos" unicode="&#x384;" horiz-adv-x="245" 
d="M45 556l62 141h93l-83 -141h-72z" />
    <glyph glyph-name="dieresistonos" unicode="&#x385;" horiz-adv-x="459" 
d="M45 578v119h103v-119h-103zM311 578v119h102v-119h-102zM242 591l-49 11l45 208l76 -15z" />
    <glyph glyph-name="anoteleia" unicode="&#x387;" horiz-adv-x="352" 
d="M66 132v231h231v-231h-231z" />
    <glyph glyph-name="uni0394" unicode="&#x394;" horiz-adv-x="722" 
d="M51 0l270 697h80l270 -697h-620zM197 94h328l-163 455z" />
    <glyph glyph-name="uni03A9" unicode="&#x3a9;" horiz-adv-x="822" 
d="M45 0v96h159l21 -12q-62 30 -105 75.5t-64.5 103t-21.5 123.5q0 70 24 129.5t67.5 103t103.5 67.5t133 24t133 -24.5t104.5 -68t69 -102.5t24.5 -128q0 -68 -23.5 -126t-66 -102t-103.5 -75l21 12h160v-96h-266v93q85 45 127.5 116t42.5 162q0 73 -26.5 127.5t-76 84.5
t-119.5 30q-71 0 -121 -30t-76.5 -85t-26.5 -128q0 -97 45.5 -167t126.5 -110v-93h-266z" />
    <glyph glyph-name="uni03BC" unicode="&#x3bc;" horiz-adv-x="553" 
d="M62 -167v660h98v-288q0 -36 9.5 -65t33 -46t65.5 -17q47 0 72.5 26t35.5 70.5t10 99.5v220h97v-493h-97v71q-23 -39 -61 -59.5t-86 -20.5q-28 0 -48 10.5t-31 30.5v-199h-98z" />
    <glyph glyph-name="pi" unicode="&#x3c0;" horiz-adv-x="584" 
d="M493 -9q-63 0 -94.5 33.5t-31.5 100.5v286h-162v-411h-98v411h-63v82h498v-82h-78v-254q0 -41 13 -58t39 -17q9 0 17.5 2.5t15.5 5.5l17 -78q-19 -12 -36 -16.5t-37 -4.5z" />
    <glyph glyph-name="uni1E20" unicode="&#x1e20;" horiz-adv-x="732" 
d="M366 -13q-94 0 -166 45t-113 127t-41 190t41 189.5t114.5 126.5t170.5 45q107 0 185.5 -53t112.5 -147l-95 -35q-25 65 -77 101.5t-126 36.5q-68 0 -118.5 -32.5t-78 -91t-27.5 -140.5t27.5 -141t78 -91.5t118.5 -32.5q35 0 71.5 9.5t67.5 34t50 66.5t19 108v47l23 -70
h-198v91h265v-370h-90l-14 128l17 -13q-18 -44 -51 -72.5t-75.5 -42t-90.5 -13.5zM235 784v59h273v-59h-273z" />
    <glyph glyph-name="uni1E21" unicode="&#x1e21;" horiz-adv-x="517" 
d="M270 -213q-107 0 -169.5 39t-62.5 108q0 5 0.5 13t2.5 16l128 88l30 -25l-68 -84q-1 -4 -1 -6.5v-5.5q0 -36 40 -54t100 -18q53 0 86 14.5t33 46.5q0 17 -10 28t-30 17.5t-47.5 11t-63.5 9.5q-46 7 -89 20t-71 38.5t-28 67.5q0 36 25.5 66.5t66.5 49.5l56 -39
q-31 -7 -45 -22.5t-14 -37.5q0 -18 13.5 -29t38.5 -17t60 -11q49 -7 91.5 -15t75 -22.5t50 -39t17.5 -63.5q0 -70 -56.5 -107t-158.5 -37zM259 149q-59 0 -103.5 22.5t-69.5 62t-25 90.5q0 53 26 93t70.5 62.5t98.5 22.5q52 0 96.5 -22.5t71 -63.5t26.5 -96
q0 -52 -24.5 -90.5t-67.5 -59.5t-99 -21zM257 227q46 0 71 28.5t25 69.5q0 44 -26.5 70.5t-69.5 26.5q-45 0 -72 -27t-27 -69t26 -70.5t73 -28.5zM418 397l-71 47l108 87l49 -61zM123 580v59h273v-59h-273z" />
    <glyph glyph-name="uni1E44" unicode="&#x1e44;" horiz-adv-x="680" 
d="M75 0v697h106l347 -565h-24v565h101v-697h-108l-344 566h24v-566h-102zM281 782v119h111v-119h-111z" />
    <glyph glyph-name="uni1E45" unicode="&#x1e45;" horiz-adv-x="553" 
d="M68 0v493h99v-107l-20 -6q13 41 37.5 67.5t58 40.5t72.5 14q82 0 128.5 -47.5t46.5 -138.5v-316h-98v280q0 71 -25.5 104t-78.5 33q-40 0 -66.5 -18t-40.5 -57t-14 -99v-243h-99zM215 578v119h111v-119h-111z" />
    <glyph glyph-name="Wgrave" unicode="&#x1e80;" horiz-adv-x="964" 
d="M226 0l-206 697h106l156 -542l150 503h101l150 -503l155 542h107l-206 -697h-100l-165 537h17l-165 -537h-100zM446 760l-135 141h104l104 -141h-73z" />
    <glyph glyph-name="wgrave" unicode="&#x1e81;" horiz-adv-x="750" 
d="M173 0l-148 493h104l94 -344l109 344h85l109 -342l95 342h104l-149 -493h-89l-112 356l-112 -356h-90zM338 556l-135 141h104l104 -141h-73z" />
    <glyph glyph-name="Wacute" unicode="&#x1e82;" horiz-adv-x="964" 
d="M226 0l-206 697h106l156 -542l150 503h101l150 -503l155 542h107l-206 -697h-100l-165 537h17l-165 -537h-100zM446 760l110 141h105l-142 -141h-73z" />
    <glyph glyph-name="wacute" unicode="&#x1e83;" horiz-adv-x="750" 
d="M173 0l-148 493h104l94 -344l109 344h85l109 -342l95 342h104l-149 -493h-89l-112 356l-112 -356h-90zM338 556l110 141h105l-142 -141h-73z" />
    <glyph glyph-name="Wdieresis" unicode="&#x1e84;" horiz-adv-x="964" 
d="M226 0l-206 697h106l156 -542l150 503h101l150 -503l155 542h107l-206 -697h-100l-165 537h17l-165 -537h-100zM522 782v119h111v-119h-111zM333 782v119h111v-119h-111z" />
    <glyph glyph-name="wdieresis" unicode="&#x1e85;" horiz-adv-x="750" 
d="M173 0l-148 493h104l94 -344l109 344h85l109 -342l95 342h104l-149 -493h-89l-112 356l-112 -356h-90zM414 578v119h111v-119h-111zM225 578v119h111v-119h-111z" />
    <glyph glyph-name="uni1E9E" unicode="&#x1e9e;" horiz-adv-x="775" 
d="M75 0v697h625v-91h-523v-606h-102zM497 -12q-68 0 -122.5 26t-89 72.5t-44.5 106.5l100 25q9 -68 51.5 -103.5t106.5 -35.5q38 0 67.5 13.5t47 38.5t17.5 57q0 34 -17.5 56.5t-51.5 40t-82 37.5q-61 26 -105 52.5t-66.5 65.5t-22.5 99q0 35 18.5 59.5t50.5 32.5l97 -4
q-29 -8 -47 -31.5t-18 -56.5q0 -35 16.5 -57.5t49.5 -39.5t81 -37q59 -26 103.5 -52t70 -62.5t25.5 -94.5q0 -60 -31.5 -107t-84.5 -74t-120 -27z" />
    <glyph glyph-name="uni1EA0" unicode="&#x1ea0;" horiz-adv-x="649" 
d="M14 0l271 697h79l270 -697h-111l-198 549l-199 -549h-112zM174 155l31 91h238l34 -91h-303zM269 -174v108h111v-108h-111z" />
    <glyph glyph-name="uni1EA1" unicode="&#x1ea1;" horiz-adv-x="542" 
d="M390 0l-8 91v219q0 52 -30 80t-87 28q-40 0 -76.5 -16t-69.5 -52l-61 63q44 46 97.5 67.5t116.5 21.5q99 0 153.5 -50.5t54.5 -141.5v-310h-90zM231 -9q-55 0 -97 20t-65 55.5t-23 82.5q0 41 17 70.5t44 45.5q25 16 57.5 22.5t69.5 6.5h157v-74h-143q-20 0 -41.5 -3.5
t-36.5 -14.5q-12 -9 -19 -22.5t-7 -31.5q0 -35 27 -56t72 -21q38 0 69.5 17.5t50.5 48t19 69.5l35 -46q-9 -52 -35 -90.5t-64.5 -58.5t-86.5 -20zM219 -174v108h111v-108h-111z" />
    <glyph glyph-name="uni1EA2" unicode="&#x1ea2;" horiz-adv-x="649" 
d="M14 0l271 697h79l270 -697h-111l-198 549l-199 -549h-112zM174 155l31 91h238l34 -91h-303zM302 725l-7 36q25 4 48 11.5t23 30.5q0 25 -27 34t-60 9h-16v56h16q69 0 112.5 -24t43.5 -68q0 -32 -21 -49.5t-51.5 -24.5t-60.5 -11z" />
    <glyph glyph-name="uni1EA3" unicode="&#x1ea3;" horiz-adv-x="542" 
d="M390 0l-8 91v219q0 52 -30 80t-87 28q-40 0 -76.5 -16t-69.5 -52l-61 63q44 46 97.5 67.5t116.5 21.5q99 0 153.5 -50.5t54.5 -141.5v-310h-90zM231 -9q-55 0 -97 20t-65 55.5t-23 82.5q0 41 17 70.5t44 45.5q25 16 57.5 22.5t69.5 6.5h157v-74h-143q-20 0 -41.5 -3.5
t-36.5 -14.5q-12 -9 -19 -22.5t-7 -31.5q0 -35 27 -56t72 -21q38 0 69.5 17.5t50.5 48t19 69.5l35 -46q-9 -52 -35 -90.5t-64.5 -58.5t-86.5 -20zM251 521l-7 36q25 4 48 11.5t23 30.5q0 25 -27 34t-60 9h-16v56h16q69 0 112.5 -24t43.5 -68q0 -32 -21 -49.5t-51.5 -24.5
t-60.5 -11z" />
    <glyph glyph-name="uni1EA4" unicode="&#x1ea4;" horiz-adv-x="649" 
d="M14 0l271 697h79l270 -697h-111l-198 549l-199 -549h-112zM174 155l31 91h238l34 -91h-303zM172 743l153 139l153 -139h-80l-73 71l-73 -71h-80zM399 849l70 134h80l-90 -134h-60z" />
    <glyph glyph-name="uni1EA5" unicode="&#x1ea5;" horiz-adv-x="542" 
d="M390 0l-8 91v219q0 52 -30 80t-87 28q-40 0 -76.5 -16t-69.5 -52l-61 63q44 46 97.5 67.5t116.5 21.5q99 0 153.5 -50.5t54.5 -141.5v-310h-90zM231 -9q-55 0 -97 20t-65 55.5t-23 82.5q0 41 17 70.5t44 45.5q25 16 57.5 22.5t69.5 6.5h157v-74h-143q-20 0 -41.5 -3.5
t-36.5 -14.5q-12 -9 -19 -22.5t-7 -31.5q0 -35 27 -56t72 -21q38 0 69.5 17.5t50.5 48t19 69.5l35 -46q-9 -52 -35 -90.5t-64.5 -58.5t-86.5 -20zM121 545l153 154l153 -154h-80l-73 70l-73 -70h-80zM348 651l70 133h80l-90 -133h-60z" />
    <glyph glyph-name="uni1EA6" unicode="&#x1ea6;" horiz-adv-x="649" 
d="M14 0l271 697h79l270 -697h-111l-198 549l-199 -549h-112zM174 155l31 91h238l34 -91h-303zM172 743l153 139l153 -139h-80l-73 71l-72 -71h-81zM444 849l-90 134h81l69 -134h-60z" />
    <glyph glyph-name="uni1EA7" unicode="&#x1ea7;" horiz-adv-x="542" 
d="M390 0l-8 91v219q0 52 -30 80t-87 28q-40 0 -76.5 -16t-69.5 -52l-61 63q44 46 97.5 67.5t116.5 21.5q99 0 153.5 -50.5t54.5 -141.5v-310h-90zM231 -9q-55 0 -97 20t-65 55.5t-23 82.5q0 41 17 70.5t44 45.5q25 16 57.5 22.5t69.5 6.5h157v-74h-143q-20 0 -41.5 -3.5
t-36.5 -14.5q-12 -9 -19 -22.5t-7 -31.5q0 -35 27 -56t72 -21q38 0 69.5 17.5t50.5 48t19 69.5l35 -46q-9 -52 -35 -90.5t-64.5 -58.5t-86.5 -20zM121 545l153 154l153 -154h-80l-73 70l-72 -70h-81zM393 651l-90 133h81l69 -133h-60z" />
    <glyph glyph-name="uni1EA8" unicode="&#x1ea8;" horiz-adv-x="649" 
d="M14 0l271 697h79l270 -697h-111l-198 549l-199 -549h-112zM174 155l31 91h238l34 -91h-303zM172 743l153 143l153 -143h-80l-73 73l-72 -73h-81zM429 820l-10 36q29 5 44.5 14t15.5 27q0 17 -11 25.5t-28.5 12.5t-37.5 4h-15v52h15q65 0 99.5 -23t34.5 -64
q0 -31 -15 -47.5t-39.5 -24t-52.5 -12.5z" />
    <glyph glyph-name="uni1EA9" unicode="&#x1ea9;" horiz-adv-x="542" 
d="M390 0l-8 91v219q0 52 -30 80t-87 28q-40 0 -76.5 -16t-69.5 -52l-61 63q44 46 97.5 67.5t116.5 21.5q99 0 153.5 -50.5t54.5 -141.5v-310h-90zM231 -9q-55 0 -97 20t-65 55.5t-23 82.5q0 41 17 70.5t44 45.5q25 16 57.5 22.5t69.5 6.5h157v-74h-143q-20 0 -41.5 -3.5
t-36.5 -14.5q-12 -9 -19 -22.5t-7 -31.5q0 -35 27 -56t72 -21q38 0 69.5 17.5t50.5 48t19 69.5l35 -46q-9 -52 -35 -90.5t-64.5 -58.5t-86.5 -20zM121 545l153 154l153 -154h-80l-73 70l-72 -70h-81zM368 634l-10 36q26 4 43 12.5t17 28.5q0 24 -24 32.5t-53 8.5h-15v53h15
q64 0 99 -23t35 -66q0 -30 -15 -46t-39.5 -24t-52.5 -12z" />
    <glyph glyph-name="uni1EAA" unicode="&#x1eaa;" horiz-adv-x="649" 
d="M14 0l271 697h79l270 -697h-111l-198 549l-199 -549h-112zM174 155l31 91h238l34 -91h-303zM172 743l153 139l153 -139h-79l-74 71l-73 -71h-80zM385 895q-24 0 -41.5 6.5t-30 15t-24.5 15t-25 6.5q-17 0 -25 -10t-11 -26l-55 2q4 40 28 64t63 24q24 0 41 -6t30 -14
t24.5 -14t25.5 -6q15 0 23.5 7t11.5 24l57 -1q-3 -39 -25.5 -63t-66.5 -24z" />
    <glyph glyph-name="uni1EAB" unicode="&#x1eab;" horiz-adv-x="542" 
d="M390 0l-8 91v219q0 52 -30 80t-87 28q-40 0 -76.5 -16t-69.5 -52l-61 63q44 46 97.5 67.5t116.5 21.5q99 0 153.5 -50.5t54.5 -141.5v-310h-90zM231 -9q-55 0 -97 20t-65 55.5t-23 82.5q0 41 17 70.5t44 45.5q25 16 57.5 22.5t69.5 6.5h157v-74h-143q-20 0 -41.5 -3.5
t-36.5 -14.5q-12 -9 -19 -22.5t-7 -31.5q0 -35 27 -56t72 -21q38 0 69.5 17.5t50.5 48t19 69.5l35 -46q-9 -52 -35 -90.5t-64.5 -58.5t-86.5 -20zM121 545l153 154l153 -154h-79l-74 74l-73 -74h-80zM341 704q-25 0 -41 6.5t-27 15t-23.5 15t-30.5 6.5q-21 0 -30.5 -10.5
t-11.5 -25.5l-55 2q3 39 27 63.5t64 24.5q24 0 41 -6t30 -14t24.5 -14t25.5 -6q15 0 23.5 7t11.5 24l57 -1q-3 -39 -24.5 -63t-60.5 -24z" />
    <glyph glyph-name="uni1EAC" unicode="&#x1eac;" horiz-adv-x="649" 
d="M14 0l271 697h79l270 -697h-111l-198 549l-199 -549h-112zM174 155l31 91h238l34 -91h-303zM269 -174v108h111v-108h-111zM172 749l153 166l153 -166h-79l-74 82l-73 -82h-80z" />
    <glyph glyph-name="uni1EAD" unicode="&#x1ead;" horiz-adv-x="542" 
d="M390 0l-8 91v219q0 52 -30 80t-87 28q-40 0 -76.5 -16t-69.5 -52l-61 63q44 46 97.5 67.5t116.5 21.5q99 0 153.5 -50.5t54.5 -141.5v-310h-90zM231 -9q-55 0 -97 20t-65 55.5t-23 82.5q0 41 17 70.5t44 45.5q25 16 57.5 22.5t69.5 6.5h157v-74h-143q-20 0 -41.5 -3.5
t-36.5 -14.5q-12 -9 -19 -22.5t-7 -31.5q0 -35 27 -56t72 -21q38 0 69.5 17.5t50.5 48t19 69.5l35 -46q-9 -52 -35 -90.5t-64.5 -58.5t-86.5 -20zM219 -174v108h111v-108h-111zM121 545l153 166l153 -166h-79l-74 82l-73 -82h-80z" />
    <glyph glyph-name="uni1EAE" unicode="&#x1eae;" horiz-adv-x="649" 
d="M14 0l271 697h79l270 -697h-111l-198 549l-199 -549h-112zM174 155l31 91h238l34 -91h-303zM325 739q-79 0 -116.5 34.5t-37.5 97.5h64q0 -37 24 -55t66 -18t66 18.5t24 54.5h63q0 -66 -38.5 -99t-114.5 -33zM288 872l63 122h77l-81 -122h-59z" />
    <glyph glyph-name="uni1EAF" unicode="&#x1eaf;" horiz-adv-x="542" 
d="M390 0l-8 91v219q0 52 -30 80t-87 28q-40 0 -76.5 -16t-69.5 -52l-61 63q44 46 97.5 67.5t116.5 21.5q99 0 153.5 -50.5t54.5 -141.5v-310h-90zM231 -9q-55 0 -97 20t-65 55.5t-23 82.5q0 41 17 70.5t44 45.5q25 16 57.5 22.5t69.5 6.5h157v-74h-143q-20 0 -41.5 -3.5
t-36.5 -14.5q-12 -9 -19 -22.5t-7 -31.5q0 -35 27 -56t72 -21q38 0 69.5 17.5t50.5 48t19 69.5l35 -46q-9 -52 -35 -90.5t-64.5 -58.5t-86.5 -20zM275 553q-79 0 -116.5 35.5t-37.5 108.5h64q0 -46 24 -66t66 -20q43 0 66.5 20.5t23.5 65.5h63q0 -75 -38.5 -109.5
t-114.5 -34.5zM238 698l66 128h79l-86 -128h-59z" />
    <glyph glyph-name="uni1EB0" unicode="&#x1eb0;" horiz-adv-x="649" 
d="M14 0l271 697h79l270 -697h-111l-198 549l-199 -549h-112zM174 155l31 91h238l34 -91h-303zM325 739q-79 0 -116.5 34.5t-37.5 97.5h64q0 -37 24 -55t66 -18t66 18.5t24 54.5h63q0 -66 -38.5 -99t-114.5 -33zM302 872l-79 122h77l63 -122h-61z" />
    <glyph glyph-name="uni1EB1" unicode="&#x1eb1;" horiz-adv-x="542" 
d="M390 0l-8 91v219q0 52 -30 80t-87 28q-40 0 -76.5 -16t-69.5 -52l-61 63q44 46 97.5 67.5t116.5 21.5q99 0 153.5 -50.5t54.5 -141.5v-310h-90zM231 -9q-55 0 -97 20t-65 55.5t-23 82.5q0 41 17 70.5t44 45.5q25 16 57.5 22.5t69.5 6.5h157v-74h-143q-20 0 -41.5 -3.5
t-36.5 -14.5q-12 -9 -19 -22.5t-7 -31.5q0 -35 27 -56t72 -21q38 0 69.5 17.5t50.5 48t19 69.5l35 -46q-9 -52 -35 -90.5t-64.5 -58.5t-86.5 -20zM275 553q-79 0 -116.5 35.5t-37.5 108.5h64q0 -46 24 -66t66 -20q43 0 66.5 20.5t23.5 65.5h63q0 -75 -38.5 -109.5
t-114.5 -34.5zM252 698l-85 128h80l66 -128h-61z" />
    <glyph glyph-name="uni1EB2" unicode="&#x1eb2;" horiz-adv-x="649" 
d="M14 0l271 697h79l270 -697h-111l-198 549l-199 -549h-112zM174 155l31 91h238l34 -91h-303zM325 739q-79 0 -116.5 34.5t-37.5 97.5h64q0 -37 24 -55t66 -18t66 18.5t24 54.5h63q0 -66 -38.5 -99t-114.5 -33zM300 845l-11 30q27 2 43.5 10.5t16.5 27.5q0 21 -23.5 29.5
t-52.5 8.5h-15v42h15q64 0 99 -19.5t35 -55.5q0 -23 -13 -38t-37 -23t-57 -12z" />
    <glyph glyph-name="uni1EB3" unicode="&#x1eb3;" horiz-adv-x="542" 
d="M390 0l-8 91v219q0 52 -30 80t-87 28q-40 0 -76.5 -16t-69.5 -52l-61 63q44 46 97.5 67.5t116.5 21.5q99 0 153.5 -50.5t54.5 -141.5v-310h-90zM231 -9q-55 0 -97 20t-65 55.5t-23 82.5q0 41 17 70.5t44 45.5q25 16 57.5 22.5t69.5 6.5h157v-74h-143q-20 0 -41.5 -3.5
t-36.5 -14.5q-12 -9 -19 -22.5t-7 -31.5q0 -35 27 -56t72 -21q38 0 69.5 17.5t50.5 48t19 69.5l35 -46q-9 -52 -35 -90.5t-64.5 -58.5t-86.5 -20zM275 553q-79 0 -116.5 35.5t-37.5 108.5h64q0 -46 24 -66t66 -20q43 0 66.5 20.5t23.5 65.5h63q0 -75 -38.5 -109.5
t-114.5 -34.5zM250 680l-11 37q31 3 45.5 13t14.5 27t-11 26t-28.5 12.5t-36.5 3.5h-15v53h15q64 0 99 -23t35 -65q0 -31 -15.5 -48t-40 -24.5t-51.5 -11.5z" />
    <glyph glyph-name="uni1EB4" unicode="&#x1eb4;" horiz-adv-x="649" 
d="M14 0l271 697h79l270 -697h-111l-198 549l-199 -549h-112zM174 155l31 91h238l34 -91h-303zM325 739q-79 0 -116.5 34.5t-37.5 97.5h64q0 -37 24 -55t66 -18t66 18.5t24 54.5h63q0 -66 -38.5 -99t-114.5 -33zM386 889q-25 0 -41 6.5t-28.5 15.5t-24 16t-26.5 7
q-16 0 -25 -11t-13 -27l-54 1q4 40 28 63.5t62 23.5q25 0 41.5 -6t29 -14t24 -14t25.5 -6q17 0 26 8t12 25l57 -1q-3 -40 -26.5 -63.5t-66.5 -23.5z" />
    <glyph glyph-name="uni1EB5" unicode="&#x1eb5;" horiz-adv-x="542" 
d="M390 0l-8 91v219q0 52 -30 80t-87 28q-40 0 -76.5 -16t-69.5 -52l-61 63q44 46 97.5 67.5t116.5 21.5q99 0 153.5 -50.5t54.5 -141.5v-310h-90zM231 -9q-55 0 -97 20t-65 55.5t-23 82.5q0 41 17 70.5t44 45.5q25 16 57.5 22.5t69.5 6.5h157v-74h-143q-20 0 -41.5 -3.5
t-36.5 -14.5q-12 -9 -19 -22.5t-7 -31.5q0 -35 27 -56t72 -21q38 0 69.5 17.5t50.5 48t19 69.5l35 -46q-9 -52 -35 -90.5t-64.5 -58.5t-86.5 -20zM275 553q-79 0 -116.5 35.5t-37.5 108.5h64q0 -46 24 -66t66 -20q43 0 66.5 20.5t23.5 65.5h63q0 -75 -38.5 -109.5
t-114.5 -34.5zM342 729q-25 0 -40.5 6.5t-27 15t-23.5 15t-31 6.5t-28.5 -9.5t-13.5 -26.5l-54 2q4 41 28.5 64t60.5 23q25 0 42 -5.5t30 -14t25 -14t26 -5.5q15 0 24 7.5t12 23.5l56 -1q-3 -37 -24 -62t-62 -25z" />
    <glyph glyph-name="uni1EB6" unicode="&#x1eb6;" horiz-adv-x="649" 
d="M14 0l271 697h79l270 -697h-111l-198 549l-199 -549h-112zM174 155l31 91h238l34 -91h-303zM269 -174v108h111v-108h-111zM325 739q-79 0 -116.5 34.5t-37.5 97.5h70q0 -37 23.5 -55t60.5 -18q38 0 61 18.5t23 54.5h69q0 -66 -38.5 -99t-114.5 -33z" />
    <glyph glyph-name="uni1EB7" unicode="&#x1eb7;" horiz-adv-x="542" 
d="M390 0l-8 91v219q0 52 -30 80t-87 28q-40 0 -76.5 -16t-69.5 -52l-61 63q44 46 97.5 67.5t116.5 21.5q99 0 153.5 -50.5t54.5 -141.5v-310h-90zM231 -9q-55 0 -97 20t-65 55.5t-23 82.5q0 41 17 70.5t44 45.5q25 16 57.5 22.5t69.5 6.5h157v-74h-143q-20 0 -41.5 -3.5
t-36.5 -14.5q-12 -9 -19 -22.5t-7 -31.5q0 -35 27 -56t72 -21q38 0 69.5 17.5t50.5 48t19 69.5l35 -46q-9 -52 -35 -90.5t-64.5 -58.5t-86.5 -20zM219 -174v108h111v-108h-111zM275 553q-79 0 -116.5 35.5t-37.5 108.5h64q0 -46 24 -66t66 -20q43 0 66.5 20.5t23.5 65.5h63
q0 -75 -38.5 -109.5t-114.5 -34.5z" />
    <glyph glyph-name="uni1EB8" unicode="&#x1eb8;" horiz-adv-x="583" 
d="M75 0v697h461v-91h-359v-204h329v-91h-329v-220h359v-91h-461zM250 -174v108h111v-108h-111z" />
    <glyph glyph-name="uni1EB9" unicode="&#x1eb9;" horiz-adv-x="540" 
d="M280 -9q-60 0 -104 20t-73 55.5t-43.5 81t-14.5 95.5t14 96.5t42 83t70.5 58t100.5 21.5t100 -19.5t69 -54t40.5 -77.5t13.5 -91q0 -5 -0.5 -18.5t-2.5 -25.5h-349q3 -66 40.5 -101.5t99.5 -35.5q42 0 75 13.5t61 42.5l60 -62q-29 -29 -59.5 -47t-64 -26.5t-75.5 -8.5z
M398 265q2 8 2.5 16t0.5 16q0 23 -8 45t-24 39.5t-39.5 28t-54.5 10.5q-41 0 -70 -18.5t-44.5 -48.5t-18.5 -65h288zM225 -174v108h111v-108h-111z" />
    <glyph glyph-name="uni1EBA" unicode="&#x1eba;" horiz-adv-x="583" 
d="M75 0v697h461v-91h-359v-204h329v-91h-329v-220h359v-91h-461zM283 725l-7 36q25 4 48 11.5t23 30.5q0 25 -27 34t-60 9h-16v56h16q69 0 112.5 -24t43.5 -68q0 -32 -21 -49.5t-51.5 -24.5t-60.5 -11z" />
    <glyph glyph-name="uni1EBB" unicode="&#x1ebb;" horiz-adv-x="540" 
d="M280 -9q-60 0 -104 20t-73 55.5t-43.5 81t-14.5 95.5t14 96.5t42 83t70.5 58t100.5 21.5t100 -19.5t69 -54t40.5 -77.5t13.5 -91q0 -5 -0.5 -18.5t-2.5 -25.5h-349q3 -66 40.5 -101.5t99.5 -35.5q42 0 75 13.5t61 42.5l60 -62q-29 -29 -59.5 -47t-64 -26.5t-75.5 -8.5z
M398 265q2 8 2.5 16t0.5 16q0 23 -8 45t-24 39.5t-39.5 28t-54.5 10.5q-41 0 -70 -18.5t-44.5 -48.5t-18.5 -65h288zM250 521l-7 36q25 4 48 11.5t23 30.5q0 25 -27 34t-60 9h-16v56h16q69 0 112.5 -24t43.5 -68q0 -32 -21 -49.5t-51.5 -24.5t-60.5 -11z" />
    <glyph glyph-name="uni1EBC" unicode="&#x1ebc;" horiz-adv-x="583" 
d="M75 0v697h461v-91h-359v-204h329v-91h-329v-220h359v-91h-461zM370 743q-24 0 -40.5 7.5t-28 19t-21 23t-19.5 19.5t-24 8q-17 0 -27.5 -18.5t-10.5 -52.5h-58q0 60 27 93t74 33q21 0 36.5 -8t27 -20t21.5 -23.5t20.5 -19.5t23.5 -8q15 0 26 20t11 55h60
q0 -61 -26.5 -94.5t-71.5 -33.5z" />
    <glyph glyph-name="uni1EBD" unicode="&#x1ebd;" horiz-adv-x="540" 
d="M280 -9q-60 0 -104 20t-73 55.5t-43.5 81t-14.5 95.5t14 96.5t42 83t70.5 58t100.5 21.5t100 -19.5t69 -54t40.5 -77.5t13.5 -91q0 -5 -0.5 -18.5t-2.5 -25.5h-349q3 -66 40.5 -101.5t99.5 -35.5q42 0 75 13.5t61 42.5l60 -62q-29 -29 -59.5 -47t-64 -26.5t-75.5 -8.5z
M398 265q2 8 2.5 16t0.5 16q0 23 -8 45t-24 39.5t-39.5 28t-54.5 10.5q-41 0 -70 -18.5t-44.5 -48.5t-18.5 -65h288zM338 563q-30 0 -48.5 11.5t-31 26.5t-24.5 26.5t-29 11.5t-27.5 -18.5t-10.5 -52.5h-58q0 63 27 98t74 35q26 0 44 -12t31 -27t25.5 -27t28.5 -12
q15 0 26 19.5t11 54.5h60q0 -63 -26.5 -98.5t-71.5 -35.5z" />
    <glyph glyph-name="uni1EBE" unicode="&#x1ebe;" horiz-adv-x="583" 
d="M75 0v697h461v-91h-359v-204h329v-91h-329v-220h359v-91h-461zM153 743l153 139l153 -139h-80l-73 71l-73 -71h-80zM380 849l70 134h80l-90 -134h-60z" />
    <glyph glyph-name="uni1EBF" unicode="&#x1ebf;" horiz-adv-x="540" 
d="M280 -9q-60 0 -104 20t-73 55.5t-43.5 81t-14.5 95.5t14 96.5t42 83t70.5 58t100.5 21.5t100 -19.5t69 -54t40.5 -77.5t13.5 -91q0 -5 -0.5 -18.5t-2.5 -25.5h-349q3 -66 40.5 -101.5t99.5 -35.5q42 0 75 13.5t61 42.5l60 -62q-29 -29 -59.5 -47t-64 -26.5t-75.5 -8.5z
M398 265q2 8 2.5 16t0.5 16q0 23 -8 45t-24 39.5t-39.5 28t-54.5 10.5q-41 0 -70 -18.5t-44.5 -48.5t-18.5 -65h288zM120 545l153 154l153 -154h-80l-73 70l-73 -70h-80zM347 651l70 133h80l-90 -133h-60z" />
    <glyph glyph-name="uni1EC0" unicode="&#x1ec0;" horiz-adv-x="583" 
d="M75 0v697h461v-91h-359v-204h329v-91h-329v-220h359v-91h-461zM153 743l153 139l153 -139h-80l-73 71l-72 -71h-81zM425 849l-90 134h81l69 -134h-60z" />
    <glyph glyph-name="uni1EC1" unicode="&#x1ec1;" horiz-adv-x="540" 
d="M280 -9q-60 0 -104 20t-73 55.5t-43.5 81t-14.5 95.5t14 96.5t42 83t70.5 58t100.5 21.5t100 -19.5t69 -54t40.5 -77.5t13.5 -91q0 -5 -0.5 -18.5t-2.5 -25.5h-349q3 -66 40.5 -101.5t99.5 -35.5q42 0 75 13.5t61 42.5l60 -62q-29 -29 -59.5 -47t-64 -26.5t-75.5 -8.5z
M398 265q2 8 2.5 16t0.5 16q0 23 -8 45t-24 39.5t-39.5 28t-54.5 10.5q-41 0 -70 -18.5t-44.5 -48.5t-18.5 -65h288zM120 545l153 154l153 -154h-80l-73 70l-72 -70h-81zM392 651l-90 133h81l69 -133h-60z" />
    <glyph glyph-name="uni1EC2" unicode="&#x1ec2;" horiz-adv-x="583" 
d="M75 0v697h461v-91h-359v-204h329v-91h-329v-220h359v-91h-461zM153 743l153 143l153 -143h-80l-73 73l-72 -73h-81zM410 820l-10 36q29 5 44.5 14t15.5 27q0 17 -11 25.5t-28.5 12.5t-37.5 4h-15v52h15q65 0 99.5 -23t34.5 -64q0 -31 -15 -47.5t-39.5 -24t-52.5 -12.5z
" />
    <glyph glyph-name="uni1EC3" unicode="&#x1ec3;" horiz-adv-x="540" 
d="M280 -9q-60 0 -104 20t-73 55.5t-43.5 81t-14.5 95.5t14 96.5t42 83t70.5 58t100.5 21.5t100 -19.5t69 -54t40.5 -77.5t13.5 -91q0 -5 -0.5 -18.5t-2.5 -25.5h-349q3 -66 40.5 -101.5t99.5 -35.5q42 0 75 13.5t61 42.5l60 -62q-29 -29 -59.5 -47t-64 -26.5t-75.5 -8.5z
M398 265q2 8 2.5 16t0.5 16q0 23 -8 45t-24 39.5t-39.5 28t-54.5 10.5q-41 0 -70 -18.5t-44.5 -48.5t-18.5 -65h288zM120 545l153 154l153 -154h-80l-73 70l-72 -70h-81zM367 634l-10 36q26 4 43 12.5t17 28.5q0 24 -24 32.5t-53 8.5h-15v53h15q64 0 99 -23t35 -66
q0 -30 -15 -46t-39.5 -24t-52.5 -12z" />
    <glyph glyph-name="uni1EC4" unicode="&#x1ec4;" horiz-adv-x="583" 
d="M75 0v697h461v-91h-359v-204h329v-91h-329v-220h359v-91h-461zM152 743l153 139l153 -139h-79l-74 71l-73 -71h-80zM365 895q-24 0 -41.5 6.5t-30 15t-24.5 15t-25 6.5q-17 0 -25 -10t-11 -26l-55 2q4 40 28 64t63 24q24 0 41 -6t30 -14t24.5 -14t25.5 -6q15 0 23.5 7
t11.5 24l57 -1q-3 -39 -25.5 -63t-66.5 -24z" />
    <glyph glyph-name="uni1EC5" unicode="&#x1ec5;" horiz-adv-x="540" 
d="M280 -9q-60 0 -104 20t-73 55.5t-43.5 81t-14.5 95.5t14 96.5t42 83t70.5 58t100.5 21.5t100 -19.5t69 -54t40.5 -77.5t13.5 -91q0 -5 -0.5 -18.5t-2.5 -25.5h-349q3 -66 40.5 -101.5t99.5 -35.5q42 0 75 13.5t61 42.5l60 -62q-29 -29 -59.5 -47t-64 -26.5t-75.5 -8.5z
M398 265q2 8 2.5 16t0.5 16q0 23 -8 45t-24 39.5t-39.5 28t-54.5 10.5q-41 0 -70 -18.5t-44.5 -48.5t-18.5 -65h288zM120 545l153 154l153 -154h-79l-74 74l-73 -74h-80zM340 704q-25 0 -41 6.5t-27 15t-23.5 15t-30.5 6.5q-21 0 -30.5 -10.5t-11.5 -25.5l-55 2
q3 39 27 63.5t64 24.5q24 0 41 -6t30 -14t24.5 -14t25.5 -6q15 0 23.5 7t11.5 24l57 -1q-3 -39 -24.5 -63t-60.5 -24z" />
    <glyph glyph-name="uni1EC6" unicode="&#x1ec6;" horiz-adv-x="583" 
d="M75 0v697h461v-91h-359v-204h329v-91h-329v-220h359v-91h-461zM250 -174v108h111v-108h-111zM153 749l153 166l153 -166h-79l-74 82l-73 -82h-80z" />
    <glyph glyph-name="uni1EC7" unicode="&#x1ec7;" horiz-adv-x="540" 
d="M280 -9q-60 0 -104 20t-73 55.5t-43.5 81t-14.5 95.5t14 96.5t42 83t70.5 58t100.5 21.5t100 -19.5t69 -54t40.5 -77.5t13.5 -91q0 -5 -0.5 -18.5t-2.5 -25.5h-349q3 -66 40.5 -101.5t99.5 -35.5q42 0 75 13.5t61 42.5l60 -62q-29 -29 -59.5 -47t-64 -26.5t-75.5 -8.5z
M398 265q2 8 2.5 16t0.5 16q0 23 -8 45t-24 39.5t-39.5 28t-54.5 10.5q-41 0 -70 -18.5t-44.5 -48.5t-18.5 -65h288zM225 -174v108h111v-108h-111zM120 545l153 166l153 -166h-79l-74 82l-73 -82h-80z" />
    <glyph glyph-name="uni1EC8" unicode="&#x1ec8;" horiz-adv-x="252" 
d="M75 0v697h102v-697h-102zM104 725l-7 36q25 4 48 11.5t23 30.5q0 25 -27 34t-60 9h-16v56h16q69 0 112.5 -24t43.5 -68q0 -32 -21 -49.5t-51.5 -24.5t-60.5 -11z" />
    <glyph glyph-name="uni1EC9" unicode="&#x1ec9;" horiz-adv-x="232" 
d="M67 0v493h98v-493h-98zM93 521l-7 36q25 4 48 11.5t23 30.5q0 25 -27 34t-60 9h-16v56h16q69 0 112.5 -24t43.5 -68q0 -32 -21 -49.5t-51.5 -24.5t-60.5 -11z" />
    <glyph glyph-name="uni1ECA" unicode="&#x1eca;" horiz-adv-x="252" 
d="M75 0v697h102v-697h-102zM71 -174v108h111v-108h-111z" />
    <glyph glyph-name="uni1ECB" unicode="&#x1ecb;" horiz-adv-x="232" 
d="M67 0v493h98v-493h-98zM60 578v119h111v-119h-111zM60 -174v108h111v-108h-111z" />
    <glyph glyph-name="uni1ECC" unicode="&#x1ecc;" horiz-adv-x="748" 
d="M372 -13q-97 0 -170.5 45t-114.5 126.5t-41 189.5q0 109 41 190.5t114.5 126.5t170.5 45q99 0 173 -45t115 -126.5t41 -190.5q0 -108 -41.5 -189.5t-115.5 -126.5t-172 -45zM372 84q70 0 120 32.5t78 92t28 139.5q0 81 -28 140.5t-78 92t-120 32.5q-68 0 -118.5 -32
t-78 -91.5t-27.5 -141.5q0 -81 27.5 -140.5t78 -91.5t118.5 -32zM317 -174v108h111v-108h-111z" />
    <glyph glyph-name="uni1ECD" unicode="&#x1ecd;" horiz-adv-x="575" 
d="M288 -9q-70 0 -125 33t-86.5 91t-31.5 132t31 131.5t86.5 90.5t125.5 33q71 0 125 -33t85.5 -90.5t31.5 -131.5t-31.5 -131.5t-86 -91t-124.5 -33.5zM288 78q44 0 76.5 21t50 59t17.5 89q0 52 -17.5 90t-50 58.5t-76.5 20.5q-45 0 -77.5 -21t-50 -58.5t-17.5 -89.5
q0 -51 17.5 -89t50 -59t77.5 -21zM232 -174v108h111v-108h-111z" />
    <glyph glyph-name="uni1ECE" unicode="&#x1ece;" horiz-adv-x="748" 
d="M372 -13q-97 0 -170.5 45t-114.5 126.5t-41 189.5q0 109 41 190.5t114.5 126.5t170.5 45q99 0 173 -45t115 -126.5t41 -190.5q0 -108 -41.5 -189.5t-115.5 -126.5t-172 -45zM372 84q70 0 120 32.5t78 92t28 139.5q0 81 -28 140.5t-78 92t-120 32.5q-68 0 -118.5 -32
t-78 -91.5t-27.5 -141.5q0 -81 27.5 -140.5t78 -91.5t118.5 -32zM350 725l-7 36q25 4 48 11.5t23 30.5q0 25 -27 34t-60 9h-16v56h16q69 0 112.5 -24t43.5 -68q0 -32 -21 -49.5t-51.5 -24.5t-60.5 -11z" />
    <glyph glyph-name="uni1ECF" unicode="&#x1ecf;" horiz-adv-x="575" 
d="M288 -9q-70 0 -125 33t-86.5 91t-31.5 132t31 131.5t86.5 90.5t125.5 33q71 0 125 -33t85.5 -90.5t31.5 -131.5t-31.5 -131.5t-86 -91t-124.5 -33.5zM288 78q44 0 76.5 21t50 59t17.5 89q0 52 -17.5 90t-50 58.5t-76.5 20.5q-45 0 -77.5 -21t-50 -58.5t-17.5 -89.5
q0 -51 17.5 -89t50 -59t77.5 -21zM265 521l-7 36q25 4 48 11.5t23 30.5q0 25 -27 34t-60 9h-16v56h16q69 0 112.5 -24t43.5 -68q0 -32 -21 -49.5t-51.5 -24.5t-60.5 -11z" />
    <glyph glyph-name="uni1ED0" unicode="&#x1ed0;" horiz-adv-x="748" 
d="M372 -13q-97 0 -170.5 45t-114.5 126.5t-41 189.5q0 109 41 190.5t114.5 126.5t170.5 45q99 0 173 -45t115 -126.5t41 -190.5q0 -108 -41.5 -189.5t-115.5 -126.5t-172 -45zM372 84q70 0 120 32.5t78 92t28 139.5q0 81 -28 140.5t-78 92t-120 32.5q-68 0 -118.5 -32
t-78 -91.5t-27.5 -141.5q0 -81 27.5 -140.5t78 -91.5t118.5 -32zM220 743l153 139l153 -139h-80l-73 71l-73 -71h-80zM447 849l70 134h80l-90 -134h-60z" />
    <glyph glyph-name="uni1ED1" unicode="&#x1ed1;" horiz-adv-x="575" 
d="M288 -9q-70 0 -125 33t-86.5 91t-31.5 132t31 131.5t86.5 90.5t125.5 33q71 0 125 -33t85.5 -90.5t31.5 -131.5t-31.5 -131.5t-86 -91t-124.5 -33.5zM288 78q44 0 76.5 21t50 59t17.5 89q0 52 -17.5 90t-50 58.5t-76.5 20.5q-45 0 -77.5 -21t-50 -58.5t-17.5 -89.5
q0 -51 17.5 -89t50 -59t77.5 -21zM135 545l153 154l153 -154h-80l-73 70l-73 -70h-80zM362 651l70 133h80l-90 -133h-60z" />
    <glyph glyph-name="uni1ED2" unicode="&#x1ed2;" horiz-adv-x="748" 
d="M372 -13q-97 0 -170.5 45t-114.5 126.5t-41 189.5q0 109 41 190.5t114.5 126.5t170.5 45q99 0 173 -45t115 -126.5t41 -190.5q0 -108 -41.5 -189.5t-115.5 -126.5t-172 -45zM372 84q70 0 120 32.5t78 92t28 139.5q0 81 -28 140.5t-78 92t-120 32.5q-68 0 -118.5 -32
t-78 -91.5t-27.5 -141.5q0 -81 27.5 -140.5t78 -91.5t118.5 -32zM220 743l153 139l153 -139h-80l-73 71l-72 -71h-81zM492 849l-90 134h81l69 -134h-60z" />
    <glyph glyph-name="uni1ED3" unicode="&#x1ed3;" horiz-adv-x="575" 
d="M288 -9q-70 0 -125 33t-86.5 91t-31.5 132t31 131.5t86.5 90.5t125.5 33q71 0 125 -33t85.5 -90.5t31.5 -131.5t-31.5 -131.5t-86 -91t-124.5 -33.5zM288 78q44 0 76.5 21t50 59t17.5 89q0 52 -17.5 90t-50 58.5t-76.5 20.5q-45 0 -77.5 -21t-50 -58.5t-17.5 -89.5
q0 -51 17.5 -89t50 -59t77.5 -21zM135 545l153 154l153 -154h-80l-73 70l-72 -70h-81zM407 651l-90 133h81l69 -133h-60z" />
    <glyph glyph-name="uni1ED4" unicode="&#x1ed4;" horiz-adv-x="748" 
d="M372 -13q-97 0 -170.5 45t-114.5 126.5t-41 189.5q0 109 41 190.5t114.5 126.5t170.5 45q99 0 173 -45t115 -126.5t41 -190.5q0 -108 -41.5 -189.5t-115.5 -126.5t-172 -45zM372 84q70 0 120 32.5t78 92t28 139.5q0 81 -28 140.5t-78 92t-120 32.5q-68 0 -118.5 -32
t-78 -91.5t-27.5 -141.5q0 -81 27.5 -140.5t78 -91.5t118.5 -32zM220 743l153 143l153 -143h-80l-73 73l-72 -73h-81zM477 820l-10 36q29 5 44.5 14t15.5 27q0 17 -11 25.5t-28.5 12.5t-37.5 4h-15v52h15q65 0 99.5 -23t34.5 -64q0 -31 -15 -47.5t-39.5 -24t-52.5 -12.5z
" />
    <glyph glyph-name="uni1ED5" unicode="&#x1ed5;" horiz-adv-x="575" 
d="M288 -9q-70 0 -125 33t-86.5 91t-31.5 132t31 131.5t86.5 90.5t125.5 33q71 0 125 -33t85.5 -90.5t31.5 -131.5t-31.5 -131.5t-86 -91t-124.5 -33.5zM288 78q44 0 76.5 21t50 59t17.5 89q0 52 -17.5 90t-50 58.5t-76.5 20.5q-45 0 -77.5 -21t-50 -58.5t-17.5 -89.5
q0 -51 17.5 -89t50 -59t77.5 -21zM135 545l153 154l153 -154h-80l-73 70l-72 -70h-81zM382 634l-10 36q26 4 43 12.5t17 28.5q0 24 -24 32.5t-53 8.5h-15v53h15q64 0 99 -23t35 -66q0 -30 -15 -46t-39.5 -24t-52.5 -12z" />
    <glyph glyph-name="uni1ED6" unicode="&#x1ed6;" horiz-adv-x="748" 
d="M372 -13q-97 0 -170.5 45t-114.5 126.5t-41 189.5q0 109 41 190.5t114.5 126.5t170.5 45q99 0 173 -45t115 -126.5t41 -190.5q0 -108 -41.5 -189.5t-115.5 -126.5t-172 -45zM372 84q70 0 120 32.5t78 92t28 139.5q0 81 -28 140.5t-78 92t-120 32.5q-68 0 -118.5 -32
t-78 -91.5t-27.5 -141.5q0 -81 27.5 -140.5t78 -91.5t118.5 -32zM220 743l153 139l153 -139h-79l-74 71l-73 -71h-80zM433 895q-24 0 -41.5 6.5t-30 15t-24.5 15t-25 6.5q-17 0 -25 -10t-11 -26l-55 2q4 40 28 64t63 24q24 0 41 -6t30 -14t24.5 -14t25.5 -6q15 0 23.5 7
t11.5 24l57 -1q-3 -39 -25.5 -63t-66.5 -24z" />
    <glyph glyph-name="uni1ED7" unicode="&#x1ed7;" horiz-adv-x="575" 
d="M288 -9q-70 0 -125 33t-86.5 91t-31.5 132t31 131.5t86.5 90.5t125.5 33q71 0 125 -33t85.5 -90.5t31.5 -131.5t-31.5 -131.5t-86 -91t-124.5 -33.5zM288 78q44 0 76.5 21t50 59t17.5 89q0 52 -17.5 90t-50 58.5t-76.5 20.5q-45 0 -77.5 -21t-50 -58.5t-17.5 -89.5
q0 -51 17.5 -89t50 -59t77.5 -21zM135 545l153 154l153 -154h-79l-74 74l-73 -74h-80zM355 704q-25 0 -41 6.5t-27 15t-23.5 15t-30.5 6.5q-21 0 -30.5 -10.5t-11.5 -25.5l-55 2q3 39 27 63.5t64 24.5q24 0 41 -6t30 -14t24.5 -14t25.5 -6q15 0 23.5 7t11.5 24l57 -1
q-3 -39 -24.5 -63t-60.5 -24z" />
    <glyph glyph-name="uni1ED8" unicode="&#x1ed8;" horiz-adv-x="748" 
d="M372 -13q-97 0 -170.5 45t-114.5 126.5t-41 189.5q0 109 41 190.5t114.5 126.5t170.5 45q99 0 173 -45t115 -126.5t41 -190.5q0 -108 -41.5 -189.5t-115.5 -126.5t-172 -45zM372 84q70 0 120 32.5t78 92t28 139.5q0 81 -28 140.5t-78 92t-120 32.5q-68 0 -118.5 -32
t-78 -91.5t-27.5 -141.5q0 -81 27.5 -140.5t78 -91.5t118.5 -32zM317 -174v108h111v-108h-111zM220 749l153 166l153 -166h-80l-73 82l-72 -82h-81z" />
    <glyph glyph-name="uni1ED9" unicode="&#x1ed9;" horiz-adv-x="575" 
d="M288 -9q-70 0 -125 33t-86.5 91t-31.5 132t31 131.5t86.5 90.5t125.5 33q71 0 125 -33t85.5 -90.5t31.5 -131.5t-31.5 -131.5t-86 -91t-124.5 -33.5zM288 78q44 0 76.5 21t50 59t17.5 89q0 52 -17.5 90t-50 58.5t-76.5 20.5q-45 0 -77.5 -21t-50 -58.5t-17.5 -89.5
q0 -51 17.5 -89t50 -59t77.5 -21zM232 -174v108h111v-108h-111zM135 545l153 166l153 -166h-79l-74 82l-73 -82h-80z" />
    <glyph glyph-name="uni1EDA" unicode="&#x1eda;" horiz-adv-x="748" 
d="M372 -13q-97 0 -170.5 45t-114.5 126.5t-41 189.5q0 109 41 190.5t114.5 126.5t170.5 45q99 0 173 -45t115 -126.5t41 -190.5q0 -108 -41.5 -189.5t-115.5 -126.5t-172 -45zM372 84q70 0 120 32.5t78 92t28 139.5q0 81 -28 140.5t-78 92t-120 32.5q-68 0 -118.5 -32
t-78 -91.5t-27.5 -141.5q0 -81 27.5 -140.5t78 -91.5t118.5 -32zM587 495v64q44 0 62 26t18 75v37h69v-43q0 -45 -15.5 -81t-48 -57t-85.5 -21zM336 760l110 141h105l-142 -141h-73z" />
    <glyph glyph-name="uni1EDB" unicode="&#x1edb;" horiz-adv-x="575" 
d="M288 -9q-70 0 -125 33t-86.5 91t-31.5 132t31 131.5t86.5 90.5t125.5 33q71 0 125 -33t85.5 -90.5t31.5 -131.5t-31.5 -131.5t-86 -91t-124.5 -33.5zM288 78q44 0 76.5 21t50 59t17.5 89q0 52 -17.5 90t-50 58.5t-76.5 20.5q-45 0 -77.5 -21t-50 -58.5t-17.5 -89.5
q0 -51 17.5 -89t50 -59t77.5 -21zM439 353v64q44 0 62 26t18 75v37h69v-43q0 -45 -15.5 -81t-48 -57t-85.5 -21zM251 556l110 141h105l-142 -141h-73z" />
    <glyph glyph-name="uni1EDC" unicode="&#x1edc;" horiz-adv-x="748" 
d="M372 -13q-97 0 -170.5 45t-114.5 126.5t-41 189.5q0 109 41 190.5t114.5 126.5t170.5 45q99 0 173 -45t115 -126.5t41 -190.5q0 -108 -41.5 -189.5t-115.5 -126.5t-172 -45zM372 84q70 0 120 32.5t78 92t28 139.5q0 81 -28 140.5t-78 92t-120 32.5q-68 0 -118.5 -32
t-78 -91.5t-27.5 -141.5q0 -81 27.5 -140.5t78 -91.5t118.5 -32zM587 495v64q44 0 62 26t18 75v37h69v-43q0 -45 -15.5 -81t-48 -57t-85.5 -21zM336 760l-135 141h104l104 -141h-73z" />
    <glyph glyph-name="uni1EDD" unicode="&#x1edd;" horiz-adv-x="575" 
d="M288 -9q-70 0 -125 33t-86.5 91t-31.5 132t31 131.5t86.5 90.5t125.5 33q71 0 125 -33t85.5 -90.5t31.5 -131.5t-31.5 -131.5t-86 -91t-124.5 -33.5zM288 78q44 0 76.5 21t50 59t17.5 89q0 52 -17.5 90t-50 58.5t-76.5 20.5q-45 0 -77.5 -21t-50 -58.5t-17.5 -89.5
q0 -51 17.5 -89t50 -59t77.5 -21zM439 353v64q44 0 62 26t18 75v37h69v-43q0 -45 -15.5 -81t-48 -57t-85.5 -21zM251 556l-135 141h104l104 -141h-73z" />
    <glyph glyph-name="uni1EDE" unicode="&#x1ede;" horiz-adv-x="748" 
d="M372 -13q-97 0 -170.5 45t-114.5 126.5t-41 189.5q0 109 41 190.5t114.5 126.5t170.5 45q99 0 173 -45t115 -126.5t41 -190.5q0 -108 -41.5 -189.5t-115.5 -126.5t-172 -45zM372 84q70 0 120 32.5t78 92t28 139.5q0 81 -28 140.5t-78 92t-120 32.5q-68 0 -118.5 -32
t-78 -91.5t-27.5 -141.5q0 -81 27.5 -140.5t78 -91.5t118.5 -32zM587 495v64q44 0 62 26t18 75v37h69v-43q0 -45 -15.5 -81t-48 -57t-85.5 -21zM350 725l-7 36q25 4 48 11.5t23 30.5q0 25 -27 34t-60 9h-16v56h16q69 0 112.5 -24t43.5 -68q0 -32 -21 -49.5t-51.5 -24.5
t-60.5 -11z" />
    <glyph glyph-name="uni1EDF" unicode="&#x1edf;" horiz-adv-x="575" 
d="M288 -9q-70 0 -125 33t-86.5 91t-31.5 132t31 131.5t86.5 90.5t125.5 33q71 0 125 -33t85.5 -90.5t31.5 -131.5t-31.5 -131.5t-86 -91t-124.5 -33.5zM288 78q44 0 76.5 21t50 59t17.5 89q0 52 -17.5 90t-50 58.5t-76.5 20.5q-45 0 -77.5 -21t-50 -58.5t-17.5 -89.5
q0 -51 17.5 -89t50 -59t77.5 -21zM439 353v64q44 0 62 26t18 75v37h69v-43q0 -45 -15.5 -81t-48 -57t-85.5 -21zM265 521l-7 36q25 4 48 11.5t23 30.5q0 25 -27 34t-60 9h-16v56h16q69 0 112.5 -24t43.5 -68q0 -32 -21 -49.5t-51.5 -24.5t-60.5 -11z" />
    <glyph glyph-name="uni1EE0" unicode="&#x1ee0;" horiz-adv-x="748" 
d="M372 -13q-97 0 -170.5 45t-114.5 126.5t-41 189.5q0 109 41 190.5t114.5 126.5t170.5 45q99 0 173 -45t115 -126.5t41 -190.5q0 -108 -41.5 -189.5t-115.5 -126.5t-172 -45zM372 84q70 0 120 32.5t78 92t28 139.5q0 81 -28 140.5t-78 92t-120 32.5q-68 0 -118.5 -32
t-78 -91.5t-27.5 -141.5q0 -81 27.5 -140.5t78 -91.5t118.5 -32zM587 495v64q44 0 62 26t18 75v37h69v-43q0 -45 -15.5 -81t-48 -57t-85.5 -21zM438 743q-24 0 -40.5 7.5t-28 19t-21 23t-19.5 19.5t-24 8q-17 0 -27.5 -18.5t-10.5 -52.5h-58q0 60 27 93t74 33q21 0 36.5 -8
t27 -20t21.5 -23.5t20.5 -19.5t23.5 -8q15 0 26 20t11 55h60q0 -61 -26.5 -94.5t-71.5 -33.5z" />
    <glyph glyph-name="uni1EE1" unicode="&#x1ee1;" horiz-adv-x="575" 
d="M288 -9q-70 0 -125 33t-86.5 91t-31.5 132t31 131.5t86.5 90.5t125.5 33q71 0 125 -33t85.5 -90.5t31.5 -131.5t-31.5 -131.5t-86 -91t-124.5 -33.5zM288 78q44 0 76.5 21t50 59t17.5 89q0 52 -17.5 90t-50 58.5t-76.5 20.5q-45 0 -77.5 -21t-50 -58.5t-17.5 -89.5
q0 -51 17.5 -89t50 -59t77.5 -21zM439 353v64q44 0 62 26t18 75v37h69v-43q0 -45 -15.5 -81t-48 -57t-85.5 -21zM353 563q-30 0 -48.5 11.5t-31 26.5t-24.5 26.5t-29 11.5t-27.5 -18.5t-10.5 -52.5h-58q0 63 27 98t74 35q26 0 44 -12t31 -27t25.5 -27t28.5 -12q15 0 26 19.5
t11 54.5h60q0 -63 -26.5 -98.5t-71.5 -35.5z" />
    <glyph glyph-name="uni1EE2" unicode="&#x1ee2;" horiz-adv-x="748" 
d="M372 -13q-97 0 -170.5 45t-114.5 126.5t-41 189.5q0 109 41 190.5t114.5 126.5t170.5 45q99 0 173 -45t115 -126.5t41 -190.5q0 -108 -41.5 -189.5t-115.5 -126.5t-172 -45zM372 84q70 0 120 32.5t78 92t28 139.5q0 81 -28 140.5t-78 92t-120 32.5q-68 0 -118.5 -32
t-78 -91.5t-27.5 -141.5q0 -81 27.5 -140.5t78 -91.5t118.5 -32zM587 495v64q44 0 62 26t18 75v37h69v-43q0 -45 -15.5 -81t-48 -57t-85.5 -21zM317 -174v108h111v-108h-111z" />
    <glyph glyph-name="uni1EE3" unicode="&#x1ee3;" horiz-adv-x="575" 
d="M288 -9q-70 0 -125 33t-86.5 91t-31.5 132t31 131.5t86.5 90.5t125.5 33q71 0 125 -33t85.5 -90.5t31.5 -131.5t-31.5 -131.5t-86 -91t-124.5 -33.5zM288 78q44 0 76.5 21t50 59t17.5 89q0 52 -17.5 90t-50 58.5t-76.5 20.5q-45 0 -77.5 -21t-50 -58.5t-17.5 -89.5
q0 -51 17.5 -89t50 -59t77.5 -21zM439 353v64q44 0 62 26t18 75v37h69v-43q0 -45 -15.5 -81t-48 -57t-85.5 -21zM232 -174v108h111v-108h-111z" />
    <glyph glyph-name="uni1EE4" unicode="&#x1ee4;" horiz-adv-x="656" 
d="M327 -13q-126 0 -192.5 67t-66.5 198v445h102v-433q0 -60 15 -101t49.5 -62t92.5 -21t93.5 21.5t50.5 62t15 100.5v433h101v-440q0 -133 -66 -201.5t-194 -68.5zM273 -174v108h111v-108h-111z" />
    <glyph glyph-name="uni1EE5" unicode="&#x1ee5;" horiz-adv-x="553" 
d="M237 -9q-55 0 -94.5 22.5t-60 65t-20.5 103.5v311h98v-280q0 -44 11 -74.5t34.5 -46t59.5 -15.5q42 0 68.5 21t39.5 62.5t13 103.5v229h97v-493h-97v106l20 -4q-22 -55 -67 -83t-102 -28zM222 -174v108h111v-108h-111z" />
    <glyph glyph-name="uni1EE6" unicode="&#x1ee6;" horiz-adv-x="656" 
d="M327 -13q-126 0 -192.5 67t-66.5 198v445h102v-433q0 -60 15 -101t49.5 -62t92.5 -21t93.5 21.5t50.5 62t15 100.5v433h101v-440q0 -133 -66 -201.5t-194 -68.5zM305 725l-7 36q25 4 48 11.5t23 30.5q0 25 -27 34t-60 9h-16v56h16q69 0 112.5 -24t43.5 -68
q0 -32 -21 -49.5t-51.5 -24.5t-60.5 -11z" />
    <glyph glyph-name="uni1EE7" unicode="&#x1ee7;" horiz-adv-x="553" 
d="M237 -9q-55 0 -94.5 22.5t-60 65t-20.5 103.5v311h98v-280q0 -44 11 -74.5t34.5 -46t59.5 -15.5q42 0 68.5 21t39.5 62.5t13 103.5v229h97v-493h-97v106l20 -4q-22 -55 -67 -83t-102 -28zM249 521l-7 36q25 4 48 11.5t23 30.5q0 25 -27 34t-60 9h-16v56h16
q69 0 112.5 -24t43.5 -68q0 -32 -21 -49.5t-51.5 -24.5t-60.5 -11z" />
    <glyph glyph-name="uni1EE8" unicode="&#x1ee8;" horiz-adv-x="751" 
d="M327 -13q-126 0 -192.5 67t-66.5 198v445h102v-433q0 -60 15 -101t49.5 -62t92.5 -21t93.5 21.5t50.5 62t15 100.5v433h101v-440q0 -133 -66 -201.5t-194 -68.5zM571 495v64q44 0 62 26t18 75v37h69v-43q0 -45 -15.5 -81t-48 -57t-85.5 -21zM291 760l110 141h105
l-142 -141h-73z" />
    <glyph glyph-name="uni1EE9" unicode="&#x1ee9;" horiz-adv-x="553" 
d="M237 -9q-55 0 -94.5 22.5t-60 65t-20.5 103.5v311h98v-280q0 -44 11 -74.5t34.5 -46t59.5 -15.5q42 0 68.5 21t39.5 62.5t13 103.5v229h97v-493h-97v106l20 -4q-22 -55 -67 -83t-102 -28zM417 428v64q44 0 62 26t18 75v37h69v-43q0 -45 -15.5 -81t-48 -57t-85.5 -21z
M235 556l110 141h105l-142 -141h-73z" />
    <glyph glyph-name="uni1EEA" unicode="&#x1eea;" horiz-adv-x="751" 
d="M327 -13q-126 0 -192.5 67t-66.5 198v445h102v-433q0 -60 15 -101t49.5 -62t92.5 -21t93.5 21.5t50.5 62t15 100.5v433h101v-440q0 -133 -66 -201.5t-194 -68.5zM571 495v64q44 0 62 26t18 75v37h69v-43q0 -45 -15.5 -81t-48 -57t-85.5 -21zM292 760l-135 141h104
l104 -141h-73z" />
    <glyph glyph-name="uni1EEB" unicode="&#x1eeb;" horiz-adv-x="553" 
d="M237 -9q-55 0 -94.5 22.5t-60 65t-20.5 103.5v311h98v-280q0 -44 11 -74.5t34.5 -46t59.5 -15.5q42 0 68.5 21t39.5 62.5t13 103.5v229h97v-493h-97v106l20 -4q-22 -55 -67 -83t-102 -28zM417 428v64q44 0 62 26t18 75v37h69v-43q0 -45 -15.5 -81t-48 -57t-85.5 -21z
M235 556l-135 141h104l104 -141h-73z" />
    <glyph glyph-name="uni1EEC" unicode="&#x1eec;" horiz-adv-x="751" 
d="M327 -13q-126 0 -192.5 67t-66.5 198v445h102v-433q0 -60 15 -101t49.5 -62t92.5 -21t93.5 21.5t50.5 62t15 100.5v433h101v-440q0 -133 -66 -201.5t-194 -68.5zM571 495v64q44 0 62 26t18 75v37h69v-43q0 -45 -15.5 -81t-48 -57t-85.5 -21zM305 725l-7 36q25 4 48 11.5
t23 30.5q0 25 -27 34t-60 9h-16v56h16q69 0 112.5 -24t43.5 -68q0 -32 -21 -49.5t-51.5 -24.5t-60.5 -11z" />
    <glyph glyph-name="uni1EED" unicode="&#x1eed;" horiz-adv-x="553" 
d="M237 -9q-55 0 -94.5 22.5t-60 65t-20.5 103.5v311h98v-280q0 -44 11 -74.5t34.5 -46t59.5 -15.5q42 0 68.5 21t39.5 62.5t13 103.5v229h97v-493h-97v106l20 -4q-22 -55 -67 -83t-102 -28zM417 428v64q44 0 62 26t18 75v37h69v-43q0 -45 -15.5 -81t-48 -57t-85.5 -21z
M249 521l-7 36q25 4 48 11.5t23 30.5q0 25 -27 34t-60 9h-16v56h16q69 0 112.5 -24t43.5 -68q0 -32 -21 -49.5t-51.5 -24.5t-60.5 -11z" />
    <glyph glyph-name="uni1EEE" unicode="&#x1eee;" horiz-adv-x="751" 
d="M327 -13q-126 0 -192.5 67t-66.5 198v445h102v-433q0 -60 15 -101t49.5 -62t92.5 -21t93.5 21.5t50.5 62t15 100.5v433h101v-440q0 -133 -66 -201.5t-194 -68.5zM571 495v64q44 0 62 26t18 75v37h69v-43q0 -45 -15.5 -81t-48 -57t-85.5 -21zM393 743q-24 0 -40.5 7.5
t-28 19t-21 23t-19.5 19.5t-24 8q-17 0 -27.5 -18.5t-10.5 -52.5h-58q0 60 27 93t74 33q21 0 36.5 -8t27 -20t21.5 -23.5t20.5 -19.5t23.5 -8q15 0 26 20t11 55h60q0 -61 -26.5 -94.5t-71.5 -33.5z" />
    <glyph glyph-name="uni1EEF" unicode="&#x1eef;" horiz-adv-x="553" 
d="M237 -9q-55 0 -94.5 22.5t-60 65t-20.5 103.5v311h98v-280q0 -44 11 -74.5t34.5 -46t59.5 -15.5q42 0 68.5 21t39.5 62.5t13 103.5v229h97v-493h-97v106l20 -4q-22 -55 -67 -83t-102 -28zM417 428v64q44 0 62 26t18 75v37h69v-43q0 -45 -15.5 -81t-48 -57t-85.5 -21z
M337 563q-30 0 -48.5 11.5t-31 26.5t-24.5 26.5t-29 11.5t-27.5 -18.5t-10.5 -52.5h-58q0 63 27 98t74 35q26 0 44 -12t31 -27t25.5 -27t28.5 -12q15 0 26 19.5t11 54.5h60q0 -63 -26.5 -98.5t-71.5 -35.5z" />
    <glyph glyph-name="uni1EF0" unicode="&#x1ef0;" horiz-adv-x="751" 
d="M327 -13q-126 0 -192.5 67t-66.5 198v445h102v-433q0 -60 15 -101t49.5 -62t92.5 -21t93.5 21.5t50.5 62t15 100.5v433h101v-440q0 -133 -66 -201.5t-194 -68.5zM571 495v64q44 0 62 26t18 75v37h69v-43q0 -45 -15.5 -81t-48 -57t-85.5 -21zM273 -174v108h111v-108h-111z
" />
    <glyph glyph-name="uni1EF1" unicode="&#x1ef1;" horiz-adv-x="553" 
d="M237 -9q-55 0 -94.5 22.5t-60 65t-20.5 103.5v311h98v-280q0 -44 11 -74.5t34.5 -46t59.5 -15.5q42 0 68.5 21t39.5 62.5t13 103.5v229h97v-493h-97v106l20 -4q-22 -55 -67 -83t-102 -28zM417 428v64q44 0 62 26t18 75v37h69v-43q0 -45 -15.5 -81t-48 -57t-85.5 -21z
M222 -174v108h111v-108h-111z" />
    <glyph glyph-name="Ygrave" unicode="&#x1ef2;" horiz-adv-x="610" 
d="M255 0v270l-246 427h116l178 -325l182 325h115l-243 -427v-270h-102zM269 760l-135 141h104l104 -141h-73z" />
    <glyph glyph-name="ygrave" unicode="&#x1ef3;" horiz-adv-x="526" 
d="M114 -203l96 232l-190 464h108l134 -366l136 366h106l-283 -696h-107zM227 556l-135 141h104l104 -141h-73z" />
    <glyph glyph-name="uni1EF4" unicode="&#x1ef4;" horiz-adv-x="610" 
d="M255 0v270l-246 427h116l178 -325l182 325h115l-243 -427v-270h-102zM250 -174v108h111v-108h-111z" />
    <glyph glyph-name="uni1EF5" unicode="&#x1ef5;" horiz-adv-x="526" 
d="M114 -203l96 232l-190 464h108l134 -366l136 366h106l-283 -696h-107zM366 -204v108h111v-108h-111z" />
    <glyph glyph-name="uni1EF6" unicode="&#x1ef6;" horiz-adv-x="610" 
d="M255 0v270l-246 427h116l178 -325l182 325h115l-243 -427v-270h-102zM283 725l-7 36q25 4 48 11.5t23 30.5q0 25 -27 34t-60 9h-16v56h16q69 0 112.5 -24t43.5 -68q0 -32 -21 -49.5t-51.5 -24.5t-60.5 -11z" />
    <glyph glyph-name="uni1EF7" unicode="&#x1ef7;" horiz-adv-x="526" 
d="M114 -203l96 232l-190 464h108l134 -366l136 366h106l-283 -696h-107zM240 521l-7 36q25 4 48 11.5t23 30.5q0 25 -27 34t-60 9h-16v56h16q69 0 112.5 -24t43.5 -68q0 -32 -21 -49.5t-51.5 -24.5t-60.5 -11z" />
    <glyph glyph-name="uni1EF8" unicode="&#x1ef8;" horiz-adv-x="610" 
d="M255 0v270l-246 427h116l178 -325l182 325h115l-243 -427v-270h-102zM370 743q-24 0 -40.5 7.5t-28 19t-21 23t-19.5 19.5t-24 8q-17 0 -27.5 -18.5t-10.5 -52.5h-58q0 60 27 93t74 33q21 0 36.5 -8t27 -20t21.5 -23.5t20.5 -19.5t23.5 -8q15 0 26 20t11 55h60
q0 -61 -26.5 -94.5t-71.5 -33.5z" />
    <glyph glyph-name="uni1EF9" unicode="&#x1ef9;" horiz-adv-x="526" 
d="M114 -203l96 232l-190 464h108l134 -366l136 366h106l-283 -696h-107zM328 563q-30 0 -48.5 11.5t-31 26.5t-24.5 26.5t-29 11.5t-27.5 -18.5t-10.5 -52.5h-58q0 63 27 98t74 35q26 0 44 -12t31 -27t25.5 -27t28.5 -12q15 0 26 19.5t11 54.5h60q0 -63 -26.5 -98.5
t-71.5 -35.5z" />
    <glyph glyph-name="endash" unicode="&#x2013;" horiz-adv-x="417" 
d="M24 264v73h369v-73h-369z" />
    <glyph glyph-name="emdash" unicode="&#x2014;" horiz-adv-x="1058" 
d="M24 264v73h1010v-73h-1010z" />
    <glyph glyph-name="uni2015" unicode="&#x2015;" horiz-adv-x="695" 
d="M42 264v73h612v-73h-612z" />
    <glyph glyph-name="quoteleft" unicode="&#x2018;" horiz-adv-x="265" 
d="M32 415l130 282h65l-81 -282h-114z" />
    <glyph glyph-name="quoteright" unicode="&#x2019;" horiz-adv-x="265" 
d="M37 416l82 281h113l-129 -281h-66z" />
    <glyph glyph-name="quotesinglbase" unicode="&#x201a;" horiz-adv-x="287" 
d="M48 -152l81 282h113l-129 -282h-65z" />
    <glyph glyph-name="quotedblleft" unicode="&#x201c;" horiz-adv-x="445" 
d="M214 415l127 282h66l-80 -282h-113zM32 415l129 282h65l-81 -282h-113z" />
    <glyph glyph-name="quotedblright" unicode="&#x201d;" horiz-adv-x="446" 
d="M219 416l82 281h112l-128 -281h-66zM37 416l82 281h113l-129 -281h-66z" />
    <glyph glyph-name="quotedblbase" unicode="&#x201e;" horiz-adv-x="404" 
d="M201 -152l81 282h113l-128 -282h-66zM12 -152l81 282h113l-129 -282h-65z" />
    <glyph glyph-name="dagger" unicode="&#x2020;" horiz-adv-x="387" 
d="M156 -101v524h-123v73h123v201h74v-201h124v-73h-124v-524h-74z" />
    <glyph glyph-name="daggerdbl" unicode="&#x2021;" horiz-adv-x="400" 
d="M164 -101v202h-123v73h123v249h-123v73h123v201h73v-201h122v-73h-122v-249h122v-73h-122v-202h-73z" />
    <glyph glyph-name="bullet" unicode="&#x2022;" horiz-adv-x="363" 
d="M66 132v231h231v-231h-231z" />
    <glyph glyph-name="uni2023" unicode="&#x2023;" horiz-adv-x="386" 
d="M67 83v349l300 -174z" />
    <glyph glyph-name="twodotenleader" unicode="&#x2025;" horiz-adv-x="444" 
d="M269 0v121h110v-121h-110zM65 0v121h110v-121h-110z" />
    <glyph glyph-name="ellipsis" unicode="&#x2026;" horiz-adv-x="676" 
d="M509 0v121h102v-121h-102zM65 0v121h101v-121h-101zM287 0v121h102v-121h-102z" />
    <glyph glyph-name="perthousand" unicode="&#x2030;" horiz-adv-x="1032" 
d="M119 0l409 697h70l-409 -697h-70zM533 -9q-42 0 -74 21.5t-48.5 58.5t-16.5 80t16 79t47 58t73 22q40 0 71.5 -21t49.5 -57t18 -82q0 -44 -17.5 -80t-48 -57.5t-70.5 -21.5zM533 58q30 0 49.5 26t19.5 66q0 27 -8.5 47.5t-24.5 33t-39 12.5t-38.5 -12.5t-23 -33.5
t-7.5 -46q0 -26 8 -47t24.5 -33.5t39.5 -12.5zM188 388q-44 0 -75 21.5t-48 58t-17 79.5t16.5 79.5t47.5 58t73 21.5q40 0 71 -21t49 -57t18 -82q0 -44 -17.5 -80t-47.5 -57t-70 -21zM188 454q29 0 48.5 26t19.5 66q0 26 -8.5 47.5t-24 33.5t-38.5 12q-24 0 -39.5 -12.5
t-23.5 -33t-8 -46.5t8.5 -47t24.5 -33.5t41 -12.5zM849 -9q-43 0 -74.5 22t-48 58.5t-16.5 79.5t16.5 79t47 58t72.5 22q40 0 71.5 -21t49.5 -57t18 -82q0 -45 -17.5 -80.5t-48.5 -57t-70 -21.5zM849 58q29 0 49 26t20 66q0 27 -8.5 47.5t-25 33t-38.5 12.5
q-23 0 -38.5 -12.5t-23.5 -33.5t-8 -46q0 -26 8.5 -47t24.5 -33.5t40 -12.5z" />
    <glyph glyph-name="uni2031" unicode="&#x2031;" horiz-adv-x="1348" 
d="M119 0l409 697h70l-409 -697h-70zM533 -9q-42 0 -74 21.5t-48.5 58.5t-16.5 80t16 79t47 58t73 22q40 0 71.5 -21t49.5 -57t18 -82q0 -44 -17.5 -80t-48 -57.5t-70.5 -21.5zM533 58q30 0 49.5 26t19.5 66q0 27 -8.5 47.5t-24.5 33t-39 12.5t-38.5 -12.5t-23 -33.5
t-7.5 -46q0 -26 8 -47t24.5 -33.5t39.5 -12.5zM188 388q-44 0 -75 21.5t-48 58t-17 79.5t16.5 79.5t47.5 58t73 21.5q40 0 71 -21t49 -57t18 -82q0 -44 -17.5 -80t-47.5 -57t-70 -21zM188 454q29 0 48.5 26t19.5 66q0 26 -8.5 47.5t-24 33.5t-38.5 12q-24 0 -39.5 -12.5
t-23.5 -33t-8 -46.5t8.5 -47t24.5 -33.5t41 -12.5zM849 -9q-43 0 -74.5 22t-48 58.5t-16.5 79.5t16.5 79t47 58t72.5 22q40 0 71.5 -21t49.5 -57t18 -82q0 -45 -17.5 -80.5t-48.5 -57t-70 -21.5zM849 58q29 0 49 26t20 66q0 27 -8.5 47.5t-25 33t-38.5 12.5
q-23 0 -38.5 -12.5t-23.5 -33.5t-8 -46q0 -26 8.5 -47t24.5 -33.5t40 -12.5zM1165 -9q-43 0 -74 22t-48 58.5t-17 79.5t16.5 79t47 58t72.5 22q40 0 71 -21t49.5 -57t18.5 -82q0 -44 -18 -80t-48.5 -57.5t-69.5 -21.5zM1165 58q30 0 49.5 26t19.5 66q0 27 -9 48t-24.5 33
t-38.5 12t-38.5 -12.5t-23.5 -33t-8 -46.5q0 -25 8.5 -46t24.5 -34t40 -13z" />
    <glyph glyph-name="guilsinglleft" unicode="&#x2039;" horiz-adv-x="258" 
d="M239 54l-236 199l236 197v-104l-120 -93l120 -94v-105z" />
    <glyph glyph-name="guilsinglright" unicode="&#x203a;" horiz-adv-x="258" 
d="M18 54v105l120 94l-120 93v104l237 -197z" />
    <glyph glyph-name="fraction" unicode="&#x2044;" horiz-adv-x="129" 
d="M-175 0l409 697h70l-409 -697h-70z" />
    <glyph glyph-name="uni2074" unicode="&#x2074;" horiz-adv-x="408" 
d="M236 484v100h-194v54l192 264h62v-264h67v-54h-67v-100h-60zM89 623l-6 15h153v200l8 -1z" />
    <glyph glyph-name="dong" unicode="&#x20ab;" horiz-adv-x="560" 
d="M237 138q-56 0 -97.5 28t-64 76t-22.5 108q0 65 24.5 112t66.5 72.5t93 25.5q62 0 101 -33t55 -101l-36 12v284h85v-577h-72l-13 115h15q-6 -53 -42.5 -87.5t-92.5 -34.5zM60 0v58h442v-58h-442zM252 216q35 0 60 17t39 47.5t14 69.5t-14 69t-39.5 46.5t-59.5 16.5
q-33 0 -59 -16.5t-40 -46.5t-14 -69t14 -69.5t40 -47.5t59 -17zM250 616v52h252v-52h-252z" />
    <glyph glyph-name="Euro" unicode="&#x20ac;" horiz-adv-x="560" 
d="M341 -9q-92 0 -155.5 47.5t-96.5 129.5t-33 187q0 101 34.5 180t99 125t154.5 46q61 0 110.5 -15t86.5 -46l-53 -80q-27 23 -62 36t-82 13q-62 0 -103.5 -34.5t-62.5 -93.5t-21 -133q0 -78 20.5 -139t61.5 -96t102 -35q49 0 86 14.5t63 40.5l54 -81q-38 -32 -88.5 -49
t-114.5 -17zM6 245v66h416l-2 -66h-414zM8 397v66h415l-1 -66h-414z" />
    <glyph glyph-name="uni20B1" unicode="&#x20b1;" horiz-adv-x="560" 
d="M72 0v697h191q83 0 134 -25t75.5 -70.5t24.5 -105.5q0 -59 -27.5 -104.5t-79 -70.5t-127.5 -25h-90v-296h-101zM11 461v74h111v-74h-111zM173 391h90q68 0 100.5 26t32.5 79t-32.5 79.5t-100.5 26.5h-90v-211zM466 461v74h84v-74h-84z" />
    <glyph glyph-name="uni20B3" unicode="&#x20b3;" horiz-adv-x="560" 
d="M15 0l227 697h78l226 -697h-113l-152 549l-154 -549h-112zM2 146l2 66h553v-66h-555zM3 298v66h553v-66h-553z" />
    <glyph glyph-name="uni20B4" unicode="&#x20b4;" horiz-adv-x="560" 
d="M288 -12q-70 0 -123.5 27t-83 74t-29.5 108q0 25 5.5 45t16.5 38l121 4q-21 -21 -31.5 -42.5t-10.5 -47.5q0 -36 17 -61.5t47 -39.5t67 -14q59 0 98 29.5t53 80.5l95 -40q-25 -76 -89 -118.5t-153 -42.5zM16 264v63h518v-63h-518zM16 399v65h518v-65h-518zM321 436
q35 20 52.5 41t17.5 50q0 27 -14 48t-37 33t-53 12q-41 0 -72.5 -20t-55.5 -62l-81 50q32 62 83.5 92t121.5 30q63 0 110 -24t73.5 -65.5t26.5 -95.5q0 -29 -11.5 -50.5t-27.5 -38.5h-133z" />
    <glyph glyph-name="uni20B8" unicode="&#x20b8;" horiz-adv-x="560" 
d="M229 0v448h-198v83h498v-83h-198v-448h-102zM31 614v82h498v-82h-498z" />
    <glyph glyph-name="uni20BD" unicode="&#x20bd;" horiz-adv-x="560" 
d="M107 0v138h-88v82h88v84h-88v87h88v306h211q112 0 175 -53.5t63 -148.5q0 -96 -63.5 -143.5t-174.5 -47.5h-110v-84h163v-82h-163v-138h-101zM208 391h110q35 0 66 9.5t51 32.5t20 63q0 41 -19.5 64t-51 32.5t-66.5 9.5h-110v-211z" />
    <glyph glyph-name="uni2116" unicode="&#x2116;" horiz-adv-x="1128" 
d="M75 0v697h106l347 -565h-24v565h101v-697h-108l-344 566h24v-566h-102zM692 0v75h392v-75h-392zM892 161q-60 0 -106 29t-71.5 77.5t-25.5 106.5t25.5 105.5t71.5 76.5t106 29q61 0 107.5 -29t72.5 -76.5t26 -105.5t-26 -106.5t-72.5 -77.5t-107.5 -29zM892 231
q42 0 68.5 20t40 52.5t13.5 70.5t-13.5 70t-40 51t-68.5 19q-40 0 -66.5 -19t-39.5 -51t-13 -70q0 -39 13 -71t39.5 -52t66.5 -20z" />
    <glyph glyph-name="trademark" unicode="&#x2122;" horiz-adv-x="709" 
d="M339 379v318h82l78 -222l77 222h81v-318h-51v263l-91 -240h-33l-93 244v-267h-50zM126 379v271h-93v47h236v-47h-92v-271h-51z" />
    <glyph glyph-name="uni2126" unicode="&#x2126;" horiz-adv-x="784" 
d="M74 0v96h159l21 -12q-62 30 -105 75.5t-64.5 103t-21.5 123.5q0 70 24 129.5t67.5 103t103.5 67.5t133 24t133 -24.5t104.5 -68t69 -102.5t24.5 -128q0 -68 -23.5 -126t-66 -102t-103.5 -75l21 12h160v-96h-266v93q85 45 127.5 116t42.5 162q0 73 -26.5 127.5t-76 84.5
t-119.5 30q-71 0 -121 -30t-76.5 -85t-26.5 -128q0 -97 45.5 -167t126.5 -110v-93h-266z" />
    <glyph glyph-name="oneeighth" unicode="&#x215b;" horiz-adv-x="791" 
d="M127 279v333l20 -34h-127v54h66q20 0 30.5 8t10.5 31v26h67v-418h-67zM115 0l409 697h70l-409 -697h-70zM605 -5q-39 0 -73.5 14t-56.5 43t-22 71q0 34 16 61.5t47 42.5q-19 12 -31 32t-12 48q0 37 19 63t49.5 39.5t63.5 13.5q35 0 64.5 -14t48 -40t18.5 -63
q0 -28 -11.5 -47.5t-30.5 -31.5q31 -15 47 -42.5t16 -61.5q0 -42 -21.5 -71t-56 -43t-74.5 -14zM605 57q24 0 43 8.5t30.5 24.5t11.5 39q0 33 -24 52.5t-61 19.5t-61.5 -19t-24.5 -53q0 -23 12 -39t31.5 -24.5t42.5 -8.5zM605 246q29 0 47 15t18 40q0 27 -17.5 43t-47.5 16
q-27 0 -46 -15t-19 -42q0 -26 18.5 -41.5t46.5 -15.5z" />
    <glyph glyph-name="threeeighths" unicode="&#x215c;" horiz-adv-x="871" 
d="M184 274q-69 0 -111.5 37.5t-42.5 98.5l67 3q0 -34 24.5 -55t63.5 -21q41 0 63 18.5t22 50.5q0 37 -29.5 51t-78.5 14v54q23 0 42.5 5t31 18t11.5 35q0 25 -17.5 40.5t-46.5 15.5q-32 0 -49.5 -17.5t-18.5 -45.5l-66 4q0 54 38.5 88t97.5 34q56 0 92.5 -31t36.5 -81
q0 -32 -17.5 -53t-41.5 -31q23 -7 41.5 -20.5t29 -33t10.5 -46.5q0 -59 -42 -95.5t-110 -36.5zM195 0l409 697h70l-409 -697h-70zM685 -5q-39 0 -73.5 14t-56.5 43t-22 71q0 34 16 61.5t47 42.5q-19 12 -31 32t-12 48q0 37 19 63t49.5 39.5t63.5 13.5q35 0 64.5 -14t48 -40
t18.5 -63q0 -28 -11.5 -47.5t-30.5 -31.5q31 -15 47 -42.5t16 -61.5q0 -42 -21.5 -71t-56 -43t-74.5 -14zM685 57q24 0 43 8.5t30.5 24.5t11.5 39q0 33 -24 52.5t-61 19.5t-61.5 -19t-24.5 -53q0 -23 12 -39t31.5 -24.5t42.5 -8.5zM685 246q29 0 47 15t18 40q0 27 -17.5 43
t-47.5 16q-27 0 -46 -15t-19 -42q0 -26 18.5 -41.5t46.5 -15.5z" />
    <glyph glyph-name="fiveeighths" unicode="&#x215d;" horiz-adv-x="866" 
d="M181 274q-38 0 -70 16t-53 44t-26 64l66 12q4 -28 25 -50.5t58 -22.5q27 0 45 13t27 32.5t9 41.5q0 32 -19.5 55t-60.5 23q-23 0 -42 -10t-32 -31l-63 17l39 219h230v-61h-205l34 27l-27 -148l-20 6q23 25 47.5 34.5t48.5 9.5q42 0 73.5 -19.5t49 -51.5t17.5 -70
q0 -40 -19.5 -74.5t-53.5 -55t-78 -20.5zM191 0l409 697h70l-409 -697h-70zM681 -5q-39 0 -73.5 14t-56.5 43t-22 71q0 34 16 61.5t47 42.5q-19 12 -31 32t-12 48q0 37 19 63t49.5 39.5t63.5 13.5q35 0 64.5 -14t48 -40t18.5 -63q0 -28 -11.5 -47.5t-30.5 -31.5
q31 -15 47 -42.5t16 -61.5q0 -42 -21.5 -71t-56 -43t-74.5 -14zM681 57q24 0 43 8.5t30.5 24.5t11.5 39q0 33 -24 52.5t-61 19.5t-61.5 -19t-24.5 -53q0 -23 12 -39t31.5 -24.5t42.5 -8.5zM681 246q29 0 47 15t18 40q0 27 -17.5 43t-47.5 16q-27 0 -46 -15t-19 -42
q0 -26 18.5 -41.5t46.5 -15.5z" />
    <glyph glyph-name="seveneighths" unicode="&#x215e;" horiz-adv-x="804" 
d="M59 279l197 381l18 -25h-253v62h302v-49l-189 -369h-75zM128 0l409 697h70l-409 -697h-70zM618 -5q-39 0 -73.5 14t-56.5 43t-22 71q0 34 16 61.5t47 42.5q-19 12 -31 32t-12 48q0 37 19 63t49.5 39.5t63.5 13.5q35 0 64.5 -14t48 -40t18.5 -63q0 -28 -11.5 -47.5
t-30.5 -31.5q31 -15 47 -42.5t16 -61.5q0 -42 -21.5 -71t-56 -43t-74.5 -14zM618 57q24 0 43 8.5t30.5 24.5t11.5 39q0 33 -24 52.5t-61 19.5t-61.5 -19t-24.5 -53q0 -23 12 -39t31.5 -24.5t42.5 -8.5zM618 246q29 0 47 15t18 40q0 27 -17.5 43t-47.5 16q-27 0 -46 -15
t-19 -42q0 -26 18.5 -41.5t46.5 -15.5z" />
    <glyph glyph-name="arrowleft" unicode="&#x2190;" horiz-adv-x="1121" 
d="M554 13l-517 288l517 288l33 -66l-358 -200l-3 14h871v-73h-871l3 14l358 -200z" />
    <glyph glyph-name="arrowright" unicode="&#x2192;" horiz-adv-x="1121" 
d="M567 13l-33 65l357 200l4 -14h-871v73h871l-4 -14l-357 200l33 66l517 -288z" />
    <glyph glyph-name="partialdiff" unicode="&#x2202;" horiz-adv-x="631" 
d="M275 -5q-68 0 -118 28.5t-77 79.5t-27 116q0 63 21 114t58.5 88.5t87 57.5t104.5 20q32 0 58 -9.5t45.5 -26t33.5 -37.5t22 -45q0 16 -1 25.5t-3 19.5t-5 28q-11 94 -50.5 136t-101.5 42q-26 0 -52.5 -8t-48.5 -27t-36 -51l-72 24q25 63 80 98.5t131 35.5q117 0 180 -86
t63 -247q0 -80 -19 -148t-56 -119.5t-91.5 -80t-125.5 -28.5zM283 79q59 0 98.5 28t61.5 70.5t26 86.5q1 27 -6.5 54.5t-24 50t-43 36.5t-62.5 14q-62 0 -104 -29t-63 -74.5t-21 -96.5q0 -44 18 -75.5t49.5 -48t70.5 -16.5z" />
    <glyph glyph-name="emptyset" unicode="&#x2205;" horiz-adv-x="718" 
d="M88 36l62 81q-47 41 -75.5 101.5t-28.5 129.5q0 65 24.5 121.5t67.5 99.5t99.5 67t120.5 24q48 0 90.5 -13t79.5 -37l38 50h64l-63 -80q47 -41 75.5 -100.5t28.5 -131.5q0 -64 -24.5 -121t-67.5 -99.5t-99 -67t-122 -24.5q-46 0 -89 12.5t-79 36.5l-39 -49h-63zM188 165
l303 397q-30 18 -62.5 28t-69.5 10q-53 0 -98.5 -19.5t-80 -54t-54 -80t-19.5 -98.5t21 -101t60 -82zM359 97q52 0 97.5 19.5t80 54t54 80t19.5 97.5q0 54 -21 102t-59 82l-303 -398q29 -18 63 -27.5t69 -9.5z" />
    <glyph glyph-name="uni2206" unicode="&#x2206;" horiz-adv-x="659" 
d="M39 0l278 697h25l278 -697h-581zM160 83h341l-171 445z" />
    <glyph glyph-name="product" unicode="&#x220f;" horiz-adv-x="586" 
d="M87 0v615h-45v82h502v-82h-45v-615h-83v615h-246v-615h-83z" />
    <glyph glyph-name="summation" unicode="&#x2211;" horiz-adv-x="622" 
d="M47 0v52l280 296l-280 297v52h531v-93h-416l14 33l284 -289l-284 -287l-14 32h416v-93h-531z" />
    <glyph glyph-name="minus" unicode="&#x2212;" horiz-adv-x="560" 
d="M84 209v77h392v-77h-392z" />
    <glyph glyph-name="uni2215" unicode="&#x2215;" horiz-adv-x="410" 
d="M30 0l275 697h75l-276 -697h-74z" />
    <glyph glyph-name="radical" unicode="&#x221a;" horiz-adv-x="611" 
d="M248 -98l-135 368h-76v83h136l80 -239l232 583h88z" />
    <glyph glyph-name="infinity" unicode="&#x221e;" horiz-adv-x="863" 
d="M224 162q-60 0 -103 24t-67 66.5t-24 96.5t23.5 96t67 66t103.5 24q51 0 106 -29.5t101 -89.5q30 38 64.5 64.5t71.5 40.5t72 14q59 0 102.5 -24t67.5 -66t24 -96t-24 -96t-67.5 -66.5t-102.5 -24.5q-36 0 -73.5 14t-71.5 41t-63 64q-43 -56 -98 -87.5t-109 -31.5z
M235 242q36 0 77 26.5t74 80.5q-35 57 -76.5 82t-74.5 25q-35 0 -61.5 -13.5t-41 -37t-14.5 -56.5t14.5 -57t41 -37t61.5 -13zM626 242q35 0 62 13t42 37t15 57t-15 56.5t-42 37t-62 13.5q-34 0 -74.5 -26t-77.5 -81q36 -55 77 -81t75 -26z" />
    <glyph glyph-name="integral" unicode="&#x222b;" horiz-adv-x="476" 
d="M35 -229v83q54 0 88 12.5t50.5 43t16.5 83.5v567q0 44 20 78t53 54t72 20q28 0 55.5 -10.5t51.5 -30.5l-52 -63q-15 12 -28.5 16.5t-26.5 4.5q-26 0 -44 -18.5t-18 -54.5v-565q0 -72 -29 -121.5t-82 -74t-127 -24.5z" />
    <glyph glyph-name="approxequal" unicode="&#x2248;" horiz-adv-x="560" 
d="M367 272q-34 0 -55.5 11.5t-35.5 29.5t-25.5 35t-25 29t-34.5 12q-24 0 -37.5 -25.5t-13.5 -64.5h-78q0 71 35.5 114.5t93.5 43.5q35 0 57.5 -11.5t37 -28.5t26 -34.5t24 -29t31.5 -11.5q24 0 38.5 28.5t14.5 71.5h78q0 -50 -16 -88.5t-45.5 -60t-69.5 -21.5zM367 36
q-34 0 -55.5 11.5t-35.5 28.5t-25.5 35t-25 29.5t-34.5 11.5q-24 0 -37.5 -24.5t-13.5 -64.5h-78q0 71 35.5 115t93.5 44q35 0 57.5 -11.5t37 -29t26 -34.5t24 -28.5t31.5 -11.5q24 0 38.5 28.5t14.5 72.5h78q0 -51 -16 -89.5t-45.5 -60.5t-69.5 -22z" />
    <glyph glyph-name="notequal" unicode="&#x2260;" horiz-adv-x="560" 
d="M103 0l200 493h45l-200 -493h-45zM89 315v78h403v-78h-403zM89 101v78h403v-78h-403z" />
    <glyph glyph-name="lessequal" unicode="&#x2264;" horiz-adv-x="560" 
d="M523 115l-499 160v90l499 159v-81l-453 -138v30l453 -137v-83zM24 -35v78h499v-78h-499z" />
    <glyph glyph-name="greaterequal" unicode="&#x2265;" horiz-adv-x="560" 
d="M37 115v83l453 137v-30l-453 138v81l499 -159v-90zM536 -35h-499v78h499v-78z" />
    <glyph glyph-name="lozenge" unicode="&#x25ca;" horiz-adv-x="592" 
d="M230 0l-188 348l188 349h132l188 -349l-188 -348h-132zM289 52h13l150 296l-150 297h-13l-150 -297z" />
    <glyph glyph-name="uni004A0301" horiz-adv-x="553" 
d="M257 -13q-99 0 -161.5 60t-69.5 165l100 11q5 -74 39 -108t92 -34q67 0 96.5 44.5t29.5 125.5v355h-271v91h373v-452q0 -80 -27.5 -138t-78.5 -89t-122 -31zM261 760l110 141h105l-142 -141h-73z" />
    <glyph glyph-name="uni013B.loclMAH" horiz-adv-x="498" 
d="M75 0v697h102v-606h307v-91h-409zM126 -204l76 150h103l-120 -150h-59z" />
    <glyph glyph-name="uni0145.loclMAH" horiz-adv-x="680" 
d="M75 0v697h106l347 -565h-24v565h101v-697h-108l-344 566h24v-566h-102zM209 -204l76 150h103l-120 -150h-59z" />
    <glyph glyph-name="uni1EB6.ss03" horiz-adv-x="649" 
d="M14 0l271 697h79l270 -697h-111l-198 549l-199 -549h-112zM174 155l31 91h238l34 -91h-303zM326 -188q-25 0 -42.5 18t-17.5 42q0 25 17.5 42.5t42.5 17.5t42.5 -17.5t17.5 -42.5q0 -24 -17.5 -42t-42.5 -18zM325 739q-79 0 -116.5 34.5t-37.5 97.5h70q0 -37 23.5 -55
t60.5 -18q38 0 61 18.5t23 54.5h69q0 -66 -38.5 -99t-114.5 -33z" />
    <glyph glyph-name="uni1EAC.ss03" horiz-adv-x="649" 
d="M14 0l271 697h79l270 -697h-111l-198 549l-199 -549h-112zM174 155l31 91h238l34 -91h-303zM326 -188q-25 0 -42.5 18t-17.5 42q0 25 17.5 42.5t42.5 17.5t42.5 -17.5t17.5 -42.5q0 -24 -17.5 -42t-42.5 -18zM172 749l153 166l153 -166h-80l-73 82l-72 -82h-81z" />
    <glyph glyph-name="Adieresis.ss03" horiz-adv-x="649" 
d="M14 0l271 697h79l270 -697h-111l-198 549l-199 -549h-112zM174 155l31 91h238l34 -91h-303zM426 788q-25 0 -43 18.5t-18 42.5q0 26 18 43.5t43 17.5t43 -17.5t18 -43.5q0 -24 -18 -42.5t-43 -18.5zM224 788q-25 0 -43 18.5t-18 42.5q0 26 17.5 43.5t43.5 17.5
q25 0 43 -17.5t18 -43.5q0 -24 -18 -42.5t-43 -18.5z" />
    <glyph glyph-name="uni1EA0.ss03" horiz-adv-x="649" 
d="M14 0l271 697h79l270 -697h-111l-198 549l-199 -549h-112zM174 155l31 91h238l34 -91h-303zM326 -188q-25 0 -42.5 18t-17.5 42q0 25 17.5 42.5t42.5 17.5t42.5 -17.5t17.5 -42.5q0 -24 -17.5 -42t-42.5 -18z" />
    <glyph glyph-name="Cdotaccent.ss03" horiz-adv-x="706" 
d="M372 -13q-97 0 -170.5 45t-114.5 127t-41 190t41 189.5t114.5 126.5t170.5 45q107 0 185.5 -53t112.5 -147l-95 -35q-25 65 -77 101.5t-126 36.5q-68 0 -118.5 -32.5t-78 -91t-27.5 -140.5t27.5 -141t78 -91.5t118.5 -32.5q74 0 126 36.5t77 101.5l95 -34
q-34 -93 -112.5 -147t-185.5 -54zM360 788q-25 0 -43 18.5t-18 42.5q0 26 17.5 43.5t43.5 17.5q25 0 43 -17.5t18 -43.5q0 -24 -18 -42.5t-43 -18.5z" />
    <glyph glyph-name="uni1EC6.ss03" horiz-adv-x="583" 
d="M75 0v697h461v-91h-359v-204h329v-91h-329v-220h359v-91h-461zM306 -188q-25 0 -42.5 18t-17.5 42q0 25 17.5 42.5t42.5 17.5t42.5 -17.5t17.5 -42.5q0 -24 -17.5 -42t-42.5 -18zM153 749l153 166l153 -166h-80l-73 82l-72 -82h-81z" />
    <glyph glyph-name="Edieresis.ss03" horiz-adv-x="583" 
d="M75 0v697h461v-91h-359v-204h329v-91h-329v-220h359v-91h-461zM407 788q-25 0 -43 18.5t-18 42.5q0 26 18 43.5t43 17.5t43 -17.5t18 -43.5q0 -24 -18 -42.5t-43 -18.5zM205 788q-25 0 -43 18.5t-18 42.5q0 26 17.5 43.5t43.5 17.5q25 0 43 -17.5t18 -43.5
q0 -24 -18 -42.5t-43 -18.5z" />
    <glyph glyph-name="Edotaccent.ss03" horiz-adv-x="583" 
d="M75 0v697h461v-91h-359v-204h329v-91h-329v-220h359v-91h-461zM306 788q-25 0 -43 18.5t-18 42.5q0 26 17.5 43.5t43.5 17.5q25 0 43 -17.5t18 -43.5q0 -24 -18 -42.5t-43 -18.5z" />
    <glyph glyph-name="uni1EB8.ss03" horiz-adv-x="583" 
d="M75 0v697h461v-91h-359v-204h329v-91h-329v-220h359v-91h-461zM306 -188q-25 0 -42.5 18t-17.5 42q0 25 17.5 42.5t42.5 17.5t42.5 -17.5t17.5 -42.5q0 -24 -17.5 -42t-42.5 -18z" />
    <glyph glyph-name="Gdotaccent.ss03" horiz-adv-x="732" 
d="M366 -13q-94 0 -166 45t-113 127t-41 190t41 189.5t114.5 126.5t170.5 45q107 0 185.5 -53t112.5 -147l-95 -35q-25 65 -77 101.5t-126 36.5q-68 0 -118.5 -32.5t-78 -91t-27.5 -140.5t27.5 -141t78 -91.5t118.5 -32.5q35 0 71.5 9.5t67.5 34t50 66.5t19 108v47l23 -70
h-198v91h265v-370h-90l-14 128l17 -13q-18 -44 -51 -72.5t-75.5 -42t-90.5 -13.5zM373 788q-25 0 -43 18.5t-18 42.5q0 26 17.5 43.5t43.5 17.5q25 0 43 -17.5t18 -43.5q0 -24 -18 -42.5t-43 -18.5z" />
    <glyph glyph-name="Idieresis.ss03" horiz-adv-x="252" 
d="M75 0v697h102v-697h-102zM228 788q-25 0 -43 18.5t-18 42.5q0 26 18 43.5t43 17.5t43 -17.5t18 -43.5q0 -24 -18 -42.5t-43 -18.5zM26 788q-25 0 -43 18.5t-18 42.5q0 26 17.5 43.5t43.5 17.5q25 0 43 -17.5t18 -43.5q0 -24 -18 -42.5t-43 -18.5z" />
    <glyph glyph-name="uni1ECA.ss03" horiz-adv-x="252" 
d="M75 0v697h102v-697h-102zM127 -188q-25 0 -42.5 18t-17.5 42q0 25 17.5 42.5t42.5 17.5t42.5 -17.5t17.5 -42.5q0 -24 -17.5 -42t-42.5 -18z" />
    <glyph glyph-name="Ldot.ss03" horiz-adv-x="622" 
d="M75 0v697h102v-606h307v-91h-409zM439 315q-25 0 -42.5 18.5t-17.5 43.5t17.5 42.5t42.5 17.5q26 0 43.5 -17.5t17.5 -42.5t-17.5 -43.5t-43.5 -18.5z" />
    <glyph glyph-name="uni1E44.ss03" horiz-adv-x="680" 
d="M75 0v697h106l347 -565h-24v565h101v-697h-108l-344 566h24v-566h-102zM338 788q-25 0 -43 18.5t-18 42.5q0 26 17.5 43.5t43.5 17.5q25 0 43 -17.5t18 -43.5q0 -24 -18 -42.5t-43 -18.5z" />
    <glyph glyph-name="uni1ED8.ss03" horiz-adv-x="748" 
d="M372 -13q-97 0 -170.5 45t-114.5 126.5t-41 189.5q0 109 41 190.5t114.5 126.5t170.5 45q99 0 173 -45t115 -126.5t41 -190.5q0 -108 -41.5 -189.5t-115.5 -126.5t-172 -45zM372 84q70 0 120 32.5t78 92t28 139.5q0 81 -28 140.5t-78 92t-120 32.5q-68 0 -118.5 -32
t-78 -91.5t-27.5 -141.5q0 -81 27.5 -140.5t78 -91.5t118.5 -32zM374 -188q-25 0 -42.5 18t-17.5 42q0 25 17.5 42.5t42.5 17.5t42.5 -17.5t17.5 -42.5q0 -24 -17.5 -42t-42.5 -18zM220 749l153 166l153 -166h-80l-73 82l-72 -82h-81z" />
    <glyph glyph-name="Odieresis.ss03" horiz-adv-x="748" 
d="M372 -13q-97 0 -170.5 45t-114.5 126.5t-41 189.5q0 109 41 190.5t114.5 126.5t170.5 45q99 0 173 -45t115 -126.5t41 -190.5q0 -108 -41.5 -189.5t-115.5 -126.5t-172 -45zM372 84q70 0 120 32.5t78 92t28 139.5q0 81 -28 140.5t-78 92t-120 32.5q-68 0 -118.5 -32
t-78 -91.5t-27.5 -141.5q0 -81 27.5 -140.5t78 -91.5t118.5 -32zM474 788q-25 0 -43 18.5t-18 42.5q0 26 18 43.5t43 17.5t43 -17.5t18 -43.5q0 -24 -18 -42.5t-43 -18.5zM272 788q-25 0 -43 18.5t-18 42.5q0 26 17.5 43.5t43.5 17.5q25 0 43 -17.5t18 -43.5
q0 -24 -18 -42.5t-43 -18.5z" />
    <glyph glyph-name="uni1ECC.ss03" horiz-adv-x="748" 
d="M372 -13q-97 0 -170.5 45t-114.5 126.5t-41 189.5q0 109 41 190.5t114.5 126.5t170.5 45q99 0 173 -45t115 -126.5t41 -190.5q0 -108 -41.5 -189.5t-115.5 -126.5t-172 -45zM372 84q70 0 120 32.5t78 92t28 139.5q0 81 -28 140.5t-78 92t-120 32.5q-68 0 -118.5 -32
t-78 -91.5t-27.5 -141.5q0 -81 27.5 -140.5t78 -91.5t118.5 -32zM374 -188q-25 0 -42.5 18t-17.5 42q0 25 17.5 42.5t42.5 17.5t42.5 -17.5t17.5 -42.5q0 -24 -17.5 -42t-42.5 -18z" />
    <glyph glyph-name="uni1EE2.ss03" horiz-adv-x="748" 
d="M372 -13q-97 0 -170.5 45t-114.5 126.5t-41 189.5q0 109 41 190.5t114.5 126.5t170.5 45q99 0 173 -45t115 -126.5t41 -190.5q0 -108 -41.5 -189.5t-115.5 -126.5t-172 -45zM372 84q70 0 120 32.5t78 92t28 139.5q0 81 -28 140.5t-78 92t-120 32.5q-68 0 -118.5 -32
t-78 -91.5t-27.5 -141.5q0 -81 27.5 -140.5t78 -91.5t118.5 -32zM587 495v64q44 0 62 26t18 75v37h69v-43q0 -45 -15.5 -81t-48 -57t-85.5 -21zM374 -188q-25 0 -42.5 18t-17.5 42q0 25 17.5 42.5t42.5 17.5t42.5 -17.5t17.5 -42.5q0 -24 -17.5 -42t-42.5 -18z" />
    <glyph glyph-name="Udieresis.ss03" horiz-adv-x="656" 
d="M327 -13q-126 0 -192.5 67t-66.5 198v445h102v-433q0 -60 15 -101t49.5 -62t92.5 -21t93.5 21.5t50.5 62t15 100.5v433h101v-440q0 -133 -66 -201.5t-194 -68.5zM429 788q-25 0 -43 18.5t-18 42.5q0 26 18 43.5t43 17.5t43 -17.5t18 -43.5q0 -24 -18 -42.5t-43 -18.5z
M227 788q-25 0 -43 18.5t-18 42.5q0 26 17.5 43.5t43.5 17.5q25 0 43 -17.5t18 -43.5q0 -24 -18 -42.5t-43 -18.5z" />
    <glyph glyph-name="uni1EE4.ss03" horiz-adv-x="656" 
d="M327 -13q-126 0 -192.5 67t-66.5 198v445h102v-433q0 -60 15 -101t49.5 -62t92.5 -21t93.5 21.5t50.5 62t15 100.5v433h101v-440q0 -133 -66 -201.5t-194 -68.5zM329 -188q-25 0 -42.5 18t-17.5 42q0 25 17.5 42.5t42.5 17.5t42.5 -17.5t17.5 -42.5q0 -24 -17.5 -42
t-42.5 -18z" />
    <glyph glyph-name="uni1EF0.ss03" horiz-adv-x="751" 
d="M327 -13q-126 0 -192.5 67t-66.5 198v445h102v-433q0 -60 15 -101t49.5 -62t92.5 -21t93.5 21.5t50.5 62t15 100.5v433h101v-440q0 -133 -66 -201.5t-194 -68.5zM571 495v64q44 0 62 26t18 75v37h69v-43q0 -45 -15.5 -81t-48 -57t-85.5 -21zM329 -188q-25 0 -42.5 18
t-17.5 42q0 25 17.5 42.5t42.5 17.5t42.5 -17.5t17.5 -42.5q0 -24 -17.5 -42t-42.5 -18z" />
    <glyph glyph-name="Wdieresis.ss03" horiz-adv-x="964" 
d="M226 0l-206 697h106l156 -542l150 503h101l150 -503l155 542h107l-206 -697h-100l-165 537h17l-165 -537h-100zM584 788q-25 0 -43 18.5t-18 42.5q0 26 18 43.5t43 17.5t43 -17.5t18 -43.5q0 -24 -18 -42.5t-43 -18.5zM382 788q-25 0 -43 18.5t-18 42.5q0 26 17.5 43.5
t43.5 17.5q25 0 43 -17.5t18 -43.5q0 -24 -18 -42.5t-43 -18.5z" />
    <glyph glyph-name="Ydieresis.ss03" horiz-adv-x="610" 
d="M255 0v270l-246 427h116l178 -325l182 325h115l-243 -427v-270h-102zM407 788q-25 0 -43 18.5t-18 42.5q0 26 18 43.5t43 17.5t43 -17.5t18 -43.5q0 -24 -18 -42.5t-43 -18.5zM205 788q-25 0 -43 18.5t-18 42.5q0 26 17.5 43.5t43.5 17.5q25 0 43 -17.5t18 -43.5
q0 -24 -18 -42.5t-43 -18.5z" />
    <glyph glyph-name="uni1EF4.ss03" horiz-adv-x="610" 
d="M255 0v270l-246 427h116l178 -325l182 325h115l-243 -427v-270h-102zM306 -188q-25 0 -42.5 18t-17.5 42q0 25 17.5 42.5t42.5 17.5t42.5 -17.5t17.5 -42.5q0 -24 -17.5 -42t-42.5 -18z" />
    <glyph glyph-name="Zdotaccent.ss03" horiz-adv-x="590" 
d="M31 0v85l413 552l14 -31h-404v91h492v-85l-405 -540l-13 19h430v-91h-527zM298 788q-25 0 -43 18.5t-18 42.5q0 26 17.5 43.5t43.5 17.5q25 0 43 -17.5t18 -43.5q0 -24 -18 -42.5t-43 -18.5z" />
    <glyph glyph-name="T_h" horiz-adv-x="1030" 
d="M242 0v606h-228v91h558v-91h-227v-606h-103zM545 0v697h99v-311l-21 -7q13 41 38.5 68t59 41t71.5 14q82 0 128.5 -47.5t46.5 -138.5v-316h-98v280q0 71 -25.5 104t-78.5 33q-59 0 -90 -41.5t-31 -132.5v-243h-99z" />
    <glyph glyph-name="i.loclTRK" horiz-adv-x="232" 
d="M67 0v493h98v-493h-98zM60 578v119h111v-119h-111z" />
    <glyph glyph-name="uni006A0301" horiz-adv-x="232" 
d="M56 -213q-18 0 -39 4t-42 10v85q15 -4 26.5 -6t19.5 -2q22 0 34 12t12 44v559h98v-585q0 -62 -30 -91.5t-79 -29.5zM80 556l110 141h105l-142 -141h-73z" />
    <glyph glyph-name="uni013C.loclMAH" horiz-adv-x="259" 
d="M173 -9q-47 0 -77 29t-30 92v585h97v-566q0 -26 11.5 -37.5t30.5 -11.5q8 0 18.5 1.5t21.5 5.5v-83q-18 -8 -37.5 -11.5t-34.5 -3.5zM11 -204l76 150h103l-120 -150h-59z" />
    <glyph glyph-name="uni0146.loclMAH" horiz-adv-x="553" 
d="M68 0v493h99v-107l-20 -6q13 41 37.5 67.5t58 40.5t72.5 14q82 0 128.5 -47.5t46.5 -138.5v-316h-98v280q0 71 -25.5 104t-78.5 33q-40 0 -66.5 -18t-40.5 -57t-14 -99v-243h-99zM145 -204l76 150h103l-120 -150h-59z" />
    <glyph glyph-name="g.ss01" horiz-adv-x="584" 
d="M278 -213q-53 0 -94.5 15t-72 42t-51.5 61l75 59q20 -38 55.5 -65.5t87.5 -27.5q36 0 67.5 12t51.5 43t20 87v124l13 -10q-23 -61 -68 -90.5t-105 -29.5q-63 0 -111 33.5t-74.5 89.5t-26.5 125q0 75 29 130t77 86t106 31q64 0 107.5 -31.5t62.5 -86.5l-10 -12v121h97
v-480q0 -79 -30 -129.5t-83 -73.5t-123 -23zM284 100q44 0 75.5 20t49 54.5t17.5 79.5q0 46 -17.5 81.5t-49 56t-74.5 20.5q-42 0 -74 -20.5t-49.5 -56t-17.5 -81.5q0 -45 17.5 -79.5t49 -54.5t73.5 -20z" />
    <glyph glyph-name="gbreve.ss01" horiz-adv-x="584" 
d="M278 -213q-53 0 -94.5 15t-72 42t-51.5 61l75 59q20 -38 55.5 -65.5t87.5 -27.5q36 0 67.5 12t51.5 43t20 87v124l13 -10q-23 -61 -68 -90.5t-105 -29.5q-63 0 -111 33.5t-74.5 89.5t-26.5 125q0 75 29 130t77 86t106 31q64 0 107.5 -31.5t62.5 -86.5l-10 -12v121h97
v-480q0 -79 -30 -129.5t-83 -73.5t-123 -23zM284 100q44 0 75.5 20t49 54.5t17.5 79.5q0 46 -17.5 81.5t-49 56t-74.5 20.5q-42 0 -74 -20.5t-49.5 -56t-17.5 -81.5q0 -45 17.5 -79.5t49 -54.5t73.5 -20zM295 553q-79 0 -116.5 35.5t-37.5 108.5h64q0 -46 24 -66t66 -20
q43 0 66.5 20.5t23.5 65.5h63q0 -75 -38.5 -109.5t-114.5 -34.5z" />
    <glyph glyph-name="gcaron.ss01" horiz-adv-x="584" 
d="M278 -213q-53 0 -94.5 15t-72 42t-51.5 61l75 59q20 -38 55.5 -65.5t87.5 -27.5q36 0 67.5 12t51.5 43t20 87v124l13 -10q-23 -61 -68 -90.5t-105 -29.5q-63 0 -111 33.5t-74.5 89.5t-26.5 125q0 75 29 130t77 86t106 31q64 0 107.5 -31.5t62.5 -86.5l-10 -12v121h97
v-480q0 -79 -30 -129.5t-83 -73.5t-123 -23zM284 100q44 0 75.5 20t49 54.5t17.5 79.5q0 46 -17.5 81.5t-49 56t-74.5 20.5q-42 0 -74 -20.5t-49.5 -56t-17.5 -81.5q0 -45 17.5 -79.5t49 -54.5t73.5 -20zM295 538l-153 159h77l76 -81l77 81h76z" />
    <glyph glyph-name="gcircumflex.ss01" horiz-adv-x="584" 
d="M278 -213q-53 0 -94.5 15t-72 42t-51.5 61l75 59q20 -38 55.5 -65.5t87.5 -27.5q36 0 67.5 12t51.5 43t20 87v124l13 -10q-23 -61 -68 -90.5t-105 -29.5q-63 0 -111 33.5t-74.5 89.5t-26.5 125q0 75 29 130t77 86t106 31q64 0 107.5 -31.5t62.5 -86.5l-10 -12v121h97
v-480q0 -79 -30 -129.5t-83 -73.5t-123 -23zM284 100q44 0 75.5 20t49 54.5t17.5 79.5q0 46 -17.5 81.5t-49 56t-74.5 20.5q-42 0 -74 -20.5t-49.5 -56t-17.5 -81.5q0 -45 17.5 -79.5t49 -54.5t73.5 -20zM142 545l153 166l153 -166h-79l-74 82l-73 -82h-80z" />
    <glyph glyph-name="uni0123.ss01" horiz-adv-x="584" 
d="M278 -213q-53 0 -94.5 15t-72 42t-51.5 61l75 59q20 -38 55.5 -65.5t87.5 -27.5q36 0 67.5 12t51.5 43t20 87v124l13 -10q-23 -61 -68 -90.5t-105 -29.5q-63 0 -111 33.5t-74.5 89.5t-26.5 125q0 75 29 130t77 86t106 31q64 0 107.5 -31.5t62.5 -86.5l-10 -12v121h97
v-480q0 -79 -30 -129.5t-83 -73.5t-123 -23zM284 100q44 0 75.5 20t49 54.5t17.5 79.5q0 46 -17.5 81.5t-49 56t-74.5 20.5q-42 0 -74 -20.5t-49.5 -56t-17.5 -81.5q0 -45 17.5 -79.5t49 -54.5t73.5 -20zM206 553l120 152h59l-76 -152h-103z" />
    <glyph glyph-name="gdotaccent.ss01" horiz-adv-x="584" 
d="M278 -213q-53 0 -94.5 15t-72 42t-51.5 61l75 59q20 -38 55.5 -65.5t87.5 -27.5q36 0 67.5 12t51.5 43t20 87v124l13 -10q-23 -61 -68 -90.5t-105 -29.5q-63 0 -111 33.5t-74.5 89.5t-26.5 125q0 75 29 130t77 86t106 31q64 0 107.5 -31.5t62.5 -86.5l-10 -12v121h97
v-480q0 -79 -30 -129.5t-83 -73.5t-123 -23zM284 100q44 0 75.5 20t49 54.5t17.5 79.5q0 46 -17.5 81.5t-49 56t-74.5 20.5q-42 0 -74 -20.5t-49.5 -56t-17.5 -81.5q0 -45 17.5 -79.5t49 -54.5t73.5 -20zM239 578v119h111v-119h-111z" />
    <glyph glyph-name="uni1E21.ss01" horiz-adv-x="584" 
d="M278 -213q-53 0 -94.5 15t-72 42t-51.5 61l75 59q20 -38 55.5 -65.5t87.5 -27.5q36 0 67.5 12t51.5 43t20 87v124l13 -10q-23 -61 -68 -90.5t-105 -29.5q-63 0 -111 33.5t-74.5 89.5t-26.5 125q0 75 29 130t77 86t106 31q64 0 107.5 -31.5t62.5 -86.5l-10 -12v121h97
v-480q0 -79 -30 -129.5t-83 -73.5t-123 -23zM284 100q44 0 75.5 20t49 54.5t17.5 79.5q0 46 -17.5 81.5t-49 56t-74.5 20.5q-42 0 -74 -20.5t-49.5 -56t-17.5 -81.5q0 -45 17.5 -79.5t49 -54.5t73.5 -20zM158 580v59h273v-59h-273z" />
    <glyph glyph-name="g.ss02" horiz-adv-x="527" 
d="M269 -212q-46 0 -87 8t-73.5 25.5t-51.5 46.5t-19 70q0 11 2 21.5t5 19.5l95 67l50 -40l-60 -55v-9q0 -39 34 -59.5t106 -20.5q70 0 103.5 19t33.5 54q0 17 -6.5 31t-22.5 23t-46 9h-155q-15 0 -36.5 6.5t-41.5 20.5t-34 35t-14 50q-1 42 20 73.5t64 62.5l47 -63
q-17 -8 -29 -24t-11 -35q1 -17 15 -27t36.5 -14t48.5 -4h104q55 0 89.5 -16.5t50 -46.5t15.5 -70q0 -78 -60 -118t-172 -40zM268 149q-59 0 -103.5 22.5t-69.5 62t-25 90.5q0 54 26.5 93.5t71 62t97.5 22.5t97 -22.5t71 -63.5t27 -96q0 -52 -24.5 -90.5t-67.5 -59.5
t-100 -21zM266 226q47 0 72 28t25 69q0 43 -26.5 70t-70.5 27q-45 0 -71.5 -27t-26.5 -69q0 -41 25.5 -69.5t72.5 -28.5zM428 397l-70 47l106 87l51 -61z" />
    <glyph glyph-name="gbreve.ss02" horiz-adv-x="527" 
d="M269 -212q-46 0 -87 8t-73.5 25.5t-51.5 46.5t-19 70q0 11 2 21.5t5 19.5l95 67l50 -40l-60 -55v-9q0 -39 34 -59.5t106 -20.5q70 0 103.5 19t33.5 54q0 17 -6.5 31t-22.5 23t-46 9h-155q-15 0 -36.5 6.5t-41.5 20.5t-34 35t-14 50q-1 42 20 73.5t64 62.5l47 -63
q-17 -8 -29 -24t-11 -35q1 -17 15 -27t36.5 -14t48.5 -4h104q55 0 89.5 -16.5t50 -46.5t15.5 -70q0 -78 -60 -118t-172 -40zM268 149q-59 0 -103.5 22.5t-69.5 62t-25 90.5q0 54 26.5 93.5t71 62t97.5 22.5t97 -22.5t71 -63.5t27 -96q0 -52 -24.5 -90.5t-67.5 -59.5
t-100 -21zM266 226q47 0 72 28t25 69q0 43 -26.5 70t-70.5 27q-45 0 -71.5 -27t-26.5 -69q0 -41 25.5 -69.5t72.5 -28.5zM428 397l-70 47l106 87l51 -61zM272 553q-79 0 -116.5 35.5t-37.5 108.5h64q0 -46 24 -66t66 -20q43 0 66.5 20.5t23.5 65.5h63q0 -75 -38.5 -109.5
t-114.5 -34.5z" />
    <glyph glyph-name="gcaron.ss02" horiz-adv-x="527" 
d="M269 -212q-46 0 -87 8t-73.5 25.5t-51.5 46.5t-19 70q0 11 2 21.5t5 19.5l95 67l50 -40l-60 -55v-9q0 -39 34 -59.5t106 -20.5q70 0 103.5 19t33.5 54q0 17 -6.5 31t-22.5 23t-46 9h-155q-15 0 -36.5 6.5t-41.5 20.5t-34 35t-14 50q-1 42 20 73.5t64 62.5l47 -63
q-17 -8 -29 -24t-11 -35q1 -17 15 -27t36.5 -14t48.5 -4h104q55 0 89.5 -16.5t50 -46.5t15.5 -70q0 -78 -60 -118t-172 -40zM268 149q-59 0 -103.5 22.5t-69.5 62t-25 90.5q0 54 26.5 93.5t71 62t97.5 22.5t97 -22.5t71 -63.5t27 -96q0 -52 -24.5 -90.5t-67.5 -59.5
t-100 -21zM266 226q47 0 72 28t25 69q0 43 -26.5 70t-70.5 27q-45 0 -71.5 -27t-26.5 -69q0 -41 25.5 -69.5t72.5 -28.5zM428 397l-70 47l106 87l51 -61zM271 538l-153 159h77l76 -81l77 81h76z" />
    <glyph glyph-name="gcircumflex.ss02" horiz-adv-x="527" 
d="M269 -212q-46 0 -87 8t-73.5 25.5t-51.5 46.5t-19 70q0 11 2 21.5t5 19.5l95 67l50 -40l-60 -55v-9q0 -39 34 -59.5t106 -20.5q70 0 103.5 19t33.5 54q0 17 -6.5 31t-22.5 23t-46 9h-155q-15 0 -36.5 6.5t-41.5 20.5t-34 35t-14 50q-1 42 20 73.5t64 62.5l47 -63
q-17 -8 -29 -24t-11 -35q1 -17 15 -27t36.5 -14t48.5 -4h104q55 0 89.5 -16.5t50 -46.5t15.5 -70q0 -78 -60 -118t-172 -40zM268 149q-59 0 -103.5 22.5t-69.5 62t-25 90.5q0 54 26.5 93.5t71 62t97.5 22.5t97 -22.5t71 -63.5t27 -96q0 -52 -24.5 -90.5t-67.5 -59.5
t-100 -21zM266 226q47 0 72 28t25 69q0 43 -26.5 70t-70.5 27q-45 0 -71.5 -27t-26.5 -69q0 -41 25.5 -69.5t72.5 -28.5zM428 397l-70 47l106 87l51 -61zM118 545l153 166l153 -166h-79l-74 82l-73 -82h-80z" />
    <glyph glyph-name="uni0123.ss02" horiz-adv-x="527" 
d="M269 -212q-46 0 -87 8t-73.5 25.5t-51.5 46.5t-19 70q0 11 2 21.5t5 19.5l95 67l50 -40l-60 -55v-9q0 -39 34 -59.5t106 -20.5q70 0 103.5 19t33.5 54q0 17 -6.5 31t-22.5 23t-46 9h-155q-15 0 -36.5 6.5t-41.5 20.5t-34 35t-14 50q-1 42 20 73.5t64 62.5l47 -63
q-17 -8 -29 -24t-11 -35q1 -17 15 -27t36.5 -14t48.5 -4h104q55 0 89.5 -16.5t50 -46.5t15.5 -70q0 -78 -60 -118t-172 -40zM268 149q-59 0 -103.5 22.5t-69.5 62t-25 90.5q0 54 26.5 93.5t71 62t97.5 22.5t97 -22.5t71 -63.5t27 -96q0 -52 -24.5 -90.5t-67.5 -59.5
t-100 -21zM266 226q47 0 72 28t25 69q0 43 -26.5 70t-70.5 27q-45 0 -71.5 -27t-26.5 -69q0 -41 25.5 -69.5t72.5 -28.5zM428 397l-70 47l106 87l51 -61zM182 553l120 152h59l-76 -152h-103z" />
    <glyph glyph-name="gdotaccent.ss02" horiz-adv-x="527" 
d="M269 -212q-46 0 -87 8t-73.5 25.5t-51.5 46.5t-19 70q0 11 2 21.5t5 19.5l95 67l50 -40l-60 -55v-9q0 -39 34 -59.5t106 -20.5q70 0 103.5 19t33.5 54q0 17 -6.5 31t-22.5 23t-46 9h-155q-15 0 -36.5 6.5t-41.5 20.5t-34 35t-14 50q-1 42 20 73.5t64 62.5l47 -63
q-17 -8 -29 -24t-11 -35q1 -17 15 -27t36.5 -14t48.5 -4h104q55 0 89.5 -16.5t50 -46.5t15.5 -70q0 -78 -60 -118t-172 -40zM268 149q-59 0 -103.5 22.5t-69.5 62t-25 90.5q0 54 26.5 93.5t71 62t97.5 22.5t97 -22.5t71 -63.5t27 -96q0 -52 -24.5 -90.5t-67.5 -59.5
t-100 -21zM266 226q47 0 72 28t25 69q0 43 -26.5 70t-70.5 27q-45 0 -71.5 -27t-26.5 -69q0 -41 25.5 -69.5t72.5 -28.5zM428 397l-70 47l106 87l51 -61zM216 578v119h111v-119h-111z" />
    <glyph glyph-name="uni1E21.ss02" horiz-adv-x="527" 
d="M269 -212q-46 0 -87 8t-73.5 25.5t-51.5 46.5t-19 70q0 11 2 21.5t5 19.5l95 67l50 -40l-60 -55v-9q0 -39 34 -59.5t106 -20.5q70 0 103.5 19t33.5 54q0 17 -6.5 31t-22.5 23t-46 9h-155q-15 0 -36.5 6.5t-41.5 20.5t-34 35t-14 50q-1 42 20 73.5t64 62.5l47 -63
q-17 -8 -29 -24t-11 -35q1 -17 15 -27t36.5 -14t48.5 -4h104q55 0 89.5 -16.5t50 -46.5t15.5 -70q0 -78 -60 -118t-172 -40zM268 149q-59 0 -103.5 22.5t-69.5 62t-25 90.5q0 54 26.5 93.5t71 62t97.5 22.5t97 -22.5t71 -63.5t27 -96q0 -52 -24.5 -90.5t-67.5 -59.5
t-100 -21zM266 226q47 0 72 28t25 69q0 43 -26.5 70t-70.5 27q-45 0 -71.5 -27t-26.5 -69q0 -41 25.5 -69.5t72.5 -28.5zM428 397l-70 47l106 87l51 -61zM134 580v59h273v-59h-273z" />
    <glyph glyph-name="uni1EB7.ss03" horiz-adv-x="542" 
d="M390 0l-8 91v219q0 52 -30 80t-87 28q-40 0 -76.5 -16t-69.5 -52l-61 63q44 46 97.5 67.5t116.5 21.5q99 0 153.5 -50.5t54.5 -141.5v-310h-90zM231 -9q-55 0 -97 20t-65 55.5t-23 82.5q0 41 17 70.5t44 45.5q25 16 57.5 22.5t69.5 6.5h157v-74h-143q-20 0 -41.5 -3.5
t-36.5 -14.5q-12 -9 -19 -22.5t-7 -31.5q0 -35 27 -56t72 -21q38 0 69.5 17.5t50.5 48t19 69.5l35 -46q-9 -52 -35 -90.5t-64.5 -58.5t-86.5 -20zM275 -188q-25 0 -42.5 18t-17.5 42q0 25 17.5 42.5t42.5 17.5t42.5 -17.5t17.5 -42.5q0 -24 -17.5 -42t-42.5 -18zM275 553
q-79 0 -116.5 35.5t-37.5 108.5h64q0 -46 24 -66t66 -20q43 0 66.5 20.5t23.5 65.5h63q0 -75 -38.5 -109.5t-114.5 -34.5z" />
    <glyph glyph-name="uni1EAD.ss03" horiz-adv-x="542" 
d="M390 0l-8 91v219q0 52 -30 80t-87 28q-40 0 -76.5 -16t-69.5 -52l-61 63q44 46 97.5 67.5t116.5 21.5q99 0 153.5 -50.5t54.5 -141.5v-310h-90zM231 -9q-55 0 -97 20t-65 55.5t-23 82.5q0 41 17 70.5t44 45.5q25 16 57.5 22.5t69.5 6.5h157v-74h-143q-20 0 -41.5 -3.5
t-36.5 -14.5q-12 -9 -19 -22.5t-7 -31.5q0 -35 27 -56t72 -21q38 0 69.5 17.5t50.5 48t19 69.5l35 -46q-9 -52 -35 -90.5t-64.5 -58.5t-86.5 -20zM275 -188q-25 0 -42.5 18t-17.5 42q0 25 17.5 42.5t42.5 17.5t42.5 -17.5t17.5 -42.5q0 -24 -17.5 -42t-42.5 -18zM121 545
l153 166l153 -166h-79l-74 82l-73 -82h-80z" />
    <glyph glyph-name="adieresis.ss03" horiz-adv-x="542" 
d="M390 0l-8 91v219q0 52 -30 80t-87 28q-40 0 -76.5 -16t-69.5 -52l-61 63q44 46 97.5 67.5t116.5 21.5q99 0 153.5 -50.5t54.5 -141.5v-310h-90zM231 -9q-55 0 -97 20t-65 55.5t-23 82.5q0 41 17 70.5t44 45.5q25 16 57.5 22.5t69.5 6.5h157v-74h-143q-20 0 -41.5 -3.5
t-36.5 -14.5q-12 -9 -19 -22.5t-7 -31.5q0 -35 27 -56t72 -21q38 0 69.5 17.5t50.5 48t19 69.5l35 -46q-9 -52 -35 -90.5t-64.5 -58.5t-86.5 -20zM375 584q-25 0 -43 18.5t-18 42.5q0 26 18 43.5t43 17.5t43 -17.5t18 -43.5q0 -24 -18 -42.5t-43 -18.5zM173 584
q-25 0 -43 18.5t-18 42.5q0 26 17.5 43.5t43.5 17.5q25 0 43 -17.5t18 -43.5q0 -24 -18 -42.5t-43 -18.5z" />
    <glyph glyph-name="uni1EA1.ss03" horiz-adv-x="542" 
d="M390 0l-8 91v219q0 52 -30 80t-87 28q-40 0 -76.5 -16t-69.5 -52l-61 63q44 46 97.5 67.5t116.5 21.5q99 0 153.5 -50.5t54.5 -141.5v-310h-90zM231 -9q-55 0 -97 20t-65 55.5t-23 82.5q0 41 17 70.5t44 45.5q25 16 57.5 22.5t69.5 6.5h157v-74h-143q-20 0 -41.5 -3.5
t-36.5 -14.5q-12 -9 -19 -22.5t-7 -31.5q0 -35 27 -56t72 -21q38 0 69.5 17.5t50.5 48t19 69.5l35 -46q-9 -52 -35 -90.5t-64.5 -58.5t-86.5 -20zM275 -188q-25 0 -42.5 18t-17.5 42q0 25 17.5 42.5t42.5 17.5t42.5 -17.5t17.5 -42.5q0 -24 -17.5 -42t-42.5 -18z" />
    <glyph glyph-name="cdotaccent.ss03" horiz-adv-x="519" 
d="M277 -9q-56 0 -99.5 20.5t-73 56.5t-44.5 82t-15 97q0 50 15 96t44.5 82t73 56.5t99.5 20.5q72 0 125.5 -35t78.5 -106l-86 -33q-13 39 -42 64t-76 25q-46 0 -76 -24.5t-44 -63t-14 -82.5t14 -83t44 -63t76 -24q47 0 76 24.5t42 64.5l86 -33q-25 -72 -78.5 -107
t-125.5 -35zM267 584q-25 0 -43 18.5t-18 42.5q0 26 17.5 43.5t43.5 17.5q25 0 43 -17.5t18 -43.5q0 -24 -18 -42.5t-43 -18.5z" />
    <glyph glyph-name="uni1EC7.ss03" horiz-adv-x="540" 
d="M280 -9q-60 0 -104 20t-73 55.5t-43.5 81t-14.5 95.5t14 96.5t42 83t70.5 58t100.5 21.5t100 -19.5t69 -54t40.5 -77.5t13.5 -91q0 -5 -0.5 -18.5t-2.5 -25.5h-349q3 -66 40.5 -101.5t99.5 -35.5q42 0 75 13.5t61 42.5l60 -62q-29 -29 -59.5 -47t-64 -26.5t-75.5 -8.5z
M398 265q2 8 2.5 16t0.5 16q0 23 -8 45t-24 39.5t-39.5 28t-54.5 10.5q-41 0 -70 -18.5t-44.5 -48.5t-18.5 -65h288zM281 -188q-25 0 -42.5 18t-17.5 42q0 25 17.5 42.5t42.5 17.5t42.5 -17.5t17.5 -42.5q0 -24 -17.5 -42t-42.5 -18zM120 545l153 166l153 -166h-79l-74 82
l-73 -82h-80z" />
    <glyph glyph-name="edieresis.ss03" horiz-adv-x="540" 
d="M280 -9q-60 0 -104 20t-73 55.5t-43.5 81t-14.5 95.5t14 96.5t42 83t70.5 58t100.5 21.5t100 -19.5t69 -54t40.5 -77.5t13.5 -91q0 -5 -0.5 -18.5t-2.5 -25.5h-349q3 -66 40.5 -101.5t99.5 -35.5q42 0 75 13.5t61 42.5l60 -62q-29 -29 -59.5 -47t-64 -26.5t-75.5 -8.5z
M398 265q2 8 2.5 16t0.5 16q0 23 -8 45t-24 39.5t-39.5 28t-54.5 10.5q-41 0 -70 -18.5t-44.5 -48.5t-18.5 -65h288zM374 584q-25 0 -43 18.5t-18 42.5q0 26 18 43.5t43 17.5t43 -17.5t18 -43.5q0 -24 -18 -42.5t-43 -18.5zM172 584q-25 0 -43 18.5t-18 42.5q0 26 17.5 43.5
t43.5 17.5q25 0 43 -17.5t18 -43.5q0 -24 -18 -42.5t-43 -18.5z" />
    <glyph glyph-name="edotaccent.ss03" horiz-adv-x="540" 
d="M280 -9q-60 0 -104 20t-73 55.5t-43.5 81t-14.5 95.5t14 96.5t42 83t70.5 58t100.5 21.5t100 -19.5t69 -54t40.5 -77.5t13.5 -91q0 -5 -0.5 -18.5t-2.5 -25.5h-349q3 -66 40.5 -101.5t99.5 -35.5q42 0 75 13.5t61 42.5l60 -62q-29 -29 -59.5 -47t-64 -26.5t-75.5 -8.5z
M398 265q2 8 2.5 16t0.5 16q0 23 -8 45t-24 39.5t-39.5 28t-54.5 10.5q-41 0 -70 -18.5t-44.5 -48.5t-18.5 -65h288zM274 584q-25 0 -43 18.5t-18 42.5q0 26 17.5 43.5t43.5 17.5q25 0 43 -17.5t18 -43.5q0 -24 -18 -42.5t-43 -18.5z" />
    </font>
</defs>
</svg>
